<svg width="24" height="24" viewBox="0 0 24 24" fill="none" xmlns="http://www.w3.org/2000/svg">
<g clip-path="url(#clip0_3902_42568)">
<g clip-path="url(#clip1_3902_42568)">
<path d="M18.459 5.54089C17.5953 4.67748 16.4581 4.14136 15.2425 4.02443C14.0268 3.9075 12.8084 4.21704 11.7959 4.89999C10.7835 5.58295 10.0401 6.59679 9.6932 7.76775C9.34631 8.93871 9.4175 10.1939 9.89458 11.3181C7.90552 13.0585 6.03051 14.925 4.28114 16.9062C4.07802 17.1353 3.98021 17.4531 4.00333 17.7771C4.03854 18.2732 4.06489 18.7599 4.08239 19.2371C4.0869 19.4162 4.16006 19.5867 4.28674 19.7134C4.41342 19.8401 4.58393 19.9133 4.76302 19.9178C5.23927 19.934 5.72677 19.9615 6.22271 19.9965C6.54677 20.0196 6.86458 19.9215 7.09489 19.7181C7.20448 19.6212 7.31375 19.524 7.42271 19.4265C7.50553 19.3526 7.559 19.2513 7.57333 19.1412C7.60979 18.8725 7.64385 18.601 7.67552 18.3268C7.72396 17.9081 8.10364 17.6346 8.54521 17.7153C9.35552 17.8646 9.99302 17.2434 9.84677 16.434V16.4278C9.76802 15.9865 10.0446 15.609 10.469 15.5671C10.7427 15.5399 11.0149 15.5111 11.2855 15.4809C11.3974 15.4692 11.5013 15.4172 11.5777 15.3346C11.9515 14.9303 12.3198 14.5207 12.6827 14.1059C13.807 14.5828 15.0621 14.6539 16.2331 14.3069C17.404 13.9599 18.4177 13.2164 19.1006 12.2039C19.7834 11.1913 20.0928 9.97284 19.9758 8.75721C19.8587 7.54157 19.3225 6.4045 18.459 5.54089ZM17.0936 8.96433C16.8901 9.16775 16.6309 9.30627 16.3486 9.36236C16.0664 9.41845 15.7739 9.3896 15.5081 9.27945C15.2422 9.16931 15.015 8.98282 14.8552 8.74356C14.6953 8.5043 14.61 8.22301 14.61 7.93527C14.61 7.64752 14.6953 7.36624 14.8552 7.12698C15.015 6.88772 15.2422 6.70123 15.5081 6.59108C15.7739 6.48094 16.0664 6.45209 16.3486 6.50818C16.6309 6.56427 16.8901 6.70278 17.0936 6.90621C17.2288 7.04132 17.336 7.20175 17.4092 7.37832C17.4824 7.55489 17.52 7.74414 17.52 7.93527C17.52 8.1264 17.4824 8.31565 17.4092 8.49222C17.336 8.66879 17.2288 8.82921 17.0936 8.96433Z" fill="#71347B"/>
</g>
</g>
<defs>
<clipPath id="clip0_3902_42568">
<path d="M0 4C0 1.79086 1.79086 0 4 0H20C22.2091 0 24 1.79086 24 4V20C24 22.2091 22.2091 24 20 24H4C1.79086 24 0 22.2091 0 20V4Z" fill="white"/>
</clipPath>
<clipPath id="clip1_3902_42568">
<rect width="16" height="16" fill="white" transform="translate(4 4)"/>
</clipPath>
</defs>
</svg>
