<svg width="16" height="16" viewBox="0 0 16 16" fill="none" xmlns="http://www.w3.org/2000/svg">
<g clip-path="url(#clip0_471_2)">
<path d="M11.6667 1.278C10.916 1.28968 10.1816 1.49924 9.53783 1.88551C8.89404 2.27179 8.36357 2.82111 7.99999 3.478C7.63642 2.82111 7.10595 2.27179 6.46215 1.88551C5.81835 1.49924 5.08403 1.28968 4.33333 1.278C3.13662 1.32999 2.00913 1.8535 1.19718 2.73415C0.385232 3.61481 -0.0451745 4.78102 -7.46106e-06 5.978C-7.46106e-06 9.00933 3.19066 12.32 5.86666 14.5647C6.46414 15.0668 7.21956 15.342 7.99999 15.342C8.78042 15.342 9.53585 15.0668 10.1333 14.5647C12.8093 12.32 16 9.00933 16 5.978C16.0452 4.78102 15.6148 3.61481 14.8028 2.73415C13.9909 1.8535 12.8634 1.32999 11.6667 1.278ZM9.27666 13.5447C8.91931 13.8456 8.46716 14.0106 7.99999 14.0106C7.53282 14.0106 7.08067 13.8456 6.72333 13.5447C3.29799 10.6707 1.33333 7.91333 1.33333 5.978C1.28775 5.13448 1.57757 4.30715 2.13957 3.67647C2.70157 3.04578 3.49015 2.6629 4.33333 2.61133C5.1765 2.6629 5.96509 3.04578 6.52708 3.67647C7.08908 4.30715 7.3789 5.13448 7.33333 5.978C7.33333 6.15481 7.40356 6.32438 7.52859 6.4494C7.65361 6.57443 7.82318 6.64467 7.99999 6.64467C8.1768 6.64467 8.34637 6.57443 8.4714 6.4494C8.59642 6.32438 8.66666 6.15481 8.66666 5.978C8.62109 5.13448 8.9109 4.30715 9.4729 3.67647C10.0349 3.04578 10.8235 2.6629 11.6667 2.61133C12.5098 2.6629 13.2984 3.04578 13.8604 3.67647C14.4224 4.30715 14.7122 5.13448 14.6667 5.978C14.6667 7.91333 12.702 10.6707 9.27666 13.542V13.5447Z" fill="currentColor"/>
</g>
<defs>
<clipPath id="clip0_471_2">
<rect width="16" height="16" fill="white"/>
</clipPath>
</defs>
</svg>
