<svg width="14" height="16" viewBox="0 0 14 16" fill="currentColor" xmlns="http://www.w3.org/2000/svg">
    <path
        d="M8.35067 16C8.88564 16 9.35217 15.5335 9.35217 14.9985V12.6596H10.0209C10.4222 12.6596 10.6896 12.392 10.6896 11.9908V5.31055H2.67139V11.9909C2.67139 12.3921 2.93887 12.6596 3.3401 12.6596H4.00887V14.9985C4.00887 15.5335 4.47528 16 5.01036 16C5.54528 16 6.01175 15.5335 6.01175 14.9985V12.6596H7.34923V14.9985C7.34918 15.5335 7.8157 16 8.35067 16Z"
        fill="currentColor" />
    <path
        d="M12.3599 11.9909C12.8949 11.9909 13.3613 11.5244 13.3613 10.9894V6.31161C13.3613 5.77947 12.8949 5.31055 12.3599 5.31055C11.8249 5.31055 11.3584 5.77947 11.3584 6.31161V10.9894C11.3584 11.5244 11.8248 11.9909 12.3599 11.9909Z"
        fill="currentColor" />
    <path
        d="M1.00139 11.9909C1.53641 11.9909 2.00288 11.5244 2.00288 10.9894V6.31161C2.00288 5.77947 1.53647 5.31055 1.00139 5.31055C0.466418 5.31055 0 5.77947 0 6.31161V10.9894C0 11.5244 0.466418 11.9909 1.00139 11.9909Z"
        fill="currentColor" />
    <path
        d="M9.88708 0.100908C9.75339 -0.0336359 9.55436 -0.0336359 9.42067 0.100908L8.52376 0.994821L8.48239 1.03615C7.95056 0.769834 7.3543 0.636839 6.69029 0.635558C6.68703 0.635558 6.68383 0.635451 6.68057 0.635451H6.68046C6.6771 0.635451 6.674 0.635558 6.67064 0.635558C6.00668 0.636839 5.41042 0.769834 4.87865 1.03615L4.83716 0.994821L3.94031 0.100908C3.80652 -0.0336359 3.60759 -0.0336359 3.4739 0.100908C3.3401 0.234704 3.3401 0.433262 3.4739 0.566951L4.34149 1.4347C4.06194 1.62136 3.80844 1.84976 3.58799 2.111C3.06023 2.73657 2.7236 3.55072 2.67731 4.43284C2.67689 4.44202 2.67598 4.45109 2.67555 4.46028C2.67272 4.52034 2.67139 4.58073 2.67139 4.64132H10.6896C10.6896 4.58073 10.6882 4.52034 10.6854 4.46028C10.685 4.45109 10.6841 4.44202 10.6836 4.43284C10.6374 3.55072 10.3006 2.73652 9.77288 2.11105C9.55254 1.84981 9.29894 1.62141 9.01939 1.43476L9.88708 0.567005C10.0209 0.433262 10.0209 0.234704 9.88708 0.100908ZM5.00908 3.47373C4.73241 3.47373 4.50812 3.24944 4.50812 2.97277C4.50812 2.6961 4.73241 2.47181 5.00908 2.47181C5.28575 2.47181 5.51004 2.6961 5.51004 2.97277C5.51004 3.24944 5.28575 3.47373 5.00908 3.47373ZM8.3519 3.47373C8.07523 3.47373 7.85094 3.24944 7.85094 2.97277C7.85094 2.6961 8.07523 2.47181 8.3519 2.47181C8.62857 2.47181 8.85286 2.6961 8.85286 2.97277C8.85286 3.24944 8.62857 3.47373 8.3519 3.47373Z"
        fill="currentColor" />
</svg>
