<svg width="21" height="10" viewBox="0 0 21 10" fill="none" xmlns="http://www.w3.org/2000/svg">
<path d="M10.4555 0.0120035C10.9055 0.0538348 11.262 0.214164 11.5124 0.485794C11.8815 0.869316 12.0383 1.50846 11.9921 2.34836C11.9459 3.47141 11.1339 5.01449 9.6293 6.95006L9.32022 7.33837C7.79967 9.20544 6.6162 9.9999 5.59505 10L5.49837 9.99131C4.62806 9.84323 3.79056 7.72762 3.1575 5.64098L2.89017 4.72238C2.56995 3.56676 2.29827 3.04485 1.98414 2.99167L1.92042 2.98732C1.61581 2.98748 1.20058 3.27058 0.766834 3.59006L0.757312 3.59948L0.703112 3.63063C0.570037 3.69098 0.403106 3.65493 0.314189 3.53501L0.0651608 3.22494C-0.0237025 3.11307 -0.0206645 2.95211 0.0680906 2.84026L0.111304 2.79534L0.314189 2.6222C1.65265 1.46267 3.2959 0.147707 4.04375 0.147476L4.21661 0.153996C5.0323 0.216035 5.17884 0.741347 5.4471 1.69997C5.47424 1.79869 6.42782 6.04172 6.75596 6.31545L6.78599 6.32921C6.87858 6.32851 7.16476 5.9542 7.70886 5.11503C8.14265 4.43036 8.50283 3.77298 8.5768 3.52631C8.65983 3.23429 8.64126 3.00592 8.53065 2.85982C8.41291 2.7091 8.22226 2.65056 8.03699 2.63089L7.85681 2.6222C7.68141 2.6222 7.51467 2.64971 7.3485 2.69537C7.32561 2.70432 7.30041 2.70453 7.27526 2.70116L7.20128 2.68595C7.07211 2.64032 7.01683 2.50366 7.06285 2.37588C7.65367 0.750577 8.74302 -0.0437935 10.257 0.00186115L10.4555 0.0120035Z" fill="currentColor"/>
<path d="M16 0.75C16.5324 0.75 16.9636 1.18153 16.9639 1.71387V4.03613H19.2861C19.8185 4.03636 20.25 4.46761 20.25 5C20.25 5.53239 19.8185 5.96364 19.2861 5.96387H16.9639V8.28613C16.9636 8.81847 16.5324 9.25 16 9.25C15.4676 9.25 15.0364 8.81847 15.0361 8.28613V5.96387H12.7139C12.1815 5.96364 11.75 5.53239 11.75 5C11.75 4.46761 12.1815 4.03636 12.7139 4.03613H15.0361V1.71387C15.0364 1.18153 15.4676 0.75 16 0.75Z" fill="currentColor" stroke="white" stroke-width="0.5"/>
</svg>

