<svg width="17" height="18" viewBox="0 0 17 18" fill="none" xmlns="http://www.w3.org/2000/svg">
<path fill-rule="evenodd" clip-rule="evenodd" d="M13.879 14.9216C13.879 15.4641 13.6632 15.9851 13.2799 16.3691C12.8959 16.7523 12.375 16.9681 11.8325 16.9681H2.90222C2.35971 16.9681 1.83878 16.7523 1.45478 16.3691C1.07153 15.9851 0.855713 15.4641 0.855713 14.9216V3.01465C0.855713 2.47214 1.07153 1.95121 1.45478 1.56721C1.83878 1.18395 2.35971 0.96814 2.90222 0.96814H9.29181C9.63711 0.96814 9.96827 1.10507 10.2124 1.34991L13.4972 4.63474C13.742 4.87884 13.879 5.21 13.879 5.5553V14.9216ZM12.7627 14.9216V5.5553C12.7627 5.50619 12.7433 5.45856 12.7084 5.42358L9.42353 2.13874C9.38855 2.10377 9.34092 2.08442 9.29181 2.08442H2.90222C2.65515 2.08442 2.41925 2.18265 2.24436 2.35679C2.07022 2.53167 1.97199 2.76758 1.97199 3.01465V14.9216C1.97199 15.1687 2.07022 15.4046 2.24436 15.5795C2.41925 15.7536 2.65515 15.8519 2.90222 15.8519H11.8325C12.0795 15.8519 12.3154 15.7536 12.4903 15.5795C12.6645 15.4046 12.7627 15.1687 12.7627 14.9216Z" fill="CurrentColor"/>
<path d="M13.29 11.3809C13.5703 11.381 13.8389 11.4924 14.0371 11.6905C14.2352 11.8886 14.3466 12.1574 14.3467 12.4376V13.2374H15.1465C15.4268 13.2374 15.6963 13.3487 15.8945 13.5469C16.0928 13.7452 16.2041 14.0146 16.2041 14.295C16.2041 14.5751 16.0925 14.8439 15.8945 15.0421C15.6963 15.2403 15.4268 15.3516 15.1465 15.3516H14.3467V16.1514C14.3467 16.4318 14.2353 16.7012 14.0371 16.8995C13.8389 17.0975 13.5702 17.209 13.29 17.209C13.0097 17.209 12.7402 17.0977 12.542 16.8995C12.3438 16.7012 12.2324 16.4318 12.2324 16.1514V15.3516H11.4326C11.1524 15.3515 10.8837 15.2402 10.6855 15.0421C10.4874 14.8439 10.376 14.5752 10.376 14.295C10.376 14.0146 10.4873 13.7452 10.6855 13.5469C10.8837 13.3489 11.1525 13.2375 11.4326 13.2374H12.2324V12.4376C12.2325 12.1575 12.344 11.8886 12.542 11.6905C12.7402 11.4923 13.0097 11.3809 13.29 11.3809Z" fill="CurrentColor" stroke="white"/>
<path fill-rule="evenodd" clip-rule="evenodd" d="M9.04175 1.89838C9.04175 1.59029 9.29179 1.34024 9.59989 1.34024C9.90798 1.34024 10.158 1.59029 10.158 1.89838V4.50303C10.158 4.60573 10.2414 4.68908 10.3441 4.68908H12.9487C13.2568 4.68908 13.5069 4.93912 13.5069 5.24722C13.5069 5.55531 13.2568 5.80536 12.9487 5.80536H10.3441C9.62445 5.80536 9.04175 5.22266 9.04175 4.50303V1.89838Z" fill="CurrentColor"/>
<path fill-rule="evenodd" clip-rule="evenodd" d="M4.3906 8.41001C4.08251 8.41001 3.83246 8.15996 3.83246 7.85187C3.83246 7.54378 4.08251 7.29373 4.3906 7.29373H10.3441C10.6522 7.29373 10.9022 7.54378 10.9022 7.85187C10.9022 8.15996 10.6522 8.41001 10.3441 8.41001H4.3906Z" fill="CurrentColor"/>
<path fill-rule="evenodd" clip-rule="evenodd" d="M4.3906 11.0147C4.08251 11.0147 3.83246 10.7646 3.83246 10.4565C3.83246 10.1484 4.08251 9.89838 4.3906 9.89838H10.3441C10.6522 9.89838 10.9022 10.1484 10.9022 10.4565C10.9022 10.7646 10.6522 11.0147 10.3441 11.0147H4.3906Z" fill="CurrentColor"/>
<path fill-rule="evenodd" clip-rule="evenodd" d="M4.3906 13.6193C4.0825 13.6193 3.83246 13.3693 3.83246 13.0612C3.83246 12.7531 4.0825 12.503 4.3906 12.503H7.73943C8.04753 12.503 8.29757 12.7531 8.29757 13.0612C8.29757 13.3693 8.04753 13.6193 7.73943 13.6193H4.3906Z" fill="CurrentColor"/>
</svg>
