<svg width="16" height="14" viewBox="0 0 16 14" fill="none" xmlns="http://www.w3.org/2000/svg">
<path d="M14.9799 1.39074L14.98 1.39066C14.7152 1.10024 14.2958 0.91202 13.667 0.901363L13.6603 0.901248L13.6603 0.901202C12.7479 0.873384 11.9951 1.10031 11.384 1.55729C10.8289 1.97239 10.3593 2.60115 10.001 3.47483C10.1534 3.44887 10.311 3.43399 10.4753 3.43399C10.7848 3.43399 11.4004 3.4707 11.7695 3.94829L11.7739 3.95398L11.7738 3.95401C12.0596 4.33506 12.0442 4.83443 11.9167 5.28791L11.9148 5.29459L11.9148 5.29458C11.8487 5.5177 11.679 5.86554 11.4767 6.23962C11.2662 6.62901 10.996 7.09066 10.702 7.55973L10.6993 7.56416L10.6992 7.56414C10.3347 8.13251 10.0495 8.55478 9.83621 8.83812C9.73082 8.9781 9.63297 9.09769 9.54476 9.18669C9.50132 9.23051 9.44774 9.27975 9.3864 9.32131C9.33933 9.3532 9.21625 9.43126 9.04751 9.43126H9.03969L9.03189 9.43102C8.86024 9.42565 8.74138 9.34197 8.68565 9.29502C8.62506 9.24396 8.58139 9.18766 8.55261 9.14632C8.49422 9.06244 8.44439 8.96269 8.40245 8.86844C8.31617 8.6746 8.22417 8.41394 8.13119 8.12159C7.94369 7.5321 7.73346 6.75358 7.53672 5.98052C7.33946 5.20536 7.15363 4.42727 7.01499 3.8353C6.94564 3.53916 6.88802 3.28929 6.84663 3.10947L6.79742 2.89575C6.78998 2.86356 6.7853 2.8436 6.78273 2.83267C6.78085 2.82467 6.78011 2.82151 6.78026 2.82195C6.57968 2.09733 6.4571 1.68312 6.26635 1.42424C6.18505 1.31391 6.0959 1.24128 5.9786 1.19094C5.85381 1.13739 5.67159 1.09837 5.39186 1.09837C5.26627 1.09837 5.03076 1.1623 4.67253 1.3451C4.32974 1.52003 3.92898 1.77495 3.49123 2.08709C2.6167 2.71068 1.63791 3.53124 0.748646 4.31012L0.746028 4.31241L0.74602 4.3124L0.529348 4.49953L0.770345 4.803C1.04584 4.59868 1.33341 4.39361 1.60844 4.23668C1.8837 4.07963 2.21683 3.9283 2.55433 3.92635C3.08046 3.91574 3.42074 4.32093 3.64468 4.72599C3.88424 5.15933 4.10594 5.79526 4.33533 6.63214C4.78297 8.25095 5.33179 9.99936 5.93252 11.3357C6.23406 12.0064 6.53701 12.5465 6.83047 12.9111C7.13988 13.2955 7.35241 13.3793 7.4597 13.3793C8.04015 13.3793 8.72417 13.1366 9.55755 12.509C10.3917 11.8809 11.3418 10.8921 12.4423 9.46323L14.9799 1.39074ZM14.9799 1.39074L14.9874 1.39862M14.9799 1.39074L14.9874 1.39862M14.9874 1.39862C15.338 1.76673 15.549 2.45607 15.4903 3.5376L15.4902 3.5376M14.9874 1.39862L15.4902 3.5376M15.4902 3.5376L15.4899 3.54442M15.4902 3.5376L15.4899 3.54442M15.4899 3.54442C15.4633 4.19952 15.2114 5.02391 14.6981 6.02812M15.4899 3.54442L14.6981 6.02812M14.6981 6.02812C14.1875 7.02705 13.4345 8.17281 12.4424 9.46314L14.6981 6.02812Z" fill="currentColor" stroke="currentColor"/>
<path d="M13.4708 9.75072H15.8999V11.1833H13.4708H13.3708V11.2833V13.7793H11.8044V11.2833V11.1833H11.7044H9.27529V9.75072H11.7044H11.8044V9.65072V7.15469H13.3708V9.65072V9.75072H13.4708Z" fill="currentColor" stroke="white" stroke-width="0.2"/>
</svg>
