<svg width="18" height="16" viewBox="0 0 18 16" fill="none" xmlns="http://www.w3.org/2000/svg">
<path d="M7.63602 0.975634L7.63602 0.975628C7.39589 0.735534 7.07618 0.603125 6.73666 0.603125H2.17188C1.47046 0.603125 0.9 1.17358 0.9 1.875V14.125C0.9 14.8264 1.47046 15.3969 2.17188 15.3969H15.8281C16.5295 15.3969 17.1 14.8264 17.1 14.125V3.75C17.1 3.04858 16.5295 2.47812 15.8281 2.47812H9.13848L7.63602 0.975634ZM9.23643 6.79895L9.23646 6.79893L10.8368 5.19853C10.9509 5.08447 11.1021 5.02187 11.2633 5.02187H15.8281C16.1606 5.02187 16.4312 5.29251 16.4312 5.625V14.125C16.4312 14.4575 16.1606 14.7281 15.8281 14.7281H2.17188C1.83941 14.7281 1.56875 14.4575 1.56875 14.125V7.5C1.56875 7.16751 1.83941 6.89687 2.17188 6.89687H9C9.08869 6.89687 9.1737 6.86164 9.23643 6.79895ZM2.17188 1.27188H6.73666C6.89795 1.27188 7.04908 1.33447 7.16313 1.44852L8.76354 3.04893C8.82626 3.11165 8.91129 3.14687 9 3.14687H15.8281C16.1606 3.14687 16.4312 3.41751 16.4312 3.75V4.5055C16.3469 4.4599 16.2569 4.42353 16.1625 4.39778V3.75C16.1625 3.56534 16.0128 3.41563 15.8281 3.41563H2.17188C1.98717 3.41563 1.8375 3.56534 1.8375 3.75V6.27278C1.74309 6.29853 1.65306 6.3349 1.56875 6.3805V1.875C1.56875 1.54251 1.83941 1.27188 2.17188 1.27188ZM4.04688 4.35313C3.86217 4.35313 3.7125 4.50284 3.7125 4.6875C3.7125 4.87216 3.86217 5.02187 4.04688 5.02187H10.0677L8.86152 6.22813H2.50625V5.02187H3.10938C3.29408 5.02187 3.44375 4.87216 3.44375 4.6875C3.44375 4.50284 3.29408 4.35313 3.10938 4.35313H2.50625V4.08437H15.4937V4.35313H4.04688Z" fill="currentColor" stroke="currentColor" stroke-width="0.2"/>
<mask id="path-2-outside-1_6891_65" maskUnits="userSpaceOnUse" x="9.35828" y="7.65503" width="6" height="6" fill="black">
<rect fill="white" x="9.35828" y="7.65503" width="6" height="6"/>
<path fill-rule="evenodd" clip-rule="evenodd" d="M13.0806 10.5744V9.05659C13.0806 8.83483 12.9008 8.65503 12.6791 8.65503C12.4573 8.65503 12.2775 8.83483 12.2775 9.05659V10.5744H10.7598C10.5381 10.5744 10.3583 10.7542 10.3583 10.976C10.3583 11.1978 10.5381 11.3776 10.7598 11.3776H12.2775V12.8953C12.2775 13.1171 12.4573 13.2969 12.6791 13.2969C12.9008 13.2969 13.0806 13.1171 13.0806 12.8953V11.3776H14.5986C14.8203 11.3776 15.0001 11.1978 15.0001 10.976C15.0001 10.7542 14.8203 10.5744 14.5986 10.5744H13.0806Z"/>
</mask>
<path fill-rule="evenodd" clip-rule="evenodd" d="M13.0806 10.5744V9.05659C13.0806 8.83483 12.9008 8.65503 12.6791 8.65503C12.4573 8.65503 12.2775 8.83483 12.2775 9.05659V10.5744H10.7598C10.5381 10.5744 10.3583 10.7542 10.3583 10.976C10.3583 11.1978 10.5381 11.3776 10.7598 11.3776H12.2775V12.8953C12.2775 13.1171 12.4573 13.2969 12.6791 13.2969C12.9008 13.2969 13.0806 13.1171 13.0806 12.8953V11.3776H14.5986C14.8203 11.3776 15.0001 11.1978 15.0001 10.976C15.0001 10.7542 14.8203 10.5744 14.5986 10.5744H13.0806Z" fill="currentColor"/>
<path d="M13.0806 10.5744H12.8806V10.7744H13.0806V10.5744ZM12.6791 8.65503V8.45503V8.65503ZM12.2775 10.5744V10.7744H12.4775V10.5744H12.2775ZM12.2775 11.3776H12.4775V11.1776H12.2775V11.3776ZM13.0806 11.3776V11.1776H12.8806V11.3776H13.0806ZM12.8806 9.05659V10.5744H13.2806V9.05659H12.8806ZM12.6791 8.85503C12.7904 8.85503 12.8806 8.94528 12.8806 9.05659H13.2806C13.2806 8.72437 13.0113 8.45503 12.6791 8.45503V8.85503ZM12.4775 9.05659C12.4775 8.94528 12.5678 8.85503 12.6791 8.85503V8.45503C12.3468 8.45503 12.0775 8.72437 12.0775 9.05659H12.4775ZM12.4775 10.5744V9.05659H12.0775V10.5744H12.4775ZM10.7598 10.7744H12.2775V10.3744H10.7598V10.7744ZM10.5583 10.976C10.5583 10.8647 10.6485 10.7744 10.7598 10.7744V10.3744C10.4276 10.3744 10.1583 10.6438 10.1583 10.976H10.5583ZM10.7598 11.1776C10.6485 11.1776 10.5583 11.0873 10.5583 10.976H10.1583C10.1583 11.3082 10.4276 11.5776 10.7598 11.5776V11.1776ZM12.2775 11.1776H10.7598V11.5776H12.2775V11.1776ZM12.4775 12.8953V11.3776H12.0775V12.8953H12.4775ZM12.6791 13.0969C12.5678 13.0969 12.4775 13.0066 12.4775 12.8953H12.0775C12.0775 13.2275 12.3468 13.4969 12.6791 13.4969V13.0969ZM12.8806 12.8953C12.8806 13.0066 12.7904 13.0969 12.6791 13.0969V13.4969C13.0113 13.4969 13.2806 13.2275 13.2806 12.8953H12.8806ZM12.8806 11.3776V12.8953H13.2806V11.3776H12.8806ZM14.5986 11.1776H13.0806V11.5776H14.5986V11.1776ZM14.8001 10.976C14.8001 11.0873 14.7099 11.1776 14.5986 11.1776V11.5776C14.9308 11.5776 15.2001 11.3082 15.2001 10.976H14.8001ZM14.5986 10.7744C14.7099 10.7744 14.8001 10.8647 14.8001 10.976H15.2001C15.2001 10.6438 14.9308 10.3744 14.5986 10.3744V10.7744ZM13.0806 10.7744H14.5986V10.3744H13.0806V10.7744Z" fill="currentColor" mask="url(#path-2-outside-1_6891_65)"/>
</svg>
