<svg width="24" height="24" viewBox="0 0 24 24" fill="none" xmlns="http://www.w3.org/2000/svg">
<g clip-path="url(#clip0_14759_41542)">
<path fill-rule="evenodd" clip-rule="evenodd" d="M17.879 17.9216C17.879 18.4641 17.6632 18.9851 17.2799 19.3691C16.8959 19.7523 16.375 19.9681 15.8325 19.9681H6.90222C6.35971 19.9681 5.83878 19.7523 5.45478 19.3691C5.07153 18.9851 4.85571 18.4641 4.85571 17.9216V6.01465C4.85571 5.47214 5.07153 4.95121 5.45478 4.56721C5.83878 4.18395 6.35971 3.96814 6.90222 3.96814H13.2918C13.6371 3.96814 13.9683 4.10507 14.2124 4.34991L17.4972 7.63474C17.742 7.87884 17.879 8.21 17.879 8.5553V17.9216ZM16.7627 17.9216V8.5553C16.7627 8.50619 16.7433 8.45856 16.7084 8.42358L13.4235 5.13874C13.3885 5.10377 13.3409 5.08442 13.2918 5.08442H6.90222C6.65515 5.08442 6.41925 5.18265 6.24436 5.35679C6.07022 5.53167 5.97199 5.76758 5.97199 6.01465V17.9216C5.97199 18.1687 6.07022 18.4046 6.24436 18.5795C6.41925 18.7536 6.65515 18.8519 6.90222 18.8519H15.8325C16.0795 18.8519 16.3154 18.7536 16.4903 18.5795C16.6645 18.4046 16.7627 18.1687 16.7627 17.9216Z" fill="CurrentColor"/>
<path d="M19.8941 18.0423C20.0924 17.844 20.2037 17.5752 20.2037 17.2948C20.2037 17.0145 20.0924 16.7456 19.8941 16.5474C19.6959 16.3491 19.427 16.2378 19.1467 16.2378H18.3469V15.438C18.3469 15.1576 18.2355 14.8888 18.0373 14.6905C17.8391 14.4923 17.5702 14.3809 17.2899 14.3809C17.0095 14.3809 16.7407 14.4923 16.5424 14.6905L16.8544 15.0025L16.5424 14.6905C16.3442 14.8888 16.2328 15.1576 16.2328 15.438V16.2378H15.433C15.1527 16.2378 14.8838 16.3491 14.6856 16.5474L15.0391 16.9009L14.6856 16.5474C14.4873 16.7456 14.376 17.0145 14.376 17.2948C14.376 17.5752 14.4873 17.844 14.6856 18.0423C14.8838 18.2405 15.1527 18.3519 15.433 18.3519H16.2328V19.1516C16.2328 19.432 16.3442 19.7009 16.5424 19.8991C16.7407 20.0973 17.0095 20.2087 17.2899 20.2087C17.5702 20.2087 17.8391 20.0973 18.0373 19.8991C18.2355 19.7009 18.3469 19.432 18.3469 19.1516V18.3519H19.1467C19.427 18.3519 19.6959 18.2405 19.8941 18.0423Z" fill="CurrentColor" stroke="white"/>
<path fill-rule="evenodd" clip-rule="evenodd" d="M13.0417 4.89838C13.0417 4.59029 13.2918 4.34024 13.5999 4.34024C13.908 4.34024 14.158 4.59029 14.158 4.89838V7.50303C14.158 7.60573 14.2414 7.68908 14.3441 7.68908H16.9487C17.2568 7.68908 17.5069 7.93912 17.5069 8.24722C17.5069 8.55531 17.2568 8.80536 16.9487 8.80536H14.3441C13.6244 8.80536 13.0417 8.22266 13.0417 7.50303V4.89838Z" fill="CurrentColor"/>
<path fill-rule="evenodd" clip-rule="evenodd" d="M8.3906 11.41C8.08251 11.41 7.83246 11.16 7.83246 10.8519C7.83246 10.5438 8.08251 10.2937 8.3906 10.2937H14.3441C14.6522 10.2937 14.9022 10.5438 14.9022 10.8519C14.9022 11.16 14.6522 11.41 14.3441 11.41H8.3906Z" fill="CurrentColor"/>
<path fill-rule="evenodd" clip-rule="evenodd" d="M8.3906 14.0147C8.08251 14.0147 7.83246 13.7646 7.83246 13.4565C7.83246 13.1484 8.08251 12.8984 8.3906 12.8984H14.3441C14.6522 12.8984 14.9022 13.1484 14.9022 13.4565C14.9022 13.7646 14.6522 14.0147 14.3441 14.0147H8.3906Z" fill="CurrentColor"/>
<path fill-rule="evenodd" clip-rule="evenodd" d="M8.3906 16.6193C8.0825 16.6193 7.83246 16.3693 7.83246 16.0612C7.83246 15.7531 8.0825 15.503 8.3906 15.503H11.7394C12.0475 15.503 12.2976 15.7531 12.2976 16.0612C12.2976 16.3693 12.0475 16.6193 11.7394 16.6193H8.3906Z" fill="CurrentColor"/>
</g>
<defs>
<clipPath id="clip0_14759_41542">
<path d="M0 4C0 1.79086 1.79086 0 4 0H20C22.2091 0 24 1.79086 24 4V20C24 22.2091 22.2091 24 20 24H4C1.79086 24 0 22.2091 0 20V4Z" fill="white"/>
</clipPath>
</defs>
</svg>
