<svg width="16" height="16" viewBox="0 0 16 16" fill="none" xmlns="http://www.w3.org/2000/svg">
<path fill-rule="evenodd" clip-rule="evenodd" d="M14.1729 1.72611C14.1721 1.05414 13.6272 0.509644 12.9551 0.509644H7.85584C7.53286 0.509644 7.22312 0.637909 6.99472 0.866274L5.9944 1.86639C6.15911 1.98691 6.31427 2.11973 6.45851 2.2635L7.42526 1.29693C7.54028 1.18195 7.69317 1.11862 7.85584 1.11862H12.9552C13.2909 1.11862 13.5641 1.39182 13.5641 1.72759V6.8268H13.5641C13.5641 6.98947 13.5007 7.14244 13.3857 7.25746L6.74778 13.8941C6.63276 14.0091 6.47983 14.0725 6.31716 14.0725C6.15449 14.0725 6.00159 14.0091 5.88654 13.8941L0.787328 8.79474C0.672308 8.67972 0.608974 8.52675 0.608974 8.36412C0.608974 8.20145 0.672346 8.04852 0.787366 7.9335L0.801093 7.91977C0.657354 7.7755 0.52456 7.62032 0.404062 7.45557L0.356821 7.5028C-0.118902 7.97841 -0.11894 8.7496 0.356707 9.22532L5.45599 14.3246C5.6938 14.5625 6.00552 14.6814 6.31723 14.6814C6.51344 14.6814 6.70751 14.6287 6.88529 14.5345C6.95066 14.4806 6.99975 14.4416 7.04251 14.4076C7.06738 14.3878 7.09011 14.3698 7.11266 14.3515C7.35214 14.1572 7.57128 13.9378 10.1177 11.3887L10.1177 11.3886L10.1178 11.3885C11.0221 10.4833 12.2199 9.28423 13.8163 7.68816C14.0447 7.45972 14.1731 7.1499 14.1731 6.82684L14.173 2.09659L14.1729 1.72611ZM15.391 1.72759V7.43574C15.391 7.59841 15.3276 7.75138 15.2126 7.8664L8.01801 15.0597L8.44859 15.4903L15.6432 8.29706C15.8716 8.06861 16 7.7588 16 7.43574V1.72759H15.391ZM9.60576 3.859C9.60576 3.18727 10.1523 2.64105 10.8237 2.64105C11.4951 2.64105 12.0417 3.18727 12.0417 3.859C12.0417 4.53074 11.4951 5.07695 10.8237 5.07695C10.1523 5.07695 9.60576 4.53074 9.60576 3.859ZM10.2147 3.859C10.2147 4.1947 10.4877 4.46798 10.8237 4.46798C11.1597 4.46798 11.4327 4.1947 11.4327 3.859C11.4327 3.52331 11.1597 3.25003 10.8237 3.25003C10.4877 3.25003 10.2147 3.52331 10.2147 3.859ZM0.384796 5.09656C0.384796 3.30456 1.8428 1.84656 3.6348 1.84656C5.4268 1.84656 6.8848 3.30456 6.8848 5.09656C6.8848 6.88856 5.4268 8.34656 3.6348 8.34656C1.8428 8.34656 0.384796 6.88856 0.384796 5.09656ZM4.1348 5.59656H4.8848C5.1608 5.59656 5.3848 5.37256 5.3848 5.09656C5.3848 4.82056 5.1608 4.59656 4.8848 4.59656H4.1348V3.84656C4.1348 3.57056 3.9108 3.34656 3.6348 3.34656C3.3588 3.34656 3.1348 3.57056 3.1348 3.84656V4.59656H2.3848C2.1088 4.59656 1.8848 4.82056 1.8848 5.09656C1.8848 5.37256 2.1088 5.59656 2.3848 5.59656H3.1348V6.34656C3.1348 6.62256 3.3588 6.84656 3.6348 6.84656C3.9108 6.84656 4.1348 6.62256 4.1348 6.34656V5.59656Z" fill="currentColor"/>
</svg>
