<svg width="8" height="12" viewBox="0 0 8 12" fill="none" xmlns="http://www.w3.org/2000/svg">
<path d="M4.09486 12C3.32543 12 2.62978 11.8601 2.00791 11.5804C1.39657 11.3007 0.911726 10.8979 0.55336 10.372C0.194993 9.84615 0.0105402 9.22517 0 8.50909H2.37154C2.40316 8.99021 2.56126 9.37063 2.84585 9.65035C3.14097 9.93007 3.5415 10.0699 4.04743 10.0699C4.5639 10.0699 4.9697 9.94126 5.26482 9.68392C5.55995 9.41539 5.70751 9.06853 5.70751 8.64336C5.70751 8.2965 5.60738 8.01119 5.40711 7.78741C5.20685 7.56364 4.95389 7.39021 4.64822 7.26713C4.3531 7.13287 3.94203 6.98741 3.41502 6.83077C2.69829 6.60699 2.11331 6.38881 1.66008 6.17622C1.21739 5.95245 0.832675 5.62238 0.505929 5.18601C0.189723 4.73846 0.0316206 4.14545 0.0316206 3.40699C0.0316206 2.71329 0.194993 2.10909 0.521739 1.59441C0.848485 1.07972 1.30698 0.688111 1.89723 0.41958C2.48748 0.13986 3.16206 0 3.92095 0C5.05929 0 5.98155 0.296503 6.68775 0.88951C7.40448 1.47133 7.79974 2.28811 7.87352 3.33986H5.43874C5.41765 2.93706 5.25428 2.60699 4.94862 2.34965C4.65349 2.08112 4.25823 1.94685 3.76285 1.94685C3.3307 1.94685 2.98287 2.06434 2.71937 2.2993C2.4664 2.53427 2.33992 2.87552 2.33992 3.32308C2.33992 3.63636 2.43478 3.8993 2.62451 4.11189C2.82477 4.31329 3.06719 4.48112 3.35178 4.61538C3.6469 4.73846 4.05797 4.88392 4.58498 5.05175C5.30171 5.27552 5.88669 5.4993 6.33992 5.72308C6.79315 5.94685 7.18314 6.28252 7.50988 6.73007C7.83663 7.17762 8 7.76503 8 8.49231C8 9.11888 7.84717 9.7007 7.5415 10.2378C7.23584 10.7748 6.78788 11.2056 6.19763 11.5301C5.60738 11.8434 4.90646 12 4.09486 12Z" fill="CurrentColor"/>
</svg>
