<svg width="14" height="14" viewBox="0 0 14 14" fill="none" xmlns="http://www.w3.org/2000/svg">
    <path fill-rule="evenodd" clip-rule="evenodd"
        d="M2.79688 8.32801V2.87501C2.79688 1.29432 4.09013 -0.000244141 5.67169 -0.000244141H11.1247C12.7063 -0.000244141 13.9995 1.29432 13.9995 2.87501V8.32801C13.9995 9.90869 12.7063 11.2033 11.1247 11.2033H5.67169C4.09013 11.2033 2.79688 9.90869 2.79688 8.32801ZM12.1402 1.85963C11.8708 1.59029 11.5056 1.43863 11.1247 1.43782H5.67169C5.29077 1.43874 4.9257 1.59044 4.65631 1.85975C4.38691 2.12907 4.2351 2.49408 4.23406 2.87501V8.32801C4.23522 8.70889 4.38707 9.07384 4.65644 9.34313C4.9258 9.61242 5.2908 9.76415 5.67169 9.76519H11.1247C11.5056 9.76427 11.8707 9.61257 12.1401 9.34326C12.4095 9.07394 12.5613 8.70893 12.5623 8.32801V2.87501C12.5614 2.49405 12.4096 2.12896 12.1402 1.85963ZM0.718813 2.23969C1.11388 2.23969 1.43763 2.56344 1.43763 2.95851V10.7661C1.43763 11.7711 2.26363 12.5625 3.23444 12.5625H11.0416C11.4376 12.5625 11.7609 12.8858 11.7609 13.2813C11.7609 13.6768 11.4371 14.0001 11.0416 14.0001H3.23444C1.43763 14.0001 0 12.5262 0 10.7661V2.95851C0 2.56301 0.323313 2.23969 0.718813 2.23969ZM7.67944 4.88263V3.28576C7.67967 3.09514 7.75537 2.91237 7.88999 2.77742C8.02462 2.64247 8.2072 2.56632 8.39781 2.56563C8.58843 2.56644 8.77099 2.64261 8.90566 2.77752C9.04033 2.91243 9.11617 3.09514 9.11663 3.28576V4.88263H10.7148C11.1112 4.88263 11.4341 5.20682 11.4341 5.60144C11.4341 5.99738 11.1108 6.32026 10.7148 6.32026H9.11663V7.92019C9.11663 8.31569 8.79244 8.63857 8.39781 8.63857C8.00231 8.63857 7.679 8.31569 7.679 7.92019V6.32026H6.08081C5.68531 6.32026 5.362 5.99694 5.362 5.60144C5.362 5.20638 5.68575 4.88263 6.08081 4.88263H7.67944Z"
        fill="currentColor" />
</svg>