<svg width="24" height="24" viewBox="0 0 24 24" fill="none" xmlns="http://www.w3.org/2000/svg">
<g clip-path="url(#clip0_2947_12355)">
<path d="M18.9799 6.39074L18.98 6.39066C18.7152 6.10024 18.2958 5.91202 17.667 5.90136L17.6603 5.90125L17.6603 5.9012C16.7479 5.87338 15.9951 6.10031 15.384 6.55729C14.8289 6.97239 14.3593 7.60115 14.001 8.47483C14.1534 8.44887 14.311 8.43399 14.4753 8.43399C14.7848 8.43399 15.4004 8.4707 15.7695 8.94829L15.7739 8.95398L15.7738 8.95401C16.0596 9.33506 16.0442 9.83443 15.9167 10.2879L15.9148 10.2946L15.9148 10.2946C15.8487 10.5177 15.679 10.8655 15.4767 11.2396C15.2662 11.629 14.996 12.0907 14.702 12.5597L14.6993 12.5642L14.6992 12.5641C14.3347 13.1325 14.0495 13.5548 13.8362 13.8381C13.7308 13.9781 13.633 14.0977 13.5448 14.1867C13.5013 14.2305 13.4477 14.2797 13.3864 14.3213C13.3393 14.3532 13.2162 14.4313 13.0475 14.4313H13.0397L13.0319 14.431C12.8602 14.4257 12.7414 14.342 12.6857 14.295C12.6251 14.244 12.5814 14.1877 12.5526 14.1463C12.4942 14.0624 12.4444 13.9627 12.4024 13.8684C12.3162 13.6746 12.2242 13.4139 12.1312 13.1216C11.9437 12.5321 11.7335 11.7536 11.5367 10.9805C11.3395 10.2054 11.1536 9.42727 11.015 8.8353C10.9456 8.53916 10.888 8.28929 10.8466 8.10947L10.7974 7.89575C10.79 7.86356 10.7853 7.8436 10.7827 7.83267C10.7809 7.82467 10.7801 7.82151 10.7803 7.82195C10.5797 7.09733 10.4571 6.68312 10.2663 6.42424C10.1851 6.31391 10.0959 6.24128 9.9786 6.19094C9.85381 6.13739 9.67159 6.09837 9.39186 6.09837C9.26627 6.09837 9.03076 6.1623 8.67253 6.3451C8.32974 6.52003 7.92898 6.77495 7.49123 7.08709C6.6167 7.71068 5.63791 8.53124 4.74865 9.31012L4.74603 9.31241L4.74602 9.3124L4.52935 9.49953L4.77034 9.803C5.04584 9.59868 5.33341 9.39361 5.60844 9.23668C5.8837 9.07963 6.21683 8.9283 6.55433 8.92635C7.08046 8.91574 7.42074 9.32093 7.64468 9.72599C7.88424 10.1593 8.10594 10.7953 8.33533 11.6321C8.78297 13.251 9.33179 14.9994 9.93252 16.3357C10.2341 17.0064 10.537 17.5465 10.8305 17.9111C11.1399 18.2955 11.3524 18.3793 11.4597 18.3793C12.0402 18.3793 12.7242 18.1366 13.5576 17.509C14.3917 16.8809 15.3418 15.8921 16.4423 14.4632L18.9799 6.39074ZM18.9799 6.39074L18.9874 6.39862M18.9799 6.39074L18.9874 6.39862M18.9874 6.39862C19.338 6.76673 19.549 7.45607 19.4903 8.5376L19.4902 8.5376M18.9874 6.39862L19.4902 8.5376M19.4902 8.5376L19.4899 8.54442M19.4902 8.5376L19.4899 8.54442M19.4899 8.54442C19.4633 9.19952 19.2114 10.0239 18.6981 11.0281M19.4899 8.54442L18.6981 11.0281M18.6981 11.0281C18.1875 12.0271 17.4345 13.1728 16.4424 14.4631L18.6981 11.0281Z" fill="none" stroke="#71347B"/>
<path d="M17.4708 14.7507H19.8999V16.1833H17.4708H17.3708V16.2833V18.7793H15.8044V16.2833V16.1833H15.7044H13.2753V14.7507H15.7044H15.8044V14.6507V12.1547H17.3708V14.6507V14.7507H17.4708Z" fill="currentColor" stroke="white" stroke-width="0.2"/>
</g>
<defs>
<clipPath id="clip0_2947_12355">
<path d="M0 4C0 1.79086 1.79086 0 4 0H20C22.2091 0 24 1.79086 24 4V20C24 22.2091 22.2091 24 20 24H4C1.79086 24 0 22.2091 0 20V4Z" fill="none"/>
</clipPath>
</defs>
</svg>
