<svg width="16" height="17" viewBox="0 0 16 17" fill="none" xmlns="http://www.w3.org/2000/svg">
<path d="M15.5672 7.39858L14.1027 7.03223C13.9506 6.40472 13.7054 5.81208 13.3711 5.2627L14.1468 3.96973C14.2818 3.74484 14.2464 3.45689 14.0608 3.27162L13.2528 2.46359C13.0678 2.27832 12.7804 2.24316 12.5547 2.37765L11.2617 3.15332C10.7123 2.81906 10.1197 2.5738 9.49219 2.42174L9.12584 0.957171C9.06222 0.702985 8.83371 0.524414 8.57143 0.524414H7.42857C7.1663 0.524414 6.93778 0.702986 6.87416 0.957171L6.50781 2.42174C5.8803 2.5738 5.28767 2.81906 4.73828 3.15332L3.44531 2.37765C3.22042 2.24316 2.93276 2.27832 2.74721 2.46359L1.93917 3.27162C1.75363 3.45689 1.71819 3.74484 1.85324 3.96973L2.62891 5.2627C2.29464 5.81208 2.04939 6.40472 1.89732 7.03223L0.432757 7.39858C0.178571 7.46219 0 7.69071 0 7.95299V9.09584C0 9.35812 0.178571 9.58664 0.432757 9.65025L1.89732 10.0166C2.04939 10.6441 2.29464 11.2367 2.62891 11.7861L1.85324 13.0791C1.71819 13.304 1.75363 13.5919 1.93917 13.7772L2.74721 14.5852C2.93276 14.7708 3.22042 14.8062 3.44531 14.6712L4.73828 13.8955C5.28767 14.2298 5.8803 14.475 6.50781 14.6271L6.87416 16.0917C6.93778 16.3458 7.1663 16.5244 7.42857 16.5244H8.57143C8.83371 16.5244 9.06222 16.3458 9.12584 16.0917L9.49219 14.6271C10.1197 14.475 10.7123 14.2298 11.2617 13.8955L12.5547 14.6712C12.7804 14.8062 13.0678 14.7708 13.2528 14.5852L14.0608 13.7772C14.2464 13.5919 14.2818 13.304 14.1468 13.0791L13.3711 11.7861C13.7054 11.2367 13.9506 10.6441 14.1027 10.0166L15.5672 9.65025C15.8214 9.58664 16 9.35812 16 9.09584V7.95299C16 7.69071 15.8214 7.46219 15.5672 7.39858ZM8 13.0958C5.47527 13.0958 3.42857 11.0491 3.42857 8.52441C3.42857 5.99969 5.47527 3.95299 8 3.95299C10.5247 3.95299 12.5714 5.99969 12.5714 8.52441C12.5714 11.0491 10.5247 13.0958 8 13.0958Z" fill="#71347B"/>
<path d="M8 4.52441C5.79088 4.52441 4 6.31526 4 8.52441C4 10.7335 5.79088 12.5244 8 12.5244C10.2092 12.5244 12 10.7335 12 8.52441C12 6.31526 10.2092 4.52441 8 4.52441ZM10.2857 9.09584H8.57143V10.8101C8.57143 11.1257 8.3156 11.3816 8 11.3816C7.68443 11.3816 7.42857 11.1257 7.42857 10.8101V9.09584H5.71429C5.39872 9.09584 5.14286 8.83998 5.14286 8.52441C5.14286 8.20881 5.39872 7.95299 5.71429 7.95299H7.42857V6.2387C7.42857 5.9231 7.68443 5.66727 8 5.66727C8.3156 5.66727 8.57143 5.9231 8.57143 6.2387V7.95299H10.2857C10.6013 7.95299 10.8571 8.20881 10.8571 8.52441C10.8571 8.83998 10.6013 9.09584 10.2857 9.09584Z" fill="#71347B"/>
</svg>
