<svg width="16" height="17" viewBox="0 0 16 17" fill="none" xmlns="http://www.w3.org/2000/svg">
    <path fill-rule="evenodd" clip-rule="evenodd"
        d="M14.9503 3.10553H12.3697C12.3248 3.10552 12.2806 3.09378 12.2416 3.07146C12.2026 3.04914 12.1701 3.01702 12.1473 2.97827C12.1246 2.93953 12.1123 2.8955 12.1117 2.85055C12.1112 2.8056 12.1223 2.76128 12.1441 2.72198L13.4345 0.397951C13.4588 0.360235 13.4922 0.329223 13.5316 0.307749C13.571 0.286275 13.6151 0.275024 13.66 0.275024C13.7049 0.275024 13.749 0.286275 13.7884 0.307749C13.8278 0.329223 13.8612 0.360235 13.8856 0.397951L15.1759 2.72198C15.1977 2.76128 15.2089 2.8056 15.2083 2.85055C15.2077 2.8955 15.1955 2.93953 15.1727 2.97827C15.1499 3.01702 15.1174 3.04914 15.0784 3.07146C15.0394 3.09378 14.9953 3.10552 14.9503 3.10553ZM14.5117 2.58908L13.66 1.05511L12.8083 2.58908H14.5117ZM8.33667 1.67151H11.1117V0.671509H8.33667H7.83661H7.33667V1.16362L7.33661 1.17151L7.33667 1.1794V7.77502H6.58594C6.30979 7.77502 6.08594 7.99888 6.08594 8.27502C6.08594 8.55117 6.30979 8.77502 6.58594 8.77502H7.33667V15.3706L7.33661 15.3785C7.33661 15.6546 7.56047 15.8785 7.83661 15.8785H7.83667H11.1117V14.8785H8.33667V8.77502H11.1115V7.77502H8.33667V1.67151ZM2.014 6.56304V7.69904H3.846V8.75504H2.014V9.98704H4.086V11.083H0.645996V5.46704H4.086V6.56304H2.014ZM12.7998 6.98182C13.0545 6.81157 13.3538 6.7207 13.6601 6.7207C14.0706 6.72115 14.4642 6.88453 14.7545 7.17499C15.0447 7.46546 15.208 7.85928 15.2085 8.27005C15.2085 8.57649 15.1177 8.87604 14.9475 9.13083C14.7774 9.38562 14.5356 9.5842 14.2526 9.70147C13.9697 9.81874 13.6584 9.84942 13.358 9.78964C13.0576 9.72985 12.7818 9.58229 12.5652 9.36561C12.3487 9.14893 12.2012 8.87286 12.1414 8.57232C12.0817 8.27177 12.1124 7.96025 12.2296 7.67714C12.3468 7.39404 12.5452 7.15206 12.7998 6.98182ZM13.0866 9.12888C13.2563 9.24238 13.4559 9.30296 13.6601 9.30296C13.9338 9.30266 14.1962 9.19375 14.3897 9.0001C14.5832 8.80646 14.692 8.54391 14.6923 8.27005C14.6923 8.06577 14.6318 7.86607 14.5184 7.69621C14.4049 7.52635 14.2437 7.39396 14.0551 7.31578C13.8665 7.2376 13.6589 7.21715 13.4587 7.257C13.2585 7.29686 13.0745 7.39523 12.9302 7.53968C12.7858 7.68414 12.6875 7.86818 12.6477 8.06855C12.6078 8.26891 12.6283 8.47659 12.7064 8.66533C12.7845 8.85407 12.9168 9.01538 13.0866 9.12888ZM14.6921 13.6927H12.6276C12.5937 13.6927 12.5601 13.6994 12.5288 13.7124C12.4975 13.7254 12.469 13.7444 12.4451 13.7684C12.4211 13.7923 12.4021 13.8208 12.3891 13.8521C12.3762 13.8835 12.3695 13.9171 12.3695 13.951V16.0168C12.3695 16.0507 12.3762 16.0843 12.3891 16.1156C12.4021 16.1469 12.4211 16.1754 12.4451 16.1994C12.469 16.2234 12.4975 16.2424 12.5288 16.2554C12.5601 16.2683 12.5937 16.275 12.6276 16.275H14.6921C14.726 16.275 14.7595 16.2683 14.7909 16.2554C14.8222 16.2424 14.8506 16.2234 14.8746 16.1994C14.8986 16.1754 14.9176 16.1469 14.9305 16.1156C14.9435 16.0843 14.9502 16.0507 14.9502 16.0168V13.951C14.9502 13.9171 14.9435 13.8835 14.9305 13.8521C14.9176 13.8208 14.8986 13.7923 14.8746 13.7684C14.8506 13.7444 14.8222 13.7254 14.7909 13.7124C14.7595 13.6994 14.726 13.6927 14.6921 13.6927ZM14.434 15.7586H12.8856V14.2092H14.434V15.7586Z"
        fill="currentColor" />
</svg>