<svg width="16" height="16" viewBox="0 0 16 16" fill="none" xmlns="http://www.w3.org/2000/svg">
<rect width="16" height="16" rx="8" fill="#F7EBFF"/>
<path d="M8 2C4.6863 2 2 4.68627 2 8C2 11.3137 4.6863 14 8 14C11.3137 14 14 11.3137 14 8C14 4.68627 11.3137 2 8 2ZM10.0537 11.15H5.94644V4.85002H9.97758V6.35024H7.67444V7.27779H9.74365V8.70142H7.67444V9.64463H10.0538L10.0537 11.15Z" fill="currentColor"/>
<mask id="path-3-outside-1_20264_6770" maskUnits="userSpaceOnUse" x="2.80005" y="5.2002" width="6" height="6" fill="black">
<rect fill="white" x="2.80005" y="5.2002" width="6" height="6"/>
<path d="M5.89966 7.2002C5.89966 7.61441 6.23544 7.9502 6.64966 7.9502H7.04956C7.24291 7.9502 7.39966 8.10694 7.39966 8.30029C7.39966 8.49365 7.24291 8.65039 7.04956 8.65039H6.64966C6.23544 8.65039 5.89966 8.98618 5.89966 9.40039V10.1006C5.89966 10.2662 5.76543 10.4004 5.59985 10.4004C5.43428 10.4004 5.30005 10.2662 5.30005 10.1006V9.40039C5.30005 8.98618 4.96426 8.65039 4.55005 8.65039H4.15015C3.95679 8.65039 3.80005 8.49365 3.80005 8.30029C3.80005 8.10694 3.95679 7.9502 4.15015 7.9502H4.55005C4.96426 7.9502 5.30005 7.61441 5.30005 7.2002V6.5C5.30005 6.33442 5.43428 6.2002 5.59985 6.2002C5.76543 6.2002 5.89966 6.33442 5.89966 6.5V7.2002Z"/>
</mask>
<path d="M5.89966 7.2002C5.89966 7.61441 6.23544 7.9502 6.64966 7.9502H7.04956C7.24291 7.9502 7.39966 8.10694 7.39966 8.30029C7.39966 8.49365 7.24291 8.65039 7.04956 8.65039H6.64966C6.23544 8.65039 5.89966 8.98618 5.89966 9.40039V10.1006C5.89966 10.2662 5.76543 10.4004 5.59985 10.4004C5.43428 10.4004 5.30005 10.2662 5.30005 10.1006V9.40039C5.30005 8.98618 4.96426 8.65039 4.55005 8.65039H4.15015C3.95679 8.65039 3.80005 8.49365 3.80005 8.30029C3.80005 8.10694 3.95679 7.9502 4.15015 7.9502H4.55005C4.96426 7.9502 5.30005 7.61441 5.30005 7.2002V6.5C5.30005 6.33442 5.43428 6.2002 5.59985 6.2002C5.76543 6.2002 5.89966 6.33442 5.89966 6.5V7.2002Z" fill="#F7EBFF"/>
<path d="M6.64966 7.9502V8.4502H7.04956V7.9502V7.4502H6.64966V7.9502ZM7.04956 8.65039V8.15039H6.64966V8.65039V9.15039H7.04956V8.65039ZM5.89966 9.40039H5.39966V10.1006H5.89966H6.39966V9.40039H5.89966ZM5.30005 10.1006H5.80005V9.40039H5.30005H4.80005V10.1006H5.30005ZM4.55005 8.65039V8.15039H4.15015V8.65039V9.15039H4.55005V8.65039ZM4.15015 7.9502V8.4502H4.55005V7.9502V7.4502H4.15015V7.9502ZM5.30005 7.2002H5.80005V6.5H5.30005H4.80005V7.2002H5.30005ZM5.89966 6.5H5.39966V7.2002H5.89966H6.39966V6.5H5.89966ZM5.59985 6.2002V6.7002C5.48929 6.7002 5.39966 6.61056 5.39966 6.5H5.89966H6.39966C6.39966 6.05828 6.04157 5.7002 5.59985 5.7002V6.2002ZM5.30005 6.5H5.80005C5.80005 6.61056 5.71042 6.7002 5.59985 6.7002V6.2002V5.7002C5.15813 5.7002 4.80005 6.05828 4.80005 6.5H5.30005ZM4.55005 7.9502V8.4502C5.2404 8.4502 5.80005 7.89055 5.80005 7.2002H5.30005H4.80005C4.80005 7.33827 4.68812 7.4502 4.55005 7.4502V7.9502ZM3.80005 8.30029H4.30005C4.30005 8.38308 4.23294 8.4502 4.15015 8.4502V7.9502V7.4502C3.68065 7.4502 3.30005 7.8308 3.30005 8.30029H3.80005ZM4.15015 8.65039V8.15039C4.23294 8.15039 4.30005 8.2175 4.30005 8.30029H3.80005H3.30005C3.30005 8.76979 3.68065 9.15039 4.15015 9.15039V8.65039ZM5.30005 9.40039H5.80005C5.80005 8.71003 5.2404 8.15039 4.55005 8.15039V8.65039V9.15039C4.68812 9.15039 4.80005 9.26232 4.80005 9.40039H5.30005ZM5.59985 10.4004V9.90039C5.71042 9.90039 5.80005 9.99002 5.80005 10.1006H5.30005H4.80005C4.80005 10.5423 5.15813 10.9004 5.59985 10.9004V10.4004ZM5.89966 10.1006H5.39966C5.39966 9.99002 5.48929 9.90039 5.59985 9.90039V10.4004V10.9004C6.04157 10.9004 6.39966 10.5423 6.39966 10.1006H5.89966ZM6.64966 8.65039V8.15039C5.9593 8.15039 5.39966 8.71003 5.39966 9.40039H5.89966H6.39966C6.39966 9.26232 6.51159 9.15039 6.64966 9.15039V8.65039ZM7.39966 8.30029H6.89966C6.89966 8.2175 6.96677 8.15039 7.04956 8.15039V8.65039V9.15039C7.51906 9.15039 7.89966 8.76979 7.89966 8.30029H7.39966ZM7.04956 7.9502V8.4502C6.96677 8.4502 6.89966 8.38308 6.89966 8.30029H7.39966H7.89966C7.89966 7.8308 7.51906 7.4502 7.04956 7.4502V7.9502ZM6.64966 7.9502V7.4502C6.51159 7.4502 6.39966 7.33827 6.39966 7.2002H5.89966H5.39966C5.39966 7.89055 5.9593 8.4502 6.64966 8.4502V7.9502Z" fill="currentColor" mask="url(#path-3-outside-1_20264_6770)"/>
</svg>
