<svg width="18" height="18" viewBox="0 0 18 18" fill="none" xmlns="http://www.w3.org/2000/svg">
<path d="M7.6392 1.3089L7.63919 1.3089C7.39992 1.04661 7.0793 0.9 6.73666 0.9H2.17188C1.462 0.9 0.9 1.52997 0.9 2.2848V15.7152C0.9 16.47 1.462 17.1 2.17188 17.1H15.8281C16.538 17.1 17.1 16.47 17.1 15.7152V4.34047C17.1 3.58565 16.538 2.95567 15.8281 2.95567H9.1412L7.6392 1.3089ZM9.23961 7.67309L9.23963 7.67306L10.84 5.91845C10.955 5.79245 11.1052 5.72527 11.2633 5.72527H15.8281C16.1521 5.72527 16.4312 6.01744 16.4312 6.39615V15.7152C16.4312 16.0939 16.1521 16.3861 15.8281 16.3861H2.17188C1.84787 16.3861 1.56875 16.0939 1.56875 15.7152V8.45182C1.56875 8.07312 1.84787 7.78094 2.17188 7.78094H9C9.09182 7.78094 9.17774 7.74087 9.23961 7.67309ZM2.17188 1.61392H6.73666C6.89483 1.61392 7.04504 1.6811 7.15996 1.80709L8.76037 3.56171C8.82223 3.62953 8.90816 3.66959 9 3.66959H15.8281C16.1521 3.66959 16.4312 3.96177 16.4312 4.34047V5.17716C16.3471 5.12761 16.257 5.088 16.1625 5.05994V4.34047C16.1625 4.1522 16.0213 3.98351 15.8281 3.98351H2.17188C1.97871 3.98351 1.8375 4.1522 1.8375 4.34047V7.11562C1.74296 7.14367 1.65294 7.18328 1.56875 7.23284V2.2848C1.56875 1.90609 1.84787 1.61392 2.17188 1.61392ZM4.04688 5.01135C3.85371 5.01135 3.7125 5.18004 3.7125 5.36831C3.7125 5.55658 3.85371 5.72527 4.04688 5.72527H10.0826L8.8588 7.06702H2.50625V5.72527H3.10938C3.30254 5.72527 3.44375 5.55658 3.44375 5.36831C3.44375 5.18004 3.30254 5.01135 3.10938 5.01135H2.50625V4.69743H15.4937V5.01135H4.04688Z" fill="#71347B" stroke="#71347B" stroke-width="0.2"/>
<mask id="path-2-outside-1_6891_624" maskUnits="userSpaceOnUse" x="9.35828" y="9.87122" width="6" height="3" fill="black">
<rect fill="white" x="9.35828" y="9.87122" width="6" height="3"/>
<path d="M10.7598 10.8712H14.5986C14.8203 10.8712 15.0001 11.051 15.0001 11.2728C15.0001 11.4945 14.8203 11.6743 14.5986 11.6743H10.7598C10.5381 11.6743 10.3583 11.4945 10.3583 11.2728C10.3583 11.051 10.5381 10.8712 10.7598 10.8712Z"/>
</mask>
<path d="M10.7598 10.8712H14.5986C14.8203 10.8712 15.0001 11.051 15.0001 11.2728C15.0001 11.4945 14.8203 11.6743 14.5986 11.6743H10.7598C10.5381 11.6743 10.3583 11.4945 10.3583 11.2728C10.3583 11.051 10.5381 10.8712 10.7598 10.8712Z" fill="currentColor"/>
<path d="M14.5986 10.6712H10.7598V11.0712H14.5986V10.6712ZM10.7598 10.6712C10.4276 10.6712 10.1583 10.9406 10.1583 11.2728H10.5583C10.5583 11.1615 10.6485 11.0712 10.7598 11.0712V10.6712ZM10.1583 11.2728C10.1583 11.605 10.4276 11.8743 10.7598 11.8743V11.4743C10.6485 11.4743 10.5583 11.3841 10.5583 11.2728H10.1583ZM10.7598 11.8743H14.5986V11.4743H10.7598V11.8743ZM14.5986 11.8743C14.9308 11.8743 15.2001 11.605 15.2001 11.2728H14.8001C14.8001 11.3841 14.7099 11.4743 14.5986 11.4743V11.8743ZM15.2001 11.2728C15.2001 10.9406 14.9308 10.6712 14.5986 10.6712V11.0712C14.7099 11.0712 14.8001 11.1615 14.8001 11.2728H15.2001Z" fill="currentColor" mask="url(#path-2-outside-1_6891_624)"/>
</svg>
