<svg width="16" height="16" viewBox="0 0 16 16" fill="none" xmlns="http://www.w3.org/2000/svg">
<path d="M6.91407 0.00195312C7.44004 0.0019749 7.95329 0.216769 8.32227 0.59375L15.4395 7.86133C16.191 8.62936 16.1847 9.87295 15.4248 10.6328L10.6328 15.4248C9.87181 16.1838 8.62835 16.1895 7.86035 15.4375L0.592776 8.32129C0.215831 7.95234 4.19307e-05 7.4371 0.000979606 6.90918L0.0146515 1.33105C0.0176515 0.607055 0.607081 0.017625 1.33008 0.015625L6.90821 0.00195312H6.91407ZM10.6631 7.82812C10.4682 7.63321 10.1511 7.63337 9.95606 7.82812L7.83496 9.94922C7.6402 10.1442 7.64005 10.4613 7.83496 10.6562C8.02991 10.8519 8.34606 10.8519 8.542 10.6562L10.6631 8.53516C10.8578 8.34022 10.8578 8.02306 10.6631 7.82812ZM8.42481 5.58789C7.90589 5.06797 7.05909 5.06813 6.53907 5.58789L5.00782 7.12012C4.81282 7.31512 4.81282 7.63215 5.00782 7.82715C5.20276 8.02149 5.51903 8.02165 5.71387 7.82715L6.06641 7.47363L6.53809 7.94531L6.18555 8.29883C5.99055 8.49383 5.99055 8.81086 6.18555 9.00586C6.38057 9.20158 6.69767 9.20177 6.89258 9.00586L7.59375 8.30371C7.59537 8.30233 7.59812 8.30128 7.59961 8.2998C7.60109 8.29817 7.60199 8.29552 7.60352 8.29395L8.42481 7.47363C8.94401 6.95372 8.94416 6.10771 8.42481 5.58789ZM7.2461 6.29492C7.37612 6.16516 7.58786 6.165 7.71778 6.29492C7.84714 6.42573 7.84698 6.63669 7.71778 6.7666L7.24512 7.23828L6.77344 6.7666L7.2461 6.29492ZM3.35254 2.00098C2.61754 2.00098 2.01953 2.59898 2.01953 3.33398C2.01954 4.06898 2.61754 4.66699 3.35254 4.66699C4.08731 4.66673 4.68555 4.06882 4.68555 3.33398C4.68555 2.59915 4.08732 2.00124 3.35254 2.00098Z" fill="#71347B"/>
</svg>
