<svg width="16" height="16" viewBox="0 0 16 16" fill="none" xmlns="http://www.w3.org/2000/svg">
<path d="M4.78 5.28C4.28 5.78 4 6.45 4 7.17V10.5C4 11.05 4.45 11.5 5 11.5C5.55 11.5 6 11.05 6 10.5V10H7.33V10.5C7.33 11.05 7.78 11.5 8.33 11.5C8.88 11.5 9.33 11.05 9.33 10.5V7.17C9.33 6.46 9.05 5.79 8.55 5.28C7.55 4.27 5.79 4.27 4.78 5.28ZM7.33 8H6V7.17C6 6.99 6.07 6.82 6.2 6.7C6.45 6.45 6.89 6.45 7.14 6.7C7.26 6.83 7.33 6.99 7.33 7.17V8ZM12 5.5V10.5C12 11.05 11.55 11.5 11 11.5C10.45 11.5 10 11.05 10 10.5V5.5C10 4.95 10.45 4.5 11 4.5C11.55 4.5 12 4.95 12 5.5Z" fill="url(#paint0_linear_1_164)"/>
<defs>
<linearGradient id="paint0_linear_1_164" x1="15.21" y1="0.79" x2="0.790002" y2="15.21" gradientUnits="userSpaceOnUse">
<stop stop-color="#FF00FF"/>
<stop offset="1" stop-color="#0000FF"/>
</linearGradient>
</defs>
</svg>
