<svg width="16" height="16" viewBox="0 0 16 16" fill="none" xmlns="http://www.w3.org/2000/svg">
<path fill-rule="evenodd" clip-rule="evenodd" d="M15.3333 7.33319C15.5101 7.33319 15.6797 7.26298 15.8047 7.138C15.9297 7.01298 15.9999 6.84344 15.9999 6.66667C15.9999 6.48989 15.9297 6.32035 15.8047 6.19533L14.2 4.59067C14.5033 4.11545 14.6652 3.56376 14.6667 3C14.6667 2.40666 14.4907 1.82664 14.1611 1.33329C13.8314 0.839943 13.3629 0.455426 12.8147 0.228363C12.2666 0.00129984 11.6634 -0.0581102 11.0814 0.0576455C10.4995 0.173401 9.96492 0.459124 9.54536 0.878682C9.1258 1.29824 8.84008 1.83279 8.72432 2.41473C8.60857 2.99667 8.66798 3.59987 8.89504 4.14805C9.1221 4.69623 9.50662 5.16477 9.99997 5.49441C10.4933 5.82405 11.0733 6 11.6667 6C12.2304 5.9985 12.7821 5.83664 13.2573 5.53333L14.862 7.138C14.987 7.26298 15.1566 7.33319 15.3333 7.33319ZM12.5926 4.38578C12.3185 4.56892 11.9963 4.66667 11.6667 4.66667C11.2247 4.66667 10.8007 4.49107 10.4882 4.17851C10.1756 3.86595 10 3.44203 10 3C10 2.67037 10.0978 2.34813 10.2809 2.07405C10.464 1.79997 10.7243 1.58635 11.0289 1.4602C11.3334 1.33406 11.6685 1.30105 11.9918 1.36536C12.3151 1.42967 12.6121 1.5884 12.8452 1.82149C13.0783 2.05458 13.237 2.35155 13.3013 2.67485C13.3656 2.99815 13.3326 3.33326 13.2065 3.63781C13.0803 3.94235 12.8667 4.20265 12.5926 4.38578ZM12.6667 12V8C12.6667 7.632 12.368 7.33333 12 7.33333C11.632 7.33333 11.3333 7.632 11.3333 8V12C11.3333 12.368 11.632 12.6667 12 12.6667C12.368 12.6667 12.6667 12.368 12.6667 12ZM9.76733 11.8307L7.72 4.478C7.60867 3.99933 7.30933 3.61933 6.918 3.45533C6.50533 3.282 6.07067 3.294 5.692 3.48867C5.32067 3.67867 5.054 4.02 4.96 4.42533L2.89933 11.8307C2.78267 12.2507 3.09867 12.6667 3.53467 12.6667C3.83 12.6667 4.08933 12.4707 4.16933 12.1867L4.598 10.6667H8.06867L8.49733 12.1867C8.578 12.4707 8.83667 12.6667 9.132 12.6667C9.56867 12.6667 9.884 12.2507 9.76733 11.8307ZM6.40667 4.77667L7.69267 9.33333H4.97467L6.26067 4.77667C6.27933 4.70067 6.38733 4.70067 6.40667 4.77667ZM14.6673 8.81352C14.6673 8.44552 14.966 8.14685 15.334 8.14685C15.702 8.14685 16 8.44552 16 8.81352V12.6667C16 14.5047 14.5047 16 12.6667 16H3.33333C1.49533 16 0 14.5047 0 12.6667V3.33333C0 1.49533 1.49533 1.78835e-10 3.33333 1.78835e-10H7.66667C8.03467 1.78835e-10 8.33333 0.298667 8.33333 0.666667C8.33333 1.03467 8.03467 1.33333 7.66667 1.33333H3.33333C2.23067 1.33333 1.33333 2.23067 1.33333 3.33333V12.6667C1.33333 13.7693 2.23067 14.6667 3.33333 14.6667H12.6673C13.77 14.6667 14.6673 13.7693 14.6673 12.6667V8.81352Z" fill="url(#paint0_linear_3689_48586)"/>
<defs>
<linearGradient id="paint0_linear_3689_48586" x1="11.9232" y1="-1.40302" x2="11.9232" y2="16" gradientUnits="userSpaceOnUse">
<stop stop-color="#592F7C"/>
<stop offset="1" stop-color="#E22BD3"/>
</linearGradient>
</defs>
</svg>
