<svg width="24" height="24" viewBox="0 0 24 24" fill="none" xmlns="http://www.w3.org/2000/svg">
<path d="M12 1.5C6.21 1.5 1.5 6.21 1.5 12C1.5 17.79 6.21 22.5 12 22.5C17.79 22.5 22.5 17.79 22.5 12C22.5 6.21 17.79 1.5 12 1.5ZM12 19.5C7.8645 19.5 4.5 16.1355 4.5 12C4.5 7.8645 7.8645 4.5 12 4.5C16.1355 4.5 19.5 7.8645 19.5 12C19.5 16.1355 16.1355 19.5 12 19.5Z" fill="#FBC34E"/>
<path d="M12 4.5C7.8645 4.5 4.5 7.8645 4.5 12C4.5 16.1355 7.8645 19.5 12 19.5C16.1355 19.5 19.5 16.1355 19.5 12C19.5 7.8645 16.1355 4.5 12 4.5ZM15.183 12.954L14.3205 13.4235C13.9425 13.6298 13.6327 13.9387 13.4257 14.316L12.9525 15.1755C12.7613 15.5235 12.3967 15.7388 12 15.7388C11.6033 15.7388 11.2387 15.5227 11.0475 15.1755L10.575 14.3153C10.3673 13.9373 10.0575 13.6283 9.67875 13.422L8.81775 12.9532C8.46675 12.7642 8.25 12.3983 8.25 12C8.25 11.6017 8.46675 11.2357 8.817 11.046L9.6795 10.5765C10.0575 10.3703 10.3672 10.0612 10.5743 9.684L11.0475 8.8245C11.2387 8.4765 11.6033 8.26125 12 8.26125C12.3967 8.26125 12.7613 8.47725 12.9525 8.8245L13.425 9.68475C13.6327 10.062 13.9425 10.371 14.3205 10.5772L15.1823 11.046C15.5332 11.2357 15.75 11.6017 15.75 12C15.75 12.3983 15.5332 12.7642 15.183 12.954Z" fill="#E5A533"/>
<path d="M15.1823 11.0452L14.3205 10.5765C13.9425 10.3702 13.6327 10.0612 13.425 9.684L12.9525 8.82375C12.7613 8.4765 12.3967 8.2605 12 8.2605C11.6033 8.2605 11.2387 8.4765 11.0475 8.82375L10.575 9.68325C10.368 10.0612 10.0582 10.3702 9.68025 10.5757L8.81775 11.0452C8.46675 11.2357 8.25 11.6017 8.25 12C8.25 12.3982 8.46675 12.7642 8.81775 12.9547L9.67875 13.4235C10.0575 13.6297 10.3673 13.9387 10.575 14.3167L11.0475 15.177C11.2387 15.5242 11.6033 15.7402 12 15.7402C12.3967 15.7402 12.7613 15.5242 12.9525 15.177L13.4257 14.3175C13.6327 13.9395 13.9425 13.6305 14.3205 13.425L15.183 12.9555C15.5332 12.7642 15.75 12.3982 15.75 12C15.75 11.6017 15.5332 11.2357 15.1823 11.0452Z" fill="#E4EDF2"/>
</svg>
