<svg width="16" height="16" viewBox="0 0 16 16" fill="none" xmlns="http://www.w3.org/2000/svg">
<path fill-rule="evenodd" clip-rule="evenodd" d="M7.85998 15.438L0.59298 8.32095C0.21598 7.95195 -1.99807e-05 7.43695 0.000980019 6.90895L0.0149795 1.33095C0.0179795 0.606953 0.60698 0.0179531 1.32998 0.0159531L6.90798 0.00195312H6.91398C7.43998 0.00195312 7.95298 0.216953 8.32198 0.593953L15.439 7.86095C16.191 8.62895 16.185 9.87295 15.425 10.633L10.633 15.425C9.87198 16.184 8.62798 16.19 7.85998 15.438ZM6.91398 1.33395H6.91198L1.33398 1.34695L1.33498 6.91095C1.33498 7.08195 1.40498 7.24795 1.52598 7.36795L8.79298 14.485C9.03998 14.728 9.44298 14.726 9.68898 14.48L14.481 9.68795C14.726 9.44195 14.728 9.03995 14.485 8.79195L7.36798 1.52495C7.24898 1.40295 7.08398 1.33395 6.91398 1.33395ZM3.35204 4.66698C2.61704 4.66698 2.01904 4.06898 2.01904 3.33398C2.01904 2.59898 2.61704 2.00098 3.35204 2.00098C4.08704 2.00098 4.68504 2.59898 4.68504 3.33398C4.68504 4.06898 4.08704 4.66698 3.35204 4.66698ZM6.18485 8.299C5.98985 8.494 5.98985 8.811 6.18485 9.006C6.37985 9.202 6.69685 9.202 6.89185 9.006L7.58115 8.31669C7.58716 8.31128 7.59307 8.3057 7.59888 8.29995C7.60517 8.29365 7.61127 8.28723 7.61716 8.28068L8.42385 7.474C8.94385 6.954 8.94385 6.108 8.42385 5.588C7.90485 5.068 7.05885 5.068 6.53885 5.588L5.00685 7.12C4.81185 7.315 4.81185 7.632 5.00685 7.827C5.20185 8.022 5.51885 8.022 5.71385 7.827L6.06674 7.47411L6.53804 7.94581L6.18485 8.299ZM7.71685 6.767L7.24504 7.23881L6.77374 6.76711L7.24585 6.295C7.37585 6.165 7.58685 6.165 7.71685 6.295C7.84685 6.426 7.84685 6.637 7.71685 6.767ZM7.83473 9.94901C7.63973 10.144 7.63973 10.461 7.83473 10.656C8.02973 10.852 8.34573 10.852 8.54173 10.656L10.6627 8.53501C10.8577 8.34001 10.8577 8.02301 10.6627 7.82801C10.4677 7.63301 10.1507 7.63301 9.95573 7.82801L7.83473 9.94901Z" fill="currentColor"/>
</svg>
