<svg width="65" height="64" viewBox="0 0 65 64" fill="none" xmlns="http://www.w3.org/2000/svg">
<rect opacity="0.1" x="0.102356" width="64" height="64" rx="32" fill="#E12121"/>
<rect opacity="0.3" x="12.1024" y="12" width="40" height="40" rx="20" fill="#E12121"/>
<path fill-rule="evenodd" clip-rule="evenodd" d="M32.1024 42C33.187 42 34.0981 41.0889 34.0981 40.0043C34.0981 38.9197 33.187 38.0087 32.1024 38.0087C31.0178 38.0087 30.1067 38.9197 30.1067 40.0043C30.1067 41.0889 31.0178 42 32.1024 42ZM32.1024 22C33.6208 22 34.8356 23.2148 34.8356 24.7332C34.8356 26.2516 33.6208 36.6638 32.1024 36.6638C30.584 36.6638 29.3692 26.2516 29.3692 24.7332C29.3692 23.2148 30.584 22 32.1024 22Z" fill="#E12121"/>
</svg>
