<svg width="16" height="16" viewBox="0 0 16 16" fill="none" xmlns="http://www.w3.org/2000/svg">
<path d="M1.45455 15.6364C1.05455 15.6364 0.712121 15.4939 0.427273 15.2091C0.142424 14.9243 0 14.5818 0 14.1818V6.18183H1.45455V14.1818H13.8182V15.6364H1.45455ZM4.36364 12.7273C3.96364 12.7273 3.62121 12.5849 3.33636 12.3C3.05152 12.0152 2.90909 11.6727 2.90909 11.2727V3.27274H6.54545V1.81819C6.54545 1.41819 6.68788 1.07577 6.97273 0.79092C7.25758 0.506072 7.6 0.363647 8 0.363647H10.9091C11.3091 0.363647 11.6515 0.506072 11.9364 0.79092C12.2212 1.07577 12.3636 1.41819 12.3636 1.81819V3.27274H16V11.2727C16 11.6727 15.8576 12.0152 15.5727 12.3C15.2879 12.5849 14.9455 12.7273 14.5455 12.7273H4.36364ZM4.36364 11.2727H14.5455V4.72728H4.36364V11.2727ZM8 3.27274H10.9091V1.81819H8V3.27274Z" fill="currentColor"/>
</svg>
