<svg width="16" height="16" viewBox="0 0 16 16" fill="none" xmlns="http://www.w3.org/2000/svg">
<path fill-rule="evenodd" clip-rule="evenodd" d="M0.470617 8.23998V15.5294H7.76471V8.23998H0.470617ZM8.2353 8.23998V8.94118H8.23531V9.41176H8.2353V10.1176H8.23531V10.5882H8.2353V11.2941H8.23531V11.7647H8.2353V12.4706H8.23531V12.9412H8.2353V13.6471H8.23531V14.1176H8.2353V14.5882H8.23531V15.0588H8.2353V15.5294H15.5294V15.0588L15.5294 8.23998H8.2353ZM8.2353 16H7.76472H7.29412V16H7.05884V16H6.58825V16H5.88237V16H5.41178V16H4.7059V16H4.23531V16H3.52943V16H3.05884V16H2.35296V16H1.88237V16H0.941205V16H0.941191H0.941176H2.85506e-05H1.43051e-05H0V0H2.85506e-05H0.941176H0.941205H1.88237H2.35296H3.05884H3.52943H4.23531H4.7059H5.41178H5.88237H6.58825H7.05884H7.29412H7.76472H8.23531H8.94119H9.41178H10.1177H10.5883H11.2941H11.7647H12.4706H12.9412H13.6471H14.1177H15.0588L16 7.62939e-06V0.941184L16 7.29881V8.23998V15.0588V16L16 16H15.0588V16H14.1177V16H13.6471V16H12.9412V16H12.4706V16H11.7647V16H11.2941V16H10.5883V16H10.1177V16H9.41178V16H8.94119V16H8.23531V16H8.2353ZM8.2353 0.470588H15.0588H15.5294L15.5294 7.29881V7.76939H15.0588V7.76471H14.5882V7.76939H14.1177V7.76471H13.6471V7.76939H12.9412V7.76471H12.4706V7.76939H11.7647V7.76471H11.2941V7.76939H10.5883V7.76471H10.1177V7.76939H9.41178V7.76471H8.94119V7.76939H8.23531V7.76471H8.2353V7.05882H8.23531V6.58823H8.2353V5.88235H8.23531V5.41176H8.2353V4.70588H8.23531V4.23529H8.2353V3.52941H8.23531V3.05882H8.2353V2.35294H8.23531V1.88235H8.2353V1.41177H8.23531V0.941176H8.2353V0.470588ZM7.76471 0.470588V7.76939H7.05884V7.76471H6.58825V7.76939H5.88237V7.76471H5.41178V7.76939H4.7059V7.76471H4.23531V7.76939H3.52943V7.76471H3.05884V7.76939H2.35296V7.76471H1.88237V7.76939H1.41178V7.76471H0.941191V7.76939H0.470617V0.470589L7.29412 0.470588H7.76471Z" fill="currentColor"/>
</svg>
