<svg width="17" height="17" viewBox="0 0 17 17" fill="none" xmlns="http://www.w3.org/2000/svg">
<path d="M15.25 2.25H2.75C2.33579 2.25 2 2.58579 2 3V12.25C2 12.6642 2.33579 13 2.75 13H15.25C15.6642 13 16 12.6642 16 12.25V3C16 2.58579 15.6642 2.25 15.25 2.25Z" fill="#F5F5F5"/>
<path d="M10.25 8.25H9.75C9.61739 8.25 9.49021 8.30268 9.39645 8.39645C9.30268 8.49021 9.25 8.61739 9.25 8.75V12H10.75V8.75C10.75 8.61739 10.6973 8.49021 10.6036 8.39645C10.5098 8.30268 10.3826 8.25 10.25 8.25Z" fill="#F44336"/>
<path d="M12 7.5H11.5C11.3674 7.5 11.2402 7.55268 11.1464 7.64645C11.0527 7.74021 11 7.86739 11 8V12H12.5V8C12.5 7.86739 12.4473 7.74021 12.3536 7.64645C12.2598 7.55268 12.1326 7.5 12 7.5Z" fill="#FBC02D"/>
<path d="M13.75 9H13.25C13.1174 9 12.9902 9.05268 12.8964 9.14645C12.8027 9.24021 12.75 9.36739 12.75 9.5V12H14.25V9.5C14.25 9.36739 14.1973 9.24021 14.1036 9.14645C14.0098 9.05268 13.8826 9 13.75 9Z" fill="#7CB342"/>
<path d="M9.94261 4.34073C9.90038 4.28963 9.83957 4.25739 9.77357 4.25112C9.70758 4.24485 9.64179 4.26505 9.59068 4.30728L6.87132 6.55362L4.65477 4.80362C4.60862 4.76734 4.5512 4.74842 4.49252 4.75016C4.43384 4.7519 4.37764 4.77419 4.33373 4.81314L2.08373 6.81314C2.03625 6.85775 2.00805 6.91912 2.00513 6.98419C2.00222 7.04927 2.02481 7.11292 2.06811 7.16159C2.1114 7.21026 2.17198 7.24012 2.23696 7.2448C2.30193 7.24949 2.36617 7.22863 2.416 7.18668L4.50939 5.32584L6.71995 7.0712C6.76482 7.10664 6.82048 7.12561 6.87765 7.12494C6.93481 7.12427 6.99002 7.10401 7.03404 7.06754L9.90904 4.69254C9.93435 4.67164 9.9553 4.64597 9.97068 4.61698C9.98606 4.58799 9.99559 4.55626 9.9987 4.52359C10.0018 4.49092 9.99847 4.45795 9.98885 4.42658C9.97922 4.3952 9.96351 4.36603 9.94261 4.34073Z" fill="#212121"/>
<path d="M14.5 4.25H12.25C12.1837 4.25 12.1201 4.22366 12.0732 4.17678C12.0263 4.12989 12 4.0663 12 4C12 3.9337 12.0263 3.87011 12.0732 3.82322C12.1201 3.77634 12.1837 3.75 12.25 3.75H14.5C14.5663 3.75 14.6299 3.77634 14.6768 3.82322C14.7237 3.87011 14.75 3.9337 14.75 4C14.75 4.0663 14.7237 4.12989 14.6768 4.17678C14.6299 4.22366 14.5663 4.25 14.5 4.25Z" fill="#212121"/>
<path d="M11.5 4.25C11.6381 4.25 11.75 4.13807 11.75 4C11.75 3.86193 11.6381 3.75 11.5 3.75C11.3619 3.75 11.25 3.86193 11.25 4C11.25 4.13807 11.3619 4.25 11.5 4.25Z" fill="#212121"/>
<path d="M14.5 5.25H12.25C12.1837 5.25 12.1201 5.22366 12.0732 5.17678C12.0263 5.12989 12 5.0663 12 5C12 4.9337 12.0263 4.87011 12.0732 4.82322C12.1201 4.77634 12.1837 4.75 12.25 4.75H14.5C14.5663 4.75 14.6299 4.77634 14.6768 4.82322C14.7237 4.87011 14.75 4.9337 14.75 5C14.75 5.0663 14.7237 5.12989 14.6768 5.17678C14.6299 5.22366 14.5663 5.25 14.5 5.25Z" fill="#212121"/>
<path d="M14.5 6.25H12.25C12.1837 6.25 12.1201 6.22366 12.0732 6.17678C12.0263 6.12989 12 6.0663 12 6C12 5.9337 12.0263 5.87011 12.0732 5.82322C12.1201 5.77634 12.1837 5.75 12.25 5.75H14.5C14.5663 5.75 14.6299 5.77634 14.6768 5.82322C14.7237 5.87011 14.75 5.9337 14.75 6C14.75 6.0663 14.7237 6.12989 14.6768 6.17678C14.6299 6.22366 14.5663 6.25 14.5 6.25Z" fill="#212121"/>
<path d="M11.5 5.25C11.6381 5.25 11.75 5.13807 11.75 5C11.75 4.86193 11.6381 4.75 11.5 4.75C11.3619 4.75 11.25 4.86193 11.25 5C11.25 5.13807 11.3619 5.25 11.5 5.25Z" fill="#212121"/>
<path d="M11.5 6.25C11.6381 6.25 11.75 6.13807 11.75 6C11.75 5.86193 11.6381 5.75 11.5 5.75C11.3619 5.75 11.25 5.86193 11.25 6C11.25 6.13807 11.3619 6.25 11.5 6.25Z" fill="#212121"/>
<path d="M4.24962 11.5L1.38184 13.0284C1.7227 13.6682 2.26767 14.1756 2.93007 14.4699C3.59248 14.7643 4.33429 14.8288 5.03755 14.6531C5.74081 14.4774 6.36514 14.0716 6.81126 13.5003C7.25738 12.929 7.49967 12.2249 7.49962 11.5H4.24962Z" fill="#F44336"/>
<path d="M4.25 8.25C3.68884 8.24988 3.13722 8.3951 2.64885 8.6715C2.16049 8.9479 1.75203 9.34607 1.46326 9.82722C1.17448 10.3084 1.01524 10.8561 1.00104 11.4171C0.98684 11.9781 1.11816 12.5332 1.38222 13.0283L4.25 11.5V8.25Z" fill="#FBC02D"/>
<path d="M4.25 8.25V11.5H7.5C7.49903 10.6383 7.15631 9.81225 6.54703 9.20297C5.93775 8.59369 5.11166 8.25097 4.25 8.25Z" fill="#7CB342"/>
<path d="M14.75 12H9.25C9.05115 11.9998 8.86051 11.9207 8.71991 11.7801C8.5793 11.6395 8.50022 11.4488 8.5 11.25V7.25C8.5 7.1837 8.52634 7.12011 8.57322 7.07322C8.62011 7.02634 8.6837 7 8.75 7C8.8163 7 8.87989 7.02634 8.92678 7.07322C8.97366 7.12011 9 7.1837 9 7.25V11.25C9.00007 11.3163 9.02643 11.3798 9.0733 11.4267C9.12017 11.4736 9.18372 11.4999 9.25 11.5H14.75C14.8163 11.5 14.8799 11.5263 14.9268 11.5732C14.9737 11.6201 15 11.6837 15 11.75C15 11.8163 14.9737 11.8799 14.9268 11.9268C14.8799 11.9737 14.8163 12 14.75 12Z" fill="#212121"/>
<path d="M2.125 8C2.60825 8 3 7.60825 3 7.125C3 6.64175 2.60825 6.25 2.125 6.25C1.64175 6.25 1.25 6.64175 1.25 7.125C1.25 7.60825 1.64175 8 2.125 8Z" fill="#F44336"/>
<path d="M4.625 5.75C5.10825 5.75 5.5 5.35825 5.5 4.875C5.5 4.39175 5.10825 4 4.625 4C4.14175 4 3.75 4.39175 3.75 4.875C3.75 5.35825 4.14175 5.75 4.625 5.75Z" fill="#FBC02D"/>
<path d="M9.625 5.5C10.1082 5.5 10.5 5.10825 10.5 4.625C10.5 4.14175 10.1082 3.75 9.625 3.75C9.14175 3.75 8.75 4.14175 8.75 4.625C8.75 5.10825 9.14175 5.5 9.625 5.5Z" fill="#1976D2"/>
<path d="M6.875 7.75C7.35825 7.75 7.75 7.35825 7.75 6.875C7.75 6.39175 7.35825 6 6.875 6C6.39175 6 6 6.39175 6 6.875C6 7.35825 6.39175 7.75 6.875 7.75Z" fill="#7CB342"/>
</svg>
