<svg width="16" height="16" viewBox="0 0 16 16" fill="none" xmlns="http://www.w3.org/2000/svg">
<g clip-path="url(#clip0_12674_109517)">
<path d="M1.77756 15.1066H2.88867C3.37869 15.1066 3.77756 14.7077 3.77756 14.2177V12.6799C3.77756 12.1899 3.37869 11.791 2.88867 11.791H1.77756C1.28754 11.791 0.888672 12.1899 0.888672 12.6799V14.2177C0.888672 14.7077 1.28754 15.1066 1.77756 15.1066ZM1.77756 12.6799H2.88867L2.88954 14.2177H1.77756V12.6799Z" fill="currentcolor"/>
<path d="M5.55539 15.1066H6.6665C7.15652 15.1066 7.55539 14.7077 7.55539 14.2177V8.70682C7.55539 8.2168 7.15652 7.81793 6.6665 7.81793H5.55539C5.06538 7.81793 4.6665 8.2168 4.6665 8.70682V14.2177C4.6665 14.7077 5.06538 15.1066 5.55539 15.1066ZM5.55539 8.70682H6.6665L6.66737 14.2177H5.55539V8.70682Z" fill="currentcolor"/>
<path d="M9.33322 9.36438C8.84321 9.36438 8.44434 9.76325 8.44434 10.2533V14.2177C8.44434 14.7077 8.84321 15.1066 9.33322 15.1066H10.4443C10.9344 15.1066 11.3332 14.7077 11.3332 14.2177V10.2533C11.3332 9.76325 10.9344 9.36438 10.4443 9.36438H9.33322ZM9.33322 14.2177V10.2533H10.4443L10.4452 14.2177H9.33322Z" fill="currentcolor"/>
<path d="M15.1111 14.2177V5.58658C15.1111 5.09656 14.7122 4.69769 14.2222 4.69769H13.1111C12.621 4.69769 12.2222 5.09656 12.2222 5.58658V14.2177C12.2222 14.7077 12.621 15.1065 13.1111 15.1065H14.2222C14.7122 15.1065 15.1111 14.7077 15.1111 14.2177ZM13.1111 5.58658H14.2222L14.223 14.2177H13.1111V5.58658Z" fill="currentcolor"/>
<path d="M2.64296 7.43857L5.99669 4.08484C6.12863 3.95333 6.33089 3.91687 6.5006 3.99717L9.14773 5.24239C9.65381 5.48241 10.2614 5.37607 10.6581 4.97894L13.9854 1.65211C14.159 1.4785 14.159 1.19725 13.9854 1.02364C13.8118 0.85003 13.5305 0.85003 13.3569 1.02364L10.0297 4.35046C9.8973 4.48284 9.69461 4.51843 9.5262 4.43814L6.87907 3.19248C6.37343 2.95463 5.76492 3.05967 5.36822 3.45637L2.01449 6.8101C1.84087 6.98371 1.84087 7.26496 2.01449 7.43857C2.18809 7.61218 2.46934 7.61219 2.64296 7.43857Z" fill="currentcolor"/>
</g>
<defs>
<clipPath id="clip0_12674_109517">
<rect width="16" height="16" fill="currentcolor"/>
</clipPath>
</defs>
</svg>
