<svg width="14" height="16" viewBox="0 0 14 16" fill="none" xmlns="http://www.w3.org/2000/svg">
<path d="M8.67013 16C9.2051 16 9.67163 15.5335 9.67163 14.9985V12.6596H10.3403C10.7416 12.6596 11.0091 12.392 11.0091 11.9908V5.31055H2.99084V11.9909C2.99084 12.3921 3.25833 12.6596 3.65956 12.6596H4.32832V14.9985C4.32832 15.5335 4.79474 16 5.32982 16C5.86474 16 6.33121 15.5335 6.33121 14.9985V12.6596H7.66869V14.9985C7.66863 15.5335 8.13516 16 8.67013 16Z" fill="currentColor"/>
<path d="M12.6793 11.9909C13.2143 11.9909 13.6807 11.5244 13.6807 10.9894V6.31161C13.6807 5.77947 13.2143 5.31055 12.6793 5.31055C12.1443 5.31055 11.6778 5.77947 11.6778 6.31161V10.9894C11.6778 11.5244 12.1442 11.9909 12.6793 11.9909Z" fill="currentColor"/>
<path d="M1.3206 11.9909C1.85563 11.9909 2.3221 11.5244 2.3221 10.9894V6.31161C2.3221 5.77947 1.85568 5.31055 1.3206 5.31055C0.785631 5.31055 0.319214 5.77947 0.319214 6.31161V10.9894C0.319214 11.5244 0.785631 11.9909 1.3206 11.9909Z" fill="currentColor"/>
<path d="M10.2065 0.100908C10.0729 -0.0336359 9.87381 -0.0336359 9.74012 0.100908L8.84322 0.994821L8.80184 1.03615C8.27002 0.769834 7.67376 0.636839 7.00975 0.635558C7.00649 0.635558 7.00328 0.635451 7.00003 0.635451H6.99992C6.99656 0.635451 6.99346 0.635558 6.9901 0.635558C6.32614 0.636839 5.72987 0.769834 5.19811 1.03615L5.15662 0.994821L4.25977 0.100908C4.12598 -0.0336359 3.92704 -0.0336359 3.79335 0.100908C3.65956 0.234704 3.65956 0.433262 3.79335 0.566951L4.66095 1.4347C4.38139 1.62136 4.1279 1.84976 3.90745 2.111C3.37969 2.73657 3.04306 3.55072 2.99677 4.43284C2.99634 4.44202 2.99544 4.45109 2.99501 4.46028C2.99218 4.52034 2.99084 4.58073 2.99084 4.64132H11.0091C11.0091 4.58073 11.0076 4.52034 11.0049 4.46028C11.0045 4.45109 11.0036 4.44202 11.003 4.43284C10.9568 3.55072 10.6201 2.73652 10.0923 2.11105C9.872 1.84981 9.61839 1.62141 9.33884 1.43476L10.2065 0.567005C10.3403 0.433262 10.3403 0.234704 10.2065 0.100908ZM5.32854 3.47373C5.05187 3.47373 4.82758 3.24944 4.82758 2.97277C4.82758 2.6961 5.05187 2.47181 5.32854 2.47181C5.60521 2.47181 5.8295 2.6961 5.8295 2.97277C5.8295 3.24944 5.60521 3.47373 5.32854 3.47373ZM8.67136 3.47373C8.39469 3.47373 8.1704 3.24944 8.1704 2.97277C8.1704 2.6961 8.39469 2.47181 8.67136 2.47181C8.94803 2.47181 9.17232 2.6961 9.17232 2.97277C9.17232 3.24944 8.94803 3.47373 8.67136 3.47373Z" fill="currentColor"/>
</svg>
