<svg width="16" height="16" viewBox="0 0 16 16" fill="none" xmlns="http://www.w3.org/2000/svg">
<path d="M4.36284 2.18142C4.36284 0.976656 3.38619 0 2.18142 0C0.976656 0 0 0.976656 0 2.18142C0 3.38619 0.976656 4.36284 2.18142 4.36284C3.38619 4.36284 4.36284 3.38619 4.36284 2.18142Z" fill="currentColor"/>
<path d="M4.36284 7.99929C4.36284 6.79453 3.38619 5.81787 2.18142 5.81787C0.976656 5.81787 0 6.79453 0 7.99929C0 9.20406 0.976656 10.1807 2.18142 10.1807C3.38619 10.1807 4.36284 9.20406 4.36284 7.99929Z" fill="currentColor"/>
<path d="M4.36284 13.8155C4.36284 12.6107 3.38619 11.634 2.18142 11.634C0.976656 11.634 0 12.6107 0 13.8155C0 15.0202 0.976656 15.9969 2.18142 15.9969C3.38619 15.9969 4.36284 15.0202 4.36284 13.8155Z" fill="currentColor"/>
<path d="M10.18 2.18142C10.18 0.976656 9.20339 0 7.99862 0C6.79386 0 5.8172 0.976656 5.8172 2.18142C5.8172 3.38619 6.79386 4.36284 7.99862 4.36284C9.20339 4.36284 10.18 3.38619 10.18 2.18142Z" fill="currentColor"/>
<path d="M10.18 7.99929C10.18 6.79453 9.20339 5.81787 7.99862 5.81787C6.79386 5.81787 5.8172 6.79453 5.8172 7.99929C5.8172 9.20406 6.79386 10.1807 7.99862 10.1807C9.20339 10.1807 10.18 9.20406 10.18 7.99929Z" fill="currentColor"/>
<path d="M10.18 13.8155C10.18 12.6107 9.20339 11.634 7.99862 11.634C6.79386 11.634 5.8172 12.6107 5.8172 13.8155C5.8172 15.0202 6.79386 15.9969 7.99862 15.9969C9.20339 15.9969 10.18 15.0202 10.18 13.8155Z" fill="currentColor"/>
<path d="M15.9977 2.18142C15.9977 0.976656 15.021 0 13.8162 0C12.6115 0 11.6348 0.976656 11.6348 2.18142C11.6348 3.38619 12.6115 4.36284 13.8162 4.36284C15.021 4.36284 15.9977 3.38619 15.9977 2.18142Z" fill="currentColor"/>
<path d="M13.8189 5.81982C14.2503 5.81982 14.6721 5.94776 15.0308 6.18746C15.3895 6.42716 15.6691 6.76785 15.8342 7.16645C15.9993 7.56505 16.0425 8.00366 15.9584 8.42682C15.8742 8.84997 15.6664 9.23867 15.3614 9.54374C15.0563 9.84882 14.6676 10.0566 14.2444 10.1408C13.8213 10.2249 13.3827 10.1817 12.9841 10.0166C12.5855 9.85151 12.2448 9.57191 12.0051 9.21318C11.7654 8.85444 11.6375 8.43269 11.6375 8.00125C11.6375 7.4227 11.8673 6.86784 12.2764 6.45875C12.6855 6.04965 13.2403 5.81982 13.8189 5.81982Z" fill="currentColor"/>
<path d="M13.8189 11.6372C14.2503 11.6372 14.6721 11.7651 15.0308 12.0048C15.3895 12.2445 15.6691 12.5852 15.8342 12.9838C15.9993 13.3824 16.0425 13.821 15.9584 14.2442C15.8742 14.6674 15.6664 15.056 15.3614 15.3611C15.0563 15.6662 14.6676 15.874 14.2444 15.9581C13.8213 16.0423 13.3827 15.9991 12.9841 15.834C12.5855 15.6689 12.2448 15.3893 12.0051 15.0306C11.7654 14.6718 11.6375 14.2501 11.6375 13.8186C11.6375 13.2401 11.8673 12.6852 12.2764 12.2761C12.6855 11.867 13.2403 11.6372 13.8189 11.6372Z" fill="currentColor"/>
</svg>
