<svg width="20" height="24" viewBox="0 0 20 24" fill="none" xmlns="http://www.w3.org/2000/svg">
<path d="M17.2252 23.3472H7.10682C6.07362 23.3472 5.23242 22.506 5.23242 21.4728V17.826C5.23242 17.6436 5.38002 17.496 5.56242 17.496C5.74482 17.496 5.89242 17.6436 5.89242 17.826V21.4728C5.89242 22.1424 6.43722 22.6872 7.10682 22.6872H17.2252C17.8948 22.6872 18.4396 22.1424 18.4396 21.4728V2.52841C18.4396 1.85761 17.8936 1.31161 17.2228 1.31161H7.10922C6.43842 1.31161 5.89242 1.85761 5.89242 2.52841V6.01081C5.89242 6.19321 5.74482 6.34081 5.56242 6.34081C5.38002 6.34081 5.23242 6.19321 5.23242 6.01081V2.52841C5.23242 1.49401 6.07362 0.651611 7.10922 0.651611H17.2228C18.2572 0.651611 19.0996 1.49401 19.0996 2.52841V21.4728C19.0996 22.5072 18.2584 23.3472 17.2252 23.3472Z" fill="currentColor"/>
<path d="M8.94354 16.6596H2.18154C1.47594 16.6596 0.902344 16.086 0.902344 15.3804V8.61843C0.902344 7.91283 1.47594 7.33923 2.18154 7.33923H8.94354C9.64914 7.33923 10.2227 7.91283 10.2227 8.61843V15.3804C10.2227 16.086 9.64914 16.6596 8.94354 16.6596ZM2.18154 8.00043C1.84074 8.00043 1.56234 8.27763 1.56234 8.61963V15.3816C1.56234 15.7224 1.83954 16.0008 2.18154 16.0008H8.94354C9.28434 16.0008 9.56274 15.7236 9.56274 15.3816V8.61843C9.56274 8.27763 9.28554 7.99923 8.94354 7.99923L2.18154 8.00043Z" fill="currentColor"/>
<path d="M13.6421 21.2328H10.6913C10.5089 21.2328 10.3613 21.0852 10.3613 20.9028C10.3613 20.7204 10.5089 20.5728 10.6913 20.5728H13.6421C13.8245 20.5728 13.9721 20.7204 13.9721 20.9028C13.9721 21.0852 13.8245 21.2328 13.6421 21.2328Z" fill="currentColor"/>
<path d="M4.63931 11.8452H3.44051C3.03011 11.8452 2.69531 11.5104 2.69531 11.1V9.90121C2.69531 9.49081 3.03011 9.15601 3.44051 9.15601H4.63931C5.04971 9.15601 5.38451 9.49081 5.38451 9.90121V11.1C5.38451 11.5116 5.05091 11.8452 4.63931 11.8452ZM3.44051 9.81601C3.39371 9.81601 3.35531 9.85441 3.35531 9.90121V11.1C3.35531 11.1468 3.39371 11.1852 3.44051 11.1852H4.63931C4.68611 11.1852 4.72451 11.1468 4.72451 11.1V9.90121C4.72451 9.85441 4.68611 9.81601 4.63931 9.81601H3.44051Z" fill="currentColor"/>
<path d="M7.73306 11.8452H6.53426C6.12386 11.8452 5.78906 11.5104 5.78906 11.1V9.90121C5.78906 9.49081 6.12386 9.15601 6.53426 9.15601H7.73306C8.14346 9.15601 8.47826 9.49081 8.47826 9.90121V11.1C8.47826 11.5116 8.14466 11.8452 7.73306 11.8452ZM6.53426 9.81601C6.48746 9.81601 6.44906 9.85441 6.44906 9.90121V11.1C6.44906 11.1468 6.48746 11.1852 6.53426 11.1852H7.73306C7.77986 11.1852 7.81826 11.1468 7.81826 11.1V9.90121C7.81826 9.85441 7.77986 9.81601 7.73306 9.81601H6.53426Z" fill="currentColor"/>
<path d="M4.63931 14.8428H3.44051C3.03011 14.8428 2.69531 14.508 2.69531 14.0976V12.8988C2.69531 12.4884 3.03011 12.1536 3.44051 12.1536H4.63931C5.04971 12.1536 5.38451 12.4884 5.38451 12.8988V14.0976C5.38451 14.5092 5.05091 14.8428 4.63931 14.8428ZM3.44051 12.8136C3.39371 12.8136 3.35531 12.852 3.35531 12.8988V14.0976C3.35531 14.1444 3.39371 14.1828 3.44051 14.1828H4.63931C4.68611 14.1828 4.72451 14.1444 4.72451 14.0976V12.8988C4.72451 12.852 4.68611 12.8136 4.63931 12.8136H3.44051Z" fill="currentColor"/>
<path d="M7.73306 14.8428H6.53426C6.12386 14.8428 5.78906 14.508 5.78906 14.0976V12.8988C5.78906 12.4884 6.12386 12.1536 6.53426 12.1536H7.73306C8.14346 12.1536 8.47826 12.4884 8.47826 12.8988V14.0976C8.47826 14.5092 8.14466 14.8428 7.73306 14.8428ZM6.53426 12.8136C6.48746 12.8136 6.44906 12.852 6.44906 12.8988V14.0976C6.44906 14.1444 6.48746 14.1828 6.53426 14.1828H7.73306C7.77986 14.1828 7.81826 14.1444 7.81826 14.0976V12.8988C7.81826 12.852 7.77986 12.8136 7.73306 12.8136H6.53426Z" fill="currentColor"/>
</svg>
