<svg width="18" height="18" viewBox="0 0 18 18" fill="none" xmlns="http://www.w3.org/2000/svg">
<mask id="path-1-outside-1_2947_11608" maskUnits="userSpaceOnUse" x="0" y="-0.000976562" width="18" height="18" fill="currentColor">
<rect fill="white" y="-0.000976562" width="18" height="18"/>
<path d="M14.5007 11.447C15.4768 10.707 16.1477 9.39715 16.2107 8.13752H16.2608C16.6684 8.13752 17 7.80593 17 7.39837V6.90921C17 6.77115 16.888 6.65921 16.75 6.65921H12.3431V4.45674C12.3431 4.39227 12.3182 4.33034 12.2736 4.2838L9.20034 1.07609C9.15319 1.02687 9.08797 0.999023 9.01984 0.999023H1.25C1.11194 0.999023 1 1.11096 1 1.24902V16.7491C1 16.8871 1.11194 16.9991 1.25 16.9991H9.21725H16.75C16.8881 16.9991 17 16.8871 17 16.7491V16.2599C17 15.8524 16.6684 15.5208 16.2608 15.5208H16.2107C16.1477 14.2612 15.4769 12.9514 14.5008 12.2114C14.382 12.1213 14.3139 11.982 14.3139 11.8292C14.3139 11.6763 14.382 11.537 14.5007 11.447ZM16.5 7.39834C16.5 7.53021 16.3927 7.63749 16.2608 7.63749H9.70641C9.57453 7.63749 9.46725 7.53018 9.46725 7.39834V7.15918H16.5V7.39834ZM11.5073 4.20674H9.13538V1.73096L11.5073 4.20674ZM1.5 1.49902H8.63538V4.45671C8.63538 4.59477 8.74731 4.70671 8.88538 4.70671H11.8431V6.65918H9.21725C9.07919 6.65918 8.96725 6.77112 8.96725 6.90918V7.39834C8.96725 7.8059 9.29884 8.13749 9.70641 8.13749H9.75656C9.8195 9.39712 10.4904 10.7069 11.4665 11.4469C11.5852 11.5369 11.6533 11.6762 11.6533 11.8291C11.6533 11.982 11.5852 12.1213 11.4665 12.2113C10.4904 12.9512 9.8195 14.2611 9.75656 15.5207H9.70641C9.29884 15.5207 8.96725 15.8523 8.96725 16.2598V16.499H1.5V1.49902ZM16.5 16.2599V16.4991H9.46725V16.2599C9.46725 16.1281 9.57456 16.0208 9.70641 16.0208H16.2608C16.3927 16.0207 16.5 16.1281 16.5 16.2599ZM12.7925 14.816C12.8586 14.7884 12.9224 14.7562 12.9836 14.7198C13.0448 14.7562 13.1087 14.7883 13.1748 14.816C13.4904 14.9477 13.7873 15.1922 14.036 15.5208H11.9313C12.18 15.1922 12.4769 14.9477 12.7925 14.816ZM14.1987 12.6098C15.0425 13.2495 15.6456 14.4234 15.71 15.5207H14.6387C14.3055 14.9709 13.8583 14.5594 13.3674 14.3546C13.3209 14.3351 13.2763 14.3121 13.2336 14.2862V13.5991C13.2336 13.4611 13.1217 13.3491 12.9836 13.3491C12.8455 13.3491 12.7336 13.4611 12.7336 13.5991V14.2863C12.6908 14.3121 12.6463 14.3352 12.5999 14.3546C12.109 14.5594 11.6618 14.9709 11.3286 15.5207H10.2572C10.3216 14.4234 10.9247 13.2495 11.7685 12.6098C12.0131 12.4244 12.1533 12.1399 12.1533 11.8292C12.1533 11.5184 12.0131 11.2339 11.7685 11.0485C10.9247 10.4088 10.3216 9.2349 10.2572 8.13756H15.71C15.6456 9.2349 15.0425 10.4088 14.1987 11.0486C13.9542 11.2339 13.8139 11.5184 13.8139 11.8291C13.8139 12.1398 13.9542 12.4244 14.1987 12.6098ZM13.2336 12.1133V12.3289C13.2336 12.4669 13.1217 12.5789 12.9836 12.5789C12.8456 12.5789 12.7336 12.4669 12.7336 12.3289V12.1133C12.7336 11.9753 12.8456 11.8633 12.9836 11.8633C13.1217 11.8633 13.2336 11.9753 13.2336 12.1133ZM14.8461 9.3459C14.8952 9.23802 14.8618 9.11052 14.7661 9.04056C13.972 8.45977 13.3647 8.75105 12.8288 9.00805C12.427 9.20077 12.0475 9.38277 11.5434 9.28396C11.4474 9.26515 11.3493 9.30402 11.2923 9.38343C11.2353 9.4628 11.2298 9.56818 11.2782 9.65315C11.6158 10.2452 12.0852 10.6896 12.5998 10.9044C12.6463 10.9238 12.6908 10.9468 12.7336 10.9727V11.3204C12.7336 11.4585 12.8455 11.5704 12.9836 11.5704C13.1217 11.5704 13.2336 11.4585 13.2336 11.3204V10.9728C13.2764 10.9469 13.3209 10.9238 13.3673 10.9045C13.9711 10.6525 14.51 10.0844 14.8461 9.3459ZM13.1748 10.443C13.1088 10.4706 13.0449 10.5027 12.9837 10.5391C12.9225 10.5027 12.8586 10.4706 12.7925 10.443C12.4997 10.3208 12.2218 10.1002 11.984 9.80543C12.3946 9.77087 12.7346 9.60781 13.0451 9.4589C13.4966 9.2423 13.8365 9.07934 14.2957 9.33159C14.0125 9.86109 13.6117 10.2606 13.1748 10.443ZM2.97287 4.94155C2.97287 4.80349 3.08481 4.69155 3.22288 4.69155H7.23537C7.37344 4.69155 7.48537 4.80349 7.48537 4.94155C7.48537 5.07962 7.37344 5.19156 7.23537 5.19156H3.22288C3.08481 5.19156 2.97287 5.07962 2.97287 4.94155ZM2.97287 7.64659C2.97287 7.50852 3.08481 7.39659 3.22288 7.39659H7.23537C7.37344 7.39659 7.48537 7.50852 7.48537 7.64659C7.48537 7.78465 7.37344 7.89659 7.23537 7.89659H3.22288C3.08481 7.89659 2.97287 7.78465 2.97287 7.64659ZM2.97287 10.3516C2.97287 10.2135 3.08481 10.1016 3.22288 10.1016H8.82175C8.95981 10.1016 9.07175 10.2135 9.07175 10.3516C9.07175 10.4896 8.95981 10.6016 8.82175 10.6016H3.22288C3.08481 10.6016 2.97287 10.4896 2.97287 10.3516ZM8.82175 13.3066H3.22288C3.08481 13.3066 2.97287 13.1946 2.97287 13.0566C2.97287 12.9185 3.08481 12.8066 3.22288 12.8066H8.82175C8.95981 12.8066 9.07175 12.9185 9.07175 13.0566C9.07175 13.1946 8.95981 13.3066 8.82175 13.3066Z"/>
</mask>
<path d="M14.5007 11.447C15.4768 10.707 16.1477 9.39715 16.2107 8.13752H16.2608C16.6684 8.13752 17 7.80593 17 7.39837V6.90921C17 6.77115 16.888 6.65921 16.75 6.65921H12.3431V4.45674C12.3431 4.39227 12.3182 4.33034 12.2736 4.2838L9.20034 1.07609C9.15319 1.02687 9.08797 0.999023 9.01984 0.999023H1.25C1.11194 0.999023 1 1.11096 1 1.24902V16.7491C1 16.8871 1.11194 16.9991 1.25 16.9991H9.21725H16.75C16.8881 16.9991 17 16.8871 17 16.7491V16.2599C17 15.8524 16.6684 15.5208 16.2608 15.5208H16.2107C16.1477 14.2612 15.4769 12.9514 14.5008 12.2114C14.382 12.1213 14.3139 11.982 14.3139 11.8292C14.3139 11.6763 14.382 11.537 14.5007 11.447ZM16.5 7.39834C16.5 7.53021 16.3927 7.63749 16.2608 7.63749H9.70641C9.57453 7.63749 9.46725 7.53018 9.46725 7.39834V7.15918H16.5V7.39834ZM11.5073 4.20674H9.13538V1.73096L11.5073 4.20674ZM1.5 1.49902H8.63538V4.45671C8.63538 4.59477 8.74731 4.70671 8.88538 4.70671H11.8431V6.65918H9.21725C9.07919 6.65918 8.96725 6.77112 8.96725 6.90918V7.39834C8.96725 7.8059 9.29884 8.13749 9.70641 8.13749H9.75656C9.8195 9.39712 10.4904 10.7069 11.4665 11.4469C11.5852 11.5369 11.6533 11.6762 11.6533 11.8291C11.6533 11.982 11.5852 12.1213 11.4665 12.2113C10.4904 12.9512 9.8195 14.2611 9.75656 15.5207H9.70641C9.29884 15.5207 8.96725 15.8523 8.96725 16.2598V16.499H1.5V1.49902ZM16.5 16.2599V16.4991H9.46725V16.2599C9.46725 16.1281 9.57456 16.0208 9.70641 16.0208H16.2608C16.3927 16.0207 16.5 16.1281 16.5 16.2599ZM12.7925 14.816C12.8586 14.7884 12.9224 14.7562 12.9836 14.7198C13.0448 14.7562 13.1087 14.7883 13.1748 14.816C13.4904 14.9477 13.7873 15.1922 14.036 15.5208H11.9313C12.18 15.1922 12.4769 14.9477 12.7925 14.816ZM14.1987 12.6098C15.0425 13.2495 15.6456 14.4234 15.71 15.5207H14.6387C14.3055 14.9709 13.8583 14.5594 13.3674 14.3546C13.3209 14.3351 13.2763 14.3121 13.2336 14.2862V13.5991C13.2336 13.4611 13.1217 13.3491 12.9836 13.3491C12.8455 13.3491 12.7336 13.4611 12.7336 13.5991V14.2863C12.6908 14.3121 12.6463 14.3352 12.5999 14.3546C12.109 14.5594 11.6618 14.9709 11.3286 15.5207H10.2572C10.3216 14.4234 10.9247 13.2495 11.7685 12.6098C12.0131 12.4244 12.1533 12.1399 12.1533 11.8292C12.1533 11.5184 12.0131 11.2339 11.7685 11.0485C10.9247 10.4088 10.3216 9.2349 10.2572 8.13756H15.71C15.6456 9.2349 15.0425 10.4088 14.1987 11.0486C13.9542 11.2339 13.8139 11.5184 13.8139 11.8291C13.8139 12.1398 13.9542 12.4244 14.1987 12.6098ZM13.2336 12.1133V12.3289C13.2336 12.4669 13.1217 12.5789 12.9836 12.5789C12.8456 12.5789 12.7336 12.4669 12.7336 12.3289V12.1133C12.7336 11.9753 12.8456 11.8633 12.9836 11.8633C13.1217 11.8633 13.2336 11.9753 13.2336 12.1133ZM14.8461 9.3459C14.8952 9.23802 14.8618 9.11052 14.7661 9.04056C13.972 8.45977 13.3647 8.75105 12.8288 9.00805C12.427 9.20077 12.0475 9.38277 11.5434 9.28396C11.4474 9.26515 11.3493 9.30402 11.2923 9.38343C11.2353 9.4628 11.2298 9.56818 11.2782 9.65315C11.6158 10.2452 12.0852 10.6896 12.5998 10.9044C12.6463 10.9238 12.6908 10.9468 12.7336 10.9727V11.3204C12.7336 11.4585 12.8455 11.5704 12.9836 11.5704C13.1217 11.5704 13.2336 11.4585 13.2336 11.3204V10.9728C13.2764 10.9469 13.3209 10.9238 13.3673 10.9045C13.9711 10.6525 14.51 10.0844 14.8461 9.3459ZM13.1748 10.443C13.1088 10.4706 13.0449 10.5027 12.9837 10.5391C12.9225 10.5027 12.8586 10.4706 12.7925 10.443C12.4997 10.3208 12.2218 10.1002 11.984 9.80543C12.3946 9.77087 12.7346 9.60781 13.0451 9.4589C13.4966 9.2423 13.8365 9.07934 14.2957 9.33159C14.0125 9.86109 13.6117 10.2606 13.1748 10.443ZM2.97287 4.94155C2.97287 4.80349 3.08481 4.69155 3.22288 4.69155H7.23537C7.37344 4.69155 7.48537 4.80349 7.48537 4.94155C7.48537 5.07962 7.37344 5.19156 7.23537 5.19156H3.22288C3.08481 5.19156 2.97287 5.07962 2.97287 4.94155ZM2.97287 7.64659C2.97287 7.50852 3.08481 7.39659 3.22288 7.39659H7.23537C7.37344 7.39659 7.48537 7.50852 7.48537 7.64659C7.48537 7.78465 7.37344 7.89659 7.23537 7.89659H3.22288C3.08481 7.89659 2.97287 7.78465 2.97287 7.64659ZM2.97287 10.3516C2.97287 10.2135 3.08481 10.1016 3.22288 10.1016H8.82175C8.95981 10.1016 9.07175 10.2135 9.07175 10.3516C9.07175 10.4896 8.95981 10.6016 8.82175 10.6016H3.22288C3.08481 10.6016 2.97287 10.4896 2.97287 10.3516ZM8.82175 13.3066H3.22288C3.08481 13.3066 2.97287 13.1946 2.97287 13.0566C2.97287 12.9185 3.08481 12.8066 3.22288 12.8066H8.82175C8.95981 12.8066 9.07175 12.9185 9.07175 13.0566C9.07175 13.1946 8.95981 13.3066 8.82175 13.3066Z" fill="currentColor"/>
<path d="M14.5007 11.447C15.4768 10.707 16.1477 9.39715 16.2107 8.13752H16.2608C16.6684 8.13752 17 7.80593 17 7.39837V6.90921C17 6.77115 16.888 6.65921 16.75 6.65921H12.3431V4.45674C12.3431 4.39227 12.3182 4.33034 12.2736 4.2838L9.20034 1.07609C9.15319 1.02687 9.08797 0.999023 9.01984 0.999023H1.25C1.11194 0.999023 1 1.11096 1 1.24902V16.7491C1 16.8871 1.11194 16.9991 1.25 16.9991H9.21725H16.75C16.8881 16.9991 17 16.8871 17 16.7491V16.2599C17 15.8524 16.6684 15.5208 16.2608 15.5208H16.2107C16.1477 14.2612 15.4769 12.9514 14.5008 12.2114C14.382 12.1213 14.3139 11.982 14.3139 11.8292C14.3139 11.6763 14.382 11.537 14.5007 11.447ZM16.5 7.39834C16.5 7.53021 16.3927 7.63749 16.2608 7.63749H9.70641C9.57453 7.63749 9.46725 7.53018 9.46725 7.39834V7.15918H16.5V7.39834ZM11.5073 4.20674H9.13538V1.73096L11.5073 4.20674ZM1.5 1.49902H8.63538V4.45671C8.63538 4.59477 8.74731 4.70671 8.88538 4.70671H11.8431V6.65918H9.21725C9.07919 6.65918 8.96725 6.77112 8.96725 6.90918V7.39834C8.96725 7.8059 9.29884 8.13749 9.70641 8.13749H9.75656C9.8195 9.39712 10.4904 10.7069 11.4665 11.4469C11.5852 11.5369 11.6533 11.6762 11.6533 11.8291C11.6533 11.982 11.5852 12.1213 11.4665 12.2113C10.4904 12.9512 9.8195 14.2611 9.75656 15.5207H9.70641C9.29884 15.5207 8.96725 15.8523 8.96725 16.2598V16.499H1.5V1.49902ZM16.5 16.2599V16.4991H9.46725V16.2599C9.46725 16.1281 9.57456 16.0208 9.70641 16.0208H16.2608C16.3927 16.0207 16.5 16.1281 16.5 16.2599ZM12.7925 14.816C12.8586 14.7884 12.9224 14.7562 12.9836 14.7198C13.0448 14.7562 13.1087 14.7883 13.1748 14.816C13.4904 14.9477 13.7873 15.1922 14.036 15.5208H11.9313C12.18 15.1922 12.4769 14.9477 12.7925 14.816ZM14.1987 12.6098C15.0425 13.2495 15.6456 14.4234 15.71 15.5207H14.6387C14.3055 14.9709 13.8583 14.5594 13.3674 14.3546C13.3209 14.3351 13.2763 14.3121 13.2336 14.2862V13.5991C13.2336 13.4611 13.1217 13.3491 12.9836 13.3491C12.8455 13.3491 12.7336 13.4611 12.7336 13.5991V14.2863C12.6908 14.3121 12.6463 14.3352 12.5999 14.3546C12.109 14.5594 11.6618 14.9709 11.3286 15.5207H10.2572C10.3216 14.4234 10.9247 13.2495 11.7685 12.6098C12.0131 12.4244 12.1533 12.1399 12.1533 11.8292C12.1533 11.5184 12.0131 11.2339 11.7685 11.0485C10.9247 10.4088 10.3216 9.2349 10.2572 8.13756H15.71C15.6456 9.2349 15.0425 10.4088 14.1987 11.0486C13.9542 11.2339 13.8139 11.5184 13.8139 11.8291C13.8139 12.1398 13.9542 12.4244 14.1987 12.6098ZM13.2336 12.1133V12.3289C13.2336 12.4669 13.1217 12.5789 12.9836 12.5789C12.8456 12.5789 12.7336 12.4669 12.7336 12.3289V12.1133C12.7336 11.9753 12.8456 11.8633 12.9836 11.8633C13.1217 11.8633 13.2336 11.9753 13.2336 12.1133ZM14.8461 9.3459C14.8952 9.23802 14.8618 9.11052 14.7661 9.04056C13.972 8.45977 13.3647 8.75105 12.8288 9.00805C12.427 9.20077 12.0475 9.38277 11.5434 9.28396C11.4474 9.26515 11.3493 9.30402 11.2923 9.38343C11.2353 9.4628 11.2298 9.56818 11.2782 9.65315C11.6158 10.2452 12.0852 10.6896 12.5998 10.9044C12.6463 10.9238 12.6908 10.9468 12.7336 10.9727V11.3204C12.7336 11.4585 12.8455 11.5704 12.9836 11.5704C13.1217 11.5704 13.2336 11.4585 13.2336 11.3204V10.9728C13.2764 10.9469 13.3209 10.9238 13.3673 10.9045C13.9711 10.6525 14.51 10.0844 14.8461 9.3459ZM13.1748 10.443C13.1088 10.4706 13.0449 10.5027 12.9837 10.5391C12.9225 10.5027 12.8586 10.4706 12.7925 10.443C12.4997 10.3208 12.2218 10.1002 11.984 9.80543C12.3946 9.77087 12.7346 9.60781 13.0451 9.4589C13.4966 9.2423 13.8365 9.07934 14.2957 9.33159C14.0125 9.86109 13.6117 10.2606 13.1748 10.443ZM2.97287 4.94155C2.97287 4.80349 3.08481 4.69155 3.22288 4.69155H7.23537C7.37344 4.69155 7.48537 4.80349 7.48537 4.94155C7.48537 5.07962 7.37344 5.19156 7.23537 5.19156H3.22288C3.08481 5.19156 2.97287 5.07962 2.97287 4.94155ZM2.97287 7.64659C2.97287 7.50852 3.08481 7.39659 3.22288 7.39659H7.23537C7.37344 7.39659 7.48537 7.50852 7.48537 7.64659C7.48537 7.78465 7.37344 7.89659 7.23537 7.89659H3.22288C3.08481 7.89659 2.97287 7.78465 2.97287 7.64659ZM2.97287 10.3516C2.97287 10.2135 3.08481 10.1016 3.22288 10.1016H8.82175C8.95981 10.1016 9.07175 10.2135 9.07175 10.3516C9.07175 10.4896 8.95981 10.6016 8.82175 10.6016H3.22288C3.08481 10.6016 2.97287 10.4896 2.97287 10.3516ZM8.82175 13.3066H3.22288C3.08481 13.3066 2.97287 13.1946 2.97287 13.0566C2.97287 12.9185 3.08481 12.8066 3.22288 12.8066H8.82175C8.95981 12.8066 9.07175 12.9185 9.07175 13.0566C9.07175 13.1946 8.95981 13.3066 8.82175 13.3066Z" stroke="currentColor" stroke-width="0.4" mask="url(#path-1-outside-1_2947_11608)"/>
</svg>
