<svg width="12" height="13" viewBox="0 0 12 13" fill="none" xmlns="http://www.w3.org/2000/svg">
<g clip-path="url(#clip0_1179_4549)">
<path d="M3.04845 12.5867L2.65264 12.1936C2.52903 12.0699 2.46093 11.9053 2.46093 11.7294C2.46093 11.5536 2.52903 11.3888 2.65264 11.2651L7.13678 6.78119L2.64767 2.29208C2.52406 2.16856 2.45605 2.00378 2.45605 1.82798C2.45605 1.65217 2.52406 1.48729 2.64767 1.36368L3.04104 0.970505C3.29684 0.714503 3.71353 0.714503 3.96934 0.970505L9.33338 6.31533C9.45689 6.43884 9.54392 6.60343 9.54392 6.7808V6.78285C9.54392 6.95875 9.45679 7.12334 9.33338 7.24685L3.98387 12.5867C3.86036 12.7104 3.6908 12.7783 3.51499 12.7785C3.33909 12.7785 3.17187 12.7104 3.04845 12.5867Z" fill="currentColor"/>
</g>
<defs>
<clipPath id="clip0_1179_4549">
<rect width="12" height="12" fill="white" transform="matrix(0 1 1 0 0 0.778503)"/>
</clipPath>
</defs>
</svg>
