<svg width="8" height="12" viewBox="0 0 8 12" fill="none" xmlns="http://www.w3.org/2000/svg">
    <path
        d="M6.95155 11.8082L7.34736 11.4151C7.47097 11.2914 7.53907 11.1268 7.53907 10.9509C7.53907 10.7751 7.47097 10.6103 7.34736 10.4866C4.87086 8.01023 4.87589 3.99002 7.35233 1.51357C7.47594 1.39006 7.54395 1.22528 7.54395 1.04947C7.54395 0.873666 7.47594 0.708786 7.35233 0.585176L6.95896 0.192002C6.70316 -0.0640005 6.28647 -0.0640005 6.03066 0.192002L0.666621 5.53683C0.543108 5.66034 0.456083 5.82493 0.456083 6.00229V6.00434C0.456083 6.18025 0.543206 6.34483 0.666621 6.46835L6.01613 11.8082C6.13964 11.9319 6.3092 11.9998 6.48501 12C6.66091 12 6.82813 11.9319 6.95155 11.8082Z"
        fill="currentColor" />
</svg>