<svg width="5" height="8" viewBox="0 0 5 8" fill="none" xmlns="http://www.w3.org/2000/svg">
    <path
        d="M0.417894 0.127872L0.138679 0.389922C0.0514798 0.472394 0.00344123 0.582119 0.00344123 0.699388C0.00344123 0.816592 0.0514798 0.926447 0.138679 1.00892C1.85602 2.63182 1.85247 5.36801 0.135169 6.99095C0.0479698 7.07329 0 7.18315 0 7.30035C0 7.41756 0.0479698 7.52748 0.135169 7.60988L0.412663 7.872C0.593118 8.04267 0.887061 8.04267 1.06752 7.872L4.85148 4.30878C4.93861 4.22644 5 4.11672 5 3.99847V3.99711C5 3.87984 4.93854 3.77011 4.85148 3.68777L1.07777 0.127872C0.99064 0.0453992 0.871025 0.000130177 0.747006 0C0.622918 0 0.504955 0.0453992 0.417894 0.127872Z"
        fill="currentColor" />
</svg>