<svg width="12" height="8" viewBox="0 0 12 8" fill="none" xmlns="http://www.w3.org/2000/svg">
<path d="M11.8082 7.18959L11.4151 7.5854C11.2914 7.70901 11.1268 7.7771 10.9509 7.7771C10.7751 7.7771 10.6103 7.70901 10.4866 7.5854L6.00268 3.10126L1.51357 7.59037C1.39006 7.71398 1.22528 7.78198 1.04947 7.78198C0.873666 7.78198 0.708786 7.71398 0.585176 7.59037L0.192002 7.197C-0.0640005 6.9412 -0.0640005 6.52451 0.192002 6.2687L5.53683 0.904658C5.66034 0.781145 5.82493 0.69412 6.00229 0.69412H6.00434C6.18025 0.69412 6.34483 0.781243 6.46835 0.904658L11.8082 6.25417C11.9319 6.37768 11.9998 6.54724 12 6.72305C12 6.89895 11.9319 7.06617 11.8082 7.18959Z" fill="currentColor"/>
</svg>
