<svg width="12" height="8" viewBox="0 0 12 8" fill="currentColor" xmlns="http://www.w3.org/2000/svg">
<path d="M11.8082 1.15807L11.4151 0.762261C11.2914 0.63865 11.1268 0.570552 10.9509 0.570552C10.7751 0.570552 10.6103 0.63865 10.4866 0.762261C8.01023 3.23876 3.99002 3.23373 1.51357 0.757285C1.39006 0.633674 1.22528 0.565674 1.04947 0.565674C0.873666 0.565674 0.708786 0.633674 0.585176 0.757285L0.192002 1.15065C-0.0640005 1.40646 -0.0640005 1.82315 0.192002 2.07895L5.53683 7.443C5.66034 7.56651 5.82493 7.65354 6.00229 7.65354H6.00434C6.18025 7.65354 6.34483 7.56641 6.46835 7.443L11.8082 2.09349C11.9319 1.96998 11.9998 1.80042 12 1.62461C12 1.44871 11.9319 1.28148 11.8082 1.15807Z" fill="currentColor"/>
</svg>
