<svg width="12" height="8" viewBox="0 0 12 8" fill="currentColor" xmlns="http://www.w3.org/2000/svg">
<path d="M0.191807 6.6611L0.584883 7.05691C0.708591 7.18052 0.873178 7.24862 1.04908 7.24862C1.22489 7.24862 1.38967 7.18052 1.51338 7.05691C3.98977 4.5804 8.00998 4.58543 10.4864 7.06188C10.6099 7.18549 10.7747 7.25349 10.9505 7.25349C11.1263 7.25349 11.2912 7.18549 11.4148 7.06188L11.808 6.66851C12.064 6.41271 12.064 5.99602 11.808 5.74021L6.46317 0.37617C6.33966 0.252657 6.17507 0.165632 5.99771 0.165632H5.99566C5.81975 0.165632 5.65517 0.252755 5.53165 0.37617L0.191807 5.72568C0.0680981 5.84919 0.00019455 6.01875 0 6.19456C0 6.37046 0.0680981 6.53768 0.191807 6.6611Z" fill="currentColor"/>
</svg>
