<svg width="12" height="8" viewBox="0 0 12 8" fill="none" xmlns="http://www.w3.org/2000/svg">
  <path
    d="M11.8082 1.38365L11.4151 0.987847C11.2914 0.864236 11.1268 0.796138 10.9509 0.796138C10.7751 0.796138 10.6103 0.864236 10.4866 0.987847C8.01023 3.46435 3.99002 3.45932 1.51357 0.982871C1.39006 0.85926 1.22528 0.79126 1.04947 0.79126C0.873666 0.79126 0.708786 0.85926 0.585176 0.982871L0.192002 1.37624C-0.0640005 1.63205 -0.0640005 2.04873 0.192002 2.30454L5.53683 7.66858C5.66034 7.7921 5.82493 7.87912 6.00229 7.87912H6.00434C6.18025 7.87912 6.34483 7.792 6.46835 7.66858L11.8082 2.31908C11.9319 2.19556 11.9998 2.026 12 1.8502C12 1.67429 11.9319 1.50707 11.8082 1.38365Z"
    fill="currentColor" />
</svg>