<svg width="12" height="13" viewBox="0 0 12 13" fill="none" xmlns="http://www.w3.org/2000/svg">
<path d="M11.8082 3.82695L11.4151 3.43115C11.2914 3.30753 11.1268 3.23944 10.9509 3.23944C10.7751 3.23944 10.6103 3.30753 10.4866 3.43115L6.00268 7.91528L1.51357 3.42617C1.39006 3.30256 1.22528 3.23456 1.04947 3.23456C0.873666 3.23456 0.708786 3.30256 0.585176 3.42617L0.192002 3.81954C-0.0640005 4.07535 -0.0640005 4.49203 0.192002 4.74784L5.53683 10.1119C5.66034 10.2354 5.82493 10.3224 6.00229 10.3224H6.00434C6.18025 10.3224 6.34483 10.2353 6.46835 10.1119L11.8082 4.76238C11.9319 4.63886 11.9998 4.4693 12 4.29349C12 4.11759 11.9319 3.95037 11.8082 3.82695Z" fill="currentColor"/>
</svg>
