<svg width="89" height="36" viewBox="0 0 89 36" fill="none" xmlns="http://www.w3.org/2000/svg">
<g filter="url(#filter0_d_752_2877)">
<path d="M6 12.4728C6 6.76874 10.7637 2.22014 16.4616 2.48346L78.4616 5.34868C83.7993 5.59535 88 9.99466 88 15.338V20.662C88 26.0053 83.7993 30.4047 78.4616 30.6513L16.4617 33.5165C10.7637 33.7799 6 29.2313 6 23.5272V12.4728Z" fill="#F4CBFA"/>
</g>
<path d="M21.58 21.012H17.506L16.806 23H15.14L18.626 13.256H20.474L23.96 23H22.28L21.58 21.012ZM21.132 19.71L19.55 15.188L17.954 19.71H21.132ZM28.2757 23.126C27.669 23.126 27.123 23.0187 26.6377 22.804C26.1617 22.58 25.7837 22.2813 25.5037 21.908C25.2237 21.5253 25.0744 21.1007 25.0557 20.634H26.7077C26.7357 20.9607 26.8897 21.236 27.1697 21.46C27.459 21.6747 27.8184 21.782 28.2477 21.782C28.6957 21.782 29.041 21.698 29.2837 21.53C29.5357 21.3527 29.6617 21.1287 29.6617 20.858C29.6617 20.5687 29.5217 20.354 29.2417 20.214C28.971 20.074 28.537 19.92 27.9397 19.752C27.361 19.5933 26.8897 19.4393 26.5257 19.29C26.1617 19.1407 25.8444 18.912 25.5737 18.604C25.3124 18.296 25.1817 17.89 25.1817 17.386C25.1817 16.9753 25.303 16.602 25.5457 16.266C25.7884 15.9207 26.1337 15.65 26.5817 15.454C27.039 15.258 27.5617 15.16 28.1497 15.16C29.027 15.16 29.7317 15.384 30.2637 15.832C30.805 16.2707 31.0944 16.8727 31.1317 17.638H29.5357C29.5077 17.2927 29.3677 17.0173 29.1157 16.812C28.8637 16.6067 28.523 16.504 28.0937 16.504C27.6737 16.504 27.3517 16.5833 27.1277 16.742C26.9037 16.9007 26.7917 17.1107 26.7917 17.372C26.7917 17.5773 26.8664 17.75 27.0157 17.89C27.165 18.03 27.347 18.142 27.5617 18.226C27.7764 18.3007 28.0937 18.3987 28.5137 18.52C29.0737 18.6693 29.531 18.8233 29.8857 18.982C30.2497 19.1313 30.5624 19.3553 30.8237 19.654C31.085 19.9527 31.2204 20.3493 31.2297 20.844C31.2297 21.2827 31.1084 21.6747 30.8657 22.02C30.623 22.3653 30.2777 22.636 29.8297 22.832C29.391 23.028 28.873 23.126 28.2757 23.126ZM36.0062 19.15L39.5622 23H37.4062L34.5502 19.682V23H32.9542V12.64H34.5502V18.66L37.3502 15.286H39.5622L36.0062 19.15ZM50.9789 13.172V15.09H46.9749V17.162H49.9709V19.024H46.9749V23H44.5809V13.172H50.9789ZM53.4411 14.376C53.0211 14.376 52.6758 14.2547 52.4051 14.012C52.1438 13.76 52.0131 13.452 52.0131 13.088C52.0131 12.7147 52.1438 12.4067 52.4051 12.164C52.6758 11.912 53.0211 11.786 53.4411 11.786C53.8518 11.786 54.1878 11.912 54.4491 12.164C54.7198 12.4067 54.8551 12.7147 54.8551 13.088C54.8551 13.452 54.7198 13.76 54.4491 14.012C54.1878 14.2547 53.8518 14.376 53.4411 14.376ZM54.6311 15.188V23H52.2371V15.188H54.6311ZM55.89 19.08C55.89 18.2773 56.0394 17.5727 56.338 16.966C56.646 16.3593 57.0614 15.8927 57.584 15.566C58.1067 15.2393 58.69 15.076 59.334 15.076C59.8847 15.076 60.3654 15.188 60.776 15.412C61.196 15.636 61.518 15.93 61.742 16.294V15.188H64.136V23H61.742V21.894C61.5087 22.258 61.182 22.552 60.762 22.776C60.3514 23 59.8707 23.112 59.32 23.112C58.6854 23.112 58.1067 22.9487 57.584 22.622C57.0614 22.286 56.646 21.8147 56.338 21.208C56.0394 20.592 55.89 19.8827 55.89 19.08ZM61.742 19.094C61.742 18.4967 61.574 18.0253 61.238 17.68C60.9114 17.3347 60.51 17.162 60.034 17.162C59.558 17.162 59.152 17.3347 58.816 17.68C58.4894 18.016 58.326 18.4827 58.326 19.08C58.326 19.6773 58.4894 20.1533 58.816 20.508C59.152 20.8533 59.558 21.026 60.034 21.026C60.51 21.026 60.9114 20.8533 61.238 20.508C61.574 20.1627 61.742 19.6913 61.742 19.094Z" fill="url(#paint0_linear_752_2877)"/>
<defs>
<filter id="filter0_d_752_2877" x="3" y="0.472595" width="86" height="35.0548" filterUnits="userSpaceOnUse" color-interpolation-filters="sRGB">
<feFlood flood-opacity="0" result="BackgroundImageFix"/>
<feColorMatrix in="SourceAlpha" type="matrix" values="0 0 0 0 0 0 0 0 0 0 0 0 0 0 0 0 0 0 127 0" result="hardAlpha"/>
<feOffset dx="-1"/>
<feGaussianBlur stdDeviation="1"/>
<feComposite in2="hardAlpha" operator="out"/>
<feColorMatrix type="matrix" values="0 0 0 0 0 0 0 0 0 0 0 0 0 0 0 0 0 0 0.25 0"/>
<feBlend mode="normal" in2="BackgroundImageFix" result="effect1_dropShadow_752_2877"/>
<feBlend mode="normal" in="SourceGraphic" in2="effect1_dropShadow_752_2877" result="shape"/>
</filter>
<linearGradient id="paint0_linear_752_2877" x1="39" y1="10.5" x2="39" y2="25" gradientUnits="userSpaceOnUse">
<stop stop-color="#71347B"/>
<stop offset="1" stop-color="#DA45E7"/>
</linearGradient>
</defs>
</svg>
