<svg width="15" height="16" viewBox="0 0 15 16" fill="currentColor" xmlns="http://www.w3.org/2000/svg">
<path d="M5.5 15H2.5C1.94873 15 1.5 14.5515 1.5 14V4.12011C1.5 3.85791 1.60693 3.60034 1.79345 3.41357L3.91358 1.29346C4.1001 1.10693 4.35742 1 4.62012 1H11.5C12.0513 1 12.5 1.44849 12.5 2V6C12.5 6.27612 12.7236 6.5 13 6.5C13.2764 6.5 13.5 6.27612 13.5 6V2C13.5 0.897215 12.603 0 11.5 0H4.62011C4.09423 0 3.57861 0.213865 3.20654 0.586425L1.08643 2.70655C0.713865 3.07959 0.5 3.59473 0.5 4.12012V14C0.5 15.1028 1.39698 16 2.5 16H5.5C5.77636 16 6 15.7761 6 15.5C6 15.2239 5.77636 15 5.5 15Z" fill="currentColor"/>
<path d="M14.4136 9.05029L13.7065 8.34326C12.9507 7.58691 11.6328 7.58789 10.8784 8.34326L7.34278 11.8787C6.96485 12.2563 6.75684 12.7588 6.75684 13.293C6.75684 13.8271 6.96485 14.3293 7.34278 14.707L8.04981 15.4141C8.42774 15.792 8.92969 16 9.46387 16C9.99854 16 10.5005 15.792 10.8779 15.4141L12.646 13.6465C13.231 13.0618 13.231 12.1099 12.646 11.5251C12.0796 10.958 11.0903 10.959 10.5249 11.5251L9.11035 12.9394C8.91504 13.1345 8.91504 13.4512 9.11035 13.6465C9.30566 13.8418 9.62207 13.8418 9.81738 13.6465L11.2324 12.2319C11.4209 12.0439 11.7495 12.0427 11.939 12.2322C12.1338 12.4272 12.1338 12.7444 11.939 12.9394L10.1709 14.707C9.79297 15.085 9.13476 15.085 8.75684 14.707L8.04981 14C7.86084 13.811 7.75684 13.5601 7.75684 13.293C7.75684 13.0259 7.86084 12.7747 8.04981 12.5857L11.5855 9.05029C11.9634 8.67236 12.6216 8.67236 12.9995 9.05029L13.7065 9.75732C13.8955 9.94628 13.9995 10.1973 13.9995 10.4643C13.9995 10.7317 13.8955 10.9827 13.7065 11.1716C13.5112 11.3667 13.5112 11.6833 13.7065 11.8787C13.9019 12.074 14.2183 12.074 14.4136 11.8787C14.7915 11.501 14.9995 10.9988 14.9995 10.4643C14.9995 9.93017 14.7915 9.42798 14.4136 9.05029Z" fill="currentColor"/>
<path d="M10 5C10 4.72387 9.77636 4.5 9.5 4.5H4.5C4.22363 4.5 4 4.72387 4 5C4 5.27613 4.22363 5.5 4.5 5.5H9.5C9.77636 5.5 10 5.27613 10 5Z" fill="currentColor"/>
<path d="M4.5 7C4.22363 7 4 7.22387 4 7.5C4 7.77613 4.22363 8 4.5 8H7C7.27637 8 7.5 7.77613 7.5 7.5C7.5 7.22387 7.27637 7 7 7H4.5Z" fill="currentColor"/>
</svg>
