<svg width="16" height="16" viewBox="0 0 16 16" fill="currentColor" xmlns="http://www.w3.org/2000/svg">
<g clip-path="url(#clip0_1870_94591)">
<path d="M8.61198 11.063L6.1639 13.5112C6.1639 13.5112 6.1639 13.5112 6.16384 13.5112C6.16384 13.5112 6.16384 13.5113 6.16378 13.5113C5.15143 14.5237 3.50411 14.5237 2.49164 13.5113C2.00116 13.0208 1.73111 12.3687 1.73111 11.6751C1.73111 10.9817 2.00116 10.3297 2.49147 9.83918C2.49153 9.83912 2.49158 9.83907 2.49164 9.83901L4.93972 7.39087C5.27769 7.05285 5.27769 6.50478 4.93966 6.16681C4.60169 5.82884 4.05362 5.82884 3.71559 6.16681L1.26752 8.61494C1.26734 8.61511 1.26717 8.61535 1.267 8.61552C0.449973 9.43283 0 10.5194 0 11.6751C0 12.8311 0.450146 13.9179 1.26758 14.7353C2.11132 15.579 3.21952 16.0009 4.32777 16.0009C5.43603 16.0009 6.54428 15.579 7.38791 14.7353C7.38797 14.7353 7.38797 14.7352 7.38797 14.7352L9.83604 12.2871C10.174 11.9491 10.174 11.401 9.83599 11.063C9.49807 10.725 8.95006 10.725 8.61198 11.063Z" fill="currentColor"/>
<path d="M15.9999 4.33058C15.9999 3.17461 15.5497 2.08782 14.7323 1.27039C13.0448 -0.416981 10.2992 -0.416923 8.61193 1.27039C8.61187 1.2705 8.61175 1.27056 8.6117 1.27068L6.16368 3.71864C5.82565 4.05661 5.82565 4.60473 6.16368 4.9427C6.33275 5.11178 6.55422 5.19625 6.77574 5.19625C6.99721 5.19625 7.21879 5.11172 7.38774 4.9427L9.83576 2.49474C9.83582 2.49463 9.83594 2.49457 9.83605 2.49445C10.8484 1.4821 12.4957 1.48204 13.5082 2.49445C13.9986 2.98494 14.2688 3.63704 14.2688 4.33058C14.2688 5.02407 13.9987 5.67606 13.5084 6.16654L13.5082 6.16671L11.0601 8.61485C10.7221 8.95282 10.7221 9.50089 11.0602 9.83891C11.2292 10.0079 11.4507 10.0925 11.6722 10.0925C11.8937 10.0925 12.1152 10.0079 12.2842 9.83891L14.7323 7.39078C14.7325 7.39061 14.7327 7.39038 14.7328 7.3902C15.5499 6.57289 15.9999 5.48627 15.9999 4.33058Z" fill="currentColor"/>
<path d="M4.94004 11.063C5.10906 11.232 5.33058 11.3166 5.55205 11.3166C5.77357 11.3166 5.9951 11.232 6.16411 11.063L11.0604 6.16675C11.3984 5.82878 11.3984 5.28071 11.0604 4.94269C10.7224 4.60472 10.1743 4.60472 9.83631 4.94269L4.94004 9.8389C4.60202 10.177 4.60202 10.7251 4.94004 11.063Z" fill="currentColor"/>
</g>
<defs>
<clipPath id="clip0_1870_94591">
<rect width="16" height="16" fill="white" transform="translate(0 0.00292969)"/>
</clipPath>
</defs>
</svg>
