<svg width="14" height="16" viewBox="0 0 14 16" fill="none" xmlns="http://www.w3.org/2000/svg">
<path d="M12.4416 8.46804L7.40855 13.5092C6.74872 14.0956 5.88979 14.4077 5.00744 14.3818C4.1251 14.3558 3.28601 13.9937 2.66183 13.3695C2.03764 12.7453 1.67553 11.9062 1.64956 11.0239C1.62358 10.1415 1.93571 9.2826 2.5221 8.62278L9.03736 2.10752C9.42634 1.73802 9.94236 1.532 10.4789 1.532C11.0154 1.532 11.5314 1.73802 11.9204 2.10752C12.2994 2.49158 12.5118 3.00945 12.5118 3.54902C12.5118 4.08859 12.2994 4.60645 11.9204 4.99052L6.30095 10.6018C6.24534 10.6617 6.17847 10.71 6.10417 10.7441C6.02987 10.7781 5.94959 10.7972 5.86792 10.8002C5.78624 10.8033 5.70477 10.7902 5.62816 10.7617C5.55154 10.7333 5.48128 10.69 5.42139 10.6344C5.3615 10.5788 5.31315 10.5119 5.2791 10.4376C5.24505 10.3633 5.22596 10.283 5.22294 10.2013C5.21991 10.1197 5.23301 10.0382 5.26147 9.96157C5.28993 9.88496 5.3332 9.8147 5.38881 9.75481L9.56673 5.58504C9.72008 5.43168 9.80624 5.22369 9.80624 5.00681C9.80624 4.78993 9.72008 4.58193 9.56673 4.42858C9.41337 4.27522 9.20538 4.18907 8.9885 4.18907C8.77162 4.18907 8.56362 4.27522 8.41027 4.42858L4.23235 8.61464C4.0233 8.82207 3.85737 9.06883 3.74414 9.3407C3.63091 9.61256 3.57262 9.90415 3.57262 10.1987C3.57262 10.4932 3.63091 10.7848 3.74414 11.0566C3.85737 11.3285 4.0233 11.5752 4.23235 11.7827C4.65941 12.1895 5.22659 12.4164 5.81638 12.4164C6.40617 12.4164 6.97335 12.1895 7.4004 11.7827L13.0117 6.16327C13.659 5.46854 14.0115 4.54966 13.9947 3.60022C13.978 2.65077 13.5933 1.7449 12.9219 1.07344C12.2504 0.401975 11.3445 0.0173533 10.3951 0.000601484C9.44565 -0.0161503 8.52677 0.336276 7.83204 0.983633L1.31677 7.4989C0.43819 8.47198 -0.0310478 9.74654 0.00682632 11.057C0.0447004 12.3675 0.586766 13.6128 1.52008 14.5336C2.4534 15.4543 3.70598 15.9794 5.01686 15.9994C6.32774 16.0195 7.59581 15.533 8.55686 14.6413L13.598 9.60821C13.674 9.53228 13.7342 9.44213 13.7753 9.34292C13.8164 9.24371 13.8376 9.13737 13.8376 9.02998C13.8376 8.9226 13.8164 8.81626 13.7753 8.71705C13.7342 8.61783 13.674 8.52769 13.598 8.45175C13.5221 8.37582 13.432 8.31559 13.3328 8.27449C13.2335 8.23339 13.1272 8.21224 13.0198 8.21224C12.9124 8.21224 12.8061 8.23339 12.7069 8.27449C12.6077 8.31559 12.5175 8.37582 12.4416 8.45175V8.46804Z" fill="currentColor"/>
</svg>
