<svg width="14" height="16" viewBox="0 0 14 16" fill="none" xmlns="http://www.w3.org/2000/svg">
<path d="M7.01996 1.20377C8.85437 1.81129 10.7372 2.52661 12.3472 3.151C12.4591 3.88383 12.6126 5.14073 12.6419 6.66013C12.6679 8.39079 12.5248 9.3455 12.4613 9.67831C12.3285 10.1368 12.0497 10.6349 11.6329 11.1587C11.1385 11.7793 10.4653 12.4246 9.6322 13.0762L9.63063 13.0774C8.44655 14.0068 7.35028 14.6059 7.01996 14.7784C6.68964 14.6062 5.59462 14.0084 4.41116 13.0796L4.40959 13.0784C3.57677 12.4271 2.90394 11.7821 2.41049 11.1618C2.01455 10.664 1.74329 10.1889 1.60329 9.74988C1.59954 9.73519 1.59548 9.7205 1.59079 9.7055C1.52829 9.49394 1.32735 8.64173 1.35766 6.54419C1.39079 5.20791 1.51329 4.01414 1.70454 3.14287C3.30957 2.5213 5.1868 1.80941 7.01996 1.20377ZM7.01996 0C6.92589 0 6.83152 0.0150003 6.73995 0.0453134C4.94273 0.63595 3.09926 1.32878 1.22453 2.05504C0.97234 2.15285 0.760773 2.3338 0.62327 2.5538C0.633896 2.55505 0.23795 3.79101 0.170449 6.52075C0.130448 9.25081 0.470455 10.0686 0.459205 10.0696C0.643271 10.6696 0.987652 11.2799 1.4811 11.9005C2.03267 12.5937 2.778 13.3096 3.67833 14.0134C5.16867 15.1831 6.56339 15.8822 6.62183 15.9069C6.74808 15.9688 6.88214 16 7.02027 16C7.15871 16 7.29309 15.9684 7.41934 15.9062C7.47809 15.8816 8.87437 15.1803 10.3641 14.0109C11.2647 13.3065 12.0101 12.5906 12.5619 11.8977C13.0907 11.233 13.4482 10.5808 13.621 9.9402C13.6141 9.93926 13.8642 8.93674 13.8295 6.6395C13.7854 4.34258 13.4654 2.64849 13.4698 2.64693C13.3366 2.38723 13.1032 2.17004 12.8176 2.0591C10.9425 1.33253 9.09875 0.63845 7.30121 0.0459384C7.20902 0.0156253 7.11434 0 7.01996 0Z" fill="currentColor"/>
<path d="M7.01901 11.0311C6.6765 11.0311 6.35462 10.898 6.11274 10.6558C5.87055 10.4136 5.73711 10.0918 5.73711 9.74956V8.7486C5.21335 8.35641 4.90021 7.74202 4.8999 7.07045C4.8999 5.91261 5.8418 4.97041 6.99963 4.97009C7.56058 4.97009 8.08809 5.18853 8.48466 5.58511C8.88123 5.98168 9.09998 6.50919 9.09998 7.07013C9.09998 7.72108 8.80092 8.32516 8.30059 8.71923V9.74956C8.30059 10.0921 8.16747 10.4139 7.92527 10.6558C7.68308 10.898 7.3612 11.0311 7.01901 11.0315V11.0311ZM6.99994 6.1573C6.49681 6.1573 6.08743 6.56669 6.08743 7.06982C6.08743 7.41858 6.2818 7.73202 6.59493 7.88765C6.79681 7.98796 6.92432 8.19391 6.92432 8.41922V9.74925C6.92432 9.80112 6.96682 9.84363 7.01869 9.84363C7.05088 9.84363 7.07276 9.82863 7.08526 9.81613C7.09776 9.80363 7.11276 9.78175 7.11276 9.74956V8.40047C7.11276 8.18109 7.2337 7.97953 7.42745 7.8764C7.72652 7.71702 7.91246 7.40827 7.91215 7.07013C7.91215 6.82638 7.81715 6.59731 7.64496 6.42481C7.47245 6.25262 7.24339 6.15762 6.99963 6.15762L6.99994 6.1573Z" fill="currentColor"/>
</svg>
