<svg width="16" height="16" viewBox="0 0 16 16" fill="none" xmlns="http://www.w3.org/2000/svg">
<path fill-rule="evenodd" clip-rule="evenodd" d="M6.48741 13.3035H9.20084C11.3758 13.3035 12.0844 12.663 12.1215 10.5767C12.1262 10.5517 12.1286 10.526 12.1286 10.4998C12.1286 10.4766 12.1267 10.4537 12.123 10.4314L12.123 10.3701V6.79919C12.123 4.55399 11.4404 3.8714 9.1952 3.8714H2.9278C0.682588 3.8714 0 4.55399 0 6.79919V10.3757C0 10.4107 0.000165304 10.4452 0.00049923 10.4794C0.000167723 10.4862 0 10.493 0 10.4998C0 10.5101 0.000380496 10.5204 0.00112803 10.5305C0.0327338 12.6524 0.735022 13.3035 2.9278 13.3035H5.64123V15.1539H3.52576C3.29447 15.1539 3.10267 15.3457 3.10267 15.5769C3.10267 15.8082 3.29447 16 3.52576 16H8.60286C8.83415 16 9.02595 15.8082 9.02595 15.5769C9.02595 15.3457 8.83415 15.1539 8.60286 15.1539H6.48741V13.3035ZM9.1952 12.4517C10.7637 12.4517 11.1866 12.2084 11.2629 10.9229H0.860121C0.936415 12.2084 1.35932 12.4517 2.9278 12.4517H9.1952ZM0.846184 10.0767H11.2768V6.79919C11.2768 5.02785 10.9665 4.71758 9.1952 4.71758H2.9278C1.15645 4.71758 0.846184 5.02785 0.846184 6.79919V10.0767Z" fill="#71347B"/>
<path d="M9.33486 6.38325H8.82641V5.8748C8.82641 5.78995 8.75765 5.72119 8.6728 5.72119H8.01074C7.92589 5.72119 7.85713 5.78995 7.85713 5.8748V6.38325H7.34868C7.26382 6.38325 7.19507 6.45201 7.19507 6.53686V7.19892C7.19507 7.28378 7.26382 7.35253 7.34868 7.35253H7.85713V7.86098C7.85713 7.94584 7.92589 8.01459 8.01074 8.01459H8.6728C8.75765 8.01459 8.82641 7.94584 8.82641 7.86098V7.35253H9.33486C9.41971 7.35253 9.48847 7.28378 9.48847 7.19892V6.53686C9.48847 6.45201 9.41971 6.38325 9.33486 6.38325ZM9.18125 7.04531H8.6728C8.58795 7.04531 8.51919 7.11407 8.51919 7.19892V7.70737H8.16435V7.19892C8.16435 7.11407 8.09559 7.04531 8.01074 7.04531H7.50229V6.69047H8.01074C8.09559 6.69047 8.16435 6.62172 8.16435 6.53686V6.02841H8.51919V6.53686C8.51919 6.62172 8.58795 6.69047 8.6728 6.69047H9.18125V7.04531Z" fill="#71347B"/>
<path d="M6.30556 5.36627H6.56573V5.62644C6.56573 5.7113 6.63449 5.78006 6.71934 5.78006C6.8042 5.78006 6.87295 5.7113 6.87295 5.62644V5.36627H7.13313C7.21798 5.36627 7.28674 5.29751 7.28674 5.21266C7.28674 5.1278 7.21798 5.05905 7.13313 5.05905H6.87295V4.79887C6.87295 4.71402 6.8042 4.64526 6.71934 4.64526C6.63449 4.64526 6.56573 4.71402 6.56573 4.79887V5.05905H6.30556C6.2207 5.05905 6.15195 5.1278 6.15195 5.21266C6.15195 5.29751 6.22072 5.36627 6.30556 5.36627Z" fill="#71347B"/>
<path d="M14.0602 4.43067L14.0602 3.65705C14.0602 3.35505 13.8154 3.11028 13.5134 3.11028H12.0339L12.0339 1.6248C12.0339 1.3228 11.7891 1.07803 11.4871 1.07803H10.4364C10.1344 1.07803 9.88965 1.3228 9.88965 1.6248L9.88966 3.11028H8.62586C8.32385 3.11028 8.07909 3.35505 8.07909 3.65706L8.07909 4.43067C8.07909 4.73268 8.32386 4.97744 8.62587 4.97744H9.88967V6.20649C9.88967 6.50849 10.1344 6.75326 10.4364 6.75326H11.4871C11.7892 6.75326 12.0339 6.50849 12.0339 6.20649V4.97744H13.5134C13.8154 4.97744 14.0602 4.73268 14.0602 4.43067Z" fill="#71347B" stroke="white" stroke-width="0.5"/>
<path d="M14.9569 1.47773V0.815671C14.9569 0.730817 14.8881 0.662061 14.8033 0.662061H14.2948V0.15361C14.2948 0.068756 14.2261 0 14.1412 0H13.4792C13.3943 0 13.3255 0.068756 13.3255 0.15361V0.662061H12.8171C12.7322 0.662061 12.6635 0.730817 12.6635 0.815671V1.47773C12.6635 1.56259 12.7322 1.63134 12.8171 1.63134H13.3255V2.13979C13.3255 2.22465 13.3943 2.2934 13.4792 2.2934H14.1412C14.2261 2.2934 14.2948 2.22465 14.2948 2.13979V1.63134H14.8033C14.8881 1.63134 14.9569 1.56259 14.9569 1.47773ZM14.6497 1.32412H14.1412C14.0564 1.32412 13.9876 1.39288 13.9876 1.47773V1.98618H13.6328V1.47773C13.6328 1.39288 13.564 1.32412 13.4792 1.32412H12.9707V0.969282H13.4792C13.564 0.969282 13.6328 0.900526 13.6328 0.815671V0.307221H13.9876V0.815671C13.9876 0.900526 14.0564 0.969282 14.1412 0.969282H14.6497V1.32412Z" fill="#71347B"/>
<path d="M15.8464 2.64822H15.5862V2.38805C15.5862 2.30319 15.5175 2.23444 15.4326 2.23444C15.3477 2.23444 15.279 2.30319 15.279 2.38805V2.64822H15.0188C14.934 2.64822 14.8652 2.71698 14.8652 2.80183C14.8652 2.88669 14.934 2.95544 15.0188 2.95544H15.279V3.21562C15.279 3.30047 15.3477 3.36923 15.4326 3.36923C15.5175 3.36923 15.5862 3.30047 15.5862 3.21562V2.95544H15.8464C15.9312 2.95544 16 2.88669 16 2.80183C16 2.71698 15.9312 2.64822 15.8464 2.64822Z" fill="#71347B"/>
</svg>
