<svg width="24" height="24" viewBox="0 0 24 24" fill="none" xmlns="http://www.w3.org/2000/svg">
<path d="M18.7198 9.48632C18.5588 7.81594 17.7814 6.26541 16.5392 5.13714C15.297 4.00888 13.679 3.38379 12.0009 3.38379C10.3228 3.38379 8.70484 4.00888 7.46263 5.13714C6.22041 6.26541 5.44301 7.81594 5.28204 9.48632C3.91685 9.76252 2.70269 10.5354 1.87459 11.6553C1.04649 12.7753 0.663354 14.1626 0.79935 15.5488C0.935346 16.935 1.5808 18.2215 2.61077 19.1591C3.64073 20.0968 4.98195 20.619 6.37479 20.6246H17.6248C19.0178 20.6195 20.3594 20.0977 21.3898 19.1602C22.4202 18.2228 23.066 16.9363 23.2023 15.5499C23.3386 14.1636 22.9556 12.776 22.1275 11.6558C21.2994 10.5356 20.0852 9.76257 18.7198 9.48632ZM17.6248 19.1246H6.37479C5.31667 19.1122 4.30377 18.6937 3.54555 17.9555C2.78732 17.2174 2.34177 16.2161 2.30103 15.1587C2.26029 14.1013 2.62747 13.0686 3.32664 12.2743C4.02582 11.48 5.00351 10.9848 6.05754 10.8911C6.2477 10.8726 6.42409 10.7837 6.55215 10.6419C6.6802 10.5001 6.75069 10.3156 6.74979 10.1246C6.74609 9.43513 6.87823 8.75171 7.13866 8.11334C7.39908 7.47497 7.78269 6.89414 8.26759 6.40402C9.24688 5.41418 10.5793 4.8539 11.9717 4.84644C13.364 4.83898 14.7024 5.38495 15.6922 6.36424C16.6821 7.34354 17.2423 8.67593 17.2498 10.0683V10.1433C17.2492 10.3327 17.3204 10.5153 17.4489 10.6545C17.5775 10.7936 17.7539 10.8789 17.9428 10.8933C18.9927 10.9922 19.9649 11.4894 20.6595 12.2829C21.3542 13.0763 21.7186 14.1056 21.6779 15.1594C21.6372 16.2132 21.1944 17.2113 20.4406 17.9488C19.6868 18.6862 18.6792 19.107 17.6248 19.1246Z" fill="currentColor"/>
<path d="M14.8443 11.4693L10.8746 15.4391L9.15482 13.7193C9.01337 13.5827 8.82392 13.5071 8.62727 13.5088C8.43062 13.5105 8.24251 13.5894 8.10346 13.7285C7.9644 13.8675 7.88553 14.0556 7.88382 14.2523C7.88211 14.4489 7.9577 14.6384 8.09432 14.7798L10.3443 17.0298C10.485 17.1704 10.6757 17.2494 10.8746 17.2494C11.0734 17.2494 11.2642 17.1704 11.4048 17.0298L15.9048 12.5298C16.0414 12.3884 16.117 12.1989 16.1153 12.0023C16.1136 11.8056 16.0347 11.6175 15.8957 11.4785C15.7566 11.3394 15.5685 11.2605 15.3719 11.2588C15.1752 11.2571 14.9858 11.3327 14.8443 11.4693Z" fill="currentColor"/>
</svg>
