<svg width="14" height="14" viewBox="0 0 12 12" fill="none" xmlns="http://www.w3.org/2000/svg">
<path fill-rule="evenodd" clip-rule="evenodd" d="M6.81392 8.99901H8.82744C10.4414 8.99901 10.9672 8.52367 10.9947 6.97549C10.9982 6.95698 11 6.93792 11 6.91848C11 6.90123 10.9986 6.88427 10.9958 6.86772L10.9958 6.82227V4.1725C10.9958 2.50645 10.4893 1.99994 8.82326 1.99994H4.17256C2.50651 1.99994 2 2.50645 2 4.1725V6.82645C2 6.85236 2.00012 6.87799 2.00037 6.90335C2.00012 6.90836 2 6.91341 2 6.91848C2 6.92612 2.00028 6.9337 2.00084 6.94122C2.02427 8.51586 2.5454 8.99901 4.17256 8.99901H6.18601V10.372H4.61625C4.44462 10.372 4.30229 10.5143 4.30229 10.6859C4.30229 10.8575 4.44462 10.9999 4.61625 10.9999H6.49205C6.49468 10.9999 6.49732 11 6.49996 11C6.50261 11 6.50525 10.9999 6.50788 10.9999H8.38369C8.55532 10.9999 8.69764 10.8575 8.69764 10.6859C8.69764 10.5143 8.55532 10.372 8.38369 10.372H6.81392V8.99901ZM8.82326 8.36692C9.98716 8.36692 10.301 8.18639 10.3576 7.23244H2.63825C2.69485 8.18639 3.00865 8.36692 4.17256 8.36692H8.82326ZM2.62791 6.60453H10.3679V4.1725C10.3679 2.85808 10.1377 2.62785 8.82326 2.62785H4.17256C2.85814 2.62785 2.62791 2.85808 2.62791 4.1725V6.60453Z" fill="currentColor"/>
</svg>
