<svg width="16" height="14" viewBox="0 0 16 14" fill="none" xmlns="http://www.w3.org/2000/svg">
<path d="M15.5308 13.9958C15.3039 13.9958 15.1068 13.8317 15.0689 13.6041C14.7306 11.629 12.8181 8.18188 7.96666 7.98044V10.5146C7.96666 10.6902 7.86853 10.8511 7.71241 10.9314C7.55625 11.0117 7.36831 10.9981 7.22544 10.896L0.196281 5.87519C0.0730938 5.78719 0 5.6451 0 5.49372C0 5.34232 0.0730938 5.20026 0.196281 5.11229L7.22547 0.0914741C7.36831 -0.0105884 7.55628 -0.0242446 7.71241 0.0560991C7.86853 0.136443 7.96666 0.297318 7.96666 0.472912V3.04526C10.9655 3.34438 16 5.50901 16 13.5271C16 13.771 15.813 13.9741 15.5699 13.9942C15.5568 13.9953 15.5438 13.9958 15.5308 13.9958Z" fill="currentColor"/>
</svg>
