<svg width="18" height="18" viewBox="0 0 18 18" fill="none" xmlns="http://www.w3.org/2000/svg">
<rect x="0.5" y="0.5" width="17" height="17" rx="4.5" stroke="#71347B"/>
<path d="M10 15.2402H3V14.2402H10V15.2402ZM10 13.2402H3V12.2402H10V13.2402ZM14.7998 11.04H4.56055V9.75977H14.7998V11.04ZM12.2402 8.48047H4.56055V7.2002H12.2402V8.48047ZM14.4082 8.48047H12.5605V7.2002H14.4082V8.48047ZM10 6H3V5H10V6ZM10 4H3V3H10V4Z" fill="#71347B"/>
<path fill-rule="evenodd" clip-rule="evenodd" d="M13.2786 2.22236C13.249 2.0923 13.1334 2 13 2C12.8666 2 12.751 2.0923 12.7214 2.22236L12.5633 2.91756C12.4902 3.23911 12.2391 3.4902 11.9176 3.56331L11.2224 3.7214C11.0923 3.75097 11 3.86661 11 4C11 4.13339 11.0923 4.24903 11.2224 4.2786L11.9176 4.43669C12.2391 4.5098 12.4902 4.76089 12.5633 5.08244L12.7214 5.77764C12.751 5.9077 12.8666 6 13 6C13.1334 6 13.249 5.9077 13.2786 5.77764L13.4367 5.08244C13.5098 4.76089 13.7609 4.5098 14.0824 4.43669L14.7776 4.2786C14.9077 4.24903 15 4.13339 15 4C15 3.86661 14.9077 3.75097 14.7776 3.7214L14.0824 3.56331C13.7609 3.4902 13.5098 3.23911 13.4367 2.91756L13.2786 2.22236ZM12.3769 4C12.6449 3.86324 12.8632 3.64489 13 3.37691C13.1368 3.64489 13.3551 3.86324 13.6231 4C13.3551 4.13676 13.1368 4.35511 13 4.62309C12.8632 4.35511 12.6449 4.13676 12.3769 4Z" fill="#71347B"/>
</svg>
