<svg width="15" height="16" viewBox="0 0 15 16" fill="none" xmlns="http://www.w3.org/2000/svg">
<path d="M14.9 4.70781L10.2663 0.0734375C10.2194 0.0265625 10.1559 0 10.0897 0H4.84094C3.61938 0 2.62562 0.994063 2.62562 2.21563V6.60031H0.68125C0.305625 6.60031 0 6.90594 0 7.28156V11.1978C0 11.5734 0.305625 11.8791 0.68125 11.8791H2.62562V13.7844C2.62562 15.0059 3.61938 16 4.84094 16H12.7578C13.9794 16 14.9731 15.0059 14.9731 13.7844V4.88469C14.9731 4.81844 14.9469 4.75469 14.9 4.70781ZM14.4734 13.7844C14.4734 14.7306 13.7037 15.5003 12.7578 15.5003H4.84094C3.895 15.5003 3.12531 14.7306 3.12531 13.7844V11.8791H11.3562C11.7319 11.8791 12.0375 11.5734 12.0375 11.1978V7.28156C12.0375 6.90594 11.7319 6.60031 11.3562 6.60031H3.12531V2.21563C3.12531 1.26938 3.895 0.499687 4.84094 0.499687H9.83969V4.38406C9.83969 4.79781 10.1759 5.13438 10.5891 5.13438H14.4734V13.7844Z" fill="currentColor"/>
<path d="M4.61523 7.85056C4.80456 7.85056 4.96752 7.88102 5.10352 7.94235C5.24203 8.00362 5.34571 8.08905 5.41504 8.19821C5.48701 8.30751 5.52341 8.43167 5.52344 8.57028C5.52344 8.73294 5.47959 8.86915 5.3916 8.97849C5.3063 9.08777 5.19177 9.16557 5.04785 9.21091C5.20496 9.2403 5.33431 9.31842 5.43555 9.44626C5.53688 9.57426 5.58789 9.72135 5.58789 9.88669C5.58785 10.0358 5.55012 10.1676 5.47559 10.2822C5.40359 10.3942 5.29785 10.4828 5.15918 10.5468C5.02072 10.6107 4.85691 10.6425 4.66797 10.6425H3.46387V7.85056H4.61523ZM6.59375 10.6425H6.03418V7.85056H6.59375V10.6425ZM8.97461 9.76657V7.84665H9.53516V10.6425H8.97461L7.70703 8.72653V10.6425H7.14746V7.84665H7.70703L8.97461 9.76657ZM4.02344 10.1865H4.58789C4.72353 10.1864 4.82874 10.1546 4.90332 10.0908C4.98065 10.0268 5.01953 9.93566 5.01953 9.81833C5.01951 9.69838 4.97939 9.6047 4.89941 9.53806C4.81944 9.46886 4.71106 9.43454 4.5752 9.43454H4.02344V10.1865ZM4.02344 9.0029H4.53516C4.66849 9.0029 4.77175 8.9727 4.84375 8.91403C4.91552 8.85272 4.95117 8.76609 4.95117 8.65427C4.95114 8.54244 4.91559 8.4558 4.84375 8.3945C4.77175 8.33317 4.66849 8.3027 4.53516 8.3027H4.02344V9.0029Z" fill="white"/>
</svg>
