<svg width="14" height="16" viewBox="0 0 14 16" fill="none" xmlns="http://www.w3.org/2000/svg">
<path d="M0.818604 16V0H6.31318C8.29833 0 9.84792 0.368169 10.9615 1.10442C12.0749 1.84058 12.6318 2.93777 12.6318 4.39562C12.6318 5.15763 12.4524 5.83496 12.0934 6.42867C11.7344 7.0222 11.1813 7.46905 10.434 7.7693C11.3717 7.9817 12.0639 8.40843 12.5109 9.04951C12.9576 9.69059 13.1813 10.4288 13.1813 11.2638C13.1813 12.8243 12.6574 14.0038 11.61 14.8022C10.5622 15.6009 9.06051 16 7.10429 16H0.818604ZM4.54395 6.67035H6.39009C7.23254 6.65571 7.86268 6.4927 8.28033 6.18125C8.6979 5.86997 8.90677 5.41395 8.90677 4.81319C8.90677 4.1318 8.69419 3.63565 8.26948 3.32419C7.84433 3.01292 7.19241 2.85715 6.31326 2.85715H4.54395V6.67035ZM4.54395 9.13198V13.1429H7.10429C7.89558 13.1429 8.48902 12.9872 8.88463 12.6757C9.28014 12.3644 9.47816 11.8865 9.47816 11.2419C9.47816 10.5458 9.30775 10.0202 8.96701 9.66483C8.62645 9.30963 8.07517 9.13198 7.31334 9.13198H4.54395Z" fill="currentColor"/>
</svg>
