<svg width="16" height="17" viewBox="0 0 16 17" fill="none" xmlns="http://www.w3.org/2000/svg">
<g clip-path="url(#clip0_384_20266)">
<path d="M6.5 6H4V14.25H6.5V6Z" fill="#916657"/>
<path d="M4.5 6H6.5V14.25H4.5V6Z" fill="#A37763"/>
<path d="M4 12.6685V3.25C4 3.05109 3.92098 2.86032 3.78033 2.71967C3.63968 2.57902 3.44891 2.5 3.25 2.5H1.25C1.05109 2.5 0.860322 2.57902 0.71967 2.71967C0.579018 2.86032 0.5 3.05109 0.5 3.25V15.25C0.5 15.4489 0.579018 15.6397 0.71967 15.7803C0.860322 15.921 1.05109 16 1.25 16H3.25C3.35907 16.0001 3.46684 15.9764 3.56578 15.9305C3.66471 15.8846 3.75242 15.8176 3.82275 15.7343L4 12.6685Z" fill="#0056C0"/>
<path d="M3.75 15.5C3.77909 15.4985 3.80806 15.4953 3.83675 15.4902L4 12.6685V3.25C4 3.05109 3.92098 2.86032 3.78033 2.71967C3.63968 2.57902 3.44891 2.5 3.25 2.5H1.25C1.17701 2.50108 1.10457 2.51287 1.035 2.535C1.01287 2.60457 1.00108 2.67701 1 2.75V14.75C1 14.9489 1.07902 15.1397 1.21967 15.2803C1.36032 15.421 1.55109 15.5 1.75 15.5H3.75Z" fill="#0068DD"/>
<path d="M0.5 13H4V14.5H0.5V13Z" fill="#E5E5E5"/>
<path d="M1 13H4V14.5H1V13Z" fill="#F1F1F1"/>
<path d="M0.5 4H4V5.5H0.5V4Z" fill="#E5E5E5"/>
<path d="M2.25 10C2.66421 10 3 9.66421 3 9.25C3 8.83579 2.66421 8.5 2.25 8.5C1.83579 8.5 1.5 8.83579 1.5 9.25C1.5 9.66421 1.83579 10 2.25 10Z" fill="#F1F1F1"/>
<path d="M10.5 12.5V1.75C10.5 1.55109 10.421 1.36032 10.2803 1.21967C10.1397 1.07902 9.94891 1 9.75 1H7.25C7.05109 1 6.86032 1.07902 6.71967 1.21967C6.57902 1.36032 6.5 1.55109 6.5 1.75V12.5H10.5Z" fill="#E9353F"/>
<path d="M9.75 1H8C7.80109 1 7.61032 1.07902 7.46967 1.21967C7.32902 1.36032 7.25 1.55109 7.25 1.75V12.5H10.5V1.75C10.5 1.55109 10.421 1.36032 10.2803 1.21967C10.1397 1.07902 9.94891 1 9.75 1Z" fill="#FF4B50"/>
<path d="M9.5 12.5V4.5H7.5V12.5" fill="#F1F1F1"/>
<path d="M8.5 3.5C8.91421 3.5 9.25 3.16421 9.25 2.75C9.25 2.33579 8.91421 2 8.5 2C8.08579 2 7.75 2.33579 7.75 2.75C7.75 3.16421 8.08579 3.5 8.5 3.5Z" fill="#F1F1F1"/>
<path d="M13.5 12.5V4.25C13.5 4.05109 13.421 3.86032 13.2803 3.71967C13.1397 3.57902 12.9489 3.5 12.75 3.5H11.25C11.0511 3.5 10.8603 3.57902 10.7197 3.71967C10.579 3.86032 10.5 4.05109 10.5 4.25V12.5H13.5Z" fill="#EEBD24"/>
<path d="M12.75 3.5H12C11.8011 3.5 11.6103 3.57902 11.4697 3.71967C11.329 3.86032 11.25 4.05109 11.25 4.25V12.5H13.5V4.25C13.5 4.05109 13.421 3.86032 13.2803 3.71967C13.1397 3.57902 12.9489 3.5 12.75 3.5Z" fill="#FBCF2F"/>
<path d="M10.5 5H13.5V6H10.5V5Z" fill="#62C1EA"/>
<path d="M12 8.25C12.2761 8.25 12.5 8.02614 12.5 7.75C12.5 7.47386 12.2761 7.25 12 7.25C11.7239 7.25 11.5 7.47386 11.5 7.75C11.5 8.02614 11.7239 8.25 12 8.25Z" fill="#86DDFA"/>
<path d="M4 13.5H15.25V15H4V13.5Z" fill="#D6DFEF"/>
<path d="M4 13.5H5.5V15H4V13.5Z" fill="#A3B8DB"/>
<path d="M4 7.5H6.5V8.5H4V7.5Z" fill="#5B5B5B"/>
<path d="M1 4H4V5.5H1V4Z" fill="#F1F1F1"/>
<path d="M11.25 5H13.5V6H11.25V5Z" fill="#86DDFA"/>
<path d="M4.5 7.5H6.5V8.5H4.5V7.5Z" fill="#686868"/>
<path d="M15.5 16V15H4.75C4.55109 15 4.36032 14.921 4.21967 14.7803C4.07902 14.6397 4 14.4489 4 14.25C4 14.0511 4.07902 13.8603 4.21967 13.7197C4.36032 13.579 4.55109 13.5 4.75 13.5H15.5V12.5H4.75C4.28587 12.5 3.84075 12.6844 3.51256 13.0126C3.18437 13.3408 3 13.7859 3 14.25C3 14.7141 3.18437 15.1592 3.51256 15.4874C3.84075 15.8156 4.28587 16 4.75 16H15.5Z" fill="#8BC000"/>
<path d="M4.00028 14.25C4.00028 14.0511 4.0793 13.8603 4.21995 13.7197C4.3606 13.579 4.55137 13.5 4.75028 13.5H15.5003V12.5H4.75028C4.4084 12.4997 4.074 12.6 3.78878 12.7885C3.6153 13.0523 3.51643 13.3582 3.50264 13.6736C3.48886 13.9891 3.56069 14.3024 3.7105 14.5803C3.86031 14.8583 4.08254 15.0905 4.35362 15.2524C4.62469 15.4143 4.93453 15.4999 5.25028 15.5H15.5003V15H4.75028C4.55137 15 4.3606 14.921 4.21995 14.7803C4.0793 14.6397 4.00028 14.4489 4.00028 14.25Z" fill="#A4D400"/>
<path d="M2.25 8.25C2.05222 8.25 1.85888 8.30865 1.69443 8.41853C1.52998 8.52841 1.40181 8.68459 1.32612 8.86732C1.25043 9.05004 1.23063 9.25111 1.26922 9.44509C1.3078 9.63907 1.40304 9.81725 1.54289 9.95711C1.68275 10.097 1.86093 10.1922 2.05491 10.2308C2.24889 10.2694 2.44996 10.2496 2.63268 10.1739C2.81541 10.0982 2.97159 9.97002 3.08147 9.80557C3.19135 9.64112 3.25 9.44778 3.25 9.25C3.25 8.98478 3.14464 8.73043 2.95711 8.54289C2.76957 8.35536 2.51522 8.25 2.25 8.25ZM2.25 9.75C2.15111 9.75 2.05444 9.72068 1.97222 9.66574C1.88999 9.61079 1.8259 9.5327 1.78806 9.44134C1.75022 9.34998 1.74032 9.24944 1.75961 9.15245C1.7789 9.05546 1.82652 8.96637 1.89645 8.89645C1.96637 8.82652 2.05546 8.7789 2.15246 8.75961C2.24945 8.74031 2.34998 8.75022 2.44134 8.78806C2.53271 8.8259 2.61079 8.88999 2.66574 8.97221C2.72068 9.05444 2.75 9.15111 2.75 9.25C2.75 9.38261 2.69732 9.50979 2.60355 9.60355C2.50979 9.69732 2.38261 9.75 2.25 9.75Z" fill="black"/>
<path d="M8.5 3.75C8.69778 3.75 8.89112 3.69135 9.05557 3.58147C9.22002 3.47159 9.34819 3.31541 9.42388 3.13268C9.49957 2.94996 9.51937 2.74889 9.48079 2.55491C9.4422 2.36093 9.34696 2.18275 9.20711 2.04289C9.06725 1.90304 8.88907 1.8078 8.69509 1.76922C8.50111 1.73063 8.30004 1.75043 8.11732 1.82612C7.93459 1.90181 7.77841 2.02998 7.66853 2.19443C7.55865 2.35888 7.5 2.55222 7.5 2.75C7.5 3.01522 7.60536 3.26957 7.79289 3.45711C7.98043 3.64464 8.23478 3.75 8.5 3.75ZM8.5 2.25C8.59889 2.25 8.69556 2.27932 8.77779 2.33427C8.86001 2.38921 8.9241 2.4673 8.96194 2.55866C8.99978 2.65002 9.00969 2.75056 8.99039 2.84755C8.9711 2.94454 8.92348 3.03363 8.85355 3.10355C8.78363 3.17348 8.69454 3.2211 8.59755 3.24039C8.50056 3.25969 8.40002 3.24978 8.30866 3.21194C8.2173 3.1741 8.13921 3.11001 8.08426 3.02779C8.02932 2.94556 8 2.84889 8 2.75C8 2.61739 8.05268 2.49022 8.14645 2.39645C8.24021 2.30268 8.36739 2.25 8.5 2.25Z" fill="black"/>
<path d="M12 7C11.8517 7 11.7067 7.04399 11.5833 7.1264C11.46 7.20881 11.3639 7.32594 11.3071 7.46299C11.2503 7.60003 11.2355 7.75083 11.2644 7.89632C11.2934 8.0418 11.3648 8.17544 11.4697 8.28033C11.5746 8.38522 11.7082 8.45665 11.8537 8.48559C11.9992 8.51453 12.15 8.49968 12.287 8.44291C12.4241 8.38614 12.5412 8.29001 12.6236 8.16668C12.706 8.04334 12.75 7.89834 12.75 7.75C12.75 7.55109 12.671 7.36032 12.5303 7.21967C12.3897 7.07902 12.1989 7 12 7ZM12 8C11.9506 8 11.9022 7.98534 11.8611 7.95787C11.82 7.9304 11.788 7.89135 11.769 7.84567C11.7501 7.79999 11.7452 7.74972 11.7548 7.70123C11.7645 7.65273 11.7883 7.60819 11.8232 7.57322C11.8582 7.53826 11.9027 7.51445 11.9512 7.5048C11.9997 7.49516 12.05 7.50011 12.0957 7.51903C12.1414 7.53795 12.1804 7.57 12.2079 7.61111C12.2353 7.65222 12.25 7.70055 12.25 7.75C12.25 7.8163 12.2237 7.87989 12.1768 7.92678C12.1299 7.97366 12.0663 8 12 8Z" fill="black"/>
<path d="M15.5 12.25H13.75V4.25C13.75 3.98478 13.6446 3.73043 13.4571 3.54289C13.2696 3.35536 13.0152 3.25 12.75 3.25H11.25C11.0739 3.25104 10.9013 3.29902 10.75 3.389V1.75C10.75 1.48478 10.6446 1.23043 10.4571 1.04289C10.2696 0.855357 10.0152 0.75 9.75 0.75H7.25C6.98478 0.75 6.73043 0.855357 6.54289 1.04289C6.35536 1.23043 6.25 1.48478 6.25 1.75V5.75H4.25V3.25C4.25 2.98478 4.14464 2.73043 3.95711 2.54289C3.76957 2.35536 3.51522 2.25 3.25 2.25H1.25C0.984784 2.25 0.73043 2.35536 0.542893 2.54289C0.355357 2.73043 0.25 2.98478 0.25 3.25V15.25C0.25 15.5152 0.355357 15.7696 0.542893 15.9571C0.73043 16.1446 0.984784 16.25 1.25 16.25H3.25C3.47181 16.2499 3.68726 16.1758 3.86225 16.0395C4.1378 16.1777 4.44175 16.2498 4.75 16.25H15.5C15.5663 16.25 15.6299 16.2237 15.6768 16.1768C15.7237 16.1299 15.75 16.0663 15.75 16V15C15.75 14.9337 15.7237 14.8701 15.6768 14.8232C15.6299 14.7763 15.5663 14.75 15.5 14.75V13.75C15.5663 13.75 15.6299 13.7237 15.6768 13.6768C15.7237 13.6299 15.75 13.5663 15.75 13.5V12.5C15.75 12.4337 15.7237 12.3701 15.6768 12.3232C15.6299 12.2763 15.5663 12.25 15.5 12.25ZM10.75 12.25V6.25H13.25V12.25H10.75ZM13.25 5.75H10.75V5.25H13.25V5.75ZM11.25 3.75H12.75C12.8826 3.75 13.0098 3.80268 13.1036 3.89645C13.1973 3.99021 13.25 4.11739 13.25 4.25V4.75H10.75V4.25C10.75 4.11739 10.8027 3.99021 10.8964 3.89645C10.9902 3.80268 11.1174 3.75 11.25 3.75ZM7.25 1.25H9.75C9.88261 1.25 10.0098 1.30268 10.1036 1.39645C10.1973 1.49021 10.25 1.61739 10.25 1.75V12.25H9.75V4.5C9.75 4.4337 9.72366 4.37011 9.67678 4.32322C9.62989 4.27634 9.5663 4.25 9.5 4.25H7.5C7.4337 4.25 7.37011 4.27634 7.32322 4.32322C7.27634 4.37011 7.25 4.4337 7.25 4.5V12.25H6.75V1.75C6.75 1.61739 6.80268 1.49021 6.89645 1.39645C6.99021 1.30268 7.11739 1.25 7.25 1.25ZM9.25 12.25H7.75V4.75H9.25V12.25ZM2.75 14.25H0.75V13.25H3.0205C2.84341 13.5535 2.75006 13.8986 2.75 14.25ZM3.4315 12.75H0.75V5.75H3.75V12.5205C3.63663 12.5865 3.52996 12.6633 3.4315 12.75ZM3.75 5.25H0.75V4.25H3.75V5.25ZM6.25 8.25H4.25V7.75H6.25V8.25ZM4.25 8.75H6.25V12.25H4.75C4.58122 12.2506 4.4132 12.2727 4.25 12.3158V8.75ZM6.25 6.25V7.25H4.25V6.25H6.25ZM1.25 2.75H3.25C3.38261 2.75 3.50979 2.80268 3.60355 2.89645C3.69732 2.99021 3.75 3.11739 3.75 3.25V3.75H0.75V3.25C0.75 3.11739 0.802678 2.99021 0.896447 2.89645C0.990215 2.80268 1.11739 2.75 1.25 2.75ZM3.25 15.75H1.25C1.11739 15.75 0.990215 15.6973 0.896447 15.6036C0.802678 15.5098 0.75 15.3826 0.75 15.25V14.75H2.81575C2.91304 15.1243 3.11676 15.4624 3.40225 15.7233C3.35321 15.7401 3.30184 15.7491 3.25 15.75ZM15.25 15.75H4.75C4.35218 15.75 3.97064 15.592 3.68934 15.3107C3.40804 15.0294 3.25 14.6478 3.25 14.25C3.25 13.8522 3.40804 13.4706 3.68934 13.1893C3.97064 12.908 4.35218 12.75 4.75 12.75H15.25V13.25H4.75C4.48478 13.25 4.23043 13.3554 4.04289 13.5429C3.85536 13.7304 3.75 13.9848 3.75 14.25C3.75 14.5152 3.85536 14.7696 4.04289 14.9571C4.23043 15.1446 4.48478 15.25 4.75 15.25H15.25V15.75ZM4.75 14.75C4.61739 14.75 4.49021 14.6973 4.39645 14.6036C4.30268 14.5098 4.25 14.3826 4.25 14.25C4.25 14.1174 4.30268 13.9902 4.39645 13.8964C4.49021 13.8027 4.61739 13.75 4.75 13.75H5.25V14.75H4.75ZM15 14.75H5.75V13.75H15V14.75Z" fill="black"/>
</g>
<defs>
<clipPath id="clip0_384_20266">
<rect width="16" height="16" fill="white" transform="translate(0 0.5)"/>
</clipPath>
</defs>
</svg>
