<svg width="16" height="16" viewBox="0 0 16 16" fill="none" xmlns="http://www.w3.org/2000/svg">
<path fill-rule="evenodd" clip-rule="evenodd" d="M15.5294 0.470588V0.941176H16V0H15.0588V0.470588H15.5294ZM15.0588 7.76471V8.23529H14.5882V7.76471H15.0588ZM14.1176 8.23529V7.76471H13.6471V8.23529H14.1176ZM12.9412 7.76471V8.23529H12.4706V7.76471H12.9412ZM11.7647 8.23529V7.76471H11.2941V8.23529H11.7647ZM7.05882 7.76471V8.23529H6.58823V7.76471H7.05882ZM5.88235 8.23529V7.76471H5.41176V8.23529H5.88235ZM4.70588 7.76471V8.23529H4.23529V7.76471H4.70588ZM2.35294 7.76471V8.23529H1.88235V7.76471H2.35294ZM1.41177 8.23529V7.76471H0.941176V8.23529H1.41177ZM3.52941 7.76471V8.23529H3.05882V7.76471H3.52941ZM9.41176 7.76471V8.23529H8.94118V7.76471H9.41176ZM10.5882 8.23529V7.76471H10.1176V8.23529H10.5882ZM8.23529 8.23529V7.76471H7.76471V8.23529H8.23529ZM8.23529 4.23529V4.70588H7.76471V4.23529H8.23529ZM8.23529 2.35294V1.88235H7.76471V2.35294H8.23529ZM8.23529 0.941176V1.41176H7.76471V0.941176H8.23529ZM8.23529 3.52941V3.05882H7.76471V3.52941H8.23529ZM8.23529 5.41176V5.88235H7.76471V5.41176H8.23529ZM8.23529 7.05882V6.58824H7.76471V7.05882H8.23529ZM8.23529 11.2941V11.7647H7.76471V11.2941H8.23529ZM8.23529 9.41177V8.94118H7.76471V9.41177H8.23529ZM8.23529 10.1176V10.5882H7.76471V10.1176H8.23529ZM8.23529 12.9412V12.4706H7.76471V12.9412H8.23529ZM8.23529 13.6471V14.1176H7.76471V13.6471H8.23529ZM8.23529 15.0588V14.5882H7.76471V15.0588H8.23529ZM16 11.7647V11.2941H15.5294V11.7647H16ZM16 13.6471V14.1176H15.5294V13.6471H16ZM16 12.9412V12.4706H15.5294V12.9412H16ZM16 10.1176V10.5882H15.5294V10.1176H16ZM16 9.41177V8.94118H15.5294V9.41177H16ZM16 4.23529V4.70588H15.5294V4.23529H16ZM16 7.05882V6.58824H15.5294V7.05882H16ZM16 5.41176V5.88235H15.5294V5.41176H16ZM16 3.52941V3.05882H15.5294V3.52941H16ZM16 1.88235V2.35294H15.5294V1.88235H16ZM16 8.23529V7.76471H15.5294V8.23529H16ZM4.70588 15.5294V16H4.23529V15.5294H4.70588ZM2.35294 16V15.5294H1.88235V16H2.35294ZM3.52941 15.5294V16H3.05882V15.5294H3.52941ZM5.88235 16V15.5294H5.41176V16H5.88235ZM7.05882 15.5294V16H6.58823V15.5294H7.05882ZM11.7647 16V15.5294H11.2941V16H11.7647ZM9.41176 15.5294V16H8.94118V15.5294H9.41176ZM10.5882 16V15.5294H10.1176V16H10.5882ZM12.9412 15.5294V16H12.4706V15.5294H12.9412ZM14.1176 16V15.5294H13.6471V16H14.1176ZM8.23529 15.5294V16H7.76471V15.5294H8.23529ZM4.70588 0.470588V0H4.23529V0.470588H4.70588ZM2.35294 0V0.470588H1.88235V0H2.35294ZM3.52941 0.470588V0H3.05882V0.470588H3.52941ZM5.88235 0V0.470588H5.41176V0H5.88235ZM7.05882 0.470588V0H6.58823V0.470588H7.05882ZM11.7647 0V0.470588H11.2941V0H11.7647ZM9.41176 0.470588V0H8.94118V0.470588H9.41176ZM10.5882 0V0.470588H10.1176V0H10.5882ZM12.9412 0.470588V0H12.4706V0.470588H12.9412ZM14.1176 0V0.470588H13.6471V0H14.1176ZM8.23529 0.470588V0H7.76471V0.470588H8.23529ZM16 15.0588H15.5294V15.5294H15.0588V16H16V15.0588ZM0.470588 0.470588V15.5294H0.941176V16H0V0H0.941176V0.470588H0.470588Z" fill="currentColor"/>
</svg>
