<svg width="16" height="16" viewBox="0 0 16 16" fill="none" xmlns="http://www.w3.org/2000/svg">
<path fill-rule="evenodd" clip-rule="evenodd" d="M0.470588 0.470588H0.941176V0H0V0.941176H0.470588V0.470588ZM7.76471 0.941176H8.23529V1.41176H7.76471V0.941176ZM8.23529 1.88235H7.76471V2.35294H8.23529V1.88235ZM7.76471 3.05882H8.23529V3.52941H7.76471V3.05882ZM8.23529 4.23529H7.76471V4.70588H8.23529V4.23529ZM7.76471 8.94118H8.23529V9.41177H7.76471V8.94118ZM8.23529 10.1176H7.76471V10.5882H8.23529V10.1176ZM7.76471 11.2941H8.23529V11.7647H7.76471V11.2941ZM7.76471 13.6471H8.23529V14.1176H7.76471V13.6471ZM8.23529 14.5882H7.76471V15.0588H8.23529V14.5882ZM7.76471 12.4706H8.23529V12.9412H7.76471V12.4706ZM7.76471 6.58824H8.23529V7.05882H7.76471V6.58824ZM8.23529 5.41176H7.76471V5.88235H8.23529V5.41176ZM8.23529 7.76471H7.76471V8.23529H8.23529V7.76471ZM4.23529 7.76471H4.70588V8.23529H4.23529V7.76471ZM2.35294 7.76471H1.88235V8.23529H2.35294V7.76471ZM0.941176 7.76471H1.41176V8.23529H0.941176V7.76471ZM3.52941 7.76471H3.05882V8.23529H3.52941V7.76471ZM5.41176 7.76471H5.88235V8.23529H5.41176V7.76471ZM7.05882 7.76471H6.58824V8.23529H7.05882V7.76471ZM11.2941 7.76471H11.7647V8.23529H11.2941V7.76471ZM9.41177 7.76471H8.94118V8.23529H9.41177V7.76471ZM10.1176 7.76471H10.5882V8.23529H10.1176V7.76471ZM12.9412 7.76471H12.4706V8.23529H12.9412V7.76471ZM13.6471 7.76471H14.1176V8.23529H13.6471V7.76471ZM15.0588 7.76471H14.5882V8.23529H15.0588V7.76471ZM11.7647 0H11.2941V0.470588H11.7647V0ZM13.6471 0H14.1176V0.470588H13.6471V0ZM12.9412 0H12.4706V0.470588H12.9412V0ZM10.1176 0H10.5882V0.470588H10.1176V0ZM9.41177 0H8.94118V0.470588H9.41177V0ZM4.23529 0H4.70588V0.470588H4.23529V0ZM7.05882 0H6.58824V0.470588H7.05882V0ZM5.41176 0H5.88235V0.470588H5.41176V0ZM3.52941 0H3.05882V0.470588H3.52941V0ZM1.88235 0H2.35294V0.470588H1.88235V0ZM8.23529 0H7.76471V0.470588H8.23529V0ZM15.5294 11.2941H16V11.7647H15.5294V11.2941ZM16 13.6471H15.5294V14.1176H16V13.6471ZM15.5294 12.4706H16V12.9412H15.5294V12.4706ZM16 10.1176H15.5294V10.5882H16V10.1176ZM15.5294 8.94118H16V9.41177H15.5294V8.94118ZM16 4.23529H15.5294V4.70588H16V4.23529ZM15.5294 6.58824H16V7.05882H15.5294V6.58824ZM16 5.41176H15.5294V5.88235H16V5.41176ZM15.5294 3.05882H16V3.52941H15.5294V3.05882ZM16 1.88235H15.5294V2.35294H16V1.88235ZM15.5294 7.76471H16V8.23529H15.5294V7.76471ZM0.470588 11.2941H0V11.7647H0.470588V11.2941ZM0 13.6471H0.470588V14.1176H0V13.6471ZM0.470588 12.4706H0V12.9412H0.470588V12.4706ZM0 10.1176H0.470588V10.5882H0V10.1176ZM0.470588 8.94118H0V9.41177H0.470588V8.94118ZM0 4.23529H0.470588V4.70588H0V4.23529ZM0.470588 6.58824H0V7.05882H0.470588V6.58824ZM0 5.41176H0.470588V5.88235H0V5.41176ZM0.470588 3.05882H0V3.52941H0.470588V3.05882ZM0 1.88235H0.470588V2.35294H0V1.88235ZM0.470588 7.76471H0V8.23529H0.470588V7.76471ZM15.0588 0V0.470588H15.5294V0.941176H16V0H15.0588ZM0.470588 15.5294H15.5294V15.0588H16V16H0V15.0588H0.470588V15.5294Z" fill="currentColor"/>
</svg>
