<svg width="16" height="16" viewBox="0 0 16 16" fill="none" xmlns="http://www.w3.org/2000/svg">
<path fill-rule="evenodd" clip-rule="evenodd" d="M15.5294 15.5294H15.0588V16H16V15.0588H15.5294V15.5294ZM8.23529 15.0588H7.76471V14.5882H8.23529V15.0588ZM7.76471 14.1176H8.23529V13.6471H7.76471V14.1176ZM8.23529 12.9412H7.76471V12.4706H8.23529V12.9412ZM7.76471 11.7647H8.23529V11.2941H7.76471V11.7647ZM8.23529 7.05882H7.76471V6.58823H8.23529V7.05882ZM7.76471 5.88235H8.23529V5.41176H7.76471V5.88235ZM8.23529 4.70588H7.76471V4.23529H8.23529V4.70588ZM8.23529 2.35294H7.76471V1.88235H8.23529V2.35294ZM7.76471 1.41177H8.23529V0.941176H7.76471V1.41177ZM8.23529 3.52941H7.76471V3.05882H8.23529V3.52941ZM8.23529 9.41176H7.76471V8.94118H8.23529V9.41176ZM7.76471 10.5882H8.23529V10.1176H7.76471V10.5882ZM7.76471 8.23529H8.23529V7.76471H7.76471V8.23529ZM11.7647 8.23529H11.2941V7.76471H11.7647V8.23529ZM13.6471 8.23529H14.1176V7.76471H13.6471V8.23529ZM15.0588 8.23529H14.5882V7.76471H15.0588V8.23529ZM12.4706 8.23529H12.9412V7.76471H12.4706V8.23529ZM10.5882 8.23529H10.1176V7.76471H10.5882V8.23529ZM8.94118 8.23529H9.41176V7.76471H8.94118V8.23529ZM4.70588 8.23529H4.23529V7.76471H4.70588V8.23529ZM6.58823 8.23529H7.05882V7.76471H6.58823V8.23529ZM5.88235 8.23529H5.41176V7.76471H5.88235V8.23529ZM3.05882 8.23529H3.52941V7.76471H3.05882V8.23529ZM2.35294 8.23529H1.88235V7.76471H2.35294V8.23529ZM0.941176 8.23529H1.41177V7.76471H0.941176V8.23529ZM4.23529 16H4.70588V15.5294H4.23529V16ZM2.35294 16H1.88235V15.5294H2.35294V16ZM3.05882 16H3.52941V15.5294H3.05882V16ZM5.88235 16H5.41176V15.5294H5.88235V16ZM6.58823 16H7.05882V15.5294H6.58823V16ZM11.7647 16H11.2941V15.5294H11.7647V16ZM8.94118 16H9.41176V15.5294H8.94118V16ZM10.5882 16H10.1176V15.5294H10.5882V16ZM12.4706 16H12.9412V15.5294H12.4706V16ZM14.1176 16H13.6471V15.5294H14.1176V16ZM7.76471 16H8.23529V15.5294H7.76471V16ZM0.470589 4.70588H0V4.23529H0.470589V4.70588ZM0 2.35294H0.470589V1.88235H0V2.35294ZM0.470589 3.52941H0V3.05882H0.470589V3.52941ZM0 5.88235H0.470589V5.41176H0V5.88235ZM0.470589 7.05882H0V6.58823H0.470589V7.05882ZM0 11.7647H0.470589V11.2941H0V11.7647ZM0.470589 9.41176H0V8.94118H0.470589V9.41176ZM0 10.5882H0.470589V10.1176H0V10.5882ZM0.470589 12.9412H0V12.4706H0.470589V12.9412ZM0 14.1176H0.470589V13.6471H0V14.1176ZM0.470589 8.23529H0V7.76471H0.470589V8.23529ZM15.5294 4.70588H16V4.23529H15.5294V4.70588ZM16 2.35294H15.5294V1.88235H16V2.35294ZM15.5294 3.52941H16V3.05882H15.5294V3.52941ZM16 5.88235H15.5294V5.41176H16V5.88235ZM15.5294 7.05882H16V6.58823H15.5294V7.05882ZM16 11.7647H15.5294V11.2941H16V11.7647ZM15.5294 9.41176H16V8.94118H15.5294V9.41176ZM16 10.5882H15.5294V10.1176H16V10.5882ZM15.5294 12.9412H16V12.4706H15.5294V12.9412ZM16 14.1176H15.5294V13.6471H16V14.1176ZM15.5294 8.23529H16V7.76471H15.5294V8.23529ZM0.941176 16V15.5294H0.470588V15.0588H0V16H0.941176ZM15.5294 0.470588H0.470588V0.941176H0V0H16V0.941176H15.5294V0.470588Z" fill="currentColor"/>
</svg>
