<svg width="16" height="16" viewBox="0 0 16 16" fill="none" xmlns="http://www.w3.org/2000/svg">
<path fill-rule="evenodd" clip-rule="evenodd" d="M0.470588 15.5294V15.0588H0V16H0.941176V15.5294H0.470588ZM0.941176 8.23529V7.76471H1.41176V8.23529H0.941176ZM1.88235 7.76471V8.23529H2.35294V7.76471H1.88235ZM3.05882 8.23529V7.76471H3.52941V8.23529H3.05882ZM4.23529 7.76471V8.23529H4.70588V7.76471H4.23529ZM8.94118 8.23529V7.76471H9.41177V8.23529H8.94118ZM10.1176 7.76471V8.23529H10.5882V7.76471H10.1176ZM11.2941 8.23529V7.76471H11.7647V8.23529H11.2941ZM13.6471 8.23529V7.76471H14.1176V8.23529H13.6471ZM14.5882 7.76471V8.23529H15.0588V7.76471H14.5882ZM12.4706 8.23529V7.76471H12.9412V8.23529H12.4706ZM6.58824 8.23529V7.76471H7.05882V8.23529H6.58824ZM5.41176 7.76471V8.23529H5.88235V7.76471H5.41176ZM7.76471 7.76471V8.23529H8.23529V7.76471H7.76471ZM7.76471 11.7647V11.2941H8.23529V11.7647H7.76471ZM7.76471 13.6471V14.1176H8.23529V13.6471H7.76471ZM7.76471 15.0588V14.5882H8.23529V15.0588H7.76471ZM7.76471 12.4706V12.9412H8.23529V12.4706H7.76471ZM7.76471 10.5882V10.1176H8.23529V10.5882H7.76471ZM7.76471 8.94118V9.41176H8.23529V8.94118H7.76471ZM7.76471 4.70588V4.23529H8.23529V4.70588H7.76471ZM7.76471 6.58823V7.05882H8.23529V6.58823H7.76471ZM7.76471 5.88235V5.41176H8.23529V5.88235H7.76471ZM7.76471 3.05882V3.52941H8.23529V3.05882H7.76471ZM7.76471 2.35294V1.88235H8.23529V2.35294H7.76471ZM7.76471 0.941176V1.41177H8.23529V0.941176H7.76471ZM0 4.23529V4.70588H0.470588V4.23529H0ZM0 2.35294V1.88235H0.470588V2.35294H0ZM0 3.05882V3.52941H0.470588V3.05882H0ZM0 5.88235V5.41176H0.470588V5.88235H0ZM0 6.58823V7.05882H0.470588V6.58823H0ZM0 11.7647V11.2941H0.470588V11.7647H0ZM0 8.94118V9.41176H0.470588V8.94118H0ZM0 10.5882V10.1176H0.470588V10.5882H0ZM0 12.4706V12.9412H0.470588V12.4706H0ZM0 14.1176V13.6471H0.470588V14.1176H0ZM0 7.76471V8.23529H0.470588V7.76471H0ZM11.2941 0.470589V0H11.7647V0.470589H11.2941ZM13.6471 0V0.470589H14.1176V0H13.6471ZM12.4706 0.470589V0H12.9412V0.470589H12.4706ZM10.1176 0V0.470589H10.5882V0H10.1176ZM8.94118 0.470589V0H9.41177V0.470589H8.94118ZM4.23529 0V0.470589H4.70588V0H4.23529ZM6.58824 0.470589V0H7.05882V0.470589H6.58824ZM5.41176 0V0.470589H5.88235V0H5.41176ZM3.05882 0.470589V0H3.52941V0.470589H3.05882ZM1.88235 0V0.470589H2.35294V0H1.88235ZM7.76471 0.470589V0H8.23529V0.470589H7.76471ZM11.2941 15.5294V16H11.7647V15.5294H11.2941ZM13.6471 16V15.5294H14.1176V16H13.6471ZM12.4706 15.5294V16H12.9412V15.5294H12.4706ZM10.1176 16V15.5294H10.5882V16H10.1176ZM8.94118 15.5294V16H9.41177V15.5294H8.94118ZM4.23529 16V15.5294H4.70588V16H4.23529ZM6.58824 15.5294V16H7.05882V15.5294H6.58824ZM5.41176 16V15.5294H5.88235V16H5.41176ZM3.05882 15.5294V16H3.52941V15.5294H3.05882ZM1.88235 16V15.5294H2.35294V16H1.88235ZM7.76471 15.5294V16H8.23529V15.5294H7.76471ZM0 0.941176H0.470588V0.470588H0.941176V0H0V0.941176ZM15.5294 15.5294V0.470588H15.0588V0H16V16H15.0588V15.5294H15.5294Z" fill="currentColor"/>
</svg>
