<svg width="16" height="16" viewBox="0 0 16 16" fill="none" xmlns="http://www.w3.org/2000/svg">
<g clip-path="url(#clip0_4989_1594)">
<path d="M7.99649 16.0001C12.394 16.0001 15.9588 12.4352 15.9588 8.03775C15.9588 3.64029 12.394 0.0754395 7.99649 0.0754395C3.59903 0.0754395 0.0341797 3.64029 0.0341797 8.03775C0.0341797 12.4352 3.59903 16.0001 7.99649 16.0001Z" fill="#F5BB60"/>
<path d="M7.18539 14.3937C11.1441 14.3937 14.3532 11.1846 14.3532 7.22592C14.3532 3.26724 11.1441 0.0581055 7.18539 0.0581055C3.22672 0.0581055 0.0175781 3.26724 0.0175781 7.22592C0.0175781 11.1846 3.22672 14.3937 7.18539 14.3937Z" fill="#E86F32"/>
<path d="M8.1348 12.4938C11.5688 12.4938 14.3526 9.71001 14.3526 6.27601C14.3526 2.84201 11.5688 0.058197 8.1348 0.058197C4.7008 0.058197 1.91699 2.84201 1.91699 6.27601C1.91699 9.71001 4.7008 12.4938 8.1348 12.4938Z" fill="#E53D42"/>
<path d="M8.63588 12.4938C11.7933 12.4938 14.3528 9.93425 14.3528 6.77687C14.3528 3.6195 11.7933 1.05994 8.63588 1.05994C5.4785 1.05994 2.91895 3.6195 2.91895 6.77687C2.91895 9.93425 5.4785 12.4938 8.63588 12.4938Z" fill="#BFD141"/>
<path d="M8.22138 12.4938C11.1498 12.4938 13.5238 10.1198 13.5238 7.19138C13.5238 4.26293 11.1498 1.88895 8.22138 1.88895C5.29293 1.88895 2.91895 4.26293 2.91895 7.19138C2.91895 10.1198 5.29293 12.4938 8.22138 12.4938Z" fill="#6DB64C"/>
<path d="M7.37507 10.8185C9.83612 10.8185 11.8312 8.82342 11.8312 6.36237C11.8312 3.90132 9.83612 1.90625 7.37507 1.90625C4.91402 1.90625 2.91895 3.90132 2.91895 6.36237C2.91895 8.82342 4.91402 10.8185 7.37507 10.8185Z" fill="#AFDBE7"/>
<path d="M8.1008 9.35029C10.1612 9.35029 11.8315 7.68001 11.8315 5.6196C11.8315 3.5592 10.1612 1.88892 8.1008 1.88892C6.0404 1.88892 4.37012 3.5592 4.37012 5.6196C4.37012 7.68001 6.0404 9.35029 8.1008 9.35029Z" fill="#57BADF"/>
<path d="M8.56678 9.36763C10.3792 9.36763 11.8484 7.8984 11.8484 6.08601C11.8484 4.27362 10.3792 2.80438 8.56678 2.80438C6.75439 2.80438 5.28516 4.27362 5.28516 6.08601C5.28516 7.8984 6.75439 9.36763 8.56678 9.36763Z" fill="#02B2D6"/>
<path d="M8.08316 9.3503C9.62845 9.3503 10.8812 8.0976 10.8812 6.5523C10.8812 5.00701 9.62845 3.7543 8.08316 3.7543C6.53786 3.7543 5.28516 5.00701 5.28516 6.5523C5.28516 8.0976 6.53786 9.3503 8.08316 9.3503Z" fill="url(#paint0_radial_4989_1594)"/>
<path d="M8.08316 9.3503C9.62845 9.3503 10.8812 8.0976 10.8812 6.5523C10.8812 5.00701 9.62845 3.7543 8.08316 3.7543C6.53786 3.7543 5.28516 5.00701 5.28516 6.5523C5.28516 8.0976 6.53786 9.3503 8.08316 9.3503Z" fill="#231F20"/>
<path d="M8.81798 6.18567C9.09542 6.31017 9.47798 6.05967 9.67248 5.62624C9.86698 5.19274 9.79973 4.74042 9.52236 4.61599C9.24486 4.49149 8.86236 4.74199 8.66786 5.17542C8.47336 5.60892 8.54055 6.06124 8.81798 6.18567Z" fill="white"/>
</g>
<defs>
<radialGradient id="paint0_radial_4989_1594" cx="0" cy="0" r="1" gradientUnits="userSpaceOnUse" gradientTransform="translate(285.874 283.571) scale(280.466)">
<stop stop-color="#797979"/>
<stop offset="1" stop-color="#4C4C4C"/>
</radialGradient>
<clipPath id="clip0_4989_1594">
<rect width="16" height="16" fill="white"/>
</clipPath>
</defs>
</svg>
