<svg width="17" height="17" viewBox="0 0 17 17" fill="none" xmlns="http://www.w3.org/2000/svg">
<g clip-path="url(#clip0_380_17307)">
<path d="M7.70763 2.78761C7.73332 2.9143 7.65094 3.03742 7.52338 3.06308C7.39669 3.08789 7.27357 3.00552 7.24788 2.87883C7.24788 2.87796 7.12741 2.35799 6.62072 2.43767C6.22297 2.50146 5.9351 2.51121 5.68707 2.44299C5.42219 2.37124 5.222 2.21977 5.01385 1.96464C4.93235 1.86455 4.94741 1.71749 5.0475 1.63599C5.1476 1.55449 5.29466 1.56955 5.37616 1.66964C5.52144 1.84771 5.65078 1.94958 5.80932 1.99299C5.98472 2.0408 6.21416 2.02933 6.54722 1.97702C7.503 1.82558 7.70675 2.78496 7.70763 2.78761ZM4.11207 10.8637C4.22722 10.8061 4.36719 10.8521 4.42566 10.9682C4.48322 11.0834 4.43629 11.2234 4.32113 11.2809L3.78079 11.5511L4.08638 13.7196C4.09525 13.7851 4.07663 13.8507 4.035 13.9012L2.85154 15.3318C2.76916 15.431 2.62122 15.4452 2.522 15.3628C2.42279 15.2804 2.40863 15.1325 2.491 15.0333L3.60891 13.6824L3.29444 11.4492C3.28116 11.3527 3.32988 11.2543 3.422 11.2091L4.11207 10.8637ZM4.88982 6.13249C4.95713 6.24321 4.92169 6.38671 4.81185 6.45405C4.702 6.52139 4.55763 6.48683 4.49029 6.37608L3.75063 5.15986C3.69838 5.07305 3.7081 4.96586 3.76835 4.89146L4.07394 4.46892L3.07566 3.44221C2.98619 3.34921 2.98797 3.20127 3.08097 3.1118C3.1731 3.02146 3.32104 3.02324 3.41138 3.11624L4.54525 4.28374C4.62322 4.36258 4.63472 4.48924 4.56738 4.58227L4.23079 5.04911L4.88982 6.13249ZM4.16963 7.38327C4.29541 7.41249 4.37425 7.53827 4.34504 7.66405C4.31491 7.78983 4.18913 7.86868 4.06335 7.83946L3.45035 7.69596L2.45469 9.23464C2.4166 9.29311 2.3546 9.33208 2.2846 9.34005L0.759223 9.51102C0.630785 9.52521 0.515629 9.43221 0.501442 9.30374C0.487254 9.1753 0.579379 9.06014 0.707817 9.04596L2.12338 8.88739L3.13941 7.31683C3.189 7.22736 3.29266 7.17864 3.39719 7.20255L4.16963 7.38327ZM12.6762 11.2809C12.5611 11.2233 12.5141 11.0834 12.5717 10.9682C12.6293 10.8522 12.7701 10.8061 12.8853 10.8637L13.5753 11.2091C13.6648 11.2535 13.7162 11.35 13.7029 11.4492L13.3884 13.6824L14.5063 15.0333C14.5887 15.1325 14.5746 15.2804 14.4753 15.3628C14.3753 15.4452 14.2282 15.431 14.1458 15.3318L12.9623 13.9012C12.9216 13.8525 12.9012 13.7878 12.911 13.7196L13.2166 11.5511L12.6762 11.2809ZM12.5062 6.37608C12.4397 6.4868 12.2953 6.52136 12.1855 6.45405C12.0748 6.38674 12.0402 6.24321 12.1075 6.13249L12.7666 5.04911L12.43 4.58227C12.3644 4.49102 12.3733 4.36436 12.4521 4.28374L13.586 3.11624C13.6763 3.02321 13.8243 3.02146 13.9164 3.1118C14.0094 3.20127 14.0112 3.34921 13.9208 3.44221L12.9234 4.46889L13.229 4.89143C13.2893 4.96583 13.299 5.07302 13.2467 5.15983L12.5062 6.37608ZM12.934 7.83946C12.8073 7.86871 12.6815 7.78986 12.6523 7.66405C12.6231 7.53827 12.7019 7.41249 12.8277 7.38327L13.6002 7.20255C13.7038 7.17864 13.8083 7.22736 13.8579 7.31683L14.874 8.88739L16.2913 9.04596C16.4197 9.06014 16.5127 9.17617 16.4986 9.30461C16.4844 9.43305 16.3683 9.52517 16.2399 9.51099L14.7154 9.34002C14.6454 9.33205 14.5817 9.29483 14.5427 9.23461L13.547 7.69593L12.934 7.83946ZM9.74947 2.87883C9.72379 3.00552 9.60066 3.08789 9.47397 3.06308C9.34641 3.03739 9.26404 2.91427 9.28972 2.78761C9.28972 2.78496 9.49435 1.82561 10.4493 1.97708C10.7823 2.02936 11.0126 2.04086 11.188 1.99305C11.3466 1.94964 11.4759 1.84777 11.6212 1.66971C11.7027 1.56961 11.8498 1.55455 11.9498 1.63605C12.05 1.71755 12.065 1.86458 11.9835 1.96471C11.7745 2.21983 11.5752 2.3713 11.3103 2.44305C11.0623 2.51127 10.7744 2.50152 10.3767 2.43774C9.86994 2.35799 9.74947 2.87796 9.74947 2.87883Z" fill="#463D43"/>
<path fill-rule="evenodd" clip-rule="evenodd" d="M8.49858 14.4426C5.95889 14.4151 3.9082 12.0703 3.9082 9.18254C3.9082 7.97961 4.25902 6.86876 4.86136 5.98648C5.31048 5.32742 5.70555 5.36817 6.26452 5.36817H8.49858H10.7326C11.2916 5.36817 11.6867 5.32742 12.1358 5.98648C12.7381 6.86876 13.089 7.97961 13.089 9.18254C13.0889 12.0703 11.0373 14.4151 8.49858 14.4426Z" fill="#FC636E"/>
<path fill-rule="evenodd" clip-rule="evenodd" d="M8.49905 14.4426C8.36705 14.4408 8.23684 14.4329 8.1084 14.4196C10.4638 14.1707 12.3081 11.9207 12.3081 9.18254C12.3081 7.97961 11.9573 6.86876 11.355 5.98648C10.9794 5.43461 10.641 5.37348 10.2131 5.36817H10.7331C11.2921 5.36817 11.6871 5.32742 12.1363 5.98648C12.7386 6.86876 13.0894 7.97961 13.0894 9.18254C13.0894 12.0704 11.0378 14.4151 8.49905 14.4426Z" fill="#DA4A54"/>
<path fill-rule="evenodd" clip-rule="evenodd" d="M8.49842 14.4426C8.41958 14.4417 8.34161 14.4382 8.26367 14.4329V5.48779H8.49842H8.73227V14.4329C8.6552 14.4382 8.57727 14.4417 8.49842 14.4426Z" fill="#D94650"/>
<path fill-rule="evenodd" clip-rule="evenodd" d="M10.0536 3.23414C10.989 3.65757 11.6171 4.46989 11.6171 5.4877H5.38086C5.38086 4.46989 6.00892 3.65757 6.94436 3.23414C7.09142 2.84351 7.73186 2.55029 8.49898 2.55029C9.26611 2.55029 9.90567 2.84348 10.0536 3.23414Z" fill="#463D43"/>
<path fill-rule="evenodd" clip-rule="evenodd" d="M8.49838 8.52251C9.05823 8.52251 9.51529 8.06542 9.51529 7.50561C9.51529 6.94489 9.05823 6.48779 8.49838 6.48779C7.93766 6.48779 7.48145 6.94486 7.48145 7.50561C7.48145 8.06542 7.93763 8.52251 8.49838 8.52251Z" fill="#463D43"/>
<path fill-rule="evenodd" clip-rule="evenodd" d="M11.0941 10.3449C11.6539 10.3449 12.111 9.88782 12.111 9.32797C12.111 8.76725 11.654 8.31104 11.0941 8.31104C10.5334 8.31104 10.0771 8.76722 10.0771 9.32797C10.0771 9.88778 10.5333 10.3449 11.0941 10.3449Z" fill="#463D43"/>
<path fill-rule="evenodd" clip-rule="evenodd" d="M5.90265 10.3449C6.46249 10.3449 6.91959 9.88782 6.91959 9.32797C6.91959 8.76725 6.46249 8.31104 5.90265 8.31104C5.3428 8.31104 4.88574 8.76722 4.88574 9.32797C4.88574 9.88778 5.3428 10.3449 5.90265 10.3449Z" fill="#463D43"/>
<path fill-rule="evenodd" clip-rule="evenodd" d="M10.8417 11.4708C10.5972 11.2254 10.1242 11.2998 9.78671 11.6373C9.44921 11.9748 9.3748 12.4479 9.62017 12.6923C9.86464 12.9377 10.3368 12.8624 10.6743 12.5249C11.0118 12.1874 11.0871 11.7153 10.8417 11.4708Z" fill="#463D43"/>
<path fill-rule="evenodd" clip-rule="evenodd" d="M6.15532 11.4708C6.39982 11.2254 6.87197 11.2998 7.20944 11.6373C7.54694 11.9748 7.62226 12.4479 7.37685 12.6923C7.13235 12.9377 6.65935 12.8624 6.32182 12.5249C5.98435 12.1874 5.90997 11.7153 6.15532 11.4708Z" fill="#463D43"/>
<path fill-rule="evenodd" clip-rule="evenodd" d="M9.27145 3.23417C10.1697 3.64076 10.7844 4.40614 10.8323 5.36814C10.834 5.40711 10.8349 5.44786 10.8349 5.48773H11.6162C11.6162 4.46992 10.9881 3.65761 10.0527 3.23417C10.0031 3.10217 9.89683 2.98173 9.74889 2.87895C9.63105 2.79836 9.48667 2.72836 9.3228 2.6752C9.08186 2.59636 8.80014 2.55029 8.49808 2.55029C8.36342 2.55029 8.23233 2.56004 8.10742 2.57686C8.69389 2.65661 9.15008 2.91261 9.27145 3.23417Z" fill="#40363D"/>
</g>
<defs>
<clipPath id="clip0_380_17307">
<rect width="16" height="16" fill="white" transform="translate(0.5 0.5)"/>
</clipPath>
</defs>
</svg>
