<svg width="16" height="16" viewBox="0 0 16 16" fill="none" xmlns="http://www.w3.org/2000/svg">
<g clip-path="url(#clip0_12674_109539)">
<path d="M15.9996 8.87309C15.9964 8.719 15.9079 8.53789 15.7278 8.45739L12.2362 6.84651V3.02784C12.2357 2.86844 12.1455 2.68224 11.9608 2.60109L8.19176 0.896061C8.07101 0.841448 7.93287 0.840542 7.81137 0.893501L4.04754 2.53586C3.89853 2.60277 3.76501 2.75884 3.76648 2.96514V6.84292L0.278303 8.39194C0.131794 8.45867 -0.00200685 8.61521 2.27976e-05 8.82001V13.0011C2.27976e-05 13.1862 0.108968 13.3539 0.278084 13.4291L4.04192 15.1029C4.1182 15.1136 4.14649 15.1934 4.42234 15.1029L7.99988 13.5142L11.5723 15.1029C11.6486 15.1136 11.6768 15.1934 11.9527 15.1029L15.7217 13.4292C15.891 13.354 16 13.1863 16 13.0011V8.88268C16 8.87946 15.9997 8.87631 15.9996 8.87309ZM4.23602 7.65937L6.89157 8.84028L4.2323 10.1415L1.57578 8.84071L4.23602 7.65937ZM7.53032 5.1003V8.09893L4.70324 6.84086V3.71602L7.53032 5.1003ZM11.2994 6.84176L9.71961 7.5433L8.46708 8.09952V5.10489L11.2994 3.76707V6.84176ZM4.70062 10.9552L7.53032 9.57064V12.6978L4.70062 13.9544V10.9552ZM8.46754 9.57107L11.2942 10.9551V13.954L8.46951 12.6979L8.46754 9.57107ZM11.7662 10.1432L9.1061 8.84071L11.7641 7.66037L14.4244 8.88771L11.7662 10.1432ZM7.99529 1.83532L10.6517 3.03702L8.00235 4.28838L5.34988 2.98959L7.99529 1.83532ZM0.936782 9.57086L3.76386 10.9551V13.954L0.936782 12.6968V9.57086ZM12.2309 13.9544V10.9597L15.0632 9.62191V12.6966L12.2309 13.9544Z" fill="currentcolor"/>
</g>
<defs>
<clipPath id="clip0_12674_109539">
<rect width="16" height="16" fill="currentcolor"/>
</clipPath>
</defs>
</svg>
