<svg width="14" height="15" viewBox="0 0 14 15" fill="none" xmlns="http://www.w3.org/2000/svg">
<path d="M13.878 4.05558C13.7895 2.60703 12.5608 1.47217 11.0809 1.47217H10.3604V0.920871C10.3604 0.616552 10.1095 0.369568 9.80034 0.369568C9.4912 0.369568 9.2403 0.616552 9.2403 0.920871V1.47217H4.75997V0.920871C4.75997 0.616552 4.50907 0.369568 4.19993 0.369568C3.89079 0.369568 3.63989 0.616552 3.63989 0.920871V1.47217H2.9194C1.43921 1.47217 0.210478 2.60703 0.122271 4.05558C-0.0437812 6.78012 -0.0407009 9.5438 0.131512 12.2697C0.218878 13.654 1.3454 14.763 2.75166 14.849C4.16101 14.9353 5.58043 14.9783 6.99986 14.9783C8.419 14.9783 9.83871 14.9353 11.248 14.849C12.6543 14.763 13.7808 13.654 13.8682 12.2697C14.0407 9.54518 14.0438 6.78177 13.878 4.05558ZM12.7506 12.2014C12.698 13.0319 12.0223 13.697 11.1789 13.7486C8.40612 13.9181 5.59415 13.9181 2.82139 13.7486C1.97769 13.6968 1.302 13.0316 1.24963 12.2014C1.11718 10.1056 1.09002 7.98774 1.16087 5.8826H12.8397C12.9103 7.98857 12.8831 10.1064 12.7506 12.2014ZM4.19993 3.67738C4.50907 3.67738 4.75997 3.4304 4.75997 3.12608V2.57478H9.2403V3.12608C9.2403 3.4304 9.4912 3.67738 9.80034 3.67738C10.1095 3.67738 10.3604 3.4304 10.3604 3.12608V2.57478H11.0809C11.9694 2.57478 12.707 3.25426 12.7599 4.12146C12.773 4.34033 12.7786 4.56057 12.7896 4.77999H1.21071C1.22191 4.56057 1.22723 4.34033 1.24039 4.12146C1.29332 3.25426 2.03061 2.57478 2.9194 2.57478H3.63989V3.12608C3.63989 3.4304 3.89079 3.67738 4.19993 3.67738Z" fill="currentColor"/>
<path d="M4.19944 9.19047C4.66339 9.19047 5.0395 8.82023 5.0395 8.36351C5.0395 7.9068 4.66339 7.53656 4.19944 7.53656C3.73548 7.53656 3.35938 7.9068 3.35938 8.36351C3.35938 8.82023 3.73548 9.19047 4.19944 9.19047Z" fill="currentColor"/>
<path d="M7.00022 9.19047C7.46417 9.19047 7.84028 8.82023 7.84028 8.36351C7.84028 7.9068 7.46417 7.53656 7.00022 7.53656C6.53626 7.53656 6.16016 7.9068 6.16016 8.36351C6.16016 8.82023 6.53626 9.19047 7.00022 9.19047Z" fill="currentColor"/>
<path d="M4.19944 11.9468C4.66339 11.9468 5.0395 11.5766 5.0395 11.1199C5.0395 10.6631 4.66339 10.2929 4.19944 10.2929C3.73548 10.2929 3.35938 10.6631 3.35938 11.1199C3.35938 11.5766 3.73548 11.9468 4.19944 11.9468Z" fill="currentColor"/>
<path d="M9.79905 9.19047C10.263 9.19047 10.6391 8.82023 10.6391 8.36351C10.6391 7.9068 10.263 7.53656 9.79905 7.53656C9.33509 7.53656 8.95898 7.9068 8.95898 8.36351C8.95898 8.82023 9.33509 9.19047 9.79905 9.19047Z" fill="currentColor"/>
<path d="M9.79905 11.9468C10.263 11.9468 10.6391 11.5766 10.6391 11.1199C10.6391 10.6631 10.263 10.2929 9.79905 10.2929C9.33509 10.2929 8.95898 10.6631 8.95898 11.1199C8.95898 11.5766 9.33509 11.9468 9.79905 11.9468Z" fill="currentColor"/>
<path d="M7.00022 11.9468C7.46417 11.9468 7.84028 11.5766 7.84028 11.1199C7.84028 10.6631 7.46417 10.2929 7.00022 10.2929C6.53626 10.2929 6.16016 10.6631 6.16016 11.1199C6.16016 11.5766 6.53626 11.9468 7.00022 11.9468Z" fill="currentColor"/>
</svg>
