<svg width="16" height="16" viewBox="0 0 16 16" fill="none" xmlns="http://www.w3.org/2000/svg">
<path fill-rule="evenodd" clip-rule="evenodd" d="M11.1549 0.000732422H13.7586C14.9937 0.000732422 15.9985 1.00484 15.9985 2.23906V4.84434H14.5308V2.23906C14.5308 1.81416 14.1844 1.46849 13.7586 1.46849H11.1549V0.000732422ZM14.5323 6.31234H16V9.68819H14.5323V6.31234ZM2.23832 0.00245581C1.0041 0.00245581 0 1.0073 0 2.24236V4.84606H1.46775V2.24236C1.46775 1.81658 1.81342 1.47021 2.23832 1.47021H4.8436V0.00245581H2.23832ZM6.31136 0.000732422H9.68721V1.46849H6.31136V0.000732422ZM9.68721 14.5317H6.31136V15.9995H9.68721V14.5317ZM1.46933 13.7609C1.46933 14.1858 1.81574 14.5315 2.24152 14.5315H4.84518V15.9992H2.24148C1.00642 15.9992 0.00157977 14.9951 0.00157977 13.7609V11.1556H1.46933V13.7609ZM1.46775 6.31234H0V9.68819H1.46775V6.31234ZM10.2911 9.09126L15.7113 14.5114L14.5217 15.7094L9.10151 10.2893L9.47274 11.0908V13.394L7.90351 13.3856V7.89326H13.4127L13.3958 9.46249H11.1348L10.2911 9.09126Z" fill="currentcolor"/>
</svg>