<svg width="16" height="16" viewBox="0 0 16 16" fill="none" xmlns="http://www.w3.org/2000/svg">
<path d="M3.42857 16H0.571429C0.419876 16 0.274531 15.9398 0.167368 15.8326C0.0602039 15.7255 0 15.5801 0 15.4286V12.5714C0 12.4199 0.0602039 12.2745 0.167368 12.1674C0.274531 12.0602 0.419876 12 0.571429 12C0.722981 12 0.868326 12.0602 0.97549 12.1674C1.08265 12.2745 1.14286 12.4199 1.14286 12.5714V14.8571H3.42857C3.58012 14.8571 3.72547 14.9173 3.83263 15.0245C3.9398 15.1317 4 15.277 4 15.4286C4 15.5801 3.9398 15.7255 3.83263 15.8326C3.72547 15.9398 3.58012 16 3.42857 16Z" fill="currentColor"/>
<path d="M15.4286 16H12.5714C12.4199 16 12.2745 15.9398 12.1674 15.8326C12.0602 15.7255 12 15.5801 12 15.4286C12 15.277 12.0602 15.1317 12.1674 15.0245C12.2745 14.9173 12.4199 14.8571 12.5714 14.8571H14.8571V12.5714C14.8571 12.4199 14.9173 12.2745 15.0245 12.1674C15.1317 12.0602 15.277 12 15.4286 12C15.5801 12 15.7255 12.0602 15.8326 12.1674C15.9398 12.2745 16 12.4199 16 12.5714V15.4286C16 15.5801 15.9398 15.7255 15.8326 15.8326C15.7255 15.9398 15.5801 16 15.4286 16Z" fill="currentColor"/>
<path d="M0.571429 4C0.419876 4 0.274531 3.9398 0.167368 3.83263C0.0602039 3.72547 0 3.58012 0 3.42857V0.571429C0 0.419876 0.0602039 0.274531 0.167368 0.167368C0.274531 0.0602039 0.419876 0 0.571429 0H3.42857C3.58012 0 3.72547 0.0602039 3.83263 0.167368C3.9398 0.274531 4 0.419876 4 0.571429C4 0.722981 3.9398 0.868326 3.83263 0.97549C3.72547 1.08265 3.58012 1.14286 3.42857 1.14286H1.14286V3.42857C1.14286 3.58012 1.08265 3.72547 0.97549 3.83263C0.868326 3.9398 0.722981 4 0.571429 4Z" fill="currentColor"/>
<path d="M15.4286 4C15.277 4 15.1317 3.9398 15.0245 3.83263C14.9173 3.72547 14.8571 3.58012 14.8571 3.42857V1.14286H12.5714C12.4199 1.14286 12.2745 1.08265 12.1674 0.97549C12.0602 0.868326 12 0.722981 12 0.571429C12 0.419876 12.0602 0.274531 12.1674 0.167368C12.2745 0.0602039 12.4199 0 12.5714 0H15.4286C15.5801 0 15.7255 0.0602039 15.8326 0.167368C15.9398 0.274531 16 0.419876 16 0.571429V3.42857C16 3.58012 15.9398 3.72547 15.8326 3.83263C15.7255 3.9398 15.5801 4 15.4286 4Z" fill="currentColor"/>
<path d="M8.00005 10.8571C7.43497 10.8571 6.88257 10.6895 6.41271 10.3756C5.94286 10.0616 5.57665 9.61542 5.3604 9.09335C5.14415 8.57127 5.08757 7.9968 5.19781 7.44257C5.30805 6.88833 5.58017 6.37924 5.97975 5.97966C6.37933 5.58008 6.88842 5.30797 7.44265 5.19772C7.99688 5.08748 8.57136 5.14406 9.09344 5.36031C9.61551 5.57656 10.0617 5.94277 10.3757 6.41262C10.6896 6.88248 10.8572 7.43488 10.8572 7.99997C10.8572 8.75773 10.5562 9.48445 10.0204 10.0203C9.48454 10.5561 8.75782 10.8571 8.00005 10.8571ZM8.00005 6.28568C7.661 6.28568 7.32956 6.38622 7.04765 6.57459C6.76574 6.76296 6.54601 7.03069 6.41626 7.34394C6.28651 7.65718 6.25256 8.00187 6.31871 8.33441C6.38485 8.66695 6.54812 8.9724 6.78787 9.21215C7.02762 9.4519 7.33308 9.61517 7.66561 9.68131C7.99815 9.74746 8.34284 9.71351 8.65608 9.58376C8.96933 9.45401 9.23706 9.23429 9.42543 8.95237C9.6138 8.67046 9.71434 8.33902 9.71434 7.99997C9.71434 7.54531 9.53373 7.10927 9.21224 6.78778C8.89075 6.46629 8.45471 6.28568 8.00005 6.28568Z" fill="currentColor"/>
</svg>
