<svg width="15" height="14" viewBox="0 0 15 14" fill="none" xmlns="http://www.w3.org/2000/svg">
<path d="M14.5698 7C14.5698 10.8654 11.4352 14 7.56982 14C3.70442 14 0.569824 10.8654 0.569824 7C0.569824 3.1346 3.70442 0 7.56982 0C11.4352 0 14.5698 3.1346 14.5698 7Z" fill="#4CAF50"/>
<path d="M7.56971 0V7L10.3697 8.4L7.27466 14C7.38561 14 7.45876 14 7.56971 14C11.4383 14 14.5697 10.8686 14.5697 7C14.5697 3.13145 11.4383 0 7.56971 0Z" fill="#FFC107"/>
<path d="M14.5698 7C14.5698 10.8654 11.4352 14 7.56982 14C3.70442 14 0.569824 10.8654 0.569824 7C0.569824 3.1346 3.70442 0 7.56982 0C11.4352 0 14.5698 3.1346 14.5698 7Z" fill="#4CAF50"/>
<path d="M7.56971 0V7L10.3697 8.4L7.27466 14C7.38561 14 7.45876 14 7.56971 14C11.4383 14 14.5697 10.8686 14.5697 7C14.5697 3.13145 11.4383 0 7.56971 0Z" fill="#FFC107"/>
<path d="M13.8137 3.85H7.5697V8.4L6.5197 8.05L1.6757 3.241H1.6687C2.9077 1.2915 5.0882 0 7.5697 0C10.2997 0 12.6622 1.568 13.8137 3.85Z" fill="#F44336"/>
<path d="M1.67493 3.24243L4.76998 8.44413L6.51963 8.05003L1.67493 3.24243Z" fill="#DD2C00"/>
<path d="M7.27466 14L10.4016 8.37933L8.96971 7.34998L7.27466 14Z" fill="#558B2F"/>
<path d="M13.8226 3.8501H7.56986L7.01721 5.4531L13.8226 3.8501Z" fill="#F9A825"/>
<path d="M10.7197 7.0001C10.7197 8.73925 9.30883 10.1501 7.56968 10.1501C5.83053 10.1501 4.41968 8.73925 4.41968 7.0001C4.41968 5.26095 5.83053 3.8501 7.56968 3.8501C9.30883 3.8501 10.7197 5.26095 10.7197 7.0001Z" fill="white"/>
<path d="M10.0196 7.00005C10.0196 8.3535 8.92308 9.45005 7.56963 9.45005C6.21618 9.45005 5.11963 8.3535 5.11963 7.00005C5.11963 5.6466 6.21618 4.55005 7.56963 4.55005C8.92308 4.55005 10.0196 5.6466 10.0196 7.00005Z" fill="#2196F3"/>
</svg>
