<svg width="16" height="16" viewBox="0 0 16 16" fill="none"
    xmlns="http://www.w3.org/2000/svg">
    <path d="M2.89499 6.09881C3.32457 6.09881 3.67281 5.74964 3.67281 5.31892C3.67281 4.88823 3.32457 4.53906 2.89499 4.53906C2.46543 4.53906 2.11719 4.88823 2.11719 5.31892C2.11719 5.74964 2.46543 6.09881 2.89499 6.09881Z" fill="currentColor"/>
    <path d="M0.777799 8.49724C1.20738 8.49724 1.55562 8.14808 1.55562 7.71736C1.55562 7.28666 1.20738 6.9375 0.777799 6.9375C0.34824 6.9375 0 7.28666 0 7.71736C0 8.14808 0.34824 8.49724 0.777799 8.49724Z" fill="currentColor"/>
    <path fill-rule="evenodd" clip-rule="evenodd" d="M14.2323 0.202053C13.352 -0.255167 12.2686 0.0897742 11.8126 0.97249L9.82088 4.8279C9.81021 4.84857 9.801 4.86962 9.79321 4.89091C8.81763 4.85737 7.85121 5.28947 7.19944 6.0543C6.43151 6.95541 5.48673 7.93878 4.67941 8.44093C3.5284 9.15685 2.57685 9.41487 1.98593 9.50645C1.64034 9.56001 1.35983 9.7831 1.22319 10.0724C1.08046 10.3746 1.09122 10.7706 1.36858 11.077C1.97156 11.7433 3.14716 12.8345 5.30343 14.2095C6.79691 15.1619 8.13589 15.6887 8.85653 15.9327C9.40881 16.1197 9.99903 15.9058 10.3159 15.4299C10.7166 14.8283 11.4202 13.6938 12.0243 12.3132C12.4713 11.2919 12.8563 10.2392 13.2248 9.18836C13.5357 8.30189 13.3958 7.36679 12.9232 6.6277L14.9989 2.63184C15.4576 1.74875 15.1141 0.659995 14.2323 0.202053ZM12.1404 5.80392L14.0465 2.1345C14.2309 1.77962 14.0928 1.34209 13.7385 1.15807C13.3847 0.974333 12.9493 1.11295 12.7661 1.46768L10.874 5.13019C10.9374 5.15715 11.0002 5.18642 11.0625 5.2181L11.7539 5.56956C11.89 5.63878 12.0191 5.71727 12.1404 5.80392ZM12.2118 8.83125C12.1353 9.04941 12.0546 9.27634 11.971 9.5074L7.61359 7.21465C7.75387 7.05783 7.88844 6.90315 8.01579 6.7537C8.66436 5.99266 9.72891 5.74725 10.5769 6.17836L11.2683 6.52985C12.1201 6.96286 12.5229 7.94412 12.2118 8.83125ZM5.24546 9.35582C5.7753 9.02629 6.32818 8.54468 6.84696 8.0271L6.85392 8.03083L11.5927 10.5242C11.4104 10.9995 11.2231 11.4645 11.041 11.8806C10.4705 13.1842 9.80273 14.2617 9.4229 14.8321C9.36877 14.9134 9.28085 14.94 9.20013 14.9126C8.88321 14.8053 8.43042 14.6365 7.89067 14.3916C8.1412 14.1267 8.50457 13.6938 8.85279 13.0989C9.00327 12.8419 8.91631 12.5156 8.65856 12.3701C8.40081 12.2246 8.06987 12.3151 7.91942 12.5721C7.63951 13.0503 7.29763 13.5212 6.87844 13.8886C6.55873 13.7156 6.22361 13.5204 5.87968 13.3011C5.60004 13.1227 5.33816 12.9498 5.09302 12.7826C5.22058 12.6966 5.36044 12.5912 5.51059 12.4621C5.73641 12.2679 5.75884 11.9322 5.56068 11.7124C5.36253 11.4925 5.01885 11.4717 4.79304 11.6658C4.46068 11.9516 4.22858 12.0604 4.13501 12.097C3.28006 11.453 2.70726 10.9242 2.33655 10.5386C3.05475 10.4046 4.06928 10.0874 5.24546 9.35582Z" fill="currentColor"/>
</svg>
