<svg width="30" height="30" viewBox="0 0 30 30" fill="none" xmlns="http://www.w3.org/2000/svg">
<path d="M15 30C23.2843 30 30 23.2843 30 15C30 6.71573 23.2843 0 15 0C6.71573 0 0 6.71573 0 15C0 23.2843 6.71573 30 15 30Z" fill="#71347B"/>
<path d="M14.908 14.0551C15.9541 14.0551 16.9766 13.7449 17.8464 13.1637C18.7162 12.5825 19.3941 11.7565 19.7944 10.7901C20.1947 9.82363 20.2994 8.76018 20.0954 7.73422C19.8913 6.70825 19.3876 5.76585 18.6479 5.02617C17.9082 4.28649 16.9658 3.78276 15.9398 3.57868C14.9139 3.3746 13.8504 3.47935 12.884 3.87966C11.9175 4.27997 11.0915 4.95787 10.5103 5.82764C9.92918 6.69741 9.61899 7.71999 9.61899 8.76606C9.62189 10.1679 10.1801 11.5115 11.1713 12.5027C12.1626 13.494 13.5062 14.0521 14.908 14.0551ZM14.908 16.7001C11.408 16.7001 4.32999 18.4851 4.32999 21.9891V24.6341H25.486V21.9891C25.486 18.4851 18.412 16.7001 14.908 16.7001Z" fill="white"/>
</svg>
