<svg width="16" height="16" viewBox="0 0 16 16" fill="none" xmlns="http://www.w3.org/2000/svg">
<g clip-path="url(#clip0_12674_109625)">
<g clip-path="url(#clip1_12674_109625)">
<path d="M11.4866 8.02841C11.1791 7.88225 10.8654 7.75634 10.5461 7.65088C11.58 6.87488 12.25 5.63922 12.25 4.25C12.25 1.90656 10.3435 0 7.99999 0C5.65652 0 3.74999 1.90656 3.74999 4.25C3.74999 5.64075 4.42149 6.87762 5.45727 7.65347C4.50827 7.96591 3.6178 8.45206 2.83843 9.09313C1.4093 10.2687 0.415644 11.9083 0.0405505 13.7101C-0.077012 14.2747 0.0638317 14.8545 0.426894 15.301C0.788175 15.7452 1.32389 16 1.89664 16H9.59374C9.93892 16 10.2187 15.7202 10.2187 15.375C10.2187 15.0298 9.93892 14.75 9.59374 14.75H1.89664C1.62983 14.75 1.46886 14.6011 1.39668 14.5123C1.27202 14.359 1.22377 14.1595 1.2643 13.9648C1.91289 10.8494 4.66089 8.57356 7.8343 8.49681C7.88927 8.49894 7.94449 8.5 7.99999 8.5C8.05602 8.5 8.1118 8.49891 8.1673 8.49675C9.1398 8.51956 10.0751 8.7415 10.9499 9.15738C11.2617 9.3055 11.6345 9.17297 11.7827 8.86119C11.9309 8.54944 11.7983 8.17659 11.4866 8.02841ZM8.15242 7.24616C8.10171 7.24525 8.05089 7.24478 7.99999 7.24478C7.94955 7.24478 7.89911 7.24528 7.84874 7.24622C6.26452 7.16719 4.99999 5.8535 4.99999 4.25C4.99999 2.59578 6.34577 1.25 7.99999 1.25C9.65421 1.25 11 2.59578 11 4.25C11 5.85309 9.73608 7.16653 8.15242 7.24616Z" fill="currentcolor"/>
<path fill-rule="evenodd" clip-rule="evenodd" d="M11.7834 9.98056C11.8379 9.95275 11.8935 9.92443 11.9615 9.8832L11.9217 9.86214C11.8234 9.80249 11.7171 9.74594 11.6087 9.68829C11.557 9.66079 11.5048 9.63305 11.4529 9.60459C11.2747 9.48278 11.0793 9.38885 10.8733 9.32599C10.7246 9.28247 10.5653 9.29399 10.4243 9.35847C10.2832 9.42296 10.1696 9.53617 10.1038 9.67774C10.0257 9.84723 9.99074 10.0337 10.0021 10.2203C10.0021 11.3933 10.0166 12.5805 10.0311 13.7534C10.0238 13.9937 10.0384 14.2342 10.0745 14.4719C10.0896 14.5599 10.1217 14.6441 10.1691 14.7196C10.2164 14.795 10.278 14.8604 10.3504 14.9117C10.4489 14.9748 10.561 15.0131 10.6773 15.0233C10.7935 15.0335 10.9104 15.0153 11.0182 14.9703C11.0762 14.9556 11.0906 14.9114 11.0906 14.8529V10.4111C11.0884 10.3938 11.0914 10.3761 11.0991 10.3604C11.1068 10.3447 11.119 10.3317 11.1341 10.323C11.2429 10.2644 11.3482 10.2094 11.4535 10.1545C11.5588 10.0995 11.6641 10.0446 11.7729 9.98593C11.7764 9.98414 11.7799 9.98235 11.7834 9.98056ZM11.9615 13.1224V14.3981C12.0777 14.3252 12.1936 14.2514 12.3243 14.1607C12.5349 14.0361 12.7418 13.9151 12.9486 13.7942C13.1555 13.6733 13.3624 13.5523 13.5729 13.4277C13.7443 13.3305 13.9119 13.2291 14.0795 13.1277C14.2385 13.0315 14.3975 12.9352 14.56 12.8425C14.7141 12.7612 14.852 12.6519 14.9667 12.52C15.054 12.4246 15.1093 12.3039 15.125 12.175C15.1406 12.0461 15.1158 11.9154 15.0539 11.8015C14.9558 11.6264 14.8096 11.4838 14.6328 11.391C14.3862 11.2593 14.1537 11.1273 13.9216 10.9953C13.7392 10.892 13.5524 10.7837 13.366 10.6758C13.2112 10.5861 13.0567 10.4966 12.9052 10.4101C12.8918 10.4029 12.8768 10.3991 12.8615 10.3991C12.8463 10.3991 12.8313 10.4029 12.8179 10.4101C12.6717 10.5207 12.52 10.6256 12.366 10.7319C12.2752 10.7946 12.1835 10.8579 12.0919 10.9231C12.0777 10.9361 12.0665 10.9519 12.059 10.9697C12.0515 10.9874 12.0479 11.0066 12.0484 11.0259V11.9641C12.0557 11.9641 12.0593 11.9604 12.0629 11.9568C12.0665 11.9531 12.0702 11.9495 12.0774 11.9495C12.2154 11.8615 12.3496 11.7772 12.4839 11.693C12.6181 11.6087 12.7524 11.5244 12.8904 11.4365C12.9011 11.4291 12.9137 11.4251 12.9267 11.4251C12.9397 11.4251 12.9524 11.4291 12.9631 11.4365C13.0707 11.5016 13.1784 11.5632 13.2861 11.6248C13.3962 11.6878 13.5064 11.7508 13.6164 11.8175C13.7065 11.8607 13.7939 11.9097 13.8778 11.9641C13.7329 12.0522 13.6022 12.1257 13.4715 12.1988C12.9921 12.4771 12.4985 12.7557 12.005 13.0343C11.9911 13.0442 11.9799 13.0575 11.9723 13.0728C11.9647 13.0882 11.961 13.1052 11.9615 13.1224Z" fill="currentcolor"/>
</g>
</g>
<defs>
<clipPath id="clip0_12674_109625">
<rect width="16" height="16" fill="currentcolor"/>
</clipPath>
<clipPath id="clip1_12674_109625">
<rect width="16" height="16" fill="currentcolor"/>
</clipPath>
</defs>
</svg>
