<svg width="16" height="17" viewBox="0 0 16 17" fill="none" xmlns="http://www.w3.org/2000/svg">
<g clip-path="url(#clip0_617_27724)">
<path d="M8 16.5C12.4183 16.5 16 12.9183 16 8.5C16 4.08172 12.4183 0.5 8 0.5C3.58172 0.5 0 4.08172 0 8.5C0 12.9183 3.58172 16.5 8 16.5Z" fill="#6AA9FF"/>
<path d="M16 8.5C16 4.10594 12.3941 0.5 8 0.5V16.5C12.3941 16.5 16 12.8941 16 8.5Z" fill="#4895FF"/>
<path d="M8 15.5625C11.9005 15.5625 15.0625 12.4005 15.0625 8.5C15.0625 4.59949 11.9005 1.4375 8 1.4375C4.09949 1.4375 0.9375 4.59949 0.9375 8.5C0.9375 12.4005 4.09949 15.5625 8 15.5625Z" fill="#EDF5FF"/>
<path d="M15.0625 8.5C15.0625 4.62275 11.8772 1.4375 8 1.4375V15.5625C11.8772 15.5625 15.0625 12.3772 15.0625 8.5Z" fill="#D5E8FE"/>
<path d="M4.02246 12.9453C4.28134 12.9453 4.49121 12.7354 4.49121 12.4766C4.49121 12.2177 4.28134 12.0078 4.02246 12.0078C3.76358 12.0078 3.55371 12.2177 3.55371 12.4766C3.55371 12.7354 3.76358 12.9453 4.02246 12.9453Z" fill="#47568C"/>
<path d="M11.9775 4.99219C12.2364 4.99219 12.4463 4.78232 12.4463 4.52344C12.4463 4.26455 12.2364 4.05469 11.9775 4.05469C11.7187 4.05469 11.5088 4.26455 11.5088 4.52344C11.5088 4.78232 11.7187 4.99219 11.9775 4.99219Z" fill="#29376D"/>
<path d="M4.02246 4.99219C4.28134 4.99219 4.49121 4.78232 4.49121 4.52344C4.49121 4.26455 4.28134 4.05469 4.02246 4.05469C3.76358 4.05469 3.55371 4.26455 3.55371 4.52344C3.55371 4.78232 3.76358 4.99219 4.02246 4.99219Z" fill="#47568C"/>
<path d="M11.9775 12.9453C12.2364 12.9453 12.4463 12.7354 12.4463 12.4766C12.4463 12.2177 12.2364 12.0078 11.9775 12.0078C11.7187 12.0078 11.5088 12.2177 11.5088 12.4766C11.5088 12.7354 11.7187 12.9453 11.9775 12.9453Z" fill="#29376D"/>
<path d="M3.3125 8.96875H2.375C2.11591 8.96875 1.90625 8.75909 1.90625 8.5C1.90625 8.24091 2.11591 8.03125 2.375 8.03125H3.3125C3.57159 8.03125 3.78125 8.24091 3.78125 8.5C3.78125 8.75909 3.57159 8.96875 3.3125 8.96875Z" fill="#47568C"/>
<path d="M13.625 8.96875H12.6875C12.4284 8.96875 12.2188 8.75909 12.2188 8.5C12.2188 8.24091 12.4284 8.03125 12.6875 8.03125H13.625C13.8841 8.03125 14.0938 8.24091 14.0938 8.5C14.0938 8.75909 13.8841 8.96875 13.625 8.96875Z" fill="#29376D"/>
<path d="M7.53125 2.875V3.8125C7.53125 4.07159 7.74091 4.28125 8 4.28125V2.40625C7.74091 2.40625 7.53125 2.61591 7.53125 2.875Z" fill="#47568C"/>
<path d="M8.46875 3.8125V2.875C8.46875 2.61591 8.25909 2.40625 8 2.40625V4.28125C8.25909 4.28125 8.46875 4.07159 8.46875 3.8125Z" fill="#FF7B4A"/>
<path d="M8 12.7188C7.74091 12.7188 7.53125 12.9284 7.53125 13.1875V14.125C7.53125 14.3841 7.74091 14.5938 8 14.5938C8.25909 14.5938 8.46875 14.3841 8.46875 14.125V13.1875C8.46875 12.9284 8.25909 12.7188 8 12.7188Z" fill="#47568C"/>
<path d="M11.1439 10.9811L8.46875 8.30591V5.6875C8.46875 5.42841 8.25909 5.21875 8 5.21875C7.74091 5.21875 7.53125 5.42841 7.53125 5.6875V8.5C7.53125 8.6245 7.58069 8.74353 7.66859 8.83141L8 9.16284L10.4811 11.6439C10.6642 11.827 10.9608 11.827 11.1439 11.6439C11.327 11.4608 11.327 11.1642 11.1439 10.9811Z" fill="#47568C"/>
<path d="M8.46875 3.8125V2.875C8.46875 2.61591 8.25909 2.40625 8 2.40625V4.28125C8.25909 4.28125 8.46875 4.07159 8.46875 3.8125Z" fill="#29376D"/>
<path d="M8.46875 14.125V13.1875C8.46875 12.9284 8.25909 12.7188 8 12.7188V14.5938C8.25909 14.5938 8.46875 14.3841 8.46875 14.125Z" fill="#29376D"/>
<path d="M11.1439 11.6439C11.327 11.4608 11.327 11.1642 11.1439 10.9811L8.46875 8.30591V5.6875C8.46875 5.42841 8.25909 5.21875 8 5.21875V9.16284L10.4811 11.6439C10.6642 11.827 10.9608 11.827 11.1439 11.6439Z" fill="#29376D"/>
</g>
<defs>
<clipPath id="clip0_617_27724">
<rect width="16" height="16" fill="white" transform="translate(0 0.5)"/>
</clipPath>
</defs>
</svg>
