<svg width="14" height="14" viewBox="0 0 14 14" fill="none" xmlns="http://www.w3.org/2000/svg">
<g clip-path="url(#clip0_842_32771)">
<path d="M6.9998 0.583282C5.7307 0.583282 4.49011 0.959613 3.43489 1.66469C2.37968 2.36976 1.55723 3.3719 1.07157 4.5444C0.58591 5.71689 0.458839 7.00707 0.706427 8.25178C0.954016 9.49649 1.56514 10.6398 2.46253 11.5372C3.35992 12.4346 4.50326 13.0457 5.74797 13.2933C6.99268 13.5409 8.28286 13.4138 9.45535 12.9282C10.6278 12.4425 11.63 11.6201 12.3351 10.5649C13.0401 9.50964 13.4165 8.26905 13.4165 6.99995C13.4145 5.29876 12.7378 3.66782 11.5349 2.4649C10.3319 1.26197 8.70099 0.585289 6.9998 0.583282ZM6.9998 12.25C5.96145 12.25 4.94641 11.942 4.08306 11.3652C3.2197 10.7883 2.54679 9.96835 2.14943 9.00904C1.75207 8.04973 1.6481 6.99413 1.85068 5.97573C2.05325 4.95732 2.55326 4.02186 3.28749 3.28764C4.02171 2.55341 4.95717 2.0534 5.97557 1.85083C6.99398 1.64825 8.04957 1.75222 9.00889 2.14958C9.9682 2.54694 10.7881 3.21985 11.365 4.08321C11.9419 4.94656 12.2498 5.9616 12.2498 6.99995C12.2481 8.39181 11.6944 9.72619 10.7102 10.7104C9.72604 11.6946 8.39166 12.2483 6.9998 12.25Z" fill="#71347B"/>
<path d="M7.58354 6.75855V3.50005C7.58354 3.34534 7.52208 3.19697 7.41268 3.08757C7.30329 2.97818 7.15491 2.91672 7.0002 2.91672C6.84549 2.91672 6.69712 2.97818 6.58772 3.08757C6.47833 3.19697 6.41687 3.34534 6.41687 3.50005V7.00005C6.4169 7.15475 6.47838 7.3031 6.58779 7.41247L8.33779 9.16247C8.4478 9.26873 8.59516 9.32752 8.7481 9.32619C8.90105 9.32486 9.04736 9.26352 9.15551 9.15536C9.26367 9.04721 9.32502 8.9009 9.32635 8.74795C9.32768 8.595 9.26888 8.44765 9.16262 8.33763L7.58354 6.75855Z" fill="#71347B"/>
</g>
<defs>
<clipPath id="clip0_842_32771">
<rect width="14" height="14" fill="white"/>
</clipPath>
</defs>
</svg>
