<svg width="16" height="16" viewBox="0 0 16 16" fill="none" xmlns="http://www.w3.org/2000/svg">
<path fill-rule="evenodd" clip-rule="evenodd" d="M6.86942 0.0111092H12.8728C13.7018 0.0123063 14.4965 0.342161 15.0828 0.928364C15.669 1.51457 15.9988 2.30928 16 3.1383V9.8924C15.9988 10.7214 15.669 11.5161 15.0828 12.1023C14.4965 12.6885 13.7018 13.0184 12.8728 13.0196H12.2586C12.2176 13.8104 11.8782 14.5578 11.3068 15.1097C10.7104 15.6858 9.90991 16.0018 9.08083 15.9885H3.18372C2.35443 16.0018 1.55368 15.6859 0.956918 15.1099C0.360155 14.5339 0.0160501 13.7448 0 12.9156V6.05293C0.0160501 5.22369 0.360155 4.43463 0.956918 3.85864C1.55368 3.28264 2.35443 2.96669 3.18372 2.98001H3.74183C3.76016 2.62314 3.83951 2.27164 3.97679 1.94088C4.13434 1.56131 4.3651 1.21649 4.6559 0.926106C4.94671 0.63572 5.29187 0.405455 5.67166 0.24846C6.05146 0.0914646 6.45846 0.010813 6.86942 0.0111092ZM3.73771 4.11059H3.18372C2.65408 4.0966 2.14051 4.29322 1.75562 4.65733C1.37074 5.02144 1.14596 5.52333 1.13058 6.05293V12.9065C1.14596 13.4361 1.37074 13.938 1.75562 14.3021C2.14051 14.6662 2.65408 14.8629 3.18372 14.8489H9.08083C9.61009 14.8622 10.1231 14.6654 10.5075 14.3013C10.8644 13.9633 11.0834 13.5067 11.1252 13.0196H6.86942C6.45846 13.0199 6.05146 12.9392 5.67166 12.7822C5.29187 12.6252 4.94671 12.395 4.6559 12.1046C4.3651 11.8142 4.13434 11.4694 3.97679 11.0898C3.81925 10.7102 3.73801 10.3034 3.73771 9.8924V4.11059ZM11.7002 11.889L11.697 11.889L11.6939 11.889H6.86942C6.34007 11.8884 5.83258 11.6779 5.45827 11.3036C5.08396 10.9292 4.87341 10.4217 4.87282 9.8924V3.1383C4.87341 2.60895 5.08396 2.10145 5.45827 1.72715C5.83258 1.35284 6.34007 1.14229 6.86942 1.14169H12.8728C13.4022 1.14229 13.9097 1.35284 14.284 1.72715C14.6583 2.10145 14.8688 2.60895 14.8694 3.1383V9.8924C14.8688 10.4217 14.6583 10.9292 14.284 11.3036C13.9097 11.6779 13.4022 11.8884 12.8728 11.889H11.7002ZM12.2962 4.58997H7.4415C7.29157 4.58997 7.14779 4.64952 7.04178 4.75554C6.93577 4.86155 6.87621 5.00533 6.87621 5.15526C6.87621 5.30518 6.93577 5.44897 7.04178 5.55498C7.14779 5.66099 7.29157 5.72055 7.4415 5.72055H12.2962C12.4461 5.72055 12.5899 5.66099 12.6959 5.55498C12.802 5.44897 12.8615 5.30518 12.8615 5.15526C12.8615 5.00533 12.802 4.86155 12.6959 4.75554C12.5899 4.64952 12.4461 4.58997 12.2962 4.58997ZM7.4415 7.32144H12.2962C12.4461 7.32144 12.5899 7.381 12.6959 7.48701C12.802 7.59303 12.8615 7.73681 12.8615 7.88673C12.8615 8.03666 12.802 8.18044 12.6959 8.28646C12.5899 8.39247 12.4461 8.45203 12.2962 8.45203H7.4415C7.29157 8.45203 7.14779 8.39247 7.04178 8.28646C6.93577 8.18044 6.87621 8.03666 6.87621 7.88673C6.87621 7.73681 6.93577 7.59303 7.04178 7.48701C7.14779 7.381 7.29157 7.32144 7.4415 7.32144Z" fill="currentColor"/>
</svg>
