<svg width="16" height="16" viewBox="0 0 16 16" fill="none" xmlns="http://www.w3.org/2000/svg">
<rect width="16" height="16" rx="4" fill="none"/>
<path d="M11.7077 10.2963C12.0974 10.6871 12.0974 11.3185 11.7077 11.7094C11.5078 11.9098 11.258 12 10.9981 12C10.7383 12 10.4884 11.8998 10.2886 11.7094L8 9.41434L5.71143 11.7094C5.51156 11.9098 5.26171 12 5.00187 12C4.74204 12 4.49219 11.8998 4.29232 11.7094C3.90256 11.3185 3.90256 10.6871 4.29232 10.2963L6.58089 8.00125L4.29232 5.70623C3.90256 5.31538 3.90256 4.684 4.29232 4.29314C4.68207 3.90229 5.31168 3.90229 5.70144 4.29314L7.99001 6.58816L10.2786 4.29314C10.6683 3.90229 11.2979 3.90229 11.6877 4.29314C12.0775 4.684 12.0775 5.31538 11.6877 5.70623L9.39913 8.00125L11.6877 10.2963H11.7077Z" fill="currentColor"/>
</svg>