<svg width="12" height="13" viewBox="0 0 12 13" fill="none" xmlns="http://www.w3.org/2000/svg">
<path fill-rule="evenodd" clip-rule="evenodd" d="M3.49994 2.9122C4.23996 2.41773 5.10998 2.15381 6 2.15381C7.19306 2.15516 8.33687 2.6297 9.18049 3.47332C10.0241 4.31694 10.4987 5.46075 10.5 6.65381C10.5 7.54382 10.2361 8.41385 9.74161 9.15387C9.24715 9.89389 8.54434 10.4707 7.72208 10.8113C6.89981 11.1519 5.99501 11.241 5.12209 11.0673C4.24918 10.8937 3.44736 10.4651 2.81802 9.83579C2.18868 9.20645 1.7601 8.40463 1.58647 7.53171C1.41283 6.6588 1.50195 5.754 1.84254 4.93173C2.18314 4.10947 2.75991 3.40666 3.49994 2.9122ZM3.83328 9.89654C4.47463 10.3251 5.22865 10.5538 6 10.5538C7.03398 10.5526 8.02527 10.1413 8.7564 9.41021C9.48754 8.67907 9.89881 7.68779 9.9 6.65381C9.9 5.88246 9.67127 5.12844 9.24273 4.48708C8.81419 3.84573 8.2051 3.34586 7.49247 3.05068C6.77983 2.7555 5.99567 2.67826 5.23915 2.82875C4.48262 2.97923 3.78771 3.35067 3.24229 3.89609C2.69686 4.44152 2.32542 5.13643 2.17494 5.89296C2.02446 6.64948 2.10169 7.43364 2.39687 8.14627C2.69205 8.8589 3.19193 9.468 3.83328 9.89654ZM6.00002 6.22959L7.80002 4.42959L8.22422 4.85379L6.42422 6.65379L8.22422 8.45379L7.80002 8.87799L6.00002 7.07799L4.20002 8.87799L3.77582 8.45379L5.57582 6.65379L3.77582 4.85379L4.20002 4.42959L6.00002 6.22959Z" fill="currentColor"/>
</svg>
