<svg width="20" height="20" viewBox="0 0 20 20" fill="none" xmlns="http://www.w3.org/2000/svg">
<g clip-path="url(#clip0_2699_12924)">
<path d="M16.4538 16.6281C20.0413 12.9675 20.0413 7.03249 16.4538 3.37187C12.8662 -0.28874 7.04968 -0.28874 3.46214 3.37187C-0.12541 7.03249 -0.12541 12.9675 3.46214 16.6281C7.04968 20.2887 12.8662 20.2887 16.4538 16.6281Z" fill="#46CC6B"/>
<path fill-rule="evenodd" clip-rule="evenodd" d="M19.0159 11.5903C18.3621 15.4934 15.344 18.5728 11.5189 19.2399L6.57272 14.193C5.38913 13.1963 4.63477 11.688 4.63477 9.99986C4.63477 6.99873 7.01902 4.56592 9.96025 4.56592C11.6147 4.56592 13.0929 5.33568 14.0697 6.54334L19.0159 11.5903Z" fill="#179C5F"/>
<path fill-rule="evenodd" clip-rule="evenodd" d="M15.2857 9.99986C15.2857 6.99873 12.9015 4.56592 9.96025 4.56592C7.01902 4.56592 4.63477 6.99873 4.63477 9.99986C4.63477 13.001 7.01902 15.4338 9.96025 15.4338C12.9015 15.4338 15.2857 13.001 15.2857 9.99986ZM9.07719 6.65167H9.42861V7.00309H9.07719V6.65167ZM10.1317 6.95001H9.78032V7.30143H10.1317V6.95001ZM12.1381 9.99945C12.1381 9.90754 12.1781 9.81846 12.245 9.76114L12.6133 9.4458L12.5867 9.34016C12.5544 9.21252 12.5127 9.08635 12.4625 8.96498C12.4122 8.84386 12.3525 8.72511 12.2851 8.61206L12.2292 8.5185L11.7473 8.55584C11.6592 8.56265 11.5678 8.52778 11.5025 8.46223C11.4375 8.39727 11.4028 8.30603 11.4096 8.21817L11.447 7.73476L11.3535 7.67893C11.2405 7.61147 11.1217 7.55177 11.0004 7.50144C10.8792 7.4513 10.753 7.40954 10.6254 7.37732L10.5197 7.35064L10.2053 7.71783C10.148 7.78476 10.0584 7.82468 9.96562 7.82468L9.90689 7.82458C9.83332 7.81342 9.76656 7.77718 9.71879 7.7214L9.40345 7.35309L9.29782 7.37976C9.17021 7.41197 9.04404 7.45373 8.92263 7.50394C8.80149 7.5542 8.68274 7.6139 8.5697 7.68136L8.47614 7.7372L8.51349 8.21916C8.52031 8.30719 8.48542 8.39857 8.41987 8.46387C8.35492 8.52888 8.26375 8.56362 8.1758 8.55683L7.69239 8.51937L7.63655 8.61293C7.56909 8.72597 7.5094 8.84472 7.45907 8.96605C7.40894 9.08724 7.3672 9.21341 7.33496 9.34105L7.30829 9.44668L7.6755 9.76107C7.74256 9.8185 7.7825 9.90778 7.78234 10.0003C7.78237 10.0922 7.74243 10.1813 7.67548 10.2386L7.30717 10.5539L7.33385 10.6596C7.36608 10.7872 7.40784 10.9134 7.45804 11.0348C7.50829 11.1559 7.56797 11.2746 7.63545 11.3877L7.69127 11.4812L8.17324 11.4439C8.26125 11.4371 8.35265 11.472 8.41796 11.5375C8.48297 11.6025 8.51773 11.6937 8.51091 11.7816L8.47345 12.265L8.56701 12.3208C8.68005 12.3883 8.79879 12.448 8.92013 12.4983C9.04133 12.5484 9.1675 12.5902 9.29514 12.6224L9.40077 12.6491L9.71515 12.2819C9.77247 12.215 9.86152 12.175 9.95345 12.175L10.0116 12.1751C10.0858 12.1864 10.1545 12.2232 10.2017 12.2783L10.517 12.6467L10.6227 12.62C10.7503 12.5878 10.8765 12.546 10.9979 12.4958C11.119 12.4455 11.2377 12.3858 11.3508 12.3184L11.4443 12.2625L11.407 11.7806C11.4002 11.6926 11.4351 11.6012 11.5006 11.5359C11.5656 11.4709 11.6567 11.4361 11.7447 11.4429L12.2281 11.4804L12.2839 11.3868C12.3514 11.2738 12.4111 11.155 12.4614 11.0337C12.5115 10.9125 12.5533 10.7863 12.5855 10.6587L12.6122 10.5531L12.245 10.2387C12.1779 10.1813 12.138 10.092 12.1381 9.99945ZM10.3806 9.99809C10.3806 9.78728 10.2229 9.61262 10.0193 9.58581H9.95574C9.72644 9.58581 9.5399 9.77235 9.5399 10.0017C9.5399 10.2125 9.69761 10.3872 9.90125 10.4139H9.96473C10.194 10.4139 10.3806 10.2274 10.3806 9.99809ZM10.732 9.99809C10.732 9.63547 10.4791 9.33079 10.1404 9.25113V8.89324C10.6741 8.97779 11.0834 9.44102 11.0834 9.99809C11.0834 10.5553 10.6738 11.0187 10.1399 11.103L10.1403 10.7451C10.4791 10.6655 10.732 10.3608 10.732 9.99809ZM12.1367 10.8992C12.1066 10.9718 12.0727 11.0433 12.0353 11.113L11.7718 11.0926C11.58 11.0777 11.3906 11.1487 11.2523 11.2872C11.113 11.4259 11.0417 11.6157 11.0566 11.8078L11.0769 12.0697C11.0073 12.1071 10.9357 12.1411 10.8634 12.1711C10.7908 12.2012 10.7161 12.2277 10.6405 12.2505L10.4686 12.0498C10.3819 11.9486 10.2669 11.8773 10.1392 11.8431L10.1395 11.4578C10.868 11.371 11.4348 10.7496 11.4348 9.99809C11.4348 9.24693 10.8685 8.62565 10.1404 8.53853V8.15353C10.2693 8.1195 10.3852 8.04805 10.4723 7.94638L10.6432 7.74677C10.7188 7.76957 10.7934 7.79611 10.8659 7.82608C10.9384 7.85617 11.01 7.89015 11.0796 7.92756L11.0592 8.191C11.0443 8.38272 11.1154 8.57219 11.2538 8.71054C11.3926 8.84978 11.5823 8.92113 11.7744 8.90621L12.0364 8.88591C12.0738 8.95556 12.1077 9.02707 12.1378 9.09947C12.1678 9.17202 12.1943 9.24665 12.2171 9.32236L12.0164 9.4942C11.8704 9.61926 11.7866 9.80347 11.7867 9.99921C11.7864 10.1958 11.8701 10.3804 12.0164 10.5056L12.216 10.6765C12.1933 10.7522 12.1667 10.8268 12.1367 10.8992ZM9.18848 10.0017C9.18848 10.3642 9.44129 10.6689 9.77987 10.7486L9.77951 11.1064C9.2461 11.0216 8.83706 10.5585 8.83706 10.0017C8.83706 9.44459 9.24637 8.98137 9.78003 8.89681V9.25469C9.44138 9.33435 9.18848 9.63903 9.18848 10.0017ZM9.4482 12.0534L9.27731 12.253C9.20162 12.2302 9.12704 12.2036 9.0546 12.1737C8.98207 12.1436 8.91051 12.1096 8.84086 12.0722L8.86127 11.8087C8.87614 11.617 8.80509 11.4276 8.66662 11.2892C8.5279 11.15 8.33816 11.0787 8.14609 11.0935L7.8841 11.1138C7.84669 11.0442 7.81274 10.9727 7.7827 10.9003C7.75269 10.8277 7.72612 10.7531 7.70332 10.6774L7.90403 10.5055C8.05011 10.3805 8.13384 10.1963 8.13376 10.0005C8.13411 9.80398 8.05038 9.61939 7.90405 9.49411L7.70444 9.32321C7.72724 9.24753 7.75379 9.17294 7.78376 9.1005C7.81385 9.02797 7.84783 8.95641 7.88523 8.88676L8.14868 8.90717C8.3404 8.92204 8.52986 8.85097 8.66822 8.71251C8.80745 8.57378 8.87876 8.38405 8.86389 8.19198L8.84359 7.92999C8.91321 7.89259 8.98474 7.85862 9.05713 7.82859C9.12971 7.79858 9.20434 7.77201 9.28002 7.74922L9.45188 7.94993C9.53841 8.051 9.65298 8.12222 9.78006 8.15649V8.54207C9.05198 8.62919 8.48567 9.25047 8.48567 10.0016C8.48567 10.7525 9.05152 11.3736 9.77917 11.4611L9.77878 11.8463C9.65058 11.8805 9.53513 11.9518 9.4482 12.0534ZM10.1408 12.6985H9.78938V13.05H10.1408V12.6985ZM10.492 12.9966H10.8434V13.3481H10.492V12.9966Z" fill="white"/>
</g>
<defs>
<clipPath id="clip0_2699_12924">
<rect width="19.6008" height="20" fill="white" transform="translate(0.159668)"/>
</clipPath>
</defs>
</svg>
