<svg width="16" height="16" viewBox="0 0 16 16" fill="none" xmlns="http://www.w3.org/2000/svg">
<rect width="16.0001" height="16.0002" rx="8.00007" fill="currentColor"/>
<path d="M8.00015 0C10.1211 0.00239969 12.1547 0.845971 13.6544 2.3457C15.1542 3.84547 15.9977 5.87901 16.0001 8C16.0001 9.5821 15.5314 11.1288 14.6525 12.4443C13.7735 13.7599 12.5234 14.7851 11.0617 15.3906C9.5999 15.9961 7.99142 16.1553 6.4396 15.8467C4.88775 15.538 3.46175 14.7761 2.34292 13.6572C1.22414 12.5384 0.462146 11.1124 0.15347 9.56055C-0.155134 8.00878 0.00405945 6.4002 0.609524 4.93848C1.21502 3.47677 2.24031 2.22765 3.55581 1.34863C4.87138 0.469598 6.41793 2.19191e-05 8.00015 0ZM10.6535 1.59473C9.38656 1.06996 7.99255 0.93267 6.64761 1.2002C5.3027 1.46773 4.06744 2.12803 3.09781 3.09766C2.12818 4.0673 1.46787 5.30254 1.20034 6.64746C0.932823 7.9924 1.07011 9.38642 1.59488 10.6533C2.11965 11.9202 3.00842 13.0028 4.14859 13.7646C5.28872 14.5264 6.62893 14.9336 8.00015 14.9336C9.83832 14.9315 11.6007 14.2002 12.9005 12.9004C14.2003 11.6006 14.9316 9.83819 14.9337 8C14.9337 6.62876 14.5266 5.28859 13.7648 4.14844C13.003 3.00826 11.9204 2.1195 10.6535 1.59473Z" fill="currentColor"/>
<path d="M11.1542 4L7.95415 7.20001L4.75414 4L4 4.75414L7.20001 7.95415L4 11.1542L4.75414 11.9083L7.95415 8.70829L11.1542 11.9083L11.9083 11.1542L8.70829 7.95415L11.9083 4.75414L11.1542 4Z" fill="white"/>
</svg>
