<svg width="8" height="16" viewBox="0 0 8 16" fill="none" xmlns="http://www.w3.org/2000/svg">
<path d="M7.32309 14.2733L7.09953 15.1872C6.42885 15.4519 5.89312 15.6534 5.49418 15.7919C5.09482 15.9309 4.63078 16 4.10207 16C3.29014 16 2.65862 15.8011 2.2082 15.406C1.75778 15.0094 1.53251 14.5068 1.53251 13.8971C1.53251 13.661 1.54885 13.4182 1.58284 13.1709C1.61711 12.9232 1.6716 12.6443 1.74617 12.3326L2.58434 9.36594C2.6589 9.08187 2.72228 8.81271 2.77305 8.55818C2.82453 8.30522 2.84934 8.07249 2.84934 7.86298C2.84934 7.48412 2.7709 7.21912 2.61474 7.07013C2.45857 6.92157 2.16059 6.84614 1.71821 6.84614C1.50153 6.84614 1.27883 6.88084 1.05183 6.94796C0.823829 7.01535 0.62895 7.08046 0.465332 7.14097L0.689464 6.22637C1.23854 6.00281 1.76338 5.81138 2.26542 5.65249C2.76746 5.49318 3.24182 5.41345 3.69051 5.41345C4.49684 5.41345 5.11905 5.60832 5.55599 5.99808C5.99292 6.38813 6.21132 6.89375 6.21132 7.51682C6.21132 7.64573 6.19698 7.87288 6.16615 8.19753C6.13603 8.5229 6.07997 8.82103 5.99823 9.0922L5.16365 12.0469C5.09525 12.2843 5.03373 12.5556 4.98024 12.8609C4.92503 13.1641 4.89865 13.3959 4.89865 13.5513C4.89865 13.9437 4.98612 14.2115 5.1615 14.3539C5.33816 14.4963 5.64246 14.5672 6.07466 14.5672C6.27757 14.5672 6.50844 14.5312 6.76498 14.4605C7.0208 14.3898 7.20737 14.3277 7.32309 14.2733ZM7.53475 1.86849C7.53475 2.38329 7.34073 2.82295 6.95083 3.18446C6.56193 3.54725 6.0933 3.7288 5.54509 3.7288C4.99515 3.7288 4.52538 3.54725 4.13204 3.18446C3.73941 2.8228 3.54267 2.38329 3.54267 1.86849C3.54267 1.35469 3.73941 0.91431 4.13204 0.548213C4.52466 0.18269 4.9953 0 5.54509 0C6.09316 0 6.56193 0.18312 6.95083 0.548213C7.34101 0.91431 7.53475 1.35483 7.53475 1.86849Z" fill="currentColor"/>
</svg>
