<svg width="12" height="12" viewBox="0 0 12 12" fill="none" xmlns="http://www.w3.org/2000/svg">
<path d="M6.00244 0.669189C2.9708 0.669189 0.498535 3.14145 0.498535 6.1731C0.498535 9.20474 2.9708 11.6721 6.00244 11.6721C9.03408 11.6721 11.5015 9.20474 11.5015 6.1731C11.5019 6.10702 11.4891 6.04153 11.4641 5.9804C11.439 5.91927 11.402 5.86372 11.3554 5.81695C11.3087 5.77019 11.2532 5.73313 11.1921 5.70794C11.1311 5.68274 11.0656 5.66991 10.9995 5.67017C10.9338 5.67042 10.8687 5.68364 10.8081 5.70907C10.7475 5.73449 10.6924 5.77162 10.6462 5.81834C10.5999 5.86505 10.5633 5.92043 10.5385 5.98131C10.5137 6.04218 10.5011 6.10735 10.5015 6.1731C10.5015 8.6643 8.49364 10.6721 6.00244 10.6721C3.51124 10.6721 1.49854 8.6643 1.49854 6.1731C1.49854 3.68189 3.51124 1.66919 6.00244 1.66919C6.13437 1.66868 6.26076 1.61604 6.35405 1.52275C6.44734 1.42946 6.49997 1.30307 6.50049 1.17114C6.50075 1.10548 6.48807 1.04041 6.46318 0.979652C6.43829 0.918891 6.40167 0.863627 6.35542 0.817016C6.30918 0.770405 6.2542 0.73336 6.19364 0.707996C6.13307 0.682632 6.0681 0.669445 6.00244 0.669189ZM7.8999 1.04517C7.70472 1.04706 7.52041 1.16362 7.44189 1.35571C7.3365 1.61154 7.45815 1.90435 7.71436 2.00903C7.72021 2.01149 7.72399 2.0147 7.72891 2.01678C7.98473 2.12507 8.28001 2.00393 8.38613 1.74725C8.49196 1.49244 8.3712 1.20006 8.1166 1.09393C8.10942 1.09091 8.10148 1.0858 8.09512 1.08316C8.03117 1.05681 7.96497 1.0445 7.8999 1.04517ZM9.52686 2.1272C9.39508 2.12828 9.26913 2.18117 9.17627 2.27466C8.97997 2.47009 8.97997 2.7882 9.17627 2.98364C9.18043 2.9878 9.18288 2.99025 9.18704 2.99441C9.38146 3.19173 9.69957 3.19361 9.89603 2.99838C10.0923 2.80294 10.0923 2.48483 9.89603 2.2894C9.89092 2.28429 9.88658 2.27976 9.88148 2.27484C9.78772 2.18045 9.65991 2.12731 9.52686 2.1272ZM6.00244 2.67017C5.93637 2.66978 5.87088 2.68249 5.80975 2.70757C5.74862 2.73264 5.69306 2.76958 5.6463 2.81626C5.59953 2.86294 5.56248 2.91842 5.53729 2.9795C5.51209 3.04058 5.49925 3.10605 5.49951 3.17212V6.1731C5.49978 6.26589 5.52586 6.35679 5.57484 6.4356C5.62382 6.51442 5.69377 6.57806 5.77686 6.61938L7.77686 7.61938C7.8357 7.64888 7.89978 7.66646 7.96543 7.67113C8.03108 7.6758 8.09701 7.66746 8.15943 7.6466C8.22186 7.62573 8.27954 7.59274 8.32919 7.54953C8.37883 7.50631 8.41946 7.45372 8.44873 7.39478C8.47822 7.33594 8.49581 7.27185 8.50048 7.2062C8.50515 7.14055 8.49681 7.07462 8.47594 7.0122C8.45508 6.94977 8.42209 6.89209 8.37887 6.84244C8.33566 6.7928 8.28307 6.75217 8.22412 6.7229L6.50049 5.86255V3.17212C6.50075 3.10646 6.48807 3.04139 6.46318 2.98063C6.43829 2.91987 6.40167 2.8646 6.35542 2.81799C6.30918 2.77138 6.2542 2.73434 6.19364 2.70897C6.13307 2.68361 6.0681 2.67042 6.00244 2.67017ZM10.6196 3.74536C10.5542 3.74498 10.4876 3.75746 10.4233 3.78442C10.1666 3.89055 10.0455 4.18583 10.1538 4.44165C10.1563 4.4477 10.1595 4.4511 10.1616 4.4562C10.2662 4.71232 10.5591 4.83503 10.8149 4.72964C11.071 4.62496 11.1937 4.33214 11.0883 4.07632C11.0855 4.06951 11.083 4.06385 11.0806 4.0578C11.0021 3.86418 10.816 3.7465 10.6196 3.74536Z" fill="#5B5B5B"/>
</svg>
