<svg width="16" height="16" viewBox="0 0 16 16" fill="none" xmlns="http://www.w3.org/2000/svg">
<g clip-path="url(#clip0_886_18378)">
<path d="M7 8C7 8.14175 6.93985 8.27682 6.83447 8.37165L4.33447 10.6216C4.12922 10.8064 3.81307 10.7897 3.62835 10.5845C3.44362 10.3792 3.46027 10.0631 3.66552 9.87835L5.75257 8L3.66552 6.12165C3.46027 5.93692 3.44362 5.62077 3.62835 5.41552C3.81307 5.21027 4.12922 5.19362 4.33447 5.37835L6.83447 7.62835C6.93985 7.72317 7 7.85825 7 8Z" fill="currentColor"/>
<path d="M12 10.75C12.2761 10.75 12.5 10.5261 12.5 10.25C12.5 9.97385 12.2761 9.75 12 9.75H8C7.72385 9.75 7.5 9.97385 7.5 10.25C7.5 10.5261 7.72385 10.75 8 10.75H12Z" fill="currentColor"/>
<path fill-rule="evenodd" clip-rule="evenodd" d="M0.5 4.5C0.5 2.29086 2.29086 0.5 4.5 0.5H11.5C13.7092 0.5 15.5 2.29086 15.5 4.5V11.5C15.5 13.7092 13.7092 15.5 11.5 15.5H4.5C2.29086 15.5 0.5 13.7092 0.5 11.5V4.5ZM4.5 1.5C2.84315 1.5 1.5 2.84315 1.5 4.5V11.5C1.5 13.1568 2.84315 14.5 4.5 14.5H11.5C13.1568 14.5 14.5 13.1568 14.5 11.5V4.5C14.5 2.84315 13.1568 1.5 11.5 1.5H4.5Z" fill="currentColor"/>
</g>
<defs>
<clipPath id="clip0_886_18378">
<rect width="16" height="16" fill="white"/>
</clipPath>
</defs>
</svg>
