<svg width="17" height="16" viewBox="0 0 17 16" fill="none"
    xmlns="http://www.w3.org/2000/svg">
    <path d="M5.14941 16H12.616C14.9694 16 16.8828 14.0867 16.8828 11.7333V4.26668C16.8828 1.91333 14.9694 0 12.616 0H5.14941C2.79606 0 0.882812 1.91333 0.882812 4.26668V11.7333C0.882812 14.0867 2.79606 16 5.14941 16ZM12.8322 7.74654L11.6435 6.55778C11.3494 6.26371 11.3494 5.78739 11.6435 5.49337C11.9375 5.1993 12.4139 5.1993 12.7078 5.49337L14.6816 7.46708C14.9756 7.76103 14.9756 8.23759 14.6816 8.53154L12.7078 10.5052C12.4139 10.7993 11.9376 10.7993 11.6435 10.5052C11.3494 10.2112 11.3494 9.73486 11.6435 9.44084L12.8322 8.25208C12.9718 8.11247 12.9718 7.88615 12.8322 7.74654ZM8.92578 3.78866C9.00439 3.38066 9.39478 3.11235 9.80713 3.19246C10.2152 3.27116 10.4827 3.66589 10.4033 4.07385L8.83464 12.21C8.75502 12.625 8.35279 12.8849 7.95329 12.8061C7.54525 12.7275 7.27767 12.3327 7.3571 11.9247L8.92578 3.78866ZM3.07878 7.46708L5.05257 5.49337C5.3466 5.1993 5.82292 5.1993 6.11702 5.49337C6.41097 5.78739 6.41097 6.26371 6.11702 6.55778L4.92822 7.74654C4.78857 7.88615 4.78857 8.11247 4.92822 8.25208L6.11702 9.44084C6.41097 9.73486 6.41097 10.2112 6.11702 10.5052C5.82295 10.7992 5.34661 10.7994 5.05257 10.5052L3.07878 8.53154C2.78483 8.23759 2.78483 7.76103 3.07878 7.46708Z" fill="currentColor"/>
</svg>
