<svg width="18" height="18" viewBox="0 0 18 18" fill="none" xmlns="http://www.w3.org/2000/svg">
<path d="M17.9499 5.63627V9.81067C17.9499 13.4967 16.0013 15.4453 12.3145 15.4453H11.897C11.8646 15.4452 11.8326 15.4527 11.8036 15.4672C11.7747 15.4817 11.7495 15.5028 11.7301 15.5288L10.4777 17.1985C10.3074 17.4404 10.0827 17.6389 9.82173 17.7781C9.56072 17.9173 9.27069 17.9933 8.97495 18C8.67919 17.9934 8.38911 17.9175 8.12808 17.7783C7.86705 17.6391 7.64238 17.4405 7.47217 17.1985L6.21985 15.5288C6.17191 15.4876 6.11455 15.4589 6.05288 15.4453H5.63544C2.15649 15.4453 0 14.5027 0 9.80983V5.63544C0 1.94861 1.94861 0 5.63544 0H12.3145C16.0013 0 17.9499 1.94861 17.9499 5.63627Z" fill="#B9F3E9"/>
<path d="M12.3145 0H5.63544C1.94861 0 0 1.94861 0 5.63544V9.80983C0 14.5027 2.15649 15.4453 5.63544 15.4453H6.05288C6.11455 15.4589 6.17191 15.4876 6.21985 15.5288L7.47217 17.1985C7.64238 17.4405 7.86705 17.6391 8.12808 17.7783C8.38911 17.9175 8.67919 17.9934 8.97495 18C9.27069 17.9933 9.56072 17.9173 9.82173 17.7781C10.0827 17.6389 10.3074 17.4404 10.4777 17.1985L11.7301 15.5288C11.7495 15.5028 11.7747 15.4817 11.8036 15.4672C11.8326 15.4527 11.8646 15.4452 11.897 15.4453H12.3145C16.0013 15.4453 17.9499 13.4967 17.9499 9.81067V5.63627C17.9499 1.94861 16.0013 0 12.3145 0ZM16.6976 9.81067C16.6976 12.8004 15.305 14.1929 12.3145 14.1929H11.897C11.6703 14.1936 11.4468 14.2467 11.2441 14.3481C11.0413 14.4495 10.8647 14.5964 10.7282 14.7774L9.47588 16.4471C9.42543 16.5354 9.35252 16.6089 9.26455 16.6599C9.17658 16.711 9.07667 16.7379 8.97495 16.7379C8.87324 16.7379 8.77333 16.711 8.68536 16.6599C8.59739 16.6089 8.52448 16.5354 8.47402 16.4471L7.22171 14.7774C7.08015 14.6019 6.90252 14.4589 6.70085 14.358C6.49919 14.2572 6.2782 14.2009 6.05288 14.1929H5.63544C2.54638 14.1929 1.25232 13.5835 1.25232 9.80983V5.63544C1.25232 2.6449 2.6449 1.25232 5.63544 1.25232H12.3145C15.305 1.25232 16.6976 2.64573 16.6976 5.63627V9.81067ZM6.07792 6.68738L4.85148 7.91466L6.07792 9.14193C6.13944 9.19925 6.18878 9.26838 6.22301 9.34519C6.25723 9.422 6.27563 9.50491 6.27712 9.58899C6.2786 9.67306 6.26313 9.75657 6.23164 9.83454C6.20015 9.91251 6.15328 9.98334 6.09382 10.0428C6.03436 10.1023 5.96353 10.1491 5.88556 10.1806C5.8076 10.2121 5.72408 10.2276 5.64001 10.2261C5.55593 10.2246 5.47302 10.2062 5.39621 10.172C5.3194 10.1378 5.25027 10.0884 5.19295 10.0269L3.52319 8.35714C3.46503 8.29906 3.41889 8.23009 3.38741 8.15416C3.35593 8.07824 3.33972 7.99685 3.33972 7.91466C3.33972 7.83246 3.35593 7.75108 3.38741 7.67515C3.41889 7.59922 3.46503 7.53025 3.52319 7.47217L5.19295 5.80241C5.25027 5.74089 5.3194 5.69155 5.39621 5.65733C5.47302 5.6231 5.55593 5.6047 5.64001 5.60322C5.72408 5.60173 5.8076 5.6172 5.88556 5.64869C5.96353 5.68018 6.03436 5.72706 6.09382 5.78652C6.15328 5.84598 6.20015 5.9168 6.23164 5.99477C6.26313 6.07274 6.2786 6.15625 6.27712 6.24032C6.27563 6.3244 6.25723 6.40731 6.22301 6.48412C6.18878 6.56093 6.13944 6.63006 6.07792 6.68738ZM14.4267 7.47217C14.4849 7.53025 14.531 7.59922 14.5625 7.67515C14.594 7.75108 14.6102 7.83246 14.6102 7.91466C14.6102 7.99685 14.594 8.07824 14.5625 8.15416C14.531 8.23009 14.4849 8.29906 14.4267 8.35714L12.757 10.0269C12.6383 10.1375 12.4813 10.1977 12.319 10.1949C12.1568 10.192 12.0021 10.1263 11.8873 10.0116C11.7726 9.89683 11.7069 9.74206 11.704 9.57984C11.7012 9.41762 11.7614 9.26063 11.872 9.14193L13.0984 7.91466L11.872 6.68738C11.8105 6.63006 11.7611 6.56093 11.7269 6.48412C11.6927 6.40731 11.6743 6.3244 11.6728 6.24032C11.6713 6.15625 11.6868 6.07274 11.7183 5.99477C11.7498 5.9168 11.7966 5.84598 11.8561 5.78652C11.9155 5.72706 11.9864 5.68018 12.0643 5.64869C12.1423 5.6172 12.2258 5.60173 12.3099 5.60322C12.394 5.6047 12.4769 5.6231 12.5537 5.65733C12.6305 5.69155 12.6996 5.74089 12.757 5.80241L14.4267 7.47217ZM10.3851 6.21317L8.71531 10.1096C8.6838 10.1865 8.63729 10.2564 8.5785 10.3151C8.5197 10.3739 8.44979 10.4203 8.37285 10.4518C8.29591 10.4833 8.21347 10.4991 8.13035 10.4984C8.04723 10.4976 7.96508 10.4803 7.88871 10.4475C7.81233 10.4147 7.74325 10.367 7.6855 10.3072C7.62775 10.2475 7.58248 10.1768 7.55233 10.0993C7.52219 10.0218 7.50777 9.93915 7.50992 9.85605C7.51206 9.77295 7.53073 9.69111 7.56484 9.61531L9.2346 5.71892C9.30198 5.56916 9.4255 5.45187 9.57854 5.39231C9.73158 5.33275 9.9019 5.3357 10.0528 5.40053C10.2037 5.46535 10.3231 5.58685 10.3852 5.73886C10.4474 5.89086 10.4473 6.0612 10.3851 6.21317Z" fill="#00D3AD"/>
</svg>
