<svg width="17" height="16" viewBox="0 0 17 16" fill="none" xmlns="http://www.w3.org/2000/svg">
<g clip-path="url(#clip0_11890_1615)">
<path d="M8.88086 0C6.74402 0 4.73499 0.832153 3.224 2.34314C1.71301 3.85413 0.880859 5.86316 0.880859 8C0.880859 10.1368 1.71301 12.1459 3.224 13.6569C4.73499 15.1678 6.74402 16 8.88086 16C11.0177 16 13.0267 15.1678 14.5377 13.6569C16.0487 12.1459 16.8809 10.1368 16.8809 8C16.8809 5.86316 16.0487 3.85413 14.5377 2.34314C13.0267 0.832153 11.0177 0 8.88086 0ZM8.88086 14.75C5.15894 14.75 2.13086 11.7219 2.13086 8C2.13086 4.27808 5.15894 1.25 8.88086 1.25C12.6028 1.25 15.6309 4.27808 15.6309 8C15.6309 11.7219 12.6028 14.75 8.88086 14.75ZM13.2023 9.0625L12.3184 9.94641L8.88086 6.50891L5.44336 9.94641L4.55945 9.0625L8.88086 4.74109L13.2023 9.0625Z" fill="currentColor"/>
</g>
<defs>
<clipPath id="clip0_11890_1615">
<rect width="16" height="16" fill="white" transform="matrix(1 0 0 -1 0.880859 16)"/>
</clipPath>
</defs>
</svg>
