<svg width="16" height="17" viewBox="0 0 16 17" fill="currentColor" xmlns="http://www.w3.org/2000/svg">
<path d="M7.99259 0.425795C6.60361 0.423738 5.23815 0.784566 4.03119 1.47261C2.82423 2.16065 1.81756 3.15208 1.11071 4.34888C0.403864 5.54569 0.0213084 6.90642 0.000864707 8.29657C-0.019579 9.68671 0.322798 11.0581 0.994147 12.2752L0.0306984 15.4898C-0.00180451 15.5984 -0.0084979 15.7131 0.0111526 15.8247C0.0308031 15.9363 0.0762534 16.0418 0.143876 16.1328C0.211498 16.2237 0.29942 16.2975 0.400625 16.3484C0.501829 16.3993 0.613514 16.4258 0.726765 16.4258C0.797617 16.4257 0.868088 16.4154 0.93602 16.3952L4.14752 15.4309C5.21577 16.0206 6.40473 16.3578 7.62329 16.4165C8.84185 16.4752 10.0577 16.2539 11.1776 15.7696C12.2975 15.2853 13.2918 14.5508 14.0842 13.6223C14.8767 12.6939 15.4463 11.5962 15.7494 10.4134C16.0525 9.23055 16.0811 7.99396 15.8329 6.79836C15.5847 5.60276 15.0664 4.4799 14.3176 3.51582C13.5689 2.55173 12.6096 1.77201 11.5132 1.2364C10.4169 0.700787 9.21256 0.423503 7.99259 0.425795ZM7.99259 14.9712C6.80128 14.9697 5.63321 14.6412 4.61544 14.0214C4.50155 13.9529 4.3712 13.9167 4.23834 13.9167C4.16769 13.9164 4.0974 13.9267 4.02981 13.9472L1.81083 14.6141L2.47638 12.3923C2.50527 12.2956 2.51373 12.1939 2.50122 12.0938C2.48871 11.9936 2.45551 11.8971 2.40372 11.8105C1.6577 10.5731 1.3422 9.12326 1.50651 7.68742C1.67081 6.25158 2.30567 4.91066 3.31189 3.87418C4.31811 2.8377 5.639 2.16404 7.06817 1.95847C8.49735 1.7529 9.95431 2.02699 11.2114 2.73793C12.4685 3.44886 13.4549 4.55658 14.0165 5.888C14.5781 7.21943 14.6832 8.69957 14.3155 10.0971C13.9478 11.4947 13.1279 12.731 11.9839 13.6128C10.84 14.4946 9.43645 14.9723 7.99259 14.9712Z" fill="currentColor"/>
</svg>
