<svg width="17" height="14" viewBox="0 0 17 14" fill="none" xmlns="http://www.w3.org/2000/svg">
<path d="M12.083 0.34137H5.67988C3.03345 0.34137 0.880859 2.49397 0.880859 5.14039V6.39972C0.880859 9.04557 3.03345 11.1982 5.67931 11.1982H5.86579L5.55498 12.8886C5.50664 13.1533 5.6229 13.4169 5.85197 13.5597C5.95845 13.6259 6.07702 13.6587 6.19616 13.6587C6.33314 13.6587 6.46955 13.6149 6.58524 13.5286L9.70362 11.1987H12.0824C14.7283 11.1987 16.8809 9.04614 16.8809 6.40029V5.14039C16.8814 2.49397 14.7288 0.34137 12.083 0.34137ZM15.8454 6.39914C15.8454 8.47404 14.1573 10.1622 12.0824 10.1622H9.53153C9.41987 10.1622 9.31109 10.1984 9.2213 10.2652L6.75157 12.1104L6.99734 10.7734C7.02497 10.622 6.9841 10.4666 6.88568 10.3481C6.78726 10.2301 6.64164 10.1616 6.48797 10.1616H5.67931C3.60441 10.1616 1.91629 8.47346 1.91629 6.39857V5.14039C1.91629 3.0655 3.60441 1.37738 5.67931 1.37738H12.0824C14.1573 1.37738 15.8454 3.0655 15.8454 5.14039V6.39914Z" fill="currentColor"/>
<path d="M5.85413 4.93597C5.39368 4.93597 5.02072 5.30894 5.02072 5.76939C5.02072 6.22983 5.39368 6.6028 5.85413 6.6028C6.31458 6.6028 6.68754 6.22983 6.68754 5.76939C6.68697 5.30894 6.31401 4.93597 5.85413 4.93597Z" fill="currentColor"/>
<path d="M8.88099 4.93597C8.42054 4.93597 8.04758 5.30894 8.04758 5.76939C8.04758 6.22983 8.42054 6.6028 8.88099 6.6028C9.34144 6.6028 9.7144 6.22983 9.7144 5.76939C9.7144 5.30894 9.34144 4.93597 8.88099 4.93597Z" fill="currentColor"/>
<path d="M11.9084 4.93597C11.4479 4.93597 11.075 5.30894 11.075 5.76939C11.075 6.22983 11.4479 6.6028 11.9084 6.6028C12.3688 6.6028 12.7418 6.22983 12.7418 5.76939C12.7418 5.30894 12.3688 4.93597 11.9084 4.93597Z" fill="currentColor"/>
</svg>
