<svg width="10" height="11" viewBox="0 0 10 11" fill="none" xmlns="http://www.w3.org/2000/svg">
<path d="M-0.000732422 5.83031C-0.000732422 4.86331 0.199175 4.00325 0.598989 3.25011C1.0081 2.48768 1.58458 1.89725 2.32842 1.47884C3.07226 1.05113 3.92767 0.83728 4.89467 0.83728C6.122 0.83728 7.15408 1.16736 7.9909 1.82752C8.82772 2.47838 9.36701 3.36634 9.60875 4.49139H6.66594C6.48927 4.11947 6.24288 3.83589 5.92674 3.64063C5.61991 3.44537 5.26194 3.34774 4.85283 3.34774C4.22056 3.34774 3.71382 3.57554 3.3326 4.03114C2.96068 4.47745 2.77472 5.07717 2.77472 5.83031C2.77472 6.59274 2.96068 7.20176 3.3326 7.65736C3.71382 8.10367 4.22056 8.32682 4.85283 8.32682C5.26194 8.32682 5.61991 8.22919 5.92674 8.03393C6.24288 7.83868 6.48927 7.55509 6.66594 7.18317H9.60875C9.36701 8.30822 8.82772 9.20083 7.9909 9.86099C7.15408 10.5119 6.122 10.8373 4.89467 10.8373C3.92767 10.8373 3.07226 10.6281 2.32842 10.2097C1.58458 9.78196 1.0081 9.19153 0.598989 8.4384C0.199175 7.67596 -0.000732422 6.8066 -0.000732422 5.83031Z" fill="currentColor"/>
</svg>
