<svg width="14" height="16" viewBox="0 0 14 16" fill="none" xmlns="http://www.w3.org/2000/svg">
<path d="M9.04228 0H2.61603C1.67718 0 0.913086 0.764127 0.913086 1.70291V14.2971C0.913086 15.2358 1.67718 16 2.61603 16H11.3843C12.3226 16 13.0867 15.2359 13.0867 14.2971V4.03033L9.04228 0ZM11.3843 14.9566H2.61603C2.25251 14.9566 1.95647 14.6611 1.95647 14.2971V1.70291C1.95647 1.33943 2.25251 1.04391 2.61603 1.04391L3.43664 1.04318V1.79755C3.43664 1.9448 3.5559 2.06406 3.70311 2.06406H4.70856V3.17962H3.70311C3.5559 3.17962 3.43664 3.29889 3.43664 3.4461V4.02877C3.43664 4.17602 3.5559 4.29518 3.70311 4.29518H4.70856V5.41078H3.70311C3.5559 5.41078 3.43664 5.53005 3.43664 5.67726V6.25992C3.43664 6.40717 3.5559 6.52634 3.70311 6.52634H4.70856V7.37548C4.70856 7.52273 4.82783 7.64193 4.97508 7.64193H6.44525C6.5922 7.64193 6.71147 7.52269 6.71147 7.37548V6.79285C6.71147 6.64564 6.5922 6.52634 6.44525 6.52634H5.43954V5.41078H6.44529C6.59223 5.41078 6.7115 5.29154 6.7115 5.14433V4.5617C6.7115 4.41449 6.59223 4.29518 6.44529 4.29518H5.43954V3.17962H6.44529C6.59223 3.17962 6.7115 3.06039 6.7115 2.91318V2.33058C6.7115 2.18333 6.59223 2.0641 6.44529 2.0641H5.43954V1.04103L8.65212 1.03767V3.2683C8.65212 3.92049 9.18089 4.44983 9.83308 4.44983L12.0187 4.44359L12.0433 14.2971C12.0433 14.6611 11.7478 14.9566 11.3843 14.9566Z" fill="currentColor"/>
<path d="M5.71008 10.0144V8.65095C5.71008 8.50397 5.59088 8.38477 5.4439 8.38477H4.70437C4.55739 8.38477 4.43815 8.504 4.43815 8.65095V10.0142L4.02682 11.2226C3.91173 11.5594 3.96695 11.9336 4.17433 12.2236C4.38171 12.5131 4.71797 12.686 5.07412 12.686C5.43033 12.686 5.76663 12.5131 5.97401 12.2236C6.18138 11.9336 6.23654 11.5594 6.12148 11.2229L5.71008 10.0144ZM5.53828 11.9119C5.3249 12.2106 4.82334 12.2106 4.60992 11.9119C4.50297 11.7623 4.47449 11.5694 4.5336 11.3955L4.67165 10.9901H5.47656L5.61464 11.3957C5.67378 11.5694 5.64521 11.7623 5.53828 11.9119Z" fill="currentColor"/>
</svg>
