<svg width="16" height="16" viewBox="0 0 16 16" fill="none" xmlns="http://www.w3.org/2000/svg">
<path fill-rule="evenodd" clip-rule="evenodd" d="M15.4419 2.23255H13.711C13.5824 1.60233 13.2399 1.03591 12.7417 0.629114C12.2434 0.222317 11.62 0.00012207 10.9767 0.00012207C10.3335 0.00012207 9.71005 0.222317 9.2118 0.629114C8.71356 1.03591 8.37113 1.60233 8.24246 2.23255H0.55814C0.410112 2.23255 0.268147 2.29136 0.163475 2.39603C0.0588038 2.5007 0 2.64267 0 2.79069C0 2.93872 0.0588038 3.08069 0.163475 3.18536C0.268147 3.29003 0.410112 3.34883 0.55814 3.34883H8.24246C8.37113 3.97905 8.71356 4.54548 9.2118 4.95227C9.71005 5.35907 10.3335 5.58127 10.9767 5.58127C11.62 5.58127 12.2434 5.35907 12.7417 4.95227C13.2399 4.54548 13.5824 3.97905 13.711 3.34883H15.4419C15.5899 3.34883 15.7319 3.29003 15.8365 3.18536C15.9412 3.08069 16 2.93872 16 2.79069C16 2.64267 15.9412 2.5007 15.8365 2.39603C15.7319 2.29136 15.5899 2.23255 15.4419 2.23255ZM10.9767 4.46511C10.6456 4.46511 10.3218 4.36691 10.0465 4.18292C9.77113 3.99893 9.55652 3.73743 9.42978 3.43147C9.30305 3.12551 9.26989 2.78884 9.3345 2.46403C9.39911 2.13923 9.55858 1.84087 9.79275 1.6067C10.0269 1.37253 10.3253 1.21306 10.6501 1.14845C10.9749 1.08384 11.3116 1.117 11.6175 1.24373C11.9235 1.37047 12.185 1.58508 12.369 1.86044C12.553 2.13579 12.6512 2.45953 12.6512 2.79069C12.6506 3.23461 12.474 3.66018 12.1601 3.97408C11.8462 4.28797 11.4207 4.46456 10.9767 4.46511ZM15.4419 7.44186H7.01336C6.88469 6.81164 6.54226 6.24521 6.04401 5.83842C5.54577 5.43162 4.92229 5.20942 4.27907 5.20942C3.63585 5.20942 3.01237 5.43162 2.51413 5.83842C2.01588 6.24521 1.67345 6.81164 1.54478 7.44186H0.55814C0.410112 7.44186 0.268147 7.50066 0.163475 7.60533C0.0588038 7.71 0 7.85197 0 8C0 8.14802 0.0588038 8.28999 0.163475 8.39466C0.268147 8.49933 0.410112 8.55814 0.55814 8.55814H1.54478C1.67345 9.18836 2.01588 9.75478 2.51413 10.1616C3.01237 10.5684 3.63585 10.7906 4.27907 10.7906C4.92229 10.7906 5.54577 10.5684 6.04401 10.1616C6.54226 9.75478 6.88469 9.18836 7.01336 8.55814H15.4419C15.5899 8.55814 15.7319 8.49933 15.8365 8.39466C15.9412 8.28999 16 8.14802 16 8C16 7.85197 15.9412 7.71 15.8365 7.60533C15.7319 7.50066 15.5899 7.44186 15.4419 7.44186ZM4.27907 9.67441C3.9479 9.67441 3.62417 9.57621 3.34881 9.39222C3.07346 9.20824 2.85884 8.94673 2.73211 8.64077C2.60538 8.33481 2.57222 7.99814 2.63682 7.67333C2.70143 7.34853 2.86091 7.05017 3.09508 6.816C3.32925 6.58183 3.6276 6.42236 3.95241 6.35775C4.27721 6.29314 4.61388 6.3263 4.91984 6.45303C5.2258 6.57977 5.48731 6.79438 5.6713 7.06974C5.85529 7.3451 5.95349 7.66883 5.95349 8C5.95294 8.44391 5.77635 8.86948 5.46245 9.18338C5.14856 9.49727 4.72298 9.67386 4.27907 9.67441ZM13.711 12.6512H15.4419C15.5899 12.6512 15.7319 12.71 15.8365 12.8146C15.9412 12.9193 16 13.0613 16 13.2093C16 13.3573 15.9412 13.4993 15.8365 13.604C15.7319 13.7086 15.5899 13.7674 15.4419 13.7674H13.711C13.5824 14.3977 13.2399 14.9641 12.7417 15.3709C12.2434 15.7777 11.62 15.9999 10.9767 15.9999C10.3335 15.9999 9.71005 15.7777 9.2118 15.3709C8.71356 14.9641 8.37113 14.3977 8.24246 13.7674H0.55814C0.410112 13.7674 0.268147 13.7086 0.163475 13.604C0.0588038 13.4993 0 13.3573 0 13.2093C0 13.0613 0.0588038 12.9193 0.163475 12.8146C0.268147 12.71 0.410112 12.6512 0.55814 12.6512H8.24246C8.37113 12.0209 8.71356 11.4545 9.2118 11.0477C9.71005 10.6409 10.3335 10.4187 10.9767 10.4187C11.62 10.4187 12.2434 10.6409 12.7417 11.0477C13.2399 11.4545 13.5824 12.0209 13.711 12.6512ZM10.0465 14.6015C10.3218 14.7855 10.6456 14.8837 10.9767 14.8837C11.4207 14.8832 11.8462 14.7066 12.1601 14.3927C12.474 14.0788 12.6506 13.6532 12.6512 13.2093C12.6512 12.8781 12.553 12.5544 12.369 12.279C12.185 12.0037 11.9235 11.7891 11.6175 11.6623C11.3116 11.5356 10.9749 11.5024 10.6501 11.5671C10.3253 11.6317 10.0269 11.7911 9.79275 12.0253C9.55858 12.2595 9.39911 12.5578 9.3345 12.8826C9.26989 13.2074 9.30305 13.5441 9.42978 13.8501C9.55652 14.156 9.77113 14.4175 10.0465 14.6015Z" fill="currentColor"/>
</svg>
