<svg width="16" height="16" viewBox="0 0 16 16" fill="none" xmlns="http://www.w3.org/2000/svg">
<path d="M7.84022 8.49669C7.89307 8.49865 7.94605 8.49999 7.99952 8.49999C8.04908 8.49999 8.0984 8.49889 8.14759 8.49706C9.26673 8.52123 10.3674 8.81737 11.34 9.35863C11.6416 9.52648 12.0222 9.41808 12.1901 9.11645C12.3579 8.81481 12.2495 8.43419 11.9479 8.26635C11.5001 8.0172 11.0295 7.81188 10.5437 7.65221C11.5786 6.87634 12.2495 5.64001 12.2495 4.25C12.2495 1.90649 10.3429 0 7.99952 0C5.65601 0 3.74952 1.90649 3.74952 4.25C3.74952 5.64086 4.42115 6.87792 5.45716 7.65368C4.50807 7.96606 3.61744 8.45202 2.8379 9.09313C1.40883 10.2687 0.415176 11.9083 0.0400542 13.7101C-0.0774994 14.2746 0.0633697 14.8545 0.426406 15.301C0.787612 15.7452 1.32338 16 1.89613 16H6.78077C7.12586 16 7.40577 15.7202 7.40577 15.375C7.40577 15.0298 7.12586 14.75 6.78077 14.75H1.89613C1.62929 14.75 1.4684 14.6011 1.39613 14.5123C1.2715 14.359 1.22328 14.1595 1.26381 13.9648C1.91285 10.8473 4.66407 8.57055 7.84022 8.49669ZM4.99952 4.25C4.99952 2.59582 6.34522 1.25 7.99952 1.25C9.65369 1.25 10.9995 2.59582 10.9995 4.25C10.9995 5.85436 9.73365 7.16845 8.14832 7.24633C8.09864 7.24535 8.04908 7.24474 7.99952 7.24474C7.95069 7.24474 7.90198 7.24548 7.85328 7.24633C6.26673 7.16991 4.99952 5.85522 4.99952 4.25ZM15.9995 11.6196C16.0001 12.0371 15.8369 12.4294 15.5402 12.7246L14.3777 13.8806C14.2557 14.0019 14.0963 14.0625 13.937 14.0625C13.7765 14.0625 13.616 14.001 13.4938 13.8782C13.2504 13.6334 13.2515 13.2378 13.4962 12.9944L14.2754 12.2195H10.7335C10.0358 12.2195 9.46827 12.7871 9.46827 13.4847C9.46827 14.1824 10.0289 14.75 10.7183 14.75C11.0634 14.75 11.3433 15.0298 11.3433 15.375C11.3433 15.7202 11.0634 16 10.7183 16C10.046 16 9.41614 15.7375 8.94483 15.2608C8.4762 14.787 8.21827 14.1562 8.21827 13.4847C8.21827 12.0978 9.34656 10.9695 10.7335 10.9695H14.218L13.4974 10.2569C13.2521 10.0141 13.2498 9.6184 13.4926 9.37304C13.7352 9.12768 14.131 9.12536 14.3765 9.36815L15.5371 10.5159C15.8347 10.8102 15.9989 11.2021 15.9995 11.6196Z" fill="currentColor"/>
</svg>
