<svg width="25" height="23" viewBox="0 0 25 23" fill="none" xmlns="http://www.w3.org/2000/svg">
<g clip-path="url(#clip0_2166_3137)">
<path d="M0.303711 4.54669C0.303711 2.33755 2.09457 0.546692 4.30371 0.546692H20.0762C22.2853 0.546692 24.0762 2.33755 24.0762 4.54669V18.3067C24.0762 20.5158 22.2853 22.3067 20.0762 22.3067H4.30371C2.09458 22.3067 0.303711 20.5158 0.303711 18.3067V4.54669Z" fill="#F7ECF8"/>
<path fill-rule="evenodd" clip-rule="evenodd" d="M10.7828 5.69026C10.43 6.04306 10.1876 6.67337 10.1876 7.86153V7.88218H11.6534C12.9943 7.88218 14.1343 8.14561 14.9195 8.93087C15.7048 9.71613 15.9682 10.8561 15.9682 12.197V13.6628H15.9889C17.177 13.6628 17.8073 13.4204 18.1601 13.0676C18.5129 12.7148 18.7553 12.0845 18.7553 10.8964V7.86153C18.7553 6.67337 18.5129 6.04306 18.1601 5.69026C17.8073 5.33745 17.177 5.09508 15.9889 5.09508H12.954C11.7659 5.09508 11.1356 5.33745 10.7828 5.69026ZM15.9682 15.2112H15.9889C17.3297 15.2112 18.4698 14.9478 19.255 14.1625C20.0403 13.3773 20.3037 12.2372 20.3037 10.8964V7.86153C20.3037 6.52066 20.0403 5.38064 19.255 4.59538C18.4698 3.81013 17.3297 3.54669 15.9889 3.54669H12.954C11.6132 3.54669 10.4731 3.81013 9.68789 4.59538C8.90263 5.38064 8.63919 6.52066 8.63919 7.86153V7.88218H8.61855C7.27768 7.88218 6.13766 8.14561 5.3524 8.93087C4.56714 9.71613 4.30371 10.8561 4.30371 12.197V15.2319C4.30371 16.5727 4.56714 17.7127 5.3524 18.498C6.13766 19.2833 7.27768 19.5467 8.61855 19.5467H11.6534C12.9943 19.5467 14.1343 19.2833 14.9195 18.498C15.7048 17.7127 15.9682 16.5727 15.9682 15.2319V15.2112ZM14.4198 12.197C14.4198 11.0089 14.1775 10.3785 13.8247 10.0257C13.4719 9.67294 12.8415 9.43056 11.6534 9.43056H8.61855C7.43039 9.43056 6.80008 9.67294 6.44728 10.0257C6.09447 10.3785 5.8521 11.0089 5.8521 12.197V15.2319C5.8521 16.42 6.09447 17.0503 6.44728 17.4031C6.80008 17.7559 7.43039 17.9983 8.61855 17.9983H11.6534C12.8415 17.9983 13.4719 17.7559 13.8247 17.4031C14.1775 17.0503 14.4198 16.42 14.4198 15.2319V12.197Z" fill="#71347B"/>
</g>
<defs>
<clipPath id="clip0_2166_3137">
<path d="M0.303711 4.54669C0.303711 2.33755 2.09457 0.546692 4.30371 0.546692H20.0762C22.2853 0.546692 24.0762 2.33755 24.0762 4.54669V18.3067C24.0762 20.5158 22.2853 22.3067 20.0762 22.3067H4.30371C2.09458 22.3067 0.303711 20.5158 0.303711 18.3067V4.54669Z" fill="white"/>
</clipPath>
</defs>
</svg>
