<svg width="16" height="16" viewBox="0 0 16 16" fill="none" xmlns="http://www.w3.org/2000/svg">
<path fill-rule="evenodd" clip-rule="evenodd" d="M6.47905 2.14357C6.12624 2.49637 5.88387 3.12668 5.88387 4.31484V4.33548H7.34968C8.69055 4.33548 9.83057 4.59892 10.6158 5.38417C11.4011 6.16943 11.6645 7.30945 11.6645 8.65032V10.1161H11.6852C12.8733 10.1161 13.5036 9.87376 13.8564 9.52095C14.2092 9.16814 14.4516 8.53784 14.4516 7.34968V4.31484C14.4516 3.12668 14.2092 2.49637 13.8564 2.14357C13.5036 1.79076 12.8733 1.54839 11.6852 1.54839H8.65032C7.46216 1.54839 6.83186 1.79076 6.47905 2.14357ZM11.6645 11.6645H11.6852C13.026 11.6645 14.166 11.4011 14.9513 10.6158C15.7366 9.83057 16 8.69055 16 7.34968V4.31484C16 2.97396 15.7366 1.83395 14.9513 1.04869C14.166 0.263433 13.026 0 11.6852 0H8.65032C7.30945 0 6.16943 0.263433 5.38417 1.04869C4.59892 1.83395 4.33548 2.97396 4.33548 4.31484V4.33548H4.31484C2.97396 4.33548 1.83395 4.59892 1.04869 5.38417C0.263433 6.16943 0 7.30945 0 8.65032V11.6852C0 13.026 0.263433 14.166 1.04869 14.9513C1.83395 15.7366 2.97396 16 4.31484 16H7.34968C8.69055 16 9.83057 15.7366 10.6158 14.9513C11.4011 14.166 11.6645 13.026 11.6645 11.6852V11.6645ZM10.1161 8.65032C10.1161 7.46216 9.87376 6.83186 9.52095 6.47905C9.16814 6.12624 8.53784 5.88387 7.34968 5.88387H4.31484C3.12668 5.88387 2.49637 6.12624 2.14357 6.47905C1.79076 6.83186 1.54839 7.46216 1.54839 8.65032V11.6852C1.54839 12.8733 1.79076 13.5036 2.14357 13.8564C2.49637 14.2092 3.12668 14.4516 4.31484 14.4516H7.34968C8.53784 14.4516 9.16814 14.2092 9.52095 13.8564C9.87376 13.5036 10.1161 12.8733 10.1161 11.6852V8.65032Z" fill="currentColor"/>
</svg>
