<svg width="16" height="16" viewBox="0 0 16 16" fill="none" xmlns="http://www.w3.org/2000/svg">
<path fill-rule="evenodd" clip-rule="evenodd" d="M7.85998 15.438L0.59298 8.32095C0.21598 7.95195 -1.99806e-05 7.43695 0.000980019 6.90895L0.0149795 1.33095C0.0179795 0.606953 0.60698 0.0179531 1.32998 0.0159531L6.90798 0.00195312H6.91398C7.43998 0.00195312 7.95298 0.216953 8.32198 0.593953L10.3887 2.70423L11.0181 1.02749C11.0832 0.841415 11.1837 0.66986 11.3137 0.522118C11.4491 0.368372 11.6138 0.243562 11.7978 0.154724C11.9818 0.0658928 12.1815 0.0147362 12.3853 0.00405884C12.5891 -0.0066185 12.793 0.0233818 12.9852 0.09242C13.1774 0.161463 13.3542 0.268239 13.5048 0.406781C13.6556 0.545338 13.7771 0.712879 13.8621 0.899706C13.9471 1.08655 13.9935 1.28869 13.9986 1.49412C14.0035 1.69365 13.9692 1.89202 13.8979 2.0781L12.7797 5.14559L15.439 7.86095C16.191 8.62895 16.185 9.87295 15.425 10.633L10.633 15.425C9.87198 16.184 8.62798 16.19 7.85998 15.438ZM12.2736 6.53393L14.485 8.79195C14.728 9.03995 14.726 9.44195 14.481 9.68795L9.68898 14.48C9.44298 14.726 9.03998 14.728 8.79298 14.485L1.52598 7.36795C1.40498 7.24795 1.33498 7.08195 1.33498 6.91095L1.33398 1.34695L6.91198 1.33395H6.91398C7.08398 1.33395 7.24898 1.40295 7.36798 1.52495L9.87808 4.08795L8.21777 8.62041L8.99416 10.9916L11.114 9.71487L12.2736 6.53393ZM3.35204 4.66698C2.61704 4.66698 2.01904 4.06898 2.01904 3.33398C2.01904 2.59898 2.61704 2.00098 3.35204 2.00098C4.08704 2.00098 4.68504 2.59898 4.68504 3.33398C4.68504 4.06898 4.08704 4.66698 3.35204 4.66698Z" fill="currentColor"/>
</svg>
