<svg width="25" height="24" viewBox="0 0 25 24" fill="none" xmlns="http://www.w3.org/2000/svg">
<g clip-path="url(#clip0_2947_13703)">
<path d="M20.5 9.33305C20.5 8.84194 20.1019 8.44382 19.6108 8.44382H18.2283C17.8923 8.44382 17.5837 8.27099 17.3727 8.00955C17.2046 7.80132 17.0221 7.60556 16.8265 7.42368C16.3926 7.02 16.3218 6.30539 16.7648 5.91159C17.1561 5.56374 17.1569 4.95258 16.7665 4.60376L16.7139 4.55684C16.3584 4.2392 15.8213 4.2385 15.4649 4.55523L14.2991 5.59142C14.061 5.80307 13.7369 5.88376 13.4213 5.84027C13.1162 5.79823 12.8084 5.77698 12.5 5.77674C12.1949 5.77663 11.8904 5.79759 11.5887 5.83939C11.2729 5.88313 10.9485 5.80332 10.7098 5.59211L9.53426 4.552C9.17796 4.23674 8.6423 4.23738 8.28676 4.55349L8.23768 4.59713C7.8447 4.94652 7.84315 5.56009 8.23435 5.91146C8.67497 6.30721 8.60457 7.01937 8.17188 7.42377C7.97695 7.60594 7.79488 7.80178 7.62709 8.0099C7.41636 8.27128 7.10788 8.44382 6.77214 8.44382H5.38923C4.89812 8.44382 4.5 8.84194 4.5 9.33305C4.5 9.82416 4.89812 10.2223 5.38923 10.2223H5.69809C6.16271 10.2223 6.50982 10.6463 6.50246 11.1109C6.50246 11.6017 6.10462 11.9995 5.61385 11.9995H5.38862C4.89785 11.9995 4.5 12.3974 4.5 12.8881C4.5 13.3789 4.89785 13.7767 5.38862 13.7767H5.61138C6.10215 13.7767 6.5 14.1746 6.5 14.6654C6.50735 15.1299 6.16025 15.554 5.69563 15.554H5.38861C4.89785 15.554 4.5 15.9518 4.5 16.4426C4.5 16.9334 4.89785 17.3312 5.38862 17.3312H6.78412C7.11325 17.3312 7.41699 17.4968 7.626 17.7511C8.15882 18.3992 8.81964 18.9332 9.56912 19.3185C10.4748 19.7842 11.4818 20.0181 12.5 19.9995C13.5181 20.0183 14.525 19.7845 15.4307 19.3191C16.1802 18.9339 16.8411 18.4001 17.374 17.7521C17.583 17.498 17.8867 17.3324 18.2157 17.3324H19.6114C20.1022 17.3324 20.5 16.9346 20.5 16.4438C20.5 15.9531 20.1022 15.5552 19.6114 15.5552H19.3019C18.8373 15.5552 18.4902 15.1312 18.4975 14.6666C18.4975 14.1758 18.8954 13.778 19.3862 13.778H19.6108C20.1019 13.778 20.5 13.3799 20.5 12.8887C20.5 12.3976 20.1019 11.9995 19.6108 11.9995H19.3886C18.8978 11.9995 18.5 11.6017 18.5 11.1109C18.4926 10.6463 18.8398 10.2223 19.3044 10.2223H19.6108C20.1019 10.2223 20.5 9.82416 20.5 9.33305ZM16.5012 11.9995C16.5006 11.9995 16.5 12.0001 16.5 12.0007V14.6666C16.496 14.8759 16.4725 15.0844 16.4298 15.2894L16.3645 15.6678C16.3418 15.799 16.2932 15.9244 16.2215 16.0365L15.9609 16.4438C15.567 16.9939 15.0476 17.4422 14.4458 17.7514C13.844 18.0606 13.1772 18.222 12.5006 18.222C11.824 18.222 11.1572 18.0606 10.5554 17.7514C9.95361 17.4422 9.43422 16.9939 9.04031 16.4438L8.78286 16.0474C8.70911 15.9338 8.65919 15.8064 8.63614 15.6729L8.57138 15.298C8.52828 15.0902 8.50479 14.8788 8.50123 14.6666V11.1109C8.50428 10.9015 8.52777 10.6929 8.57138 10.4881L8.63587 10.1077C8.65829 9.97538 8.70711 9.84896 8.77941 9.73593L9.03908 9.32997C9.35181 8.85761 9.76491 8.46006 10.2489 8.16567L10.6749 7.90619C10.7702 7.8482 10.8744 7.80654 10.9834 7.78293L11.5572 7.65859C11.8657 7.58788 12.1811 7.55196 12.4975 7.55151C12.8172 7.55197 13.1359 7.58788 13.4477 7.65859L13.9625 7.76677C14.0714 7.78967 14.1758 7.83061 14.2713 7.8879L14.7425 8.17059C15.2305 8.45966 15.6447 8.85826 15.9523 9.3349L16.2178 9.73783C16.2935 9.85279 16.3447 9.98215 16.3681 10.1178L16.4323 10.4894C16.4755 10.6917 16.499 10.8978 16.5025 11.1047V11.9983C16.5025 11.999 16.5019 11.9995 16.5012 11.9995ZM10.5 14.6654C10.5 14.1746 10.8978 13.7767 11.3886 13.7767H13.6114C14.1022 13.7767 14.5 14.1746 14.5 14.6654C14.5 15.1561 14.1022 15.554 13.6114 15.554H11.3886C10.8978 15.554 10.5 15.1561 10.5 14.6654ZM10.5 11.1103C10.5 10.6192 10.8981 10.2211 11.3892 10.2211H13.6108C14.1019 10.2211 14.5 10.6192 14.5 11.1103C14.5 11.6014 14.1019 11.9995 13.6108 11.9995H11.3892C10.8981 11.9995 10.5 11.6014 10.5 11.1103Z" fill="#A91224"/>
</g>
<defs>
<clipPath id="clip0_2947_13703">
<path d="M0.5 4C0.5 1.79086 2.29086 0 4.5 0H20.5C22.7091 0 24.5 1.79086 24.5 4V20C24.5 22.2091 22.7091 24 20.5 24H4.5C2.29086 24 0.5 22.2091 0.5 20V4Z" fill="white"/>
</clipPath>
</defs>
</svg>
