<svg width="15" height="16" viewBox="0 0 15 16" fill="none" xmlns="http://www.w3.org/2000/svg">
<path d="M14.9 4.70781L10.2663 0.0734375C10.2194 0.0265625 10.1559 0 10.0897 0H4.84094C3.61938 0 2.62562 0.994063 2.62562 2.21563V6.60031H0.68125C0.305625 6.60031 0 6.90594 0 7.28156V11.1978C0 11.5734 0.305625 11.8791 0.68125 11.8791H2.62562V13.7844C2.62562 15.0059 3.61938 16 4.84094 16H12.7578C13.9794 16 14.9731 15.0059 14.9731 13.7844V4.88469C14.9731 4.81844 14.9469 4.75469 14.9 4.70781ZM14.4734 13.7844C14.4734 14.7306 13.7037 15.5003 12.7578 15.5003H4.84094C3.895 15.5003 3.12531 14.7306 3.12531 13.7844V11.8791H11.3562C11.7319 11.8791 12.0375 11.5734 12.0375 11.1978V7.28156C12.0375 6.90594 11.7319 6.60031 11.3562 6.60031H3.12531V2.21563C3.12531 1.26938 3.895 0.499687 4.84094 0.499687H9.83969V4.38406C9.83969 4.79781 10.1759 5.13438 10.5891 5.13438H14.4734V13.7844Z" fill="currentColor"/>
<path d="M3.86816 7.81444C4.18016 7.81444 4.45381 7.89467 4.68848 8.05467C4.92309 8.21467 5.08734 8.4361 5.18066 8.71873H4.53613C4.47213 8.5854 4.38198 8.48462 4.26465 8.41795C4.15 8.35133 4.01621 8.31834 3.86426 8.31834C3.70173 8.31838 3.55662 8.3573 3.42871 8.43456C3.30338 8.50922 3.20481 8.6162 3.13281 8.75487C3.06358 8.89342 3.02835 9.05572 3.02832 9.24217C3.02832 9.42617 3.06348 9.58912 3.13281 9.73045C3.20481 9.86905 3.30342 9.97736 3.42871 10.0547C3.55658 10.1292 3.7018 10.166 3.86426 10.166C4.01626 10.166 4.14998 10.1331 4.26465 10.0664C4.38182 9.99712 4.47217 9.8958 4.53613 9.76268H5.18066C5.08732 10.0479 4.9231 10.2707 4.68848 10.4306C4.4565 10.5879 4.18278 10.666 3.86816 10.666C3.60163 10.666 3.36044 10.6063 3.14453 10.4863C2.93126 10.3637 2.76204 10.1944 2.63672 9.9785C2.51405 9.7625 2.45215 9.51684 2.45215 9.24217C2.45219 8.9677 2.51417 8.7227 2.63672 8.50682C2.76205 8.28815 2.9312 8.11803 3.14453 7.99803C3.36039 7.87549 3.60171 7.81449 3.86816 7.81444ZM6.70703 7.85057C6.92294 7.8506 7.10684 7.88947 7.25879 7.96678C7.41069 8.04142 7.52398 8.14382 7.59863 8.2744C7.6759 8.40229 7.71478 8.5462 7.71484 8.70604C7.71484 8.88995 7.66126 9.05676 7.55469 9.20604C7.44805 9.35266 7.28967 9.45472 7.0791 9.51073L7.74707 10.6426H7.09863L6.48242 9.55467H6.21875V10.6426H5.65918V7.85057H6.70703ZM9.3457 8.78612L9.88965 7.85057H10.5215L9.64551 9.25487L10.5371 10.6426H9.89355L9.28906 9.70213L8.74121 10.6426H8.10938L8.98926 9.23436L8.09766 7.85057H8.74121L9.3457 8.78612ZM6.21875 9.13475H6.68652C6.8384 9.13475 6.9517 9.09823 7.02637 9.02635C7.10098 8.95174 7.13862 8.84926 7.13867 8.71873C7.13867 8.59073 7.10103 8.49217 7.02637 8.42284C6.9517 8.35086 6.8385 8.31444 6.68652 8.31444H6.21875V9.13475Z" fill="white"/>
</svg>
