<svg width="16" height="17" viewBox="0 0 16 17" fill="none" xmlns="http://www.w3.org/2000/svg">
<path d="M15.4273 4.75176L10.7936 0.117383C10.7467 0.0705078 10.6833 0.0439453 10.617 0.0439453H5.36828C4.14672 0.0439453 3.15297 1.03801 3.15297 2.25957V6.64426H1.20859C0.832969 6.64426 0.527344 6.94988 0.527344 7.32551V11.2418C0.527344 11.6174 0.832969 11.923 1.20859 11.923H3.15297V13.8283C3.15297 15.0499 4.14672 16.0439 5.36828 16.0439H13.2852C14.5067 16.0439 15.5005 15.0499 15.5005 13.8283V4.92863C15.5005 4.86238 15.4742 4.79863 15.4273 4.75176ZM15.0008 13.8283C15.0008 14.7746 14.2311 15.5443 13.2852 15.5443H5.36828C4.42234 15.5443 3.65266 14.7746 3.65266 13.8283V11.923H11.8836C12.2592 11.923 12.5648 11.6174 12.5648 11.2418V7.32551C12.5648 6.94988 12.2592 6.64426 11.8836 6.64426H3.65266V2.25957C3.65266 1.31332 4.42234 0.543633 5.36828 0.543633H10.367V4.42801C10.367 4.84176 10.7033 5.17832 11.1164 5.17832H15.0008V13.8283Z" fill="currentColor"/>
<path fill-rule="evenodd" clip-rule="evenodd" d="M2.21242 8.42371C2.05909 8.69371 1.98242 9.00038 1.98242 9.34371C1.98242 9.68704 2.05909 9.99371 2.21242 10.2637C2.36909 10.5337 2.58076 10.7454 2.84742 10.8987C3.11742 11.0487 3.41909 11.1237 3.75242 11.1237C4.14576 11.1237 4.48742 11.0254 4.77742 10.8287C5.07076 10.6287 5.27576 10.3504 5.39242 9.99371H4.58742C4.50742 10.1604 4.39409 10.287 4.24742 10.3737C4.10409 10.457 3.93742 10.4987 3.74742 10.4987C3.54409 10.4987 3.36242 10.452 3.20242 10.3587C3.04576 10.262 2.92242 10.127 2.83242 9.95371C2.74576 9.77704 2.70242 9.57371 2.70242 9.34371C2.70242 9.11038 2.74576 8.90704 2.83242 8.73371C2.92242 8.56038 3.04576 8.42704 3.20242 8.33371C3.36242 8.23704 3.54409 8.18871 3.74742 8.18871C3.93742 8.18871 4.10409 8.23038 4.24742 8.31371C4.39409 8.39704 4.50742 8.52204 4.58742 8.68871H5.39242C5.27576 8.33538 5.07076 8.05871 4.77742 7.85871C4.48409 7.65871 4.14242 7.55871 3.75242 7.55871C3.41909 7.55871 3.11742 7.63538 2.84742 7.78871C2.58076 7.93871 2.36909 8.15038 2.21242 8.42371ZM6.53531 11.0037C6.73198 11.087 6.95198 11.1287 7.19531 11.1287C7.45198 11.1287 7.67365 11.082 7.86031 10.9887C8.04698 10.892 8.18865 10.7637 8.28531 10.6037C8.38198 10.4437 8.43031 10.2704 8.43031 10.0837C8.43031 9.86704 8.37865 9.69204 8.27531 9.55871C8.17198 9.42538 8.04865 9.32538 7.90531 9.25871C7.76198 9.19204 7.57698 9.12538 7.35031 9.05871C7.18365 9.00871 7.05365 8.96538 6.96031 8.92871C6.87031 8.88871 6.79365 8.83871 6.73031 8.77871C6.67031 8.71538 6.64031 8.63704 6.64031 8.54371C6.64031 8.41038 6.68031 8.30871 6.76031 8.23871C6.84365 8.16871 6.95365 8.13371 7.09031 8.13371C7.24698 8.13371 7.37198 8.17371 7.46531 8.25371C7.56198 8.33038 7.61365 8.42871 7.62031 8.54871H8.39031C8.36698 8.23538 8.24198 7.99204 8.01531 7.81871C7.79198 7.64204 7.50031 7.55371 7.14031 7.55371C6.90031 7.55371 6.68698 7.59538 6.50031 7.67871C6.31365 7.75871 6.16865 7.87538 6.06531 8.02871C5.96198 8.18204 5.91031 8.36204 5.91031 8.56871C5.91031 8.78871 5.96031 8.96538 6.06031 9.09871C6.16365 9.22871 6.28531 9.32704 6.42531 9.39371C6.56865 9.45704 6.75365 9.52204 6.98031 9.58871C7.14698 9.63538 7.27698 9.67871 7.37031 9.71871C7.46698 9.75538 7.54698 9.80704 7.61031 9.87371C7.67365 9.94038 7.70531 10.0254 7.70531 10.1287C7.70531 10.2554 7.65865 10.3587 7.56531 10.4387C7.47198 10.5154 7.34365 10.5537 7.18031 10.5537C7.02031 10.5537 6.89365 10.512 6.80031 10.4287C6.71031 10.3454 6.66031 10.232 6.65031 10.0887H5.90031C5.90365 10.302 5.96198 10.487 6.07531 10.6437C6.18865 10.8004 6.34198 10.9204 6.53531 11.0037ZM10.8922 11.0937L12.1722 7.60371H11.4272L10.4722 10.3787L9.51219 7.60371H8.76219L10.0422 11.0937H10.8922Z" fill="white"/>
</svg>
