<svg width="25" height="24" viewBox="0 0 25 24" fill="none" xmlns="http://www.w3.org/2000/svg">
<g clip-path="url(#clip0_5947_6125)">
<path d="M0.95 15.2013C0.65 14.1513 0.5 13.1013 0.5 12.0013C0.5 7.10127 3.6 2.60127 8.2 0.80127L8.8 2.35127C4.85 3.90127 2.15 7.75127 2.15 12.0013C2.15 12.9513 2.25 13.8513 2.5 14.7513L0.95 15.2013Z" fill="#69D3A7"/>
<path d="M21.7502 7.25049C19.9502 3.80049 16.4002 1.65049 12.5502 1.65049C11.2002 1.65049 9.8502 1.90049 8.6002 2.45049L7.9502 0.900488C9.4002 0.300488 10.9502 0.000488281 12.5502 0.000488281C17.0502 0.000488281 21.1502 2.50049 23.2502 6.45049L21.7502 7.25049Z" fill="url(#paint0_linear_5947_6125)"/>
<path d="M8.95 9.50127C9.9 9.50127 10.7 10.0013 11.1 10.9013L11.15 10.9513L12.8 10.4013L12.75 10.3013C12.1 8.75127 10.65 7.80127 8.95 7.80127C7.75 7.80127 6.75 8.20127 5.95 9.00127C5.15 9.80127 4.75 10.8013 4.75 11.9513C4.75 13.1013 5.15 14.1013 5.95 14.9013C6.75 15.7013 7.75 16.1013 8.95 16.1013C10.65 16.1013 12.1 15.1513 12.75 13.6013L12.8 13.5013L11.15 12.9513L11.1 13.0013C10.75 13.9013 9.95 14.4013 8.95 14.4013C8.25 14.4013 7.7 14.1513 7.25 13.7013C6.8 13.2513 6.55 12.6513 6.55 11.9513C6.55 11.2513 6.8 10.6513 7.25 10.1513C7.7 9.75127 8.25 9.50127 8.95 9.50127Z" fill="#1B1E2E"/>
<path d="M19.1501 8.05127L16.8501 13.9513L14.5001 8.05127H12.6001L15.9001 16.1013L13.5001 21.7013L15.1501 22.0513L20.9001 8.05127H19.1501Z" fill="#1B1E2E"/>
<path d="M13.7998 21.0013L13.3998 22.0013C13.2998 22.2013 13.1498 22.3513 12.9498 22.3513C12.7998 22.3513 12.6498 22.3513 12.5498 22.3513C7.7498 22.3513 3.4998 18.9513 2.4498 14.3013L0.799805 14.6513C1.3998 17.2513 2.8498 19.6513 4.9498 21.3513C7.0998 23.0513 9.7498 24.0013 12.4998 24.0013C12.6498 24.0013 12.7998 24.0013 12.9998 24.0013C13.8498 23.9513 14.6498 23.4513 14.9498 22.6513L15.4998 21.3513L13.7998 21.0013Z" fill="url(#paint1_linear_5947_6125)"/>
</g>
<defs>
<linearGradient id="paint0_linear_5947_6125" x1="11.2839" y1="-0.778762" x2="20.4164" y2="8.98209" gradientUnits="userSpaceOnUse">
<stop offset="0.0939" stop-color="#58D09E"/>
<stop offset="0.9883" stop-color="#58D09E" stop-opacity="0"/>
</linearGradient>
<linearGradient id="paint1_linear_5947_6125" x1="0.372255" y1="17.4595" x2="17.8195" y2="22.1033" gradientUnits="userSpaceOnUse">
<stop offset="0.0774" stop-color="#58D09E"/>
<stop offset="0.7617" stop-color="#1B1E2E"/>
</linearGradient>
<clipPath id="clip0_5947_6125">
<rect width="24" height="24" fill="white" transform="translate(0.5 0.000488281)"/>
</clipPath>
</defs>
</svg>
