<svg width="17" height="17" viewBox="0 0 17 17" fill="none" xmlns="http://www.w3.org/2000/svg">
<path fill-rule="evenodd" clip-rule="evenodd" d="M8.0317 16.5C3.62048 16.5 0.0317001 12.9112 0.0317001 8.5C0.0317001 4.08878 3.62048 0.5 8.0317 0.5C12.4429 0.5 16.0317 4.08878 16.0317 8.5C16.0317 12.9112 12.4429 16.5 8.0317 16.5ZM9.50242 12.7529C10.6395 12.3586 11.571 11.5207 12.0884 10.4469H10.2561C10.1533 11.0646 10.0012 11.6342 9.80473 12.1255C9.71211 12.357 9.61092 12.5663 9.50242 12.7529ZM3.97504 10.4469C4.49245 11.5206 5.42395 12.3586 6.56098 12.753C6.45251 12.5663 6.35129 12.357 6.25867 12.1255C6.06214 11.6342 5.91008 11.0646 5.80733 10.4469H3.97504ZM6.56098 4.24706C5.42395 4.64138 4.49245 5.47937 3.97504 6.55312H5.80733C5.91008 5.93541 6.06214 5.36578 6.25867 4.8745C6.35129 4.64297 6.45248 4.43366 6.56098 4.24706ZM8.0317 4C7.70364 4 7.31867 4.45291 7.02708 5.18188C6.8662 5.58409 6.73867 6.04831 6.64708 6.55312H9.41636C9.32476 6.04834 9.19726 5.58409 9.03636 5.18188C8.74473 4.45291 8.35976 4 8.0317 4ZM3.5317 8.5C3.5317 8.88628 3.58067 9.26131 3.67264 9.61931H5.70254C5.66967 9.25525 5.65223 8.88069 5.65223 8.5C5.65223 8.11931 5.66967 7.74475 5.70254 7.38069H3.67264C3.58067 7.73869 3.5317 8.11372 3.5317 8.5ZM6.53301 9.61931H9.53042C9.56536 9.25756 9.58361 8.88253 9.58361 8.5C9.58361 8.11747 9.56539 7.74244 9.53042 7.38069H6.53301C6.49808 7.74244 6.47983 8.11747 6.47983 8.5C6.47983 8.88253 6.49804 9.25756 6.53301 9.61931ZM8.0317 13C8.35976 13 8.74473 12.5471 9.03633 11.8181C9.19723 11.4159 9.32473 10.9517 9.41633 10.4469H6.64704C6.73864 10.9517 6.86617 11.4159 7.02704 11.8181C7.31867 12.5471 7.70364 13 8.0317 13ZM12.5317 8.5C12.5317 8.11372 12.4827 7.73869 12.3908 7.38069H10.3608C10.3937 7.74475 10.4111 8.11931 10.4111 8.5C10.4111 8.88069 10.3937 9.25525 10.3608 9.61931H12.3908C12.4827 9.26131 12.5317 8.88628 12.5317 8.5ZM12.0884 6.55309C11.571 5.47934 10.6395 4.64134 9.50239 4.24703C9.61086 4.43366 9.71208 4.64297 9.8047 4.8745C10.0012 5.36578 10.1533 5.93537 10.256 6.55312L12.0884 6.55309ZM13.3593 8.5C13.3593 11.4376 10.9693 13.8276 8.0317 13.8276C5.09404 13.8276 2.70411 11.4376 2.70411 8.5C2.70411 5.56238 5.09404 3.17241 8.0317 3.17241C10.9694 3.17241 13.3593 5.56238 13.3593 8.5Z" fill="url(#paint0_linear_290_14902)"/>
<defs>
<linearGradient id="paint0_linear_290_14902" x1="8.0317" y1="0.5" x2="8.0317" y2="16.5" gradientUnits="userSpaceOnUse">
<stop stop-color="#01F1FE"/>
<stop offset="1" stop-color="#4FADFE"/>
</linearGradient>
</defs>
</svg>
