<svg width="17" height="17" viewBox="0 0 17 17" fill="none" xmlns="http://www.w3.org/2000/svg">
<g clip-path="url(#clip0_290_14913)">
<path d="M13.4046 14.5045C14.8802 13.1089 15.8011 11.1328 15.8011 8.94144C15.8011 4.713 12.3732 1.28516 8.14477 1.28516C3.91633 1.28516 0.488487 4.713 0.488487 8.94144C0.488487 13.1699 3.91633 16.5977 8.14477 16.5977C8.47611 16.5977 8.80255 16.5766 9.1228 16.5358L13.4046 14.5045Z" fill="#816AE2"/>
<path d="M12.5459 12.0219C12.4787 11.775 12.455 11.5183 12.4759 11.2632L12.6009 10.0856C12.662 9.34667 12.5493 8.60636 12.2222 7.94102C11.3771 6.22186 11.571 6.09711 11.5447 4.39089C11.5447 4.04236 11.2621 3.75977 10.9136 3.75977C10.565 3.75977 10.2825 4.04233 10.2825 4.39089C10.2825 11.3294 10.2954 10.8202 10.2526 11.0237V11.9322C10.2526 12.6977 9.6298 13.3205 8.8643 13.3205C8.3559 13.3205 6.60262 13.3205 5.40955 13.3205C5.9403 14.0587 6.6664 14.6366 7.50902 14.9866C7.51424 14.9887 7.51946 14.9909 7.52468 14.9931C8.17571 15.2681 8.90262 15.8168 9.02408 16.4976L9.03583 16.5462C10.7502 16.3475 12.2918 15.5826 13.469 14.4432L12.5459 12.0219Z" fill="#F9BA8F"/>
<path d="M3.06549 3.78113L2.87327 3.60304C2.57693 3.32848 2.10983 3.34629 1.83527 3.6426C1.56071 3.93895 1.57852 4.40604 1.87483 4.6806L3.06549 5.78382V3.78113Z" fill="#F9BA8F"/>
<path d="M2.26549 4.12895C2.08371 3.96052 2.00724 3.7197 2.03827 3.49023C1.96408 3.5282 1.89499 3.57864 1.83527 3.64305C1.56071 3.93939 1.57852 4.40648 1.87483 4.68105L3.06549 5.78427V4.87023L2.26549 4.12895Z" fill="#FCAD6D"/>
<path d="M12.6034 12.1719C12.3427 13.9696 10.7955 15.3506 8.92558 15.3506C8.60273 15.3506 8.28955 15.3094 7.99092 15.232C8.48601 15.5347 8.93139 15.9772 9.02408 16.4967L9.03583 16.5454C10.7502 16.3466 12.2918 15.5818 13.469 14.4423L12.6034 12.1719Z" fill="#FD995B"/>
<path d="M9.19524 13.35H4.1254C3.52587 13.35 3.03815 12.8623 3.03815 12.2627V1.68494C3.03815 1.08541 3.52587 0.597656 4.1254 0.597656H9.19524C9.79477 0.597656 10.2825 1.08541 10.2825 1.68494V12.2628C10.2825 12.8623 9.79474 13.35 9.19524 13.35Z" fill="#2A428C"/>
<path d="M4.1254 0.597656C3.52587 0.597656 3.03815 1.08541 3.03815 1.68491V12.2627C3.03815 12.8623 3.5259 13.35 4.1254 13.35H5.63677C5.30133 13.0078 5.69258 12.6735 5.69258 12.6735C5.14049 12.5287 5.18737 11.9485 5.18737 11.9485C5.18737 11.9485 5.18737 3.08141 5.18737 2.52672C5.18737 1.97203 5.7508 1.83194 5.7508 1.83194C5.52887 1.61 5.7508 1.37678 5.7508 1.37678V1.001C5.54609 0.87125 5.5864 0.694594 5.63096 0.597656L4.1254 0.597656Z" fill="#142766"/>
<path d="M5.85937 1.37679H5.7508C5.64702 1.37679 5.5629 1.29266 5.5629 1.18888C5.5629 1.0851 5.64702 1.00098 5.7508 1.00098H5.85937C5.96315 1.00098 6.04727 1.0851 6.04727 1.18888C6.04727 1.29266 5.96315 1.37679 5.85937 1.37679Z" fill="#3C58A0"/>
<path d="M7.54386 1.37679H6.50067C6.39689 1.37679 6.31277 1.29266 6.31277 1.18888C6.31277 1.0851 6.39689 1.00098 6.50067 1.00098H7.54386C7.64764 1.00098 7.73177 1.0851 7.73177 1.18888C7.73177 1.29266 7.64764 1.37679 7.54386 1.37679Z" fill="#3C58A0"/>
<path d="M9.19524 1.27441H8.43327C8.29121 1.27441 8.17608 1.38957 8.17608 1.5316C8.17608 1.69695 8.0408 1.83226 7.87546 1.83226H5.44524C5.2799 1.83226 5.14458 1.69698 5.14458 1.5316C5.14458 1.38957 5.02943 1.27441 4.8874 1.27441H4.1254C3.89852 1.27441 3.71458 1.45835 3.71458 1.68523V12.263C3.71458 12.4899 3.89852 12.6739 4.1254 12.6739H9.19524C9.42211 12.6739 9.60605 12.4899 9.60605 12.263C9.60605 11.1749 9.60605 1.97563 9.60605 1.68523C9.60605 1.45835 9.42211 1.27441 9.19524 1.27441Z" fill="#73C3F9"/>
<path d="M5.69255 12.6739C5.61443 12.3368 6.00543 12.258 6.00543 12.258C6.00543 12.258 6.25412 10.0796 6.00543 9.83091C5.75674 9.58223 6.00543 9.34738 6.00543 9.34738C6.00543 9.34738 6.27712 7.19201 6.00543 6.92029C5.73374 6.6486 6.00543 6.43676 6.00543 6.43676V4.00966C5.5188 3.70241 5.77477 3.26032 5.77477 3.26032V2.56423C5.40705 2.19651 5.75065 1.83238 5.75077 1.83226H5.44521C5.27987 1.83226 5.14455 1.69698 5.14455 1.5316C5.14455 1.38957 5.0294 1.27441 4.88737 1.27441H4.1254C3.89852 1.27441 3.71458 1.45832 3.71458 1.68523V12.2631C3.71458 12.4899 3.89852 12.6739 4.1254 12.6739H5.69255V12.6739Z" fill="#4FABF7"/>
<path d="M5.13189 3.25954H8.18874C8.38095 3.25954 8.53677 3.10373 8.53677 2.91151C8.53677 2.71929 8.38095 2.56348 8.18874 2.56348H5.13189C4.93967 2.56348 4.78383 2.71929 4.78383 2.91151C4.78383 3.10376 4.93967 3.25954 5.13189 3.25954Z" fill="#E9EFFF"/>
<path d="M5.13189 2.56348H5.77477V3.25957H5.13189C4.93967 3.25957 4.78386 3.10376 4.78386 2.91154C4.78383 2.71926 4.93967 2.56348 5.13189 2.56348Z" fill="#9BD8F9"/>
<path d="M8.80646 6.43686H4.51417C4.34199 6.43686 4.20111 6.29598 4.20111 6.1238V4.32283C4.20111 4.15064 4.34199 4.00977 4.51417 4.00977H8.80646C8.97864 4.00977 9.11952 4.15064 9.11952 4.32283V6.1238C9.11952 6.29598 8.97864 6.43686 8.80646 6.43686Z" fill="#E9EFFF"/>
<path d="M8.80646 9.34702H4.51417C4.34199 9.34702 4.20111 9.20614 4.20111 9.03395V7.23298C4.20111 7.0608 4.34199 6.91992 4.51417 6.91992H8.80646C8.97864 6.91992 9.11952 7.0608 9.11952 7.23298V9.03395C9.11952 9.20614 8.97864 9.34702 8.80646 9.34702Z" fill="#E9EFFF"/>
<path d="M8.80646 12.2581H4.51417C4.34199 12.2581 4.20111 12.1173 4.20111 11.9451V10.1441C4.20111 9.97193 4.34199 9.83105 4.51417 9.83105H8.80646C8.97864 9.83105 9.11952 9.97193 9.11952 10.1441V11.9451C9.11952 12.1173 8.97864 12.2581 8.80646 12.2581Z" fill="#E9EFFF"/>
<path d="M8.80646 6.43686H4.51417C4.34199 6.43686 4.20111 6.29598 4.20111 6.1238V4.32283C4.20111 4.15064 4.34199 4.00977 4.51417 4.00977H8.80646C8.97864 4.00977 9.11952 4.15064 9.11952 4.32283V6.1238C9.11952 6.29598 8.97864 6.43686 8.80646 6.43686Z" fill="#E9EFFF"/>
<path d="M8.80646 9.34702H4.51417C4.34199 9.34702 4.20111 9.20614 4.20111 9.03395V7.23298C4.20111 7.0608 4.34199 6.91992 4.51417 6.91992H8.80646C8.97864 6.91992 9.11952 7.0608 9.11952 7.23298V9.03395C9.11952 9.20614 8.97864 9.34702 8.80646 9.34702Z" fill="#E9EFFF"/>
<path d="M8.80646 12.2581H4.51417C4.34199 12.2581 4.20111 12.1173 4.20111 11.9451V10.1441C4.20111 9.97193 4.34199 9.83105 4.51417 9.83105H8.80646C8.97864 9.83105 9.11952 9.97193 9.11952 10.1441V11.9451C9.11952 12.1173 8.97864 12.2581 8.80646 12.2581Z" fill="#E9EFFF"/>
<path d="M5.69236 6.12377V4.32283C5.69236 4.15064 5.83324 4.00977 6.00542 4.00977H4.51417C4.34199 4.00977 4.20111 4.15064 4.20111 4.32283V6.12377C4.20111 6.29595 4.34199 6.43683 4.51417 6.43683H6.00542C5.83324 6.43683 5.69236 6.29595 5.69236 6.12377Z" fill="#D3DCFB"/>
<path d="M5.69236 9.03395V7.23298C5.69236 7.0608 5.83324 6.91992 6.00542 6.91992H4.51417C4.34199 6.91992 4.20111 7.0608 4.20111 7.23298V9.03395C4.20111 9.20614 4.34199 9.34702 4.51417 9.34702H6.00542C5.83324 9.34702 5.69236 9.20614 5.69236 9.03395Z" fill="#D3DCFB"/>
<path d="M5.69236 11.9451V10.1441C5.69236 9.97193 5.83324 9.83105 6.00542 9.83105H4.51417C4.34199 9.83105 4.20111 9.97193 4.20111 10.1441V11.9451C4.20111 12.1173 4.34199 12.2581 4.51417 12.2581H6.00542C5.83324 12.2581 5.69236 12.1173 5.69236 11.9451Z" fill="#D3DCFB"/>
<path d="M6.49108 5.01562H5.2358C5.10636 5.01562 5.00143 4.91072 5.00143 4.78125C5.00143 4.65178 5.10636 4.54688 5.2358 4.54688H6.49108C6.62052 4.54688 6.72546 4.65178 6.72546 4.78125C6.72546 4.91069 6.62052 5.01562 6.49108 5.01562Z" fill="#3C58A0"/>
<path d="M8.08483 5.89844H5.2358C5.10636 5.89844 5.00143 5.79353 5.00143 5.66406C5.00143 5.53459 5.10636 5.42969 5.2358 5.42969H8.08483C8.21427 5.42969 8.31921 5.53459 8.31921 5.66406C8.31921 5.79353 8.21427 5.89844 8.08483 5.89844Z" fill="#BEC8F7"/>
<path d="M7.47024 5.01562H7.29314C7.16371 5.01562 7.05877 4.91072 7.05877 4.78125C7.05877 4.65178 7.16371 4.54688 7.29314 4.54688H7.47024C7.59968 4.54688 7.70461 4.65178 7.70461 4.78125C7.70461 4.91069 7.59971 5.01562 7.47024 5.01562Z" fill="#BEC8F7"/>
<path d="M6.49108 7.92676H5.2358C5.10636 7.92676 5.00143 7.82185 5.00143 7.69238C5.00143 7.56291 5.10636 7.45801 5.2358 7.45801H6.49108C6.62052 7.45801 6.72546 7.56291 6.72546 7.69238C6.72546 7.82185 6.62052 7.92676 6.49108 7.92676Z" fill="#3C58A0"/>
<path d="M8.08483 8.80957H5.2358C5.10636 8.80957 5.00143 8.70466 5.00143 8.5752C5.00143 8.44573 5.10636 8.34082 5.2358 8.34082H8.08483C8.21427 8.34082 8.31921 8.44573 8.31921 8.5752C8.31921 8.70463 8.21427 8.80957 8.08483 8.80957Z" fill="#BEC8F7"/>
<path d="M7.47024 7.92676H7.29314C7.16371 7.92676 7.05877 7.82185 7.05877 7.69238C7.05877 7.56291 7.16371 7.45801 7.29314 7.45801H7.47024C7.59968 7.45801 7.70461 7.56291 7.70461 7.69238C7.70461 7.82185 7.59971 7.92676 7.47024 7.92676Z" fill="#BEC8F7"/>
<path d="M6.49108 10.8369H5.2358C5.10636 10.8369 5.00143 10.732 5.00143 10.6025C5.00143 10.4731 5.10636 10.3682 5.2358 10.3682H6.49108C6.62052 10.3682 6.72546 10.4731 6.72546 10.6025C6.72546 10.732 6.62052 10.8369 6.49108 10.8369Z" fill="#3C58A0"/>
<path d="M8.08483 11.7197H5.2358C5.10636 11.7197 5.00143 11.6148 5.00143 11.4854C5.00143 11.3559 5.10636 11.251 5.2358 11.251H8.08483C8.21427 11.251 8.31921 11.3559 8.31921 11.4854C8.31921 11.6148 8.21427 11.7197 8.08483 11.7197Z" fill="#BEC8F7"/>
<path d="M7.47024 10.8369H7.29314C7.16371 10.8369 7.05877 10.732 7.05877 10.6025C7.05877 10.4731 7.16371 10.3682 7.29314 10.3682H7.47024C7.59968 10.3682 7.70461 10.4731 7.70461 10.6025C7.70461 10.732 7.59971 10.8369 7.47024 10.8369Z" fill="#BEC8F7"/>
<path d="M4.13442 7.65508C3.89283 7.9158 3.48564 7.93133 3.22492 7.68974L2.14689 6.69086C1.88617 6.4493 1.87064 6.04208 2.11224 5.78136C2.35383 5.52064 2.76102 5.50511 3.02174 5.7467L4.09977 6.74558C4.36049 6.98717 4.37602 7.39436 4.13442 7.65508Z" fill="#F9BA8F"/>
<path d="M3.66842 7.236L2.59039 6.23712C2.41008 6.07006 2.34724 5.82381 2.40539 5.60156C2.2967 5.63294 2.19474 5.69266 2.11224 5.78169C1.87064 6.04241 1.88617 6.44963 2.14689 6.69119L3.22492 7.69006C3.48564 7.93163 3.89283 7.91613 4.13442 7.65541C4.20892 7.575 4.2588 7.48059 4.28474 7.38147C4.07514 7.44194 3.84011 7.39509 3.66842 7.236Z" fill="#FCAD6D"/>
<path d="M4.13442 11.1658C3.89283 11.4265 3.48564 11.4421 3.22492 11.2005L2.14689 10.2016C1.88617 9.96004 1.87064 9.55282 2.11224 9.2921C2.35383 9.03138 2.76102 9.01585 3.02174 9.25745L4.09977 10.2563C4.36049 10.4979 4.37602 10.9051 4.13442 11.1658Z" fill="#F9BA8F"/>
<path d="M3.66842 10.7467L2.59039 9.74787C2.41008 9.58081 2.34724 9.33455 2.40539 9.1123C2.2967 9.14368 2.19474 9.2034 2.11224 9.29243C1.87064 9.55315 1.88617 9.96037 2.14689 10.2019L3.22492 11.2008C3.48564 11.4424 3.89283 11.4269 4.13442 11.1661C4.20892 11.0857 4.2588 10.9913 4.28474 10.8922C4.07514 10.9527 3.84011 10.9058 3.66842 10.7467Z" fill="#FCAD6D"/>
<path d="M4.13442 9.41094C3.89283 9.67166 3.48564 9.68719 3.22492 9.4456L2.14689 8.44672C1.88617 8.20516 1.87064 7.79794 2.11224 7.53722C2.35383 7.2765 2.76102 7.26097 3.02174 7.50256L4.09977 8.50144C4.36049 8.743 4.37602 9.15019 4.13442 9.41094Z" fill="#F9BA8F"/>
<path d="M3.66842 8.99088L2.59039 7.99201C2.41008 7.82495 2.34724 7.5787 2.40539 7.35645C2.2967 7.38782 2.1947 7.44754 2.11224 7.53657C1.87064 7.79729 1.88617 8.20448 2.14689 8.44607L3.22492 9.44495C3.48564 9.68654 3.89283 9.67101 4.13442 9.41029C4.20892 9.32988 4.2588 9.23548 4.28474 9.13635C4.07514 9.19685 3.84011 9.14998 3.66842 8.99088Z" fill="#FCAD6D"/>
<path d="M13.3344 3.3125C12.9188 3.84113 12.5437 4.60062 12.8436 5.42944C13.4061 6.98422 14.3019 8.30412 13.8852 10.6025C13.6962 11.6454 14.3166 12.0825 15.0507 12.249C15.5313 11.2477 15.801 10.1259 15.801 8.941C15.801 6.71513 14.8509 4.71147 13.3344 3.3125Z" fill="#9181F2"/>
</g>
<defs>
<clipPath id="clip0_290_14913">
<rect width="16" height="16" fill="white" transform="translate(0.144768 0.597656)"/>
</clipPath>
</defs>
</svg>
