<svg width="25" height="16" viewBox="0 0 25 16" fill="none" xmlns="http://www.w3.org/2000/svg">
    <rect width="25" height="16" rx="4" fill="#DED1E5" />
    <path
        d="M6.504 5.416C7.09067 5.416 7.60533 5.53067 8.048 5.76C8.496 5.98933 8.84 6.31733 9.08 6.744C9.32533 7.16533 9.448 7.656 9.448 8.216C9.448 8.776 9.32533 9.26667 9.08 9.688C8.84 10.104 8.496 10.4267 8.048 10.656C7.60533 10.8853 7.09067 11 6.504 11H4.552V5.416H6.504ZM6.464 10.048C7.05067 10.048 7.504 9.888 7.824 9.568C8.144 9.248 8.304 8.79733 8.304 8.216C8.304 7.63467 8.144 7.18133 7.824 6.856C7.504 6.52533 7.05067 6.36 6.464 6.36H5.672V10.048H6.464ZM14.3584 7.144C14.3584 7.44267 14.2864 7.72267 14.1424 7.984C14.0037 8.24533 13.7824 8.456 13.4784 8.616C13.1797 8.776 12.801 8.856 12.3424 8.856H11.4064V11H10.2864V5.416H12.3424C12.7744 5.416 13.1424 5.49067 13.4464 5.64C13.7504 5.78933 13.977 5.99467 14.1264 6.256C14.281 6.51733 14.3584 6.81333 14.3584 7.144ZM12.2944 7.952C12.6037 7.952 12.833 7.88267 12.9824 7.744C13.1317 7.6 13.2064 7.4 13.2064 7.144C13.2064 6.6 12.9024 6.328 12.2944 6.328H11.4064V7.952H12.2944ZM20.1696 5.416L18.1216 11H16.7616L14.7136 5.416H15.9136L17.4496 9.856L18.9776 5.416H20.1696Z"
        fill="currentColor" />
</svg>