<svg width="18" height="16" viewBox="0 0 18 16" fill="none" xmlns="http://www.w3.org/2000/svg">
<mask id="path-1-outside-1_2947_12776" maskUnits="userSpaceOnUse" x="0" y="-0.662292" width="18" height="17" fill="black">
<rect fill="white" y="-0.662292" width="18" height="17"/>
<path d="M16.4879 0.337708H7.27574C6.99339 0.337708 6.76368 0.567417 6.76368 0.849772V1.4428H6.17064C5.88832 1.4428 5.65861 1.67251 5.65861 1.95487V2.5479H5.06558C4.78323 2.5479 4.55352 2.77761 4.55352 3.05997V5.73732L4.05406 5.77393C3.61177 5.80635 3.2249 6.07019 2.96471 6.51684L2.61732 7.11313C2.57432 7.187 2.50639 7.22603 2.42087 7.22603H1.25806C1.11555 7.22603 1 7.34158 1 7.48409V11.2388C1 11.3814 1.11555 11.4969 1.25806 11.4969H2.4209C2.46287 11.4969 2.50071 11.5062 2.53342 11.5246C2.79235 11.6702 3.05132 11.738 3.34832 11.738L4.55352 11.7379V15.1502C4.55352 15.4325 4.78323 15.6623 5.06558 15.6623H12.8517C12.9905 15.6623 13.1157 15.6104 13.2138 15.5123L14.1689 14.5572H15.3828C15.6652 14.5572 15.8949 14.3275 15.8949 14.0451V13.4521H16.4879C16.7703 13.4521 17 13.2224 17 12.94V0.849772C17 0.567417 16.7703 0.337708 16.4879 0.337708ZM1.51613 7.74209H2.16284V10.9807H1.51613V7.74209ZM3.34832 11.2218C3.14068 11.2218 2.96735 11.1764 2.78635 11.0746C2.75213 11.0554 2.7161 11.0394 2.67897 11.0259V7.69645C2.83826 7.63816 2.97406 7.52613 3.06335 7.37287L3.41071 6.77661C3.53229 6.56787 3.74916 6.31377 4.09181 6.28867L4.55352 6.2548V7.1349C4.55352 7.27742 4.66906 7.39297 4.81158 7.39297H7.96626C8.1479 7.39297 8.29568 7.54077 8.29568 7.72245C8.29568 7.90409 8.1479 8.05187 7.96626 8.05187H5.58352C5.441 8.05187 5.32545 8.16742 5.32545 8.30993C5.32545 8.45245 5.441 8.568 5.58352 8.568H8.47755C8.65923 8.568 8.807 8.71577 8.807 8.89745C8.807 9.07913 8.65923 9.2269 8.47755 9.2269H5.30471C5.16219 9.2269 5.04665 9.34245 5.04665 9.48497C5.04665 9.62748 5.16219 9.74303 5.30471 9.74303H8.09703C8.24129 9.74303 8.35861 9.86042 8.35861 10.0046C8.35861 10.1489 8.24126 10.2662 8.09703 10.2662H5.09384C4.95132 10.2662 4.83577 10.3818 4.83577 10.5243C4.83577 10.6668 4.95132 10.7824 5.09384 10.7824H7.3759C7.49703 10.7824 7.59561 10.8809 7.59561 11.0021C7.59561 11.1232 7.49703 11.2217 7.3759 11.2217L3.34832 11.2218ZM5.06964 11.7379L7.3759 11.7378C7.78164 11.7378 8.11174 11.4078 8.11174 11.002C8.11174 10.9967 8.11126 10.9915 8.11113 10.9862H12.6734C12.8159 10.9862 12.9315 10.8706 12.9315 10.7281C12.9315 10.5856 12.8159 10.4701 12.6734 10.4701H8.71971C8.81703 10.3402 8.87474 10.179 8.87474 10.0046C8.87474 9.888 8.84894 9.77732 8.80277 9.67793C8.93848 9.62116 9.05619 9.52987 9.14529 9.41526H12.6932C12.8357 9.41526 12.9513 9.29971 12.9513 9.15719C12.9513 9.01468 12.8357 8.89913 12.6932 8.89913H9.32306C9.32306 8.89855 9.32313 8.89797 9.32313 8.89738C9.32313 8.51826 9.07229 8.19655 8.72784 8.08961C8.76471 8.01348 8.79013 7.93097 8.80271 7.84432H12.7132C12.8557 7.84432 12.9712 7.72877 12.9712 7.58626C12.9712 7.44374 12.8557 7.32819 12.7132 7.32819H8.71397C8.57203 7.06 8.29019 6.87677 7.96626 6.87677H5.06964V3.064H14.2737L14.2736 13.5713H13.0839C12.8715 13.5713 12.6988 13.744 12.6988 13.9563V15.1461H5.06964V11.7379ZM13.9087 14.0874L13.215 14.781V14.0874H13.9087ZM15.3788 14.041H14.6798C14.7518 13.9508 14.7898 13.8424 14.7898 13.7241V3.05993C14.7898 2.77761 14.5601 2.54787 14.2778 2.54787H6.17474V1.95893H15.3788V14.041ZM16.4839 12.9359H15.8949V1.95484C15.8949 1.67251 15.6652 1.44277 15.3828 1.44277H7.27981V0.853837H16.4839V12.9359ZM6.39203 4.44445C6.39203 4.30193 6.50758 4.18638 6.6501 4.18638H12.6933C12.8358 4.18638 12.9513 4.30193 12.9513 4.44445C12.9513 4.58697 12.8358 4.70251 12.6933 4.70251H6.6501C6.50758 4.70251 6.39203 4.58697 6.39203 4.44445ZM11.1757 13.7656C11.1757 13.9082 11.0601 14.0237 10.9176 14.0237H6.6501C6.50758 14.0237 6.39203 13.9082 6.39203 13.7656C6.39203 13.6231 6.50758 13.5076 6.6501 13.5076H10.9176C11.0601 13.5076 11.1757 13.6231 11.1757 13.7656ZM6.35229 12.299C6.35229 12.1565 6.46784 12.041 6.61035 12.041H12.6535C12.796 12.041 12.9116 12.1565 12.9116 12.299C12.9116 12.4415 12.796 12.5571 12.6535 12.5571H6.61035C6.46784 12.5571 6.35229 12.4415 6.35229 12.299ZM12.9911 6.01538C12.9911 6.1579 12.8755 6.27345 12.733 6.27345H6.68984C6.54732 6.27345 6.43177 6.1579 6.43177 6.01538C6.43177 5.87287 6.54732 5.75732 6.68984 5.75732H12.733C12.8755 5.75732 12.9911 5.87284 12.9911 6.01538Z"/>
</mask>
<path d="M16.4879 0.337708H7.27574C6.99339 0.337708 6.76368 0.567417 6.76368 0.849772V1.4428H6.17064C5.88832 1.4428 5.65861 1.67251 5.65861 1.95487V2.5479H5.06558C4.78323 2.5479 4.55352 2.77761 4.55352 3.05997V5.73732L4.05406 5.77393C3.61177 5.80635 3.2249 6.07019 2.96471 6.51684L2.61732 7.11313C2.57432 7.187 2.50639 7.22603 2.42087 7.22603H1.25806C1.11555 7.22603 1 7.34158 1 7.48409V11.2388C1 11.3814 1.11555 11.4969 1.25806 11.4969H2.4209C2.46287 11.4969 2.50071 11.5062 2.53342 11.5246C2.79235 11.6702 3.05132 11.738 3.34832 11.738L4.55352 11.7379V15.1502C4.55352 15.4325 4.78323 15.6623 5.06558 15.6623H12.8517C12.9905 15.6623 13.1157 15.6104 13.2138 15.5123L14.1689 14.5572H15.3828C15.6652 14.5572 15.8949 14.3275 15.8949 14.0451V13.4521H16.4879C16.7703 13.4521 17 13.2224 17 12.94V0.849772C17 0.567417 16.7703 0.337708 16.4879 0.337708ZM1.51613 7.74209H2.16284V10.9807H1.51613V7.74209ZM3.34832 11.2218C3.14068 11.2218 2.96735 11.1764 2.78635 11.0746C2.75213 11.0554 2.7161 11.0394 2.67897 11.0259V7.69645C2.83826 7.63816 2.97406 7.52613 3.06335 7.37287L3.41071 6.77661C3.53229 6.56787 3.74916 6.31377 4.09181 6.28867L4.55352 6.2548V7.1349C4.55352 7.27742 4.66906 7.39297 4.81158 7.39297H7.96626C8.1479 7.39297 8.29568 7.54077 8.29568 7.72245C8.29568 7.90409 8.1479 8.05187 7.96626 8.05187H5.58352C5.441 8.05187 5.32545 8.16742 5.32545 8.30993C5.32545 8.45245 5.441 8.568 5.58352 8.568H8.47755C8.65923 8.568 8.807 8.71577 8.807 8.89745C8.807 9.07913 8.65923 9.2269 8.47755 9.2269H5.30471C5.16219 9.2269 5.04665 9.34245 5.04665 9.48497C5.04665 9.62748 5.16219 9.74303 5.30471 9.74303H8.09703C8.24129 9.74303 8.35861 9.86042 8.35861 10.0046C8.35861 10.1489 8.24126 10.2662 8.09703 10.2662H5.09384C4.95132 10.2662 4.83577 10.3818 4.83577 10.5243C4.83577 10.6668 4.95132 10.7824 5.09384 10.7824H7.3759C7.49703 10.7824 7.59561 10.8809 7.59561 11.0021C7.59561 11.1232 7.49703 11.2217 7.3759 11.2217L3.34832 11.2218ZM5.06964 11.7379L7.3759 11.7378C7.78164 11.7378 8.11174 11.4078 8.11174 11.002C8.11174 10.9967 8.11126 10.9915 8.11113 10.9862H12.6734C12.8159 10.9862 12.9315 10.8706 12.9315 10.7281C12.9315 10.5856 12.8159 10.4701 12.6734 10.4701H8.71971C8.81703 10.3402 8.87474 10.179 8.87474 10.0046C8.87474 9.888 8.84894 9.77732 8.80277 9.67793C8.93848 9.62116 9.05619 9.52987 9.14529 9.41526H12.6932C12.8357 9.41526 12.9513 9.29971 12.9513 9.15719C12.9513 9.01468 12.8357 8.89913 12.6932 8.89913H9.32306C9.32306 8.89855 9.32313 8.89797 9.32313 8.89738C9.32313 8.51826 9.07229 8.19655 8.72784 8.08961C8.76471 8.01348 8.79013 7.93097 8.80271 7.84432H12.7132C12.8557 7.84432 12.9712 7.72877 12.9712 7.58626C12.9712 7.44374 12.8557 7.32819 12.7132 7.32819H8.71397C8.57203 7.06 8.29019 6.87677 7.96626 6.87677H5.06964V3.064H14.2737L14.2736 13.5713H13.0839C12.8715 13.5713 12.6988 13.744 12.6988 13.9563V15.1461H5.06964V11.7379ZM13.9087 14.0874L13.215 14.781V14.0874H13.9087ZM15.3788 14.041H14.6798C14.7518 13.9508 14.7898 13.8424 14.7898 13.7241V3.05993C14.7898 2.77761 14.5601 2.54787 14.2778 2.54787H6.17474V1.95893H15.3788V14.041ZM16.4839 12.9359H15.8949V1.95484C15.8949 1.67251 15.6652 1.44277 15.3828 1.44277H7.27981V0.853837H16.4839V12.9359ZM6.39203 4.44445C6.39203 4.30193 6.50758 4.18638 6.6501 4.18638H12.6933C12.8358 4.18638 12.9513 4.30193 12.9513 4.44445C12.9513 4.58697 12.8358 4.70251 12.6933 4.70251H6.6501C6.50758 4.70251 6.39203 4.58697 6.39203 4.44445ZM11.1757 13.7656C11.1757 13.9082 11.0601 14.0237 10.9176 14.0237H6.6501C6.50758 14.0237 6.39203 13.9082 6.39203 13.7656C6.39203 13.6231 6.50758 13.5076 6.6501 13.5076H10.9176C11.0601 13.5076 11.1757 13.6231 11.1757 13.7656ZM6.35229 12.299C6.35229 12.1565 6.46784 12.041 6.61035 12.041H12.6535C12.796 12.041 12.9116 12.1565 12.9116 12.299C12.9116 12.4415 12.796 12.5571 12.6535 12.5571H6.61035C6.46784 12.5571 6.35229 12.4415 6.35229 12.299ZM12.9911 6.01538C12.9911 6.1579 12.8755 6.27345 12.733 6.27345H6.68984C6.54732 6.27345 6.43177 6.1579 6.43177 6.01538C6.43177 5.87287 6.54732 5.75732 6.68984 5.75732H12.733C12.8755 5.75732 12.9911 5.87284 12.9911 6.01538Z" fill="currentColor"/>
<path d="M16.4879 0.337708H7.27574C6.99339 0.337708 6.76368 0.567417 6.76368 0.849772V1.4428H6.17064C5.88832 1.4428 5.65861 1.67251 5.65861 1.95487V2.5479H5.06558C4.78323 2.5479 4.55352 2.77761 4.55352 3.05997V5.73732L4.05406 5.77393C3.61177 5.80635 3.2249 6.07019 2.96471 6.51684L2.61732 7.11313C2.57432 7.187 2.50639 7.22603 2.42087 7.22603H1.25806C1.11555 7.22603 1 7.34158 1 7.48409V11.2388C1 11.3814 1.11555 11.4969 1.25806 11.4969H2.4209C2.46287 11.4969 2.50071 11.5062 2.53342 11.5246C2.79235 11.6702 3.05132 11.738 3.34832 11.738L4.55352 11.7379V15.1502C4.55352 15.4325 4.78323 15.6623 5.06558 15.6623H12.8517C12.9905 15.6623 13.1157 15.6104 13.2138 15.5123L14.1689 14.5572H15.3828C15.6652 14.5572 15.8949 14.3275 15.8949 14.0451V13.4521H16.4879C16.7703 13.4521 17 13.2224 17 12.94V0.849772C17 0.567417 16.7703 0.337708 16.4879 0.337708ZM1.51613 7.74209H2.16284V10.9807H1.51613V7.74209ZM3.34832 11.2218C3.14068 11.2218 2.96735 11.1764 2.78635 11.0746C2.75213 11.0554 2.7161 11.0394 2.67897 11.0259V7.69645C2.83826 7.63816 2.97406 7.52613 3.06335 7.37287L3.41071 6.77661C3.53229 6.56787 3.74916 6.31377 4.09181 6.28867L4.55352 6.2548V7.1349C4.55352 7.27742 4.66906 7.39297 4.81158 7.39297H7.96626C8.1479 7.39297 8.29568 7.54077 8.29568 7.72245C8.29568 7.90409 8.1479 8.05187 7.96626 8.05187H5.58352C5.441 8.05187 5.32545 8.16742 5.32545 8.30993C5.32545 8.45245 5.441 8.568 5.58352 8.568H8.47755C8.65923 8.568 8.807 8.71577 8.807 8.89745C8.807 9.07913 8.65923 9.2269 8.47755 9.2269H5.30471C5.16219 9.2269 5.04665 9.34245 5.04665 9.48497C5.04665 9.62748 5.16219 9.74303 5.30471 9.74303H8.09703C8.24129 9.74303 8.35861 9.86042 8.35861 10.0046C8.35861 10.1489 8.24126 10.2662 8.09703 10.2662H5.09384C4.95132 10.2662 4.83577 10.3818 4.83577 10.5243C4.83577 10.6668 4.95132 10.7824 5.09384 10.7824H7.3759C7.49703 10.7824 7.59561 10.8809 7.59561 11.0021C7.59561 11.1232 7.49703 11.2217 7.3759 11.2217L3.34832 11.2218ZM5.06964 11.7379L7.3759 11.7378C7.78164 11.7378 8.11174 11.4078 8.11174 11.002C8.11174 10.9967 8.11126 10.9915 8.11113 10.9862H12.6734C12.8159 10.9862 12.9315 10.8706 12.9315 10.7281C12.9315 10.5856 12.8159 10.4701 12.6734 10.4701H8.71971C8.81703 10.3402 8.87474 10.179 8.87474 10.0046C8.87474 9.888 8.84894 9.77732 8.80277 9.67793C8.93848 9.62116 9.05619 9.52987 9.14529 9.41526H12.6932C12.8357 9.41526 12.9513 9.29971 12.9513 9.15719C12.9513 9.01468 12.8357 8.89913 12.6932 8.89913H9.32306C9.32306 8.89855 9.32313 8.89797 9.32313 8.89738C9.32313 8.51826 9.07229 8.19655 8.72784 8.08961C8.76471 8.01348 8.79013 7.93097 8.80271 7.84432H12.7132C12.8557 7.84432 12.9712 7.72877 12.9712 7.58626C12.9712 7.44374 12.8557 7.32819 12.7132 7.32819H8.71397C8.57203 7.06 8.29019 6.87677 7.96626 6.87677H5.06964V3.064H14.2737L14.2736 13.5713H13.0839C12.8715 13.5713 12.6988 13.744 12.6988 13.9563V15.1461H5.06964V11.7379ZM13.9087 14.0874L13.215 14.781V14.0874H13.9087ZM15.3788 14.041H14.6798C14.7518 13.9508 14.7898 13.8424 14.7898 13.7241V3.05993C14.7898 2.77761 14.5601 2.54787 14.2778 2.54787H6.17474V1.95893H15.3788V14.041ZM16.4839 12.9359H15.8949V1.95484C15.8949 1.67251 15.6652 1.44277 15.3828 1.44277H7.27981V0.853837H16.4839V12.9359ZM6.39203 4.44445C6.39203 4.30193 6.50758 4.18638 6.6501 4.18638H12.6933C12.8358 4.18638 12.9513 4.30193 12.9513 4.44445C12.9513 4.58697 12.8358 4.70251 12.6933 4.70251H6.6501C6.50758 4.70251 6.39203 4.58697 6.39203 4.44445ZM11.1757 13.7656C11.1757 13.9082 11.0601 14.0237 10.9176 14.0237H6.6501C6.50758 14.0237 6.39203 13.9082 6.39203 13.7656C6.39203 13.6231 6.50758 13.5076 6.6501 13.5076H10.9176C11.0601 13.5076 11.1757 13.6231 11.1757 13.7656ZM6.35229 12.299C6.35229 12.1565 6.46784 12.041 6.61035 12.041H12.6535C12.796 12.041 12.9116 12.1565 12.9116 12.299C12.9116 12.4415 12.796 12.5571 12.6535 12.5571H6.61035C6.46784 12.5571 6.35229 12.4415 6.35229 12.299ZM12.9911 6.01538C12.9911 6.1579 12.8755 6.27345 12.733 6.27345H6.68984C6.54732 6.27345 6.43177 6.1579 6.43177 6.01538C6.43177 5.87287 6.54732 5.75732 6.68984 5.75732H12.733C12.8755 5.75732 12.9911 5.87284 12.9911 6.01538Z" stroke="currentColor" stroke-width="0.4" mask="url(#path-1-outside-1_2947_12776)"/>
</svg>
