<svg width="16" height="16" viewBox="0 0 16 16" fill="none" xmlns="http://www.w3.org/2000/svg">
<path fill-rule="evenodd" clip-rule="evenodd" d="M11.4756 6.76071V8.19947C11.4756 8.73156 9.91947 9.16302 8 9.16302C6.08053 9.16302 4.52444 8.73173 4.52444 8.19947V6.76071C4.52444 6.7344 4.5376 6.71182 4.56036 6.69885C4.58311 6.68587 4.60924 6.68605 4.63182 6.69956C5.55129 7.24676 7.39342 7.31307 7.99982 7.31307C8.60622 7.31307 10.4484 7.24676 11.3678 6.69956C11.3904 6.68605 11.4165 6.68587 11.4393 6.69885C11.4624 6.71182 11.4756 6.7344 11.4756 6.76071ZM12.6032 8.94151H15.3159C15.6921 8.94151 16 9.24925 16 9.6256V10.949C16 11.3252 15.6923 11.6331 15.3159 11.6331H12.6032C12.227 11.6331 11.9191 11.3253 11.9191 10.949V9.6256C11.9191 9.24942 12.227 8.94151 12.6032 8.94151ZM3.65689 5.87058C3.77476 5.87058 3.87022 5.96604 3.87022 6.08391C3.87022 6.20178 3.77476 6.29725 3.65689 6.29725H2.25387V7.24356C2.4272 7.32409 2.5472 7.49973 2.5472 7.70329C2.5472 7.98311 2.32036 8.20996 2.04053 8.20996C1.76071 8.20996 1.53387 7.98311 1.53387 7.70329C1.53387 7.49973 1.65404 7.32409 1.8272 7.24356V6.08391C1.8272 5.96604 1.92267 5.87058 2.04053 5.87058H3.65689ZM14.1728 7.24356C14.3461 7.32409 14.4661 7.49973 14.4661 7.70329C14.4661 7.98311 14.2393 8.20996 13.9595 8.20996C13.6796 8.20996 13.4528 7.98311 13.4528 7.70329C13.4528 7.49956 13.573 7.32409 13.7461 7.24356V6.29725H12.3431C12.2252 6.29725 12.1298 6.20178 12.1298 6.08391C12.1298 5.96604 12.2252 5.87058 12.3431 5.87058H13.9595C14.0773 5.87058 14.1728 5.96604 14.1728 6.08391V7.24356ZM8.21333 11.3625C8.38667 11.443 8.50667 11.6185 8.50667 11.8222C8.50667 12.102 8.27982 12.3289 8 12.3289C7.72018 12.3289 7.49333 12.102 7.49333 11.8222C7.49333 11.6187 7.61351 11.443 7.78667 11.3625V9.79858C7.78667 9.68071 7.88213 9.58525 8 9.58525C8.11787 9.58525 8.21333 9.68071 8.21333 9.79858V11.3625ZM0.684089 8.94151H3.3968C3.77298 8.94151 4.08089 9.24925 4.08089 9.6256V10.949C4.08089 11.3252 3.77316 11.6331 3.3968 11.6331H0.684089C0.307911 11.6331 0 11.3252 0 10.949V9.6256C0 9.24942 0.307911 8.94151 0.684089 8.94151ZM1.13013 10.8976H2.95058C3.06844 10.8976 3.16391 10.8021 3.16391 10.6843C3.16391 10.5664 3.06844 10.4709 2.95058 10.4709H1.13013C1.01227 10.4709 0.9168 10.5664 0.9168 10.6843C0.9168 10.8021 1.01244 10.8976 1.13013 10.8976ZM1.13013 10.1038H2.95058C3.06844 10.1038 3.16391 10.0084 3.16391 9.89049C3.16391 9.77262 3.06844 9.67716 2.95058 9.67716H1.13013C1.01227 9.67716 0.9168 9.77262 0.9168 9.89049C0.9168 10.0084 1.01244 10.1038 1.13013 10.1038ZM6.64356 13.0231H9.35644C9.73262 13.0231 10.0405 13.331 10.0405 13.7072V15.0306C10.0405 15.4068 9.7328 15.7147 9.35644 15.7147H6.64356C6.26738 15.7147 5.95947 15.4068 5.95947 15.0306V13.7072C5.95964 13.3308 6.26738 13.0231 6.64356 13.0231ZM7.08978 14.979H8.91022C9.02809 14.979 9.12356 14.8836 9.12356 14.7657C9.12356 14.6478 9.02809 14.5524 8.91022 14.5524H7.08978C6.97191 14.5524 6.87644 14.6478 6.87644 14.7657C6.87644 14.8836 6.97191 14.979 7.08978 14.979ZM7.08978 14.1852H8.91022C9.02809 14.1852 9.12356 14.0898 9.12356 13.9719C9.12356 13.854 9.02809 13.7586 8.91022 13.7586H7.08978C6.97191 13.7586 6.87644 13.854 6.87644 13.9719C6.87644 14.0898 6.97191 14.1852 7.08978 14.1852ZM13.0492 10.8976H14.8697C14.9876 10.8976 15.083 10.8021 15.083 10.6843C15.083 10.5664 14.9876 10.4709 14.8697 10.4709H13.0492C12.9314 10.4709 12.8359 10.5664 12.8359 10.6843C12.8359 10.8021 12.9316 10.8976 13.0492 10.8976ZM13.0492 10.1038H14.8697C14.9876 10.1038 15.083 10.0084 15.083 9.89049C15.083 9.77262 14.9876 9.67716 14.8697 9.67716H13.0492C12.9314 9.67716 12.8359 9.77262 12.8359 9.89049C12.8359 10.0084 12.9316 10.1038 13.0492 10.1038ZM8 0.285156C9.91947 0.285156 11.4756 0.716445 11.4756 1.24871C11.4756 1.7808 9.91947 2.21227 8 2.21227C6.08053 2.21227 4.52444 1.78098 4.52444 1.24871C4.52444 0.716445 6.08053 0.285156 8 0.285156ZM11.4756 2.01209C11.4756 1.98578 11.4624 1.96302 11.4393 1.95022C11.4164 1.93725 11.39 1.93778 11.3675 1.95147C10.6898 2.36267 9.43538 2.63876 8 2.63876C6.56462 2.63876 5.31022 2.36267 4.63253 1.95129C4.60996 1.9376 4.58382 1.93725 4.56071 1.95005C4.53778 1.96302 4.52444 1.9856 4.52444 2.01191V3.45885C4.52444 3.99093 6.08053 4.4224 8 4.4224C9.91947 4.4224 11.4756 3.99111 11.4756 3.45885V2.01209ZM9.45778 3.25067C9.57422 3.23556 9.68089 3.31751 9.69618 3.43396C9.71129 3.5504 9.62933 3.65707 9.51289 3.67236C9.38489 3.68907 9.25458 3.70364 9.12231 3.71591C8.98364 3.72889 8.84996 3.73884 8.72107 3.74631C8.60373 3.75271 8.50329 3.66276 8.49689 3.54542C8.49049 3.42809 8.58044 3.32765 8.69778 3.32125C8.83164 3.3136 8.96071 3.304 9.08391 3.29262C9.20711 3.28124 9.33173 3.2672 9.45778 3.25067ZM10.4039 3.0656C10.5172 3.03431 10.6343 3.1008 10.6656 3.21387C10.6969 3.32711 10.6304 3.44427 10.5173 3.47556L10.4656 3.48996C10.4617 3.49102 10.4578 3.49191 10.4539 3.4928L10.4123 3.50329C10.2987 3.53227 10.1829 3.46364 10.154 3.35004C10.125 3.23644 10.1936 3.12071 10.3072 3.09173C10.3191 3.08871 10.3131 3.09013 10.3467 3.08107L10.3556 3.0784C10.394 3.06827 10.3961 3.06791 10.4039 3.0656ZM11.4756 5.92302V4.29689C11.4756 4.27058 11.4624 4.248 11.4396 4.23502C11.4169 4.22205 11.3908 4.22222 11.3682 4.23573C10.4485 4.78293 8.6064 4.84925 8 4.84925C7.3936 4.84925 5.55147 4.78293 4.632 4.23573C4.60942 4.22222 4.58329 4.22205 4.56053 4.23502C4.53778 4.248 4.52462 4.27058 4.52462 4.29689V5.92302C4.52462 6.45511 6.08071 6.88658 8.00018 6.88658C9.91947 6.88658 11.4756 6.45511 11.4756 5.92302ZM10.4039 5.41333C10.5172 5.38205 10.6343 5.44853 10.6656 5.5616C10.6969 5.67484 10.6304 5.792 10.5173 5.82329L10.466 5.83751C10.4416 5.84409 10.4699 5.83627 10.4123 5.85102C10.2987 5.88 10.1829 5.81138 10.154 5.69778C10.125 5.58418 10.1936 5.46845 10.3072 5.43947C10.3303 5.4336 10.2978 5.4416 10.3559 5.42613L10.4039 5.41333ZM9.45778 5.5984C9.57422 5.58329 9.68089 5.66525 9.69618 5.78169C9.71147 5.89813 9.62933 6.0048 9.51289 6.02009C9.38329 6.03716 9.25138 6.05173 9.11751 6.06418C8.98044 6.07698 8.84818 6.08676 8.72107 6.09405C8.60373 6.10045 8.50329 6.01049 8.49689 5.89316C8.49049 5.77582 8.58044 5.67538 8.69778 5.66898C8.83022 5.66133 8.95769 5.65191 9.07929 5.64071C9.20409 5.62916 9.33031 5.61511 9.45778 5.5984ZM9.45778 7.968C9.33191 7.98453 9.20711 7.9984 9.08373 8.00996C8.96036 8.02151 8.83147 8.03093 8.6976 8.03858C8.58027 8.04498 8.49031 8.14542 8.49671 8.26276C8.50311 8.38009 8.60356 8.47005 8.72089 8.46364C8.84978 8.45618 8.98347 8.44622 9.12213 8.43324C9.2544 8.42098 9.38471 8.4064 9.51271 8.38969C9.62916 8.37458 9.71129 8.26773 9.696 8.15129C9.68071 8.03485 9.57422 7.95289 9.45778 7.968ZM10.4039 7.78311L10.3559 7.79609C10.2978 7.81156 10.3303 7.80338 10.3072 7.80925C10.1936 7.83822 10.1248 7.95396 10.154 8.06756C10.1829 8.18116 10.2987 8.24996 10.4123 8.2208C10.4699 8.20605 10.4416 8.21387 10.466 8.20747L10.5173 8.19307C10.6306 8.16178 10.6969 8.04462 10.6656 7.93138C10.6341 7.81813 10.517 7.75182 10.4039 7.78311Z" fill="#71347B"/>
</svg>
