<svg width="16" height="17" viewBox="0 0 16 17" fill="none" xmlns="http://www.w3.org/2000/svg">
<g clip-path="url(#clip0_380_17269)">
<path d="M6.99967 5.50016C10.1293 5.50016 12.6663 4.45549 12.6663 3.16683C12.6663 1.87817 10.1293 0.833496 6.99967 0.833496C3.87006 0.833496 1.33301 1.87817 1.33301 3.16683C1.33301 4.45549 3.87006 5.50016 6.99967 5.50016Z" fill="#54A5FF"/>
<path d="M12.6663 3.16699V5.83366C12.6663 7.12366 10.1297 8.16699 6.99967 8.16699C3.86967 8.16699 1.33301 7.12366 1.33301 5.83366V3.16699C1.33301 3.66366 1.70967 4.12366 2.34967 4.50033C4.59967 5.83366 9.40301 5.83366 11.6497 4.50033C12.2897 4.12366 12.6663 3.66366 12.6663 3.16699Z" fill="url(#paint0_linear_380_17269)"/>
<path d="M12.6663 5.8335V8.50016C12.6663 9.79016 10.1297 10.8335 6.99967 10.8335C3.86967 10.8335 1.33301 9.79016 1.33301 8.50016V5.8335C1.33301 6.33016 1.70967 6.79016 2.34967 7.16683C4.59967 8.50016 9.40301 8.50016 11.6497 7.16683C12.2897 6.79016 12.6663 6.33016 12.6663 5.8335Z" fill="url(#paint1_linear_380_17269)"/>
<path d="M12.6663 8.5V11.1667C12.6663 12.4567 10.1297 13.5 6.99967 13.5C3.86967 13.5 1.33301 12.4567 1.33301 11.1667V8.5C1.33301 8.99667 1.70967 9.45667 2.34967 9.83333C4.59967 11.1667 9.40301 11.1667 11.6497 9.83333C12.2897 9.45667 12.6663 8.99667 12.6663 8.5Z" fill="url(#paint2_linear_380_17269)"/>
<path d="M4.26259 12.2167C4.21722 12.2103 4.17365 12.1946 4.1346 12.1707C4.09555 12.1467 4.06186 12.115 4.03563 12.0774C4.0094 12.0398 3.99119 11.9973 3.98215 11.9524C3.9731 11.9075 3.97341 11.8612 3.98306 11.8164C3.9927 11.7716 4.01148 11.7293 4.03821 11.6921C4.06494 11.6549 4.09906 11.6236 4.13843 11.6001C4.17779 11.5767 4.22157 11.5616 4.26702 11.5559C4.31247 11.5501 4.35862 11.5538 4.40259 11.5667C6.116 11.9167 7.8825 11.9167 9.59592 11.5667C9.63989 11.5538 9.68604 11.5501 9.73149 11.5559C9.77694 11.5616 9.82071 11.5767 9.86008 11.6001C9.89945 11.6236 9.93356 11.6549 9.96029 11.6921C9.98703 11.7293 10.0058 11.7716 10.0154 11.8164C10.0251 11.8612 10.0254 11.9075 10.0164 11.9524C10.0073 11.9973 9.98911 12.0398 9.96288 12.0774C9.93665 12.115 9.90296 12.1467 9.86391 12.1707C9.82486 12.1946 9.78129 12.2103 9.73592 12.2167C7.93092 12.5933 6.06759 12.5933 4.26259 12.2167Z" fill="#F0F7FC"/>
<path d="M12.6663 11.167V13.8337C12.6663 15.1237 10.1297 16.167 6.99967 16.167C3.86967 16.167 1.33301 15.1237 1.33301 13.8337V11.167C1.33301 11.6637 1.70967 12.1237 2.34967 12.5003C4.59967 13.8337 9.40301 13.8337 11.6497 12.5003C12.2897 12.1237 12.6663 11.6637 12.6663 11.167Z" fill="url(#paint3_linear_380_17269)"/>
<path d="M2.99934 14.5001C2.70407 14.4146 2.42239 14.2878 2.16267 14.1234C2.09593 14.0749 2.04957 14.0033 2.03255 13.9226C2.01554 13.8418 2.02908 13.7576 2.07056 13.6863C2.11203 13.615 2.1785 13.5615 2.25709 13.5364C2.33568 13.5112 2.42081 13.5161 2.496 13.5501C2.69847 13.6605 2.90909 13.7552 3.126 13.8334C3.21441 13.8502 3.29252 13.9014 3.34316 13.9758C3.39379 14.0502 3.4128 14.1417 3.396 14.2301C3.37921 14.3185 3.32798 14.3966 3.25359 14.4472C3.1792 14.4979 3.08774 14.5169 2.99934 14.5001Z" fill="#F0F7FC"/>
<path d="M4.26259 14.8836C4.21722 14.8773 4.17365 14.8616 4.1346 14.8377C4.09555 14.8137 4.06186 14.782 4.03563 14.7444C4.0094 14.7068 3.99119 14.6643 3.98215 14.6194C3.9731 14.5744 3.97341 14.5281 3.98306 14.4834C3.9927 14.4386 4.01148 14.3963 4.03821 14.3591C4.06494 14.3218 4.09906 14.2905 4.13843 14.2671C4.17779 14.2437 4.22157 14.2286 4.26702 14.2229C4.31247 14.2171 4.35862 14.2208 4.40259 14.2336C6.116 14.5837 7.8825 14.5837 9.59592 14.2336C9.63989 14.2208 9.68604 14.2171 9.73149 14.2229C9.77694 14.2286 9.82071 14.2437 9.86008 14.2671C9.89945 14.2905 9.93356 14.3218 9.96029 14.3591C9.98703 14.3963 10.0058 14.4386 10.0154 14.4834C10.0251 14.5281 10.0254 14.5744 10.0164 14.6194C10.0073 14.6643 9.98911 14.7068 9.96288 14.7444C9.93665 14.782 9.90296 14.8137 9.86391 14.8377C9.82486 14.8616 9.78129 14.8773 9.73592 14.8836C7.93092 15.2603 6.06759 15.2603 4.26259 14.8836Z" fill="#F0F7FC"/>
<path d="M14.6663 11.5H7.99967C7.63148 11.5 7.33301 11.7985 7.33301 12.1667V15.5C7.33301 15.8682 7.63148 16.1667 7.99967 16.1667H14.6663C15.0345 16.1667 15.333 15.8682 15.333 15.5V12.1667C15.333 11.7985 15.0345 11.5 14.6663 11.5Z" fill="url(#paint4_linear_380_17269)"/>
<path d="M12 12.5005H11.3333C11.2449 12.5005 11.1601 12.5356 11.0976 12.5981C11.0351 12.6606 11 12.7454 11 12.8338V14.8338C11 14.9222 11.0351 15.007 11.0976 15.0695C11.1601 15.132 11.2449 15.1672 11.3333 15.1672C11.4217 15.1672 11.5065 15.132 11.569 15.0695C11.6315 15.007 11.6667 14.9222 11.6667 14.8338V14.5005H12C12.2652 14.5005 12.5196 14.3951 12.7071 14.2076C12.8946 14.0201 13 13.7657 13 13.5005C13 13.2353 12.8946 12.9809 12.7071 12.7934C12.5196 12.6058 12.2652 12.5005 12 12.5005ZM12 13.8338H11.6667V13.1672H12C12.0884 13.1672 12.1732 13.2023 12.2357 13.2648C12.2982 13.3273 12.3333 13.4121 12.3333 13.5005C12.3333 13.5889 12.2982 13.6737 12.2357 13.7362C12.1732 13.7987 12.0884 13.8338 12 13.8338Z" fill="#F0F7FC"/>
<path d="M9.33301 12.5005C9.06779 12.5005 8.81344 12.6058 8.6259 12.7934C8.43836 12.9809 8.33301 13.2353 8.33301 13.5005V14.8338C8.33301 14.9222 8.36813 15.007 8.43064 15.0695C8.49315 15.132 8.57794 15.1672 8.66634 15.1672C8.75475 15.1672 8.83953 15.132 8.90204 15.0695C8.96456 15.007 8.99967 14.9222 8.99967 14.8338V14.5005H9.66634V14.8338C9.66634 14.9222 9.70146 15.007 9.76397 15.0695C9.82648 15.132 9.91127 15.1672 9.99967 15.1672C10.0881 15.1672 10.1729 15.132 10.2354 15.0695C10.2979 15.007 10.333 14.9222 10.333 14.8338V13.5005C10.333 13.2353 10.2277 12.9809 10.0401 12.7934C9.85258 12.6058 9.59822 12.5005 9.33301 12.5005ZM8.99967 13.8338V13.5005C8.99967 13.4121 9.03479 13.3273 9.09731 13.2648C9.15982 13.2023 9.2446 13.1672 9.33301 13.1672C9.42141 13.1672 9.5062 13.2023 9.56871 13.2648C9.63122 13.3273 9.66634 13.4121 9.66634 13.5005V13.8338H8.99967Z" fill="#F0F7FC"/>
<path d="M14.0003 15.1672C13.9119 15.1672 13.8271 15.132 13.7646 15.0695C13.7021 15.007 13.667 14.9222 13.667 14.8338V12.8338C13.667 12.7454 13.7021 12.6606 13.7646 12.5981C13.8271 12.5356 13.9119 12.5005 14.0003 12.5005C14.0887 12.5005 14.1735 12.5356 14.236 12.5981C14.2985 12.6606 14.3337 12.7454 14.3337 12.8338V14.8338C14.3337 14.9222 14.2985 15.007 14.236 15.0695C14.1735 15.132 14.0887 15.1672 14.0003 15.1672Z" fill="#F0F7FC"/>
<path d="M2.99993 6.50051C2.70467 6.41506 2.42298 6.28825 2.16327 6.12384C2.08725 6.07874 2.03225 6.0053 2.01037 5.91966C1.9885 5.83402 2.00153 5.7432 2.0466 5.66717C2.0917 5.59115 2.16514 5.53616 2.25078 5.51428C2.33641 5.4924 2.42723 5.50543 2.50327 5.55051C2.70359 5.66056 2.91196 5.75528 3.1266 5.83384C3.215 5.85064 3.29312 5.90186 3.34375 5.97625C3.39439 6.05064 3.4134 6.1421 3.3966 6.23051C3.3798 6.31891 3.32857 6.39702 3.25418 6.44766C3.1798 6.49829 3.08834 6.5173 2.99993 6.50051Z" fill="#F0F7FC"/>
<path d="M11.0003 6.5004C10.9119 6.5172 10.8204 6.49819 10.746 6.44755C10.6716 6.39692 10.6204 6.31881 10.6036 6.2304C10.5868 6.142 10.6058 6.05054 10.6565 5.97615C10.7071 5.90176 10.7852 5.85053 10.8736 5.83373C11.089 5.74764 11.2973 5.64512 11.497 5.52707C11.573 5.48199 11.6638 5.46896 11.7494 5.49084C11.8351 5.51272 11.9085 5.56772 11.9536 5.64373C11.9987 5.71977 12.0117 5.81059 11.9898 5.89623C11.968 5.98186 11.913 6.0553 11.837 6.1004C11.5786 6.27296 11.2968 6.40766 11.0003 6.5004Z" fill="#F0F7FC"/>
<path d="M4.26326 6.8835C4.17808 6.86651 4.10289 6.81694 4.0537 6.74534C4.00452 6.67374 3.98522 6.58577 3.99993 6.50016C4.01906 6.41404 4.07156 6.33901 4.14591 6.29153C4.22027 6.24404 4.31041 6.22797 4.3966 6.24683C6.11001 6.59686 7.87651 6.59686 9.58993 6.24683C9.6339 6.23396 9.68005 6.23028 9.7255 6.23604C9.77095 6.2418 9.81472 6.25687 9.85409 6.2803C9.89346 6.30373 9.92757 6.33503 9.9543 6.37224C9.98104 6.40944 9.99981 6.45176 10.0095 6.49655C10.0191 6.54133 10.0194 6.58763 10.0104 6.63254C10.0013 6.67745 9.98312 6.72002 9.95689 6.75758C9.93066 6.79514 9.89697 6.82689 9.85792 6.85085C9.81887 6.87481 9.7753 6.89046 9.72993 6.89683C7.92616 7.26817 6.0652 7.26364 4.26326 6.8835Z" fill="#F0F7FC"/>
<path d="M2.99993 9.16701C2.70467 9.08157 2.42298 8.95475 2.16327 8.79034C2.08725 8.74525 2.03225 8.6718 2.01037 8.58617C1.9885 8.50053 2.00153 8.40971 2.0466 8.33368C2.0917 8.25766 2.16514 8.20266 2.25078 8.18078C2.33641 8.15891 2.42723 8.17194 2.50327 8.21701C2.70359 8.32707 2.91196 8.42178 3.1266 8.50034C3.215 8.51714 3.29312 8.56837 3.34375 8.64276C3.39439 8.71715 3.4134 8.8086 3.3966 8.89701C3.3798 8.98541 3.32857 9.06353 3.25418 9.11416C3.1798 9.1648 3.08834 9.18381 2.99993 9.16701Z" fill="#F0F7FC"/>
<path d="M11.0003 9.16691C10.9565 9.17522 10.9115 9.17484 10.8679 9.16577C10.8243 9.1567 10.7829 9.13913 10.746 9.11406C10.7092 9.08899 10.6777 9.0569 10.6532 9.01965C10.6288 8.98239 10.6119 8.94068 10.6036 8.89691C10.5953 8.85313 10.5957 8.80815 10.6048 8.76452C10.6138 8.7209 10.6314 8.67949 10.6565 8.64265C10.6815 8.60582 10.7136 8.57428 10.7509 8.54985C10.7881 8.52541 10.8298 8.50856 10.8736 8.50024C11.089 8.41415 11.2973 8.31162 11.497 8.19357C11.573 8.1485 11.6638 8.13547 11.7494 8.15735C11.8351 8.17922 11.9085 8.23422 11.9536 8.31024C11.9987 8.38627 12.0117 8.47709 11.9898 8.56273C11.968 8.64837 11.913 8.72181 11.837 8.76691C11.5786 8.93947 11.2968 9.07417 11.0003 9.16691Z" fill="#F0F7FC"/>
<path d="M4.26356 9.55064C4.21819 9.54427 4.17462 9.52862 4.13557 9.50466C4.09653 9.4807 4.06283 9.44895 4.0366 9.41139C4.01037 9.37383 3.99217 9.33126 3.98312 9.28635C3.97408 9.24144 3.97439 9.19514 3.98404 9.15036C3.99368 9.10557 4.01246 9.06325 4.03919 9.02604C4.06592 8.98884 4.10003 8.95754 4.1394 8.93411C4.17877 8.91068 4.22254 8.89561 4.268 8.88985C4.31345 8.88409 4.3596 8.88776 4.40356 8.90064C6.11698 9.25067 7.88348 9.25067 9.5969 8.90064C9.64086 8.88776 9.68701 8.88409 9.73246 8.88985C9.77791 8.89561 9.82169 8.91068 9.86106 8.93411C9.90042 8.95754 9.93454 8.98884 9.96127 9.02604C9.988 9.06325 10.0068 9.10557 10.0164 9.15036C10.0261 9.19514 10.0264 9.24144 10.0173 9.28635C10.0083 9.33126 9.99009 9.37383 9.96385 9.41139C9.93762 9.44895 9.90393 9.4807 9.86488 9.50466C9.82583 9.52862 9.78226 9.54427 9.7369 9.55064C7.93189 9.92731 6.06857 9.92731 4.26356 9.55064Z" fill="#F0F7FC"/>
<path d="M3.00031 11.8336C2.70505 11.7481 2.42336 11.6213 2.16365 11.4569C2.09691 11.4084 2.05055 11.3368 2.03353 11.2561C2.01652 11.1753 2.03006 11.0911 2.07153 11.0198C2.11301 10.9485 2.17947 10.895 2.25806 10.8699C2.33665 10.8447 2.42178 10.8496 2.49698 10.8836C2.69945 10.9939 2.91007 11.0887 3.12698 11.1669C3.21539 11.1837 3.2935 11.2349 3.34413 11.3093C3.39477 11.3837 3.41378 11.4752 3.39698 11.5636C3.38018 11.652 3.32896 11.7301 3.25457 11.7807C3.18018 11.8314 3.08872 11.8504 3.00031 11.8336Z" fill="#F0F7FC"/>
</g>
<defs>
<linearGradient id="paint0_linear_380_17269" x1="6.99967" y1="8.16699" x2="6.99967" y2="3.16699" gradientUnits="userSpaceOnUse">
<stop stop-color="#54A5FF"/>
<stop offset="1" stop-color="#8AD3FE"/>
</linearGradient>
<linearGradient id="paint1_linear_380_17269" x1="-0.000325578" y1="10.8335" x2="0.333008" y2="5.8335" gradientUnits="userSpaceOnUse">
<stop stop-color="#54A5FF"/>
<stop offset="1" stop-color="#8AD3FE"/>
</linearGradient>
<linearGradient id="paint2_linear_380_17269" x1="-0.000325578" y1="13.5" x2="0.333008" y2="8.5" gradientUnits="userSpaceOnUse">
<stop stop-color="#54A5FF"/>
<stop offset="1" stop-color="#8AD3FE"/>
</linearGradient>
<linearGradient id="paint3_linear_380_17269" x1="-0.000325578" y1="16.167" x2="0.333008" y2="11.167" gradientUnits="userSpaceOnUse">
<stop stop-color="#54A5FF"/>
<stop offset="1" stop-color="#8AD3FE"/>
</linearGradient>
<linearGradient id="paint4_linear_380_17269" x1="11.333" y1="16.1667" x2="11.333" y2="11.5" gradientUnits="userSpaceOnUse">
<stop stop-color="#FE9661"/>
<stop offset="1" stop-color="#FFB369"/>
</linearGradient>
<clipPath id="clip0_380_17269">
<rect width="16" height="16" fill="white" transform="translate(0 0.5)"/>
</clipPath>
</defs>
</svg>
