<svg width="20" height="20" viewBox="0 0 20 20" fill="none" xmlns="http://www.w3.org/2000/svg">
<g clip-path="url(#clip0_2699_12904)">
<path d="M16.6535 16.6281C20.241 12.9675 20.241 7.03249 16.6535 3.37187C13.066 -0.28874 7.24939 -0.28874 3.66184 3.37187C0.0742969 7.03249 0.0742969 12.9675 3.66184 16.6281C7.24939 20.2887 13.066 20.2887 16.6535 16.6281Z" fill="#ADE780"/>
<path fill-rule="evenodd" clip-rule="evenodd" d="M19.2156 11.5903C18.5618 15.4934 15.5437 18.5728 11.7186 19.2399L6.77243 14.193C5.58884 13.1963 4.83447 11.688 4.83447 9.99986C4.83447 6.99873 7.21873 4.56592 10.16 4.56592C11.8144 4.56592 13.2926 5.33568 14.2694 6.54334L19.2156 11.5903Z" fill="#5DC70C"/>
<path fill-rule="evenodd" clip-rule="evenodd" d="M15.4854 9.99986C15.4854 6.99873 13.1012 4.56592 10.16 4.56592C7.21873 4.56592 4.83447 6.99873 4.83447 9.99986C4.83447 13.001 7.21873 15.4338 10.16 15.4338C13.1012 15.4338 15.4854 13.001 15.4854 9.99986ZM12.7113 11.158L13.5239 11.6271C13.6545 11.7025 13.6992 11.8694 13.6238 12C13.5733 12.0876 13.4815 12.1365 13.3872 12.1365C13.3409 12.1365 13.2939 12.1248 13.2509 12.0999L12.4382 11.6307L12.4307 12.4485C12.4293 12.5984 12.3073 12.7189 12.1577 12.7189L12.1552 12.7189C12.0044 12.7175 11.8833 12.5942 11.8847 12.4434L11.8951 11.3171L10.4327 10.4728V12.1614L11.4132 12.7156C11.5444 12.7897 11.5907 12.9563 11.5165 13.0876C11.4663 13.1764 11.3738 13.2263 11.2786 13.2263C11.2331 13.2263 11.187 13.2149 11.1445 13.1909L10.4327 12.7886V13.727C10.4327 13.8778 10.3105 14 10.1597 14C10.0089 14 9.88669 13.8778 9.88669 13.727V12.7886L9.17485 13.1909C9.13241 13.2149 9.08625 13.2263 9.04075 13.2263C8.94553 13.2263 8.85304 13.1764 8.80284 13.0876C8.72866 12.9563 8.77493 12.7897 8.90618 12.7156L9.88665 12.1614V10.4728L8.42418 11.3171L8.43433 12.4434C8.43572 12.5942 8.31458 12.7175 8.16381 12.7189L8.1613 12.7189C8.01169 12.7189 7.88972 12.5983 7.88837 12.4483L7.88098 11.6307L7.06843 12.0999C7.02544 12.1247 6.97848 12.1365 6.93218 12.1365C6.83783 12.1365 6.74607 12.0876 6.69551 12C6.62013 11.8694 6.66486 11.7024 6.79543 11.6271L7.60798 11.1579L6.90372 10.7427C6.77384 10.6661 6.73064 10.4988 6.80722 10.3689C6.88381 10.239 7.05125 10.1958 7.18105 10.2724L8.15118 10.8445L9.61372 10.0001L8.15143 9.1558L7.18105 9.72767C7.13751 9.7533 7.08979 9.76549 7.04269 9.76549C6.94918 9.76549 6.85815 9.71745 6.80722 9.63107C6.73067 9.50116 6.77392 9.33379 6.90379 9.25724L7.60816 8.8421L6.79546 8.37287C6.6649 8.29749 6.62016 8.13052 6.69555 7.99995C6.77093 7.86939 6.9379 7.82462 7.06846 7.90004L7.88102 8.36919L7.88841 7.55165C7.88975 7.40169 8.01173 7.28109 8.16133 7.28109H8.16384C8.31461 7.28244 8.43575 7.40576 8.43437 7.55653L8.42421 8.68278L9.88665 9.52715V7.83859L8.90618 7.28444C8.77493 7.21026 8.72866 7.04369 8.80284 6.91244C8.87706 6.78114 9.04352 6.73488 9.17485 6.8091L9.88669 7.21139V6.273C9.88669 6.12223 10.0089 6 10.1597 6C10.3105 6 10.4327 6.12223 10.4327 6.273V7.21139L11.1445 6.80906C11.2758 6.73484 11.4423 6.78114 11.5165 6.9124C11.5907 7.04369 11.5444 7.21022 11.4132 7.28441L10.4327 7.83856V9.52715L11.8951 8.68278L11.885 7.55653C11.8836 7.40576 12.0047 7.28244 12.1555 7.28109C12.3059 7.27902 12.4296 7.40085 12.4309 7.55162L12.4383 8.36919L13.2509 7.90004C13.3814 7.82462 13.5484 7.86935 13.6238 7.99995C13.6992 8.13052 13.6544 8.29749 13.5239 8.37287L12.7111 8.8421L13.4154 9.25717C13.5453 9.33376 13.5885 9.50112 13.512 9.631C13.461 9.71737 13.37 9.76542 13.2765 9.76542C13.2294 9.76542 13.1817 9.75326 13.1382 9.7276L12.1679 9.15572L10.7056 9.99998L12.1682 10.8444L13.1381 10.2724C13.2681 10.1959 13.4354 10.2391 13.512 10.3689C13.5886 10.4988 13.5453 10.6662 13.4155 10.7428L12.7113 11.158Z" fill="white"/>
</g>
<defs>
<clipPath id="clip0_2699_12904">
<rect width="19.6008" height="20" fill="white" transform="translate(0.359375)"/>
</clipPath>
</defs>
</svg>
