<svg width="16" height="16" viewBox="0 0 16 16" fill="none" xmlns="http://www.w3.org/2000/svg">
<path d="M14.7329 7.06677C14.7328 6.82169 14.8393 6.58413 15.0178 6.43128L16 5.59038L15.9289 5.30868C15.8429 4.96829 15.7315 4.63183 15.5977 4.30819C15.4637 3.98519 15.3045 3.66854 15.1246 3.36707L14.9757 3.11758L13.6905 3.21716C13.4556 3.23531 13.2121 3.14232 13.0379 2.96752C12.8645 2.79431 12.7719 2.551 12.79 2.31669L12.8899 1.02759L12.6404 0.878718C12.339 0.698823 12.0224 0.539638 11.6988 0.405412C11.3756 0.271717 11.0391 0.160356 10.6987 0.074423L10.417 0.0032959L9.5787 0.982457C9.42585 1.16095 9.18698 1.2674 8.93946 1.2674C8.93793 1.2674 8.46853 1.26659 8.46853 1.26659V5.95423H8.93709C9.54855 5.95423 10.046 6.45168 10.046 7.06315C10.046 7.67462 9.54855 8.17207 8.93709 8.17207H8.46903L8.46428 12.8591L8.93349 12.8589C9.1788 12.8589 9.41623 12.9654 9.56898 13.1438L10.4099 14.126L10.6916 14.0549C11.0319 13.969 11.3683 13.8576 11.6921 13.7237C12.0151 13.5897 12.3318 13.4305 12.6332 13.2506L12.8827 13.1017L12.7831 11.8165C12.765 11.5817 12.858 11.3381 13.0328 11.1639C13.206 10.9905 13.4491 10.8979 13.6836 10.916L14.9727 11.0159L15.1216 10.7664C15.3015 10.465 15.4607 10.1483 15.5949 9.82477C15.7286 9.50159 15.8399 9.16513 15.9259 8.82477L15.997 8.54307L15.0178 7.7047C14.8389 7.55161 14.7324 7.31352 14.7329 7.06677ZM10.9831 7.06315C10.9831 6.09617 10.3087 5.28369 9.40564 5.07125V4.11689C10.8287 4.34236 11.9202 5.57763 11.9202 7.06315C11.9202 8.54917 10.828 9.78475 9.40424 10.0096L9.40521 9.05518C10.3086 8.84295 10.9831 8.03035 10.9831 7.06315ZM14.7291 9.4662C14.6488 9.65962 14.5582 9.85044 14.4585 10.0362L13.756 9.98173C13.2446 9.94209 12.7395 10.1316 12.3705 10.5008C11.9992 10.8708 11.8091 11.3767 11.8487 11.8889L11.9029 12.5876C11.7172 12.6873 11.5265 12.7779 11.3334 12.858C11.1399 12.938 10.9409 13.0088 10.739 13.0696L10.2808 12.5344C10.0497 12.2645 9.74288 12.0744 9.40221 11.9832L9.40324 10.9556C11.3459 10.7243 12.8573 9.06705 12.8573 7.06315C12.8573 5.06007 11.3472 3.40331 9.40561 3.171V2.14432C9.74922 2.05358 10.0584 1.86303 10.2905 1.59193L10.7462 1.05964C10.948 1.12043 11.1469 1.19121 11.3401 1.27112C11.5335 1.35137 11.7243 1.44199 11.9101 1.54173L11.8556 2.24425C11.816 2.75551 12.0055 3.26074 12.3747 3.62968C12.7446 4.001 13.2506 4.19127 13.7628 4.15147L14.4614 4.09734C14.5612 4.28307 14.6517 4.47377 14.7318 4.66682C14.8119 4.8603 14.8827 5.05932 14.9435 5.2612L14.4083 5.71945C14.0188 6.05294 13.7955 6.54418 13.7957 7.06615C13.7947 7.59028 14.018 8.08251 14.4082 8.41659L14.9405 8.87234C14.8798 9.07414 14.809 9.27306 14.7291 9.4662Z" fill="currentColor"/>
<path d="M5.95393 8.93685C5.95393 8.32538 6.45139 7.82793 7.06285 7.82793H7.53141V3.14094L7.0627 3.1411C6.81617 3.1411 6.58605 3.03723 6.43099 2.85615L5.59008 1.87399L5.30839 1.94512C4.96809 2.03102 4.63163 2.14238 4.30789 2.27627C3.98483 2.4103 3.66818 2.56949 3.36674 2.74938L3.11725 2.89829L3.21684 4.18351C3.23502 4.41826 3.14199 4.66194 2.96719 4.83609C2.79398 5.00946 2.55086 5.10207 2.31633 5.08399L1.02723 4.98409L0.878327 5.23358C0.698432 5.53502 0.539279 5.85167 0.405053 6.17523C0.271389 6.49841 0.160059 6.83486 0.0740946 7.17522L0.00296753 7.45692L0.982191 8.2953C1.16102 8.44842 1.26754 8.68651 1.26711 8.93325C1.2672 9.17834 1.16068 9.4159 0.98216 9.56874L0 10.4096L0.0711271 10.6913C0.157092 11.0317 0.268452 11.3682 0.402304 11.6918C0.536311 12.0148 0.695465 12.3315 0.875391 12.6329L1.02427 12.8824L2.30952 12.7828C2.54421 12.7648 2.78795 12.8577 2.9621 13.0325C3.13546 13.2057 3.22814 13.449 3.20996 13.6833L3.11007 14.9724L3.35956 15.1213C3.661 15.3012 3.97765 15.4604 4.3012 15.5946C4.62442 15.7282 4.96087 15.8396 5.30123 15.9255L5.58293 15.9967L6.42127 15.0175C6.57412 14.839 6.81158 14.7326 7.05673 14.7326C7.05823 14.7326 7.52716 14.7334 7.52716 14.7334L7.53191 10.0457H7.06288C6.45142 10.0458 5.95393 9.54828 5.95393 8.93685ZM5.01682 8.93685C5.01682 9.9037 5.69098 10.7161 6.59386 10.9287L6.59289 11.8829C5.17047 11.6568 4.0797 10.4219 4.0797 8.93685C4.0797 7.45133 5.17119 6.21609 6.5943 5.99059V6.94494C5.69123 7.15736 5.01682 7.96984 5.01682 8.93685ZM5.70941 14.4081L5.25369 14.9404C5.05187 14.8796 4.85298 14.8088 4.65981 14.7289C4.46639 14.6486 4.27556 14.558 4.08982 14.4583L4.14427 13.7557C4.18391 13.2445 3.99446 12.7393 3.6252 12.3703C3.25526 11.999 2.74931 11.8089 2.23711 11.8485L1.53846 11.9027C1.43872 11.7169 1.34817 11.5262 1.26807 11.3332C1.18804 11.1397 1.1172 10.9407 1.05638 10.7388L1.59163 10.2805C1.98116 9.94706 2.20444 9.45582 2.20422 8.93385C2.20516 8.40972 1.98187 7.91748 1.59166 7.5834L1.05938 7.12765C1.12017 6.92586 1.19098 6.72694 1.27088 6.53377C1.35113 6.34035 1.44175 6.14952 1.54149 5.96378L2.24402 6.01823C2.75528 6.05787 3.26051 5.86835 3.62945 5.49913C4.00073 5.12919 4.19091 4.62324 4.15123 4.11104L4.0971 3.41239C4.28277 3.31268 4.47351 3.2221 4.66655 3.142C4.8601 3.06197 5.05911 2.99113 5.26094 2.93034L5.71922 3.46559C5.94997 3.7351 6.2555 3.92503 6.59436 4.0164V5.04463C4.65281 5.27694 3.14265 6.9337 3.14265 8.93678C3.14265 10.9391 4.65159 12.5953 6.59198 12.8287L6.59095 13.856C6.24909 13.947 5.94122 14.1373 5.70941 14.4081Z" fill="currentColor"/>
<path d="M6.5943 0.798859H7.53141V1.73597H6.5943V0.798859Z" fill="currentColor"/>
<path d="M4.72006 0.00326538H5.65718V0.940381H4.72006V0.00326538Z" fill="currentColor"/>
<path d="M8.46852 14.2646H9.40564V15.2017H8.46852V14.2646Z" fill="currentColor"/>
<path d="M10.3428 15.0596H11.2799V15.9967H10.3428V15.0596Z" fill="currentColor"/>
</svg>
