<svg width="24" height="24" viewBox="0 0 24 24" fill="none" xmlns="http://www.w3.org/2000/svg">
<g clip-path="url(#clip0_264_41275)">
<path fill-rule="evenodd" clip-rule="evenodd" d="M10.4889 5.70971C10.461 5.80125 10.4406 5.91361 10.4093 6.09629L10.3364 6.52397C10.6418 6.51771 10.9471 6.51458 11.2525 6.51458C12.0578 6.51458 12.8638 6.52769 13.6697 6.55365L13.5917 6.0997C13.5626 5.92423 13.5429 5.81412 13.5156 5.72387C13.5032 5.68311 13.4922 5.65716 13.484 5.64112C13.4801 5.63336 13.477 5.62836 13.475 5.62546C13.4738 5.6236 13.4725 5.6219 13.4725 5.6219L13.4708 5.6208C13.4673 5.61857 13.4531 5.61003 13.4209 5.59939C13.352 5.5766 13.2136 5.54839 12.962 5.54839H11.0397C10.6886 5.54839 10.5604 5.59822 10.5262 5.61748C10.5205 5.62644 10.5064 5.65232 10.4889 5.70971ZM10.5158 5.62494C10.5158 5.62494 10.5178 5.62238 10.5241 5.61867C10.5193 5.62332 10.5158 5.62494 10.5158 5.62494ZM15.3543 6.62657C16.4678 6.68706 17.5802 6.77177 18.6894 6.88003C19.1428 6.92428 19.4721 7.30491 19.4249 7.73019C19.3777 8.15547 18.9719 8.46435 18.5185 8.4201C16.103 8.18434 13.6736 8.06296 11.2525 8.06296C9.82904 8.06296 8.40541 8.13377 6.98148 8.27542L6.97895 8.27567L5.48224 8.42019C5.02879 8.46397 4.62335 8.15467 4.57667 7.72934C4.52999 7.30401 4.85975 6.92372 5.3132 6.87994L6.80737 6.73567L6.80861 6.73555C7.42348 6.6744 8.0384 6.62593 8.65336 6.59016L8.77934 5.85141C8.78245 5.83322 8.7857 5.81359 8.78907 5.79332C8.83757 5.5009 8.92023 5.00259 9.26405 4.61861C9.68718 4.14605 10.3225 4 11.0397 4H12.962C13.6921 4 14.3254 4.15931 14.7446 4.63506C15.0877 5.02449 15.1681 5.52276 15.2146 5.81076C15.2173 5.8279 15.22 5.8443 15.2226 5.85988L15.2229 5.86211L15.3543 6.62657ZM6.92449 9.16068C7.37948 9.13445 7.77099 9.45915 7.79897 9.88592L8.27558 17.1583L8.27572 17.1603C8.29662 17.454 8.31352 17.6714 8.35159 17.8576C8.38841 18.0376 8.43507 18.1315 8.4777 18.1861C8.52675 18.249 8.71729 18.4516 9.64572 18.4516H14.3559C15.2844 18.4516 15.4749 18.249 15.524 18.1861C15.5666 18.1315 15.6133 18.0376 15.6501 17.8576C15.6882 17.6713 15.7051 17.4539 15.726 17.1602L15.7261 17.1583L16.2027 9.88592C16.2307 9.45915 16.6222 9.13445 17.0772 9.16068C17.5322 9.18692 17.8783 9.55415 17.8504 9.98092L17.3732 17.2614L17.3719 17.2803C17.3528 17.5485 17.3308 17.8584 17.2713 18.1492C17.2091 18.4536 17.0962 18.7928 16.8563 19.1003C16.3404 19.7618 15.4745 20 14.3559 20H9.64572C8.5272 20 7.66123 19.7618 7.14535 19.1003C6.90551 18.7928 6.7926 18.4536 6.73037 18.1492C6.67089 17.8584 6.64887 17.5485 6.62981 17.2803L6.62846 17.2614L6.62819 17.2573L6.1513 9.98092C6.12333 9.55415 6.46949 9.18692 6.92449 9.16068ZM9.34125 12.3613C9.34125 11.9337 9.71079 11.5871 10.1666 11.5871H13.835C14.2909 11.5871 14.6604 11.9337 14.6604 12.3613C14.6604 12.7889 14.2909 13.1355 13.835 13.1355H10.1666C9.71079 13.1355 9.34125 12.7889 9.34125 12.3613ZM9.9502 15.2516C9.9502 14.824 10.3197 14.4774 10.7756 14.4774H13.2187C13.6746 14.4774 14.0441 14.824 14.0441 15.2516C14.0441 15.6792 13.6746 16.0258 13.2187 16.0258H10.7756C10.3197 16.0258 9.9502 15.6792 9.9502 15.2516Z" fill="#A91224"/>
</g>
<defs>
<clipPath id="clip0_264_41275">
<path d="M0 4C0 1.79086 1.79086 0 4 0H20C22.2091 0 24 1.79086 24 4V20C24 22.2091 22.2091 24 20 24H4C1.79086 24 0 22.2091 0 20V4Z" fill="white"/>
</clipPath>
</defs>
</svg>
