<svg width="25" height="25" viewBox="0 0 25 25" fill="none"
    xmlns="http://www.w3.org/2000/svg">
    <g clip-path="url(#clip0_222_17580)">
        <path d="M0.375977 4.04565C0.375977 1.83651 2.16684 0.0456543 4.37598 0.0456543H20.5932C22.8023 0.0456543 24.5932 1.83652 24.5932 4.04565V20.7789C24.5932 22.988 22.8023 24.7789 20.5932 24.7789H4.37597C2.16683 24.7789 0.375977 22.988 0.375977 20.7789V4.04565Z" fill="currentColor"/>
        <path fill-rule="evenodd" clip-rule="evenodd" d="M9.53075 5.73642V6.58097H5.39633C5.23967 6.58097 5.08944 6.64452 4.97867 6.75765C4.86789 6.87078 4.80566 7.02422 4.80566 7.18421C4.80566 7.34421 4.86789 7.49764 4.97867 7.61078C5.08944 7.72391 5.23967 7.78746 5.39633 7.78746H6.41681L7.09723 18.3564C7.13487 18.9733 7.39913 19.5529 7.83717 19.9794C8.27521 20.4059 8.85474 20.6478 9.45988 20.6568H15.5083C16.1189 20.6559 16.7062 20.4176 17.151 19.9903C17.5957 19.563 17.8644 18.9788 17.9024 18.3564L18.5529 7.78746H19.5722C19.7289 7.78746 19.8791 7.72391 19.9899 7.61078C20.1007 7.49764 20.1629 7.34421 20.1629 7.18421C20.1629 7.02422 20.1007 6.87078 19.9899 6.75765C19.8791 6.64452 19.7289 6.58097 19.5722 6.58097H17.9985H17.998H15.4374V5.77663C15.4375 5.35687 15.277 4.95367 14.9901 4.65312C14.7031 4.35257 14.3125 4.17846 13.9017 4.16797H11.0665C10.6623 4.17817 10.2775 4.34668 9.99161 4.63864C9.70574 4.9306 9.54074 5.32365 9.53075 5.73642ZM10.7121 6.58096H14.2561V5.77663C14.2561 5.68064 14.2187 5.58857 14.1523 5.5207C14.0858 5.45282 13.9957 5.41468 13.9017 5.41468H11.0665C10.9725 5.41468 10.8823 5.45282 10.8159 5.5207C10.7494 5.58857 10.7121 5.68064 10.7121 5.77663V6.58096ZM8.23918 18.284L7.63277 7.78746L17.3669 7.82768L16.729 18.284C16.7071 18.5998 16.5692 18.8955 16.3428 19.1118C16.1164 19.3281 15.8183 19.449 15.5083 19.4503H9.45988C9.14933 19.4509 8.8502 19.3307 8.62341 19.114C8.39662 18.8973 8.25921 18.6005 8.23918 18.284ZM14.4316 17.2605C14.5419 17.3731 14.691 17.4374 14.847 17.4394C15.003 17.4374 15.1521 17.3731 15.2624 17.2605C15.3727 17.1478 15.4356 16.9955 15.4376 16.8362V10.4015C15.4376 10.2415 15.3754 10.0881 15.2646 9.97498C15.1539 9.86185 15.0036 9.79829 14.847 9.79829C14.6903 9.79829 14.5401 9.86185 14.4293 9.97498C14.3185 10.0881 14.2563 10.2415 14.2563 10.4015V16.8362C14.2584 16.9955 14.3212 17.1478 14.4316 17.2605ZM10.1214 17.4394C9.9654 17.4374 9.81634 17.3731 9.70601 17.2605C9.59568 17.1478 9.53279 16.9955 9.53075 16.8362V10.4015C9.53075 10.2415 9.59299 10.0881 9.70376 9.97498C9.81453 9.86185 9.96476 9.79829 10.1214 9.79829C10.2781 9.79829 10.4283 9.86185 10.5391 9.97498C10.6498 10.0881 10.7121 10.2415 10.7121 10.4015V16.8362C10.71 16.9955 10.6472 17.1478 10.5368 17.2605C10.4265 17.3731 10.2774 17.4374 10.1214 17.4394ZM12.069 17.2605C12.1794 17.3731 12.3284 17.4374 12.4844 17.4394C12.6405 17.4374 12.7895 17.3731 12.8998 17.2605C13.0102 17.1478 13.0731 16.9955 13.0751 16.8362V10.4015C13.0751 10.2415 13.0129 10.0881 12.9021 9.97498C12.7913 9.86185 12.6411 9.79829 12.4844 9.79829C12.3278 9.79829 12.1775 9.86185 12.0668 9.97498C11.956 10.0881 11.8938 10.2415 11.8938 10.4015V16.8362C11.8958 16.9955 11.9587 17.1478 12.069 17.2605Z" fill="white"/>
    </g>
    <defs>
        <clipPath id="clip0_222_17580">
            <path d="M0.375977 4.04565C0.375977 1.83651 2.16684 0.0456543 4.37598 0.0456543H20.5932C22.8023 0.0456543 24.5932 1.83652 24.5932 4.04565V20.7789C24.5932 22.988 22.8023 24.7789 20.5932 24.7789H4.37597C2.16683 24.7789 0.375977 22.988 0.375977 20.7789V4.04565Z" fill="white"/>
        </clipPath>
    </defs>
</svg>
