<svg width="16" height="16" viewBox="0 0 16 16" fill="none" xmlns="http://www.w3.org/2000/svg">
<path fill-rule="evenodd" clip-rule="evenodd" d="M6.48803 1.70971C6.4601 1.80125 6.43972 1.91361 6.40849 2.09629L6.33556 2.52397C6.64091 2.51771 6.94626 2.51458 7.25163 2.51458C8.05692 2.51458 8.86291 2.52769 9.66883 2.55365L9.59082 2.0997C9.56177 1.92423 9.54209 1.81412 9.5147 1.72387C9.50233 1.68311 9.49134 1.65716 9.48316 1.64112C9.4792 1.63336 9.47612 1.62836 9.47418 1.62546C9.47293 1.6236 9.47162 1.6219 9.47162 1.6219L9.46998 1.6208C9.46647 1.61857 9.45225 1.61003 9.42008 1.59939C9.35116 1.5766 9.2127 1.54839 8.9611 1.54839H7.03886C6.68779 1.54839 6.55959 1.59822 6.5253 1.61748C6.51964 1.62644 6.50554 1.65232 6.48803 1.70971ZM6.51496 1.62494C6.51496 1.62494 6.51696 1.62238 6.52324 1.61867C6.51848 1.62332 6.51496 1.62494 6.51496 1.62494ZM11.3534 2.62657C12.4669 2.68706 13.5793 2.77177 14.6885 2.88003C15.1419 2.92428 15.4712 3.30491 15.4241 3.73019C15.3769 4.15547 14.9711 4.46435 14.5177 4.4201C12.1021 4.18434 9.67279 4.06296 7.25163 4.06296C5.82818 4.06296 4.40456 4.13377 2.98062 4.27542L2.97809 4.27567L1.48139 4.42019C1.02793 4.46397 0.622494 4.15467 0.575815 3.72934C0.529136 3.30401 0.858892 2.92372 1.31235 2.87994L2.80652 2.73567L2.80776 2.73555C3.42263 2.6744 4.03755 2.62593 4.65251 2.59016L4.77848 1.85141C4.78159 1.83322 4.78485 1.81359 4.78821 1.79332C4.83672 1.5009 4.91938 1.00259 5.26319 0.618609C5.68632 0.146048 6.32166 0 7.03886 0H8.9611C9.69127 0 10.3245 0.159309 10.7437 0.635061C11.0868 1.02449 11.1672 1.52276 11.2137 1.81076C11.2165 1.8279 11.2191 1.8443 11.2217 1.85988L11.2221 1.86211L11.3534 2.62657ZM2.92363 5.16068C3.37862 5.13445 3.77014 5.45915 3.79811 5.88592L4.27473 13.1583L4.27487 13.1603C4.29577 13.454 4.31266 13.6714 4.35074 13.8576C4.38756 14.0376 4.43422 14.1315 4.47685 14.1861C4.5259 14.249 4.71643 14.4516 5.64487 14.4516H10.3551C11.2835 14.4516 11.4741 14.249 11.5231 14.1861C11.5657 14.1315 11.6124 14.0376 11.6492 13.8576C11.6873 13.6713 11.7042 13.4539 11.7251 13.1602L11.7252 13.1583L12.2019 5.88592C12.2298 5.45915 12.6213 5.13445 13.0763 5.16068C13.5313 5.18692 13.8775 5.55415 13.8495 5.98092L13.3724 13.2614L13.371 13.2803C13.3519 13.5485 13.3299 13.8584 13.2705 14.1492C13.2082 14.4536 13.0953 14.7928 12.8555 15.1003C12.3396 15.7618 11.4736 16 10.3551 16H5.64487C4.52634 16 3.66038 15.7618 3.14449 15.1003C2.90466 14.7928 2.79174 14.4536 2.72951 14.1492C2.67003 13.8584 2.64801 13.5485 2.62895 13.2803L2.62761 13.2614L2.62733 13.2573L2.15044 5.98092C2.12247 5.55415 2.46864 5.18692 2.92363 5.16068ZM5.34039 8.36129C5.34039 7.93371 5.70993 7.5871 6.16578 7.5871H9.83418C10.29 7.5871 10.6596 7.93371 10.6596 8.36129C10.6596 8.78887 10.29 9.13548 9.83418 9.13548H6.16578C5.70993 9.13548 5.34039 8.78887 5.34039 8.36129ZM5.94935 11.2516C5.94935 10.824 6.31889 10.4774 6.77474 10.4774H9.21789C9.67374 10.4774 10.0433 10.824 10.0433 11.2516C10.0433 11.6792 9.67374 12.0258 9.21789 12.0258H6.77474C6.31889 12.0258 5.94935 11.6792 5.94935 11.2516Z" fill="currentColor"/>
</svg>
