<svg width="64" height="64" viewBox="0 0 64 65" fill="none" xmlns="http://www.w3.org/2000/svg">
<rect opacity="0.1" y="0.5" width="64" height="64" rx="32" fill="#E12121"/>
<rect opacity="0.3" x="12" y="12.5" width="40" height="40" rx="20" fill="#E12121"/>
<path fill-rule="evenodd" clip-rule="evenodd" d="M41 24.5H37.9C37.6679 23.3714 37.0538 22.3573 36.1613 21.6287C35.2687 20.9001 34.1522 20.5015 33 20.5H31C29.8478 20.5015 28.7313 20.9001 27.8387 21.6287C26.9462 22.3573 26.3321 23.3714 26.1 24.5H23C22.7348 24.5 22.4804 24.6054 22.2929 24.7929C22.1054 24.9804 22 25.2348 22 25.5C22 25.7652 22.1054 26.0196 22.2929 26.2071C22.4804 26.3946 22.7348 26.5 23 26.5H24V39.5C24.0016 40.8256 24.5289 42.0964 25.4662 43.0338C26.4036 43.9711 27.6744 44.4984 29 44.5H35C36.3256 44.4984 37.5964 43.9711 38.5338 43.0338C39.4711 42.0964 39.9984 40.8256 40 39.5V26.5H41C41.2652 26.5 41.5196 26.3946 41.7071 26.2071C41.8946 26.0196 42 25.7652 42 25.5C42 25.2348 41.8946 24.9804 41.7071 24.7929C41.5196 24.6054 41.2652 24.5 41 24.5ZM31 22.5H33C33.6203 22.5008 34.2251 22.6934 34.7316 23.0514C35.2381 23.4095 35.6214 23.9155 35.829 24.5H28.171C28.3786 23.9155 28.7619 23.4095 29.2684 23.0514C29.7749 22.6934 30.3797 22.5008 31 22.5ZM38 39.5C38 40.2956 37.6839 41.0587 37.1213 41.6213C36.5587 42.1839 35.7956 42.5 35 42.5H29C28.2044 42.5 27.4413 42.1839 26.8787 41.6213C26.3161 41.0587 26 40.2956 26 39.5V26.5H38V39.5ZM29.9999 38.5001C30.2652 38.5001 30.5195 38.3947 30.707 38.2072C30.8946 38.0196 30.9999 37.7653 30.9999 37.5001V31.5001C30.9999 31.2348 30.8946 30.9805 30.707 30.7929C30.5195 30.6054 30.2652 30.5001 29.9999 30.5001C29.7347 30.5001 29.4804 30.6054 29.2928 30.7929C29.1053 30.9805 28.9999 31.2348 28.9999 31.5001V37.5001C28.9999 37.7653 29.1053 38.0196 29.2928 38.2072C29.4804 38.3947 29.7347 38.5001 29.9999 38.5001ZM34.7072 38.2072C34.5196 38.3947 34.2653 38.5001 34.0001 38.5001C33.7348 38.5001 33.4805 38.3947 33.293 38.2072C33.1054 38.0196 33.0001 37.7653 33.0001 37.5001V31.5001C33.0001 31.2348 33.1054 30.9805 33.293 30.7929C33.4805 30.6054 33.7348 30.5001 34.0001 30.5001C34.2653 30.5001 34.5196 30.6054 34.7072 30.7929C34.8947 30.9805 35.0001 31.2348 35.0001 31.5001V37.5001C35.0001 37.7653 34.8947 38.0196 34.7072 38.2072Z" fill="#E12121"/>
</svg>
