<svg width="40" height="40" viewBox="0 0 40 40" fill="none" xmlns="http://www.w3.org/2000/svg">
<mask id="path-1-inside-1_15_1209" fill="white">
<path fill-rule="evenodd" clip-rule="evenodd" d="M21.5326 0.217769C20.5315 -0.0725897 19.4684 -0.0725897 18.4674 0.217769C17.821 0.4053 17.2694 0.730828 16.7257 1.1273C16.2076 1.50513 15.618 2.00757 14.9165 2.6054L14.9165 2.60544L14.556 2.9126C13.9283 3.44749 13.757 3.58556 13.5806 3.68605C13.399 3.78954 13.2051 3.86986 13.0035 3.92509C12.8077 3.97875 12.5889 4.00232 11.7668 4.06791L11.2947 4.10558C10.3759 4.17888 9.6038 4.2405 8.97024 4.33971C8.30544 4.44384 7.68528 4.60362 7.09554 4.92817C6.18235 5.43072 5.4307 6.18235 4.92817 7.09554C4.6036 7.68528 4.44382 8.30544 4.33971 8.97024C4.2405 9.60367 4.17891 10.3757 4.10563 11.2942L4.10558 11.2947L4.06791 11.7668C4.00232 12.5889 3.97875 12.8077 3.9251 13.0035C3.86986 13.2051 3.78954 13.399 3.68605 13.5806C3.58554 13.757 3.44749 13.9284 2.91258 14.556L2.60542 14.9165C2.00757 15.618 1.50514 16.2076 1.1273 16.7258C0.730829 17.2693 0.4053 17.8209 0.217769 18.4674C-0.0725897 19.4685 -0.0725897 20.5314 0.217769 21.5325C0.4053 22.179 0.730829 22.7306 1.1273 23.2743C1.50512 23.7925 2.00757 24.382 2.6054 25.0834L2.91258 25.4439C3.44749 26.0715 3.58554 26.243 3.68605 26.4194C3.78954 26.601 3.86986 26.7949 3.9251 26.9966C3.97875 27.1922 4.00232 27.4111 4.06791 28.2331L4.10558 28.7052C4.17888 29.6241 4.24048 30.3961 4.33971 31.0296C4.44382 31.6944 4.6036 32.3146 4.92817 32.9044C5.4307 33.8176 6.18235 34.5692 7.09554 35.0717C7.68528 35.3964 8.30544 35.5561 8.97024 35.6603C9.60384 35.7595 10.376 35.8211 11.2949 35.8944L11.7668 35.932C12.5889 35.9976 12.8077 36.0212 13.0035 36.0748C13.2051 36.13 13.399 36.2105 13.5806 36.3139C13.757 36.4143 13.9283 36.5525 14.556 37.0873L14.9165 37.3946L14.9215 37.3988C15.6208 37.9947 16.2088 38.4958 16.7257 38.8726C17.2694 39.2691 17.821 39.5946 18.4674 39.7822C19.4684 40.0725 20.5315 40.0725 21.5326 39.7822C22.179 39.5946 22.7305 39.2691 23.2743 38.8726C23.7917 38.4954 24.3805 37.9936 25.0807 37.3968L25.0834 37.3946L25.4439 37.0873C26.0716 36.5525 26.2431 36.4143 26.4193 36.3139C26.601 36.2105 26.7948 36.13 26.9965 36.0748C27.1923 36.0212 27.411 35.9976 28.2332 35.932L28.7051 35.8944C29.624 35.8211 30.3962 35.7595 31.0298 35.6603C31.6945 35.5561 32.3147 35.3964 32.9045 35.0717C33.8175 34.5692 34.5693 33.8176 35.0719 32.9044C35.3964 32.3146 35.5562 31.6944 35.6602 31.0296C35.7595 30.3961 35.8211 29.6239 35.8943 28.705L35.9321 28.2331C35.9977 27.4111 36.0211 27.1922 36.0749 26.9966C36.1301 26.7949 36.2104 26.601 36.3138 26.4194C36.4144 26.243 36.5525 26.0715 37.0874 25.4439L37.3947 25.0834L37.4 25.0772C37.9954 24.3783 38.4959 23.7909 38.8727 23.2743C39.2692 22.7306 39.5947 22.179 39.7821 21.5325C40.0726 20.5314 40.0726 19.4685 39.7821 18.4674C39.5947 17.8209 39.2692 17.2693 38.8727 16.7258C38.4948 16.2076 37.9925 15.618 37.3945 14.9165L37.0874 14.556C36.5525 13.9284 36.4144 13.757 36.3138 13.5806C36.2104 13.399 36.1301 13.2051 36.0749 13.0035C36.0211 12.8077 35.9977 12.5889 35.9321 11.7668L35.8943 11.2949C35.8211 10.376 35.7595 9.60384 35.6602 8.97024C35.5562 8.30544 35.3964 7.68528 35.0719 7.09554C34.5693 6.18235 33.8175 5.4307 32.9045 4.92817C32.3147 4.60362 31.6945 4.44384 31.0298 4.33971C30.3962 4.2405 29.624 4.17888 28.7051 4.10558L28.2332 4.06791C27.411 4.00232 27.1923 3.97875 26.9965 3.92509C26.7948 3.86986 26.601 3.78954 26.4193 3.68605C26.2431 3.58556 26.0716 3.44749 25.4439 2.9126L25.0836 2.60544L25.0811 2.60331C24.3806 2.0064 23.7918 1.50469 23.2743 1.1273C22.7305 0.730828 22.179 0.4053 21.5326 0.217769ZM24.9167 13.3333H27.5C27.721 13.3333 27.933 13.4211 28.0893 13.5774C28.2456 13.7337 28.3333 13.9456 28.3333 14.1666C28.3333 14.3876 28.2456 14.5996 28.0893 14.7559C27.933 14.9122 27.721 15 27.5 15H26.6667V25.8333C26.6654 26.938 26.2259 27.997 25.4448 28.7781C24.6637 29.5592 23.6047 29.9986 22.5 30H17.5C16.3954 29.9986 15.3363 29.5592 14.5552 28.7781C13.7741 27.997 13.3347 26.938 13.3333 25.8333V15H12.5C12.279 15 12.067 14.9122 11.9108 14.7559C11.7545 14.5996 11.6667 14.3876 11.6667 14.1666C11.6667 13.9456 11.7545 13.7337 11.9108 13.5774C12.067 13.4211 12.279 13.3333 12.5 13.3333H15.0833C15.2768 12.3928 15.7885 11.5478 16.5323 10.9406C17.2761 10.3334 18.2065 10.0012 19.1667 9.99997H20.8333C21.7935 10.0012 22.7239 10.3334 23.4677 10.9406C24.2115 11.5478 24.7233 12.3928 24.9167 13.3333ZM20.8333 11.6666H19.1667C18.6498 11.6673 18.1457 11.8278 17.7237 12.1262C17.3016 12.4246 16.9822 12.8462 16.8092 13.3333H23.1908C23.0179 12.8462 22.6984 12.4246 22.2764 12.1262C21.8543 11.8278 21.3502 11.6673 20.8333 11.6666ZM24.2678 27.6011C24.7366 27.1322 25 26.4963 25 25.8333V15H15V25.8333C15 26.4963 15.2634 27.1322 15.7322 27.6011C16.2011 28.0699 16.837 28.3333 17.5 28.3333H22.5C23.1631 28.3333 23.7989 28.0699 24.2678 27.6011ZM18.9226 24.7559C18.7663 24.9122 18.5544 25 18.3333 25C18.1123 25 17.9004 24.9122 17.7441 24.7559C17.5878 24.5996 17.5 24.3876 17.5 24.1666V19.1666C17.5 18.9456 17.5878 18.7337 17.7441 18.5774C17.9004 18.4211 18.1123 18.3333 18.3333 18.3333C18.5544 18.3333 18.7663 18.4211 18.9226 18.5774C19.0789 18.7337 19.1667 18.9456 19.1667 19.1666V24.1666C19.1667 24.3876 19.0789 24.5996 18.9226 24.7559ZM21.6667 25C21.8877 25 22.0997 24.9122 22.2559 24.7559C22.4122 24.5996 22.5 24.3876 22.5 24.1666V19.1666C22.5 18.9456 22.4122 18.7337 22.2559 18.5774C22.0997 18.4211 21.8877 18.3333 21.6667 18.3333C21.4457 18.3333 21.2337 18.4211 21.0774 18.5774C20.9211 18.7337 20.8333 18.9456 20.8333 19.1666V24.1666C20.8333 24.3876 20.9211 24.5996 21.0774 24.7559C21.2337 24.9122 21.4457 25 21.6667 25Z"/>
</mask>
<path fill-rule="evenodd" clip-rule="evenodd" d="M21.5326 0.217769C20.5315 -0.0725897 19.4684 -0.0725897 18.4674 0.217769C17.821 0.4053 17.2694 0.730828 16.7257 1.1273C16.2076 1.50513 15.618 2.00757 14.9165 2.6054L14.9165 2.60544L14.556 2.9126C13.9283 3.44749 13.757 3.58556 13.5806 3.68605C13.399 3.78954 13.2051 3.86986 13.0035 3.92509C12.8077 3.97875 12.5889 4.00232 11.7668 4.06791L11.2947 4.10558C10.3759 4.17888 9.6038 4.2405 8.97024 4.33971C8.30544 4.44384 7.68528 4.60362 7.09554 4.92817C6.18235 5.43072 5.4307 6.18235 4.92817 7.09554C4.6036 7.68528 4.44382 8.30544 4.33971 8.97024C4.2405 9.60367 4.17891 10.3757 4.10563 11.2942L4.10558 11.2947L4.06791 11.7668C4.00232 12.5889 3.97875 12.8077 3.9251 13.0035C3.86986 13.2051 3.78954 13.399 3.68605 13.5806C3.58554 13.757 3.44749 13.9284 2.91258 14.556L2.60542 14.9165C2.00757 15.618 1.50514 16.2076 1.1273 16.7258C0.730829 17.2693 0.4053 17.8209 0.217769 18.4674C-0.0725897 19.4685 -0.0725897 20.5314 0.217769 21.5325C0.4053 22.179 0.730829 22.7306 1.1273 23.2743C1.50512 23.7925 2.00757 24.382 2.6054 25.0834L2.91258 25.4439C3.44749 26.0715 3.58554 26.243 3.68605 26.4194C3.78954 26.601 3.86986 26.7949 3.9251 26.9966C3.97875 27.1922 4.00232 27.4111 4.06791 28.2331L4.10558 28.7052C4.17888 29.6241 4.24048 30.3961 4.33971 31.0296C4.44382 31.6944 4.6036 32.3146 4.92817 32.9044C5.4307 33.8176 6.18235 34.5692 7.09554 35.0717C7.68528 35.3964 8.30544 35.5561 8.97024 35.6603C9.60384 35.7595 10.376 35.8211 11.2949 35.8944L11.7668 35.932C12.5889 35.9976 12.8077 36.0212 13.0035 36.0748C13.2051 36.13 13.399 36.2105 13.5806 36.3139C13.757 36.4143 13.9283 36.5525 14.556 37.0873L14.9165 37.3946L14.9215 37.3988C15.6208 37.9947 16.2088 38.4958 16.7257 38.8726C17.2694 39.2691 17.821 39.5946 18.4674 39.7822C19.4684 40.0725 20.5315 40.0725 21.5326 39.7822C22.179 39.5946 22.7305 39.2691 23.2743 38.8726C23.7917 38.4954 24.3805 37.9936 25.0807 37.3968L25.0834 37.3946L25.4439 37.0873C26.0716 36.5525 26.2431 36.4143 26.4193 36.3139C26.601 36.2105 26.7948 36.13 26.9965 36.0748C27.1923 36.0212 27.411 35.9976 28.2332 35.932L28.7051 35.8944C29.624 35.8211 30.3962 35.7595 31.0298 35.6603C31.6945 35.5561 32.3147 35.3964 32.9045 35.0717C33.8175 34.5692 34.5693 33.8176 35.0719 32.9044C35.3964 32.3146 35.5562 31.6944 35.6602 31.0296C35.7595 30.3961 35.8211 29.6239 35.8943 28.705L35.9321 28.2331C35.9977 27.4111 36.0211 27.1922 36.0749 26.9966C36.1301 26.7949 36.2104 26.601 36.3138 26.4194C36.4144 26.243 36.5525 26.0715 37.0874 25.4439L37.3947 25.0834L37.4 25.0772C37.9954 24.3783 38.4959 23.7909 38.8727 23.2743C39.2692 22.7306 39.5947 22.179 39.7821 21.5325C40.0726 20.5314 40.0726 19.4685 39.7821 18.4674C39.5947 17.8209 39.2692 17.2693 38.8727 16.7258C38.4948 16.2076 37.9925 15.618 37.3945 14.9165L37.0874 14.556C36.5525 13.9284 36.4144 13.757 36.3138 13.5806C36.2104 13.399 36.1301 13.2051 36.0749 13.0035C36.0211 12.8077 35.9977 12.5889 35.9321 11.7668L35.8943 11.2949C35.8211 10.376 35.7595 9.60384 35.6602 8.97024C35.5562 8.30544 35.3964 7.68528 35.0719 7.09554C34.5693 6.18235 33.8175 5.4307 32.9045 4.92817C32.3147 4.60362 31.6945 4.44384 31.0298 4.33971C30.3962 4.2405 29.624 4.17888 28.7051 4.10558L28.2332 4.06791C27.411 4.00232 27.1923 3.97875 26.9965 3.92509C26.7948 3.86986 26.601 3.78954 26.4193 3.68605C26.2431 3.58556 26.0716 3.44749 25.4439 2.9126L25.0836 2.60544L25.0811 2.60331C24.3806 2.0064 23.7918 1.50469 23.2743 1.1273C22.7305 0.730828 22.179 0.4053 21.5326 0.217769ZM24.9167 13.3333H27.5C27.721 13.3333 27.933 13.4211 28.0893 13.5774C28.2456 13.7337 28.3333 13.9456 28.3333 14.1666C28.3333 14.3876 28.2456 14.5996 28.0893 14.7559C27.933 14.9122 27.721 15 27.5 15H26.6667V25.8333C26.6654 26.938 26.2259 27.997 25.4448 28.7781C24.6637 29.5592 23.6047 29.9986 22.5 30H17.5C16.3954 29.9986 15.3363 29.5592 14.5552 28.7781C13.7741 27.997 13.3347 26.938 13.3333 25.8333V15H12.5C12.279 15 12.067 14.9122 11.9108 14.7559C11.7545 14.5996 11.6667 14.3876 11.6667 14.1666C11.6667 13.9456 11.7545 13.7337 11.9108 13.5774C12.067 13.4211 12.279 13.3333 12.5 13.3333H15.0833C15.2768 12.3928 15.7885 11.5478 16.5323 10.9406C17.2761 10.3334 18.2065 10.0012 19.1667 9.99997H20.8333C21.7935 10.0012 22.7239 10.3334 23.4677 10.9406C24.2115 11.5478 24.7233 12.3928 24.9167 13.3333ZM20.8333 11.6666H19.1667C18.6498 11.6673 18.1457 11.8278 17.7237 12.1262C17.3016 12.4246 16.9822 12.8462 16.8092 13.3333H23.1908C23.0179 12.8462 22.6984 12.4246 22.2764 12.1262C21.8543 11.8278 21.3502 11.6673 20.8333 11.6666ZM24.2678 27.6011C24.7366 27.1322 25 26.4963 25 25.8333V15H15V25.8333C15 26.4963 15.2634 27.1322 15.7322 27.6011C16.2011 28.0699 16.837 28.3333 17.5 28.3333H22.5C23.1631 28.3333 23.7989 28.0699 24.2678 27.6011ZM18.9226 24.7559C18.7663 24.9122 18.5544 25 18.3333 25C18.1123 25 17.9004 24.9122 17.7441 24.7559C17.5878 24.5996 17.5 24.3876 17.5 24.1666V19.1666C17.5 18.9456 17.5878 18.7337 17.7441 18.5774C17.9004 18.4211 18.1123 18.3333 18.3333 18.3333C18.5544 18.3333 18.7663 18.4211 18.9226 18.5774C19.0789 18.7337 19.1667 18.9456 19.1667 19.1666V24.1666C19.1667 24.3876 19.0789 24.5996 18.9226 24.7559ZM21.6667 25C21.8877 25 22.0997 24.9122 22.2559 24.7559C22.4122 24.5996 22.5 24.3876 22.5 24.1666V19.1666C22.5 18.9456 22.4122 18.7337 22.2559 18.5774C22.0997 18.4211 21.8877 18.3333 21.6667 18.3333C21.4457 18.3333 21.2337 18.4211 21.0774 18.5774C20.9211 18.7337 20.8333 18.9456 20.8333 19.1666V24.1666C20.8333 24.3876 20.9211 24.5996 21.0774 24.7559C21.2337 24.9122 21.4457 25 21.6667 25Z" fill="url(#paint0_linear_15_1209)"/>
<path d="M18.4674 0.217769L18.1888 -0.742648L18.1887 -0.742627L18.4674 0.217769ZM21.5326 0.217769L21.8112 -0.742627L21.8112 -0.742648L21.5326 0.217769ZM16.7257 1.1273L16.1365 0.319278L16.1365 0.319311L16.7257 1.1273ZM14.9165 2.6054L15.5567 3.37367L15.5651 3.3665L14.9165 2.6054ZM14.9165 2.60544L14.2762 1.83717L14.2678 1.84432L14.9165 2.60544ZM14.556 2.9126L15.2046 3.67372L15.2046 3.67371L14.556 2.9126ZM13.5806 3.68605L13.0855 2.81718L13.0855 2.81719L13.5806 3.68605ZM13.0035 3.92509L12.7393 2.96063L12.7392 2.96066L13.0035 3.92509ZM11.7668 4.06791L11.8464 5.06475L11.8464 5.06474L11.7668 4.06791ZM11.2947 4.10558L11.3742 5.10242L11.3743 5.10242L11.2947 4.10558ZM8.97024 4.33971L8.81554 3.35175L8.8155 3.35175L8.97024 4.33971ZM7.09554 4.92817L6.6134 4.05207L6.61339 4.05207L7.09554 4.92817ZM4.92817 7.09554L5.80425 7.57769L5.80427 7.57766L4.92817 7.09554ZM4.33971 8.97024L5.32766 9.12498L5.32767 9.12496L4.33971 8.97024ZM4.10563 11.2942L5.10245 11.3738L5.10246 11.3737L4.10563 11.2942ZM4.10558 11.2947L3.10876 11.2151L3.10875 11.2152L4.10558 11.2947ZM4.06791 11.7668L5.06475 11.8464V11.8464L4.06791 11.7668ZM3.9251 13.0035L2.96066 12.7392L2.96063 12.7393L3.9251 13.0035ZM3.68605 13.5806L4.55487 14.0757L4.55491 14.0757L3.68605 13.5806ZM2.91258 14.556L2.15148 13.9074L2.15145 13.9074L2.91258 14.556ZM2.60542 14.9165L3.36652 15.5651L3.36655 15.5651L2.60542 14.9165ZM1.1273 16.7258L1.93521 17.3151L1.93528 17.315L1.1273 16.7258ZM0.217769 18.4674L1.17819 18.746L1.17819 18.746L0.217769 18.4674ZM0.217769 21.5325L1.17819 21.2539L1.17819 21.2539L0.217769 21.5325ZM1.1273 23.2743L0.319278 23.8635L0.319297 23.8635L1.1273 23.2743ZM2.6054 25.0834L3.36654 24.4349L3.36646 24.4348L2.6054 25.0834ZM2.91258 25.4439L2.15144 26.0925L2.15152 26.0926L2.91258 25.4439ZM3.68605 26.4194L2.81713 26.9143L2.81716 26.9144L3.68605 26.4194ZM3.9251 26.9966L2.96062 27.2607L2.9607 27.261L3.9251 26.9966ZM4.06791 28.2331L5.06475 28.1536L5.06474 28.1535L4.06791 28.2331ZM4.10558 28.7052L5.10242 28.6257L5.10242 28.6257L4.10558 28.7052ZM4.33971 31.0296L5.32767 30.8749L5.32766 30.8749L4.33971 31.0296ZM4.92817 32.9044L5.80428 32.4223L5.80426 32.4222L4.92817 32.9044ZM7.09554 35.0717L7.57783 34.1957L7.57766 34.1956L7.09554 35.0717ZM8.97024 35.6603L8.81535 36.6482L8.81552 36.6483L8.97024 35.6603ZM11.2949 35.8944L11.3743 34.8975L11.3743 34.8975L11.2949 35.8944ZM11.7668 35.932L11.8464 34.9352L11.8463 34.9351L11.7668 35.932ZM13.0035 36.0748L12.7393 37.0393H12.7393L13.0035 36.0748ZM13.5806 36.3139L13.0858 37.1829L13.0858 37.1829L13.5806 36.3139ZM14.556 37.0873L15.2047 36.3263L15.2045 36.3261L14.556 37.0873ZM14.9165 37.3946L14.2678 38.1556L14.2678 38.1556L14.9165 37.3946ZM14.9215 37.3988L14.2727 38.1598L14.2729 38.1599L14.9215 37.3988ZM16.7257 38.8726L17.3149 38.0646L17.3147 38.0645L16.7257 38.8726ZM18.4674 39.7822L18.1886 40.7426L18.1889 40.7427L18.4674 39.7822ZM21.5326 39.7822L21.8111 40.7427L21.8114 40.7426L21.5326 39.7822ZM23.2743 38.8726L22.6852 38.0645L22.6851 38.0646L23.2743 38.8726ZM25.0807 37.3968L24.4323 36.6355L24.4321 36.6358L25.0807 37.3968ZM25.0834 37.3946L25.7317 38.1559L25.7321 38.1556L25.0834 37.3946ZM25.4439 37.0873L24.7954 36.326L24.7951 36.3263L25.4439 37.0873ZM26.4193 36.3139L25.9245 35.4449L25.9243 35.445L26.4193 36.3139ZM26.9965 36.0748L26.7324 35.1103L26.7324 35.1103L26.9965 36.0748ZM28.2332 35.932L28.1538 34.9351L28.1537 34.9352L28.2332 35.932ZM28.7051 35.8944L28.6257 34.8975L28.6257 34.8975L28.7051 35.8944ZM31.0298 35.6603L31.1845 36.6483L31.1847 36.6482L31.0298 35.6603ZM32.9045 35.0717L32.4223 34.1957L32.4222 34.1957L32.9045 35.0717ZM35.0719 32.9044L35.948 33.3865L35.948 33.3864L35.0719 32.9044ZM35.6602 31.0296L34.6723 30.8749L34.6722 30.875L35.6602 31.0296ZM35.8943 28.705L34.8975 28.6252L34.8974 28.6256L35.8943 28.705ZM35.9321 28.2331L36.9289 28.313L36.9289 28.3127L35.9321 28.2331ZM36.0749 26.9966L37.0391 27.2618L37.0394 27.2606L36.0749 26.9966ZM36.3138 26.4194L35.4451 25.924L35.4448 25.9246L36.3138 26.4194ZM37.0874 25.4439L37.8484 26.0926L37.8485 26.0926L37.0874 25.4439ZM37.3947 25.0834L38.1557 25.7321L38.1559 25.732L37.3947 25.0834ZM37.4 25.0772L36.6388 24.4286L36.6388 24.4287L37.4 25.0772ZM38.8727 23.2743L39.6806 23.8636L39.6807 23.8635L38.8727 23.2743ZM39.7821 21.5325L38.8218 21.2538L38.8217 21.254L39.7821 21.5325ZM39.7821 18.4674L38.8217 18.7459L38.8218 18.7461L39.7821 18.4674ZM38.8727 16.7258L38.0648 17.315L38.0648 17.3151L38.8727 16.7258ZM37.3945 14.9165L36.6333 15.565L36.6335 15.5652L37.3945 14.9165ZM37.0874 14.556L37.8486 13.9075L37.8485 13.9074L37.0874 14.556ZM36.3138 13.5806L35.4448 14.0754L35.4452 14.0762L36.3138 13.5806ZM36.0749 13.0035L37.0394 12.7393L37.0392 12.7384L36.0749 13.0035ZM35.9321 11.7668L36.9289 11.6873L36.9289 11.687L35.9321 11.7668ZM35.8943 11.2949L34.8974 11.3743L34.8975 11.3747L35.8943 11.2949ZM35.6602 8.97024L34.6722 9.12484L34.6723 9.12497L35.6602 8.97024ZM35.0719 7.09554L35.948 6.61347L35.948 6.61341L35.0719 7.09554ZM32.9045 4.92817L33.3867 4.0521L33.3866 4.05206L32.9045 4.92817ZM31.0298 4.33971L31.1845 3.35175L31.1845 3.35175L31.0298 4.33971ZM28.7051 4.10558L28.6256 5.10241L28.6256 5.10242L28.7051 4.10558ZM28.2332 4.06791L28.3128 3.07108L28.3127 3.07108L28.2332 4.06791ZM26.9965 3.92509L27.2607 2.96063L27.2607 2.96062L26.9965 3.92509ZM26.4193 3.68605L25.924 4.55477L25.9243 4.55494L26.4193 3.68605ZM25.4439 2.9126L24.7951 3.67359L24.7953 3.67377L25.4439 2.9126ZM25.0836 2.60544L25.7323 1.84445L25.7322 1.84433L25.0836 2.60544ZM25.0811 2.60331L25.7297 1.8422L25.7296 1.84217L25.0811 2.60331ZM23.2743 1.1273L23.8635 0.319312L23.8634 0.319278L23.2743 1.1273ZM24.9167 13.3333L23.9372 13.5347L24.1014 14.3333H24.9167V13.3333ZM28.0893 13.5774L27.3822 14.2845L27.3822 14.2845L28.0893 13.5774ZM26.6667 15V14H25.6667V15H26.6667ZM26.6667 25.8333L27.6667 25.8345V25.8333H26.6667ZM25.4448 28.7781L24.7377 28.071L24.7377 28.071L25.4448 28.7781ZM22.5 30V31H22.5012L22.5 30ZM17.5 30L17.4988 31H17.5V30ZM13.3333 25.8333H12.3333L12.3334 25.8345L13.3333 25.8333ZM13.3333 15H14.3333V14H13.3333V15ZM11.9108 13.5774L12.6179 14.2845L12.6179 14.2845L11.9108 13.5774ZM15.0833 13.3333V14.3333H15.8986L16.0629 13.5347L15.0833 13.3333ZM16.5323 10.9406L15.8999 10.1659L15.8999 10.1659L16.5323 10.9406ZM19.1667 9.99997V8.99996L19.1654 8.99997L19.1667 9.99997ZM20.8333 9.99997L20.8346 8.99997H20.8333V9.99997ZM23.4677 10.9406L22.8353 11.7152H22.8353L23.4677 10.9406ZM19.1667 11.6666V10.6666L19.1655 10.6666L19.1667 11.6666ZM20.8333 11.6666L20.8346 10.6666H20.8333V11.6666ZM16.8092 13.3333L15.8668 12.9986L15.3928 14.3333H16.8092V13.3333ZM23.1908 13.3333V14.3333H24.6072L24.1332 12.9986L23.1908 13.3333ZM25 15H26V14H25V15ZM15 15V14H14V15H15ZM15.7322 27.6011L15.0251 28.3082L15.0251 28.3082L15.7322 27.6011ZM18.9226 24.7559L19.6297 25.463L19.6297 25.463L18.9226 24.7559ZM17.7441 24.7559L17.037 25.463L17.037 25.463L17.7441 24.7559ZM22.2559 18.5774L21.5488 19.2845L21.5488 19.2845L22.2559 18.5774ZM21.0774 24.7559L20.3703 25.463L20.3703 25.463L21.0774 24.7559ZM18.7459 1.17819C19.565 0.940605 20.4349 0.940605 21.254 1.17819L21.8112 -0.742648C20.6281 -1.08578 19.3718 -1.08578 18.1888 -0.742648L18.7459 1.17819ZM17.3148 1.93531C17.8106 1.57388 18.2551 1.3206 18.746 1.17817L18.1887 -0.742627C17.3869 -0.509998 16.7283 -0.112221 16.1365 0.319278L17.3148 1.93531ZM15.5651 3.3665C16.2767 2.76012 16.8341 2.28589 17.3149 1.93528L16.1365 0.319311C15.581 0.724374 14.9593 1.25503 14.2679 1.8443L15.5651 3.3665ZM15.5566 3.37366L15.5567 3.37362L14.2763 1.83718L14.2763 1.83722L15.5566 3.37366ZM15.2046 3.67371L15.5651 3.36655L14.2678 1.84432L13.9074 2.15149L15.2046 3.67371ZM14.0756 4.55492C14.3539 4.39637 14.6095 4.18091 15.2046 3.67372L13.9074 2.15148C13.2472 2.71406 13.16 2.77475 13.0855 2.81718L14.0756 4.55492ZM13.2677 4.88956C13.55 4.81221 13.8214 4.69975 14.0757 4.55491L13.0855 2.81719C12.9765 2.87933 12.8601 2.92751 12.7393 2.96063L13.2677 4.88956ZM11.8464 5.06474C12.6259 5.00254 12.9589 4.97418 13.2678 4.88953L12.7392 2.96066C12.6565 2.98332 12.5519 3.00209 11.6873 3.07108L11.8464 5.06474ZM11.3743 5.10242L11.8464 5.06475L11.6873 3.07108L11.2152 3.10875L11.3743 5.10242ZM9.12495 5.32767C9.71284 5.23561 10.4423 5.17676 11.3742 5.10242L11.2152 3.10875C10.3095 3.181 9.49475 3.24539 8.81554 3.35175L9.12495 5.32767ZM7.57767 5.80426C8.02556 5.55778 8.51892 5.42259 9.12499 5.32766L8.8155 3.35175C8.09197 3.46508 7.34499 3.64946 6.6134 4.05207L7.57767 5.80426ZM5.80427 7.57766C6.21545 6.83048 6.83046 6.21548 7.57768 5.80426L6.61339 4.05207C5.53423 4.64597 4.64596 5.53421 4.05207 6.61341L5.80427 7.57766ZM5.32767 9.12496C5.42257 8.51891 5.55776 8.02557 5.80425 7.57769L4.05208 6.61338C3.64944 7.34498 3.46506 8.09198 3.35175 8.81553L5.32767 9.12496ZM5.10246 11.3737C5.17679 10.442 5.23561 9.71273 5.32766 9.12498L3.35175 8.81551C3.24539 9.49461 3.18103 10.3093 3.1088 11.2147L5.10246 11.3737ZM5.10241 11.3744L5.10245 11.3738L3.1088 11.2145L3.10876 11.2151L5.10241 11.3744ZM5.06475 11.8464L5.10242 11.3743L3.10875 11.2152L3.07108 11.6873L5.06475 11.8464ZM4.88953 13.2678C4.97418 12.9589 5.00254 12.6259 5.06475 11.8464L3.07108 11.6873C3.00209 12.5519 2.98332 12.6565 2.96066 12.7392L4.88953 13.2678ZM4.55491 14.0757C4.69975 13.8215 4.81221 13.55 4.88956 13.2677L2.96063 12.7393C2.92751 12.8601 2.87933 12.9765 2.81719 13.0855L4.55491 14.0757ZM3.67368 15.2047C4.18097 14.6094 4.39633 14.3539 4.55487 14.0757L2.81723 13.0855C2.77476 13.16 2.714 13.2473 2.15148 13.9074L3.67368 15.2047ZM3.36655 15.5651L3.67371 15.2046L2.15145 13.9074L1.84428 14.2679L3.36655 15.5651ZM1.93528 17.315C2.28591 16.8342 2.76017 16.2766 3.36652 15.5651L1.84431 14.2678C1.25498 14.9594 0.724372 15.5811 0.319312 16.1366L1.93528 17.315ZM1.17819 18.746C1.32062 18.2549 1.57388 17.8104 1.93521 17.3151L0.319382 16.1365C-0.112223 16.7282 -0.510022 17.3868 -0.742651 18.1889L1.17819 18.746ZM1.17819 21.2539C0.940605 20.4348 0.940605 19.5651 1.17819 18.746L-0.742648 18.1889C-1.08578 19.3719 -1.08578 20.628 -0.742648 21.811L1.17819 21.2539ZM1.93531 22.6852C1.57389 22.1895 1.32062 21.745 1.17819 21.2539L-0.742651 21.811C-0.510024 22.6131 -0.112232 23.2717 0.319278 23.8635L1.93531 22.6852ZM3.36646 24.4348C2.7601 23.7234 2.28587 23.1659 1.9353 22.6852L0.319297 23.8635C0.724372 24.419 1.25505 25.0407 1.84434 25.7321L3.36646 24.4348ZM3.67373 24.7954L3.36654 24.4349L1.84425 25.732L2.15144 26.0925L3.67373 24.7954ZM4.55497 25.9245C4.39638 25.646 4.18096 25.3905 3.67364 24.7953L2.15152 26.0926C2.71401 26.7526 2.77471 26.8399 2.81713 26.9143L4.55497 25.9245ZM4.88957 26.7324C4.81221 26.4499 4.69974 26.1786 4.55494 25.9244L2.81716 26.9144C2.87933 27.0235 2.92751 27.1399 2.96062 27.2607L4.88957 26.7324ZM5.06474 28.1535C5.00255 27.3741 4.97419 27.0409 4.88949 26.7321L2.9607 27.261C2.98331 27.3435 3.00209 27.448 3.07108 28.3126L5.06474 28.1535ZM5.10242 28.6257L5.06475 28.1536L3.07108 28.3126L3.10875 28.7848L5.10242 28.6257ZM5.32766 30.8749C5.23559 30.287 5.17676 29.5577 5.10242 28.6257L3.10875 28.7847C3.181 29.6905 3.24537 30.5051 3.35175 31.1844L5.32766 30.8749ZM5.80426 32.4222C5.55776 31.9743 5.42257 31.481 5.32767 30.8749L3.35175 31.1844C3.46506 31.9079 3.64944 32.6549 4.05208 33.3865L5.80426 32.4222ZM7.57766 34.1956C6.83046 33.7845 6.21546 33.1695 5.80428 32.4223L4.05205 33.3865C4.64595 34.4657 5.53424 35.354 6.61341 35.9478L7.57766 34.1956ZM9.12513 34.6724C8.51878 34.5773 8.02556 34.4422 7.57783 34.1957L6.61324 35.9478C7.34499 36.3506 8.09211 36.5348 8.81535 36.6482L9.12513 34.6724ZM11.3743 34.8975C10.4424 34.8233 9.71286 34.7644 9.12497 34.6723L8.81552 36.6483C9.49481 36.7546 10.3097 36.819 11.2154 36.8912L11.3743 34.8975ZM11.8463 34.9351L11.3743 34.8975L11.2154 36.8912L11.6874 36.9288L11.8463 34.9351ZM13.2676 35.1103C12.9589 35.0258 12.6261 34.9974 11.8464 34.9352L11.6873 36.9288C12.5517 36.9978 12.6565 37.0166 12.7393 37.0393L13.2676 35.1103ZM14.0754 35.4449C13.8216 35.3004 13.5503 35.1877 13.2676 35.1103L12.7393 37.0393C12.8599 37.0723 12.9763 37.1205 13.0858 37.1829L14.0754 35.4449ZM15.2045 36.3261C14.6098 35.8194 14.3539 35.6034 14.0754 35.4449L13.0858 37.1829C13.1601 37.2252 13.2469 37.2857 13.9075 37.8485L15.2045 36.3261ZM15.5652 36.6336L15.2047 36.3263L13.9073 37.8483L14.2678 38.1556L15.5652 36.6336ZM15.5702 36.6378L15.5652 36.6335L14.2678 38.1556L14.2727 38.1598L15.5702 36.6378ZM17.3147 38.0645C16.8352 37.7149 16.2794 37.2421 15.5701 36.6377L14.2729 38.1599C14.9621 38.7473 15.5823 39.2766 16.1366 39.6807L17.3147 38.0645ZM18.7462 38.8219C18.2551 38.6793 17.8105 38.426 17.3149 38.0646L16.1365 39.6806C16.7284 40.1122 17.3869 40.5098 18.1886 40.7426L18.7462 38.8219ZM21.2541 38.8218C20.4349 39.0593 19.565 39.0593 18.7459 38.8218L18.1889 40.7427C19.3719 41.0857 20.6281 41.0857 21.8111 40.7427L21.2541 38.8218ZM22.6851 38.0646C22.1894 38.426 21.7449 38.6793 21.2538 38.8219L21.8114 40.7426C22.6131 40.5098 23.2716 40.1122 23.8635 39.6806L22.6851 38.0646ZM24.4321 36.6358C23.7218 37.2411 23.1653 37.7146 22.6852 38.0645L23.8633 39.6807C24.4182 39.2761 25.0392 38.7461 25.7293 38.1579L24.4321 36.6358ZM24.435 36.6332L24.4323 36.6355L25.7291 38.1582L25.7317 38.1559L24.435 36.6332ZM24.7951 36.3263L24.4347 36.6335L25.7321 38.1556L26.0926 37.8483L24.7951 36.3263ZM25.9243 35.445C25.6462 35.6035 25.3904 35.8192 24.7954 36.326L26.0923 37.8485C26.7529 37.2859 26.84 37.2251 26.9144 37.1827L25.9243 35.445ZM26.7324 35.1103C26.4496 35.1877 26.1783 35.3004 25.9245 35.4449L26.9141 37.1829C27.0236 37.1205 27.14 37.0723 27.2606 37.0393L26.7324 35.1103ZM28.1537 34.9352C27.3737 34.9974 27.0412 35.0258 26.7324 35.1103L27.2605 37.0393C27.3435 37.0166 27.4483 36.9978 28.3128 36.9288L28.1537 34.9352ZM28.6257 34.8975L28.1538 34.9351L28.3127 36.9288L28.7846 36.8912L28.6257 34.8975ZM30.875 34.6723C30.2872 34.7644 29.5576 34.8233 28.6257 34.8975L28.7846 36.8912C29.6904 36.819 30.5052 36.7546 31.1845 36.6483L30.875 34.6723ZM32.4222 34.1957C31.9744 34.4422 31.4812 34.5773 30.8749 34.6724L31.1847 36.6482C31.9079 36.5348 32.655 36.3506 33.3868 35.9478L32.4222 34.1957ZM34.1958 32.4223C33.7846 33.1694 33.1695 33.7844 32.4223 34.1957L33.3867 35.9478C34.4656 35.354 35.354 34.4658 35.948 33.3865L34.1958 32.4223ZM34.6722 30.875C34.5774 31.4809 34.4422 31.9743 34.1957 32.4223L35.948 33.3864C36.3505 32.6549 36.535 31.9079 36.6482 31.1843L34.6722 30.875ZM34.8974 28.6256C34.8232 29.5575 34.7643 30.2871 34.6723 30.8749L36.6482 31.1844C36.7546 30.5051 36.819 29.6902 36.8911 28.7845L34.8974 28.6256ZM34.9353 28.1532L34.8975 28.6252L36.8911 28.7849L36.9289 28.313L34.9353 28.1532ZM35.1107 26.7314C35.0256 27.0407 34.9974 27.3748 34.9353 28.1535L36.9289 28.3127C36.998 27.4473 37.0166 27.3437 37.0391 27.2618L35.1107 26.7314ZM35.4448 25.9246C35.3 26.1789 35.1877 26.4503 35.1104 26.7325L37.0394 27.2606C37.0726 27.1395 37.1207 27.0232 37.1828 26.9142L35.4448 25.9246ZM36.3264 24.7952C35.8189 25.3906 35.6037 25.6459 35.4451 25.924L37.1825 26.9148C37.2251 26.84 37.2861 26.7524 37.8484 26.0926L36.3264 24.7952ZM36.6337 24.4347L36.3264 24.7952L37.8485 26.0926L38.1557 25.7321L36.6337 24.4347ZM36.6388 24.4287L36.6335 24.4349L38.1559 25.732L38.1612 25.7257L36.6388 24.4287ZM38.0648 22.6851C37.7151 23.1644 37.2428 23.7198 36.6388 24.4286L38.1612 25.7257C38.7481 25.0369 39.2767 24.4174 39.6806 23.8636L38.0648 22.6851ZM38.8217 21.254C38.6793 21.7451 38.4261 22.1895 38.0647 22.6851L39.6807 23.8635C40.1123 23.2717 40.5101 22.613 40.7426 21.8109L38.8217 21.254ZM38.8218 18.7461C39.0594 19.5652 39.0594 20.4348 38.8218 21.2538L40.7425 21.8111C41.0858 20.628 41.0858 19.3719 40.7425 18.1888L38.8218 18.7461ZM38.0648 17.3151C38.4261 17.8104 38.6793 18.2549 38.8217 18.7459L40.7426 18.189C40.51 17.3869 40.1123 16.7282 39.6806 16.1364L38.0648 17.3151ZM36.6335 15.5652C37.2398 16.2765 37.7141 16.8342 38.0648 17.315L39.6806 16.1365C39.2755 15.5811 38.7451 14.9595 38.1555 14.2678L36.6335 15.5652ZM36.3262 15.2045L36.6333 15.565L38.1557 14.268L37.8486 13.9075L36.3262 15.2045ZM35.4452 14.0762C35.6038 14.3541 35.8189 14.6093 36.3263 15.2047L37.8485 13.9074C37.2861 13.2475 37.2251 13.1599 37.1824 13.085L35.4452 14.0762ZM35.1105 13.2676C35.1877 13.5497 35.3 13.8211 35.4448 14.0754L37.1828 13.0858C37.1208 12.9768 37.0726 12.8605 37.0394 12.7393L35.1105 13.2676ZM34.9353 11.8464C34.9974 12.6252 35.0257 12.9591 35.1107 13.2685L37.0392 12.7384C37.0166 12.6563 36.998 12.5525 36.9289 11.6873L34.9353 11.8464ZM34.8975 11.3747L34.9353 11.8467L36.9289 11.687L36.8911 11.215L34.8975 11.3747ZM34.6723 9.12497C34.7643 9.71286 34.8232 10.4424 34.8974 11.3743L36.8911 11.2154C36.8189 10.3097 36.7546 9.49481 36.6482 8.81552L34.6723 9.12497ZM34.1957 7.57761C34.4422 8.02556 34.5774 8.51896 34.6722 9.12484L36.6482 8.81565C36.535 8.09193 36.3505 7.34499 35.948 6.61347L34.1957 7.57761ZM32.4223 5.80424C33.1694 6.21547 33.7846 6.83053 34.1958 7.57766L35.948 6.61341C35.354 5.53417 34.4656 4.64594 33.3867 4.0521L32.4223 5.80424ZM30.875 5.32766C31.4811 5.42259 31.9744 5.55778 32.4224 5.80427L33.3866 4.05206C32.655 3.64946 31.908 3.46508 31.1845 3.35175L30.875 5.32766ZM28.6256 5.10242C29.5576 5.17676 30.2872 5.23561 30.8751 5.32767L31.1845 3.35175C30.5052 3.24539 29.6904 3.181 28.7847 3.10875L28.6256 5.10242ZM28.1536 5.06474L28.6256 5.10241L28.7847 3.10875L28.3128 3.07108L28.1536 5.06474ZM26.7323 4.88956C27.0411 4.97418 27.3739 5.00253 28.1537 5.06475L28.3127 3.07108C27.4481 3.0021 27.3435 2.98332 27.2607 2.96063L26.7323 4.88956ZM25.9243 4.55494C26.1785 4.69974 26.4499 4.81221 26.7323 4.88957L27.2607 2.96062C27.1398 2.92751 27.0235 2.87933 26.9143 2.81716L25.9243 4.55494ZM24.7953 3.67377C25.3907 4.18107 25.6461 4.39632 25.924 4.55477L26.9146 2.81733C26.84 2.77481 26.7526 2.7139 26.0924 2.15143L24.7953 3.67377ZM24.4348 3.36643L24.7951 3.67359L26.0926 2.15161L25.7323 1.84445L24.4348 3.36643ZM24.4324 3.36441L24.4349 3.36654L25.7322 1.84433L25.7297 1.8422L24.4324 3.36441ZM22.6851 1.93528C23.1653 2.28547 23.722 2.759 24.4325 3.36445L25.7296 1.84217C25.0392 1.2538 24.4183 0.723912 23.8635 0.319312L22.6851 1.93528ZM21.254 1.17817C21.7449 1.3206 22.1894 1.57388 22.6851 1.93531L23.8634 0.319278C23.2716 -0.112221 22.6131 -0.509998 21.8112 -0.742627L21.254 1.17817ZM27.5 12.3333H24.9167V14.3333H27.5V12.3333ZM28.7964 12.8703C28.4526 12.5265 27.9862 12.3333 27.5 12.3333V14.3333C27.4558 14.3333 27.4134 14.3157 27.3822 14.2845L28.7964 12.8703ZM29.3333 14.1666C29.3333 13.6804 29.1402 13.2141 28.7964 12.8703L27.3822 14.2845C27.3509 14.2532 27.3333 14.2108 27.3333 14.1666H29.3333ZM28.7964 15.463C29.1402 15.1192 29.3333 14.6529 29.3333 14.1666H27.3333C27.3333 14.1224 27.3509 14.08 27.3822 14.0488L28.7964 15.463ZM27.5 16C27.9862 16 28.4526 15.8068 28.7964 15.463L27.3822 14.0488C27.4134 14.0175 27.4558 14 27.5 14V16ZM26.6667 16H27.5V14H26.6667V16ZM27.6667 25.8333V15H25.6667V25.8333H27.6667ZM26.1519 29.4852C27.1203 28.5169 27.665 27.204 27.6667 25.8345L25.6667 25.8321C25.6657 26.672 25.3316 27.4771 24.7377 28.071L26.1519 29.4852ZM22.5012 31C23.8707 30.9983 25.1836 30.4536 26.1519 29.4852L24.7377 28.071C24.1439 28.6649 23.3387 28.999 22.4988 29L22.5012 31ZM17.5 31H22.5V29H17.5V31ZM13.8481 29.4852C14.8165 30.4536 16.1294 30.9983 17.4988 31L17.5012 29C16.6614 28.999 15.8562 28.6649 15.2623 28.071L13.8481 29.4852ZM12.3334 25.8345C12.335 27.204 12.8797 28.5169 13.8481 29.4852L15.2623 28.071C14.6684 27.4771 14.3344 26.672 14.3333 25.8321L12.3334 25.8345ZM12.3333 15V25.8333H14.3333V15H12.3333ZM12.5 16H13.3333V14H12.5V16ZM11.2037 15.463C11.5475 15.8068 12.0138 16 12.5 16V14C12.5442 14 12.5866 14.0175 12.6179 14.0488L11.2037 15.463ZM10.6667 14.1666C10.6667 14.6529 10.8598 15.1192 11.2037 15.463L12.6179 14.0488C12.6491 14.08 12.6667 14.1224 12.6667 14.1666H10.6667ZM11.2037 12.8703C10.8598 13.2141 10.6667 13.6804 10.6667 14.1666H12.6667C12.6667 14.2108 12.6491 14.2532 12.6179 14.2845L11.2037 12.8703ZM12.5 12.3333C12.0138 12.3333 11.5475 12.5265 11.2037 12.8703L12.6179 14.2845C12.5866 14.3157 12.5442 14.3333 12.5 14.3333V12.3333ZM15.0833 12.3333H12.5V14.3333H15.0833V12.3333ZM15.8999 10.1659C14.9779 10.9186 14.3436 11.9661 14.1038 13.1319L16.0629 13.5347C16.2099 12.8196 16.5991 12.177 17.1647 11.7152L15.8999 10.1659ZM19.1654 8.99997C17.9752 9.00147 16.8219 9.41325 15.8999 10.1659L17.1647 11.7152C17.7303 11.2535 18.4378 11.0009 19.1679 11L19.1654 8.99997ZM20.8333 8.99997H19.1667V11H20.8333V8.99997ZM24.1001 10.1659C23.1781 9.41325 22.0248 9.00147 20.8346 8.99997L20.8321 11C21.5622 11.0009 22.2697 11.2535 22.8353 11.7152L24.1001 10.1659ZM25.8962 13.1319C25.6564 11.9661 25.0221 10.9186 24.1001 10.1659L22.8353 11.7152C23.401 12.177 23.7901 12.8196 23.9372 13.5347L25.8962 13.1319ZM19.1667 12.6666H20.8333V10.6666H19.1667V12.6666ZM18.3009 12.9427C18.5545 12.7634 18.8574 12.667 19.1679 12.6666L19.1655 10.6666C18.4422 10.6675 17.737 10.8921 17.1464 11.3096L18.3009 12.9427ZM17.7515 13.668C17.8554 13.3753 18.0474 13.122 18.3009 12.9427L17.1464 11.3096C16.5558 11.7271 16.1089 12.3171 15.8668 12.9986L17.7515 13.668ZM23.1908 12.3333H16.8092V14.3333H23.1908V12.3333ZM21.6991 12.9427C21.9527 13.122 22.1446 13.3753 22.2485 13.668L24.1332 12.9986C23.8911 12.3171 23.4442 11.7271 22.8536 11.3096L21.6991 12.9427ZM20.8321 12.6666C21.1427 12.667 21.4455 12.7634 21.6991 12.9427L22.8536 11.3096C22.2631 10.8921 21.5578 10.6675 20.8346 10.6666L20.8321 12.6666ZM24 25.8333C24 26.2311 23.842 26.6127 23.5607 26.894L24.9749 28.3082C25.6313 27.6518 26 26.7616 26 25.8333H24ZM24 15V25.8333H26V15H24ZM15 16H25V14H15V16ZM16 25.8333V15H14V25.8333H16ZM16.4394 26.894C16.1581 26.6127 16 26.2311 16 25.8333H14C14 26.7616 14.3688 27.6518 15.0251 28.3082L16.4394 26.894ZM17.5 27.3333C17.1022 27.3333 16.7207 27.1753 16.4394 26.894L15.0251 28.3082C15.6815 28.9646 16.5718 29.3333 17.5 29.3333V27.3333ZM22.5 27.3333H17.5V29.3333H22.5V27.3333ZM23.5607 26.894C23.2794 27.1753 22.8978 27.3333 22.5 27.3333V29.3333C23.4283 29.3333 24.3185 28.9646 24.9749 28.3082L23.5607 26.894ZM18.3333 26C18.8196 26 19.2859 25.8068 19.6297 25.463L18.2155 24.0488C18.2467 24.0175 18.2891 24 18.3333 24V26ZM17.037 25.463C17.3808 25.8068 17.8471 26 18.3333 26V24C18.3776 24 18.4199 24.0175 18.4512 24.0488L17.037 25.463ZM16.5 24.1666C16.5 24.6529 16.6932 25.1192 17.037 25.463L18.4512 24.0488C18.4825 24.08 18.5 24.1224 18.5 24.1666H16.5ZM16.5 19.1666V24.1666H18.5V19.1666H16.5ZM17.037 17.8703C16.6932 18.2141 16.5 18.6804 16.5 19.1666H18.5C18.5 19.2108 18.4825 19.2532 18.4512 19.2845L17.037 17.8703ZM18.3333 17.3333C17.8471 17.3333 17.3808 17.5265 17.037 17.8703L18.4512 19.2845C18.4199 19.3157 18.3776 19.3333 18.3333 19.3333V17.3333ZM19.6297 17.8703C19.2859 17.5265 18.8196 17.3333 18.3333 17.3333V19.3333C18.2891 19.3333 18.2467 19.3157 18.2155 19.2845L19.6297 17.8703ZM20.1667 19.1666C20.1667 18.6804 19.9735 18.2141 19.6297 17.8703L18.2155 19.2845C18.1842 19.2532 18.1667 19.2108 18.1667 19.1666H20.1667ZM20.1667 24.1666V19.1666H18.1667V24.1666H20.1667ZM19.6297 25.463C19.9735 25.1192 20.1667 24.6529 20.1667 24.1666H18.1667C18.1667 24.1224 18.1842 24.08 18.2155 24.0488L19.6297 25.463ZM21.5488 24.0488C21.5801 24.0175 21.6225 24 21.6667 24V26C22.1529 26 22.6192 25.8068 22.963 25.463L21.5488 24.0488ZM21.5 24.1666C21.5 24.1224 21.5176 24.08 21.5488 24.0488L22.963 25.463C23.3069 25.1192 23.5 24.6529 23.5 24.1666H21.5ZM21.5 19.1666V24.1666H23.5V19.1666H21.5ZM21.5488 19.2845C21.5176 19.2532 21.5 19.2108 21.5 19.1666H23.5C23.5 18.6804 23.3069 18.2141 22.963 17.8703L21.5488 19.2845ZM21.6667 19.3333C21.6225 19.3333 21.5801 19.3157 21.5488 19.2845L22.963 17.8703C22.6192 17.5265 22.1529 17.3333 21.6667 17.3333V19.3333ZM21.7845 19.2845C21.7533 19.3157 21.7109 19.3333 21.6667 19.3333V17.3333C21.1804 17.3333 20.7141 17.5265 20.3703 17.8703L21.7845 19.2845ZM21.8333 19.1666C21.8333 19.2108 21.8158 19.2532 21.7845 19.2845L20.3703 17.8703C20.0265 18.2141 19.8333 18.6804 19.8333 19.1666H21.8333ZM21.8333 24.1666V19.1666H19.8333V24.1666H21.8333ZM21.7845 24.0488C21.8158 24.08 21.8333 24.1224 21.8333 24.1666H19.8333C19.8333 24.6529 20.0265 25.1192 20.3703 25.463L21.7845 24.0488ZM21.6667 24C21.7109 24 21.7533 24.0175 21.7845 24.0488L20.3703 25.463C20.7141 25.8068 21.1804 26 21.6667 26V24Z" fill="url(#paint1_linear_15_1209)" mask="url(#path-1-inside-1_15_1209)"/>
<defs>
<linearGradient id="paint0_linear_15_1209" x1="20" y1="1.0899" x2="20.6375" y2="39.9999" gradientUnits="userSpaceOnUse">
<stop stop-color="#E42525"/>
<stop offset="1" stop-color="#C90000"/>
</linearGradient>
<linearGradient id="paint1_linear_15_1209" x1="20" y1="1.21631" x2="20" y2="39.9999" gradientUnits="userSpaceOnUse">
<stop stop-color="#A90707"/>
<stop offset="1" stop-color="#E42525"/>
</linearGradient>
</defs>
</svg>
