<svg width="64" height="64" viewBox="0 0 64 64" fill="none" xmlns="http://www.w3.org/2000/svg">
<mask id="path-1-inside-1_5324_2169" fill="white">
<path fill-rule="evenodd" clip-rule="evenodd" d="M34.4522 0.348431C32.8504 -0.116144 31.1495 -0.116144 29.5478 0.348431C28.5136 0.64848 27.6311 1.16932 26.7611 1.80367C25.9321 2.40821 24.9888 3.21212 23.8664 4.16865L23.8663 4.1687L23.2896 4.66016C22.2854 5.51598 22.0111 5.7369 21.729 5.89768C21.4383 6.06326 21.1281 6.19178 20.8056 6.28015C20.4923 6.366 20.1422 6.40371 18.8269 6.50866L18.0715 6.56893C16.6015 6.68621 15.3661 6.7848 14.3524 6.94353C13.2887 7.11014 12.2964 7.36579 11.3529 7.88507C9.89176 8.68916 8.68913 9.89176 7.88507 11.3529C7.36576 12.2964 7.11011 13.2887 6.94353 14.3524C6.7848 15.3659 6.68625 16.6011 6.56901 18.0707L6.56893 18.0716L6.50866 18.8269C6.40371 20.1422 6.366 20.4923 6.28015 20.8056C6.19178 21.1281 6.06326 21.4383 5.89768 21.729C5.73687 22.0111 5.51598 22.2854 4.66013 23.2896L4.16867 23.8664C3.21212 24.9888 2.40822 25.9322 1.80367 26.7612C1.16933 27.6309 0.64848 28.5134 0.348431 29.5479C-0.116144 31.1496 -0.116144 32.8502 0.348431 34.452C0.64848 35.4865 1.16933 36.369 1.80367 37.2389C2.40819 38.068 3.21212 39.0113 4.16864 40.1335L4.66013 40.7103C5.51598 41.7144 5.73687 41.9887 5.89768 42.271C6.06326 42.5617 6.19178 42.8718 6.28015 43.1945C6.366 43.5075 6.40371 43.8577 6.50866 45.1729L6.56893 45.9284C6.68621 47.3985 6.78477 48.6337 6.94353 49.6474C7.11011 50.7111 7.36576 51.7034 7.88507 52.647C8.68913 54.1082 9.89176 55.3107 11.3529 56.1148C12.2964 56.6343 13.2887 56.8897 14.3524 57.0565C15.3661 57.2153 16.6017 57.3138 18.0718 57.431L18.8269 57.4912C20.1422 57.5962 20.4923 57.6339 20.8056 57.7197C21.1281 57.8081 21.4383 57.9367 21.729 58.1022C22.0111 58.2629 22.2854 58.4841 23.2896 59.3397L23.8664 59.8313L23.8744 59.8382C24.9933 60.7916 25.9341 61.5932 26.7611 62.1961C27.6311 62.8305 28.5136 63.3513 29.5478 63.6516C31.1495 64.116 32.8504 64.116 34.4522 63.6516C35.4864 63.3513 36.3688 62.8305 37.2388 62.1961C38.0668 61.5925 39.0088 60.7897 40.1292 59.8349L40.1334 59.8313L40.7102 59.3397C41.7146 58.4841 41.9889 58.2629 42.2709 58.1022C42.5616 57.9367 42.8717 57.8081 43.1944 57.7197C43.5077 57.6339 43.8576 57.5962 45.1731 57.4912L45.9282 57.431C47.3984 57.3138 48.6339 57.2153 49.6476 57.0565C50.7113 56.8897 51.7036 56.6343 52.6472 56.1148C54.108 55.3107 55.3109 54.1082 56.115 52.647C56.6342 51.7034 56.8899 50.7111 57.0564 49.6474C57.2151 48.6337 57.3137 47.3982 57.4309 45.928L57.4914 45.1729C57.5963 43.8577 57.6338 43.5075 57.7199 43.1945C57.8082 42.8718 57.9366 42.5617 58.1021 42.271C58.2631 41.9887 58.484 41.7144 59.3399 40.7103L59.8315 40.1335L59.8401 40.1234C60.7927 39.0053 61.5935 38.0655 62.1963 37.2389C62.8307 36.369 63.3515 35.4865 63.6514 34.452C64.1162 32.8502 64.1162 31.1496 63.6514 29.5479C63.3515 28.5134 62.8307 27.6309 62.1963 26.7612C61.5917 25.9322 60.7879 24.9888 59.8312 23.8664L59.3399 23.2896C58.484 22.2854 58.2631 22.0111 58.1021 21.729C57.9366 21.4383 57.8082 21.1281 57.7199 20.8056C57.6338 20.4923 57.5963 20.1422 57.4914 18.8269L57.4309 18.0718C57.3137 16.6017 57.2151 15.3661 57.0564 14.3524C56.8899 13.2887 56.6342 12.2964 56.115 11.3529C55.3109 9.89176 54.108 8.68913 52.6472 7.88507C51.7036 7.36579 50.7113 7.11014 49.6476 6.94353C48.6339 6.7848 47.3984 6.68621 45.9282 6.56893L45.1731 6.50866C43.8576 6.40371 43.5077 6.366 43.1944 6.28015C42.8717 6.19178 42.5616 6.06326 42.2709 5.89768C41.9889 5.7369 41.7146 5.51598 40.7102 4.66016L40.1337 4.1687L40.1296 4.16521C39.0089 3.2102 38.0668 2.40749 37.2388 1.80367C36.3688 1.16932 35.4864 0.64848 34.4522 0.348431ZM39.8668 21.3333H44.0001C44.3538 21.3333 44.6929 21.4738 44.943 21.7239C45.193 21.9739 45.3335 22.313 45.3335 22.6667C45.3335 23.0203 45.193 23.3594 44.943 23.6095C44.6929 23.8595 44.3538 24 44.0001 24H42.6668V41.3333C42.6647 43.1008 41.9616 44.7952 40.7119 46.045C39.4621 47.2948 37.7676 47.9979 36.0001 48H28.0001C26.2327 47.9979 24.5382 47.2948 23.2884 46.045C22.0387 44.7952 21.3356 43.1008 21.3335 41.3333V24H20.0001C19.6465 24 19.3074 23.8595 19.0573 23.6095C18.8073 23.3594 18.6668 23.0203 18.6668 22.6667C18.6668 22.313 18.8073 21.9739 19.0573 21.7239C19.3074 21.4738 19.6465 21.3333 20.0001 21.3333H24.1335C24.4429 19.8285 25.2617 18.4765 26.4518 17.5049C27.6419 16.5334 29.1305 16.0019 30.6668 16H33.3335C34.8698 16.0019 36.3584 16.5334 37.5485 17.5049C38.7386 18.4765 39.5574 19.8285 39.8668 21.3333ZM33.3335 18.6667H30.6668C29.8398 18.6677 29.0333 18.9245 28.358 19.4019C27.6827 19.8793 27.1716 20.554 26.8948 21.3333H37.1055C36.8287 20.554 36.3176 19.8793 35.6423 19.4019C34.967 18.9245 34.1605 18.6677 33.3335 18.6667ZM38.8286 44.1618C39.5787 43.4116 40.0001 42.3942 40.0001 41.3333V24H24.0001V41.3333C24.0001 42.3942 24.4216 43.4116 25.1717 44.1618C25.9219 44.9119 26.9393 45.3333 28.0001 45.3333H36.0001C37.061 45.3333 38.0784 44.9119 38.8286 44.1618ZM30.2762 39.6095C30.0262 39.8596 29.687 40.0001 29.3334 40.0001C28.9798 40.0001 28.6406 39.8596 28.3906 39.6095C28.1405 39.3595 28.0001 39.0203 28.0001 38.6667V30.6667C28.0001 30.3131 28.1405 29.974 28.3906 29.7239C28.6406 29.4739 28.9798 29.3334 29.3334 29.3334C29.687 29.3334 30.0262 29.4739 30.2762 29.7239C30.5263 29.974 30.6667 30.3131 30.6667 30.6667V38.6667C30.6667 39.0203 30.5263 39.3595 30.2762 39.6095ZM34.667 40.0001C35.0206 40.0001 35.3598 39.8596 35.6098 39.6095C35.8598 39.3595 36.0003 39.0203 36.0003 38.6667V30.6667C36.0003 30.3131 35.8598 29.974 35.6098 29.7239C35.3598 29.4739 35.0206 29.3334 34.667 29.3334C34.3134 29.3334 33.9742 29.4739 33.7242 29.7239C33.4741 29.974 33.3337 30.3131 33.3337 30.6667V38.6667C33.3337 39.0203 33.4741 39.3595 33.7242 39.6095C33.9742 39.8596 34.3134 40.0001 34.667 40.0001Z"/>
</mask>
<path fill-rule="evenodd" clip-rule="evenodd" d="M34.4522 0.348431C32.8504 -0.116144 31.1495 -0.116144 29.5478 0.348431C28.5136 0.64848 27.6311 1.16932 26.7611 1.80367C25.9321 2.40821 24.9888 3.21212 23.8664 4.16865L23.8663 4.1687L23.2896 4.66016C22.2854 5.51598 22.0111 5.7369 21.729 5.89768C21.4383 6.06326 21.1281 6.19178 20.8056 6.28015C20.4923 6.366 20.1422 6.40371 18.8269 6.50866L18.0715 6.56893C16.6015 6.68621 15.3661 6.7848 14.3524 6.94353C13.2887 7.11014 12.2964 7.36579 11.3529 7.88507C9.89176 8.68916 8.68913 9.89176 7.88507 11.3529C7.36576 12.2964 7.11011 13.2887 6.94353 14.3524C6.7848 15.3659 6.68625 16.6011 6.56901 18.0707L6.56893 18.0716L6.50866 18.8269C6.40371 20.1422 6.366 20.4923 6.28015 20.8056C6.19178 21.1281 6.06326 21.4383 5.89768 21.729C5.73687 22.0111 5.51598 22.2854 4.66013 23.2896L4.16867 23.8664C3.21212 24.9888 2.40822 25.9322 1.80367 26.7612C1.16933 27.6309 0.64848 28.5134 0.348431 29.5479C-0.116144 31.1496 -0.116144 32.8502 0.348431 34.452C0.64848 35.4865 1.16933 36.369 1.80367 37.2389C2.40819 38.068 3.21212 39.0113 4.16864 40.1335L4.66013 40.7103C5.51598 41.7144 5.73687 41.9887 5.89768 42.271C6.06326 42.5617 6.19178 42.8718 6.28015 43.1945C6.366 43.5075 6.40371 43.8577 6.50866 45.1729L6.56893 45.9284C6.68621 47.3985 6.78477 48.6337 6.94353 49.6474C7.11011 50.7111 7.36576 51.7034 7.88507 52.647C8.68913 54.1082 9.89176 55.3107 11.3529 56.1148C12.2964 56.6343 13.2887 56.8897 14.3524 57.0565C15.3661 57.2153 16.6017 57.3138 18.0718 57.431L18.8269 57.4912C20.1422 57.5962 20.4923 57.6339 20.8056 57.7197C21.1281 57.8081 21.4383 57.9367 21.729 58.1022C22.0111 58.2629 22.2854 58.4841 23.2896 59.3397L23.8664 59.8313L23.8744 59.8382C24.9933 60.7916 25.9341 61.5932 26.7611 62.1961C27.6311 62.8305 28.5136 63.3513 29.5478 63.6516C31.1495 64.116 32.8504 64.116 34.4522 63.6516C35.4864 63.3513 36.3688 62.8305 37.2388 62.1961C38.0668 61.5925 39.0088 60.7897 40.1292 59.8349L40.1334 59.8313L40.7102 59.3397C41.7146 58.4841 41.9889 58.2629 42.2709 58.1022C42.5616 57.9367 42.8717 57.8081 43.1944 57.7197C43.5077 57.6339 43.8576 57.5962 45.1731 57.4912L45.9282 57.431C47.3984 57.3138 48.6339 57.2153 49.6476 57.0565C50.7113 56.8897 51.7036 56.6343 52.6472 56.1148C54.108 55.3107 55.3109 54.1082 56.115 52.647C56.6342 51.7034 56.8899 50.7111 57.0564 49.6474C57.2151 48.6337 57.3137 47.3982 57.4309 45.928L57.4914 45.1729C57.5963 43.8577 57.6338 43.5075 57.7199 43.1945C57.8082 42.8718 57.9366 42.5617 58.1021 42.271C58.2631 41.9887 58.484 41.7144 59.3399 40.7103L59.8315 40.1335L59.8401 40.1234C60.7927 39.0053 61.5935 38.0655 62.1963 37.2389C62.8307 36.369 63.3515 35.4865 63.6514 34.452C64.1162 32.8502 64.1162 31.1496 63.6514 29.5479C63.3515 28.5134 62.8307 27.6309 62.1963 26.7612C61.5917 25.9322 60.7879 24.9888 59.8312 23.8664L59.3399 23.2896C58.484 22.2854 58.2631 22.0111 58.1021 21.729C57.9366 21.4383 57.8082 21.1281 57.7199 20.8056C57.6338 20.4923 57.5963 20.1422 57.4914 18.8269L57.4309 18.0718C57.3137 16.6017 57.2151 15.3661 57.0564 14.3524C56.8899 13.2887 56.6342 12.2964 56.115 11.3529C55.3109 9.89176 54.108 8.68913 52.6472 7.88507C51.7036 7.36579 50.7113 7.11014 49.6476 6.94353C48.6339 6.7848 47.3984 6.68621 45.9282 6.56893L45.1731 6.50866C43.8576 6.40371 43.5077 6.366 43.1944 6.28015C42.8717 6.19178 42.5616 6.06326 42.2709 5.89768C41.9889 5.7369 41.7146 5.51598 40.7102 4.66016L40.1337 4.1687L40.1296 4.16521C39.0089 3.2102 38.0668 2.40749 37.2388 1.80367C36.3688 1.16932 35.4864 0.64848 34.4522 0.348431ZM39.8668 21.3333H44.0001C44.3538 21.3333 44.6929 21.4738 44.943 21.7239C45.193 21.9739 45.3335 22.313 45.3335 22.6667C45.3335 23.0203 45.193 23.3594 44.943 23.6095C44.6929 23.8595 44.3538 24 44.0001 24H42.6668V41.3333C42.6647 43.1008 41.9616 44.7952 40.7119 46.045C39.4621 47.2948 37.7676 47.9979 36.0001 48H28.0001C26.2327 47.9979 24.5382 47.2948 23.2884 46.045C22.0387 44.7952 21.3356 43.1008 21.3335 41.3333V24H20.0001C19.6465 24 19.3074 23.8595 19.0573 23.6095C18.8073 23.3594 18.6668 23.0203 18.6668 22.6667C18.6668 22.313 18.8073 21.9739 19.0573 21.7239C19.3074 21.4738 19.6465 21.3333 20.0001 21.3333H24.1335C24.4429 19.8285 25.2617 18.4765 26.4518 17.5049C27.6419 16.5334 29.1305 16.0019 30.6668 16H33.3335C34.8698 16.0019 36.3584 16.5334 37.5485 17.5049C38.7386 18.4765 39.5574 19.8285 39.8668 21.3333ZM33.3335 18.6667H30.6668C29.8398 18.6677 29.0333 18.9245 28.358 19.4019C27.6827 19.8793 27.1716 20.554 26.8948 21.3333H37.1055C36.8287 20.554 36.3176 19.8793 35.6423 19.4019C34.967 18.9245 34.1605 18.6677 33.3335 18.6667ZM38.8286 44.1618C39.5787 43.4116 40.0001 42.3942 40.0001 41.3333V24H24.0001V41.3333C24.0001 42.3942 24.4216 43.4116 25.1717 44.1618C25.9219 44.9119 26.9393 45.3333 28.0001 45.3333H36.0001C37.061 45.3333 38.0784 44.9119 38.8286 44.1618ZM30.2762 39.6095C30.0262 39.8596 29.687 40.0001 29.3334 40.0001C28.9798 40.0001 28.6406 39.8596 28.3906 39.6095C28.1405 39.3595 28.0001 39.0203 28.0001 38.6667V30.6667C28.0001 30.3131 28.1405 29.974 28.3906 29.7239C28.6406 29.4739 28.9798 29.3334 29.3334 29.3334C29.687 29.3334 30.0262 29.4739 30.2762 29.7239C30.5263 29.974 30.6667 30.3131 30.6667 30.6667V38.6667C30.6667 39.0203 30.5263 39.3595 30.2762 39.6095ZM34.667 40.0001C35.0206 40.0001 35.3598 39.8596 35.6098 39.6095C35.8598 39.3595 36.0003 39.0203 36.0003 38.6667V30.6667C36.0003 30.3131 35.8598 29.974 35.6098 29.7239C35.3598 29.4739 35.0206 29.3334 34.667 29.3334C34.3134 29.3334 33.9742 29.4739 33.7242 29.7239C33.4741 29.974 33.3337 30.3131 33.3337 30.6667V38.6667C33.3337 39.0203 33.4741 39.3595 33.7242 39.6095C33.9742 39.8596 34.3134 40.0001 34.667 40.0001Z" fill="url(#paint0_linear_5324_2169)"/>
<path d="M29.5478 0.348431L29.2692 -0.611986L29.2691 -0.611966L29.5478 0.348431ZM34.4522 0.348431L34.7308 -0.611966L34.7307 -0.611986L34.4522 0.348431ZM26.7611 1.80367L26.1719 0.995655L26.1719 0.995689L26.7611 1.80367ZM23.8664 4.16865L24.51 4.93402L24.515 4.92975L23.8664 4.16865ZM23.8663 4.1687L23.2227 3.40332L23.2177 3.40759L23.8663 4.1687ZM23.2896 4.66016L23.9382 5.42128L23.9383 5.42127L23.2896 4.66016ZM21.729 5.89768L21.2339 5.02881L21.2339 5.02882L21.729 5.89768ZM20.8056 6.28015L20.5413 5.31569L20.5412 5.31572L20.8056 6.28015ZM18.8269 6.50866L18.9065 7.50549L18.9065 7.50549L18.8269 6.50866ZM18.0715 6.56893L18.1511 7.56577L18.1511 7.56577L18.0715 6.56893ZM14.3524 6.94353L14.1977 5.95557L14.1976 5.95558L14.3524 6.94353ZM11.3529 7.88507L10.8707 7.00897L10.8707 7.00898L11.3529 7.88507ZM7.88507 11.3529L8.76115 11.835L8.76117 11.835L7.88507 11.3529ZM6.94353 14.3524L7.93149 14.5071L7.93149 14.5071L6.94353 14.3524ZM6.56901 18.0707L5.57217 17.9911L5.57212 17.9918L6.56901 18.0707ZM6.56893 18.0716L7.56577 18.1511L7.56582 18.1504L6.56893 18.0716ZM6.50866 18.8269L7.50549 18.9065V18.9065L6.50866 18.8269ZM6.28015 20.8056L5.31572 20.5412L5.31569 20.5413L6.28015 20.8056ZM5.89768 21.729L6.76651 22.2241L6.76654 22.224L5.89768 21.729ZM4.66013 23.2896L3.89903 22.641L3.899 22.641L4.66013 23.2896ZM4.16867 23.8664L4.92977 24.515L4.9298 24.515L4.16867 23.8664ZM1.80367 26.7612L2.61159 27.3505L2.61166 27.3504L1.80367 26.7612ZM0.348431 29.5479L1.30885 29.8265L1.30885 29.8265L0.348431 29.5479ZM0.348431 34.452L1.30885 34.1734L1.30885 34.1734L0.348431 34.452ZM1.80367 37.2389L0.995656 37.8281L0.995675 37.8281L1.80367 37.2389ZM4.16864 40.1335L4.92978 39.4849L4.9297 39.4848L4.16864 40.1335ZM4.66013 40.7103L3.89898 41.3589L3.89907 41.359L4.66013 40.7103ZM5.89768 42.271L5.02876 42.766L5.02879 42.766L5.89768 42.271ZM6.28015 43.1945L5.31568 43.4587L5.31576 43.459L6.28015 43.1945ZM6.50866 45.1729L7.5055 45.0934L7.50549 45.0934L6.50866 45.1729ZM6.56893 45.9284L7.56577 45.8488L7.56577 45.8488L6.56893 45.9284ZM6.94353 49.6474L7.93149 49.4927L7.93149 49.4927L6.94353 49.6474ZM7.88507 52.647L8.76118 52.1649L8.76116 52.1648L7.88507 52.647ZM11.3529 56.1148L11.8352 55.2388L11.835 55.2387L11.3529 56.1148ZM14.3524 57.0565L14.1975 58.0444L14.1977 58.0444L14.3524 57.0565ZM18.0718 57.431L18.1512 56.4342L18.1512 56.4341L18.0718 57.431ZM18.8269 57.4912L18.9065 56.4943L18.9064 56.4943L18.8269 57.4912ZM20.8056 57.7197L21.0697 56.7552L21.0697 56.7552L20.8056 57.7197ZM21.729 58.1022L21.2341 58.9712L21.2341 58.9712L21.729 58.1022ZM23.2896 59.3397L23.9384 58.5786L23.9381 58.5785L23.2896 59.3397ZM23.8664 59.8313L23.2177 60.5923L23.2178 60.5925L23.8664 59.8313ZM23.8744 59.8382L24.523 59.077L24.523 59.077L23.8744 59.8382ZM26.7611 62.1961L27.3503 61.3881L27.3502 61.388L26.7611 62.1961ZM29.5478 63.6516L29.269 64.6119L29.2693 64.612L29.5478 63.6516ZM34.4522 63.6516L34.7306 64.612L34.731 64.6119L34.4522 63.6516ZM37.2388 62.1961L36.6498 61.388L36.6496 61.3881L37.2388 62.1961ZM40.1292 59.8349L40.7779 60.596L40.7779 60.5959L40.1292 59.8349ZM40.1334 59.8313L39.4847 59.0703L39.4847 59.0703L40.1334 59.8313ZM40.7102 59.3397L40.0617 58.5784L40.0615 58.5786L40.7102 59.3397ZM42.2709 58.1022L41.7761 57.2332L41.7758 57.2334L42.2709 58.1022ZM43.1944 57.7197L42.9303 56.7552L42.9303 56.7552L43.1944 57.7197ZM45.1731 57.4912L45.0937 56.4943L45.0936 56.4943L45.1731 57.4912ZM45.9282 57.431L45.8488 56.4341L45.8488 56.4342L45.9282 57.431ZM49.6476 57.0565L49.8024 58.0444L49.8025 58.0444L49.6476 57.0565ZM52.6472 56.1148L52.165 55.2387L52.1649 55.2388L52.6472 56.1148ZM56.115 52.647L56.9911 53.1291L56.9911 53.129L56.115 52.647ZM57.0564 49.6474L56.0684 49.4927L56.0684 49.4928L57.0564 49.6474ZM57.4309 45.928L56.4341 45.8482L56.434 45.8486L57.4309 45.928ZM57.4914 45.1729L58.4882 45.2528L58.4882 45.2525L57.4914 45.1729ZM57.7199 43.1945L58.6841 43.4597L58.6844 43.4586L57.7199 43.1945ZM58.1021 42.271L57.2334 41.7756L57.2331 41.7762L58.1021 42.271ZM59.3399 40.7103L60.1009 41.359L60.1009 41.359L59.3399 40.7103ZM59.8315 40.1335L60.5926 40.7822L60.5927 40.7821L59.8315 40.1335ZM59.8401 40.1234L60.6012 40.772L60.6013 40.772L59.8401 40.1234ZM62.1963 37.2389L63.0043 37.8282L63.0043 37.8281L62.1963 37.2389ZM63.6514 34.452L62.691 34.1733L62.691 34.1735L63.6514 34.452ZM63.6514 29.5479L62.691 29.8263L62.691 29.8266L63.6514 29.5479ZM62.1963 26.7612L61.3884 27.3505L61.3884 27.3506L62.1963 26.7612ZM59.8312 23.8664L59.07 24.5149L59.0702 24.5151L59.8312 23.8664ZM59.3399 23.2896L60.1011 22.6412L60.1009 22.641L59.3399 23.2896ZM58.1021 21.729L57.2331 22.2238L57.2335 22.2245L58.1021 21.729ZM57.7199 20.8056L58.6844 20.5414L58.6841 20.5405L57.7199 20.8056ZM57.4914 18.8269L58.4882 18.7474L58.4882 18.7471L57.4914 18.8269ZM57.4309 18.0718L56.434 18.1512L56.4341 18.1517L57.4309 18.0718ZM57.0564 14.3524L56.0684 14.507L56.0684 14.5071L57.0564 14.3524ZM56.115 11.3529L56.9911 10.8708L56.9911 10.8707L56.115 11.3529ZM52.6472 7.88507L53.1294 7.009L53.1293 7.00897L52.6472 7.88507ZM49.6476 6.94353L49.8024 5.95558L49.8023 5.95557L49.6476 6.94353ZM45.9282 6.56893L45.8487 7.56576L45.8487 7.56577L45.9282 6.56893ZM45.1731 6.50866L45.2527 5.51183L45.2527 5.51183L45.1731 6.50866ZM43.1944 6.28015L43.4586 5.31569L43.4585 5.31568L43.1944 6.28015ZM42.2709 5.89768L41.7756 6.7664L41.7759 6.76656L42.2709 5.89768ZM40.7102 4.66016L40.0614 5.42115L40.0616 5.42133L40.7102 4.66016ZM40.1337 4.1687L39.4847 4.92949L39.4849 4.92969L40.1337 4.1687ZM40.1296 4.16521L40.7786 3.40442L40.7782 3.40407L40.1296 4.16521ZM37.2388 1.80367L37.828 0.99569L37.828 0.995654L37.2388 1.80367ZM39.8668 21.3333L38.8873 21.5348L39.0515 22.3333H39.8668V21.3333ZM44.943 21.7239L45.6501 21.0167L45.6501 21.0167L44.943 21.7239ZM44.943 23.6095L45.6501 24.3166L45.6501 24.3166L44.943 23.6095ZM42.6668 24V23H41.6668V24H42.6668ZM42.6668 41.3333L43.6668 41.3345V41.3333H42.6668ZM40.7119 46.045L41.419 46.7521L40.7119 46.045ZM36.0001 48V49H36.0013L36.0001 48ZM28.0001 48L27.9989 49H28.0001V48ZM23.2884 46.045L22.5813 46.7521H22.5813L23.2884 46.045ZM21.3335 41.3333H20.3335V41.3345L21.3335 41.3333ZM21.3335 24H22.3335V23H21.3335V24ZM19.0573 23.6095L18.3502 24.3166L18.3502 24.3166L19.0573 23.6095ZM19.0573 21.7239L18.3502 21.0167L18.3502 21.0167L19.0573 21.7239ZM24.1335 21.3333V22.3333H24.9488L25.113 21.5348L24.1335 21.3333ZM26.4518 17.5049L27.0842 18.2796L27.0842 18.2796L26.4518 17.5049ZM30.6668 16V15L30.6656 15L30.6668 16ZM33.3335 16L33.3347 15H33.3335V16ZM37.5485 17.5049L36.9161 18.2796V18.2796L37.5485 17.5049ZM30.6668 18.6667V17.6667H30.6656L30.6668 18.6667ZM33.3335 18.6667L33.3347 17.6667H33.3335V18.6667ZM28.358 19.4019L27.7807 18.5854V18.5854L28.358 19.4019ZM26.8948 21.3333L25.9525 20.9987L25.4785 22.3333H26.8948V21.3333ZM37.1055 21.3333V22.3333H38.5218L38.0478 20.9987L37.1055 21.3333ZM38.8286 44.1618L39.5357 44.8689L39.5357 44.8689L38.8286 44.1618ZM40.0001 24H41.0001V23H40.0001V24ZM24.0001 24V23H23.0001V24H24.0001ZM25.1717 44.1618L24.4646 44.8689L24.4646 44.8689L25.1717 44.1618ZM30.2762 39.6095L30.9833 40.3166L30.9833 40.3166L30.2762 39.6095ZM28.3906 29.7239L29.0977 30.431L29.0977 30.431L28.3906 29.7239ZM30.2762 29.7239L30.9833 29.0168L30.9833 29.0168L30.2762 29.7239ZM35.6098 39.6095L36.3169 40.3166L36.3169 40.3166L35.6098 39.6095ZM35.6098 29.7239L36.3169 29.0168L36.3169 29.0168L35.6098 29.7239ZM33.7242 29.7239L33.0171 29.0168L33.0171 29.0168L33.7242 29.7239ZM33.7242 39.6095L33.0171 40.3166L33.0171 40.3166L33.7242 39.6095ZM29.8263 1.30885C31.2461 0.897051 32.7538 0.897051 34.1736 1.30885L34.7307 -0.611986C32.947 -1.12934 31.0529 -1.12934 29.2692 -0.611986L29.8263 1.30885ZM27.3503 2.61169C28.1722 2.01237 28.9477 1.56378 29.8264 1.30883L29.2691 -0.611966C28.0795 -0.266818 27.09 0.326276 26.1719 0.995655L27.3503 2.61169ZM24.515 4.92975C25.6475 3.96467 26.5586 3.18897 27.3503 2.61166L26.1719 0.995689C25.3056 1.62745 24.3301 2.45957 23.2178 3.40754L24.515 4.92975ZM24.5099 4.93406L24.51 4.93401L23.2228 3.40328L23.2227 3.40334L24.5099 4.93406ZM23.9383 5.42127L24.5149 4.92981L23.2177 3.40759L22.641 3.89905L23.9383 5.42127ZM22.224 6.76655C22.6081 6.54771 22.9665 6.24941 23.9382 5.42128L22.641 3.89904C21.6043 4.78255 21.4142 4.92609 21.2339 5.02881L22.224 6.76655ZM21.0698 7.24461C21.4731 7.13412 21.8608 6.97347 22.224 6.76654L21.2339 5.02882C21.0159 5.15305 20.7832 5.24943 20.5413 5.31569L21.0698 7.24461ZM18.9065 7.50549C20.1792 7.40393 20.6435 7.36143 21.0699 7.24459L20.5412 5.31572C20.3411 5.37057 20.1052 5.40348 18.7474 5.51183L18.9065 7.50549ZM18.1511 7.56577L18.9065 7.50549L18.7474 5.51183L17.992 5.5721L18.1511 7.56577ZM14.5071 7.93149C15.4751 7.77991 16.6679 7.68409 18.1511 7.56577L17.992 5.5721C16.5351 5.68833 15.257 5.78969 14.1977 5.95557L14.5071 7.93149ZM11.835 8.76116C12.6367 8.31995 13.5022 8.08889 14.5071 7.93149L14.1976 5.95558C13.0752 6.13138 11.9562 6.41163 10.8707 7.00897L11.835 8.76116ZM8.76117 11.835C9.47387 10.5399 10.5399 9.47391 11.835 8.76116L10.8707 7.00898C9.24364 7.90441 7.90438 9.24362 7.00897 10.8707L8.76117 11.835ZM7.93149 14.5071C8.08886 13.5022 8.31992 12.6367 8.76115 11.835L7.00898 10.8707C6.4116 11.9561 6.13135 13.0752 5.95557 14.1977L7.93149 14.5071ZM7.56584 18.1502C7.68414 16.6674 7.77991 15.4749 7.93149 14.5071L5.95558 14.1977C5.78969 15.2568 5.68837 16.5347 5.57217 17.9911L7.56584 18.1502ZM7.56582 18.1504L7.56589 18.1495L5.57212 17.9918L5.57205 17.9927L7.56582 18.1504ZM7.50549 18.9065L7.56577 18.1511L5.5721 17.992L5.51183 18.7474L7.50549 18.9065ZM7.24459 21.0699C7.36143 20.6435 7.40393 20.1792 7.50549 18.9065L5.51183 18.7474C5.40348 20.1052 5.37057 20.3411 5.31572 20.5412L7.24459 21.0699ZM6.76654 22.224C6.97347 21.8608 7.13412 21.4731 7.24461 21.0698L5.31569 20.5413C5.24943 20.7832 5.15305 21.0159 5.02882 21.2339L6.76654 22.224ZM5.42123 23.9383C6.24946 22.9664 6.54766 22.6081 6.76651 22.2241L5.02886 21.2338C4.92608 21.4142 4.78249 21.6044 3.89903 22.641L5.42123 23.9383ZM4.9298 24.515L5.42126 23.9382L3.899 22.641L3.40754 23.2178L4.9298 24.515ZM2.61166 27.3504C3.18899 26.5587 3.96471 25.6474 4.92977 24.515L3.40756 23.2177C2.45953 24.3302 1.62745 25.3057 0.99569 26.172L2.61166 27.3504ZM1.30885 29.8265C1.5638 28.9474 2.01238 28.172 2.61159 27.3505L0.995759 26.1719C0.326274 27.0898 -0.266841 28.0793 -0.611989 29.2693L1.30885 29.8265ZM1.30885 34.1734C0.897051 32.7536 0.897051 31.2462 1.30885 29.8265L-0.611986 29.2693C-1.12934 31.053 -1.12934 32.9468 -0.611986 34.7305L1.30885 34.1734ZM2.61169 36.6498C2.01239 35.8279 1.5638 35.0524 1.30885 34.1734L-0.611989 34.7305C-0.266844 35.9205 0.326265 36.91 0.995656 37.8281L2.61169 36.6498ZM4.9297 39.4848C3.96465 38.3526 3.18894 37.4414 2.61167 36.6498L0.995675 37.8281C1.62744 38.6945 2.45959 39.67 3.40758 40.7822L4.9297 39.4848ZM5.42127 40.0617L4.92978 39.4849L3.40749 40.7821L3.89898 41.3589L5.42127 40.0617ZM6.7666 41.7761C6.5477 41.3918 6.24946 41.0334 5.42119 40.0616L3.89907 41.359C4.7825 42.3954 4.92603 42.5857 5.02876 42.766L6.7666 41.7761ZM7.24463 42.9303C7.13413 42.5269 6.97346 42.1392 6.76657 41.776L5.02879 42.766C5.15306 42.9842 5.24943 43.2168 5.31568 43.4587L7.24463 42.9303ZM7.50549 45.0934C7.40394 43.8208 7.36144 43.3563 7.24455 42.93L5.31576 43.459C5.37056 43.6588 5.40348 43.8947 5.51183 45.2525L7.50549 45.0934ZM7.56577 45.8488L7.5055 45.0934L5.51183 45.2525L5.5721 46.0079L7.56577 45.8488ZM7.93149 49.4927C7.77988 48.5247 7.6841 47.3321 7.56577 45.8488L5.5721 46.0079C5.68833 47.4649 5.78966 48.7428 5.95558 49.8022L7.93149 49.4927ZM8.76116 52.1648C8.31992 51.3631 8.08886 50.4976 7.93149 49.4927L5.95557 49.8022C6.13135 50.9246 6.4116 52.0437 7.00898 53.1291L8.76116 52.1648ZM11.835 55.2387C10.5399 54.526 9.47388 53.46 8.76118 52.1649L7.00895 53.1291C7.90437 54.7563 9.24365 56.0955 10.8707 56.9909L11.835 55.2387ZM14.5073 56.0686C13.502 55.911 12.6367 55.6801 11.8352 55.2388L10.8706 56.9908C11.9562 57.5885 13.0754 57.8685 14.1975 58.0444L14.5073 56.0686ZM18.1512 56.4341C16.668 56.316 15.4752 56.2201 14.5071 56.0685L14.1977 58.0444C15.2571 58.2104 16.5353 58.3117 17.9924 58.4278L18.1512 56.4341ZM18.9064 56.4943L18.1512 56.4342L17.9924 58.4278L18.7475 58.488L18.9064 56.4943ZM21.0697 56.7552C20.6435 56.6385 20.1794 56.5959 18.9065 56.4943L18.7474 58.488C20.105 58.5964 20.3411 58.6293 20.5414 58.6842L21.0697 56.7552ZM22.2238 57.2332C21.861 57.0266 21.4733 56.8658 21.0697 56.7552L20.5414 58.6842C20.7829 58.7503 21.0157 58.8468 21.2341 58.9712L22.2238 57.2332ZM23.9381 58.5785C22.9668 57.7509 22.608 57.452 22.2238 57.2332L21.2341 58.9712C21.4142 59.0738 21.604 59.2173 22.6411 60.1009L23.9381 58.5785ZM24.5151 59.0703L23.9384 58.5786L22.6409 60.1007L23.2177 60.5923L24.5151 59.0703ZM24.523 59.077L24.5149 59.0702L23.2178 60.5925L23.2259 60.5993L24.523 59.077ZM27.3502 61.388C26.5605 60.8124 25.6519 60.039 24.523 59.077L23.2258 60.5993C24.3346 61.5442 25.3076 62.3741 26.172 63.0042L27.3502 61.388ZM29.8266 62.6912C28.9477 62.4361 28.1722 61.9875 27.3503 61.3881L26.1719 63.0041C27.09 63.6736 28.0795 64.2666 29.269 64.6119L29.8266 62.6912ZM34.1737 62.6911C32.7539 63.1028 31.2461 63.1028 29.8263 62.6911L29.2693 64.612C31.0529 65.1292 32.947 65.1292 34.7306 64.612L34.1737 62.6911ZM36.6496 61.3881C35.8278 61.9875 35.0522 62.4361 34.1733 62.6912L34.731 64.6119C35.9205 64.2666 36.9099 63.6736 37.828 63.0041L36.6496 61.3881ZM39.4806 59.0738C38.3501 60.0372 37.4403 60.8118 36.6498 61.388L37.8279 63.0042C38.6933 62.3733 39.6675 61.5422 40.7779 60.596L39.4806 59.0738ZM39.4847 59.0703L39.4805 59.0738L40.7779 60.5959L40.7821 60.5924L39.4847 59.0703ZM40.0615 58.5786L39.4847 59.0703L40.7821 60.5924L41.3589 60.1007L40.0615 58.5786ZM41.7758 57.2334C41.392 57.4521 41.0334 57.7507 40.0617 58.5784L41.3586 60.1009C42.3958 59.2174 42.5858 59.0737 42.766 58.9711L41.7758 57.2334ZM42.9303 56.7552C42.5265 56.8658 42.1389 57.0266 41.7761 57.2332L42.7657 58.9712C42.9842 58.8468 43.2169 58.7503 43.4585 58.6842L42.9303 56.7552ZM45.0936 56.4943C43.8203 56.596 43.3566 56.6385 42.9303 56.7552L43.4584 58.6842C43.6589 58.6293 43.8949 58.5964 45.2527 58.488L45.0936 56.4943ZM45.8488 56.4342L45.0937 56.4943L45.2526 58.488L46.0077 58.4278L45.8488 56.4342ZM49.4929 56.0685C48.5249 56.2201 47.332 56.316 45.8488 56.4341L46.0077 58.4278C47.4648 58.3117 48.7429 58.2104 49.8024 58.0444L49.4929 56.0685ZM52.1649 55.2388C51.3633 55.6801 50.4979 55.911 49.4927 56.0686L49.8025 58.0444C50.9246 57.8685 52.0438 57.5885 53.1295 56.9908L52.1649 55.2388ZM55.2389 52.1649C54.5262 53.46 53.46 54.526 52.165 55.2387L53.1294 56.9909C54.7561 56.0955 56.0956 54.7564 56.9911 53.1291L55.2389 52.1649ZM56.0684 49.4928C55.9112 50.4976 55.68 51.3631 55.2388 52.1649L56.9911 53.129C57.5883 52.0436 57.8687 50.9246 58.0443 49.802L56.0684 49.4928ZM56.434 45.8486C56.3158 47.3318 56.22 48.5247 56.0684 49.4927L58.0443 49.8022C58.2102 48.7427 58.3116 47.4646 58.4277 46.0075L56.434 45.8486ZM56.4946 45.0931L56.4341 45.8482L58.4277 46.0079L58.4882 45.2528L56.4946 45.0931ZM56.7557 42.9293C56.6383 43.3561 56.5961 43.8215 56.4945 45.0934L58.4882 45.2525C58.5966 43.894 58.6293 43.659 58.6841 43.4597L56.7557 42.9293ZM57.2331 41.7762C57.0262 42.1395 56.8658 42.5272 56.7554 42.9304L58.6844 43.4586C58.7507 43.2165 58.847 42.9838 58.9711 42.7658L57.2331 41.7762ZM58.5788 40.0616C57.7504 41.0335 57.4524 41.3917 57.2334 41.7756L58.9707 42.7664C59.0738 42.5858 59.2176 42.3953 60.1009 41.359L58.5788 40.0616ZM59.0705 39.4848L58.5788 40.0616L60.1009 41.359L60.5926 40.7822L59.0705 39.4848ZM59.0789 39.4749L59.0703 39.4849L60.5927 40.7821L60.6012 40.772L59.0789 39.4749ZM61.3884 36.6497C60.8127 37.439 60.0401 38.3468 59.0789 39.4749L60.6013 40.772C61.5454 39.6639 62.3743 38.692 63.0043 37.8282L61.3884 36.6497ZM62.691 34.1735C62.4361 35.0525 61.9877 35.8279 61.3883 36.6498L63.0043 37.8281C63.6738 36.91 64.2669 35.9205 64.6119 34.7304L62.691 34.1735ZM62.691 29.8266C63.103 31.2463 63.103 32.7536 62.691 34.1733L64.6118 34.7306C65.1294 32.9469 65.1294 31.053 64.6118 29.2692L62.691 29.8266ZM61.3884 27.3506C61.9877 28.172 62.4362 28.9474 62.691 29.8263L64.6119 29.2695C64.2669 28.0794 63.6738 27.0898 63.0042 26.1719L61.3884 27.3506ZM59.0702 24.5151C60.0353 25.6473 60.8109 26.5588 61.3884 27.3505L63.0043 26.172C62.3724 25.3056 61.5406 24.3302 60.5922 23.2177L59.0702 24.5151ZM58.5786 23.9381L59.07 24.5149L60.5924 23.2179L60.1011 22.6412L58.5786 23.9381ZM57.2335 22.2245C57.4524 22.6082 57.7503 22.9663 58.5788 23.9383L60.1009 22.641C59.2176 21.6045 59.0737 21.414 58.9707 21.2334L57.2335 22.2245ZM56.7554 21.0697C56.8658 21.4728 57.0262 21.8605 57.2331 22.2238L58.9711 21.2341C58.847 21.0162 58.7507 20.7835 58.6844 20.5414L56.7554 21.0697ZM56.4945 18.9065C56.5961 20.1786 56.6383 20.6437 56.7557 21.0706L58.6841 20.5405C58.6293 20.3409 58.5966 20.1059 58.4882 18.7474L56.4945 18.9065ZM56.4341 18.1517L56.4946 18.9068L58.4882 18.7471L58.4277 17.9919L56.4341 18.1517ZM56.0684 14.5071C56.22 15.4752 56.3158 16.668 56.434 18.1512L58.4277 17.9924C58.3116 16.5353 58.2102 15.2571 58.0443 14.1977L56.0684 14.5071ZM55.2389 11.8349C55.68 12.6367 55.9112 13.5022 56.0684 14.507L58.0443 14.1978C57.8687 13.0752 57.5883 11.9562 56.9911 10.8708L55.2389 11.8349ZM52.165 8.76114C53.46 9.47389 54.5262 10.5399 55.2389 11.835L56.9911 10.8707C56.0956 9.24358 54.7561 7.90436 53.1294 7.009L52.165 8.76114ZM49.4929 7.93149C50.4978 8.08889 51.3633 8.31995 52.165 8.76117L53.1293 7.00897C52.0438 6.41163 50.9248 6.13138 49.8024 5.95558L49.4929 7.93149ZM45.8487 7.56577C47.332 7.6841 48.5249 7.77991 49.4929 7.93149L49.8023 5.95557C48.743 5.78969 47.4648 5.68833 46.0077 5.5721L45.8487 7.56577ZM45.0936 7.50549L45.8487 7.56576L46.0078 5.57211L45.2527 5.51183L45.0936 7.50549ZM42.9301 7.24462C43.3565 7.36143 43.8205 7.40392 45.0936 7.50549L45.2527 5.51183C43.8947 5.40349 43.6589 5.37057 43.4586 5.31569L42.9301 7.24462ZM41.7759 6.76656C42.1391 6.97347 42.5268 7.13413 42.9302 7.24463L43.4585 5.31568C43.2167 5.24943 42.984 5.15306 42.7659 5.0288L41.7759 6.76656ZM40.0616 5.42133C41.0337 6.24956 41.392 6.54766 41.7756 6.7664L42.7662 5.02896C42.5859 4.92614 42.3955 4.7824 41.3587 3.89899L40.0616 5.42133ZM39.4849 4.92969L40.0614 5.42115L41.3589 3.89917L40.7825 3.40771L39.4849 4.92969ZM39.4806 4.926L39.4847 4.92949L40.7827 3.40791L40.7786 3.40442L39.4806 4.926ZM36.6496 2.61166C37.4403 3.18826 38.3502 3.9628 39.481 4.92636L40.7782 3.40407C39.6675 2.4576 38.6934 1.62671 37.828 0.99569L36.6496 2.61166ZM34.1735 1.30883C35.0523 1.56378 35.8277 2.01237 36.6497 2.61169L37.828 0.995654C36.9099 0.326276 35.9204 -0.266818 34.7308 -0.611966L34.1735 1.30883ZM44.0001 20.3333H39.8668V22.3333H44.0001V20.3333ZM45.6501 21.0167C45.2125 20.5792 44.619 20.3333 44.0001 20.3333V22.3333C44.0886 22.3333 44.1733 22.3684 44.2359 22.431L45.6501 21.0167ZM46.3335 22.6667C46.3335 22.0478 46.0876 21.4543 45.6501 21.0167L44.2358 22.431C44.2984 22.4935 44.3335 22.5783 44.3335 22.6667H46.3335ZM45.6501 24.3166C46.0876 23.879 46.3335 23.2855 46.3335 22.6667H44.3335C44.3335 22.7551 44.2984 22.8398 44.2358 22.9024L45.6501 24.3166ZM44.0001 25C44.619 25 45.2125 24.7542 45.6501 24.3166L44.2359 22.9024C44.1733 22.9649 44.0886 23 44.0001 23V25ZM42.6668 25H44.0001V23H42.6668V25ZM43.6668 41.3333V24H41.6668V41.3333H43.6668ZM41.419 46.7521C42.856 45.3151 43.6644 43.3668 43.6668 41.3345L41.6668 41.3321C41.665 42.8348 41.0673 44.2754 40.0047 45.3379L41.419 46.7521ZM36.0013 49C38.0336 48.9976 39.9819 48.1892 41.419 46.7521L40.0047 45.3379C38.9422 46.4005 37.5016 46.9982 35.999 47L36.0013 49ZM28.0001 49H36.0001V47H28.0001V49ZM22.5813 46.7521C24.0184 48.1892 25.9667 48.9976 27.9989 49L28.0013 47C26.4987 46.9982 25.0581 46.4005 23.9955 45.3379L22.5813 46.7521ZM20.3335 41.3345C20.3359 43.3668 21.1443 45.3151 22.5813 46.7521L23.9955 45.3379C22.933 44.2754 22.3353 42.8348 22.3335 41.3321L20.3335 41.3345ZM20.3335 24V41.3333H22.3335V24H20.3335ZM20.0001 25H21.3335V23H20.0001V25ZM18.3502 24.3166C18.7878 24.7542 19.3813 25 20.0001 25V23C19.9117 23 19.827 22.9649 19.7644 22.9024L18.3502 24.3166ZM17.6668 22.6667C17.6668 23.2855 17.9126 23.879 18.3502 24.3166L19.7644 22.9024C19.7019 22.8398 19.6668 22.7551 19.6668 22.6667H17.6668ZM18.3502 21.0167C17.9126 21.4543 17.6668 22.0478 17.6668 22.6667H19.6668C19.6668 22.5783 19.7019 22.4935 19.7644 22.431L18.3502 21.0167ZM20.0001 20.3333C19.3813 20.3333 18.7878 20.5792 18.3502 21.0167L19.7644 22.431C19.827 22.3684 19.9117 22.3333 20.0001 22.3333V20.3333ZM24.1335 20.3333H20.0001V22.3333H24.1335V20.3333ZM25.8194 16.7303C24.4511 17.8473 23.5098 19.4018 23.154 21.1319L25.113 21.5348C25.3761 20.2553 26.0723 19.1057 27.0842 18.2796L25.8194 16.7303ZM30.6656 15C28.8993 15.0022 27.1877 15.6133 25.8194 16.7303L27.0842 18.2796C28.0961 17.4536 29.3618 17.0016 30.6681 17L30.6656 15ZM33.3335 15H30.6668V17H33.3335V15ZM38.1809 16.7303C36.8126 15.6133 35.101 15.0022 33.3347 15L33.3322 17C34.6385 17.0016 35.9042 17.4536 36.9161 18.2796L38.1809 16.7303ZM40.8463 21.1319C40.4905 19.4018 39.5491 17.8473 38.1809 16.7303L36.9161 18.2796C37.928 19.1057 38.6242 20.2553 38.8873 21.5348L40.8463 21.1319ZM30.6668 19.6667H33.3335V17.6667H30.6668V19.6667ZM28.9353 20.2185C29.4421 19.8602 30.0473 19.6674 30.668 19.6667L30.6656 17.6667C29.6322 17.6679 28.6245 17.9888 27.7807 18.5854L28.9353 20.2185ZM27.8371 21.668C28.0449 21.0831 28.4284 20.5768 28.9353 20.2185L27.7807 18.5854C26.9369 19.1819 26.2983 20.0249 25.9525 20.9987L27.8371 21.668ZM37.1055 20.3333H26.8948V22.3333H37.1055V20.3333ZM35.065 20.2185C35.5718 20.5768 35.9554 21.0831 36.1631 21.668L38.0478 20.9987C37.702 20.0249 37.0634 19.1819 36.2196 18.5854L35.065 20.2185ZM33.3323 19.6667C33.9529 19.6674 34.5582 19.8602 35.065 20.2185L36.2196 18.5854C35.3758 17.9888 34.3681 17.6679 33.3347 17.6667L33.3323 19.6667ZM39.0001 41.3333C39.0001 42.129 38.6841 42.892 38.1215 43.4547L39.5357 44.8689C40.4734 43.9312 41.0001 42.6594 41.0001 41.3333H39.0001ZM39.0001 24V41.3333H41.0001V24H39.0001ZM24.0001 25H40.0001V23H24.0001V25ZM25.0001 41.3333V24H23.0001V41.3333H25.0001ZM25.8788 43.4547C25.3162 42.892 25.0001 42.129 25.0001 41.3333H23.0001C23.0001 42.6594 23.5269 43.9312 24.4646 44.8689L25.8788 43.4547ZM28.0001 44.3333C27.2045 44.3333 26.4414 44.0173 25.8788 43.4546L24.4646 44.8689C25.4023 45.8065 26.6741 46.3333 28.0001 46.3333V44.3333ZM36.0001 44.3333H28.0001V46.3333H36.0001V44.3333ZM38.1215 43.4546C37.5589 44.0173 36.7958 44.3333 36.0001 44.3333V46.3333C37.3262 46.3333 38.598 45.8065 39.5357 44.8689L38.1215 43.4546ZM29.3334 41.0001C29.9522 41.0001 30.5457 40.7542 30.9833 40.3166L29.5691 38.9024C29.5066 38.9649 29.4218 39.0001 29.3334 39.0001V41.0001ZM27.6835 40.3166C28.1211 40.7542 28.7146 41.0001 29.3334 41.0001V39.0001C29.245 39.0001 29.1602 38.9649 29.0977 38.9024L27.6835 40.3166ZM27.0001 38.6667C27.0001 39.2856 27.2459 39.8791 27.6835 40.3166L29.0977 38.9024C29.0352 38.8399 29.0001 38.7551 29.0001 38.6667H27.0001ZM27.0001 30.6667V38.6667H29.0001V30.6667H27.0001ZM27.6835 29.0168C27.2459 29.4544 27.0001 30.0479 27.0001 30.6667H29.0001C29.0001 30.5783 29.0352 30.4935 29.0977 30.431L27.6835 29.0168ZM29.3334 28.3334C28.7146 28.3334 28.1211 28.5792 27.6835 29.0168L29.0977 30.431C29.1602 30.3685 29.245 30.3334 29.3334 30.3334V28.3334ZM30.9833 29.0168C30.5457 28.5792 29.9522 28.3334 29.3334 28.3334V30.3334C29.4218 30.3334 29.5066 30.3685 29.5691 30.431L30.9833 29.0168ZM31.6667 30.6667C31.6667 30.0479 31.4209 29.4544 30.9833 29.0168L29.5691 30.431C29.6316 30.4935 29.6667 30.5783 29.6667 30.6667H31.6667ZM31.6667 38.6667V30.6667H29.6667V38.6667H31.6667ZM30.9833 40.3166C31.4209 39.8791 31.6667 39.2856 31.6667 38.6667H29.6667C29.6667 38.7551 29.6316 38.8399 29.5691 38.9024L30.9833 40.3166ZM34.9027 38.9024C34.8402 38.9649 34.7554 39.0001 34.667 39.0001V41.0001C35.2858 41.0001 35.8793 40.7542 36.3169 40.3166L34.9027 38.9024ZM35.0003 38.6667C35.0003 38.7551 34.9652 38.8399 34.9027 38.9024L36.3169 40.3166C36.7545 39.8791 37.0003 39.2856 37.0003 38.6667H35.0003ZM35.0003 30.6667V38.6667H37.0003V30.6667H35.0003ZM34.9027 30.431C34.9652 30.4935 35.0003 30.5783 35.0003 30.6667H37.0003C37.0003 30.0479 36.7545 29.4544 36.3169 29.0168L34.9027 30.431ZM34.667 30.3334C34.7554 30.3334 34.8402 30.3685 34.9027 30.431L36.3169 29.0168C35.8793 28.5792 35.2858 28.3334 34.667 28.3334V30.3334ZM34.4313 30.431C34.4938 30.3685 34.5786 30.3334 34.667 30.3334V28.3334C34.0482 28.3334 33.4547 28.5792 33.0171 29.0168L34.4313 30.431ZM34.3337 30.6667C34.3337 30.5783 34.3688 30.4935 34.4313 30.431L33.0171 29.0168C32.5795 29.4544 32.3337 30.0479 32.3337 30.6667H34.3337ZM34.3337 38.6667V30.6667H32.3337V38.6667H34.3337ZM34.4313 38.9024C34.3688 38.8399 34.3337 38.7551 34.3337 38.6667H32.3337C32.3337 39.2856 32.5795 39.8791 33.0171 40.3166L34.4313 38.9024ZM34.667 39.0001C34.5786 39.0001 34.4938 38.9649 34.4313 38.9024L33.0171 40.3166C33.4547 40.7542 34.0482 41.0001 34.667 41.0001V39.0001Z" fill="url(#paint1_linear_5324_2169)" mask="url(#path-1-inside-1_5324_2169)"/>
<defs>
<linearGradient id="paint0_linear_5324_2169" x1="32" y1="1.74384" x2="33.02" y2="63.9999" gradientUnits="userSpaceOnUse">
<stop stop-color="#E42525"/>
<stop offset="1" stop-color="#C90000"/>
</linearGradient>
<linearGradient id="paint1_linear_5324_2169" x1="32" y1="1.9461" x2="32" y2="63.9999" gradientUnits="userSpaceOnUse">
<stop stop-color="#A90707"/>
<stop offset="1" stop-color="#E42525"/>
</linearGradient>
</defs>
</svg>
