<svg width="16" height="16" viewBox="0 0 16 16" fill="none" xmlns="http://www.w3.org/2000/svg">
<path d="M3.49987 4.44384H3.74987V4.19384V2.43159C3.74987 1.50288 4.50276 0.75 5.43147 0.75H10.5683C11.497 0.75 12.2499 1.50288 12.2499 2.43159V7.25H11.2499V2.48291C11.2499 2.07813 10.9218 1.75 10.517 1.75H5.48278C5.07799 1.75 4.74987 2.07812 4.74987 2.48291V4.19384V4.44384H4.99987H5.78271L4.24986 6.74314L2.717 4.44384H3.49987Z" fill="white" stroke="currentColor" stroke-width="0.5"/>
<path d="M15.4999 11.25C15.4999 13.3211 13.8209 15 11.7499 15C9.67881 15 7.99988 13.3211 7.99988 11.25C7.99988 9.17893 9.67881 7.5 11.7499 7.5C13.8209 7.5 15.4999 9.17893 15.4999 11.25Z" fill="white" stroke="currentColor"/>
<path d="M11.5858 13.4614C11.2852 13.4614 11.0374 13.41 10.8434 13.3073C10.6482 13.2045 10.5044 13.0722 10.4093 12.9104C10.3156 12.7486 10.2681 12.5829 10.2681 12.4134C10.2681 12.2426 10.3079 12.0897 10.3888 11.9395C10.4697 11.7892 10.5853 11.6646 10.7356 11.5657C10.8858 11.4669 11.0643 11.4181 11.2698 11.4181C11.2647 11.4579 11.2634 11.5118 11.2634 11.5799C11.2634 11.8804 11.2929 12.1167 11.3507 12.2888C11.4085 12.4609 11.483 12.5842 11.5729 12.6587C11.6628 12.7332 11.754 12.7691 11.849 12.7691C11.9929 12.7691 12.12 12.7114 12.2318 12.5983C12.3435 12.484 12.4 12.3505 12.4 12.1976C12.4 12.0268 12.3268 11.8766 12.1817 11.7468C12.0353 11.6171 11.8503 11.4733 11.6269 11.3166C11.501 11.2228 11.3687 11.1162 11.2274 10.9968C11.0862 10.8786 10.9667 10.7374 10.8678 10.573C10.7689 10.4099 10.7201 10.2159 10.7201 9.99119C10.7201 9.76643 10.7754 9.55195 10.8845 9.37215C10.995 9.19363 11.1401 9.04208 11.3212 8.91879C11.5023 8.7955 11.7026 8.70174 11.9197 8.63624C12.1367 8.57074 12.3538 8.53864 12.5683 8.53864C12.8328 8.53864 13.0499 8.58102 13.2207 8.66578C13.3915 8.75055 13.5186 8.861 13.6034 8.99585C13.6882 9.1307 13.7318 9.26941 13.7318 9.41325C13.7318 9.5481 13.6946 9.67653 13.6214 9.79983C13.5469 9.92312 13.439 10.0233 13.2952 10.0991C13.1513 10.1748 12.9741 10.2134 12.7635 10.2134C12.7776 10.1504 12.7866 10.0939 12.7904 10.0426C12.7943 9.99119 12.7969 9.94495 12.7969 9.90514C12.7969 9.68167 12.7481 9.52113 12.653 9.42481C12.5567 9.32848 12.4501 9.27968 12.3332 9.27968C12.2164 9.27968 12.1136 9.32078 12.0109 9.40426C11.9081 9.48774 11.8568 9.62002 11.8568 9.80368C11.8568 9.96036 11.8979 10.0952 11.9813 10.207C12.0648 10.3187 12.1714 10.4176 12.3037 10.5023C12.436 10.5871 12.576 10.6706 12.7237 10.7515C12.8765 10.8324 13.0229 10.921 13.1642 11.0173C13.3055 11.1137 13.4236 11.2267 13.5174 11.3564C13.6111 11.4861 13.6586 11.6505 13.6586 11.847C13.6586 12.0448 13.6021 12.2541 13.4904 12.4494C13.3787 12.6446 13.2258 12.8167 13.0332 12.9669C12.8405 13.1172 12.6196 13.2366 12.3705 13.3265C12.12 13.4177 11.8593 13.4614 11.5858 13.4614Z" fill="currentColor"/>
<path d="M7.99988 11.25C7.99988 13.3211 6.32095 15 4.24988 15C2.17881 15 0.499878 13.3211 0.499878 11.25C0.499878 9.17893 2.17881 7.5 4.24988 7.5C6.32095 7.5 7.99988 9.17893 7.99988 11.25Z" fill="white" stroke="currentColor"/>
<path d="M3.5858 13.4614C3.28527 13.4614 3.0374 13.41 2.84347 13.3073C2.64825 13.2045 2.50441 13.0722 2.40937 12.9104C2.31562 12.7486 2.2681 12.5829 2.2681 12.4134C2.2681 12.2426 2.30791 12.0897 2.38882 11.9395C2.46973 11.7892 2.58532 11.6646 2.73559 11.5657C2.88585 11.4669 3.06437 11.4181 3.26986 11.4181C3.26472 11.4579 3.26344 11.5118 3.26344 11.5799C3.26344 11.8804 3.29297 12.1167 3.35077 12.2888C3.40856 12.4609 3.48305 12.5842 3.57295 12.6587C3.66286 12.7332 3.75404 12.7691 3.84908 12.7691C3.99292 12.7691 4.12007 12.7114 4.2318 12.5983C4.34354 12.484 4.40005 12.3505 4.40005 12.1976C4.40005 12.0268 4.32684 11.8766 4.18172 11.7468C4.0353 11.6171 3.85036 11.4733 3.62689 11.3166C3.50103 11.2228 3.36875 11.1162 3.22747 10.9968C3.0862 10.8786 2.96676 10.7374 2.86787 10.573C2.76898 10.4099 2.72017 10.2159 2.72017 9.99119C2.72017 9.76643 2.7754 9.55195 2.88456 9.37215C2.99502 9.19363 3.14014 9.04208 3.32123 8.91879C3.50232 8.7955 3.70267 8.70174 3.91972 8.63624C4.13677 8.57074 4.35381 8.53864 4.56829 8.53864C4.83286 8.53864 5.04991 8.58102 5.22072 8.66578C5.39153 8.75055 5.51868 8.861 5.60344 8.99585C5.68821 9.1307 5.73188 9.26941 5.73188 9.41325C5.73188 9.5481 5.69463 9.67653 5.62142 9.79983C5.54693 9.92312 5.43905 10.0233 5.29521 10.0991C5.15137 10.1748 4.97413 10.2134 4.76351 10.2134C4.77763 10.1504 4.78662 10.0939 4.79048 10.0426C4.79433 9.99119 4.7969 9.94495 4.7969 9.90514C4.7969 9.68167 4.7481 9.52113 4.65306 9.42481C4.55673 9.32848 4.45014 9.27968 4.33326 9.27968C4.21639 9.27968 4.11365 9.32078 4.0109 9.40426C3.90816 9.48774 3.85679 9.62002 3.85679 9.80368C3.85679 9.96036 3.89788 10.0952 3.98136 10.207C4.06484 10.3187 4.17144 10.4176 4.30373 10.5023C4.43601 10.5871 4.576 10.6706 4.72369 10.7515C4.87653 10.8324 5.02294 10.921 5.16421 11.0173C5.30549 11.1137 5.42364 11.2267 5.5174 11.3564C5.61115 11.4861 5.65867 11.6505 5.65867 11.847C5.65867 12.0448 5.60216 12.2541 5.49043 12.4494C5.37869 12.6446 5.22586 12.8167 5.03321 12.9669C4.84057 13.1172 4.61966 13.2366 4.37051 13.3265C4.12007 13.4177 3.85935 13.4614 3.5858 13.4614Z" fill="currentColor"/>
</svg>
