<svg width="18" height="18" viewBox="0 0 18 18" fill="none" xmlns="http://www.w3.org/2000/svg">
<path d="M17.6896 14.5862H15.2068V3.41376H17.6896C17.861 3.41376 17.9999 3.27479 17.9999 3.10341C17.9999 2.93202 17.861 2.79305 17.6896 2.79305H15.2068V0.310358C15.2068 0.138972 15.0678 0 14.8965 0C14.7251 0 14.5861 0.138972 14.5861 0.310358V2.79312H3.41376V0.310358C3.41376 0.138972 3.27483 0 3.10344 0C2.93205 0 2.79308 0.138972 2.79308 0.310358V2.79312H0.310358C0.138972 2.79308 0 2.93205 0 3.10344C0 3.27483 0.138972 3.4138 0.310358 3.4138H2.79312V14.5862H0.310358C0.138972 14.5862 0 14.7251 0 14.8965C0 15.0679 0.138972 15.2069 0.310358 15.2069H2.79312V17.6896C2.79312 17.861 2.93209 18 3.10348 18C3.27486 18 3.41383 17.861 3.41383 17.6896V15.2069H14.5862V17.6896C14.5862 17.861 14.7252 18 14.8966 18C15.0679 18 15.2069 17.861 15.2069 17.6896V15.2069H17.6897C17.8611 15.2069 18 15.0679 18 14.8965C17.9999 14.7251 17.861 14.5862 17.6896 14.5862ZM12.7241 14.5862H5.27584H3.41376V12.7241V5.27584V3.41376H5.27584H12.7241H14.5862V5.27584V12.7241V14.5862H12.7241Z" fill="#B2CCFF"/>
<path d="M14.5862 12.7244V5.27614C14.5862 4.24775 13.7526 3.41406 12.7241 3.41406H5.2759C4.24751 3.41406 3.41382 4.24772 3.41382 5.27614V12.7244C3.41382 13.7528 4.24748 14.5865 5.2759 14.5865H12.7241C13.7525 14.5865 14.5862 13.7528 14.5862 12.7244ZM9.00002 12.7244C7.4574 12.7244 6.20694 11.4738 6.20694 9.9313C6.20694 8.03864 8.13866 6.07443 8.78915 5.46665C8.84888 5.41082 8.92447 5.38295 9.00002 5.38295C9.0756 5.38295 9.15115 5.41082 9.21089 5.46665C9.86138 6.07443 11.7931 8.03864 11.7931 9.9313C11.7931 11.4738 10.5426 12.7244 9.00002 12.7244Z" fill="#2684FF" fill-opacity="0.24"/>
<path d="M9.00004 6.125C7.91319 7.19575 6.82764 8.69825 6.82764 9.93188C6.82764 11.1297 7.8022 12.1043 9.00004 12.1043C10.1979 12.1043 11.1724 11.1297 11.1724 9.93188C11.1724 8.69825 10.0869 7.19575 9.00004 6.125ZM9.46554 11.1732C9.03702 11.1732 8.68968 10.8259 8.68968 10.3974C8.68968 9.96886 9.03702 9.62152 9.46554 9.62152C9.89406 9.62152 10.2414 9.96886 10.2414 10.3974C10.2414 10.8259 9.89406 11.1732 9.46554 11.1732Z" fill="#2684FF"/>
<path d="M9.21074 5.46652C9.15101 5.41069 9.07542 5.38281 8.99987 5.38281C8.92428 5.38281 8.84873 5.41069 8.789 5.46652C8.13851 6.0743 6.20679 8.03851 6.20679 9.93117C6.20679 11.4737 7.45729 12.7243 8.99987 12.7243C10.5424 12.7243 11.793 11.4737 11.793 9.93117C11.793 8.03851 9.86123 6.0743 9.21074 5.46652ZM8.99987 12.1036C7.80203 12.1036 6.82747 11.129 6.82747 9.93117C6.82747 8.69754 7.91302 7.19508 8.99987 6.12429C10.0867 7.195 11.1723 8.69754 11.1723 9.93117C11.1723 11.129 10.1977 12.1036 8.99987 12.1036Z" fill="#2684FF"/>
<path d="M9.46556 11.1728C9.89405 11.1728 10.2414 10.8254 10.2414 10.397C10.2414 9.96846 9.89405 9.62109 9.46556 9.62109C9.03706 9.62109 8.6897 9.96846 8.6897 10.397C8.6897 10.8254 9.03706 11.1728 9.46556 11.1728Z" fill="white"/>
</svg>
