<svg width="14" height="18" viewBox="0 0 14 18" fill="none" xmlns="http://www.w3.org/2000/svg">
<path fill-rule="evenodd" clip-rule="evenodd" d="M4.4524 3.09527C4.4524 2.42665 4.99807 1.88098 5.66669 1.88098H8.33336C8.66763 1.88098 8.96868 2.01482 9.19125 2.23739C9.41382 2.45996 9.54764 2.76098 9.54764 3.09527C9.54764 3.76389 9.00198 4.30955 8.33336 4.30955H5.66669C5.33241 4.30955 5.03137 4.17571 4.80879 3.95314C4.78097 3.92532 4.75454 3.89627 4.72958 3.86609C4.55486 3.6548 4.4524 3.38777 4.4524 3.09527ZM3.50621 2.60898C3.72843 1.62118 4.61279 0.880981 5.66669 0.880981H8.33336C8.94384 0.880981 9.49617 1.1281 9.89836 1.53029C10.1905 1.82241 10.4008 2.19372 10.494 2.60899C11.2275 2.65627 11.9495 2.83593 12.52 3.30394C13.2268 3.88376 13.5953 4.81512 13.5953 6.14289V7.52956C13.5953 7.8057 13.3714 8.02956 13.0953 8.02956C12.8191 8.02956 12.5953 7.8057 12.5953 7.52956V6.14289C12.5953 4.99446 12.2818 4.40201 11.8858 4.07707C11.5486 3.80043 11.0793 3.65602 10.487 3.61098C10.254 4.58401 9.37676 5.30955 8.33336 5.30955H5.66669C5.05621 5.30955 4.50388 5.06244 4.10169 4.66025C3.82518 4.38374 3.62198 4.03627 3.52199 3.64774C3.51884 3.63553 3.5158 3.62328 3.51287 3.611C2.92068 3.65605 2.45146 3.80046 2.11429 4.07707C1.7182 4.40201 1.40479 4.99446 1.40479 6.14289V13.5715C1.40479 14.612 1.71132 15.2177 2.12396 15.574C2.5503 15.9422 3.17574 16.1191 3.9524 16.1191H10.0476C10.8243 16.1191 11.4497 15.9422 11.8761 15.574C12.2887 15.2177 12.5953 14.612 12.5953 13.5715V11.3162C12.5953 11.0401 12.8191 10.8162 13.0953 10.8162C13.3714 10.8162 13.5953 11.0401 13.5953 11.3162V13.5715C13.5953 14.8167 13.2199 15.7348 12.5297 16.3308C11.8532 16.915 10.9548 17.1191 10.0476 17.1191H3.9524C3.04525 17.1191 2.14689 16.915 1.47037 16.3308C0.78015 15.7348 0.404785 14.8167 0.404785 13.5715V6.14289C0.404785 4.81512 0.773273 3.88376 1.48004 3.30394C2.05056 2.8359 2.77267 2.65624 3.50621 2.60898ZM3.4524 9.76193C3.4524 9.48579 3.67626 9.26193 3.9524 9.26193H7.00002C7.27617 9.26193 7.50002 9.48579 7.50002 9.76193C7.50002 10.0381 7.27617 10.2619 7.00002 10.2619H3.9524C3.67626 10.2619 3.4524 10.0381 3.4524 9.76193ZM3.9524 12.3096C3.67626 12.3096 3.4524 12.5334 3.4524 12.8096C3.4524 13.0857 3.67626 13.3096 3.9524 13.3096H10.0476C10.3238 13.3096 10.5476 13.0857 10.5476 12.8096C10.5476 12.5334 10.3238 12.3096 10.0476 12.3096H3.9524Z" fill="currentColor"/>
</svg>
