<svg width="16" height="16" viewBox="0 0 64 64" fill="none" xmlns="http://www.w3.org/2000/svg">
<mask id="path-1-inside-1_7258_14469" fill="white">
<path fill-rule="evenodd" clip-rule="evenodd" d="M29.5478 0.348431C31.1495 -0.116144 32.8504 -0.116144 34.4522 0.348431C35.4864 0.64848 36.3688 1.16932 37.2388 1.80367C38.0678 2.40822 39.0111 3.21215 40.1337 4.1687L40.7102 4.66016C41.7146 5.51598 41.9889 5.7369 42.2709 5.89768C42.5616 6.06326 42.8717 6.19178 43.1944 6.28015C43.5077 6.366 43.8576 6.40371 45.1731 6.50866L45.9282 6.56893C47.3984 6.68621 48.6339 6.7848 49.6476 6.94353C50.7113 7.11014 51.7036 7.36579 52.6472 7.88507C54.108 8.68913 55.3109 9.89176 56.115 11.3529C56.6342 12.2964 56.8899 13.2887 57.0564 14.3524C57.2151 15.3661 57.3137 16.6017 57.4309 18.0718L57.4914 18.8269C57.5963 20.1422 57.6338 20.4923 57.7199 20.8056C57.8082 21.1281 57.9366 21.4383 58.1021 21.729C58.2631 22.0111 58.484 22.2854 59.3399 23.2896L59.8312 23.8664C60.7879 24.9888 61.5917 25.9322 62.1963 26.7612C62.8307 27.6309 63.3515 28.5134 63.6514 29.5479C64.1162 31.1496 64.1162 32.8502 63.6514 34.452C63.3515 35.4865 62.8307 36.369 62.1963 37.2389C61.5917 38.068 60.7879 39.011 59.8315 40.1335L59.3399 40.7103C58.484 41.7144 58.2631 41.9887 58.1021 42.271C57.9366 42.5617 57.8082 42.8718 57.7199 43.1945C57.6338 43.5075 57.5963 43.8577 57.4914 45.1729L57.4309 45.928C57.3137 47.3982 57.2151 48.6337 57.0564 49.6474C56.8899 50.7111 56.6342 51.7034 56.115 52.647C55.3109 54.1082 54.108 55.3107 52.6472 56.1148C51.7036 56.6343 50.7113 56.8897 49.6476 57.0565C48.6339 57.2153 47.3984 57.3138 45.9282 57.431L45.1731 57.4912C43.8576 57.5962 43.5077 57.6339 43.1944 57.7197C42.8717 57.8081 42.5616 57.9367 42.2709 58.1022C41.9889 58.2629 41.7146 58.4841 40.7102 59.3397L40.1334 59.8313C39.0112 60.7877 38.0678 61.5918 37.2388 62.1961C36.3688 62.8305 35.4864 63.3513 34.4522 63.6516C32.8504 64.116 31.1495 64.116 29.5478 63.6516C28.5136 63.3513 27.6311 62.8305 26.7611 62.1961C25.9321 61.5918 24.9888 60.7877 23.8664 59.8313L23.2896 59.3397C22.2854 58.4841 22.0111 58.2629 21.729 58.1022C21.4383 57.9367 21.1281 57.8081 20.8056 57.7197C20.4923 57.6339 20.1422 57.5962 18.8269 57.4912L18.0718 57.431C16.6017 57.3138 15.3661 57.2153 14.3524 57.0565C13.2887 56.8897 12.2964 56.6343 11.3529 56.1148C9.89176 55.3107 8.68913 54.1082 7.88507 52.647C7.36576 51.7034 7.11011 50.7111 6.94353 49.6474C6.78477 48.6337 6.68621 47.3985 6.56893 45.9284L6.50866 45.1729C6.40371 43.8577 6.366 43.5075 6.28015 43.1945C6.19178 42.8718 6.06326 42.5617 5.89768 42.271C5.73687 41.9887 5.51598 41.7144 4.66013 40.7103L4.16864 40.1335C3.21212 39.0113 2.40819 38.068 1.80367 37.2389C1.16933 36.369 0.64848 35.4865 0.348431 34.452C-0.116144 32.8502 -0.116144 31.1496 0.348431 29.5479C0.64848 28.5134 1.16933 27.6309 1.80367 26.7612C2.40822 25.9322 3.21212 24.9888 4.16867 23.8664L4.66013 23.2896C5.51598 22.2854 5.73687 22.0111 5.89768 21.729C6.06326 21.4383 6.19178 21.1281 6.28015 20.8056C6.366 20.4923 6.40371 20.1422 6.50866 18.8269L6.56893 18.0716C6.68621 16.6016 6.78477 15.3661 6.94353 14.3524C7.11011 13.2887 7.36576 12.2964 7.88507 11.3529C8.68913 9.89176 9.89176 8.68916 11.3529 7.88507C12.2964 7.36579 13.2887 7.11014 14.3524 6.94353C15.3661 6.7848 16.6015 6.68621 18.0715 6.56893L18.8269 6.50866C20.1422 6.40371 20.4923 6.366 20.8056 6.28015C21.1281 6.19178 21.4383 6.06326 21.729 5.89768C22.0111 5.7369 22.2854 5.51598 23.2896 4.66016L23.8663 4.1687C24.9887 3.21215 25.9321 2.40822 26.7611 1.80367C27.6311 1.16932 28.5136 0.64848 29.5478 0.348431Z"/>
</mask>
<path fill-rule="evenodd" clip-rule="evenodd" d="M29.5478 0.348431C31.1495 -0.116144 32.8504 -0.116144 34.4522 0.348431C35.4864 0.64848 36.3688 1.16932 37.2388 1.80367C38.0678 2.40822 39.0111 3.21215 40.1337 4.1687L40.7102 4.66016C41.7146 5.51598 41.9889 5.7369 42.2709 5.89768C42.5616 6.06326 42.8717 6.19178 43.1944 6.28015C43.5077 6.366 43.8576 6.40371 45.1731 6.50866L45.9282 6.56893C47.3984 6.68621 48.6339 6.7848 49.6476 6.94353C50.7113 7.11014 51.7036 7.36579 52.6472 7.88507C54.108 8.68913 55.3109 9.89176 56.115 11.3529C56.6342 12.2964 56.8899 13.2887 57.0564 14.3524C57.2151 15.3661 57.3137 16.6017 57.4309 18.0718L57.4914 18.8269C57.5963 20.1422 57.6338 20.4923 57.7199 20.8056C57.8082 21.1281 57.9366 21.4383 58.1021 21.729C58.2631 22.0111 58.484 22.2854 59.3399 23.2896L59.8312 23.8664C60.7879 24.9888 61.5917 25.9322 62.1963 26.7612C62.8307 27.6309 63.3515 28.5134 63.6514 29.5479C64.1162 31.1496 64.1162 32.8502 63.6514 34.452C63.3515 35.4865 62.8307 36.369 62.1963 37.2389C61.5917 38.068 60.7879 39.011 59.8315 40.1335L59.3399 40.7103C58.484 41.7144 58.2631 41.9887 58.1021 42.271C57.9366 42.5617 57.8082 42.8718 57.7199 43.1945C57.6338 43.5075 57.5963 43.8577 57.4914 45.1729L57.4309 45.928C57.3137 47.3982 57.2151 48.6337 57.0564 49.6474C56.8899 50.7111 56.6342 51.7034 56.115 52.647C55.3109 54.1082 54.108 55.3107 52.6472 56.1148C51.7036 56.6343 50.7113 56.8897 49.6476 57.0565C48.6339 57.2153 47.3984 57.3138 45.9282 57.431L45.1731 57.4912C43.8576 57.5962 43.5077 57.6339 43.1944 57.7197C42.8717 57.8081 42.5616 57.9367 42.2709 58.1022C41.9889 58.2629 41.7146 58.4841 40.7102 59.3397L40.1334 59.8313C39.0112 60.7877 38.0678 61.5918 37.2388 62.1961C36.3688 62.8305 35.4864 63.3513 34.4522 63.6516C32.8504 64.116 31.1495 64.116 29.5478 63.6516C28.5136 63.3513 27.6311 62.8305 26.7611 62.1961C25.9321 61.5918 24.9888 60.7877 23.8664 59.8313L23.2896 59.3397C22.2854 58.4841 22.0111 58.2629 21.729 58.1022C21.4383 57.9367 21.1281 57.8081 20.8056 57.7197C20.4923 57.6339 20.1422 57.5962 18.8269 57.4912L18.0718 57.431C16.6017 57.3138 15.3661 57.2153 14.3524 57.0565C13.2887 56.8897 12.2964 56.6343 11.3529 56.1148C9.89176 55.3107 8.68913 54.1082 7.88507 52.647C7.36576 51.7034 7.11011 50.7111 6.94353 49.6474C6.78477 48.6337 6.68621 47.3985 6.56893 45.9284L6.50866 45.1729C6.40371 43.8577 6.366 43.5075 6.28015 43.1945C6.19178 42.8718 6.06326 42.5617 5.89768 42.271C5.73687 41.9887 5.51598 41.7144 4.66013 40.7103L4.16864 40.1335C3.21212 39.0113 2.40819 38.068 1.80367 37.2389C1.16933 36.369 0.64848 35.4865 0.348431 34.452C-0.116144 32.8502 -0.116144 31.1496 0.348431 29.5479C0.64848 28.5134 1.16933 27.6309 1.80367 26.7612C2.40822 25.9322 3.21212 24.9888 4.16867 23.8664L4.66013 23.2896C5.51598 22.2854 5.73687 22.0111 5.89768 21.729C6.06326 21.4383 6.19178 21.1281 6.28015 20.8056C6.366 20.4923 6.40371 20.1422 6.50866 18.8269L6.56893 18.0716C6.68621 16.6016 6.78477 15.3661 6.94353 14.3524C7.11011 13.2887 7.36576 12.2964 7.88507 11.3529C8.68913 9.89176 9.89176 8.68916 11.3529 7.88507C12.2964 7.36579 13.2887 7.11014 14.3524 6.94353C15.3661 6.7848 16.6015 6.68621 18.0715 6.56893L18.8269 6.50866C20.1422 6.40371 20.4923 6.366 20.8056 6.28015C21.1281 6.19178 21.4383 6.06326 21.729 5.89768C22.0111 5.7369 22.2854 5.51598 23.2896 4.66016L23.8663 4.1687C24.9887 3.21215 25.9321 2.40822 26.7611 1.80367C27.6311 1.16932 28.5136 0.64848 29.5478 0.348431Z" fill="url(#paint0_linear_7258_14469)"/>
<path d="M29.5478 0.348431L29.2692 -0.611986L29.2691 -0.611966L29.5478 0.348431ZM34.4522 0.348431L34.7308 -0.611966L34.7307 -0.611986L34.4522 0.348431ZM37.2388 1.80367L37.828 0.995689L37.828 0.995655L37.2388 1.80367ZM40.1337 4.1687L40.7825 3.40771L40.7823 3.40756L40.1337 4.1687ZM40.7102 4.66016L40.0614 5.42115L40.0616 5.42133L40.7102 4.66016ZM42.2709 5.89768L41.7756 6.7664L41.7759 6.76656L42.2709 5.89768ZM43.1944 6.28015L43.4586 5.31569L43.4585 5.31568L43.1944 6.28015ZM45.1731 6.50866L45.2527 5.51183L45.2527 5.51183L45.1731 6.50866ZM45.9282 6.56893L45.8487 7.56576L45.8487 7.56577L45.9282 6.56893ZM49.6476 6.94353L49.8024 5.95558L49.8023 5.95557L49.6476 6.94353ZM52.6472 7.88507L53.1294 7.009L53.1293 7.00897L52.6472 7.88507ZM56.115 11.3529L56.9911 10.8708L56.9911 10.8707L56.115 11.3529ZM57.0564 14.3524L56.0684 14.507L56.0684 14.5071L57.0564 14.3524ZM57.4309 18.0718L56.434 18.1512L56.4341 18.1517L57.4309 18.0718ZM57.4914 18.8269L58.4882 18.7473L58.4882 18.7471L57.4914 18.8269ZM57.7199 20.8056L58.6844 20.5414L58.6841 20.5405L57.7199 20.8056ZM58.1021 21.729L57.2331 22.2238L57.2335 22.2245L58.1021 21.729ZM59.3399 23.2896L60.1011 22.6412L60.1009 22.641L59.3399 23.2896ZM59.8312 23.8664L59.07 24.5149L59.0702 24.5151L59.8312 23.8664ZM62.1963 26.7612L61.3884 27.3505L61.3884 27.3506L62.1963 26.7612ZM63.6514 29.5479L62.691 29.8264L62.691 29.8266L63.6514 29.5479ZM63.6514 34.452L62.691 34.1733L62.691 34.1735L63.6514 34.452ZM62.1963 37.2389L63.0043 37.8282L63.0043 37.8281L62.1963 37.2389ZM59.8315 40.1335L60.5926 40.7822L60.5927 40.782L59.8315 40.1335ZM59.3399 40.7103L60.1009 41.359L60.1009 41.359L59.3399 40.7103ZM58.1021 42.271L57.2334 41.7756L57.2331 41.7762L58.1021 42.271ZM57.7199 43.1945L58.6841 43.4597L58.6844 43.4586L57.7199 43.1945ZM57.4914 45.1729L58.4882 45.2528L58.4882 45.2525L57.4914 45.1729ZM57.4309 45.928L56.4341 45.8482L56.434 45.8486L57.4309 45.928ZM57.0564 49.6474L56.0684 49.4927L56.0684 49.4928L57.0564 49.6474ZM56.115 52.647L56.9911 53.1291L56.9911 53.129L56.115 52.647ZM52.6472 56.1148L52.165 55.2387L52.1649 55.2388L52.6472 56.1148ZM49.6476 57.0565L49.8024 58.0444L49.8025 58.0444L49.6476 57.0565ZM45.9282 57.431L45.8488 56.4341L45.8488 56.4342L45.9282 57.431ZM45.1731 57.4912L45.0937 56.4943L45.0936 56.4943L45.1731 57.4912ZM43.1944 57.7197L42.9303 56.7552L42.9303 56.7552L43.1944 57.7197ZM42.2709 58.1022L41.7761 57.2332L41.7758 57.2334L42.2709 58.1022ZM40.7102 59.3397L40.0617 58.5784L40.0615 58.5786L40.7102 59.3397ZM40.1334 59.8313L40.782 60.5924L40.7821 60.5924L40.1334 59.8313ZM37.2388 62.1961L36.6498 61.388L36.6496 61.3881L37.2388 62.1961ZM34.4522 63.6516L34.7306 64.612L34.731 64.6119L34.4522 63.6516ZM29.5478 63.6516L29.269 64.6119L29.2693 64.612L29.5478 63.6516ZM26.7611 62.1961L27.3503 61.3881L27.3502 61.388L26.7611 62.1961ZM23.8664 59.8313L23.2177 60.5923L23.2178 60.5925L23.8664 59.8313ZM23.2896 59.3397L23.9384 58.5786L23.9381 58.5785L23.2896 59.3397ZM21.729 58.1022L21.2341 58.9712L21.2341 58.9712L21.729 58.1022ZM20.8056 57.7197L21.0697 56.7552H21.0697L20.8056 57.7197ZM18.8269 57.4912L18.9065 56.4943L18.9064 56.4943L18.8269 57.4912ZM18.0718 57.431L18.1512 56.4342L18.1512 56.4341L18.0718 57.431ZM14.3524 57.0565L14.1975 58.0444L14.1977 58.0444L14.3524 57.0565ZM11.3529 56.1148L11.8352 55.2388L11.835 55.2387L11.3529 56.1148ZM7.88507 52.647L8.76118 52.1649L8.76116 52.1648L7.88507 52.647ZM6.94353 49.6474L7.93149 49.4927L7.93149 49.4927L6.94353 49.6474ZM6.56893 45.9284L7.56577 45.8488L7.56577 45.8488L6.56893 45.9284ZM6.50866 45.1729L7.50549 45.0934L7.50549 45.0934L6.50866 45.1729ZM6.28015 43.1945L5.31568 43.4587L5.31576 43.459L6.28015 43.1945ZM5.89768 42.271L5.02876 42.766L5.0288 42.7661L5.89768 42.271ZM4.66013 40.7103L3.89898 41.3589L3.89907 41.359L4.66013 40.7103ZM4.16864 40.1335L4.92978 39.4849L4.9297 39.4848L4.16864 40.1335ZM1.80367 37.2389L0.995656 37.8281L0.995675 37.8281L1.80367 37.2389ZM0.348431 34.452L1.30885 34.1734L1.30885 34.1734L0.348431 34.452ZM0.348431 29.5479L1.30885 29.8265L1.30885 29.8265L0.348431 29.5479ZM1.80367 26.7612L2.61159 27.3505L2.61166 27.3504L1.80367 26.7612ZM4.16867 23.8664L4.92977 24.515L4.9298 24.515L4.16867 23.8664ZM4.66013 23.2896L3.89903 22.641L3.899 22.641L4.66013 23.2896ZM5.89768 21.729L6.76651 22.2241L6.76654 22.224L5.89768 21.729ZM6.28015 20.8056L5.31572 20.5412L5.31569 20.5413L6.28015 20.8056ZM6.50866 18.8269L7.50549 18.9065L7.50549 18.9065L6.50866 18.8269ZM6.56893 18.0716L7.56577 18.1511L7.56577 18.1511L6.56893 18.0716ZM6.94353 14.3524L7.93149 14.5071L7.93149 14.5071L6.94353 14.3524ZM7.88507 11.3529L8.76115 11.835L8.76117 11.835L7.88507 11.3529ZM11.3529 7.88507L10.8707 7.00897L10.8707 7.00898L11.3529 7.88507ZM14.3524 6.94353L14.1977 5.95557L14.1976 5.95558L14.3524 6.94353ZM18.0715 6.56893L18.1511 7.56577L18.1511 7.56577L18.0715 6.56893ZM18.8269 6.50866L18.9065 7.50549L18.9065 7.50549L18.8269 6.50866ZM20.8056 6.28015L20.5413 5.31569L20.5412 5.31572L20.8056 6.28015ZM21.729 5.89768L21.2339 5.02881L21.2339 5.02882L21.729 5.89768ZM23.2896 4.66016L23.9382 5.42128L23.9383 5.42127L23.2896 4.66016ZM23.8663 4.1687L24.5149 4.92981L24.515 4.9298L23.8663 4.1687ZM26.7611 1.80367L26.1719 0.995655L26.1719 0.995689L26.7611 1.80367ZM29.8263 1.30885C31.2461 0.897051 32.7538 0.897051 34.1736 1.30885L34.7307 -0.611986C32.947 -1.12934 31.0529 -1.12934 29.2692 -0.611986L29.8263 1.30885ZM34.1735 1.30883C35.0523 1.56378 35.8277 2.01237 36.6497 2.61169L37.828 0.995655C36.9099 0.326276 35.9204 -0.266818 34.7308 -0.611966L34.1735 1.30883ZM36.6496 2.61166C37.4413 3.18899 38.3525 3.96469 39.4851 4.92984L40.7823 3.40756C39.6698 2.45961 38.6944 1.62746 37.828 0.995689L36.6496 2.61166ZM39.4849 4.92969L40.0614 5.42115L41.3589 3.89917L40.7825 3.40771L39.4849 4.92969ZM40.0616 5.42133C41.0337 6.24956 41.3919 6.54766 41.7756 6.7664L42.7662 5.02896C42.5859 4.92614 42.3955 4.78239 41.3587 3.89899L40.0616 5.42133ZM41.7759 6.76656C42.1391 6.97347 42.5268 7.13413 42.9302 7.24463L43.4585 5.31568C43.2167 5.24943 42.984 5.15306 42.7659 5.0288L41.7759 6.76656ZM42.9301 7.24462C43.3565 7.36143 43.8205 7.40392 45.0936 7.50549L45.2527 5.51183C43.8947 5.40349 43.6589 5.37057 43.4586 5.31569L42.9301 7.24462ZM45.0936 7.50549L45.8487 7.56576L46.0078 5.57211L45.2527 5.51183L45.0936 7.50549ZM45.8487 7.56577C47.332 7.6841 48.5249 7.77991 49.4929 7.93149L49.8023 5.95557C48.743 5.78969 47.4648 5.68833 46.0077 5.5721L45.8487 7.56577ZM49.4929 7.93149C50.4978 8.08889 51.3633 8.31995 52.165 8.76117L53.1293 7.00897C52.0438 6.41163 50.9248 6.13138 49.8024 5.95558L49.4929 7.93149ZM52.165 8.76114C53.46 9.47389 54.5262 10.5399 55.2389 11.835L56.9911 10.8707C56.0956 9.24358 54.7561 7.90436 53.1294 7.009L52.165 8.76114ZM55.2388 11.8349C55.68 12.6367 55.9112 13.5022 56.0684 14.507L58.0443 14.1978C57.8687 13.0752 57.5883 11.9562 56.9911 10.8708L55.2388 11.8349ZM56.0684 14.5071C56.22 15.4752 56.3158 16.668 56.434 18.1512L58.4277 17.9924C58.3116 16.5353 58.2102 15.2571 58.0443 14.1977L56.0684 14.5071ZM56.4341 18.1517L56.4946 18.9068L58.4882 18.7471L58.4277 17.9919L56.4341 18.1517ZM56.4945 18.9065C56.5961 20.1785 56.6383 20.6437 56.7557 21.0706L58.6841 20.5405C58.6293 20.3409 58.5966 20.1059 58.4882 18.7473L56.4945 18.9065ZM56.7554 21.0697C56.8658 21.4728 57.0262 21.8605 57.2331 22.2238L58.9711 21.2341C58.847 21.0162 58.7507 20.7835 58.6844 20.5414L56.7554 21.0697ZM57.2335 22.2245C57.4524 22.6082 57.7503 22.9663 58.5788 23.9383L60.1009 22.641C59.2176 21.6045 59.0737 21.414 58.9707 21.2334L57.2335 22.2245ZM58.5786 23.9381L59.07 24.5149L60.5924 23.2179L60.1011 22.6412L58.5786 23.9381ZM59.0702 24.5151C60.0353 25.6473 60.8109 26.5588 61.3884 27.3505L63.0043 26.172C62.3724 25.3056 61.5406 24.3302 60.5922 23.2177L59.0702 24.5151ZM61.3884 27.3506C61.9877 28.172 62.4361 28.9474 62.691 29.8264L64.6119 29.2695C64.2669 28.0794 63.6738 27.0898 63.0042 26.1719L61.3884 27.3506ZM62.691 29.8266C63.103 31.2463 63.103 32.7536 62.691 34.1733L64.6118 34.7306C65.1294 32.9469 65.1294 31.053 64.6118 29.2692L62.691 29.8266ZM62.691 34.1735C62.4361 35.0525 61.9877 35.8279 61.3883 36.6498L63.0043 37.8281C63.6738 36.91 64.2669 35.9205 64.6119 34.7304L62.691 34.1735ZM61.3884 36.6497C60.8109 37.4414 60.0354 38.3523 59.0703 39.485L60.5927 40.782C61.5405 39.6697 62.3724 38.6945 63.0043 37.8282L61.3884 36.6497ZM59.0705 39.4848L58.5788 40.0616L60.1009 41.359L60.5926 40.7822L59.0705 39.4848ZM58.5788 40.0616C57.7504 41.0335 57.4524 41.3917 57.2334 41.7756L58.9707 42.7664C59.0738 42.5858 59.2176 42.3953 60.1009 41.359L58.5788 40.0616ZM57.2331 41.7762C57.0262 42.1395 56.8658 42.5272 56.7554 42.9304L58.6844 43.4586C58.7507 43.2165 58.847 42.9838 58.9711 42.7658L57.2331 41.7762ZM56.7557 42.9293C56.6383 43.3561 56.5961 43.8215 56.4945 45.0934L58.4882 45.2525C58.5966 43.894 58.6293 43.659 58.6841 43.4597L56.7557 42.9293ZM56.4946 45.0931L56.4341 45.8482L58.4277 46.0079L58.4882 45.2528L56.4946 45.0931ZM56.434 45.8486C56.3158 47.3318 56.22 48.5247 56.0684 49.4927L58.0443 49.8022C58.2102 48.7428 58.3116 47.4646 58.4277 46.0075L56.434 45.8486ZM56.0684 49.4928C55.9112 50.4976 55.68 51.3631 55.2388 52.1649L56.9911 53.129C57.5883 52.0436 57.8687 50.9246 58.0443 49.802L56.0684 49.4928ZM55.2389 52.1649C54.5262 53.46 53.46 54.526 52.165 55.2387L53.1294 56.9909C54.7561 56.0955 56.0956 54.7564 56.9911 53.1291L55.2389 52.1649ZM52.1649 55.2388C51.3633 55.6801 50.4979 55.911 49.4927 56.0686L49.8025 58.0444C50.9246 57.8685 52.0438 57.5885 53.1295 56.9908L52.1649 55.2388ZM49.4929 56.0685C48.5249 56.2201 47.332 56.316 45.8488 56.4341L46.0077 58.4278C47.4648 58.3117 48.7429 58.2104 49.8024 58.0444L49.4929 56.0685ZM45.8488 56.4342L45.0937 56.4943L45.2526 58.488L46.0077 58.4278L45.8488 56.4342ZM45.0936 56.4943C43.8203 56.596 43.3566 56.6385 42.9303 56.7552L43.4584 58.6842C43.6589 58.6293 43.8949 58.5964 45.2527 58.488L45.0936 56.4943ZM42.9303 56.7552C42.5265 56.8658 42.1389 57.0266 41.7761 57.2332L42.7657 58.9712C42.9842 58.8468 43.2169 58.7503 43.4585 58.6842L42.9303 56.7552ZM41.7758 57.2334C41.392 57.4521 41.0334 57.7507 40.0617 58.5784L41.3586 60.1009C42.3958 59.2174 42.5858 59.0737 42.766 58.9711L41.7758 57.2334ZM40.0615 58.5786L39.4847 59.0703L40.7821 60.5924L41.3589 60.1007L40.0615 58.5786ZM39.4847 59.0702C38.3524 60.0353 37.4413 60.811 36.6498 61.388L37.8279 63.0042C38.6944 62.3726 39.6699 61.5402 40.782 60.5924L39.4847 59.0702ZM36.6496 61.3881C35.8278 61.9875 35.0522 62.4361 34.1734 62.6912L34.731 64.6119C35.9205 64.2666 36.9099 63.6736 37.828 63.0041L36.6496 61.3881ZM34.1737 62.6911C32.7539 63.1028 31.2461 63.1028 29.8263 62.6911L29.2693 64.612C31.0529 65.1292 32.947 65.1292 34.7306 64.612L34.1737 62.6911ZM29.8266 62.6912C28.9477 62.4361 28.1722 61.9875 27.3503 61.3881L26.1719 63.0041C27.09 63.6736 28.0795 64.2666 29.269 64.6119L29.8266 62.6912ZM27.3502 61.388C26.5586 60.811 25.6475 60.0353 24.515 59.0702L23.2178 60.5925C24.33 61.5402 25.3056 62.3726 26.172 63.0042L27.3502 61.388ZM24.5151 59.0703L23.9384 58.5786L22.6409 60.1007L23.2177 60.5923L24.5151 59.0703ZM23.9381 58.5785C22.9668 57.7509 22.608 57.452 22.2238 57.2332L21.2341 58.9712C21.4142 59.0738 21.604 59.2173 22.6411 60.1009L23.9381 58.5785ZM22.2238 57.2332C21.861 57.0266 21.4733 56.8658 21.0697 56.7552L20.5414 58.6842C20.783 58.7503 21.0157 58.8468 21.2341 58.9712L22.2238 57.2332ZM21.0697 56.7552C20.6435 56.6385 20.1794 56.5959 18.9065 56.4943L18.7473 58.488C20.105 58.5964 20.3411 58.6293 20.5414 58.6842L21.0697 56.7552ZM18.9064 56.4943L18.1512 56.4342L17.9924 58.4278L18.7475 58.488L18.9064 56.4943ZM18.1512 56.4341C16.668 56.316 15.4752 56.2201 14.5071 56.0685L14.1977 58.0444C15.2571 58.2104 16.5353 58.3117 17.9924 58.4278L18.1512 56.4341ZM14.5073 56.0686C13.502 55.911 12.6367 55.6801 11.8352 55.2388L10.8706 56.9908C11.9562 57.5885 13.0754 57.8685 14.1975 58.0444L14.5073 56.0686ZM11.835 55.2387C10.5399 54.526 9.47388 53.46 8.76118 52.1649L7.00895 53.1291C7.90437 54.7563 9.24365 56.0955 10.8707 56.9909L11.835 55.2387ZM8.76116 52.1648C8.31992 51.3631 8.08886 50.4976 7.93149 49.4927L5.95557 49.8022C6.13135 50.9246 6.4116 52.0436 7.00898 53.1291L8.76116 52.1648ZM7.93149 49.4927C7.77988 48.5247 7.68409 47.3321 7.56577 45.8488L5.5721 46.0079C5.68833 47.4649 5.78966 48.7428 5.95558 49.8022L7.93149 49.4927ZM7.56577 45.8488L7.50549 45.0934L5.51183 45.2525L5.5721 46.0079L7.56577 45.8488ZM7.50549 45.0934C7.40394 43.8208 7.36144 43.3563 7.24455 42.93L5.31576 43.459C5.37056 43.6588 5.40348 43.8947 5.51183 45.2525L7.50549 45.0934ZM7.24463 42.9303C7.13413 42.5269 6.97346 42.1392 6.76656 41.776L5.0288 42.7661C5.15306 42.9842 5.24943 43.2168 5.31568 43.4587L7.24463 42.9303ZM6.7666 41.7761C6.5477 41.3918 6.24945 41.0334 5.42119 40.0616L3.89907 41.359C4.7825 42.3955 4.92603 42.5856 5.02876 42.766L6.7666 41.7761ZM5.42127 40.0617L4.92978 39.4849L3.40749 40.7821L3.89898 41.3589L5.42127 40.0617ZM4.9297 39.4848C3.96465 38.3526 3.18894 37.4414 2.61167 36.6498L0.995675 37.8281C1.62744 38.6945 2.45959 39.67 3.40757 40.7822L4.9297 39.4848ZM2.61169 36.6498C2.01239 35.8279 1.5638 35.0524 1.30885 34.1734L-0.611989 34.7305C-0.266844 35.9205 0.326265 36.91 0.995656 37.8281L2.61169 36.6498ZM1.30885 34.1734C0.897051 32.7536 0.897051 31.2462 1.30885 29.8265L-0.611986 29.2693C-1.12934 31.053 -1.12934 32.9468 -0.611986 34.7305L1.30885 34.1734ZM1.30885 29.8265C1.5638 28.9474 2.01238 28.172 2.61159 27.3505L0.995759 26.1719C0.326274 27.0898 -0.266842 28.0793 -0.611989 29.2693L1.30885 29.8265ZM2.61166 27.3504C3.18899 26.5587 3.96471 25.6474 4.92977 24.515L3.40756 23.2177C2.45953 24.3302 1.62745 25.3057 0.99569 26.172L2.61166 27.3504ZM4.9298 24.515L5.42126 23.9382L3.899 22.641L3.40754 23.2178L4.9298 24.515ZM5.42123 23.9383C6.24946 22.9664 6.54765 22.6081 6.76651 22.2241L5.02886 21.2338C4.92608 21.4142 4.78249 21.6044 3.89903 22.641L5.42123 23.9383ZM6.76654 22.224C6.97347 21.8608 7.13412 21.4731 7.24461 21.0698L5.31569 20.5413C5.24943 20.7832 5.15305 21.0159 5.02882 21.2339L6.76654 22.224ZM7.24459 21.0699C7.36143 20.6435 7.40393 20.1792 7.50549 18.9065L5.51183 18.7474C5.40348 20.1052 5.37057 20.3411 5.31572 20.5412L7.24459 21.0699ZM7.50549 18.9065L7.56577 18.1511L5.5721 17.992L5.51183 18.7474L7.50549 18.9065ZM7.56577 18.1511C7.6841 16.6679 7.77988 15.4751 7.93149 14.5071L5.95558 14.1977C5.78966 15.257 5.68833 16.5352 5.5721 17.992L7.56577 18.1511ZM7.93149 14.5071C8.08886 13.5022 8.31992 12.6367 8.76115 11.835L7.00898 10.8707C6.4116 11.9561 6.13135 13.0752 5.95557 14.1977L7.93149 14.5071ZM8.76117 11.835C9.47387 10.5399 10.5399 9.47391 11.835 8.76116L10.8707 7.00898C9.24364 7.90441 7.90438 9.24362 7.00897 10.8707L8.76117 11.835ZM11.835 8.76116C12.6367 8.31995 13.5022 8.08889 14.5071 7.93149L14.1976 5.95558C13.0752 6.13138 11.9562 6.41163 10.8707 7.00897L11.835 8.76116ZM14.5071 7.93149C15.4751 7.77991 16.6679 7.68409 18.1511 7.56577L17.992 5.5721C16.5351 5.68833 15.257 5.78969 14.1977 5.95557L14.5071 7.93149ZM18.1511 7.56577L18.9065 7.50549L18.7474 5.51183L17.992 5.5721L18.1511 7.56577ZM18.9065 7.50549C20.1792 7.40393 20.6435 7.36143 21.0699 7.24459L20.5412 5.31572C20.3411 5.37057 20.1052 5.40348 18.7474 5.51183L18.9065 7.50549ZM21.0698 7.24461C21.4731 7.13412 21.8608 6.97347 22.224 6.76654L21.2339 5.02882C21.0159 5.15305 20.7832 5.24943 20.5413 5.31569L21.0698 7.24461ZM22.224 6.76655C22.6081 6.54771 22.9665 6.2494 23.9382 5.42128L22.641 3.89904C21.6043 4.78255 21.4142 4.92609 21.2339 5.02881L22.224 6.76655ZM23.9383 5.42127L24.5149 4.92981L23.2177 3.40759L22.641 3.89905L23.9383 5.42127ZM24.515 4.9298C25.6474 3.9647 26.5586 3.18898 27.3503 2.61166L26.1719 0.995689C25.3055 1.62746 24.3301 2.4596 23.2177 3.40759L24.515 4.9298ZM27.3503 2.61169C28.1722 2.01237 28.9477 1.56378 29.8264 1.30883L29.2691 -0.611966C28.0795 -0.266818 27.09 0.326276 26.1719 0.995655L27.3503 2.61169Z" fill="url(#paint1_linear_7258_14469)" mask="url(#path-1-inside-1_7258_14469)"/>
<circle cx="32" cy="31.9999" r="20" fill="white"/>
<path d="M34 40.4444C34 41.3035 33.1046 41.9999 32 41.9999C30.8954 41.9999 30 41.3035 30 40.4444V29.5555C30 28.6964 30.8954 27.9999 32 27.9999C33.1046 27.9999 34 28.6964 34 29.5555V40.4444Z" fill="url(#paint2_linear_7258_14469)"/>
<path d="M32 21.9999C33.1046 21.9999 34 22.8954 34 23.9999C34 25.1045 33.1046 25.9999 32 25.9999C30.8954 25.9999 30 25.1045 30 23.9999C30 22.8954 30.8954 21.9999 32 21.9999Z" fill="url(#paint3_linear_7258_14469)"/>
<defs>
<linearGradient id="paint0_linear_7258_14469" x1="20" y1="0" x2="20" y2="39.9999" gradientUnits="userSpaceOnUse">
<stop stop-color="#71347B"/>
<stop offset="1" stop-color="#46164D"/>
</linearGradient>
<linearGradient id="paint1_linear_7258_14469" x1="20" y1="0" x2="20" y2="39.9999" gradientUnits="userSpaceOnUse">
<stop stop-color="#A42FB8"/>
<stop offset="1" stop-color="#6B1677"/>
</linearGradient>
<linearGradient id="paint2_linear_7258_14469" x1="32" y1="41.9999" x2="32" y2="27.9999" gradientUnits="userSpaceOnUse">
<stop stop-color="#71347B"/>
<stop offset="1" stop-color="#46164D"/>
</linearGradient>
<linearGradient id="paint3_linear_7258_14469" x1="32" y1="25.9999" x2="32" y2="21.9999" gradientUnits="userSpaceOnUse">
<stop stop-color="#71347B"/>
<stop offset="1" stop-color="#46164D"/>
</linearGradient>
</defs>
</svg>
