<svg width="16" height="16" viewBox="0 0 16 16" fill="none" xmlns="http://www.w3.org/2000/svg">
<g clip-path="url(#clip0_17920_5678)">
<path d="M0 4C0 1.79086 1.79086 0 4 0H12C14.2091 0 16 1.79086 16 4V12C16 14.2091 14.2091 16 12 16H4C1.79086 16 0 14.2091 0 12V4Z" fill="#71347B"/>
<path d="M8.00002 2.66675C5.05926 2.66675 2.66669 5.05932 2.66669 8.00008C2.66669 10.9408 5.05926 13.3334 8.00002 13.3334C10.9408 13.3334 13.3334 10.9408 13.3334 8.00008C13.3334 5.05932 10.9408 2.66675 8.00002 2.66675ZM4.00001 8.00008C4.00001 7.13753 4.27719 6.34005 4.74326 5.68603L10.3141 11.2568C9.66003 11.7229 8.86255 12.0001 8 12.0001C5.7943 12.0001 4.00001 10.2058 4.00001 8.00008ZM11.2568 10.3141L5.68595 4.74333C6.33997 4.27727 7.13745 4.00007 8 4.00007C10.2057 4.00007 12 5.79434 12 8.00006C12 8.86263 11.7228 9.66011 11.2568 10.3141Z" fill="white"/>
</g>
<defs>
<clipPath id="clip0_17920_5678">
<path d="M0 4C0 1.79086 1.79086 0 4 0H12C14.2091 0 16 1.79086 16 4V12C16 14.2091 14.2091 16 12 16H4C1.79086 16 0 14.2091 0 12V4Z" fill="white"/>
</clipPath>
</defs>
</svg>
