<svg width="83" height="47" viewBox="0 0 83 47" fill="none" xmlns="http://www.w3.org/2000/svg">
<rect opacity="0.8" x="23.3989" width="12" height="4" rx="2" fill="#7232F8"/>
<rect opacity="0.8" y="15.0483" width="12" height="4" rx="2" fill="#FC0BB9"/>
<path d="M11.4667 16.9902C11.4667 17.2848 11.7054 17.5236 12 17.5236C12.2946 17.5236 12.5333 17.2848 12.5333 16.9902C12.5333 16.6957 12.2946 16.4569 12 16.4569C11.7054 16.4569 11.4667 16.6957 11.4667 16.9902ZM23.3989 2.0957L22.3989 1.51835V2.67305L23.3989 2.0957ZM12 17.0902H15.4185V16.8902H12V17.0902ZM17.5185 14.9902V4.0957H17.3185V14.9902H17.5185ZM19.4185 2.1957H22.4989V1.9957H19.4185V2.1957ZM17.5185 4.0957C17.5185 3.04636 18.3691 2.1957 19.4185 2.1957V1.9957C18.2587 1.9957 17.3185 2.9359 17.3185 4.0957H17.5185ZM15.4185 17.0902C16.5783 17.0902 17.5185 16.15 17.5185 14.9902H17.3185C17.3185 16.0396 16.4678 16.8902 15.4185 16.8902V17.0902Z" fill="white"/>
<path d="M11.4667 16.9902C11.4667 16.6957 11.7054 16.4569 12 16.4569C12.2946 16.4569 12.5333 16.6957 12.5333 16.9902C12.5333 17.2848 12.2946 17.5236 12 17.5236C11.7054 17.5236 11.4667 17.2848 11.4667 16.9902ZM23.3989 31.9902L22.3989 32.5676V31.4129L23.3989 31.9902ZM12 16.8902H15.4185V17.0902H12V16.8902ZM17.5185 18.9902V29.9902H17.3185V18.9902H17.5185ZM19.4185 31.8902H22.4989V32.0902H19.4185V31.8902ZM17.5185 29.9902C17.5185 31.0396 18.3691 31.8902 19.4185 31.8902V32.0902C18.2587 32.0902 17.3185 31.15 17.3185 29.9902H17.5185ZM15.4185 16.8902C16.5783 16.8902 17.5185 17.8304 17.5185 18.9902H17.3185C17.3185 17.9409 16.4678 17.0902 15.4185 17.0902V16.8902Z" fill="white"/>
<path d="M34.8656 2C34.8656 2.29455 35.1044 2.53333 35.3989 2.53333C35.6935 2.53333 35.9323 2.29455 35.9323 2C35.9323 1.70545 35.6935 1.46667 35.3989 1.46667C35.1044 1.46667 34.8656 1.70545 34.8656 2ZM46.8197 2L45.8197 1.42265L45.8197 2.57735L46.8197 2ZM35.3989 2.1L45.9197 2.1L45.9197 1.9L35.3989 1.9L35.3989 2.1Z" fill="white"/>
<rect opacity="0.8" x="46.8198" width="12" height="4" rx="2" fill="#F85632"/>
<rect opacity="0.8" x="70.145" width="12" height="4" rx="2" fill="#C532F8"/>
<path d="M58.2865 2C58.2865 2.29455 58.5253 2.53333 58.8198 2.53333C59.1144 2.53333 59.3532 2.29455 59.3532 2C59.3532 1.70545 59.1144 1.46667 58.8198 1.46667C58.5253 1.46667 58.2865 1.70545 58.2865 2ZM70.145 2L69.145 1.42265L69.145 2.57735L70.145 2ZM58.8198 2.1L69.245 2.1L69.245 1.9L58.8198 1.9L58.8198 2.1Z" fill="white"/>
<rect opacity="0.8" x="46.7979" y="38.0977" width="12" height="4" rx="2" fill="#CAB600"/>
<rect opacity="0.8" x="23.3989" y="30.0254" width="12" height="4" rx="2" fill="#7232F8"/>
<rect opacity="0.8" x="46.8198" y="22.0957" width="12" height="4" rx="2" fill="#F85632"/>
<rect x="70.145" y="18.0957" width="12" height="4" rx="2" fill="#C532F8"/>
<rect opacity="0.8" x="70.145" y="26.0957" width="12" height="4" rx="2" fill="#C532F8"/>
<rect opacity="0.8" x="70.145" y="34.0977" width="12" height="4" rx="2" fill="#32B1F8"/>
<rect opacity="0.8" x="70.145" y="42.0977" width="12" height="4" rx="2" fill="#32B1F8"/>
<path d="M34.8656 32.0253C34.8656 32.3199 35.1044 32.5587 35.3989 32.5587C35.6935 32.5587 35.9323 32.3199 35.9323 32.0253C35.9323 31.7308 35.6935 31.492 35.3989 31.492C35.1044 31.492 34.8656 31.7308 34.8656 32.0253ZM46.7978 24.0957L45.7978 23.5184V24.6731L46.7978 24.0957ZM35.3989 32.1253H38.8174V31.9253H35.3989V32.1253ZM40.9174 30.0253V26.0957H40.7174V30.0253H40.9174ZM42.8174 24.1957H45.8978V23.9957H42.8174V24.1957ZM40.9174 26.0957C40.9174 25.0464 41.768 24.1957 42.8174 24.1957V23.9957C41.6576 23.9957 40.7174 24.9359 40.7174 26.0957H40.9174ZM38.8174 32.1253C39.9772 32.1253 40.9174 31.1851 40.9174 30.0253H40.7174C40.7174 31.0747 39.8667 31.9253 38.8174 31.9253V32.1253Z" fill="white"/>
<path d="M58.2645 24.0957C58.2645 24.3903 58.5033 24.629 58.7979 24.629C59.0924 24.629 59.3312 24.3903 59.3312 24.0957C59.3312 23.8012 59.0924 23.5624 58.7979 23.5624C58.5033 23.5624 58.2645 23.8012 58.2645 24.0957ZM70.1967 20.0957L69.1967 19.5184V20.6731L70.1967 20.0957ZM58.7979 24.1957H62.2163V23.9957H58.7979V24.1957ZM66.2163 20.1957H69.2967V19.9957H66.2163V20.1957ZM64.3163 22.0957C64.3163 21.0464 65.167 20.1957 66.2163 20.1957V19.9957C65.0565 19.9957 64.1163 20.9359 64.1163 22.0957H64.3163ZM62.2163 24.1957C63.3761 24.1957 64.3163 23.2555 64.3163 22.0957H64.1163C64.1163 23.145 63.2656 23.9957 62.2163 23.9957V24.1957Z" fill="white"/>
<path d="M58.2645 40.0977C58.2645 40.3922 58.5033 40.631 58.7979 40.631C59.0924 40.631 59.3312 40.3922 59.3312 40.0977C59.3312 39.8031 59.0924 39.5643 58.7979 39.5643C58.5033 39.5643 58.2645 39.8031 58.2645 40.0977ZM70.1967 36.0977L69.1967 35.5203V36.675L70.1967 36.0977ZM58.7979 40.1977H62.2163V39.9977H58.7979V40.1977ZM66.2163 36.1977H69.2967V35.9977H66.2163V36.1977ZM64.3163 38.0977C64.3163 37.0483 65.167 36.1977 66.2163 36.1977V35.9977C65.0565 35.9977 64.1163 36.9379 64.1163 38.0977H64.3163ZM62.2163 40.1977C63.3761 40.1977 64.3163 39.2575 64.3163 38.0977H64.1163C64.1163 39.147 63.2656 39.9977 62.2163 39.9977V40.1977Z" fill="white"/>
<path d="M58.2645 24.0957C58.2645 23.8012 58.5033 23.5624 58.7979 23.5624C59.0924 23.5624 59.3312 23.8012 59.3312 24.0957C59.3312 24.3903 59.0924 24.629 58.7979 24.629C58.5033 24.629 58.2645 24.3903 58.2645 24.0957ZM70.1967 28.0957L69.1967 28.6731V27.5184L70.1967 28.0957ZM58.7979 23.9957H62.2163V24.1957H58.7979V23.9957ZM66.2163 27.9957H69.2967V28.1957H66.2163V27.9957ZM64.3163 26.0957C64.3163 27.145 65.167 27.9957 66.2163 27.9957V28.1957C65.0565 28.1957 64.1163 27.2555 64.1163 26.0957H64.3163ZM62.2163 23.9957C63.3761 23.9957 64.3163 24.9359 64.3163 26.0957H64.1163C64.1163 25.0464 63.2656 24.1957 62.2163 24.1957V23.9957Z" fill="white"/>
<path d="M34.8656 32.0254C34.8656 31.7308 35.1044 31.4921 35.3989 31.4921C35.6935 31.4921 35.9323 31.7308 35.9323 32.0254C35.9323 32.3199 35.6935 32.5587 35.3989 32.5587C35.1044 32.5587 34.8656 32.3199 34.8656 32.0254ZM46.7978 40.0977L45.7978 40.675V39.5203L46.7978 40.0977ZM35.3989 31.9254H38.8174V32.1254H35.3989V31.9254ZM40.9174 34.0254V38.0977H40.7174V34.0254H40.9174ZM42.8174 39.9977H45.8978V40.1977H42.8174V39.9977ZM40.9174 38.0977C40.9174 39.147 41.768 39.9977 42.8174 39.9977V40.1977C41.6576 40.1977 40.7174 39.2575 40.7174 38.0977H40.9174ZM38.8174 31.9254C39.9772 31.9254 40.9174 32.8656 40.9174 34.0254H40.7174C40.7174 32.976 39.8667 32.1254 38.8174 32.1254V31.9254Z" fill="white"/>
<path d="M58.2645 40.0977C58.2645 39.8031 58.5033 39.5643 58.7979 39.5643C59.0924 39.5643 59.3312 39.8031 59.3312 40.0977C59.3312 40.3922 59.0924 40.631 58.7979 40.631C58.5033 40.631 58.2645 40.3922 58.2645 40.0977ZM70.1967 44.0977L69.1967 44.675V43.5203L70.1967 44.0977ZM58.7979 39.9977H62.2163V40.1977H58.7979V39.9977ZM66.2163 43.9977H69.2967V44.1977H66.2163V43.9977ZM64.3163 42.0977C64.3163 43.147 65.167 43.9977 66.2163 43.9977V44.1977C65.0565 44.1977 64.1163 43.2575 64.1163 42.0977H64.3163ZM62.2163 39.9977C63.3761 39.9977 64.3163 40.9379 64.3163 42.0977H64.1163C64.1163 41.0483 63.2656 40.1977 62.2163 40.1977V39.9977Z" fill="currentColor"/>
</svg>
