<svg width="16" height="16" viewBox="0 0 16 16" fill="none" xmlns="http://www.w3.org/2000/svg">
<path d="M15.4137 4.70781L10.7799 0.0734375C10.733 0.0265625 10.6696 0 10.6034 0H5.35461C4.13305 0 3.1393 0.994063 3.1393 2.21563V6.60031H1.19492C0.819297 6.60031 0.513672 6.90594 0.513672 7.28156V11.1978C0.513672 11.5734 0.819297 11.8791 1.19492 11.8791H3.1393V13.7844C3.1393 15.0059 4.13305 16 5.35461 16H13.2715C14.493 16 15.4868 15.0059 15.4868 13.7844V4.88469C15.4868 4.81844 15.4605 4.75469 15.4137 4.70781ZM14.9871 13.7844C14.9871 14.7306 14.2174 15.5003 13.2715 15.5003H5.35461C4.40867 15.5003 3.63898 14.7306 3.63898 13.7844V11.8791H11.8699C12.2455 11.8791 12.5512 11.5734 12.5512 11.1978V7.28156C12.5512 6.90594 12.2455 6.60031 11.8699 6.60031H3.63898V2.21563C3.63898 1.26938 4.40867 0.499687 5.35461 0.499687H10.3534V4.38406C10.3534 4.79781 10.6896 5.13438 11.1027 5.13438H14.9871V13.7844Z" fill="currentColor"/>
<path fill-rule="evenodd" clip-rule="evenodd" d="M3.37006 7.73625C3.09339 7.59292 2.77173 7.52125 2.40506 7.52125H1.18506V11.0113H2.40506C2.77173 11.0113 3.09339 10.9396 3.37006 10.7963C3.65006 10.6529 3.86506 10.4513 4.01506 10.1913C4.16839 9.92792 4.24506 9.62125 4.24506 9.27125C4.24506 8.92125 4.16839 8.61459 4.01506 8.35125C3.86506 8.08459 3.65006 7.87959 3.37006 7.73625ZM3.23006 10.1163C3.03006 10.3163 2.74673 10.4163 2.38006 10.4163H1.88506V8.11125H2.38006C2.74673 8.11125 3.03006 8.21459 3.23006 8.42125C3.43006 8.62459 3.53006 8.90792 3.53006 9.27125C3.53006 9.63459 3.43006 9.91625 3.23006 10.1163ZM5.48904 10.8163C5.76238 10.9696 6.06238 11.0463 6.38904 11.0463C6.71571 11.0463 7.01571 10.9696 7.28904 10.8163C7.56238 10.6629 7.77738 10.4513 7.93404 10.1813C8.09404 9.90792 8.17404 9.59959 8.17404 9.25625C8.17404 8.91625 8.09404 8.61125 7.93404 8.34125C7.77738 8.06792 7.56238 7.85459 7.28904 7.70125C7.01904 7.54792 6.71904 7.47125 6.38904 7.47125C6.06238 7.47125 5.76238 7.54792 5.48904 7.70125C5.21571 7.85459 4.99904 8.06792 4.83904 8.34125C4.67904 8.61125 4.59904 8.91625 4.59904 9.25625C4.59904 9.59959 4.67904 9.90792 4.83904 10.1813C4.99904 10.4513 5.21571 10.6629 5.48904 10.8163ZM6.94404 10.2813C6.78404 10.3746 6.59904 10.4213 6.38904 10.4213C6.17904 10.4213 5.99238 10.3746 5.82904 10.2813C5.66904 10.1846 5.54404 10.0479 5.45404 9.87125C5.36404 9.69459 5.31904 9.48959 5.31904 9.25625C5.31904 9.02292 5.36404 8.81959 5.45404 8.64625C5.54404 8.46959 5.66904 8.33459 5.82904 8.24125C5.99238 8.14792 6.17904 8.10125 6.38904 8.10125C6.59904 8.10125 6.78404 8.14792 6.94404 8.24125C7.10404 8.33459 7.22904 8.46959 7.31904 8.64625C7.40904 8.81959 7.45404 9.02292 7.45404 9.25625C7.45404 9.48959 7.40904 9.69459 7.31904 9.87125C7.22904 10.0479 7.10404 10.1846 6.94404 10.2813ZM8.75482 8.34125C8.60149 8.61125 8.52482 8.91792 8.52482 9.26125C8.52482 9.60459 8.60149 9.91125 8.75482 10.1813C8.91149 10.4513 9.12316 10.6629 9.38982 10.8163C9.65982 10.9663 9.96149 11.0413 10.2948 11.0413C10.6882 11.0413 11.0298 10.9429 11.3198 10.7463C11.6132 10.5463 11.8182 10.2679 11.9348 9.91125H11.1298C11.0498 10.0779 10.9365 10.2046 10.7898 10.2913C10.6465 10.3746 10.4798 10.4163 10.2898 10.4163C10.0865 10.4163 9.90482 10.3696 9.74482 10.2763C9.58816 10.1796 9.46482 10.0446 9.37482 9.87125C9.28816 9.69459 9.24482 9.49125 9.24482 9.26125C9.24482 9.02792 9.28816 8.82459 9.37482 8.65125C9.46482 8.47792 9.58816 8.34459 9.74482 8.25125C9.90482 8.15459 10.0865 8.10625 10.2898 8.10625C10.4798 8.10625 10.6465 8.14792 10.7898 8.23125C10.9365 8.31459 11.0498 8.43959 11.1298 8.60625H11.9348C11.8182 8.25292 11.6132 7.97625 11.3198 7.77625C11.0265 7.57625 10.6848 7.47625 10.2948 7.47625C9.96149 7.47625 9.65982 7.55292 9.38982 7.70625C9.12316 7.85625 8.91149 8.06792 8.75482 8.34125Z" fill="white"/>
</svg>
