<svg width="16" height="17" viewBox="0 0 16 17" fill="none" xmlns="http://www.w3.org/2000/svg">
<path d="M15.4269 4.752L10.7931 0.117627C10.7462 0.070752 10.6828 0.0441895 10.6165 0.0441895H5.36779C4.14623 0.0441895 3.15248 1.03825 3.15248 2.25981V6.6445H1.20811C0.83248 6.6445 0.526855 6.95013 0.526855 7.32575V11.242C0.526855 11.6176 0.83248 11.9233 1.20811 11.9233H3.15248V13.8286C3.15248 15.0501 4.14623 16.0442 5.36779 16.0442H13.2847C14.5062 16.0442 15.5 15.0501 15.5 13.8286V4.92888C15.5 4.86263 15.4737 4.79888 15.4269 4.752ZM15.0003 13.8286C15.0003 14.7748 14.2306 15.5445 13.2847 15.5445H5.36779C4.42186 15.5445 3.65217 14.7748 3.65217 13.8286V11.9233H11.8831C12.2587 11.9233 12.5644 11.6176 12.5644 11.242V7.32575C12.5644 6.95013 12.2587 6.6445 11.8831 6.6445H3.65217V2.25981C3.65217 1.31356 4.42186 0.543877 5.36779 0.543877H10.3665V4.42825C10.3665 4.842 10.7028 5.17856 11.1159 5.17856H15.0003V13.8286Z" fill="currentColor"/>
<path fill-rule="evenodd" clip-rule="evenodd" d="M2.8774 8.19762C2.66713 8.08868 2.42266 8.03422 2.144 8.03422H1.2168V10.6866H2.144C2.42266 10.6866 2.66713 10.6321 2.8774 10.5232C3.0902 10.4143 3.2536 10.261 3.3676 10.0634C3.48413 9.86328 3.5424 9.63022 3.5424 9.36422C3.5424 9.09822 3.48413 8.86515 3.3676 8.66502C3.2536 8.46235 3.0902 8.30655 2.8774 8.19762ZM2.771 10.0064C2.619 10.1584 2.40366 10.2344 2.125 10.2344H1.7488V8.48262H2.125C2.40366 8.48262 2.619 8.56115 2.771 8.71822C2.923 8.87275 2.999 9.08808 2.999 9.36422C2.999 9.64035 2.923 9.85442 2.771 10.0064ZM4.48782 10.5384C4.69556 10.6549 4.92356 10.7132 5.17182 10.7132C5.42009 10.7132 5.64809 10.6549 5.85582 10.5384C6.06356 10.4219 6.22696 10.261 6.34602 10.0558C6.46763 9.84808 6.52843 9.61375 6.52843 9.35282C6.52843 9.09442 6.46763 8.86262 6.34602 8.65742C6.22696 8.44968 6.06356 8.28755 5.85582 8.17102C5.65062 8.05448 5.42263 7.99622 5.17182 7.99622C4.92356 7.99622 4.69556 8.05448 4.48782 8.17102C4.28009 8.28755 4.11542 8.44968 3.99382 8.65742C3.87223 8.86262 3.81142 9.09442 3.81142 9.35282C3.81142 9.61375 3.87223 9.84808 3.99382 10.0558C4.11542 10.261 4.28009 10.4219 4.48782 10.5384ZM5.59363 10.1318C5.47202 10.2027 5.33143 10.2382 5.17182 10.2382C5.01222 10.2382 4.87036 10.2027 4.74623 10.1318C4.62462 10.0583 4.52962 9.95448 4.46123 9.82022C4.39282 9.68595 4.35862 9.53015 4.35862 9.35282C4.35862 9.17548 4.39282 9.02095 4.46123 8.88922C4.52962 8.75495 4.62462 8.65235 4.74623 8.58142C4.87036 8.51048 5.01222 8.47502 5.17182 8.47502C5.33143 8.47502 5.47202 8.51048 5.59363 8.58142C5.71523 8.65235 5.81023 8.75495 5.87862 8.88922C5.94702 9.02095 5.98123 9.17548 5.98123 9.35282C5.98123 9.53015 5.94702 9.68595 5.87862 9.82022C5.81023 9.95448 5.71523 10.0583 5.59363 10.1318ZM6.96982 8.65742C6.85329 8.86262 6.79502 9.09568 6.79502 9.35662C6.79502 9.61755 6.85329 9.85062 6.96982 10.0558C7.08889 10.261 7.24975 10.4219 7.45242 10.5384C7.65762 10.6524 7.88689 10.7094 8.14022 10.7094C8.43915 10.7094 8.69882 10.6347 8.91922 10.4852C9.14215 10.3332 9.29795 10.1217 9.38662 9.85062H8.77482C8.71402 9.97728 8.62789 10.0735 8.51642 10.1394C8.40749 10.2027 8.28082 10.2344 8.13642 10.2344C7.98189 10.2344 7.84382 10.1989 7.72222 10.128C7.60315 10.0545 7.50942 9.95195 7.44102 9.82022C7.37515 9.68595 7.34222 9.53142 7.34222 9.35662C7.34222 9.17928 7.37515 9.02475 7.44102 8.89302C7.50942 8.76128 7.60315 8.65995 7.72222 8.58902C7.84382 8.51555 7.98189 8.47882 8.13642 8.47882C8.28082 8.47882 8.40749 8.51048 8.51642 8.57382C8.62789 8.63715 8.71402 8.73215 8.77482 8.85882H9.38662C9.29795 8.59028 9.14215 8.38002 8.91922 8.22802C8.69629 8.07602 8.43662 8.00002 8.14022 8.00002C7.88689 8.00002 7.65762 8.05828 7.45242 8.17482C7.24975 8.28882 7.08889 8.44968 6.96982 8.65742ZM10.8556 9.79362L11.4294 10.6866H12.0412L11.1938 9.36802L12.026 8.03422H11.4256L10.9088 8.92342L10.335 8.03422H9.72322L10.5706 9.34902L9.73462 10.6866H10.335L10.8556 9.79362Z" fill="white"/>
</svg>
