<svg width="14" height="16" viewBox="0 0 14 16" fill="none" xmlns="http://www.w3.org/2000/svg">
<path d="M12.0873 3.69067L9.85758 1.36667C9.01086 0.485333 7.88574 0 6.68958 0H3.79998C2.0355 0 0.599976 1.49533 0.599976 3.33333V12.6667C0.599976 14.5047 2.0355 16 3.79998 16H10.2C11.9645 16 13.4 14.5047 13.4 12.6667V6.99C13.4 5.74267 12.9334 4.572 12.0873 3.69067ZM11.1824 4.634C11.3859 4.84533 11.5581 5.08067 11.6976 5.334H8.91934C8.56606 5.334 8.27934 5.03467 8.27934 4.66733V1.77267C8.52254 1.918 8.74846 2.09733 8.95198 2.30933L11.1817 4.63333L11.1824 4.634ZM12.12 12.6673C12.12 13.77 11.2585 14.6673 10.2 14.6673H3.79998C2.74142 14.6673 1.87998 13.77 1.87998 12.6673V3.33333C1.87998 2.23067 2.74142 1.33333 3.79998 1.33333H6.68958C6.7939 1.33333 6.89758 1.33867 6.99998 1.34867V4.66667C6.99998 5.76933 7.86142 6.66667 8.91998 6.66667H12.1053C12.1149 6.77333 12.12 6.88133 12.12 6.99V12.6673ZM9.37246 10.7373C9.62269 10.9973 9.62269 11.4193 9.37246 11.68L8.34014 12.756C7.97086 13.1407 7.4851 13.3333 6.99998 13.3333C6.51486 13.3333 6.0291 13.1407 5.65982 12.756L4.6275 11.68C4.37726 11.4193 4.37726 10.9973 4.6275 10.7373C4.87774 10.4767 5.28222 10.4767 5.53246 10.7373L6.35998 11.5993V8.66733C6.35998 8.29933 6.64606 8.00067 6.99998 8.00067C7.3539 8.00067 7.63998 8.29933 7.63998 8.66733V11.5993L8.4675 10.7373C8.71774 10.4767 9.12222 10.4767 9.37246 10.7373Z" fill="#71347B"/>
</svg>
