<svg width="16" height="16" viewBox="0 0 16 16" fill="none" xmlns="http://www.w3.org/2000/svg">
<path d="M12.4444 16H3.55555C2.60588 16 1.71302 15.6302 1.04142 14.9586C0.369847 14.287 0 13.3941 0 12.4444V11.5555C0 11.0646 0.397948 10.6666 0.888894 10.6666C1.37984 10.6666 1.77779 11.0646 1.77779 11.5555V12.4444C1.77779 12.9193 1.96273 13.3657 2.29845 13.7015C2.63426 14.0372 3.08068 14.2222 3.55555 14.2222H12.4444C12.9193 14.2222 13.3657 14.0372 13.7015 13.7015C14.0372 13.3656 14.2222 12.9192 14.2222 12.4444V11.5555C14.2222 11.0646 14.6202 10.6666 15.1111 10.6666C15.602 10.6666 16 11.0646 16 11.5555V12.4444C16 13.3941 15.6302 14.2869 14.9586 14.9586C14.287 15.6302 13.3941 16 12.4444 16ZM7.99998 12.4444C7.87702 12.4444 7.75996 12.4194 7.65346 12.3743C7.55409 12.3323 7.46072 12.2713 7.37903 12.1916C7.379 12.1915 7.379 12.1915 7.37897 12.1915C7.37838 12.191 7.37779 12.1904 7.3772 12.1898C7.37704 12.1897 7.37685 12.1894 7.3767 12.1893C7.3762 12.1888 7.37577 12.1884 7.3753 12.1879C7.37499 12.1876 7.37471 12.1874 7.3744 12.187C7.37409 12.1867 7.37369 12.1863 7.37341 12.186C7.37279 12.1854 7.3721 12.1847 7.37148 12.1841L3.81591 8.62852C3.46879 8.2814 3.46879 7.71857 3.81591 7.37142C4.16302 7.0243 4.72588 7.02427 5.073 7.37142L7.11112 9.40954V0.888894C7.11109 0.397948 7.50904 0 7.99998 0C8.49093 0 8.88891 0.397948 8.88891 0.888894V9.40951L10.927 7.37142C11.2741 7.0243 11.837 7.0243 12.1841 7.37142C12.5312 7.71854 12.5312 8.2814 12.1841 8.62852L8.62852 12.1841C8.6279 12.1847 8.62721 12.1854 8.62659 12.186C8.62625 12.1863 8.62588 12.1867 8.6256 12.1869C8.62529 12.1873 8.62501 12.1875 8.6247 12.1878C8.62426 12.1883 8.62377 12.1888 8.62333 12.1892C8.62318 12.1894 8.62296 12.1896 8.6228 12.1897C8.62224 12.1903 8.62165 12.1909 8.62106 12.1915C8.62103 12.1915 8.62103 12.1915 8.621 12.1915C8.61122 12.201 8.60132 12.2103 8.59119 12.2193C8.51676 12.2857 8.43386 12.3375 8.3462 12.3744C8.34589 12.3745 8.34564 12.3747 8.34533 12.3748C8.34499 12.3749 8.34471 12.3751 8.34437 12.3752C8.23842 12.4198 8.12211 12.4444 7.99998 12.4444Z" fill="currentColor"/>
<path fill-rule="evenodd" clip-rule="evenodd" d="M12.6538 0.680511C12.7083 0.652702 12.7638 0.62438 12.8319 0.583147L12.7921 0.562091C12.6938 0.502444 12.5874 0.445891 12.4791 0.388243C12.4274 0.360745 12.3752 0.332996 12.3232 0.304544C12.145 0.18273 11.9496 0.0888035 11.7437 0.0259412C11.5949 -0.0175826 11.4357 -0.00606335 11.2946 0.0584227C11.1536 0.122909 11.0399 0.236125 10.9742 0.377692C10.896 0.547176 10.8611 0.733682 10.8725 0.920274C10.8725 2.09321 10.8869 3.28044 10.9014 4.45338C10.8942 4.6937 10.9087 4.93419 10.9449 5.17184C10.96 5.25988 10.9921 5.34404 11.0395 5.41952C11.0868 5.495 11.1484 5.5603 11.2208 5.61169C11.3193 5.6748 11.4314 5.71306 11.5476 5.72324C11.6638 5.73343 11.7808 5.71524 11.8886 5.6702C11.9465 5.65557 11.961 5.61136 11.961 5.55285V1.1111C11.9588 1.09371 11.9617 1.07607 11.9695 1.06038C11.9772 1.04469 11.9894 1.03168 12.0045 1.023C12.1133 0.964318 12.2186 0.909378 12.3239 0.854439C12.4291 0.799499 12.5344 0.744559 12.6432 0.685879C12.6468 0.68409 12.6503 0.682301 12.6538 0.680511ZM12.8319 3.82234V5.09801C12.9481 5.02519 13.064 4.95139 13.1947 4.86069C13.4053 4.73602 13.6121 4.61509 13.819 4.49415C14.0258 4.37322 14.2327 4.25229 14.4433 4.12761C14.6147 4.03049 14.7822 3.92908 14.9499 3.82761C15.1088 3.73141 15.2679 3.63516 15.4304 3.54244C15.5844 3.46114 15.7223 3.35181 15.837 3.21995C15.9243 3.12454 15.9797 3.00385 15.9954 2.87492C16.011 2.746 15.9862 2.61537 15.9243 2.5015C15.8262 2.3264 15.6799 2.18377 15.5032 2.0909C15.2566 1.95924 15.0241 1.82725 14.792 1.69526C14.6096 1.5919 14.4228 1.4837 14.2364 1.37572C14.0816 1.28605 13.927 1.19653 13.7755 1.1101C13.7621 1.10284 13.7471 1.09905 13.7319 1.09905C13.7167 1.09905 13.7017 1.10284 13.6883 1.1101C13.5421 1.2207 13.3903 1.32552 13.2364 1.43183C13.1455 1.49457 13.0539 1.55782 12.9623 1.6231C12.9481 1.63602 12.9368 1.6519 12.9293 1.66964C12.9218 1.68737 12.9182 1.70655 12.9188 1.72583V2.66404C12.926 2.66404 12.9297 2.66038 12.9333 2.65673C12.9369 2.65307 12.9405 2.64941 12.9478 2.64941C13.0857 2.56147 13.22 2.4772 13.3542 2.39292C13.4885 2.30864 13.6228 2.22436 13.7607 2.13642C13.7714 2.12901 13.7841 2.12504 13.7971 2.12504C13.8101 2.12504 13.8228 2.12901 13.8335 2.13642C13.9411 2.20152 14.0488 2.26313 14.1565 2.32473C14.2666 2.38772 14.3767 2.4507 14.4867 2.51743C14.5769 2.56064 14.6642 2.60961 14.7482 2.66404C14.6033 2.75214 14.4726 2.82562 14.3418 2.89876C13.8624 3.17704 13.3689 3.45564 12.8753 3.73425C12.8615 3.74419 12.8502 3.75743 12.8427 3.7728C12.8351 3.78817 12.8314 3.80518 12.8319 3.82234Z" fill="currentColor"/>
</svg>
