<svg width="8" height="12" viewBox="0 0 8 12" fill="none" xmlns="http://www.w3.org/2000/svg">
    <path fill-rule="evenodd" clip-rule="evenodd"
        d="M1.86699 2.93345C2.52973 2.93345 3.06699 2.39619 3.06699 1.73345C3.06699 1.07071 2.52973 0.533447 1.86699 0.533447C1.20425 0.533447 0.666992 1.07071 0.666992 1.73345C0.666992 2.39619 1.20425 2.93345 1.86699 2.93345ZM6.13366 2.93345C6.7964 2.93345 7.33366 2.39619 7.33366 1.73345C7.33366 1.07071 6.7964 0.533447 6.13366 0.533447C5.47092 0.533447 4.93366 1.07071 4.93366 1.73345C4.93366 2.39619 5.47092 2.93345 6.13366 2.93345ZM7.33366 6.00011C7.33366 6.66286 6.7964 7.20011 6.13366 7.20011C5.47092 7.20011 4.93366 6.66286 4.93366 6.00011C4.93366 5.33737 5.47092 4.80011 6.13366 4.80011C6.7964 4.80011 7.33366 5.33737 7.33366 6.00011ZM1.86699 7.20011C2.52973 7.20011 3.06699 6.66286 3.06699 6.00011C3.06699 5.33737 2.52973 4.80011 1.86699 4.80011C1.20425 4.80011 0.666992 5.33737 0.666992 6.00011C0.666992 6.66286 1.20425 7.20011 1.86699 7.20011ZM7.33366 10.2668C7.33366 10.9295 6.7964 11.4668 6.13366 11.4668C5.47092 11.4668 4.93366 10.9295 4.93366 10.2668C4.93366 9.60404 5.47092 9.06678 6.13366 9.06678C6.7964 9.06678 7.33366 9.60404 7.33366 10.2668ZM1.86699 11.4668C2.52973 11.4668 3.06699 10.9295 3.06699 10.2668C3.06699 9.60404 2.52973 9.06678 1.86699 9.06678C1.20425 9.06678 0.666992 9.60404 0.666992 10.2668C0.666992 10.9295 1.20425 11.4668 1.86699 11.4668Z"
        fill="currentColor" />
</svg>