<svg width="12" height="11" viewBox="0 0 12 11" fill="none" xmlns="http://www.w3.org/2000/svg">
<path d="M4.58435 10.8705H5.08047C5.28388 10.8705 5.45256 10.7018 5.45256 10.4984C5.45256 10.295 5.28388 10.1263 5.08047 10.1263H4.58435C2.29721 10.1263 1.48357 9.31263 1.48357 7.0255V4.04876C1.48357 1.76163 2.29721 0.947982 4.58435 0.947982H7.56109C9.84822 0.947982 10.6619 1.76163 10.6619 4.04876V4.53496C10.6619 4.73837 10.8305 4.90705 11.034 4.90705C11.2374 4.90705 11.4061 4.73837 11.4061 4.53496V4.04876C11.4061 1.3548 10.255 0.203796 7.56109 0.203796H4.58435C1.89039 0.203796 0.739385 1.3548 0.739385 4.04876V7.0255C0.739385 9.71946 1.89039 10.8705 4.58435 10.8705Z" fill="currentColor"/>
<path d="M5.57663 5.41297C5.67089 5.41297 5.76515 5.37824 5.83957 5.30382C5.98345 5.15995 5.98345 4.92181 5.83957 4.77793L3.98407 2.91746H5.0805C5.28391 2.91746 5.4526 2.74878 5.4526 2.54537C5.4526 2.34196 5.28887 2.17328 5.0805 2.17328H3.09105C2.94221 2.17328 2.80329 2.26258 2.74872 2.4015C2.68918 2.54041 2.72391 2.69917 2.8281 2.80832L5.31368 5.30382C5.3881 5.37824 5.48236 5.41297 5.57663 5.41297Z" fill="currentColor"/>
<path d="M3.09113 4.91188C3.29454 4.91188 3.46323 4.7432 3.46323 4.53979V2.54537C3.46323 2.34196 3.29454 2.17328 3.09113 2.17328C2.88772 2.17328 2.71904 2.34196 2.71904 2.54537V4.53483C2.71904 4.7432 2.88772 4.91188 3.09113 4.91188Z" fill="currentColor"/>
<path d="M8.13163 10.8704H9.47117C10.7909 10.8704 11.4061 10.2552 11.4061 8.93555V7.59602C11.4061 6.27633 10.7909 5.66113 9.47117 5.66113H8.13163C6.81194 5.66113 6.19675 6.27633 6.19675 7.59602V8.93555C6.19675 10.2552 6.81194 10.8704 8.13163 10.8704Z" fill="currentColor"/>
</svg>
