<svg width="80" height="80" viewBox="0 0 80 80" fill="none" xmlns="http://www.w3.org/2000/svg">
    <path
        d="M17.4158 12.1524C15.8645 12.1395 14.6332 13.5171 14.6332 15.0915V54.4384C14.6332 56.0637 15.9452 57.479 17.5669 57.3718C20.0348 57.2086 24.9708 56.8823 24.9708 56.8823L25.1038 56.7117V25.5621C25.1038 23.9368 26.4157 22.5212 28.0375 22.6284C35.5377 23.1244 43.0379 23.6205 50.5381 24.1165L50.5384 24.1162V17.0779C50.5384 15.4526 49.2267 14.2514 47.605 14.1442C37.5924 13.4821 27.5795 12.82 17.5669 12.1578C17.5162 12.1545 17.4659 12.1528 17.4158 12.1524Z"
        fill="#D8C6DB" />
    <path
        d="M28.1493 20.9452C25.4926 20.7696 23.4183 23.029 23.4183 25.562V64.9087C23.4183 67.4417 25.4926 69.7011 28.1493 69.5254C38.1619 68.8633 48.1752 68.202 58.1879 67.5399C60.5774 67.3819 62.6963 65.4561 62.6963 62.9232V57.4368C62.6994 57.2132 62.6581 56.9913 62.5748 56.7839C62.4914 56.5765 62.3677 56.3877 62.2107 56.2285C62.0538 56.0693 61.8668 55.9429 61.6605 55.8566C61.4543 55.7704 61.233 55.7259 61.0095 55.7259C60.7859 55.7259 60.5646 55.7704 60.3584 55.8566C60.1522 55.9429 59.9652 56.0693 59.8082 56.2285C59.6513 56.3877 59.5275 56.5765 59.4442 56.7839C59.3608 56.9913 59.3195 57.2132 59.3227 57.4368V62.9232C59.3227 63.6405 58.8193 64.1172 57.9654 64.1736C47.9527 64.8358 37.9393 65.497 27.9267 66.1591C27.3401 66.1981 26.7919 65.6262 26.7919 64.9087V25.562C26.7919 24.8444 27.3399 24.2727 27.9267 24.3115C37.9393 24.9735 57.9654 26.2984 57.9654 26.2984C58.8194 26.3547 59.3227 26.8314 59.3227 27.5489V33.0413C59.3195 33.2648 59.3608 33.4867 59.4442 33.6941C59.5275 33.9015 59.6513 34.0903 59.8082 34.2495C59.9652 34.4087 60.1522 34.5351 60.3584 34.6214C60.5646 34.7076 60.7859 34.7521 61.0095 34.7521C61.233 34.7521 61.4543 34.7076 61.6605 34.6214C61.8668 34.5351 62.0538 34.4087 62.2107 34.2495C62.3677 34.0903 62.4914 33.9015 62.5748 33.6941C62.6581 33.4867 62.6994 33.2648 62.6963 33.0413V27.5489C62.6963 25.0159 60.5773 23.0902 58.1879 22.9322C58.1879 22.9322 38.1619 21.6073 28.1493 20.9452Z"
        fill="#71347B" />
    <path
        d="M17.6786 10.4745C15.0219 10.2989 12.9476 12.5583 12.9476 15.0913V54.438C12.9476 56.971 15.0219 59.2303 17.6786 59.0547C20.1465 58.8915 25.0832 58.5656 25.0832 58.5656L24.8606 55.1994C24.8606 55.1994 19.924 55.5252 17.456 55.6884C16.8692 55.7274 16.3212 55.1555 16.3212 54.438V15.0913C16.3212 14.3739 16.8692 13.802 17.456 13.8408C27.4686 14.5029 37.482 15.1656 47.4947 15.8278C48.3486 15.884 48.852 16.3607 48.852 17.0782V22.5706H52.2256V17.0782C52.2256 14.5452 50.1066 12.6195 47.7172 12.4615C37.7045 11.7994 27.6912 11.1367 17.6786 10.4745Z"
        fill="#71347B" />
    <path
        d="M60.9846 38.5965C60.5463 38.6031 60.1277 38.7801 59.8176 39.0899L55.485 43.4226C55.3231 43.578 55.1939 43.7642 55.1049 43.9702C55.0159 44.1762 54.9689 44.3979 54.9666 44.6223C54.9643 44.8467 55.0069 45.0692 55.0917 45.277C55.1765 45.4847 55.3019 45.6735 55.4606 45.8322C55.6193 45.9908 55.808 46.1163 56.0158 46.2011C56.2235 46.2859 56.4461 46.3285 56.6705 46.3262C56.8949 46.3239 57.1166 46.2769 57.3226 46.1879C57.5286 46.0989 57.7147 45.9697 57.8702 45.8079L61.0095 42.6686L64.1488 45.8079C64.3042 45.9697 64.4904 46.0989 64.6964 46.1879C64.9024 46.2769 65.1241 46.3239 65.3485 46.3262C65.5728 46.3285 65.7954 46.2859 66.0032 46.2011C66.2109 46.1163 66.3997 45.9908 66.5583 45.8322C66.717 45.6735 66.8424 45.4847 66.9273 45.277C67.0121 45.0692 67.0546 44.8467 67.0523 44.6223C67.0501 44.3979 67.0031 44.1762 66.914 43.9702C66.825 43.7642 66.6958 43.578 66.534 43.4226L62.2028 39.0899C62.0431 38.9304 61.853 38.8045 61.6437 38.7197C61.4345 38.6349 61.2103 38.593 60.9846 38.5965Z"
        fill="#71347B" />
    <path
        d="M60.9846 40.0066C60.5375 40.0132 60.1113 40.197 59.7997 40.5177C59.488 40.8384 59.3165 41.2697 59.3227 41.7168V50.1946C59.3195 50.4182 59.3608 50.6401 59.4442 50.8475C59.5275 51.0549 59.6513 51.2437 59.8082 51.4029C59.9652 51.5621 60.1522 51.6885 60.3584 51.7748C60.5646 51.861 60.7859 51.9055 61.0095 51.9055C61.233 51.9055 61.4543 51.861 61.6606 51.7748C61.8668 51.6885 62.0538 51.5621 62.2107 51.4029C62.3677 51.2437 62.4914 51.0549 62.5748 50.8475C62.6581 50.6401 62.6994 50.4182 62.6963 50.1946V41.7168C62.6994 41.4912 62.6572 41.2673 62.5723 41.0583C62.4874 40.8493 62.3614 40.6594 62.2018 40.5C62.0422 40.3405 61.8523 40.2147 61.6432 40.13C61.4341 40.0452 61.2102 40.0033 60.9846 40.0066Z"
        fill="#71347B" />
    <path d="M40.1047 22.3128L23.9118 38.5057L26.297 40.891L42.4899 24.6981L40.1047 22.3128Z" fill="#71347B" />
</svg>
