<svg width="16" height="16" viewBox="0 0 16 16" fill="none" xmlns="http://www.w3.org/2000/svg">
<path d="M7.53125 0C7.74128 0 7.94959 0.0105701 8.15527 0.0273438C4.28821 0.343551 1.24902 3.56456 1.24902 7.49316C1.24927 11.4215 4.2884 14.6408 8.15527 14.957C7.94957 14.9738 7.74131 14.9854 7.53125 14.9854C3.37197 14.9851 0.000260839 11.6309 0 7.49316C0 3.35522 3.37181 0.000246361 7.53125 0Z" fill="currentColor"/>
<mask id="mask0_18014_12102" style="mask-type:alpha" maskUnits="userSpaceOnUse" x="1" y="0" width="15" height="15">
<ellipse cx="8.85851" cy="7.4927" rx="7.14146" ry="7.10244" fill="currentColor"/>
</mask>
<g mask="url(#mask0_18014_12102)">
<path d="M15.7026 9.52209C14.8245 12.4555 12.0936 14.5952 8.85889 14.5953C5.62407 14.5953 2.89333 12.4555 2.01514 9.52209H15.7026ZM1.82959 8.74182C1.87698 9.00738 1.93895 9.26762 2.01514 9.52209H1.48291V8.74182H1.82959ZM16.312 9.52209H15.7026C15.7788 9.2677 15.8398 9.00729 15.8872 8.74182H16.312V9.52209ZM15.9888 7.88342C15.9729 8.17471 15.9373 8.46091 15.8872 8.74182H1.82959C1.77946 8.46091 1.74391 8.17471 1.72803 7.88342H15.9888ZM1.72803 7.10217C1.72098 7.23146 1.71729 7.36176 1.71729 7.4928C1.71729 7.62387 1.72098 7.7541 1.72803 7.88342H1.48291V7.10217H1.72803ZM16.312 7.88342H15.9888C15.9958 7.75409 15.9995 7.62388 15.9995 7.4928C15.9995 7.36176 15.9958 7.23146 15.9888 7.10217H16.312V7.88342ZM15.8872 6.24377C15.9373 6.52469 15.9729 6.81088 15.9888 7.10217H1.72803C1.7439 6.81089 1.77947 6.52468 1.82959 6.24377H15.8872ZM2.01514 5.4635C1.93896 5.71798 1.87697 5.97822 1.82959 6.24377H1.48291V5.4635H2.01514ZM16.312 6.24377H15.8872C15.8398 5.9783 15.7788 5.7179 15.7026 5.4635H16.312V6.24377ZM8.85889 0.390259C12.0937 0.390427 14.8246 2.53 15.7026 5.4635H2.01514C2.89326 2.52999 5.62399 0.390259 8.85889 0.390259Z" fill="currentColor"/>
</g>
<path d="M15 10.7166L14.4279 10.1444L13.2834 11.2887L12.7113 10.7166L13.8556 9.57213L13.2834 9L12.139 10.1444L11.5668 9.57213L10.4221 10.7166C9.73015 11.4089 9.64444 12.477 10.1649 13.2626L9 14.4274L9.57224 15L10.7371 13.835C11.5228 14.3554 12.5911 14.2701 13.2835 13.5778L14.428 12.4335L13.8556 11.8613L15 10.7166Z" fill="currentColor"/>
<path d="M15.707 10.7168L14.5625 11.8613L15.1348 12.4336L13.6367 13.9316C12.8762 14.6918 11.7535 14.8634 10.8271 14.4512L9.57227 15.707L8.29297 14.4277L9.54785 13.1719C9.13614 12.2457 9.30874 11.1234 10.0684 10.3633L11.5664 8.86523L12.1387 9.4375L13.2832 8.29297L15.707 10.7168ZM12.1387 10.1445L11.5664 9.57227L10.4219 10.7168L10.2998 10.8506C9.72199 11.5412 9.6771 12.5262 10.165 13.2627L9 14.4277L9.57227 15L10.7373 13.835C11.4739 14.3228 12.4587 14.2782 13.1494 13.7002L13.2832 13.5781L14.4277 12.4336L13.8555 11.8613L15 10.7168L14.4277 10.1445L13.2832 11.2891L12.7109 10.7168L13.8555 9.57227L13.2832 9L12.1387 10.1445Z" fill="white"/>
</svg>
