<svg width="16" height="16" viewBox="0 0 16 16" fill="none" xmlns="http://www.w3.org/2000/svg">
<path d="M0 7.79242C0 4.66921 2.6228 0 8.0056 0C13.3808 0 16 3.96921 16 6.76201C16 9.00362 14.2284 10.6548 12.0032 10.6548C10.3052 10.6548 9.2996 10.0916 9.2996 9.64282C9.2996 9.35242 10.0016 8.90802 10.0016 8.05002C10.0016 7.02401 9.2072 5.99521 7.9836 5.99521C6.81 5.99521 5.994 6.97201 5.994 7.95722C5.994 10.338 8.246 12.6148 11.5664 12.6148C13.55 12.6148 14.27 11.8836 14.5276 11.8836C14.606 11.8836 14.7864 11.9156 14.7864 12.1248C14.7864 12.3248 12.592 15.9992 8.0104 15.9992C3.4528 16 0 12.4092 0 7.79242Z" fill="#1DE9B6"/>
<path d="M0 7.79144C0 4.66824 3.046 2.97543 5.092 2.97543C10.4676 2.97543 12.0028 3.96864 12.0028 6.76144C12.0028 9.00305 10.0016 8.90785 10.0016 8.04984C10.0016 7.02384 9.2072 5.99504 7.9836 5.99504C6.81 5.99504 5.994 6.97184 5.994 7.95704C5.994 10.3378 8.246 12.6147 11.5664 12.6147C13.55 12.6147 14.27 11.8835 14.5276 11.8835C14.606 11.8835 14.7864 11.9155 14.7864 12.1247C14.7864 12.3247 12.592 15.9991 8.0104 15.9991C3.4528 15.9991 0 12.4083 0 7.79144Z" fill="url(#paint0_radial_4989_1632)"/>
<path d="M5.9946 7.95735C5.9946 7.03814 6.7046 6.12734 7.7526 6.00894C6.111 6.14854 4.2334 7.75895 4.2334 10.7414C4.2334 13.9266 6.979 16.1274 9.8106 15.7926C13.165 15.0218 14.787 12.2966 14.787 12.1254C14.787 11.9162 14.6066 11.8842 14.5282 11.8842C14.271 11.8842 13.5506 12.6154 11.567 12.6154C8.2466 12.6154 5.9946 10.3386 5.9946 7.95735Z" fill="url(#paint1_radial_4989_1632)"/>
<path d="M0 7.79242C0 4.66921 2.6228 0 8.0056 0C13.3808 0 16 3.96921 16 6.76201C16 9.00362 14.2284 10.6548 12.0032 10.6548C10.3052 10.6548 9.2996 10.0916 9.2996 9.64282C9.2996 9.35242 10.0016 8.90802 10.0016 8.05002C10.0016 7.02401 9.1712 3.77881 4.9504 3.77881C3.7768 3.77921 0.5024 4.29801 0 7.79242Z" fill="url(#paint2_radial_4989_1632)"/>
<defs>
<radialGradient id="paint0_radial_4989_1632" cx="0" cy="0" r="1" gradientUnits="userSpaceOnUse" gradientTransform="translate(5.5972 11.5396) scale(8.53932 9.46415)">
<stop offset="0.6519" stop-color="#0083DE"/>
<stop offset="0.8215" stop-color="#006AAC"/>
<stop offset="0.9438" stop-color="#005A8C"/>
</radialGradient>
<radialGradient id="paint1_radial_4989_1632" cx="0" cy="0" r="1" gradientUnits="userSpaceOnUse" gradientTransform="translate(9.6334 10.1238) scale(6.59116 6.60963)">
<stop offset="0.69" stop-color="#05509B"/>
<stop offset="0.7174" stop-color="#054E98"/>
<stop offset="1" stop-color="#033E78"/>
</radialGradient>
<radialGradient id="paint2_radial_4989_1632" cx="0" cy="0" r="1" gradientUnits="userSpaceOnUse" gradientTransform="translate(17.4591 4.82274) rotate(180) scale(24.6127 37.1258)">
<stop stop-color="#5EEB69"/>
<stop offset="0.2136" stop-color="#4BC958"/>
<stop offset="0.2245" stop-color="#4AC862"/>
<stop offset="0.2722" stop-color="#47C68B"/>
<stop offset="0.3229" stop-color="#44C4AE"/>
<stop offset="0.3761" stop-color="#41C2CB"/>
<stop offset="0.4328" stop-color="#3FC1E1"/>
<stop offset="0.4946" stop-color="#3EC0F1"/>
<stop offset="0.5652" stop-color="#3DBFFA"/>
<stop offset="0.6644" stop-color="#3DBFFD"/>
</radialGradient>
</defs>
</svg>
