<svg width="16" height="16" viewBox="0 0 16 16" fill="none" xmlns="http://www.w3.org/2000/svg">
<path fill-rule="evenodd" clip-rule="evenodd" d="M10.74 0C11.0345 0 11.2733 0.238781 11.2733 0.533333V1.86667H11.86C12.3274 1.86667 12.7651 1.88136 13.1663 1.93801C14.2148 2.05486 15.0254 2.37818 15.5282 3.14174C16.0008 3.85935 16.1266 4.8662 16.1266 6.13333V9.86667C16.1266 11.1338 16.0008 12.1407 15.5282 12.8583C15.0254 13.6218 14.2148 13.9451 13.1664 14.062C12.7651 14.1186 12.3274 14.1333 11.86 14.1333H11.2733V15.4667C11.2733 15.7612 11.0345 16 10.74 16C10.4454 16 10.2066 15.7612 10.2066 15.4667V0.533333C10.2066 0.238781 10.4454 0 10.74 0ZM11.2733 13.0667H11.86C12.3151 13.0667 12.6959 13.0517 13.024 13.0048L13.041 13.0027C13.9522 12.9022 14.3855 12.654 14.6374 12.2716C14.9208 11.8412 15.06 11.1233 15.06 9.86667V6.13333C15.06 4.87673 14.9208 4.15879 14.6374 3.72839C14.3855 3.346 13.9522 3.09779 13.041 2.99732L13.024 2.99517C12.6959 2.94829 12.3151 2.93333 11.86 2.93333H11.2733V13.0667ZM5.13996 2.93333C4.68488 2.93333 4.30408 2.94829 3.97594 2.99517L3.95897 2.99732C3.04776 3.09779 2.61442 3.346 2.36259 3.7284C2.07916 4.15879 1.93996 4.87674 1.93996 6.13333V9.86667C1.93996 11.1233 2.07916 11.8412 2.36259 12.2716C2.61442 12.654 3.04776 12.9022 3.95897 13.0027L3.97594 13.0048C4.30408 13.0517 4.68488 13.0667 5.13996 13.0667H7.76825C8.0628 13.0667 8.30158 13.3054 8.30158 13.6C8.30158 13.8946 8.0628 14.1333 7.76825 14.1333H5.13996C4.67248 14.1333 4.23486 14.1186 3.83359 14.062C2.78517 13.9451 1.97458 13.6218 1.47175 12.8583C0.999169 12.1407 0.873291 11.1338 0.873291 9.86667V6.13333C0.873291 4.86619 0.999169 3.85934 1.47175 3.14173C1.97458 2.37818 2.78519 2.05486 3.83362 1.93801C4.23489 1.88136 4.67249 1.86667 5.13996 1.86667H7.72345C8.018 1.86667 8.25678 2.10545 8.25678 2.4C8.25678 2.69455 8.018 2.93333 7.72345 2.93333H5.13996Z" fill="currentColor"/>
<path d="M5.34822 6.2376V7.3736H7.18022V8.4296H5.34822V9.6616H7.42022V10.7576H3.98022V5.1416H7.42022V6.2376H5.34822Z" fill="currentColor"/>
</svg>
