<svg width="16" height="16" viewBox="0 0 16 16" fill="none" xmlns="http://www.w3.org/2000/svg">
<rect width="16" height="16" rx="8" fill="#F7EBFF"/>
<path d="M7.99994 2C4.68623 2 1.99994 4.68627 1.99994 8C1.99994 11.3137 4.68623 14 7.99994 14C11.3136 14 13.9999 11.3137 13.9999 8C13.9999 4.68627 11.3136 2 7.99994 2Z" fill="currentColor"/>
<path fill-rule="evenodd" clip-rule="evenodd" d="M9.05737 4.3999C9.1964 4.3999 9.30911 4.50735 9.30911 4.6399V5.2399H9.58604C9.8067 5.2399 10.0133 5.24651 10.2027 5.27201C10.6976 5.32459 11.0802 5.47008 11.3176 5.81369C11.5406 6.13661 11.6 6.58969 11.6 7.1599V8.8399C11.6 9.41011 11.5406 9.8632 11.3176 10.1861C11.0802 10.5297 10.6976 10.6752 10.2027 10.7278C10.0133 10.7533 9.8067 10.7599 9.58604 10.7599H9.30911V11.3599C9.30911 11.4925 9.1964 11.5999 9.05737 11.5999C8.91833 11.5999 8.80562 11.4925 8.80562 11.3599V4.6399C8.80562 4.50735 8.91833 4.3999 9.05737 4.3999ZM9.30911 10.2799H9.58604C9.80085 10.2799 9.98062 10.2732 10.1355 10.2521L10.1435 10.2511C10.5736 10.2059 10.7782 10.0942 10.897 9.92213C11.0308 9.72845 11.0965 9.40537 11.0965 8.8399V7.1599C11.0965 6.59443 11.0308 6.27136 10.897 6.07768C10.7782 5.9056 10.5736 5.79391 10.1435 5.7487L10.1355 5.74773C9.98062 5.72663 9.80085 5.7199 9.58604 5.7199H9.30911V10.2799ZM6.41401 5.7199C6.1992 5.7199 6.01945 5.72663 5.86456 5.74773L5.85655 5.7487C5.42643 5.79391 5.22188 5.9056 5.10301 6.07768C4.96923 6.27136 4.90352 6.59443 4.90352 7.1599V8.8399C4.90352 9.40537 4.96923 9.72845 5.10301 9.92212C5.22188 10.0942 5.42643 10.2059 5.85655 10.2511L5.86456 10.2521C6.01945 10.2732 6.1992 10.2799 6.41401 10.2799H7.65463C7.79367 10.2799 7.90638 10.3874 7.90638 10.5199C7.90638 10.6525 7.79367 10.7599 7.65463 10.7599H6.41401C6.19335 10.7599 5.98678 10.7533 5.79737 10.7278C5.30248 10.6752 4.91986 10.5297 4.68251 10.1861C4.45944 9.8632 4.40002 9.41011 4.40002 8.8399V7.1599C4.40002 6.58969 4.45944 6.13661 4.68251 5.81368C4.91986 5.47008 5.30249 5.32459 5.79738 5.27201C5.98679 5.24651 6.19335 5.2399 6.41401 5.2399H7.63349C7.77252 5.2399 7.88523 5.34735 7.88523 5.4799C7.88523 5.61245 7.77252 5.7199 7.63349 5.7199H6.41401Z" fill="white"/>
<path d="M6.51232 7.20682V7.71802H7.37707V8.19322H6.51232V8.74762H7.49036V9.24082H5.86658V6.71362H7.49036V7.20682H6.51232Z" fill="white"/>
</svg>
