<svg width="16" height="12" viewBox="0 0 16 12" fill="none" xmlns="http://www.w3.org/2000/svg">
<path d="M1.09714 11.9428H12.3886C12.6796 11.9428 12.9586 11.8273 13.1644 11.6215C13.3701 11.4157 13.4857 11.1367 13.4857 10.8457V10.1143H14.9029C15.1938 10.1143 15.4729 9.99868 15.6787 9.79293C15.8844 9.58717 16 9.30811 16 9.01713V1.15427C16 0.863291 15.8844 0.584229 15.6787 0.378474C15.4729 0.17272 15.1938 0.0571289 14.9029 0.0571289H3.61143C3.32045 0.0571289 3.04139 0.17272 2.83563 0.378474C2.62988 0.584229 2.51429 0.863291 2.51429 1.15427V1.8857H1.09714C0.440229 1.8857 0 2.45667 0 2.91427V10.8457C0 11.1367 0.115591 11.4157 0.321346 11.6215C0.5271 11.8273 0.806162 11.9428 1.09714 11.9428ZM0.914286 4.56913L4.5792 6.7177L0.914286 10.3822V4.56913ZM12.5714 10.3822L8.90606 6.71724L12.5714 4.56867V10.3822ZM8.09143 7.19404L11.925 11.0286H1.56069L5.39429 7.19404C5.80577 7.42638 6.27031 7.54847 6.74286 7.54847C7.21541 7.54847 7.67994 7.42638 8.09143 7.19404ZM3.42857 1.15427C3.42857 1.10577 3.44784 1.05926 3.48213 1.02497C3.51642 0.99068 3.56293 0.971415 3.61143 0.971415H14.9029C14.9514 0.971415 14.9979 0.99068 15.0322 1.02497C15.0664 1.05926 15.0857 1.10577 15.0857 1.15427V9.01713C15.0857 9.06563 15.0664 9.11214 15.0322 9.14643C14.9979 9.18072 14.9514 9.19999 14.9029 9.19999H13.4857V2.98284C13.4857 2.69186 13.3701 2.4128 13.1644 2.20705C12.9586 2.00129 12.6796 1.8857 12.3886 1.8857H3.42857V1.15427ZM1.09714 2.79999H12.3886C12.4371 2.79999 12.4836 2.81925 12.5179 2.85354C12.5522 2.88784 12.5714 2.93435 12.5714 2.98284C12.5714 3.09439 12.6098 3.4857 12.2322 3.70833L7.6672 6.38353C7.38679 6.54787 7.06765 6.63449 6.74263 6.63449C6.41761 6.63449 6.09847 6.54787 5.81806 6.38353L1.25303 3.70833C0.887314 3.49484 0.913828 3.12959 0.913828 2.98284C0.913828 2.95879 0.918573 2.93498 0.927791 2.91276C0.937009 2.89055 0.950519 2.87037 0.967548 2.85338C0.984576 2.8364 1.00479 2.82294 1.02703 2.81377C1.04926 2.80461 1.07309 2.79993 1.09714 2.79999Z" fill="currentColor"/>
</svg>
