<svg width="16" height="16" viewBox="0 0 16 16" fill="none" xmlns="http://www.w3.org/2000/svg">
<path d="M0.19537 15.8045C0.456754 16.0652 0.879247 16.0652 1.14063 15.8045L1.86061 15.0865L3.01444 13.9359L4.87689 15.7932C5.03799 15.9552 5.27331 16.0218 5.49458 15.9732C5.71719 15.9238 5.89969 15.7645 5.97791 15.5498L8.15923 9.57057C8.33839 9.07857 8.21939 8.54324 7.84771 8.17258C7.47736 7.80259 6.94122 7.68325 6.44653 7.86325L0.451406 10.0379C0.236817 10.1152 0.0763763 10.2979 0.0269072 10.5199C-0.0218934 10.7426 0.0449567 10.9752 0.207403 11.1359L2.06985 12.9932L0.916014 14.1439L0.196038 14.8618C-0.065346 15.1225 -0.0660145 15.5438 0.19537 15.8045ZM10.0217 10.0026C9.87995 9.6619 10.0417 9.2719 10.3827 9.13057C13.0547 8.03725 12.2478 3.99262 9.35852 3.99996C8.27154 3.99996 7.30087 4.64728 6.88573 5.64927C6.74468 5.9906 6.35294 6.15127 6.01267 6.0106C5.67107 5.86994 5.50929 5.48061 5.65034 5.13995C6.27272 3.6373 7.72805 2.66664 9.35852 2.66664C13.7111 2.68931 14.9071 8.68658 10.8954 10.3626C10.8118 10.3972 10.7249 10.4132 10.6394 10.4132C10.3773 10.4132 10.1286 10.2592 10.0217 10.0026ZM8.69002 12.6665C8.69002 12.2979 8.98951 11.9999 9.35852 11.9999C16.4366 11.7492 16.4353 1.58265 9.35852 1.33332C6.40976 1.33332 4.01051 3.72596 4.01051 6.6666C4.01051 7.03526 3.71169 7.33326 3.34201 7.33326C2.97233 7.33326 2.6735 7.03526 2.6735 6.6666C2.6735 2.99064 5.6724 0 9.35852 0C18.2148 0.33533 18.2128 12.9992 9.35852 13.3332C8.98951 13.3332 8.69002 13.0352 8.69002 12.6665Z" fill="currentColor"/>
</svg>
