<svg width="16" height="16" viewBox="0 0 16 16" fill="none" xmlns="http://www.w3.org/2000/svg">
<g clip-path="url(#clip0_17920_5665)">
<path d="M0 4C0 1.79086 1.79086 0 4 0H12C14.2091 0 16 1.79086 16 4V12C16 14.2091 14.2091 16 12 16H4C1.79086 16 0 14.2091 0 12V4Z" fill="#71347B"/>
<path d="M2.79693 13.2031C2.97119 13.3769 3.25285 13.3769 3.42711 13.2031L3.90709 12.7244L4.67631 11.9573L5.91794 13.1955C6.02535 13.3035 6.18223 13.348 6.32974 13.3155C6.47815 13.2826 6.59982 13.1764 6.65196 13.0333L8.10617 9.04713C8.22561 8.71913 8.14628 8.36224 7.89849 8.11514C7.65159 7.86847 7.29417 7.78892 6.96437 7.90892L2.96762 9.35868C2.82456 9.41023 2.7176 9.53201 2.68463 9.68001C2.65209 9.82845 2.69666 9.98356 2.80496 10.0907L4.04659 11.3289L3.27736 12.096L2.79738 12.5746C2.62312 12.7484 2.62268 13.0293 2.79693 13.2031ZM9.3478 9.33512C9.25332 9.10801 9.36117 8.84802 9.58846 8.7538C11.3698 8.02491 10.8319 5.3285 8.9057 5.33339C8.18105 5.33339 7.53394 5.76494 7.25718 6.43293C7.16314 6.66048 6.90198 6.76759 6.67513 6.67382C6.4474 6.58004 6.33955 6.32049 6.43358 6.09338C6.8485 5.09161 7.81872 4.44451 8.9057 4.44451C11.8074 4.45962 12.6047 8.4578 9.93029 9.57512C9.87458 9.59823 9.81665 9.6089 9.7596 9.6089C9.5849 9.6089 9.41911 9.50623 9.3478 9.33512ZM8.46003 11.1111C8.46003 10.8653 8.65969 10.6667 8.9057 10.6667C13.6244 10.4996 13.6235 3.72185 8.9057 3.55563C6.93986 3.55563 5.34036 5.15072 5.34036 7.11115C5.34036 7.35692 5.14115 7.55559 4.89469 7.55559C4.64824 7.55559 4.44902 7.35692 4.44902 7.11115C4.44902 4.66051 6.44829 2.66675 8.9057 2.66675C14.8099 2.8903 14.8086 11.3329 8.9057 11.5555C8.65969 11.5555 8.46003 11.3569 8.46003 11.1111Z" fill="white"/>
</g>
<defs>
<clipPath id="clip0_17920_5665">
<path d="M0 4C0 1.79086 1.79086 0 4 0H12C14.2091 0 16 1.79086 16 4V12C16 14.2091 14.2091 16 12 16H4C1.79086 16 0 14.2091 0 12V4Z" fill="white"/>
</clipPath>
</defs>
</svg>
