<svg width="65" height="65" viewBox="0 0 65 65" fill="none" xmlns="http://www.w3.org/2000/svg">
<rect opacity="0.1" x="0.102356" y="0.550781" width="64" height="64" rx="32" fill="#E12121"/>
<rect opacity="0.3" x="12.1024" y="12.5508" width="40" height="40" rx="20" fill="#E12121"/>
<path d="M25.2923 40.5426C24.9 40.5657 24.5142 40.4337 24.2163 40.1746C23.6287 39.5766 23.6287 38.6108 24.2163 38.0129L37.0831 24.9962C37.6943 24.4177 38.6533 24.4498 39.2252 25.0681C39.7424 25.6272 39.7725 26.4866 39.2958 27.0814L26.3531 40.1746C26.059 40.43 25.6794 40.5617 25.2923 40.5426Z" fill="#E12121"/>
<path d="M38.144 40.5425C37.7465 40.5408 37.3654 40.3811 37.0831 40.0979L24.2162 27.0812C23.6718 26.4381 23.7459 25.4702 24.3816 24.9194C24.949 24.4279 25.7858 24.4279 26.3531 24.9194L39.2958 37.9361C39.9068 38.5148 39.9384 39.485 39.3664 40.1032C39.3436 40.1277 39.3201 40.1515 39.2958 40.1745C38.9789 40.4533 38.5618 40.5866 38.144 40.5425Z" fill="#E12121"/>
</svg>
