<svg width="14" height="11" viewBox="0 0 14 11" fill="none" xmlns="http://www.w3.org/2000/svg">
<path d="M13.4471 1.28828C13.2816 1.20774 13.0966 1.17604 12.9138 1.19689C12.7309 1.21774 12.5578 1.29029 12.4148 1.40601L10.7476 2.7395V2.45394C10.7858 2.12437 10.749 1.79042 10.6399 1.47709C10.5308 1.16375 10.3523 0.879138 10.1177 0.644535C9.88308 0.409932 9.59846 0.231413 9.28513 0.122333C8.97179 0.0132529 8.63785 -0.0235648 8.30828 0.0146341H2.45394C2.12437 -0.0235648 1.79042 0.0132529 1.47709 0.122333C1.16375 0.231413 0.879138 0.409932 0.644535 0.644535C0.409932 0.879138 0.231413 1.16375 0.122333 1.47709C0.0132529 1.79042 -0.0235648 2.12437 0.0146341 2.45394V7.65779C-0.0235648 7.98737 0.0132529 8.32131 0.122333 8.63465C0.231413 8.94798 0.409932 9.2326 0.644535 9.4672C0.879138 9.7018 1.16375 9.88032 1.47709 9.9894C1.79042 10.0985 2.12437 10.1353 2.45394 10.0971H8.30828C8.63785 10.1353 8.97179 10.0985 9.28513 9.9894C9.59846 9.88032 9.88308 9.7018 10.1177 9.4672C10.3523 9.2326 10.5308 8.94798 10.6399 8.63465C10.749 8.32131 10.7858 7.98737 10.7476 7.65779V7.37223L12.4148 8.70572C12.5868 8.84465 12.8012 8.92042 13.0223 8.92038C13.1694 8.92017 13.3145 8.88705 13.4471 8.82346C13.6133 8.74434 13.7535 8.61957 13.8514 8.46372C13.9493 8.30788 14.0008 8.1274 14 7.94335V2.16838C14.0008 1.98434 13.9493 1.80385 13.8514 1.64801C13.7535 1.49217 13.6133 1.3674 13.4471 1.28828ZM9.77186 7.65779C9.77186 8.6836 9.33409 9.12138 8.30828 9.12138H2.45394C1.42813 9.12138 0.990357 8.6836 0.990357 7.65779V2.45394C0.990357 1.42813 1.42813 0.990357 2.45394 0.990357H8.30828C9.33409 0.990357 9.77186 1.42813 9.77186 2.45394V7.65779ZM13.0243 7.94401L10.7476 6.12266V3.98908L13.0243 2.16773V7.94401Z" fill="currentColor"/>
</svg>
