<svg width="16" height="18" viewBox="0 0 16 18" fill="none" xmlns="http://www.w3.org/2000/svg">
<path d="M7.42014 8.97643C7.46283 8.90515 7.43976 8.81322 7.36892 8.77079L7.36865 8.77063C7.29803 8.72803 7.20609 8.75093 7.16353 8.8218L7.16352 8.82182L6.57195 9.8062L6.48624 9.94883L6.40053 9.8062L5.80905 8.82196L7.42014 8.97643ZM7.42014 8.97643L6.69178 10.1882L6.66082 10.2397L6.69178 10.2912L7.4202 11.5034C7.4202 11.5034 7.42021 11.5034 7.42021 11.5034C7.46274 11.5742 7.43983 11.6661 7.36892 11.7086L7.36827 11.709C7.34457 11.7234 7.31833 11.7303 7.29187 11.7303C7.2409 11.7303 7.19165 11.7044 7.16355 11.6576L7.16352 11.6576L6.57195 10.6732L6.48624 10.5305L6.40053 10.6732L5.80896 11.6576L5.80893 11.6576C5.7809 11.7043 5.7314 11.7303 5.6803 11.7303C5.65428 11.7303 5.62788 11.7235 5.60361 11.7088L5.60325 11.7086C5.53234 11.6661 5.50943 11.5742 5.55195 11.5034C5.55196 11.5034 5.55196 11.5034 5.55197 11.5034L6.28039 10.2912L6.31135 10.2397L6.28039 10.1882L5.55203 8.97643C5.55202 8.97642 5.55202 8.97642 5.55202 8.97641C5.50934 8.90513 5.53242 8.81321 5.60325 8.77079L5.60351 8.77063C5.67402 8.7281 5.76603 8.75082 5.80896 8.82182L7.42014 8.97643ZM10.8504 1.00273L10.8504 1.00273C10.785 0.937312 10.6962 0.9 10.6031 0.9H5.35437C4.07756 0.9 3.03905 1.93885 3.03905 3.21563V7.50031H1.19468C0.763824 7.50031 0.413428 7.85071 0.413428 8.28156V12.1978C0.413428 12.6287 0.763824 12.9791 1.19468 12.9791H3.03905V14.7844C3.03905 16.0611 4.07756 17.1 5.35437 17.1H13.2712C14.548 17.1 15.5866 16.0611 15.5866 14.7844V5.88469C15.5866 5.79207 15.5499 5.70284 15.4841 5.63711L10.8504 1.00273ZM3.45343 10.2422H3.35343V10.3422V11.3306V11.4306H3.45343H4.81405C4.89703 11.4306 4.96405 11.4978 4.96405 11.5803C4.96405 11.6632 4.89695 11.7303 4.81405 11.7303H3.20374C3.12084 11.7303 3.05374 11.6632 3.05374 11.5803V8.89906C3.05374 8.81617 3.12084 8.74906 3.20374 8.74906H4.81405C4.89695 8.74906 4.96405 8.81617 4.96405 8.89906C4.96405 8.98156 4.89703 9.04875 4.81405 9.04875H3.45343H3.35343V9.14875V9.8425V9.9425H3.45343H4.70343C4.78601 9.9425 4.85312 10.0096 4.85312 10.0922C4.85312 10.1752 4.78593 10.2422 4.70343 10.2422H3.45343ZM5.46624 9.02781C5.3953 8.90938 5.43343 8.75594 5.55187 8.685C5.66999 8.61375 5.82343 8.65219 5.89468 8.77031L5.46624 9.02781ZM8.49999 10.2422H8.39999V10.3422V11.3306V11.4306H8.49999H9.86062C9.94359 11.4306 10.0106 11.4978 10.0106 11.5803C10.0106 11.6632 9.94351 11.7303 9.86062 11.7303H8.2503C8.16741 11.7303 8.1003 11.6632 8.1003 11.5803V8.89906C8.1003 8.81617 8.16741 8.74906 8.2503 8.74906H9.86062C9.94351 8.74906 10.0106 8.81617 10.0106 8.89906C10.0106 8.98156 9.94359 9.04875 9.86062 9.04875H8.49999H8.39999V9.14875V9.8425V9.9425H8.49999H9.74999C9.83257 9.9425 9.89968 10.0096 9.89968 10.0922C9.89968 10.1752 9.83249 10.2422 9.74999 10.2422H8.49999ZM14.8869 14.7844C14.8869 15.6754 14.1619 16.4003 13.2712 16.4003H5.35437C4.46367 16.4003 3.73874 15.6754 3.73874 14.7844V12.9791H11.8697C12.3005 12.9791 12.6509 12.6287 12.6509 12.1978V8.28156C12.6509 7.85071 12.3005 7.50031 11.8697 7.50031H3.73874V3.21563C3.73874 2.32459 4.46367 1.59969 5.35437 1.59969H10.2531V5.38406C10.2531 5.85293 10.634 6.23438 11.1025 6.23438H14.8869V14.7844Z" fill="currentColor" stroke="currentColor" stroke-width="0.2"/>
</svg>
