<svg width="14" height="14" viewBox="0 0 14 14" fill="none" xmlns="http://www.w3.org/2000/svg">
<path fill-rule="evenodd" clip-rule="evenodd" d="M13.9894 0.409309C13.9864 0.394291 13.9808 0.380291 13.9764 0.365782C13.9714 0.348473 13.9673 0.331164 13.9604 0.314364C13.9533 0.297309 13.9436 0.281782 13.9347 0.265491C13.9276 0.252764 13.922 0.239273 13.9136 0.2268C13.8764 0.171055 13.8286 0.122945 13.7726 0.0857818C13.7598 0.0771273 13.7458 0.0712727 13.7326 0.0638909C13.7168 0.0552364 13.7018 0.0458182 13.685 0.0389454C13.6679 0.0318182 13.6504 0.0277455 13.6328 0.0226545C13.6186 0.0185818 13.6048 0.0129818 13.59 0.00992727C13.5572 0.00356364 13.5236 0 13.4903 0H10.4357C10.1547 0 9.92662 0.228073 9.92662 0.509091C9.92662 0.790109 10.1547 1.01818 10.4357 1.01818H12.2613L8.54851 4.73098C8.34971 4.92978 8.34971 5.25204 8.54851 5.45084C8.64779 5.55036 8.77811 5.6 8.90844 5.6C9.03877 5.6 9.1691 5.55036 9.26837 5.45084L12.9812 1.73804V3.56364C12.9812 3.84465 13.2092 4.07273 13.4903 4.07273C13.7715 4.07273 13.9994 3.84465 13.9994 3.56364V0.509091C13.9994 0.475745 13.9958 0.4424 13.9894 0.409309Z" fill="currentColor"/>
<path fill-rule="evenodd" clip-rule="evenodd" d="M4.73098 8.549L1.01818 12.2618V10.4362C1.01818 10.1552 0.790364 9.92711 0.509091 9.92711C0.227818 9.92711 0 10.1552 0 10.4362V13.4907C0 13.5241 0.00356364 13.5574 0.0101818 13.5905C0.0129818 13.6055 0.0185818 13.6195 0.0229091 13.6341C0.028 13.6514 0.0320727 13.6687 0.0389455 13.6855C0.0460727 13.7025 0.0557455 13.7181 0.0646545 13.7341C0.0717818 13.7471 0.0773818 13.7606 0.0857818 13.773C0.122945 13.8288 0.1708 13.8769 0.2268 13.9141C0.239273 13.9225 0.253018 13.9283 0.266255 13.9354C0.282036 13.9441 0.297564 13.9538 0.314364 13.9609C0.331164 13.9678 0.348727 13.9718 0.366036 13.9769C0.380545 13.9813 0.394291 13.9869 0.409309 13.9897C0.4424 13.9963 0.475745 13.9998 0.509091 13.9998H3.56364C3.84465 13.9998 4.07273 13.7718 4.07273 13.4907C4.07273 13.2097 3.84465 12.9817 3.56364 12.9817H1.73804L5.45084 9.26886C5.64964 9.07006 5.64964 8.7478 5.45084 8.549C5.25229 8.3502 4.92953 8.3502 4.73098 8.549Z" fill="currentColor"/>
<path fill-rule="evenodd" clip-rule="evenodd" d="M0.509091 4.07273C0.790364 4.07273 1.01818 3.84465 1.01818 3.56364V1.73804L4.73073 5.45058C4.83 5.54985 4.96033 5.59949 5.09065 5.59949C5.22073 5.59949 5.35105 5.54985 5.45058 5.45058C5.64938 5.25178 5.64938 4.92927 5.45058 4.73047L1.73804 1.01818H3.56364C3.84465 1.01818 4.07273 0.790109 4.07273 0.509091C4.07273 0.228073 3.84465 0 3.56364 0H0.509091C0.475745 0 0.4424 0.00356364 0.409309 0.00992727C0.394545 0.0129818 0.3808 0.0185818 0.366545 0.0226545C0.348982 0.0277455 0.331418 0.0318182 0.314364 0.0389455C0.297564 0.0458182 0.282545 0.0554909 0.266764 0.0638909C0.253273 0.0712727 0.239527 0.0771273 0.2268 0.0857818C0.1708 0.122945 0.122945 0.171055 0.0857818 0.2268C0.0773818 0.239273 0.0717818 0.252764 0.0646545 0.265491C0.0557455 0.281782 0.0460727 0.297309 0.0389455 0.314364C0.0320727 0.331164 0.028 0.348473 0.0229091 0.365782C0.0185818 0.380291 0.0129818 0.394291 0.0101818 0.409309C0.00356364 0.4424 0 0.475745 0 0.509091V3.56364C0 3.84465 0.227818 4.07273 0.509091 4.07273Z" fill="currentColor"/>
<path fill-rule="evenodd" clip-rule="evenodd" d="M13.4905 9.92737C13.2095 9.92737 12.9814 10.1554 12.9814 10.4365V12.2621L9.26862 8.549C9.06982 8.3502 8.74731 8.3502 8.54851 8.549C8.34971 8.7478 8.34971 9.07031 8.54851 9.26911L12.2616 12.9819H10.436C10.155 12.9819 9.92688 13.21 9.92688 13.491C9.92688 13.772 10.155 14.0001 10.436 14.0001H13.4905C13.5239 14.0001 13.5572 13.9965 13.5903 13.9899C13.6053 13.9871 13.6191 13.9815 13.6336 13.9772C13.6509 13.9721 13.6684 13.968 13.6852 13.9611C13.702 13.954 13.7176 13.9443 13.7334 13.9357C13.7466 13.9286 13.7603 13.9227 13.7728 13.9143C13.8288 13.8771 13.8767 13.829 13.9138 13.7733C13.9222 13.7608 13.9278 13.7473 13.935 13.7343C13.9439 13.7183 13.9535 13.7028 13.9607 13.6857C13.9675 13.6689 13.9716 13.6516 13.9767 13.6343C13.981 13.6198 13.9866 13.6058 13.9897 13.5908C13.996 13.5577 13.9996 13.5243 13.9996 13.491V10.4365C13.9996 10.1554 13.7718 9.92737 13.4905 9.92737Z" fill="currentColor"/>
</svg>
