<svg width="17" height="16" viewBox="0 0 17 16" fill="none" xmlns="http://www.w3.org/2000/svg">
<g clip-path="url(#clip0_11890_1605)">
<path d="M8.88086 16C6.74402 16 4.73499 15.1678 3.224 13.6569C1.71301 12.1459 0.880859 10.1368 0.880859 8C0.880859 5.86316 1.71301 3.85413 3.224 2.34314C4.73499 0.832153 6.74402 0 8.88086 0C11.0177 0 13.0267 0.832153 14.5377 2.34314C16.0487 3.85413 16.8809 5.86316 16.8809 8C16.8809 10.1368 16.0487 12.1459 14.5377 13.6569C13.0267 15.1678 11.0177 16 8.88086 16ZM8.88086 1.25C5.15894 1.25 2.13086 4.27808 2.13086 8C2.13086 11.7219 5.15894 14.75 8.88086 14.75C12.6028 14.75 15.6309 11.7219 15.6309 8C15.6309 4.27808 12.6028 1.25 8.88086 1.25ZM13.2023 6.9375L12.3184 6.05359L8.88086 9.49109L5.44336 6.05359L4.55945 6.9375L8.88086 11.2589L13.2023 6.9375Z" fill="currentColor"/>
</g>
<defs>
<clipPath id="clip0_11890_1605">
<rect width="16" height="16" fill="white" transform="translate(0.880859)"/>
</clipPath>
</defs>
</svg>
