<svg width="18" height="18" viewBox="0 0 18 18" fill="none" xmlns="http://www.w3.org/2000/svg">
<path fill-rule="evenodd" clip-rule="evenodd" d="M5.35284 12.5771V11.1807C5.35284 11.1122 5.40825 11.0557 5.47697 11.0557H10.664V7.2956H5.47694C5.40816 7.2956 5.35281 7.23917 5.35281 7.1706V5.7742L1.4405 9.17567L5.35284 12.5771ZM6.60288 3.06257V1.55164L5.09275 3.06257H6.60288Z" fill="currentColor"/>
<path d="M5.82756 5.49969V6.82056H10.7896C10.9821 6.82056 11.1388 6.9774 11.1388 7.17056V11.1807C11.1388 11.3739 10.9821 11.5305 10.7896 11.5305H5.82756V12.8516C5.82756 12.9885 5.74723 13.1131 5.62328 13.1699L5.62215 13.1704C5.57615 13.1908 5.52701 13.2016 5.47844 13.2016C5.39382 13.2016 5.31336 13.1716 5.2483 13.1159L5.24778 13.1154L5.14063 13.0224V16.4H16.4003V1.60003H7.07906V3.18756C7.07906 3.38119 6.92198 3.53741 6.72847 3.53741H5.14063V5.32886L5.24755 5.23597C5.24755 5.23597 5.24756 5.23597 5.24756 5.23597C5.35098 5.14562 5.49751 5.12439 5.62286 5.18111L5.62329 5.18131C5.7472 5.2381 5.82756 5.36275 5.82756 5.49969ZM1.02002 9.43994L1.01985 9.43979C0.943331 9.37296 0.900126 9.27639 0.900126 9.17562C0.900126 9.07455 0.943356 8.97819 1.01999 8.91152L1.02001 8.9115L4.44091 5.93734V3.18756C4.44091 3.09444 4.47819 3.00557 4.54412 2.94006C4.54413 2.94005 4.54414 2.94003 4.54415 2.94002L6.48087 1.00243L6.48087 1.00243L6.4811 1.0022C6.54689 0.936805 6.63556 0.9 6.72847 0.9H16.7494C16.943 0.9 17.1 1.05645 17.1 1.25V16.75C17.1 16.9435 16.943 17.1 16.7494 17.1H4.7915C4.59791 17.1 4.44091 16.9435 4.44091 16.75V12.4139L1.02002 9.43994ZM6.882 14.3903V14.3902C6.88205 14.1977 7.03851 14.0402 7.23113 14.0402H14.3098C14.5035 14.0402 14.6603 14.1973 14.6603 14.3903C14.6603 14.5839 14.5034 14.7404 14.3098 14.7404H7.23113C7.03858 14.7404 6.882 14.5835 6.882 14.3903ZM5.12784 7.17059V6.26795L1.78344 9.17563L5.12781 12.0834V11.1807C5.12781 10.9876 5.28443 10.8307 5.47694 10.8307H10.439V7.52059H5.47697C5.2845 7.52059 5.12784 7.36396 5.12784 7.17059ZM6.37788 2.09504L5.63574 2.83756H6.37788V2.09504ZM14.3098 4.31059H9.22853C9.03494 4.31059 8.87794 4.15414 8.87794 3.96059C8.87794 3.76752 9.0349 3.61075 9.22853 3.61075H14.3098C14.5034 3.61075 14.6603 3.76755 14.6603 3.96059C14.6603 4.15414 14.5033 4.31059 14.3098 4.31059ZM6.882 12.3044C6.882 12.1116 7.03854 11.9544 7.23113 11.9544H14.3098C14.5034 11.9544 14.6603 12.1113 14.6603 12.3044C14.6603 12.4979 14.5034 12.6544 14.3098 12.6544H7.23113C7.03862 12.6544 6.882 12.4976 6.882 12.3044ZM14.3098 8.48256H11.8465C11.654 8.48256 11.4974 8.32569 11.4974 8.13241C11.4974 7.93973 11.654 7.78253 11.8465 7.78253H14.3098C14.5034 7.78253 14.6603 7.93934 14.6603 8.13241C14.6603 8.32607 14.5034 8.48256 14.3098 8.48256ZM14.3098 10.5684H11.8465C11.654 10.5684 11.4974 10.4116 11.4974 10.2184C11.4974 10.0258 11.6539 9.86844 11.8465 9.86844H14.3098C14.5035 9.86844 14.6603 10.0255 14.6603 10.2184C14.6603 10.4119 14.5034 10.5684 14.3098 10.5684ZM14.3098 5.69659C14.5034 5.69659 14.6603 5.8534 14.6603 6.04659C14.6603 6.2401 14.5034 6.39659 14.3098 6.39659H7.23113C7.03862 6.39659 6.882 6.23976 6.882 6.04659C6.882 5.85382 7.03854 5.69659 7.23113 5.69659H14.3098Z" fill="currentColor" stroke="currentColor" stroke-width="0.2"/>
</svg>
