<svg width="16" height="16" viewBox="0 0 16 16" fill="none" xmlns="http://www.w3.org/2000/svg">
<g clip-path="url(#clip0_9582_16046)">
<rect width="16" height="16" rx="8" fill="currentColor"/>
<path d="M12 7.86207V11.1724C12 11.3919 11.9128 11.6024 11.7576 11.7576C11.6024 11.9128 11.3919 12 11.1724 12H4.82759C4.6081 12 4.3976 11.9128 4.24239 11.7576C4.08719 11.6024 4 11.3919 4 11.1724V4.82759C4 4.6081 4.08719 4.3976 4.24239 4.24239C4.3976 4.08719 4.6081 4 4.82759 4H8.13793C8.24768 4 8.35293 4.0436 8.43053 4.1212C8.50813 4.1988 8.55172 4.30405 8.55172 4.41379C8.55172 4.52354 8.50813 4.62879 8.43053 4.70639C8.35293 4.78399 8.24768 4.82759 8.13793 4.82759H5.10345C5.03035 4.8278 4.96031 4.85694 4.90863 4.90863C4.85694 4.96031 4.8278 5.03035 4.82759 5.10345V10.8966C4.8278 10.9696 4.85694 11.0397 4.90863 11.0914C4.96031 11.1431 5.03035 11.1722 5.10345 11.1724H10.8966C10.9696 11.1722 11.0397 11.1431 11.0914 11.0914C11.1431 11.0397 11.1722 10.9696 11.1724 10.8966V7.86207C11.1724 7.75232 11.216 7.64707 11.2936 7.56947C11.3712 7.49187 11.4765 7.44828 11.5862 7.44828C11.696 7.44828 11.8012 7.49187 11.8788 7.56947C11.9564 7.64707 12 7.75232 12 7.86207Z" fill="white"/>
<path d="M12 4.27586V6.2069C12 6.31664 11.9564 6.42189 11.8788 6.49949C11.8012 6.57709 11.6959 6.62069 11.5862 6.62069C11.4764 6.62069 11.3712 6.57709 11.2936 6.49949C11.216 6.42189 11.1724 6.31664 11.1724 6.2069V5.41241L8.68411 7.90069C8.60566 7.97378 8.50191 8.01357 8.39471 8.01168C8.28751 8.00979 8.18523 7.96636 8.10942 7.89055C8.0336 7.81474 7.99018 7.71245 7.98828 7.60525C7.98639 7.49805 8.02619 7.3943 8.09928 7.31586L10.5876 4.82759H9.79307C9.68333 4.82759 9.57808 4.78399 9.50047 4.70639C9.42287 4.62879 9.37928 4.52354 9.37928 4.41379C9.37928 4.30405 9.42287 4.1988 9.50047 4.1212C9.57808 4.0436 9.68333 4 9.79307 4H11.7241C11.7972 4.00022 11.8672 4.02935 11.9189 4.08104C11.9706 4.13273 11.9997 4.20277 12 4.27586Z" fill="white"/>
</g>
<rect x="0.5" y="0.5" width="15" height="15" rx="7.5" stroke="white"/>
<defs>
<clipPath id="clip0_9582_16046">
<rect width="16" height="16" rx="8" fill="white"/>
</clipPath>
</defs>
</svg>
