<svg width="16" height="12" viewBox="0 0 16 12" fill="none" xmlns="http://www.w3.org/2000/svg">
<path fill-rule="evenodd" clip-rule="evenodd" d="M14.8985 6.29701C13.5046 8.80023 10.861 10.3552 8.00093 10.3552C5.13896 10.3552 2.49546 8.80023 1.10149 6.29701C0.994127 6.10264 0.994127 5.89717 1.10149 5.70297C2.49546 3.19978 5.13896 1.64494 8.00093 1.64494C10.861 1.64494 13.5045 3.19978 14.8985 5.70297C15.0078 5.89717 15.0078 6.10264 14.8985 6.29701ZM15.789 5.20666C14.2154 2.38043 11.2313 0.624939 8.00093 0.624939C4.76871 0.624939 1.78457 2.38043 0.211039 5.20666C-0.0703464 5.71093 -0.0703464 6.28905 0.211039 6.79295C1.78457 9.61918 4.76871 11.375 8.00093 11.375C11.2313 11.375 14.2154 9.61918 15.789 6.79295C16.0703 6.28909 16.0703 5.71093 15.789 5.20666ZM8.00093 8.09231C9.15424 8.09231 10.0928 7.15375 10.0928 5.99991C10.0928 4.84606 9.15424 3.9075 8.00093 3.9075C6.84576 3.9075 5.9072 4.84606 5.9072 5.99991C5.9072 7.15375 6.8458 8.09231 8.00093 8.09231ZM8.00093 2.88749C6.28299 2.88749 4.8872 4.28386 4.8872 5.99994C4.8872 7.71639 6.28303 9.11218 8.00093 9.11218C9.71701 9.11218 11.1128 7.71636 11.1128 5.99994C11.1128 4.28386 9.71701 2.88749 8.00093 2.88749Z" fill="currentColor"/>
</svg>
