<svg width="15" height="15" viewBox="0 0 15 15" fill="none" xmlns="http://www.w3.org/2000/svg">
<path fill-rule="evenodd" clip-rule="evenodd" d="M14.7651 6.07607C14.9992 6.22242 15.0704 6.5309 14.9241 6.76507C14.485 7.46755 13.9633 8.10658 13.3703 8.66318L14.5713 9.8642C14.7666 10.0595 14.7666 10.376 14.5713 10.5713C14.376 10.7666 14.0595 10.7666 13.8642 10.5713L12.6012 9.30831C11.8051 9.90297 10.909 10.3622 9.93383 10.6512L10.383 12.3278C10.4545 12.5946 10.2962 12.8687 10.0295 12.9402C9.76275 13.0116 9.48858 12.8534 9.41712 12.5866L8.95924 10.8777C8.4875 10.9581 8.00042 11.0001 7.50007 11.0001C6.9997 11.0001 6.51262 10.9581 6.04087 10.8777L5.58303 12.5866C5.51157 12.8533 5.23741 13.0116 4.97068 12.9402C4.70394 12.8687 4.54564 12.5946 4.6171 12.3278L5.06629 10.6512C4.09115 10.3622 3.19506 9.90296 2.39892 9.30829L1.13591 10.5713C0.940646 10.7666 0.624063 10.7666 0.428801 10.5713C0.233539 10.376 0.233539 10.0595 0.428801 9.86419L1.62984 8.66316C1.03683 8.10656 0.515117 7.46754 0.0760684 6.76507C-0.0702873 6.5309 0.000898553 6.22242 0.235066 6.07607C0.469234 5.92971 0.77771 6.0009 0.924065 6.23507C1.40355 7.00224 1.98901 7.68069 2.66235 8.24283C2.67317 8.25109 2.68373 8.25985 2.69399 8.26911C4.009 9.35541 5.65541 10.0001 7.50007 10.0001C10.3079 10.0001 12.6565 8.50643 14.0761 6.23507C14.2224 6.0009 14.5309 5.92971 14.7651 6.07607Z" fill="currentColor"/>
</svg>
