<svg width="20" height="20" viewBox="0 0 20 20" fill="none" xmlns="http://www.w3.org/2000/svg">
<g clip-path="url(#clip0_5540_15041)">
<path d="M16.6261 16.6281C20.2867 12.9675 20.2867 7.03249 16.6261 3.37187C12.9655 -0.288738 7.03044 -0.288737 3.36982 3.37187C-0.290788 7.03249 -0.290788 12.9675 3.36982 16.6281C7.03044 20.2887 12.9655 20.2887 16.6261 16.6281Z" fill="#F64C6E"/>
<path fill-rule="evenodd" clip-rule="evenodd" d="M19.2399 11.5904C18.5728 15.4935 15.4933 18.5729 11.5903 19.24L6.54334 14.1931C5.33564 13.1964 4.56592 11.6881 4.56592 9.99999C4.56592 6.99885 6.99873 4.56604 9.99986 4.56604C11.688 4.56604 13.1963 5.33581 14.193 6.54346L19.2399 11.5904Z" fill="#9C1732"/>
<path fill-rule="evenodd" clip-rule="evenodd" d="M9.89189 4.56604C12.8331 4.56604 15.2174 6.99885 15.2174 9.99999C15.2174 13.0011 12.8331 15.4339 9.89189 15.4339C6.95066 15.4339 4.56641 13.0011 4.56641 9.99999C4.56641 6.99885 6.95066 4.56604 9.89189 4.56604ZM7.46063 12.9623C7.31352 12.9708 7.16885 12.9219 7.05712 12.8259C6.83677 12.6042 6.83677 12.2462 7.05712 12.0246L9.08319 9.99848L7.0571 7.97239C6.85295 7.73399 6.88071 7.37522 7.11911 7.17105C7.33188 6.98884 7.64568 6.98884 7.85844 7.17105L9.89048 9.19119L11.8822 7.19948C12.1114 6.98502 12.471 6.99694 12.6855 7.22613C12.8794 7.43338 12.8907 7.75194 12.7119 7.97241L10.6942 9.99017L12.7119 11.9961C12.9411 12.2106 12.9529 12.5703 12.7384 12.7994C12.7299 12.8085 12.721 12.8174 12.7119 12.8259C12.5931 12.9292 12.4367 12.9786 12.28 12.9623C12.1309 12.9617 11.988 12.9025 11.8822 12.7975L9.88452 10.7998L7.85844 12.8259C7.74815 12.9206 7.6058 12.9694 7.46063 12.9623Z" fill="white"/>
</g>
<defs>
<clipPath id="clip0_5540_15041">
<rect width="20" height="20" fill="white"/>
</clipPath>
</defs>
</svg>
