<svg width="16" height="16" viewBox="0 0 16 16" fill="none" xmlns="http://www.w3.org/2000/svg">
<g clip-path="url(#clip0_300_28244)">
<path d="M10.3438 13.625C10.3438 14.9188 9.29375 16 8 16C6.70625 16 5.65625 14.9188 5.65625 13.625C5.65625 13.3625 5.86247 13.1562 6.125 13.1562H9.875C10.1375 13.1562 10.3438 13.3625 10.3438 13.625Z" fill="#AEADB3"/>
<path d="M10.3438 13.625C10.3438 14.9188 9.29375 16 8 16V13.1562H9.875C10.1375 13.1562 10.3438 13.3625 10.3438 13.625Z" fill="#8B8892"/>
<path d="M11.2812 12.2188V12.6875C11.2812 13.4656 10.6532 14.0938 9.875 14.0938H6.125C5.34684 14.0938 4.71875 13.4656 4.71875 12.6875V12.2188L5.60938 11.25H10.3906L11.2812 12.2188Z" fill="#D9D9D9"/>
<path d="M10.3906 11.25L11.2812 12.2188V12.6875C11.2812 13.4656 10.6532 14.0938 9.875 14.0938H8V11.25H10.3906Z" fill="#C8C6CD"/>
<path d="M13.625 5.625C13.625 6.98438 13.1281 8.30625 12.2281 9.32812C11.7312 9.9 11.4312 10.5656 11.3281 11.25C11.3094 11.4093 11.2812 11.5906 11.2812 11.75V12.2188H4.71874V11.75C4.71874 11.5906 4.69996 11.4093 4.67186 11.25C4.57808 10.5656 4.27814 9.9 3.79061 9.35622C2.59058 8.00622 2.12183 6.19684 2.50624 4.39687C2.95624 2.2875 4.67186 0.571875 6.79064 0.121875C7.19374 0.0374688 7.59686 0 7.99999 0C9.28436 0 10.5406 0.440594 11.5438 1.25622C12.8656 2.33437 13.625 3.92812 13.625 5.625Z" fill="#FEDB41"/>
<path d="M13.625 5.625C13.625 6.98438 13.1281 8.30625 12.2281 9.32812C11.7312 9.9 11.4312 10.5656 11.3281 11.25C11.3094 11.4093 11.2812 11.5906 11.2812 11.75V12.2188H8V0C9.28437 0 10.5407 0.440594 11.5438 1.25622C12.8656 2.33437 13.625 3.92812 13.625 5.625Z" fill="#FCBF29"/>
<path d="M11.75 5.625C11.75 5.88747 11.5438 6.09375 11.2812 6.09375C11.0187 6.09375 10.8125 5.88747 10.8125 5.625C10.8125 4.07809 9.54691 2.8125 8 2.8125C7.73747 2.8125 7.53125 2.60622 7.53125 2.34375C7.53125 2.08122 7.73747 1.875 8 1.875C10.0719 1.875 11.75 3.55309 11.75 5.625Z" fill="#FEA832"/>
<path d="M1.40625 6.5625H0.46875C0.209656 6.5625 0 6.35284 0 6.09375C0 5.83466 0.209656 5.625 0.46875 5.625H1.40625C1.66534 5.625 1.875 5.83466 1.875 6.09375C1.875 6.35284 1.66534 6.5625 1.40625 6.5625Z" fill="#FEA832"/>
<path d="M1.2689 4.08152C1.14896 4.08152 1.02902 4.03574 0.937493 3.94418L0.274649 3.28137C0.0915557 3.09827 0.0915557 2.80162 0.274649 2.61852C0.457743 2.43543 0.754399 2.43543 0.937493 2.61852L1.60034 3.28137C1.78343 3.46446 1.78343 3.76112 1.60034 3.94421C1.50877 4.03577 1.38884 4.08152 1.2689 4.08152Z" fill="#FEA832"/>
<path d="M0.274649 9.56921C0.0915557 9.38612 0.0915557 9.08946 0.274649 8.90637L0.937493 8.24352C1.12059 8.06043 1.41724 8.06043 1.60034 8.24352C1.78343 8.42662 1.78343 8.72327 1.60034 8.90637L0.937493 9.56921C0.754399 9.7523 0.457774 9.7523 0.274649 9.56921Z" fill="#FEA832"/>
<path d="M15.5312 6.5625H14.5938C14.3347 6.5625 14.125 6.35284 14.125 6.09375C14.125 5.83466 14.3347 5.625 14.5938 5.625H15.5312C15.7903 5.625 16 5.83466 16 6.09375C16 6.35284 15.7903 6.5625 15.5312 6.5625Z" fill="#FE9923"/>
<path d="M14.3996 3.94421C14.2166 3.76112 14.2166 3.46446 14.3996 3.28137L15.0625 2.61852C15.2456 2.43543 15.5422 2.43543 15.7253 2.61852C15.9084 2.80162 15.9084 3.09827 15.7253 3.28137L15.0625 3.94421C14.8794 4.1273 14.5828 4.1273 14.3996 3.94421Z" fill="#FE9923"/>
<path d="M15.0625 9.56921L14.3996 8.90637C14.2166 8.72327 14.2166 8.42662 14.3996 8.24352C14.5827 8.06043 14.8794 8.06043 15.0625 8.24352L15.7253 8.90637C15.9084 9.08946 15.9084 9.38612 15.7253 9.56921C15.5422 9.7523 15.2456 9.7523 15.0625 9.56921Z" fill="#FE9923"/>
<path d="M11.75 5.625C11.75 5.88747 11.5438 6.09375 11.2812 6.09375C11.0187 6.09375 10.8125 5.88747 10.8125 5.625C10.8125 4.07809 9.54691 2.8125 8 2.8125V1.875C10.0719 1.875 11.75 3.55309 11.75 5.625Z" fill="#FE9923"/>
</g>
<defs>
<clipPath id="clip0_300_28244">
<rect width="16" height="16" fill="white"/>
</clipPath>
</defs>
</svg>
