<svg width="32" height="32" viewBox="0 0 32 32" fill="none" xmlns="http://www.w3.org/2000/svg">
<circle cx="16" cy="17" r="8" fill="#F2D7FE"/>
<rect x="0.5" y="0.5" width="31" height="31" rx="15.5" fill="url(#paint0_linear_175_15917)" stroke="url(#paint1_linear_175_15917)"/>
<path d="M25.0585 16.7819C25.0585 19.7902 23.9858 21.7593 22.2647 22.9703C20.3982 24.2141 18.2799 24.5817 16 24.5817C10.9988 24.5817 6.9415 22.6318 6.9415 16.7819C6.9415 11.3181 10.9988 7.41821 16 7.41821C21.0013 7.41821 25.0585 11.3181 25.0585 16.7819Z" fill="#F5F5F5"/>
<path fill-rule="evenodd" clip-rule="evenodd" d="M22.7067 23.6157L22.6985 23.6212C20.653 24.9843 18.3597 25.3639 16 25.3639C13.4186 25.3639 10.9594 24.8642 9.12864 23.5033C7.25646 22.1116 6.1593 19.9083 6.1593 16.7819C6.1593 10.8945 10.5585 6.63605 16 6.63605C21.4415 6.63605 25.8407 10.8945 25.8407 16.7819C25.8407 20.0008 24.6777 22.2289 22.7148 23.61L22.7067 23.6157ZM22.2647 22.9703C23.9858 21.7593 25.0585 19.7903 25.0585 16.7819C25.0585 11.3182 21.0013 7.41824 16 7.41824C10.9988 7.41824 6.94149 11.3182 6.94149 16.7819C6.94149 22.6318 10.9988 24.5817 16 24.5817C18.2799 24.5817 20.3982 24.2142 22.2647 22.9703Z" fill="black"/>
<path d="M16 7.41821C15.7588 7.41821 15.5233 7.43538 15.2849 7.45302C19.951 7.8063 23.6283 11.5818 23.6283 16.7819C23.6283 19.7902 22.5555 21.7593 20.8344 22.9703C19.5495 23.8284 17.9428 24.4573 15.304 24.5641C15.5342 24.5731 15.765 24.5817 16 24.5817C18.2823 24.5817 20.3991 24.2137 22.2647 22.9703C23.9858 21.7593 25.0585 19.7902 25.0585 16.7819C25.0585 11.3181 21.0013 7.41821 16 7.41821Z" fill="#CFD8DC"/>
<path d="M18.8606 13.1394H13.1394C10.7696 13.1394 8.84856 15.0605 8.84856 17.4303C8.84856 19.8001 10.7696 21.7212 13.1394 21.7212H18.8606C21.2304 21.7212 23.1515 19.8001 23.1515 17.4303C23.1515 15.0605 21.2304 13.1394 18.8606 13.1394Z" fill="#607D8B"/>
<path d="M18.8606 13.1394H17.4303C19.8001 13.1394 21.7212 15.0605 21.7212 17.4303C21.7212 19.8001 19.8001 21.7212 17.4303 21.7212H18.8606C21.2304 21.7212 23.1515 19.8001 23.1515 17.4303C23.1515 15.0605 21.2304 13.1394 18.8606 13.1394Z" fill="#37474F"/>
<path d="M7.89503 9.32527C8.42165 9.32527 8.84855 8.89836 8.84855 8.37174C8.84855 7.84512 8.42165 7.41821 7.89503 7.41821C7.36841 7.41821 6.9415 7.84512 6.9415 8.37174C6.9415 8.89836 7.36841 9.32527 7.89503 9.32527Z" fill="#D156E5"/>
<path fill-rule="evenodd" clip-rule="evenodd" d="M9.40727 8.37179C9.40727 9.20698 8.73022 9.88403 7.89503 9.88403C7.05985 9.88403 6.3828 9.20698 6.3828 8.37179C6.3828 7.53661 7.05985 6.85956 7.89503 6.85956C8.73022 6.85956 9.40727 7.53661 9.40727 8.37179ZM8.84856 8.37179C8.84856 8.89841 8.42165 9.32532 7.89503 9.32532C7.36841 9.32532 6.94151 8.89841 6.94151 8.37179C6.94151 7.84518 7.36841 7.41827 7.89503 7.41827C8.42165 7.41827 8.84856 7.84518 8.84856 8.37179Z" fill="black"/>
<path d="M12.1859 17.9071C12.7125 17.9071 13.1394 17.4801 13.1394 16.9535C13.1394 16.4269 12.7125 16 12.1859 16C11.6593 16 11.2324 16.4269 11.2324 16.9535C11.2324 17.4801 11.6593 17.9071 12.1859 17.9071Z" fill="#00BCD4"/>
<path d="M19.8141 17.9071C20.3407 17.9071 20.7677 17.4801 20.7677 16.9535C20.7677 16.4269 20.3407 16 19.8141 16C19.2875 16 18.8606 16.4269 18.8606 16.9535C18.8606 17.4801 19.2875 17.9071 19.8141 17.9071Z" fill="#00BCD4"/>
<path d="M24.105 9.32527C24.6317 9.32527 25.0586 8.89836 25.0586 8.37174C25.0586 7.84512 24.6317 7.41821 24.105 7.41821C23.5784 7.41821 23.1515 7.84512 23.1515 8.37174C23.1515 8.89836 23.5784 9.32527 24.105 9.32527Z" fill="#D156E5"/>
<path fill-rule="evenodd" clip-rule="evenodd" d="M25.6172 8.37179C25.6172 9.20698 24.9402 9.88403 24.105 9.88403C23.2698 9.88403 22.5927 9.20698 22.5927 8.37179C22.5927 7.53661 23.2698 6.85956 24.105 6.85956C24.9402 6.85956 25.6172 7.53661 25.6172 8.37179ZM25.0585 8.37179C25.0585 8.89841 24.6316 9.32532 24.105 9.32532C23.5784 9.32532 23.1515 8.89841 23.1515 8.37179C23.1515 7.84518 23.5784 7.41827 24.105 7.41827C24.6316 7.41827 25.0585 7.84518 25.0585 8.37179Z" fill="black"/>
<path fill-rule="evenodd" clip-rule="evenodd" d="M16.4768 10.7556H15.5233C15.2599 10.7556 15.0465 10.5421 15.0465 10.2788C15.0465 10.0155 15.2599 9.80206 15.5233 9.80206H16.4768C16.7401 9.80206 16.9535 10.0155 16.9535 10.2788C16.9535 10.5421 16.7401 10.7556 16.4768 10.7556ZM15.0465 12.1859H16.9536C17.2169 12.1859 17.4303 11.9724 17.4303 11.7091C17.4303 11.4458 17.2169 11.2324 16.9536 11.2324H15.0465C14.7832 11.2324 14.5697 11.4458 14.5697 11.7091C14.5697 11.9724 14.7832 12.1859 15.0465 12.1859ZM23.6282 17.4303C23.6254 14.7984 21.4925 12.6655 18.8606 12.6626H13.1394C10.5063 12.6626 8.3718 14.7972 8.3718 17.4303C8.3718 20.0634 10.5063 22.1979 13.1394 22.1979H18.8606C21.4925 22.195 23.6254 20.0622 23.6282 17.4303ZM9.32532 17.4303C9.32769 15.3248 11.0339 13.6185 13.1394 13.6162H18.8606C20.9671 13.6162 22.6747 15.3238 22.6747 17.4303C22.6747 19.5368 20.9671 21.2444 18.8606 21.2444H13.1394C11.0339 21.242 9.32769 19.5358 9.32532 17.4303ZM10.7556 16.9535C10.7556 16.1636 11.396 15.5232 12.1859 15.5232C12.9758 15.5232 13.6162 16.1636 13.6162 16.9535C13.6162 17.7435 12.9758 18.3838 12.1859 18.3838C11.396 18.3838 10.7556 17.7435 10.7556 16.9535ZM11.7091 16.9535C11.7091 17.2168 11.9226 17.4303 12.1859 17.4303C12.4492 17.4303 12.6627 17.2168 12.6627 16.9535C12.6627 16.6902 12.4492 16.4768 12.1859 16.4768C11.9226 16.4768 11.7091 16.6902 11.7091 16.9535ZM19.8141 15.5232C20.6041 15.5232 21.2444 16.1636 21.2444 16.9535C21.2444 17.7435 20.6041 18.3838 19.8141 18.3838C19.0242 18.3838 18.3838 17.7435 18.3838 16.9535C18.3838 16.1636 19.0242 15.5232 19.8141 15.5232ZM19.8141 16.4768C19.5508 16.4768 19.3374 16.6902 19.3374 16.9535C19.3374 17.2168 19.5508 17.4303 19.8141 17.4303C20.0774 17.4303 20.2909 17.2168 20.2909 16.9535C20.2909 16.6902 20.0774 16.4768 19.8141 16.4768ZM16 18.8606C16.3955 18.8817 16.7855 18.7603 17.099 18.5183C17.2887 18.3389 17.587 18.3442 17.7702 18.5302C17.953 18.7156 17.9517 19.0138 17.7674 19.1977C17.2786 19.6213 16.6463 19.8419 16 19.8141C15.3549 19.841 14.7239 19.6205 14.236 19.1977C14.0656 19.0105 14.0711 18.7229 14.2485 18.5424C14.426 18.362 14.7135 18.3516 14.9035 18.5187C15.2164 18.76 15.6054 18.8812 16 18.8606Z" fill="black"/>
<path fill-rule="evenodd" clip-rule="evenodd" d="M13.1394 13.5603H18.8606C20.9979 13.5603 22.7306 15.293 22.7306 17.4303C22.7306 19.5676 20.9979 21.3003 18.8606 21.3003H13.1394C11.0031 21.2979 9.27185 19.5667 9.26945 17.4304L9.26945 17.4302C9.27185 15.2939 11.0031 13.5627 13.1394 13.5603ZM17.1353 18.5608L17.1331 18.5625C16.8098 18.8121 16.4078 18.9376 16 18.9165C15.5931 18.9371 15.1921 18.8118 14.8694 18.563L14.8679 18.5619L14.8666 18.5607C14.6988 18.4131 14.445 18.4223 14.2884 18.5816C14.1325 18.7401 14.1269 18.9924 14.2751 19.1576C14.7519 19.5697 15.368 19.7846 15.9977 19.7583L16.0001 19.7582L16.0024 19.7583C16.6337 19.7854 17.2515 19.5702 17.7293 19.1568C17.8905 18.9945 17.8912 18.7325 17.7305 18.5694C17.5686 18.405 17.305 18.4003 17.1374 18.5589L17.1353 18.5608ZM17.7674 19.1977C17.2786 19.6213 16.6463 19.8419 16 19.8141C15.3549 19.841 14.7239 19.6205 14.236 19.1977C14.0656 19.0105 14.0711 18.7229 14.2485 18.5424C14.426 18.362 14.7135 18.3516 14.9035 18.5187C15.2164 18.76 15.6054 18.8812 16 18.8606C16.3955 18.8817 16.7855 18.7603 17.099 18.5183C17.2887 18.3389 17.587 18.3442 17.7702 18.5302C17.953 18.7156 17.9517 19.0138 17.7674 19.1977ZM15.5233 10.6997H16.4768C16.7092 10.6997 16.8977 10.5113 16.8977 10.2788C16.8977 10.0464 16.7092 9.85793 16.4768 9.85793H15.5233C15.2908 9.85793 15.1024 10.0464 15.1024 10.2788C15.1024 10.5113 15.2908 10.6997 15.5233 10.6997ZM15.0465 12.13H16.9536C17.186 12.13 17.3744 11.9416 17.3744 11.7091C17.3744 11.4767 17.186 11.2882 16.9536 11.2882H15.0465C14.814 11.2882 14.6256 11.4767 14.6256 11.7091C14.6256 11.9416 14.814 12.13 15.0465 12.13ZM23.5724 17.4303C23.5695 14.8292 21.4616 12.7214 18.8605 12.7185H13.1394C10.5372 12.7185 8.42767 14.8281 8.42767 17.4303C8.42767 20.0325 10.5372 22.1421 13.1394 22.1421H18.8605C21.4616 22.1392 23.5695 20.0314 23.5724 17.4303ZM23.6282 17.4303C23.6254 14.7984 21.4925 12.6655 18.8606 12.6626H13.1394C10.5063 12.6626 8.3718 14.7972 8.3718 17.4303C8.3718 20.0634 10.5063 22.1979 13.1394 22.1979H18.8606C21.4925 22.195 23.6254 20.0622 23.6282 17.4303ZM12.1859 15.5791C11.4268 15.5791 10.8115 16.1945 10.8115 16.9535C10.8115 17.7126 11.4268 18.3279 12.1859 18.3279C12.945 18.3279 13.5603 17.7126 13.5603 16.9535C13.5603 16.1945 12.945 15.5791 12.1859 15.5791ZM12.1859 17.4862C11.8917 17.4862 11.6533 17.2477 11.6533 16.9535C11.6533 16.6594 11.8917 16.4209 12.1859 16.4209C12.4801 16.4209 12.7185 16.6594 12.7185 16.9535C12.7185 17.2477 12.4801 17.4862 12.1859 17.4862ZM21.1886 16.9535C21.1886 16.1945 20.5732 15.5791 19.8141 15.5791C19.0551 15.5791 18.4397 16.1945 18.4397 16.9535C18.4397 17.7126 19.0551 18.3279 19.8141 18.3279C20.5732 18.3279 21.1886 17.7126 21.1886 16.9535ZM19.2815 16.9535C19.2815 16.6594 19.52 16.4209 19.8141 16.4209C20.1083 16.4209 20.3468 16.6594 20.3468 16.9535C20.3468 17.2477 20.1083 17.4862 19.8141 17.4862C19.52 17.4862 19.2815 17.2477 19.2815 16.9535ZM15.5233 10.7556H16.4768C16.7401 10.7556 16.9535 10.5421 16.9535 10.2788C16.9535 10.0155 16.7401 9.80206 16.4768 9.80206H15.5233C15.2599 9.80206 15.0465 10.0155 15.0465 10.2788C15.0465 10.5421 15.2599 10.7556 15.5233 10.7556ZM16.9536 12.1859H15.0465C14.7832 12.1859 14.5697 11.9724 14.5697 11.7091C14.5697 11.4458 14.7832 11.2324 15.0465 11.2324H16.9536C17.2169 11.2324 17.4303 11.4458 17.4303 11.7091C17.4303 11.9724 17.2169 12.1859 16.9536 12.1859ZM13.1394 13.6162C11.0339 13.6185 9.32769 15.3248 9.32532 17.4303C9.32769 19.5358 11.0339 21.242 13.1394 21.2444H18.8606C20.9671 21.2444 22.6747 19.5368 22.6747 17.4303C22.6747 15.3238 20.9671 13.6162 18.8606 13.6162H13.1394ZM12.1859 15.5232C11.396 15.5232 10.7556 16.1636 10.7556 16.9535C10.7556 17.7435 11.396 18.3838 12.1859 18.3838C12.9758 18.3838 13.6162 17.7435 13.6162 16.9535C13.6162 16.1636 12.9758 15.5232 12.1859 15.5232ZM12.1859 17.4303C11.9226 17.4303 11.7091 17.2168 11.7091 16.9535C11.7091 16.6902 11.9226 16.4768 12.1859 16.4768C12.4492 16.4768 12.6627 16.6902 12.6627 16.9535C12.6627 17.2168 12.4492 17.4303 12.1859 17.4303ZM21.2444 16.9535C21.2444 16.1636 20.6041 15.5232 19.8141 15.5232C19.0242 15.5232 18.3838 16.1636 18.3838 16.9535C18.3838 17.7435 19.0242 18.3838 19.8141 18.3838C20.6041 18.3838 21.2444 17.7435 21.2444 16.9535ZM19.3374 16.9535C19.3374 16.6902 19.5508 16.4768 19.8141 16.4768C20.0774 16.4768 20.2909 16.6902 20.2909 16.9535C20.2909 17.2168 20.0774 17.4303 19.8141 17.4303C19.5508 17.4303 19.3374 17.2168 19.3374 16.9535Z" fill="black"/>
<path fill-rule="evenodd" clip-rule="evenodd" d="M7.895 9.53558C8.08014 9.53558 8.23022 9.68567 8.23022 9.87081L8.23022 11.3757C8.23022 11.5608 8.08014 11.7109 7.895 11.7109C7.70986 11.7109 7.55978 11.5608 7.55978 11.3757L7.55978 9.87081C7.55978 9.68567 7.70986 9.53558 7.895 9.53558Z" fill="black"/>
<path fill-rule="evenodd" clip-rule="evenodd" d="M24.105 9.53558C24.2901 9.53558 24.4402 9.68567 24.4402 9.87081L24.4402 11.3757C24.4402 11.5608 24.2901 11.7109 24.105 11.7109C23.9199 11.7109 23.7698 11.5608 23.7698 11.3757L23.7698 9.87081C23.7698 9.68567 23.9199 9.53558 24.105 9.53558Z" fill="black"/>
<defs>
<linearGradient id="paint0_linear_175_15917" x1="16" y1="0" x2="16" y2="32" gradientUnits="userSpaceOnUse">
<stop stop-color="#E14BEE"/>
<stop offset="1" stop-color="#71347B"/>
</linearGradient>
<linearGradient id="paint1_linear_175_15917" x1="16" y1="0" x2="16" y2="32" gradientUnits="userSpaceOnUse">
<stop stop-color="#71347B"/>
<stop offset="1" stop-color="#E14BEE"/>
</linearGradient>
</defs>
</svg>
