<svg width="16" height="16" viewBox="0 0 16 16" fill="none" xmlns="http://www.w3.org/2000/svg">
<path d="M2.89523 6.0971C3.32481 6.0971 3.67305 5.74793 3.67305 5.31721C3.67305 4.88652 3.32481 4.53735 2.89523 4.53735C2.46567 4.53735 2.11743 4.88652 2.11743 5.31721C2.11743 5.74793 2.46567 6.0971 2.89523 6.0971Z" fill="#71347B"/>
<path d="M0.777799 8.49407C1.20738 8.49407 1.55562 8.14491 1.55562 7.71419C1.55562 7.28349 1.20738 6.93433 0.777799 6.93433C0.34824 6.93433 0 7.28349 0 7.71419C0 8.14491 0.34824 8.49407 0.777799 8.49407Z" fill="#71347B"/>
<path fill-rule="evenodd" clip-rule="evenodd" d="M14.2301 0.202053C13.3497 -0.255167 12.2663 0.0897742 11.8103 0.97249L9.81862 4.8279C9.80795 4.84857 9.79874 4.86962 9.79095 4.89091C8.81537 4.85737 7.84895 5.28947 7.19718 6.0543C6.42925 6.95541 5.48448 7.93878 4.67715 8.44093C3.52614 9.15685 2.57459 9.41487 1.98368 9.50645C1.63808 9.56001 1.35757 9.7831 1.22093 10.0724C1.0782 10.3746 1.08896 10.7706 1.36633 11.077C1.9693 11.7433 3.1449 12.8345 5.30117 14.2095C6.79465 15.1619 8.13363 15.6887 8.85427 15.9327C9.40656 16.1197 9.99677 15.9058 10.3137 15.4299C10.7143 14.8283 11.4179 13.6938 12.0221 12.3132C12.469 11.2919 12.854 10.2392 13.2225 9.18836C13.5334 8.30189 13.3936 7.36679 12.921 6.6277L14.9966 2.63184C15.4553 1.74875 15.1119 0.659995 14.2301 0.202053ZM12.1382 5.80392L14.0443 2.1345C14.2286 1.77962 14.0906 1.34209 13.7362 1.15807C13.3824 0.974333 12.947 1.11295 12.7638 1.46768L10.8717 5.13019C10.9351 5.15715 10.998 5.18642 11.0603 5.2181L11.7516 5.56956C11.8878 5.63878 12.0168 5.71727 12.1382 5.80392ZM12.2095 8.83125C12.133 9.04941 12.0524 9.27634 11.9688 9.5074L7.61133 7.21465C7.75161 7.05783 7.88618 6.90315 8.01353 6.7537C8.6621 5.99266 9.72665 5.74725 10.5747 6.17836L11.266 6.52985C12.1178 6.96286 12.5206 7.94412 12.2095 8.83125ZM5.2432 9.35582C5.77304 9.02629 6.32592 8.54468 6.84471 8.0271L6.85167 8.03083L11.5905 10.5242C11.4082 10.9995 11.2209 11.4645 11.0388 11.8806C10.4683 13.1842 9.80047 14.2617 9.42064 14.8321C9.36652 14.9134 9.27859 14.94 9.19787 14.9126C8.88095 14.8053 8.42816 14.6365 7.88841 14.3916C8.13894 14.1267 8.50232 13.6938 8.85054 13.0989C9.00101 12.8419 8.91405 12.5156 8.6563 12.3701C8.39855 12.2246 8.06762 12.3151 7.91716 12.5721C7.63725 13.0503 7.29537 13.5212 6.87618 13.8886C6.55648 13.7156 6.22135 13.5204 5.87742 13.3011C5.59778 13.1227 5.3359 12.9498 5.09076 12.7826C5.21832 12.6966 5.35818 12.5912 5.50833 12.4621C5.73415 12.2679 5.75658 11.9322 5.55842 11.7124C5.36027 11.4925 5.01659 11.4717 4.79078 11.6658C4.45842 11.9516 4.22632 12.0604 4.13275 12.097C3.27781 11.453 2.705 10.9242 2.33429 10.5386C3.05249 10.4046 4.06702 10.0874 5.2432 9.35582Z" fill="#71347B"/>
</svg>
