<svg width="16" height="16" viewBox="0 0 16 16" fill="none" xmlns="http://www.w3.org/2000/svg">
<g clip-path="url(#clip0_704_11368)">
<path d="M6.67062 10.6706L2.31875 15.5481C1.81344 16.1256 0.927188 16.1521 0.3875 15.6124C-0.15375 15.0712 -0.124062 14.1853 0.451875 13.6812L5.32937 9.32932C5.32937 9.32932 5.75 9.24994 6.25 9.74994C6.75 10.2499 6.67062 10.6706 6.67062 10.6706Z" fill="#0052BE"/>
<path d="M6.67064 10.6706L2.31876 15.5481C1.81345 16.1256 0.9272 16.1522 0.387512 15.6125L6.25001 9.75C6.75001 10.25 6.67064 10.6706 6.67064 10.6706Z" fill="#00429B"/>
<path d="M9.49997 7.5L6.6706 10.6706C6.20194 10.202 5.79803 9.79806 5.32935 9.32937L8.49997 6.5L9.49997 7.5Z" fill="#00429B"/>
<path d="M9.5 7.5L6.67063 10.6706L6 10L9 7L9.5 7.5Z" fill="#00337A"/>
<path d="M12.5 8.7189H10.4875L9.16032 10.5273C8.91407 10.8628 8.38457 10.7338 8.31938 10.3236L7.95813 8.04202L5.67657 7.68077C5.26598 7.61555 5.1377 7.08571 5.47282 6.83983L7.28126 5.51265V3.50015C7.28126 3.11965 7.71242 2.89736 8.02251 3.11858L9.5897 4.23827L11.8059 3.6164C12.1575 3.5174 12.4827 3.8428 12.3838 4.19421L11.7619 6.41046L12.8816 7.97765C13.1025 8.28743 12.8809 8.7189 12.5 8.7189Z" fill="#FFDD54"/>
<path d="M12.8816 7.9774C13.1025 8.28718 12.8809 8.71865 12.5 8.71865H10.4875L9.16032 10.5271C8.91422 10.8623 8.3846 10.7338 8.31938 10.3233L7.95813 8.04178L12.2641 3.73584C12.3838 3.85584 12.4297 4.03084 12.3838 4.19396L11.7619 6.41021L12.8816 7.9774Z" fill="#FFB454"/>
<path d="M16 1.21875C16 1.4775 15.79 1.6875 15.5312 1.6875H15.25V1.96875C15.25 2.2275 15.04 2.4375 14.7812 2.4375C14.5225 2.4375 14.3125 2.2275 14.3125 1.96875V1.6875H14.0312C13.7725 1.6875 13.5625 1.4775 13.5625 1.21875C13.5625 0.96 13.7725 0.75 14.0312 0.75H14.3125V0.46875C14.3125 0.21 14.5225 0 14.7812 0C15.04 0 15.25 0.21 15.25 0.46875V0.75H15.5312C15.79 0.75 16 0.959969 16 1.21875Z" fill="#BEE75E"/>
<path d="M16 1.21875C16 1.4775 15.79 1.6875 15.5312 1.6875H15.25V1.96875C15.25 2.2275 15.04 2.4375 14.7812 2.4375C14.5225 2.4375 14.3125 2.2275 14.3125 1.96875V1.6875L15.25 0.75H15.5312C15.79 0.75 16 0.959969 16 1.21875Z" fill="#00CB75"/>
<path d="M10.5 1.28125H10.2188V1C10.2188 0.741125 10.0089 0.53125 9.75 0.53125C9.49112 0.53125 9.28125 0.741125 9.28125 1V1.28125H9C8.74112 1.28125 8.53125 1.49112 8.53125 1.75C8.53125 2.00888 8.74112 2.21875 9 2.21875H9.28125V2.5C9.28125 2.75887 9.49112 2.96875 9.75 2.96875C10.0089 2.96875 10.2188 2.75887 10.2188 2.5V2.21875H10.5C10.7589 2.21875 10.9688 2.00888 10.9688 1.75C10.9688 1.49112 10.7589 1.28125 10.5 1.28125Z" fill="#F6F9F9"/>
<path d="M13.7812 7C13.7812 7.25887 13.9911 7.46875 14.25 7.46875C14.5089 7.46875 14.7188 7.25887 14.7188 7V6.71875H15C15.2589 6.71875 15.4688 6.50888 15.4688 6.25C15.4688 5.99112 15.2589 5.78125 15 5.78125H14.7188V5.5C14.7188 5.24112 14.5089 5.03125 14.25 5.03125C13.9911 5.03125 13.7812 5.24112 13.7812 5.5V5.78125H13.5C13.2411 5.78125 13.0312 5.99112 13.0312 6.25C13.0312 6.50888 13.2411 6.71875 13.5 6.71875H13.7812V7Z" fill="#E2DFF4"/>
<path d="M15.5312 10.2812H15.25V10C15.25 9.74112 15.0401 9.53125 14.7812 9.53125C14.5224 9.53125 14.3125 9.74112 14.3125 10V10.2812H14.0312C13.7724 10.2812 13.5625 10.4911 13.5625 10.75C13.5625 11.0089 13.7724 11.2188 14.0312 11.2188H14.3125V11.5C14.3125 11.7589 14.5224 11.9688 14.7812 11.9688C15.0401 11.9688 15.25 11.7589 15.25 11.5V11.2188H15.5312C15.7901 11.2188 16 11.0089 16 10.75C16 10.4911 15.7901 10.2812 15.5312 10.2812Z" fill="#FF4A4A"/>
<path d="M6 0.75H5.71875V0.46875C5.71875 0.209875 5.50888 0 5.25 0C4.99112 0 4.78125 0.209875 4.78125 0.46875V0.75H4.5C4.24112 0.75 4.03125 0.959875 4.03125 1.21875C4.03125 1.47763 4.24112 1.6875 4.5 1.6875H4.78125V1.96875C4.78125 2.22762 4.99112 2.4375 5.25 2.4375C5.50888 2.4375 5.71875 2.22762 5.71875 1.96875V1.6875H6C6.25887 1.6875 6.46875 1.47763 6.46875 1.21875C6.46875 0.959875 6.25887 0.75 6 0.75Z" fill="#FF8659"/>
<path d="M4.98259 3.84307L3.23259 2.84307C3.00787 2.71467 2.7215 2.79273 2.59303 3.01748C2.46459 3.24226 2.54268 3.52857 2.76743 3.65704L4.51743 4.65704C4.74118 4.78495 5.02796 4.70842 5.157 4.48264C5.28546 4.25786 5.20737 3.97154 4.98259 3.84307Z" fill="#F6F9F9"/>
<path d="M3.6919 5.28499L1.6919 5.53499C1.43499 5.56708 1.25277 5.80136 1.28493 6.05824C1.31702 6.31505 1.55127 6.49743 1.80818 6.46521L3.80818 6.21521C4.06508 6.18311 4.2473 5.94883 4.21515 5.69196C4.18302 5.43508 3.94868 5.25252 3.6919 5.28499Z" fill="#ACCEFF"/>
<path d="M12.157 11.0175C12.0285 10.7927 11.7422 10.7146 11.5174 10.8431C11.2927 10.9716 11.2146 11.2579 11.343 11.4827L12.343 13.2327C12.4296 13.3841 12.5877 13.469 12.7504 13.469C13.1042 13.469 13.3374 13.0833 13.157 12.7676L12.157 11.0175Z" fill="#E2DFF4"/>
<path d="M10.3081 11.7849C10.0512 11.7527 9.81697 11.9351 9.78488 12.1919L9.53488 14.1919C9.49997 14.4708 9.71719 14.7188 10.0006 14.7188C10.2335 14.7188 10.4355 14.5453 10.4651 14.3082L10.7151 12.3082C10.7473 12.0513 10.565 11.817 10.3081 11.7849Z" fill="#6BA7FF"/>
</g>
<defs>
<clipPath id="clip0_704_11368">
<rect width="16" height="16" fill="white"/>
</clipPath>
</defs>
</svg>
