<svg width="11" height="12" viewBox="0 0 11 12" fill="currentColor" xmlns="http://www.w3.org/2000/svg">
<path d="M9.36415 2.768L7.62215 1.025C6.96065 0.364 6.08165 0 5.14715 0H2.88965C1.51115 0 0.389648 1.1215 0.389648 2.5V9.5C0.389648 10.8785 1.51115 12 2.88965 12H7.88965C9.26815 12 10.3896 10.8785 10.3896 9.5V5.2425C10.3896 4.307 10.0251 3.429 9.36415 2.768ZM8.65715 3.4755C8.81615 3.634 8.95065 3.8105 9.05965 4.0005H6.88915C6.61315 4.0005 6.38915 3.776 6.38915 3.5005V1.3295C6.57915 1.4385 6.75565 1.573 6.91465 1.732L8.65665 3.475L8.65715 3.4755ZM9.38965 9.5005C9.38965 10.3275 8.71665 11.0005 7.88965 11.0005H2.88965C2.06265 11.0005 1.38965 10.3275 1.38965 9.5005V2.5C1.38965 1.673 2.06265 1 2.88965 1H5.14715C5.22865 1 5.30965 1.004 5.38965 1.0115V3.5C5.38965 4.327 6.06265 5 6.88965 5H9.37815C9.38565 5.08 9.38965 5.161 9.38965 5.2425V9.5005ZM7.24315 8.053C7.43865 8.248 7.43865 8.5645 7.24315 8.76L6.43665 9.567C6.14815 9.8555 5.76865 10 5.38965 10C5.01065 10 4.63115 9.8555 4.34265 9.567L3.53615 8.76C3.34065 8.5645 3.34065 8.248 3.53615 8.053C3.73165 7.8575 4.04765 7.8575 4.24315 8.053L4.88965 8.6995V6.5005C4.88965 6.2245 5.11315 6.0005 5.38965 6.0005C5.66615 6.0005 5.88965 6.2245 5.88965 6.5005V8.6995L6.53615 8.053C6.73165 7.8575 7.04765 7.8575 7.24315 8.053Z" fill="currentColor"/>
</svg>
