<svg width="14" height="18" viewBox="0 0 14 18" fill="none" xmlns="http://www.w3.org/2000/svg">
<path d="M2.34043 0H8.36468L13.4645 5.31794V15.6595C13.4645 16.951 12.4155 18 11.1206 18H2.34045C1.04904 18 3.69789e-10 16.951 3.69789e-10 15.6595V2.34045C-2.27426e-05 1.04904 1.04902 0 2.34043 0Z" fill="#0263D1"/>
<path opacity="0.302" fill-rule="evenodd" clip-rule="evenodd" d="M8.35767 0V5.27641H13.4644L8.35767 0Z" fill="white"/>
<path d="M9.10554 9.36358H4.35885C4.14073 9.36358 3.96069 9.187 3.96069 8.9689C3.96069 8.7508 4.14073 8.57422 4.35885 8.57422H9.10554C9.32366 8.57422 9.50022 8.7508 9.50022 8.9689C9.50022 9.187 9.32366 9.36358 9.10554 9.36358ZM7.52331 14.1103H4.35885C4.14073 14.1103 3.96069 13.9337 3.96069 13.7156C3.96069 13.4975 4.14073 13.3209 4.35885 13.3209H7.52331C7.74144 13.3209 7.91799 13.4975 7.91799 13.7156C7.91799 13.9337 7.74144 14.1103 7.52331 14.1103ZM9.10554 12.528H4.35885C4.14073 12.528 3.96069 12.3515 3.96069 12.1334C3.96069 11.9152 4.14073 11.7387 4.35885 11.7387H9.10554C9.32366 11.7387 9.50022 11.9152 9.50022 12.1334C9.50022 12.3515 9.32366 12.528 9.10554 12.528ZM9.10554 10.9458H4.35885C4.14073 10.9458 3.96069 10.7692 3.96069 10.5511C3.96069 10.333 4.14073 10.1564 4.35885 10.1564H9.10554C9.32366 10.1564 9.50022 10.333 9.50022 10.5511C9.50022 10.7692 9.32366 10.9458 9.10554 10.9458Z" fill="white"/>
</svg>
