<svg width="24" height="24" viewBox="0 0 24 24" fill="none" xmlns="http://www.w3.org/2000/svg">
<g clip-path="url(#clip0_2947_13043)">
<path fill-rule="evenodd" clip-rule="evenodd" d="M5.14282 6.30732C5.14282 5.03869 6.08816 4 7.32222 4H16.6777C17.8878 4 18.8571 5.01358 18.8571 6.23432V7.8404C18.8571 8.27652 18.7291 8.71582 18.5689 9.07888C18.4079 9.44375 18.1838 9.80062 17.9288 10.0632C17.9178 10.0746 17.9065 10.0856 17.8948 10.0962L14.8472 12.8703C14.8417 12.8753 14.8361 12.8803 14.8305 12.8851C14.736 12.9662 14.6204 13.1252 14.5278 13.35C14.4367 13.5711 14.392 13.7981 14.392 13.9727V17.1119C14.392 17.4828 14.2776 17.8595 14.1219 18.1679C13.9707 18.4675 13.7324 18.7973 13.4 19.0071L12.4159 19.6587L12.4032 19.6669C10.9977 20.5578 9.04094 19.5725 9.04094 17.7689V13.8997C9.04094 13.7747 9.0025 13.5829 8.91694 13.3626C8.8383 13.1601 8.73932 12.9835 8.65486 12.8689L5.99269 9.98245C5.73901 9.71868 5.53517 9.38141 5.39397 9.05698C5.25415 8.73569 5.14282 8.35128 5.14282 7.98641V6.30732Z" fill="currentColor"/>
<circle cx="17" cy="4.36511" r="3" fill="#FD9C35"/>
</g>
<defs>
<clipPath id="clip0_2947_13043">
<path d="M0 4C0 1.79086 1.79086 0 4 0H20C22.2091 0 24 1.79086 24 4V20C24 22.2091 22.2091 24 20 24H4C1.79086 24 0 22.2091 0 20V4Z" fill="white"/>
</clipPath>
</defs>
</svg>
