<svg width="12" height="11" viewBox="0 0 12 11" fill="none" xmlns="http://www.w3.org/2000/svg">
<path d="M3.13141 7.17795C2.95989 7.04242 2.74491 6.96777 2.5261 6.96777C2.22872 6.96777 1.95179 7.0999 1.76631 7.33035C1.60413 7.53207 1.5307 7.78445 1.55964 8.04092C1.58862 8.29795 1.71684 8.52817 1.92063 8.68925C2.09216 8.82481 2.30706 8.89946 2.52584 8.89946C2.82344 8.89946 3.1004 8.76707 3.28573 8.5364C3.44777 8.33501 3.52112 8.08293 3.49229 7.82657C3.46338 7.56955 3.33524 7.33917 3.13141 7.17795ZM2.94043 8.25881C2.83957 8.38441 2.68843 8.45648 2.52584 8.45648C2.40463 8.45648 2.29033 8.41679 2.19538 8.34173C2.08496 8.25446 2.01555 8.13001 1.99986 7.99127C1.98428 7.85308 2.02393 7.71692 2.11146 7.60809C2.21236 7.48271 2.36351 7.4108 2.5261 7.4108C2.64741 7.4108 2.76175 7.45048 2.85666 7.5255C2.96705 7.61278 3.03642 7.7373 3.05204 7.87612C3.06758 8.01419 3.028 8.15005 2.94043 8.25881Z" fill="currentColor"/>
<path d="M7.02684 4.9091C7.17296 4.9091 7.31425 4.87709 7.44712 4.81378C7.682 4.7014 7.85843 4.50481 7.94382 4.26018C8.02877 4.01711 8.01349 3.75554 7.90089 3.52388C7.73981 3.19183 7.3958 2.97726 7.02451 2.97726C6.8781 2.97726 6.73651 3.00938 6.60368 3.07277C6.36888 3.18478 6.19237 3.38123 6.10683 3.62592C6.02173 3.86918 6.03698 4.13078 6.14977 4.36256C6.31136 4.69457 6.65562 4.9091 7.02684 4.9091ZM6.52497 3.77216C6.57127 3.6398 6.66696 3.53341 6.7944 3.4726C6.8672 3.4379 6.94459 3.42029 7.02448 3.42029C7.2272 3.42029 7.41474 3.53684 7.50231 3.71741C7.56305 3.84234 7.57128 3.98318 7.52557 4.1141C7.47931 4.24652 7.38351 4.35307 7.25622 4.41399C7.18367 4.44858 7.10647 4.46608 7.0268 4.46608C6.8239 4.46608 6.63598 4.34934 6.54804 4.1687C6.48739 4.04395 6.47919 3.90314 6.52497 3.77216Z" fill="currentColor"/>
<path d="M4.61602 3.34364C4.68727 3.35974 4.76018 3.3679 4.83273 3.3679C5.28874 3.3679 5.67835 3.05948 5.78024 2.61746C5.8375 2.36682 5.79346 2.10879 5.65634 1.89082C5.51808 1.67116 5.302 1.51846 5.04807 1.46095C4.97653 1.4447 4.90332 1.43643 4.83044 1.43643C4.37472 1.43643 3.98552 1.74518 3.88396 2.18713C3.82622 2.43759 3.86997 2.69565 4.00712 2.91376C4.14549 3.13372 4.36179 3.28642 4.61602 3.34364ZM4.31572 2.28652C4.37077 2.04688 4.58246 1.87949 4.83044 1.87949C4.87027 1.87949 4.91048 1.88403 4.95002 1.893C5.08854 1.92438 5.2062 2.00741 5.28136 2.12681C5.35542 2.24447 5.3792 2.38365 5.34841 2.51833C5.2941 2.75391 5.0772 2.92488 4.83269 2.92488C4.79297 2.92488 4.75291 2.92037 4.71348 2.91147C4.57493 2.88028 4.45727 2.79732 4.38214 2.67793C4.30823 2.56034 4.28463 2.42138 4.31572 2.28652Z" fill="currentColor"/>
<path d="M2.85595 3.89638C3.05952 3.73508 3.18752 3.50467 3.21646 3.24761C3.2453 2.99132 3.17209 2.73924 3.00998 2.53748C2.8242 2.30714 2.54706 2.17505 2.24968 2.17505C2.03108 2.17505 1.81633 2.24948 1.64477 2.38478C1.44116 2.5456 1.31309 2.77564 1.28404 3.03252C1.25502 3.28914 1.32841 3.54166 1.49082 3.74375C1.67644 3.97435 1.95363 4.10663 2.25134 4.10663C2.47012 4.10659 2.68487 4.03194 2.85595 3.89638ZM1.83608 3.46602C1.74836 3.35688 1.70867 3.22058 1.72433 3.08221C1.73998 2.94366 1.80931 2.81939 1.91933 2.73244C2.01425 2.65757 2.12851 2.618 2.24972 2.618C2.41245 2.618 2.56393 2.68999 2.6649 2.81518C2.75221 2.92394 2.79179 3.05991 2.77625 3.19802C2.76063 3.33699 2.69122 3.4617 2.58087 3.54912C2.4864 3.62395 2.37243 3.66353 2.25138 3.66353C2.08845 3.66357 1.93709 3.5915 1.83608 3.46602Z" fill="currentColor"/>
<path d="M11.9153 1.72867C11.877 1.69006 11.8087 1.64402 11.7009 1.64402C11.5745 1.64402 11.2388 1.64402 9.20006 3.37889C9.15908 3.41374 9.11773 3.44908 9.07623 3.48467C8.71196 2.53442 8.07194 1.68725 7.24722 1.07448C6.30159 0.37188 5.17557 0.000295348 3.991 0C3.99063 0 3.99038 0 3.99008 0C3.19065 0 2.21888 0.279326 1.45389 0.729104C0.516158 1.28037 -0.000184543 2.01763 4.94768e-08 2.805C0.000295398 3.75557 0.536426 4.15319 0.967228 4.47264C1.31851 4.73318 1.59595 4.93892 1.5961 5.38985C1.59621 5.84073 1.31891 6.04629 0.967819 6.30657C0.537165 6.62584 0.00114452 7.02323 0.00143987 7.97392C0.00166138 8.76117 0.518336 9.49862 1.45625 10.0504C2.22179 10.5007 3.19408 10.7806 3.99366 10.7808C3.99421 10.7808 3.99469 10.7808 3.99521 10.7808C5.44629 10.7808 6.8104 10.2207 7.83636 9.20368C8.84926 8.1996 9.4126 6.86873 9.4274 5.4505C9.77134 5.05913 10.1045 4.67012 10.4087 4.30356C10.9291 3.67646 11.3293 3.15901 11.5981 2.76564C11.9542 2.24461 12.1101 1.92504 11.9153 1.72867ZM7.52451 8.88906C6.58202 9.82339 5.32878 10.3378 3.99525 10.3378C3.99484 10.3378 3.99425 10.3378 3.99385 10.3378C2.56484 10.3374 0.444868 9.34459 0.444462 7.97377C0.444241 7.24622 0.826716 6.96265 1.23168 6.66243C1.6102 6.38177 2.03923 6.06368 2.03908 5.3897C2.03886 4.71582 1.60972 4.39755 1.23109 4.11678C0.825941 3.8163 0.443244 3.53251 0.443022 2.80488C0.442838 1.96311 1.21695 1.3823 1.67843 1.11099C2.36873 0.705144 3.276 0.442985 3.99008 0.442985C3.99034 0.442985 3.99063 0.442985 3.99086 0.442985C5.07962 0.443281 6.1143 0.784629 6.98303 1.43004C7.78423 2.02535 8.39583 2.86104 8.71798 3.79463C7.75717 4.63357 6.71673 5.60084 5.94189 6.37819C4.65495 6.54477 4.47962 7.40246 4.35144 8.03255C4.24231 8.56905 4.17146 8.82844 3.75735 8.86166C3.6553 8.86986 3.5722 8.94687 3.55629 9.04799C3.54034 9.14907 3.59575 9.24794 3.69034 9.28711C3.71696 9.29811 4.35033 9.55691 5.09033 9.55695C5.09044 9.55695 5.09051 9.55695 5.09058 9.55695C5.60626 9.55695 6.04862 9.43194 6.40533 9.18544C6.84488 8.88167 7.14292 8.40007 7.2927 7.75422C7.79896 7.24201 8.37744 6.62436 8.94946 5.98815C8.8178 7.08352 8.3235 8.09701 7.52451 8.88906ZM6.84765 7.71228C6.61292 8.64248 6.0223 9.114 5.09055 9.11397C5.09055 9.11397 5.0904 9.11397 5.09033 9.11397C4.84463 9.11397 4.60935 9.08044 4.41154 9.03865C4.64782 8.79768 4.72162 8.43507 4.78553 8.12093C4.90725 7.52255 5.02236 6.95626 5.96408 6.82173L6.84765 7.71228ZM9.90657 4.21388C9.02846 5.26004 7.96558 6.43486 7.09061 7.3281L6.95515 7.19158L6.35748 6.58918C7.15079 5.79949 8.16848 4.85789 9.11799 4.03383C9.22867 3.93777 9.33865 3.84292 9.44704 3.75048C10.549 2.81072 11.1264 2.40173 11.421 2.22375C11.2451 2.5201 10.8399 3.10197 9.90657 4.21388Z" fill="currentColor"/>
</svg>
