<svg width="14" height="16" viewBox="0 0 14 16" fill="none" xmlns="http://www.w3.org/2000/svg">
<path fill-rule="evenodd" clip-rule="evenodd" d="M0.142822 2.30732C0.142822 1.03869 1.08816 0 2.32222 0H11.6777C12.8878 0 13.8571 1.01358 13.8571 2.23432V3.8404C13.8571 4.27652 13.7291 4.71582 13.5689 5.07888C13.4079 5.44375 13.1838 5.80062 12.9288 6.06324C12.9178 6.07458 12.9065 6.08557 12.8948 6.09619L9.84719 8.87034C9.84169 8.87534 9.83612 8.88027 9.83048 8.88511C9.73599 8.96621 9.62041 9.12516 9.52782 9.34997C9.43674 9.5711 9.39199 9.79813 9.39199 9.97272V13.1119C9.39199 13.4828 9.27765 13.8595 9.12194 14.1679C8.97074 14.4675 8.73245 14.7973 8.39996 15.0071L7.41592 15.6587L7.4032 15.6669C5.99766 16.5578 4.04094 15.5725 4.04094 13.7689V9.89972C4.04094 9.77465 4.0025 9.58294 3.91694 9.36263C3.8383 9.16011 3.73932 8.98353 3.65486 8.86891L0.992695 5.98245C0.739011 5.71868 0.535167 5.38141 0.39397 5.05698C0.254146 4.73569 0.142822 4.35128 0.142822 3.98641V2.30732Z" fill="#71347B"/>
</svg>
