<svg width="24" height="24" viewBox="0 0 24 24" fill="none" xmlns="http://www.w3.org/2000/svg">
<g clip-path="url(#clip0_4764_12429)">
<rect width="24" height="24" rx="4" fill="#71347B"/>
<path d="M16.6579 4.625H6.78186C6.37373 4.62479 5.97469 4.74558 5.6352 4.97212C5.2957 5.19865 5.03098 5.52074 4.87451 5.89769C4.71804 6.27464 4.67683 6.68952 4.7561 7.08988C4.83537 7.49024 5.03156 7.85812 5.31986 8.147L9.56286 12.39V17.325C9.56394 17.5815 9.64088 17.8319 9.78398 18.0448C9.92709 18.2577 10.13 18.4235 10.3671 18.5213C10.6042 18.6191 10.865 18.6446 11.1165 18.5945C11.3681 18.5445 11.5992 18.4211 11.7809 18.24L13.3999 16.625C13.5507 16.4756 13.6703 16.2977 13.7516 16.1016C13.833 15.9056 13.8746 15.6953 13.8739 15.483V12.383L18.1199 8.141C18.3109 7.95024 18.4623 7.72355 18.5652 7.47399C18.6682 7.22444 18.7208 6.95697 18.7199 6.687C18.7188 6.14045 18.5012 5.61658 18.1147 5.23011C17.7283 4.84364 17.2044 4.62606 16.6579 4.625ZM17.3529 7.382L13.1149 11.625C13.0137 11.725 12.9335 11.8442 12.8789 11.9755C12.8243 12.1069 12.7964 12.2478 12.7969 12.39V15.49C12.7948 15.6324 12.7391 15.7688 12.6409 15.872L11.0249 17.489C10.9915 17.5151 10.9518 17.5319 10.9098 17.5375C10.8678 17.543 10.8251 17.5373 10.7861 17.5207C10.7471 17.5042 10.7132 17.4775 10.688 17.4434C10.6628 17.4093 10.6472 17.3691 10.6429 17.327V12.39C10.6432 12.2487 10.6152 12.1087 10.5606 11.9783C10.506 11.848 10.4258 11.7299 10.3249 11.631L6.08786 7.382C5.94924 7.24482 5.8546 7.06948 5.81601 6.87831C5.77742 6.68714 5.79662 6.48881 5.87117 6.3086C5.94573 6.12839 6.07225 5.97446 6.23462 5.86642C6.39698 5.75839 6.58784 5.70115 6.78286 5.702H16.6579C16.8529 5.70115 17.0437 5.75839 17.2061 5.86642C17.3685 5.97446 17.495 6.12839 17.5696 6.3086C17.6441 6.48881 17.6633 6.68714 17.6247 6.87831C17.5861 7.06948 17.4915 7.24482 17.3529 7.382Z" fill="white" stroke="white" stroke-width="0.5"/>
</g>
<rect x="0.5" y="0.5" width="23" height="23" rx="3.5" stroke="#57285F"/>
<defs>
<clipPath id="clip0_4764_12429">
<rect width="24" height="24" rx="4" fill="white"/>
</clipPath>
</defs>
</svg>
