<svg width="16" height="15" viewBox="0 0 16 15" fill="none" xmlns="http://www.w3.org/2000/svg">
    <path
        d="M12.7145 0.400147H2.8385C2.43037 0.399936 2.03133 0.520731 1.69184 0.747262C1.35234 0.973792 1.08763 1.29589 0.931152 1.67284C0.774679 2.04979 0.733473 2.46466 0.812743 2.86503C0.892012 3.26539 1.0882 3.63326 1.3765 3.92215L5.6195 8.16515V13.1001C5.62058 13.3566 5.69752 13.6071 5.84062 13.82C5.98373 14.0328 6.18661 14.1986 6.42373 14.2964C6.66085 14.3943 6.9216 14.4197 7.17317 14.3697C7.42475 14.3196 7.65589 14.1963 7.8375 14.0151L9.4565 12.4001C9.60732 12.2508 9.7269 12.0728 9.80828 11.8768C9.88965 11.6807 9.9312 11.4704 9.9305 11.2581V8.15815L14.1765 3.91615C14.3675 3.72539 14.5189 3.4987 14.6219 3.24914C14.7249 2.99959 14.7774 2.73211 14.7765 2.46215C14.7754 1.91559 14.5579 1.39173 14.1714 1.00526C13.7849 0.618789 13.2611 0.401204 12.7145 0.400147ZM13.4095 3.15715L9.1715 7.40015C9.07035 7.50015 8.99014 7.61931 8.93554 7.75065C8.88094 7.882 8.85305 8.02291 8.8535 8.16515V11.2651C8.85142 11.4076 8.79572 11.544 8.6975 11.6471L7.0815 13.2641C7.04817 13.2903 7.00843 13.307 6.96643 13.3126C6.92444 13.3182 6.88171 13.3124 6.8427 13.2959C6.8037 13.2793 6.76984 13.2526 6.74466 13.2186C6.71947 13.1845 6.70388 13.1443 6.6995 13.1021V8.16515C6.69983 8.02382 6.67186 7.88385 6.61724 7.75349C6.56263 7.62314 6.48247 7.50504 6.3815 7.40615L2.1445 3.15715C2.00588 3.01997 1.91124 2.84462 1.87265 2.65346C1.83406 2.46229 1.85326 2.26396 1.92782 2.08375C2.00237 1.90354 2.12889 1.7496 2.29126 1.64157C2.45362 1.53354 2.64448 1.4763 2.8395 1.47715H12.7145C12.9095 1.4763 13.1004 1.53354 13.2627 1.64157C13.4251 1.7496 13.5516 1.90354 13.6262 2.08375C13.7007 2.26396 13.7199 2.46229 13.6814 2.65346C13.6428 2.84462 13.5481 3.01997 13.4095 3.15715Z"
        fill="currentColor" stroke="currentColor" stroke-width="0.5" />
</svg>