<svg width="16" height="16" viewBox="0 0 16 16" fill="none" xmlns="http://www.w3.org/2000/svg">
<path d="M7.33366 13.7109V15.2292C5.94821 15.2321 4.59042 14.8259 3.41814 14.0576C2.24586 13.2894 1.30724 12.1907 0.711404 10.8894C0.11557 9.58805 -0.113003 8.13747 0.0522582 6.70631C0.217519 5.27515 0.769825 3.92219 1.64497 2.80472C2.52011 1.68724 3.68214 0.851166 4.99596 0.393681C6.30978 -0.0638037 7.72142 -0.123902 9.06678 0.220374C10.4121 0.56465 11.6359 1.29916 12.5959 2.3385C13.5559 3.37785 14.2126 4.67934 14.4897 6.09167H12.9776C12.7504 5.17245 12.3198 4.32124 11.7201 3.60603C11.1204 2.89082 10.3682 2.33143 9.52368 1.97254V2.28437C9.52191 2.68646 9.36759 3.07157 9.09431 3.3559C8.82103 3.64022 8.45089 3.80077 8.06441 3.80262H6.60515V5.32087C6.60486 5.52252 6.52781 5.71585 6.39086 5.85855C6.25391 6.00125 6.06822 6.08171 5.8744 6.08233H4.4084V7.60058H5.86766V9.88496H5.14252L1.64478 6.25634C1.54475 6.70327 1.49279 7.16039 1.48987 7.61926C1.49017 9.23276 2.10559 10.7803 3.20112 11.9223C4.29666 13.0643 5.78285 13.7075 7.33366 13.7109Z" fill="#71347B"/>
<path d="M15.9994 13.1167C15.9988 12.9895 15.95 12.8677 15.8637 12.7778C15.7773 12.6879 15.6603 12.6371 15.5381 12.6365H14.6143V13.598H15.5381C15.6605 13.5974 15.7776 13.5464 15.8641 13.4563C15.9505 13.3661 15.9991 13.244 15.9994 13.1167Z" fill="#71347B"/>
<path d="M15.5381 14.5576H14.6143V15.5191H15.5381C15.6606 15.5191 15.7781 15.4685 15.8647 15.3783C15.9513 15.2882 16 15.1659 16 15.0384C16 14.9109 15.9513 14.7886 15.8647 14.6984C15.7781 14.6083 15.6606 14.5576 15.5381 14.5576Z" fill="#71347B"/>
<path d="M11.8439 13.1177H10.9201V15.0388H11.8439C11.8445 15.2936 11.942 15.5377 12.1152 15.7178C12.2883 15.8979 12.5229 15.9994 12.7678 16H14.1529V12.1565H12.7666C12.522 12.1574 12.2876 12.259 12.1148 12.4391C11.9419 12.6192 11.8445 12.8631 11.8439 13.1177Z" fill="#71347B"/>
<path d="M8.61219 12.6342C8.61278 12.3795 8.71031 12.1354 8.88343 11.9553C9.05655 11.7751 9.29119 11.6737 9.53602 11.6731H10.2286C10.4469 11.6834 10.6649 11.6475 10.8694 11.5677C11.074 11.4879 11.2609 11.3657 11.4188 11.2086C11.5767 11.0516 11.7024 10.8628 11.7882 10.6538C11.8741 10.4447 11.9183 10.2198 11.9182 9.99245C11.9181 9.76514 11.8738 9.5402 11.7878 9.33123C11.7018 9.12226 11.576 8.93359 11.418 8.77662C11.26 8.61965 11.073 8.49765 10.8684 8.41797C10.6638 8.3383 10.4457 8.30261 10.2275 8.31306H8.61219C8.48969 8.31306 8.3722 8.36369 8.28557 8.45382C8.19894 8.54394 8.15028 8.66618 8.15028 8.79364C8.15028 8.9211 8.19894 9.04334 8.28557 9.13347C8.3722 9.22359 8.48969 9.27423 8.61219 9.27423H10.2286C10.4123 9.27423 10.5885 9.35015 10.7183 9.48528C10.8482 9.62042 10.9212 9.8037 10.9212 9.99481C10.9212 10.1859 10.8482 10.3692 10.7183 10.5043C10.5885 10.6395 10.4123 10.7154 10.2286 10.7154H9.5349C9.04502 10.7154 8.5752 10.9179 8.22881 11.2783C7.88241 11.6387 7.68781 12.1275 7.68781 12.6371C7.68781 13.1468 7.88241 13.6356 8.22881 13.996C8.5752 14.3564 9.04502 14.5589 9.5349 14.5589H10.4587V13.5977H9.5349C9.28987 13.5968 9.05518 13.4949 8.88224 13.3143C8.7093 13.1337 8.61219 12.8892 8.61219 12.6342Z" fill="#71347B"/>
</svg>
