<svg width="22" height="24" viewBox="0 0 22 24" fill="none" xmlns="http://www.w3.org/2000/svg">
<path d="M8.30815 2.44586C8.00129 2.63411 7.75562 2.75272 7.509 2.87602C6.58748 3.36737 5.7272 3.79754 4.80568 4.28795C4.74167 4.32431 4.68966 4.37863 4.6562 4.44421C4.62274 4.5098 4.60923 4.58376 4.61736 4.65693V23.2755C4.61736 23.5212 4.55624 23.7057 4.31057 23.7669C3.85464 23.9552 3.36009 24.0312 2.86866 23.9884C2.37722 23.9457 1.90328 23.7854 1.48672 23.5212C1.18046 23.3059 0.919692 23.0323 0.7194 22.716C0.519108 22.3997 0.383245 22.047 0.319539 21.6782C0.16509 20.682 0.102006 19.6737 0.131213 18.666C0.0700298 13.7497 0.00884184 8.77315 0.00884184 3.85683C-0.0391441 3.07511 0.108741 2.29379 0.439038 1.58366C0.717224 0.990161 1.19816 0.515478 1.79523 0.245067C2.39231 -0.0253429 3.06627 -0.0737303 3.69584 0.108649C4.56928 0.371444 5.39798 0.764987 6.15361 1.27586C6.82945 1.64484 7.50528 2.01287 8.11994 2.38186C8.18583 2.32255 8.24697 2.38373 8.30815 2.44586Z" fill="white"/>
<path d="M8.42587 21.3723V16.0258C8.42442 15.9536 8.44083 15.8821 8.47367 15.8177C8.50651 15.7533 8.55473 15.6981 8.61408 15.6569C10.7037 14.4887 12.7934 13.3215 14.8209 12.1543C15.3734 11.8465 15.9269 11.5397 16.5406 11.1707C16.1854 10.9425 15.8159 10.7372 15.4346 10.556C14.5131 10.0026 13.5917 9.51123 12.6701 8.95587C12.6247 8.92503 12.5711 8.90853 12.5162 8.90853C12.4613 8.90853 12.4077 8.92503 12.3623 8.95587C11.1951 9.6929 10.0891 10.3678 8.92098 11.1067C8.8598 11.1067 8.85982 11.1679 8.79769 11.1679V7.2352C8.79594 7.15413 8.81183 7.07365 8.84434 6.99937C8.87686 6.92508 8.92516 6.85876 8.9859 6.80504C10.0307 6.06801 11.0746 5.39311 12.0583 4.6542C12.1149 4.62396 12.1781 4.60815 12.2422 4.60815C12.3064 4.60815 12.3697 4.62396 12.4263 4.6542C13.8382 5.45335 15.3141 6.31368 16.7279 7.11188C17.7106 7.66442 18.6943 8.21789 19.7401 8.77042C20.488 9.15981 21.1072 9.75743 21.5228 10.4911C21.7846 10.9685 21.8898 11.5161 21.8236 12.0566C21.7574 12.5971 21.5232 13.1031 21.1539 13.5032C20.6682 14.0556 20.0849 14.5138 19.4332 14.8549C18.0213 15.654 16.6677 16.5144 15.2549 17.3126C13.473 18.3574 11.7524 19.3401 9.97051 20.3849C9.4095 20.7577 8.91722 21.0607 8.42587 21.3723Z" fill="white"/>
</svg>
