<svg width="14" height="16" viewBox="0 0 14 16" fill="none" xmlns="http://www.w3.org/2000/svg">
<path d="M5.32503 1.63057C5.12836 1.75608 4.97089 1.83514 4.81283 1.91735C4.22219 2.24492 3.6708 2.53169 3.08016 2.85863C3.03913 2.88287 3.00579 2.91909 2.98435 2.96281C2.9629 3.00653 2.95424 3.05584 2.95946 3.10462V15.517C2.95946 15.6808 2.92028 15.8038 2.76282 15.8446C2.4706 15.9701 2.15362 16.0208 1.83864 15.9923C1.52366 15.9638 1.21989 15.857 0.9529 15.6808C0.756608 15.5373 0.589468 15.3549 0.461093 15.144C0.332718 14.9332 0.245637 14.698 0.204806 14.4521C0.105813 13.788 0.06538 13.1158 0.0840999 12.444C0.044885 9.16648 0.0056671 5.84877 0.0056671 2.57122C-0.025089 2.05007 0.0696967 1.5292 0.281397 1.05577C0.459698 0.660107 0.767948 0.343652 1.15064 0.163378C1.53333 -0.0168953 1.9653 -0.0491535 2.36882 0.0724328C2.92864 0.247629 3.45979 0.509991 3.9441 0.850573C4.37727 1.09656 4.81044 1.34192 5.2044 1.5879C5.24663 1.54837 5.28582 1.58915 5.32503 1.63057Z" fill="currentColor"/>
<path d="M5.40051 14.2481V10.6838C5.39958 10.6356 5.41009 10.588 5.43114 10.5451C5.45219 10.5021 5.4831 10.4653 5.52114 10.4378C6.86048 9.65907 8.19982 8.88093 9.49934 8.10281C9.85348 7.89761 10.2082 7.69305 10.6016 7.44706C10.3739 7.29494 10.1371 7.15806 9.89268 7.03728C9.30205 6.66829 8.71148 6.34074 8.12084 5.9705C8.09174 5.94994 8.05733 5.93894 8.02215 5.93894C7.98698 5.93894 7.95264 5.94994 7.92354 5.9705C7.17544 6.46185 6.46655 6.91178 5.71785 7.40439C5.67863 7.40439 5.67864 7.44518 5.63883 7.44518V4.82339C5.6377 4.76934 5.64789 4.71569 5.66873 4.66616C5.68956 4.61664 5.72053 4.57242 5.75946 4.53661C6.42913 4.04526 7.09822 3.59532 7.72867 3.10272C7.76497 3.08256 7.80544 3.07202 7.84658 3.07202C7.88773 3.07202 7.92827 3.08256 7.96456 3.10272C8.86952 3.63549 9.81548 4.20904 10.7216 4.74117C11.3515 5.10953 11.982 5.47851 12.6523 5.84686C13.1317 6.10646 13.5285 6.50487 13.7949 6.99398C13.9627 7.31227 14.0301 7.67735 13.9877 8.03766C13.9453 8.39796 13.7951 8.7353 13.5584 9.00205C13.2471 9.37031 12.8732 9.67578 12.4556 9.90318C11.5506 10.4359 10.6831 11.0095 9.7775 11.5416C8.63544 12.2382 7.53259 12.8933 6.39053 13.5899C6.03096 13.8384 5.71543 14.0404 5.40051 14.2481Z" fill="currentColor"/>
</svg>
