<svg width="238" height="48" viewBox="0 0 238 48" fill="none" xmlns="http://www.w3.org/2000/svg">
<path d="M61.4537 17.8485V22.8928H71.6263V27.9317H61.4537V35.7966H54.8828V12.8096H72.9844V17.8485H61.4537Z" fill="currentColor"/>
<path d="M76.4541 12.8095H83.025V35.6658H76.4541V12.8095Z" fill="currentColor"/>
<path d="M97.9099 29.6458H94.3082V35.6685H87.7373V12.8095H98.2755C104.599 12.8095 108.566 16.0035 108.566 21.2876C108.631 22.7986 108.242 24.2947 107.447 25.5858C106.653 26.877 105.489 27.905 104.104 28.5394L109.053 35.6658H102.119L97.9099 29.6458ZM98.0336 17.8484H94.4319V24.4843H98.0281C100.755 24.4843 102.119 23.2552 102.119 21.165C101.995 19.2001 100.755 17.8484 98.0281 17.8484H98.0336Z" fill="currentColor"/>
<path d="M131.006 30.6296V35.6685H112.533V12.8095H130.635V17.8484H118.98V21.6637H129.271V26.4573H118.98V30.6351L131.006 30.6296Z" fill="currentColor"/>
<path d="M141.421 17.8484V22.8928H151.593V27.9317H141.421V35.7966H134.85V12.8095H152.951V17.8484H141.421Z" fill="currentColor"/>
<path d="M156.298 12.8095H162.869V30.507H173.894V35.6685H156.413V12.8095H156.298Z" fill="currentColor"/>
<path d="M176.752 12.8095H183.323V35.6658H176.752V12.8095Z" fill="currentColor"/>
<path d="M210.104 12.8095V35.6658H204.773L194.601 23.5005V35.6658H188.159V12.8095H193.49L203.663 24.9748V12.8095H210.104Z" fill="currentColor"/>
<path d="M223.866 27.4329L221.391 30.0137V35.7884H214.938V12.8095H221.386V22.2714L230.313 12.8095H237.502L228.08 22.8928L238 35.6739H230.436L223.866 27.4329Z" fill="currentColor"/>
<path d="M16.7502 4.88842C16.1316 5.25632 15.6341 5.50162 15.1392 5.74961C13.2807 6.7334 11.5431 7.59181 9.68453 8.5756C9.5558 8.64839 9.45159 8.75748 9.3855 8.88897C9.31942 9.02047 9.29442 9.16842 9.31335 9.31412V46.5486C9.31335 47.0391 9.18969 47.4097 8.69481 47.5323C7.77434 47.9098 6.7758 48.0623 5.78338 47.9769C4.79096 47.8916 3.83353 47.5709 2.99243 47.0418C2.37431 46.6111 1.84823 46.0636 1.44391 45.4309C1.0396 44.7982 0.765171 44.0926 0.636432 43.3546C0.327663 41.3625 0.203398 39.3465 0.265245 37.3319C0.141525 27.4994 0.0178993 17.547 0.0178993 7.7145C-0.0791099 6.15032 0.219297 4.58688 0.886463 3.16613C1.44789 1.9794 2.41841 1.03032 3.62304 0.489747C4.82768 -0.050828 6.18734 -0.147392 7.45741 0.217461C9.21628 0.744425 10.8848 1.5318 12.4063 2.55294C13.781 3.29147 15.1337 4.0273 16.3736 4.76583C16.5028 4.64047 16.6265 4.76306 16.7502 4.88842Z" fill="currentColor"/>
<path d="M16.9984 42.736V32.0423C16.9942 31.8984 17.026 31.7558 17.0907 31.6269C17.1555 31.4981 17.2512 31.3871 17.3696 31.3038C21.5843 28.9683 25.7989 26.6328 29.8926 24.3001C31.0089 23.6869 32.1253 23.071 33.3625 22.3324C32.6455 21.8761 31.8998 21.4656 31.13 21.1034C29.2715 19.997 27.41 19.0132 25.5515 17.9095C25.46 17.8474 25.3516 17.8141 25.2407 17.8141C25.1298 17.8141 25.0218 17.8474 24.9303 17.9095C22.5741 19.3838 20.3443 20.7354 17.9881 22.2098C17.8644 22.2098 17.8645 22.3324 17.7408 22.3324V14.4676C17.7361 14.3059 17.7667 14.1452 17.8307 13.9965C17.8948 13.8478 17.9909 13.7147 18.112 13.6064C20.2207 12.132 22.3267 10.7803 24.3117 9.306C24.4263 9.24517 24.5543 9.21335 24.6843 9.21335C24.8142 9.21335 24.9422 9.24517 25.0568 9.306C27.9079 10.903 30.8853 12.6253 33.7364 14.2113C35.7187 15.3177 37.7036 16.4242 39.8096 17.5279C41.3189 18.3064 42.568 19.502 43.4057 20.9698C43.934 21.9245 44.1462 23.0195 44.0125 24.1002C43.8788 25.1809 43.406 26.1927 42.6607 26.9925C41.681 28.0979 40.5036 29.0144 39.1881 29.6959C36.337 31.2929 33.6099 33.0152 30.7588 34.6013C27.1627 36.6915 23.6929 38.6563 20.0968 40.7466C18.9806 41.5069 17.9909 42.1255 16.9984 42.736Z" fill="currentColor"/>
</svg>
