<svg width="16" height="16" viewBox="0 0 16 16" fill="none" xmlns="http://www.w3.org/2000/svg">
<path d="M15.4208 5.36759C15.0727 4.55686 14.3668 3.6815 13.8139 3.40478C14.2082 4.14411 14.4819 4.93812 14.6251 5.75855L14.6266 5.77156C13.7209 3.58546 12.1852 2.7043 10.9309 0.785106C10.8661 0.687267 10.8032 0.588276 10.7422 0.488184C10.7108 0.435902 10.6813 0.38251 10.654 0.328118C10.6019 0.230589 10.5619 0.127516 10.5345 0.0209915C10.5346 0.016076 10.5327 0.0113193 10.5294 0.00762902C10.526 0.00393873 10.5214 0.00157306 10.5163 0.000983305C10.5114 -0.000327768 10.5062 -0.000327768 10.5012 0.000983305C10.5002 0.000983305 10.4986 0.00278405 10.4973 0.00298413L10.4915 0.00618545L10.4946 0.000983305C8.48271 1.14145 7.80008 3.25272 7.73726 4.30876C6.93381 4.36217 6.16564 4.64874 5.53293 5.1311C5.46691 5.07703 5.39792 5.02647 5.32626 4.97963C5.14375 4.36117 5.13597 3.70662 5.30373 3.08425C4.56488 3.43078 3.90836 3.92201 3.37572 4.52685H3.372C3.05456 4.13729 3.07688 2.85276 3.09507 2.58445C3.00116 2.62099 2.91151 2.66706 2.82764 2.7219C2.54741 2.91554 2.28543 3.13281 2.04478 3.37117C1.77055 3.64035 1.52009 3.93128 1.29602 4.24093C0.78105 4.94773 0.415796 5.74609 0.221342 6.5903L0.210595 6.64152C0.181051 6.8024 0.154799 6.96383 0.131855 7.12572C0.131855 7.13152 0.130615 7.13692 0.129995 7.14272C0.0598797 7.49554 0.016433 7.85283 0 8.21176V8.25178C0.00175609 10.1934 0.755792 12.0638 2.11309 13.4933C3.47038 14.9227 5.33217 15.8072 7.33051 15.972C9.32884 16.1368 11.3183 15.5698 12.9058 14.3832C14.4932 13.1965 15.5631 11.4765 15.904 9.56312C15.9174 9.46308 15.9284 9.36404 15.9403 9.263C16.1054 7.94283 15.9267 6.60388 15.4208 5.36759ZM6.1889 11.4377C6.2263 11.4551 6.26144 11.4737 6.29988 11.4905L6.30546 11.4939C6.2666 11.4759 6.22775 11.4572 6.1889 11.4377ZM14.6272 5.77336V5.76596L14.6286 5.77396L14.6272 5.77336Z" fill="url(#paint0_linear_4989_1618)"/>
<path d="M15.4208 5.36729C15.0727 4.55655 14.3668 3.68119 13.8139 3.40448C14.2082 4.14381 14.4819 4.93781 14.6251 5.75825V5.76565L14.6266 5.77366C15.244 7.48411 15.1547 9.35941 14.3773 11.0076C13.4593 12.9144 11.2372 14.8692 7.75896 14.7742C4.00069 14.6711 0.690893 11.971 0.0721273 8.43495C-0.040507 7.87732 0.0721273 7.59461 0.128755 7.14142C0.0515075 7.49344 0.00840198 7.85168 0 8.21146V8.25148C0.00175609 10.1931 0.755792 12.0635 2.11309 13.493C3.47038 14.9224 5.33217 15.8069 7.33051 15.9717C9.32884 16.1365 11.3183 15.5695 12.9058 14.3829C14.4932 13.1962 15.5631 11.4762 15.904 9.56282C15.9174 9.46277 15.9284 9.36373 15.9403 9.26269C16.1054 7.94253 15.9267 6.60357 15.4208 5.36729Z" fill="url(#paint1_radial_4989_1618)"/>
<path d="M15.4208 5.36729C15.0727 4.55655 14.3668 3.68119 13.8139 3.40448C14.2082 4.14381 14.4819 4.93781 14.6251 5.75825V5.76565L14.6266 5.77366C15.244 7.48411 15.1547 9.35941 14.3773 11.0076C13.4593 12.9144 11.2372 14.8692 7.75896 14.7742C4.00069 14.6711 0.690893 11.971 0.0721273 8.43495C-0.040507 7.87732 0.0721273 7.59461 0.128755 7.14142C0.0515075 7.49344 0.00840198 7.85168 0 8.21146V8.25148C0.00175609 10.1931 0.755792 12.0635 2.11309 13.493C3.47038 14.9224 5.33217 15.8069 7.33051 15.9717C9.32884 16.1365 11.3183 15.5695 12.9058 14.3829C14.4932 13.1962 15.5631 11.4762 15.904 9.56282C15.9174 9.46277 15.9284 9.36373 15.9403 9.26269C16.1054 7.94253 15.9267 6.60357 15.4208 5.36729Z" fill="url(#paint2_radial_4989_1618)"/>
<path d="M11.5284 6.27931C11.5458 6.29112 11.5619 6.30292 11.5782 6.31473C11.377 5.96933 11.1266 5.65309 10.8342 5.37534C8.3447 2.96475 10.1818 0.14859 10.4916 0.00553096L10.4947 0.00112915C8.48276 1.1416 7.80013 3.25287 7.7373 4.3089C7.83072 4.3027 7.92331 4.2949 8.01879 4.2949C8.73268 4.29618 9.43349 4.48047 10.0499 4.82903C10.6664 5.17759 11.1765 5.67798 11.5284 6.27931Z" fill="url(#paint3_radial_4989_1618)"/>
<path d="M8.02379 6.76045C8.01057 6.95333 7.30665 7.6186 7.06051 7.6186C4.78282 7.6186 4.41309 8.95255 4.41309 8.95255C4.51394 10.0758 5.32243 11.001 6.29976 11.4904C6.3444 11.5128 6.38966 11.533 6.43492 11.5528C6.51332 11.5864 6.59172 11.6175 6.67011 11.6461C7.00553 11.761 7.35684 11.8266 7.71234 11.8407C11.7046 12.022 12.4779 7.21883 9.59695 5.82506C10.2766 5.73945 10.9649 5.90123 11.5283 6.27905C11.1763 5.67775 10.6662 5.1774 10.0497 4.82888C9.43329 4.48036 8.7325 4.2961 8.01862 4.29483C7.92356 4.29483 7.83056 4.30243 7.73714 4.30864C6.9337 4.36205 6.16553 4.64862 5.53282 5.13097C5.65496 5.23102 5.79281 5.36487 6.08317 5.64199C6.62671 6.1602 8.02069 6.69742 8.02379 6.76045Z" fill="url(#paint4_radial_4989_1618)"/>
<path d="M8.02379 6.76045C8.01057 6.95333 7.30665 7.6186 7.06051 7.6186C4.78282 7.6186 4.41309 8.95255 4.41309 8.95255C4.51394 10.0758 5.32243 11.001 6.29976 11.4904C6.3444 11.5128 6.38966 11.533 6.43492 11.5528C6.51332 11.5864 6.59172 11.6175 6.67011 11.6461C7.00553 11.761 7.35684 11.8266 7.71234 11.8407C11.7046 12.022 12.4779 7.21883 9.59695 5.82506C10.2766 5.73945 10.9649 5.90123 11.5283 6.27905C11.1763 5.67775 10.6662 5.1774 10.0497 4.82888C9.43329 4.48036 8.7325 4.2961 8.01862 4.29483C7.92356 4.29483 7.83056 4.30243 7.73714 4.30864C6.9337 4.36205 6.16553 4.64862 5.53282 5.13097C5.65496 5.23102 5.79281 5.36487 6.08317 5.64199C6.62671 6.1602 8.02069 6.69742 8.02379 6.76045Z" fill="url(#paint5_radial_4989_1618)"/>
<path d="M5.15971 4.87333C5.22461 4.91335 5.27814 4.94817 5.32505 4.97938C5.14258 4.36097 5.1348 3.7065 5.30252 3.0842C4.56367 3.43073 3.90715 3.92195 3.37451 4.52679C3.41357 4.52579 4.57546 4.50558 5.15971 4.87333Z" fill="url(#paint6_radial_4989_1618)"/>
<path d="M0.073037 8.43551C0.691182 11.9718 4.0016 14.6717 7.75987 14.7747C11.2381 14.87 13.4602 12.9152 14.3782 11.0082C15.1555 9.36002 15.2448 7.48481 14.6275 5.77441V5.76701C14.6275 5.76101 14.6262 5.75781 14.6275 5.75961L14.6289 5.77261C14.9131 7.56875 13.9694 9.30887 12.4942 10.4856L12.4897 10.4956C9.61534 12.7619 6.86458 11.8629 6.30781 11.496C6.26896 11.478 6.2301 11.4592 6.19125 11.4397C4.51538 10.6642 3.82304 9.18602 3.97142 7.9183C3.57361 7.92398 3.18263 7.81785 2.84586 7.61276C2.50908 7.40768 2.24097 7.11244 2.074 6.76282C2.51392 6.5019 3.01552 6.3544 3.53102 6.33436C4.04651 6.31433 4.55872 6.42243 5.01882 6.64837C5.9674 7.06528 7.04681 7.10635 8.02626 6.76282C8.02316 6.69979 6.62918 6.16257 6.08564 5.64436C5.79527 5.36725 5.65743 5.23379 5.53529 5.13355C5.46928 5.07942 5.40029 5.02879 5.32862 4.98189C5.28108 4.95047 5.22756 4.91646 5.16328 4.87564C4.57903 4.50789 3.41714 4.5281 3.3787 4.5291H3.37498C3.05754 4.13954 3.07986 2.85501 3.09804 2.5867C3.00413 2.62324 2.91449 2.66932 2.83062 2.72416C2.55038 2.91779 2.28841 3.13506 2.04775 3.37342C1.77254 3.64184 1.52104 3.93211 1.29589 4.24118C0.780927 4.94798 0.415672 5.74634 0.221218 6.59055C0.217292 6.60636 -0.0672909 7.81105 0.073037 8.43551Z" fill="url(#paint7_radial_4989_1618)"/>
<path d="M10.8344 5.3752C11.1269 5.65325 11.3773 5.96983 11.5784 6.31558C11.6225 6.3476 11.6636 6.37961 11.6985 6.41082C13.5145 8.03149 12.563 10.3224 12.4921 10.4855C13.9673 9.30882 14.9101 7.5687 14.6268 5.77256C13.7208 3.58546 12.185 2.7043 10.9307 0.785106C10.866 0.687267 10.8031 0.588276 10.7421 0.488184C10.7106 0.435902 10.6812 0.38251 10.6538 0.328118C10.6018 0.230589 10.5617 0.127516 10.5344 0.0209915C10.5344 0.016076 10.5326 0.0113193 10.5292 0.00762903C10.5258 0.00393873 10.5212 0.00157306 10.5162 0.000983305C10.5112 -0.000327768 10.506 -0.000327768 10.5011 0.000983305C10.5 0.000983305 10.4984 0.00278405 10.4972 0.00298413L10.4914 0.00618545C10.1816 0.148244 8.34449 2.9646 10.8344 5.3752Z" fill="url(#paint8_radial_4989_1618)"/>
<path d="M11.6977 6.40941C11.6592 6.37588 11.6192 6.3441 11.5776 6.31417C11.5613 6.30217 11.5452 6.29056 11.5278 6.27876C10.9644 5.90087 10.2762 5.73901 9.59651 5.82457C12.4775 7.21914 11.7045 12.0217 7.7119 11.8404C7.35639 11.8263 7.00508 11.7607 6.66967 11.6458C6.59127 11.6174 6.51287 11.5863 6.43448 11.5525C6.38922 11.5325 6.34396 11.5125 6.29932 11.4901L6.3049 11.4935C6.86166 11.8615 9.61159 12.7604 12.4868 10.4931L12.4913 10.4831C12.563 10.321 13.5145 8.02948 11.6977 6.40941Z" fill="url(#paint9_radial_4989_1618)"/>
<path d="M4.41333 8.9525C4.41333 8.9525 4.78306 7.61856 7.06076 7.61856C7.3069 7.61856 8.01143 6.95328 8.02404 6.7602C7.04461 7.1038 5.9652 7.06279 5.0166 6.64595C4.55649 6.42001 4.04429 6.31191 3.52879 6.33194C3.0133 6.35198 2.51169 6.49948 2.07178 6.7604C2.23874 7.11002 2.50686 7.40526 2.84363 7.61035C3.18041 7.81543 3.57139 7.92156 3.9692 7.91588C3.82081 9.1838 4.51315 10.662 6.18903 11.4373C6.22643 11.4547 6.26157 11.4733 6.30001 11.4901C5.32185 11.0009 4.51419 10.0756 4.41333 8.9525Z" fill="url(#paint10_radial_4989_1618)"/>
<path d="M15.4208 5.36759C15.0727 4.55686 14.3668 3.6815 13.8139 3.40478C14.2082 4.14411 14.4819 4.93812 14.6251 5.75855L14.6266 5.77156C13.7209 3.58546 12.1852 2.7043 10.9309 0.785106C10.8661 0.687267 10.8032 0.588276 10.7422 0.488184C10.7108 0.435902 10.6813 0.38251 10.654 0.328118C10.6019 0.230589 10.5619 0.127516 10.5345 0.0209915C10.5346 0.016076 10.5327 0.0113193 10.5294 0.00762902C10.526 0.00393873 10.5214 0.00157306 10.5163 0.000983305C10.5114 -0.000327768 10.5062 -0.000327768 10.5012 0.000983305C10.5002 0.000983305 10.4986 0.00278405 10.4973 0.00298413L10.4915 0.00618545L10.4946 0.000983305C8.48271 1.14145 7.80008 3.25272 7.73726 4.30876C7.83067 4.30255 7.92326 4.29475 8.01874 4.29475C8.73263 4.29604 9.43344 4.48033 10.0499 4.82889C10.6664 5.17744 11.1765 5.67783 11.5284 6.27917C10.965 5.90128 10.2767 5.73943 9.59707 5.82498C12.478 7.21956 11.7051 12.0221 7.71246 11.8409C7.35695 11.8267 7.00564 11.7611 6.67023 11.6462C6.59183 11.6178 6.51343 11.5867 6.43504 11.5529C6.38978 11.5329 6.34452 11.5129 6.29988 11.4905L6.30546 11.4939C6.2666 11.4759 6.22775 11.4572 6.1889 11.4377C6.2263 11.4551 6.26144 11.4737 6.29988 11.4905C5.32171 11.0011 4.51405 10.0759 4.4132 8.95267C4.4132 8.95267 4.78293 7.61872 7.06062 7.61872C7.30677 7.61872 8.0113 6.95345 8.0239 6.76037C8.02081 6.69754 6.62683 6.16012 6.08329 5.64191C5.79292 5.36499 5.65507 5.23154 5.53293 5.1313C5.46692 5.07716 5.39793 5.02654 5.32626 4.97963C5.14375 4.36117 5.13597 3.70662 5.30373 3.08425C4.56488 3.43078 3.90836 3.92201 3.37572 4.52685H3.372C3.05456 4.13729 3.07688 2.85276 3.09507 2.58445C3.00116 2.62099 2.91151 2.66706 2.82764 2.7219C2.54741 2.91554 2.28543 3.13281 2.04478 3.37117C1.77055 3.64035 1.52009 3.93128 1.29602 4.24093C0.78105 4.94773 0.415796 5.74609 0.221342 6.5903L0.210595 6.64152C0.195508 6.70955 0.127928 7.05629 0.118214 7.13072C0.118214 7.12472 0.118214 7.13632 0.118214 7.13072C0.056402 7.48844 0.0169256 7.84944 0 8.21176V8.25178C0.00175609 10.1934 0.755792 12.0638 2.11309 13.4933C3.47038 14.9227 5.33217 15.8072 7.33051 15.972C9.32884 16.1368 11.3183 15.5698 12.9058 14.3832C14.4932 13.1965 15.5631 11.4765 15.904 9.56312C15.9174 9.46308 15.9284 9.36404 15.9403 9.263C16.1054 7.94283 15.9267 6.60388 15.4208 5.36759Z" fill="url(#paint11_linear_4989_1618)"/>
<defs>
<linearGradient id="paint0_linear_4989_1618" x1="14.3606" y1="2.4788" x2="1.47928" y2="15.3159" gradientUnits="userSpaceOnUse">
<stop offset="0.048" stop-color="#FFF44F"/>
<stop offset="0.111" stop-color="#FFE847"/>
<stop offset="0.225" stop-color="#FFC830"/>
<stop offset="0.368" stop-color="#FF980E"/>
<stop offset="0.401" stop-color="#FF8B16"/>
<stop offset="0.462" stop-color="#FF672A"/>
<stop offset="0.534" stop-color="#FF3647"/>
<stop offset="0.705" stop-color="#E31587"/>
</linearGradient>
<radialGradient id="paint1_radial_4989_1618" cx="0" cy="0" r="1" gradientUnits="userSpaceOnUse" gradientTransform="translate(13.7461 1.77541) scale(16.6982 16.1661)">
<stop offset="0.129" stop-color="#FFBD4F"/>
<stop offset="0.186" stop-color="#FFAC31"/>
<stop offset="0.247" stop-color="#FF9D17"/>
<stop offset="0.283" stop-color="#FF980E"/>
<stop offset="0.403" stop-color="#FF563B"/>
<stop offset="0.467" stop-color="#FF3750"/>
<stop offset="0.71" stop-color="#F5156C"/>
<stop offset="0.782" stop-color="#EB0878"/>
<stop offset="0.86" stop-color="#E50080"/>
</radialGradient>
<radialGradient id="paint2_radial_4989_1618" cx="0" cy="0" r="1" gradientUnits="userSpaceOnUse" gradientTransform="translate(7.64446 8.38453) scale(16.6982 16.1661)">
<stop offset="0.3" stop-color="#960E18"/>
<stop offset="0.351" stop-color="#B11927" stop-opacity="0.74"/>
<stop offset="0.435" stop-color="#DB293D" stop-opacity="0.343"/>
<stop offset="0.497" stop-color="#F5334B" stop-opacity="0.094"/>
<stop offset="0.53" stop-color="#FF3750" stop-opacity="0"/>
</radialGradient>
<radialGradient id="paint3_radial_4989_1618" cx="0" cy="0" r="1" gradientUnits="userSpaceOnUse" gradientTransform="translate(9.65767 -1.89285) scale(12.0971 11.7116)">
<stop offset="0.132" stop-color="#FFF44F"/>
<stop offset="0.252" stop-color="#FFDC3E"/>
<stop offset="0.506" stop-color="#FF9D12"/>
<stop offset="0.526" stop-color="#FF980E"/>
</radialGradient>
<radialGradient id="paint4_radial_4989_1618" cx="0" cy="0" r="1" gradientUnits="userSpaceOnUse" gradientTransform="translate(5.79735 12.6075) scale(7.95075 7.69737)">
<stop offset="0.353" stop-color="#3A8EE6"/>
<stop offset="0.472" stop-color="#5C79F0"/>
<stop offset="0.669" stop-color="#9059FF"/>
<stop offset="1" stop-color="#C139E6"/>
</radialGradient>
<radialGradient id="paint5_radial_4989_1618" cx="0" cy="0" r="1" gradientUnits="userSpaceOnUse" gradientTransform="translate(8.55683 7.05984) rotate(-13.1738) scale(4.20813 4.78625)">
<stop offset="0.206" stop-color="#9059FF" stop-opacity="0"/>
<stop offset="0.278" stop-color="#8C4FF3" stop-opacity="0.064"/>
<stop offset="0.747" stop-color="#7716A8" stop-opacity="0.45"/>
<stop offset="0.975" stop-color="#6E008B" stop-opacity="0.6"/>
</radialGradient>
<radialGradient id="paint6_radial_4989_1618" cx="0" cy="0" r="1" gradientUnits="userSpaceOnUse" gradientTransform="translate(7.43389 1.11419) scale(5.71976 5.53748)">
<stop stop-color="#FFE226"/>
<stop offset="0.121" stop-color="#FFDB27"/>
<stop offset="0.295" stop-color="#FFC82A"/>
<stop offset="0.502" stop-color="#FFA930"/>
<stop offset="0.732" stop-color="#FF7E37"/>
<stop offset="0.792" stop-color="#FF7139"/>
</radialGradient>
<radialGradient id="paint7_radial_4989_1618" cx="0" cy="0" r="1" gradientUnits="userSpaceOnUse" gradientTransform="translate(11.9294 -2.39775) scale(24.4036 23.6259)">
<stop offset="0.113" stop-color="#FFF44F"/>
<stop offset="0.456" stop-color="#FF980E"/>
<stop offset="0.622" stop-color="#FF5634"/>
<stop offset="0.716" stop-color="#FF3647"/>
<stop offset="0.904" stop-color="#E31587"/>
</radialGradient>
<radialGradient id="paint8_radial_4989_1618" cx="0" cy="0" r="1" gradientUnits="userSpaceOnUse" gradientTransform="translate(9.87252 -1.08435) rotate(83.7792) scale(17.3224 11.7341)">
<stop stop-color="#FFF44F"/>
<stop offset="0.06" stop-color="#FFE847"/>
<stop offset="0.168" stop-color="#FFC830"/>
<stop offset="0.304" stop-color="#FF980E"/>
<stop offset="0.356" stop-color="#FF8B16"/>
<stop offset="0.455" stop-color="#FF672A"/>
<stop offset="0.57" stop-color="#FF3647"/>
<stop offset="0.737" stop-color="#E31587"/>
</radialGradient>
<radialGradient id="paint9_radial_4989_1618" cx="0" cy="0" r="1" gradientUnits="userSpaceOnUse" gradientTransform="translate(7.29918 3.16487) scale(15.2356 14.7501)">
<stop offset="0.137" stop-color="#FFF44F"/>
<stop offset="0.48" stop-color="#FF980E"/>
<stop offset="0.592" stop-color="#FF5634"/>
<stop offset="0.655" stop-color="#FF3647"/>
<stop offset="0.904" stop-color="#E31587"/>
</radialGradient>
<radialGradient id="paint10_radial_4989_1618" cx="0" cy="0" r="1" gradientUnits="userSpaceOnUse" gradientTransform="translate(11.3208 4.02848) scale(16.6753 16.1438)">
<stop offset="0.094" stop-color="#FFF44F"/>
<stop offset="0.231" stop-color="#FFE141"/>
<stop offset="0.509" stop-color="#FFAF1E"/>
<stop offset="0.626" stop-color="#FF980E"/>
</radialGradient>
<linearGradient id="paint11_linear_4989_1618" x1="14.2008" y1="2.41238" x2="3.25284" y2="13.7205" gradientUnits="userSpaceOnUse">
<stop offset="0.167" stop-color="#FFF44F" stop-opacity="0.8"/>
<stop offset="0.266" stop-color="#FFF44F" stop-opacity="0.634"/>
<stop offset="0.489" stop-color="#FFF44F" stop-opacity="0.217"/>
<stop offset="0.6" stop-color="#FFF44F" stop-opacity="0"/>
</linearGradient>
</defs>
</svg>
