<svg width="13" height="12" viewBox="0 0 13 12" fill="none" xmlns="http://www.w3.org/2000/svg">
<g clip-path="url(#clip0_290_14472)">
<path d="M11.4094 4.00105C11.1583 3.39559 10.6497 2.74194 10.2503 2.53535C10.5753 3.17408 10.7635 3.81483 10.8354 4.29301C10.8354 4.29394 10.8357 4.29628 10.8365 4.30265C10.1832 2.67038 9.0754 2.0122 8.17081 0.579093C8.12514 0.506629 8.07933 0.433978 8.0347 0.357381C8.012 0.318277 7.99076 0.27831 7.9711 0.237572C7.93351 0.164827 7.90454 0.0879507 7.88472 0.00848265C7.885 0.00068526 7.87932 -0.00603824 7.87158 -0.0070421C7.86804 -0.0080693 7.86427 -0.0080693 7.86073 -0.0070421C7.85992 -0.00676195 7.8587 -0.00580479 7.85784 -0.00547795C7.85656 -0.00496435 7.84785 0.00021835 7.84825 -0.00024856C6.39688 0.851792 5.9123 2.42185 5.86704 3.21043C5.28748 3.25038 4.73335 3.46441 4.27692 3.82465C4.22913 3.7842 4.17917 3.74638 4.12726 3.71138C3.99558 3.24956 3.98997 2.76075 4.11105 2.29601C3.51754 2.56692 3.05589 2.99512 2.72029 3.37322H2.71761C2.48858 3.08243 2.50472 2.12316 2.51779 1.92288C2.51504 1.91046 2.34693 2.01036 2.3249 2.02542C2.12279 2.17002 1.93384 2.33227 1.76027 2.51028C1.56275 2.71105 1.38228 2.928 1.22074 3.15884C1.22074 3.15912 1.22058 3.15947 1.22048 3.15975C1.22048 3.15945 1.22065 3.15912 1.22074 3.15884C0.849222 3.68659 0.585723 4.2829 0.445497 4.91335C0.442725 4.92591 0.440396 4.93891 0.437718 4.95156C0.426842 5.00255 0.387715 5.25762 0.380868 5.31305C0.380332 5.31732 0.380099 5.3214 0.379587 5.32568C0.328979 5.58939 0.297654 5.85644 0.285823 6.12472C0.285823 6.1346 0.285217 6.14438 0.285217 6.1543C0.285357 9.35252 2.87216 11.9451 6.06298 11.9451C8.92062 11.9451 11.2933 9.86567 11.7579 7.1343C11.7676 7.06018 11.7755 6.98566 11.7841 6.91088C11.8989 5.91776 11.7714 4.87394 11.4094 4.00105ZM4.75014 8.53386C4.77716 8.54679 4.80255 8.56094 4.83031 8.57336C4.83147 8.57415 4.83305 8.57504 4.83422 8.57576C4.80597 8.56225 4.77795 8.54826 4.75014 8.53386ZM10.8369 4.30408L10.8362 4.29845C10.8364 4.3005 10.8368 4.30265 10.8371 4.30468L10.8369 4.30408Z" fill="url(#paint0_linear_290_14472)"/>
<path d="M11.4094 4.00086C11.1583 3.39539 10.6497 2.74174 10.2503 2.53516C10.5753 3.17389 10.7635 3.81463 10.8353 4.29281C10.8353 4.29141 10.8356 4.29398 10.8362 4.29825C10.8365 4.30031 10.8369 4.30246 10.8372 4.30449C11.3823 5.78583 11.0853 7.2922 10.6574 8.21269C9.99531 9.63692 8.39235 11.0966 5.88341 11.0254C3.17266 10.9485 0.784562 8.93229 0.338775 6.29161C0.25754 5.8752 0.338775 5.66376 0.379648 5.32564C0.329855 5.5863 0.310897 5.66158 0.285884 6.12469C0.285884 6.13456 0.285278 6.14435 0.285278 6.15427C0.285348 9.35232 2.87215 11.9449 6.06297 11.9449C8.92061 11.9449 11.2933 9.86548 11.7578 7.1341C11.7676 7.05998 11.7755 6.98546 11.7841 6.91068C11.8989 5.91757 11.7714 4.87374 11.4094 4.00086Z" fill="url(#paint1_radial_290_14472)"/>
<path d="M11.4094 4.00086C11.1583 3.39539 10.6497 2.74174 10.2503 2.53516C10.5753 3.17389 10.7635 3.81463 10.8353 4.29281C10.8353 4.29141 10.8356 4.29398 10.8362 4.29825C10.8365 4.30031 10.8369 4.30246 10.8372 4.30449C11.3823 5.78583 11.0853 7.2922 10.6574 8.21269C9.99531 9.63692 8.39235 11.0966 5.88341 11.0254C3.17266 10.9485 0.784562 8.93229 0.338775 6.29161C0.25754 5.8752 0.338775 5.66376 0.379648 5.32564C0.329855 5.5863 0.310897 5.66158 0.285884 6.12469C0.285884 6.13456 0.285278 6.14435 0.285278 6.15427C0.285348 9.35232 2.87215 11.9449 6.06297 11.9449C8.92061 11.9449 11.2933 9.86548 11.7578 7.1341C11.7676 7.05998 11.7755 6.98546 11.7841 6.91068C11.8989 5.91757 11.7714 4.87374 11.4094 4.00086Z" fill="url(#paint2_radial_290_14472)"/>
<path d="M8.60164 4.68176C8.61424 4.69063 8.62567 4.69945 8.63753 4.70825C8.49253 4.45028 8.31196 4.21412 8.10117 4.0067C6.30521 2.20664 7.84931 -0.000509653 7.84973 -0.000976562C6.39837 0.851064 5.91241 2.42177 5.86716 3.21034C5.93446 3.20567 6.00161 3.19999 6.0701 3.19999C7.15316 3.20002 8.09649 3.79694 8.60164 4.68176Z" fill="url(#paint3_radial_290_14472)"/>
<path d="M6.07324 5.04138C6.06378 5.18545 5.55612 5.68224 5.37859 5.68224C3.73597 5.68224 3.46933 6.67837 3.46933 6.67837C3.5421 7.51724 4.12457 8.20804 4.83004 8.57356C4.86222 8.59023 4.8948 8.60528 4.9274 8.62018C4.98328 8.64499 5.03987 8.66818 5.09708 8.68972C5.33896 8.77559 5.59233 8.82457 5.84872 8.83507C8.72779 8.97045 9.28558 5.38428 7.20785 4.34289C7.73994 4.25011 8.29224 4.46466 8.60067 4.68189C8.09562 3.79714 7.15248 3.2002 6.06965 3.2002C6.00114 3.2002 5.93406 3.20587 5.86674 3.21054C5.28729 3.25048 4.73327 3.46451 4.27693 3.82476C4.36499 3.89946 4.46442 3.99934 4.67387 4.2062C5.06571 4.59338 6.07109 4.99434 6.07324 5.04138Z" fill="url(#paint4_radial_290_14472)"/>
<path d="M6.07324 5.04138C6.06378 5.18545 5.55612 5.68224 5.37859 5.68224C3.73597 5.68224 3.46933 6.67837 3.46933 6.67837C3.5421 7.51724 4.12457 8.20804 4.83004 8.57356C4.86222 8.59023 4.8948 8.60528 4.9274 8.62018C4.98328 8.64499 5.03987 8.66818 5.09708 8.68972C5.33896 8.77559 5.59233 8.82457 5.84872 8.83507C8.72779 8.97045 9.28558 5.38428 7.20785 4.34289C7.73994 4.25011 8.29224 4.46466 8.60067 4.68189C8.09562 3.79714 7.15248 3.2002 6.06965 3.2002C6.00114 3.2002 5.93406 3.20587 5.86674 3.21054C5.28729 3.25048 4.73327 3.46451 4.27693 3.82476C4.36499 3.89946 4.46442 3.99934 4.67387 4.2062C5.06571 4.59338 6.07109 4.99434 6.07324 5.04138Z" fill="url(#paint5_radial_290_14472)"/>
<path d="M4.00759 3.63175C4.04783 3.65778 4.08775 3.68428 4.12734 3.71127C3.99566 3.24945 3.99005 2.76064 4.11113 2.2959C3.51762 2.5668 3.05597 2.995 2.72037 3.37311C2.74813 3.37234 3.58618 3.35721 4.00759 3.63175Z" fill="url(#paint6_radial_290_14472)"/>
<path d="M0.338947 6.29193C0.784734 8.93261 3.17283 10.9488 5.88358 11.0257C8.39253 11.0969 9.99548 9.63715 10.6575 8.21303C11.0855 7.29247 11.3825 5.78629 10.8373 4.30483L10.8371 4.3042L10.8364 4.2986C10.8358 4.29431 10.8354 4.29176 10.8355 4.29316C10.8355 4.2941 10.8359 4.29643 10.8367 4.3028C11.0416 5.64417 10.3609 6.94362 9.29682 7.82228L9.29363 7.82982C7.22022 9.52209 5.23613 8.85083 4.83441 8.57606C4.80618 8.56244 4.77812 8.54844 4.75026 8.53406C3.54144 7.955 3.04206 6.85106 3.14912 5.90433C2.12841 5.90433 1.78037 5.04139 1.78037 5.04139C1.78037 5.04139 2.69679 4.3864 3.90459 4.95606C5.02322 5.48364 6.07376 5.04143 6.07388 5.04139C6.07174 4.99434 5.06616 4.59338 4.67415 4.20622C4.46468 3.99936 4.36521 3.89963 4.27713 3.82478C4.22934 3.78432 4.17939 3.7465 4.12747 3.71151C4.08783 3.68457 4.04792 3.65807 4.00772 3.63199C3.58634 3.35745 2.74826 3.37258 2.7205 3.3733H2.71782C2.48879 3.08251 2.50493 2.12325 2.518 1.92294C2.51525 1.91052 2.34714 2.01042 2.32511 2.02547C2.123 2.17008 1.93405 2.33235 1.76048 2.51034C1.56296 2.71115 1.38249 2.92815 1.22095 3.15904C1.22095 3.15932 1.22079 3.15967 1.22069 3.15995C1.22069 3.15965 1.22086 3.15932 1.22095 3.15904C0.849433 3.68679 0.585934 4.2831 0.445707 4.91355C0.442935 4.92606 0.23773 5.82544 0.338947 6.29193Z" fill="url(#paint7_radial_290_14472)"/>
<path d="M8.10109 4.00695C8.31186 4.21438 8.49241 4.45054 8.63739 4.70851C8.6692 4.73246 8.69892 4.75634 8.72411 4.77964C10.0338 5.98938 9.34758 7.7004 9.2964 7.82233C10.3604 6.9437 11.041 5.64422 10.8361 4.30286C10.1828 2.67061 9.07517 2.01243 8.17067 0.57932C8.125 0.506855 8.0792 0.434204 8.03458 0.357608C8.01187 0.318504 7.99063 0.278536 7.97098 0.237798C7.93339 0.165054 7.90442 0.0881772 7.88461 0.00870916C7.88489 0.000911768 7.8792 -0.00581173 7.87147 -0.00681559C7.86793 -0.00784279 7.86586 -0.00823966 7.8623 -0.00721246C7.86148 -0.00693232 7.85859 -0.00557828 7.85773 -0.00525144C7.85645 -0.00473784 7.85487 -0.00354722 7.8535 -0.00284686C7.63352 0.110659 6.30529 2.2069 8.10109 4.00695Z" fill="url(#paint8_radial_290_14472)"/>
<path d="M8.72352 4.78011C8.6983 4.75681 8.66859 4.73293 8.6368 4.70898C8.62504 4.70011 8.61352 4.69128 8.60092 4.68248C8.29249 4.46525 7.74019 4.25071 7.2081 4.34348C9.28583 5.38488 8.72803 8.97105 5.84897 8.83567C5.59258 8.82518 5.33921 8.77618 5.09733 8.69032C5.04011 8.66875 4.98355 8.64556 4.92765 8.62077C4.89505 8.60588 4.8625 8.59082 4.83029 8.57415C4.83146 8.57494 4.83304 8.57583 4.8342 8.57655C5.23585 8.85128 7.21955 9.52258 9.29256 7.83032L9.29575 7.82278C9.34693 7.70096 10.033 5.9899 8.72352 4.78011Z" fill="url(#paint9_radial_290_14472)"/>
<path d="M3.46899 6.67875C3.46899 6.67875 3.73563 5.68262 5.37825 5.68262C5.55583 5.68262 6.06351 5.18583 6.0729 5.04177C6.0823 4.8977 5.0225 5.48402 3.90403 4.95644C2.69646 4.38678 1.78021 5.04177 1.78021 5.04177C1.78021 5.04177 2.12819 5.90471 3.1487 5.90471C3.04166 6.85144 3.54094 7.95549 4.74953 8.53444C4.77654 8.54737 4.80192 8.56152 4.82966 8.57394C4.12426 8.20842 3.54176 7.51762 3.46899 6.67875Z" fill="url(#paint10_radial_290_14472)"/>
<path d="M11.4094 4.00128C11.1583 3.39581 10.6497 2.74216 10.2503 2.53558C10.5754 3.17431 10.7635 3.81505 10.8354 4.29324C10.8354 4.29417 10.8357 4.2965 10.8365 4.30288C10.1832 2.67061 9.07541 2.01243 8.17081 0.57932C8.12514 0.506855 8.07933 0.434204 8.03471 0.357608C8.012 0.318504 7.99076 0.278536 7.97111 0.237798C7.93352 0.165054 7.90454 0.0881772 7.88472 0.00870916C7.885 0.000911769 7.87932 -0.00581173 7.87159 -0.00681559C7.86805 -0.00784279 7.86598 -0.00823966 7.86241 -0.00721246C7.8616 -0.00693232 7.85871 -0.00557828 7.85785 -0.00525144C7.85657 -0.00473784 7.85196 -0.0020998 7.85142 -0.00177296C6.3589 0.89376 5.9123 2.4221 5.86705 3.21066C5.93436 3.20599 6.00148 3.20032 6.07 3.20032C7.1531 3.20032 8.09643 3.79724 8.60151 4.68201C8.29302 4.46478 7.74061 4.25023 7.20842 4.34301C9.28655 5.3844 8.72865 8.97058 5.84902 8.83519C5.59258 8.82471 5.33917 8.77571 5.09723 8.68987C5.04001 8.6683 4.98344 8.64512 4.92752 8.62032C4.89492 8.60543 4.86236 8.59037 4.83015 8.5737C4.83131 8.5745 4.8329 8.57538 4.83406 8.57611C4.80583 8.5625 4.77777 8.54849 4.74992 8.53411C4.77693 8.54704 4.80232 8.56119 4.83008 8.57361C4.12447 8.20809 3.54186 7.5173 3.4691 6.67842C3.4691 6.67842 3.73579 5.68229 5.37874 5.68229C5.55634 5.68229 6.06413 5.1855 6.07351 5.04144C6.07137 4.9944 5.06579 4.59344 4.67378 4.20627C4.46431 3.99941 4.36485 3.89968 4.27676 3.82483C4.22897 3.78437 4.17902 3.74656 4.1271 3.71156C3.99542 3.24974 3.98981 2.76093 4.1109 2.29619C3.51738 2.56709 3.05573 2.9953 2.72013 3.3734H2.71745C2.48842 3.08261 2.50456 2.12334 2.51763 1.92304C2.51488 1.91062 2.34678 2.01051 2.32474 2.02557C2.12264 2.17017 1.93369 2.33243 1.76011 2.51044C1.56266 2.71125 1.38223 2.9282 1.22074 3.15907C1.22074 3.15935 1.22058 3.1597 1.22049 3.15998C1.22049 3.15967 1.22065 3.15935 1.22074 3.15907C0.849228 3.68681 0.585729 4.28313 0.445502 4.91357C0.442731 4.92613 0.440402 4.93914 0.437723 4.95179C0.426847 5.00278 0.377962 5.26154 0.371138 5.31703C0.370603 5.3213 0.371651 5.31278 0.371138 5.31703C0.326539 5.58441 0.298102 5.85423 0.285945 6.12506C0.285945 6.13494 0.285339 6.14472 0.285339 6.15464C0.285339 9.35272 2.87214 11.9453 6.06296 11.9453C8.9206 11.9453 11.2933 9.86588 11.7578 7.1345C11.7676 7.06038 11.7755 6.98586 11.7841 6.91108C11.8989 5.91799 11.7714 4.87417 11.4094 4.00128ZM10.8362 4.29868C10.8365 4.30073 10.8369 4.30288 10.8372 4.30491L10.837 4.30428L10.8362 4.29868Z" fill="url(#paint11_linear_290_14472)"/>
</g>
<defs>
<linearGradient id="paint0_linear_290_14472" x1="10.3504" y1="1.84111" x2="1.05197" y2="10.7925" gradientUnits="userSpaceOnUse">
<stop offset="0.05" stop-color="#FFF339"/>
<stop offset="0.37" stop-color="#FF9800"/>
<stop offset="0.53" stop-color="#FF3346"/>
<stop offset="0.7" stop-color="#FF0D8A"/>
</linearGradient>
<radialGradient id="paint1_radial_290_14472" cx="0" cy="0" r="1" gradientUnits="userSpaceOnUse" gradientTransform="translate(10.4077 2.53577) scale(11.8167 12.0445)">
<stop offset="0.13" stop-color="#FFBD44"/>
<stop offset="0.28" stop-color="#FF9800"/>
<stop offset="0.47" stop-color="#FF3450"/>
<stop offset="0.78" stop-color="#FF027B"/>
<stop offset="0.86" stop-color="#FF0083"/>
</radialGradient>
<radialGradient id="paint2_radial_290_14472" cx="0" cy="0" r="1" gradientUnits="userSpaceOnUse" gradientTransform="translate(5.93926 6.30335) scale(12.1121 12.0445)">
<stop offset="0.3" stop-color="#AF0611"/>
<stop offset="0.35" stop-color="#CE1223" stop-opacity="0.74"/>
<stop offset="0.43" stop-color="#FD243B" stop-opacity="0.34"/>
<stop offset="0.5" stop-color="#FF304B" stop-opacity="0.09"/>
<stop offset="0.53" stop-color="#FF3450" stop-opacity="0"/>
</radialGradient>
<radialGradient id="paint3_radial_290_14472" cx="0" cy="0" r="1" gradientUnits="userSpaceOnUse" gradientTransform="translate(7.19681 -0.565838) scale(3.87837 6.60029)">
<stop offset="0.13" stop-color="#FFF339"/>
<stop offset="0.53" stop-color="#FF9800"/>
</radialGradient>
<radialGradient id="paint4_radial_290_14472" cx="0" cy="0" r="1" gradientUnits="userSpaceOnUse" gradientTransform="translate(4.6369 9.41026) scale(5.13154 5.63881)">
<stop offset="0.35" stop-color="#008EE9"/>
<stop offset="0.67" stop-color="#A059FF"/>
<stop offset="1" stop-color="#DF36EA"/>
</radialGradient>
<radialGradient id="paint5_radial_290_14472" cx="0" cy="0" r="1" gradientUnits="userSpaceOnUse" gradientTransform="translate(5.87075 5.06003) scale(2.72459 3.32659)">
<stop offset="0.21" stop-color="#A059FF" stop-opacity="0"/>
<stop offset="0.97" stop-color="#80008E" stop-opacity="0.6"/>
</radialGradient>
<radialGradient id="paint6_radial_290_14472" cx="0" cy="0" r="1" gradientUnits="userSpaceOnUse" gradientTransform="translate(5.67509 0.880364) scale(4.08028 4.10461)">
<stop offset="0.1" stop-color="#FFE200"/>
<stop offset="0.79" stop-color="#FF7232"/>
</radialGradient>
<radialGradient id="paint7_radial_290_14472" cx="0" cy="0" r="1" gradientUnits="userSpaceOnUse" gradientTransform="translate(9.40047 -1.81111) scale(19.4802 16.3918)">
<stop offset="0.11" stop-color="#FFF339"/>
<stop offset="0.46" stop-color="#FF9800"/>
<stop offset="0.72" stop-color="#FF3346"/>
<stop offset="0.9" stop-color="#FF0D8A"/>
</radialGradient>
<radialGradient id="paint8_radial_290_14472" cx="0" cy="0" r="1" gradientUnits="userSpaceOnUse" gradientTransform="translate(7.753 -1.49047) rotate(83.9694) scale(12.837 12.9015)">
<stop stop-color="#FFF339"/>
<stop offset="0.3" stop-color="#FF9800"/>
<stop offset="0.57" stop-color="#FF3346"/>
<stop offset="0.74" stop-color="#FF0D8A"/>
</radialGradient>
<radialGradient id="paint9_radial_290_14472" cx="0" cy="0" r="1" gradientUnits="userSpaceOnUse" gradientTransform="translate(5.7166 2.35769) scale(11.1821 11.0141)">
<stop offset="0.14" stop-color="#FFF339"/>
<stop offset="0.48" stop-color="#FF9800"/>
<stop offset="0.66" stop-color="#FF3346"/>
<stop offset="0.9" stop-color="#FF0D8A"/>
</radialGradient>
<radialGradient id="paint10_radial_290_14472" cx="0" cy="0" r="1" gradientUnits="userSpaceOnUse" gradientTransform="translate(8.61869 3.00094) scale(13.4405 12.0553)">
<stop offset="0.09" stop-color="#FFF339"/>
<stop offset="0.63" stop-color="#FF9800"/>
</radialGradient>
<linearGradient id="paint11_linear_290_14472" x1="9.78172" y1="1.90966" x2="2.34278" y2="10.0182" gradientUnits="userSpaceOnUse">
<stop offset="0.17" stop-color="#FFF339" stop-opacity="0.8"/>
<stop offset="0.6" stop-color="#FFF339" stop-opacity="0"/>
</linearGradient>
<clipPath id="clip0_290_14472">
<rect width="11.9245" height="11.9531" fill="white" transform="translate(0.092865 -0.0078125)"/>
</clipPath>
</defs>
</svg>
