<svg width="100" height="100" viewBox="0 0 100 100" fill="none" xmlns="http://www.w3.org/2000/svg">
<path d="M38.0361 10.1911C36.6313 10.9755 35.5065 11.4696 34.3775 11.9834C30.1586 14.0307 26.2201 15.8231 22.0012 17.8664C21.7082 18.018 21.47 18.2443 21.3169 18.5176C21.1637 18.7908 21.1018 19.099 21.1391 19.4039V96.9813C21.1391 98.0049 20.8593 98.7736 19.7345 99.0286C17.6472 99.8133 15.3831 100.13 13.1332 99.9517C10.8833 99.7736 8.71353 99.106 6.80646 98.005C5.40436 97.1079 4.21051 95.9678 3.29354 94.6501C2.37657 93.3323 1.75456 91.8627 1.4629 90.3256C0.75581 86.1748 0.467002 81.9738 0.600716 77.7752C0.320608 57.2905 0.0404794 36.5548 0.0404794 16.0701C-0.179208 12.813 0.497836 9.55747 2.00999 6.59856C3.28357 4.12567 5.48537 2.14782 8.21889 1.02111C10.9524 -0.105596 14.0379 -0.307209 16.9202 0.452705C20.919 1.54768 24.7129 3.18745 28.1723 5.31608C31.2664 6.85351 34.3605 8.38697 37.1745 9.9244C37.4761 9.67731 37.756 9.93222 38.0361 10.1911Z" fill="#71347B"/>
<path d="M38.5225 89.0563V66.7793C38.5159 66.4783 38.5909 66.1804 38.7413 65.9122C38.8917 65.644 39.1124 65.4137 39.3841 65.2419C48.9509 60.3747 58.5176 55.5114 67.8 50.6481C70.3296 49.3656 72.8636 48.0871 75.6733 46.5497C74.047 45.5989 72.3555 44.7434 70.6096 43.9885C66.3907 41.6824 62.1723 39.6352 57.9535 37.3212C57.7456 37.1927 57.4998 37.1239 57.2486 37.1239C56.9973 37.1239 56.7521 37.1927 56.5442 37.3212C51.2006 40.3921 46.1371 43.2042 40.7892 46.283C40.5091 46.283 40.5092 46.5379 40.2247 46.5379V30.1517C40.2167 29.8139 40.2895 29.4786 40.4383 29.1691C40.5872 28.8595 40.8083 28.5832 41.0864 28.3594C45.8698 25.2884 50.649 22.4763 55.1523 19.3976C55.4115 19.2716 55.7006 19.2057 55.9945 19.2057C56.2884 19.2057 56.578 19.2716 56.8372 19.3976C63.3013 22.7273 70.0581 26.312 76.5307 29.6379C81.0297 31.9401 85.5333 34.2462 90.321 36.5485C93.7452 38.1709 96.5796 40.661 98.4826 43.7179C99.6811 45.7072 100.163 47.989 99.8597 50.2409C99.5566 52.4928 98.4841 54.6012 96.7934 56.2684C94.5698 58.57 91.8994 60.4792 88.9159 61.9004C82.4519 65.2302 76.2552 68.8149 69.7869 72.1408C61.6292 76.4942 53.7517 80.5888 45.5941 84.9422C43.0257 86.4953 40.7719 87.7582 38.5225 89.0563Z" fill="#71347B"/>
</svg>
