<svg width="77" height="32" viewBox="0 0 77 32" fill="none" xmlns="http://www.w3.org/2000/svg">
<g filter="url(#filter0_d_2095_21463)">
<path d="M12.3081 2.44586C12.0013 2.63411 11.7556 2.75272 11.509 2.87602C10.5875 3.36737 9.7272 3.79754 8.80568 4.28795C8.74167 4.32431 8.68966 4.37863 8.6562 4.44421C8.62274 4.5098 8.60923 4.58376 8.61736 4.65693V23.2755C8.61736 23.5212 8.55624 23.7057 8.31057 23.7669C7.85464 23.9552 7.36009 24.0312 6.86866 23.9884C6.37722 23.9457 5.90328 23.7854 5.48672 23.5212C5.18046 23.3059 4.91969 23.0323 4.7194 22.716C4.51911 22.3997 4.38324 22.047 4.31954 21.6782C4.16509 20.682 4.10201 19.6737 4.13121 18.666C4.07003 13.7497 4.00884 8.77315 4.00884 3.85683C3.96086 3.07511 4.10874 2.29379 4.43904 1.58366C4.71722 0.990161 5.19816 0.515478 5.79523 0.245067C6.39231 -0.0253429 7.06627 -0.0737303 7.69584 0.108649C8.56928 0.371444 9.39798 0.764987 10.1536 1.27586C10.8294 1.64484 11.5053 2.01287 12.1199 2.38186C12.1858 2.32255 12.247 2.38373 12.3081 2.44586Z" fill="white"/>
<path d="M12.4256 21.3723V16.0258C12.4242 15.9536 12.4406 15.8821 12.4734 15.8177C12.5063 15.7533 12.5545 15.6981 12.6138 15.6569C14.7035 14.4887 16.7931 13.3215 18.8206 12.1543C19.3732 11.8465 19.9267 11.5397 20.5404 11.1707C20.1852 10.9425 19.8157 10.7372 19.4343 10.556C18.5128 10.0026 17.5914 9.51123 16.6699 8.95587C16.6245 8.92503 16.5708 8.90853 16.5159 8.90853C16.461 8.90853 16.4075 8.92503 16.3621 8.95587C15.1949 9.6929 14.0889 10.3678 12.9207 11.1067C12.8596 11.1067 12.8596 11.1679 12.7974 11.1679V7.2352C12.7957 7.15413 12.8116 7.07365 12.8441 6.99937C12.8766 6.92508 12.9249 6.85876 12.9857 6.80504C14.0305 6.06801 15.0744 5.39311 16.058 4.6542C16.1147 4.62396 16.1778 4.60815 16.242 4.60815C16.3062 4.60815 16.3695 4.62396 16.4261 4.6542C17.838 5.45335 19.3139 6.31368 20.7277 7.11188C21.7104 7.66442 22.6941 8.21789 23.7399 8.77042C24.4878 9.15981 25.1069 9.75743 25.5226 10.4911C25.7844 10.9685 25.8896 11.5161 25.8234 12.0566C25.7572 12.5971 25.5229 13.1031 25.1536 13.5032C24.6679 14.0556 24.0846 14.5138 23.433 14.8549C22.021 15.654 20.6675 16.5144 19.2546 17.3126C17.4728 18.3574 15.7521 19.3401 13.9703 20.3849C13.4093 20.7577 12.917 21.0607 12.4256 21.3723Z" fill="white"/>
</g>
<g filter="url(#filter1_d_2095_21463)">
<path d="M31.6878 5.84978V6.8041H33.6522V7.75739H31.6878V9.24533H30.4188V4.89648H33.9145V5.84978H31.6878Z" fill="white"/>
<path d="M34.4146 4.90894H35.6835V9.23304H34.4146V4.90894Z" fill="white"/>
<path d="M38.1479 8.09389H37.4524V9.23331H36.1835V4.90869H38.2186C39.4397 4.90869 40.2058 5.51294 40.2058 6.51263C40.2184 6.7985 40.1432 7.08153 39.9898 7.3258C39.8363 7.57007 39.6116 7.76456 39.3441 7.88457L40.2998 9.23279H38.9608L38.1479 8.09389ZM38.1718 5.86198H37.4763V7.1174H38.1708C38.6975 7.1174 38.9608 6.88488 38.9608 6.48943C38.9369 6.11771 38.6975 5.86198 38.1708 5.86198H38.1718Z" fill="white"/>
<path d="M44.3672 8.28001V9.23331H40.7998V4.90869H44.2955V5.86198H42.0449V6.58378H44.0321V7.49067H42.0449V8.28105L44.3672 8.28001Z" fill="white"/>
<path d="M46.1361 5.84978V6.8041H48.1006V7.75739H46.1361V9.24533H44.8672V4.89648H48.3629V5.84978H46.1361Z" fill="white"/>
<path d="M48.8628 4.90869H50.1317V8.25681H52.2608V9.23331H48.8851V4.90869H48.8628Z" fill="white"/>
<path d="M52.7609 4.90894H54.0298V9.23304H52.7609V4.90894Z" fill="white"/>
<path d="M58.7677 4.90894V9.23304H57.7382L55.7738 6.93152V9.23304H54.5298V4.90894H55.5593L57.5237 7.21045V4.90894H58.7677Z" fill="white"/>
<path d="M60.9917 7.66377L60.5138 8.15202V9.24452H59.2677V4.89722H60.5127V6.68728L62.2367 4.89722H63.6251L61.8056 6.80483L63.7212 9.22286H62.2606L60.9917 7.66377Z" fill="white"/>
<path d="M69.8173 8.47762H68.1378L67.8686 9.246H66.7212L68.3493 4.896H69.6185L71.2467 9.246H70.0865L69.8173 8.47762ZM69.5352 7.65967L68.9775 6.06715L68.4263 7.65967H69.5352Z" fill="white"/>
<path d="M72.8428 4.896V9.246H71.7467V4.896H72.8428Z" fill="white"/>
</g>
<g filter="url(#filter2_d_2095_21463)">
<path d="M34.7599 15.1687C34.7599 15.5001 34.6839 15.8042 34.5318 16.0813C34.3797 16.3528 34.1461 16.5728 33.8311 16.7412C33.516 16.9096 33.1249 16.9938 32.6578 16.9938H31.7941V19.047H30.4009V13.3273H32.6578C33.1141 13.3273 33.4997 13.4061 33.8148 13.5636C34.1298 13.7211 34.3661 13.9384 34.5236 14.2154C34.6811 14.4925 34.7599 14.8102 34.7599 15.1687ZM32.5519 15.8857C32.818 15.8857 33.0163 15.8232 33.1467 15.6983C33.277 15.5734 33.3422 15.3968 33.3422 15.1687C33.3422 14.9406 33.277 14.764 33.1467 14.6391C33.0163 14.5142 32.818 14.4517 32.5519 14.4517H31.7941V15.8857H32.5519Z" fill="url(#paint0_linear_2095_21463)" shape-rendering="crispEdges"/>
<path d="M36.8785 17.9715H38.7036V19.047H35.4852V13.3273H36.8785V17.9715Z" fill="url(#paint1_linear_2095_21463)" shape-rendering="crispEdges"/>
<path d="M42.9287 18.0367H40.794L40.4518 19.047H38.9934L41.0629 13.3273H42.6761L44.7456 19.047H43.2709L42.9287 18.0367ZM42.5702 16.9612L41.8614 14.8672L41.1606 16.9612H42.5702Z" fill="url(#paint2_linear_2095_21463)" shape-rendering="crispEdges"/>
<path d="M49.4901 13.3273V14.4436H47.9746V19.047H46.5814V14.4436H45.0659V13.3273H49.4901Z" fill="url(#paint3_linear_2095_21463)" shape-rendering="crispEdges"/>
<path d="M53.9129 13.3273V14.4436H51.5826V15.6494H53.3262V16.7331H51.5826V19.047H50.1893V13.3273H53.9129Z" fill="url(#paint4_linear_2095_21463)" shape-rendering="crispEdges"/>
<path d="M57.3502 19.1041C56.8124 19.1041 56.3181 18.9791 55.8673 18.7293C55.4219 18.4794 55.0661 18.1318 54.7999 17.6864C54.5392 17.2355 54.4088 16.7304 54.4088 16.1709C54.4088 15.6114 54.5392 15.109 54.7999 14.6636C55.0661 14.2181 55.4219 13.8705 55.8673 13.6206C56.3181 13.3708 56.8124 13.2458 57.3502 13.2458C57.8879 13.2458 58.3795 13.3708 58.8249 13.6206C59.2758 13.8705 59.6288 14.2181 59.8841 14.6636C60.1448 15.109 60.2752 15.6114 60.2752 16.1709C60.2752 16.7304 60.1448 17.2355 59.8841 17.6864C59.6234 18.1318 59.2703 18.4794 58.8249 18.7293C58.3795 18.9791 57.8879 19.1041 57.3502 19.1041ZM57.3502 17.833C57.8064 17.833 58.1704 17.6809 58.442 17.3767C58.719 17.0726 58.8575 16.6706 58.8575 16.1709C58.8575 15.6657 58.719 15.2638 58.442 14.965C58.1704 14.6608 57.8064 14.5087 57.3502 14.5087C56.8885 14.5087 56.5191 14.6581 56.2421 14.9569C55.9705 15.2556 55.8347 15.6603 55.8347 16.1709C55.8347 16.676 55.9705 17.0807 56.2421 17.3849C56.5191 17.6836 56.8885 17.833 57.3502 17.833Z" fill="url(#paint5_linear_2095_21463)" shape-rendering="crispEdges"/>
<path d="M63.9672 19.047L62.7776 16.8879H62.4436V19.047H61.0503V13.3273H63.3887C63.8396 13.3273 64.2225 13.4061 64.5376 13.5636C64.858 13.7211 65.097 13.9384 65.2546 14.2154C65.4121 14.487 65.4908 14.7912 65.4908 15.128C65.4908 15.5082 65.3822 15.8477 65.1649 16.1464C64.9531 16.4452 64.638 16.657 64.2198 16.782L65.5397 19.047H63.9672ZM62.4436 15.902H63.3072C63.5625 15.902 63.7527 15.8395 63.8776 15.7146C64.0079 15.5897 64.0731 15.4131 64.0731 15.185C64.0731 14.9677 64.0079 14.7966 63.8776 14.6717C63.7527 14.5468 63.5625 14.4843 63.3072 14.4843H62.4436V15.902Z" fill="url(#paint6_linear_2095_21463)" shape-rendering="crispEdges"/>
<path d="M72.8429 13.3273V19.047H71.4496V15.6168L70.1704 19.047H69.046L67.7587 15.6087V19.047H66.3654V13.3273H68.0113L69.6164 17.2871L71.2052 13.3273H72.8429Z" fill="url(#paint7_linear_2095_21463)" shape-rendering="crispEdges"/>
</g>
<defs>
<filter id="filter0_d_2095_21463" x="0" y="0" width="29.8427" height="32" filterUnits="userSpaceOnUse" color-interpolation-filters="sRGB">
<feFlood flood-opacity="0" result="BackgroundImageFix"/>
<feColorMatrix in="SourceAlpha" type="matrix" values="0 0 0 0 0 0 0 0 0 0 0 0 0 0 0 0 0 0 127 0" result="hardAlpha"/>
<feOffset dy="4"/>
<feGaussianBlur stdDeviation="2"/>
<feComposite in2="hardAlpha" operator="out"/>
<feColorMatrix type="matrix" values="0 0 0 0 0 0 0 0 0 0 0 0 0 0 0 0 0 0 0.6 0"/>
<feBlend mode="normal" in2="BackgroundImageFix" result="effect1_dropShadow_2095_21463"/>
<feBlend mode="normal" in="SourceGraphic" in2="effect1_dropShadow_2095_21463" result="shape"/>
</filter>
<filter id="filter1_d_2095_21463" x="26.4188" y="4.896" width="50.4241" height="12.3501" filterUnits="userSpaceOnUse" color-interpolation-filters="sRGB">
<feFlood flood-opacity="0" result="BackgroundImageFix"/>
<feColorMatrix in="SourceAlpha" type="matrix" values="0 0 0 0 0 0 0 0 0 0 0 0 0 0 0 0 0 0 127 0" result="hardAlpha"/>
<feOffset dy="4"/>
<feGaussianBlur stdDeviation="2"/>
<feComposite in2="hardAlpha" operator="out"/>
<feColorMatrix type="matrix" values="0 0 0 0 0 0 0 0 0 0 0 0 0 0 0 0 0 0 0.6 0"/>
<feBlend mode="normal" in2="BackgroundImageFix" result="effect1_dropShadow_2095_21463"/>
<feBlend mode="normal" in="SourceGraphic" in2="effect1_dropShadow_2095_21463" result="shape"/>
</filter>
<filter id="filter2_d_2095_21463" x="26.4009" y="13.2458" width="50.442" height="13.8582" filterUnits="userSpaceOnUse" color-interpolation-filters="sRGB">
<feFlood flood-opacity="0" result="BackgroundImageFix"/>
<feColorMatrix in="SourceAlpha" type="matrix" values="0 0 0 0 0 0 0 0 0 0 0 0 0 0 0 0 0 0 127 0" result="hardAlpha"/>
<feOffset dy="4"/>
<feGaussianBlur stdDeviation="2"/>
<feComposite in2="hardAlpha" operator="out"/>
<feColorMatrix type="matrix" values="0 0 0 0 0 0 0 0 0 0 0 0 0 0 0 0 0 0 0.6 0"/>
<feBlend mode="normal" in2="BackgroundImageFix" result="effect1_dropShadow_2095_21463"/>
<feBlend mode="normal" in="SourceGraphic" in2="effect1_dropShadow_2095_21463" result="shape"/>
</filter>
<linearGradient id="paint0_linear_2095_21463" x1="72.8429" y1="16.175" x2="30.4009" y2="16.175" gradientUnits="userSpaceOnUse">
<stop stop-color="#F7EBFF"/>
<stop offset="1" stop-color="#ECD7FD" stop-opacity="0.9"/>
</linearGradient>
<linearGradient id="paint1_linear_2095_21463" x1="72.8429" y1="16.175" x2="30.4009" y2="16.175" gradientUnits="userSpaceOnUse">
<stop stop-color="#F7EBFF"/>
<stop offset="1" stop-color="#ECD7FD" stop-opacity="0.9"/>
</linearGradient>
<linearGradient id="paint2_linear_2095_21463" x1="72.8429" y1="16.175" x2="30.4009" y2="16.175" gradientUnits="userSpaceOnUse">
<stop stop-color="#F7EBFF"/>
<stop offset="1" stop-color="#ECD7FD" stop-opacity="0.9"/>
</linearGradient>
<linearGradient id="paint3_linear_2095_21463" x1="72.8429" y1="16.175" x2="30.4009" y2="16.175" gradientUnits="userSpaceOnUse">
<stop stop-color="#F7EBFF"/>
<stop offset="1" stop-color="#ECD7FD" stop-opacity="0.9"/>
</linearGradient>
<linearGradient id="paint4_linear_2095_21463" x1="72.8429" y1="16.175" x2="30.4009" y2="16.175" gradientUnits="userSpaceOnUse">
<stop stop-color="#F7EBFF"/>
<stop offset="1" stop-color="#ECD7FD" stop-opacity="0.9"/>
</linearGradient>
<linearGradient id="paint5_linear_2095_21463" x1="72.8429" y1="16.175" x2="30.4009" y2="16.175" gradientUnits="userSpaceOnUse">
<stop stop-color="#F7EBFF"/>
<stop offset="1" stop-color="#ECD7FD" stop-opacity="0.9"/>
</linearGradient>
<linearGradient id="paint6_linear_2095_21463" x1="72.8429" y1="16.175" x2="30.4009" y2="16.175" gradientUnits="userSpaceOnUse">
<stop stop-color="#F7EBFF"/>
<stop offset="1" stop-color="#ECD7FD" stop-opacity="0.9"/>
</linearGradient>
<linearGradient id="paint7_linear_2095_21463" x1="72.8429" y1="16.175" x2="30.4009" y2="16.175" gradientUnits="userSpaceOnUse">
<stop stop-color="#F7EBFF"/>
<stop offset="1" stop-color="#ECD7FD" stop-opacity="0.9"/>
</linearGradient>
</defs>
</svg>
