<svg width="17" height="17" viewBox="0 0 17 17" fill="none" xmlns="http://www.w3.org/2000/svg">
<g clip-path="url(#clip0_369_16381)">
<path d="M10.4092 11.5759L10.3506 8.67724C11.3755 8.66489 12.7122 8.4488 13.8636 8.35311C13.8605 8.25432 13.8729 8.15554 13.9007 8.05984C13.9223 7.97032 13.9593 7.88388 14.0056 7.8067C14.1785 7.54122 14.6446 7.43626 14.8144 7.74805L15.6788 10.2269L15.2003 12.0822C15.1818 12.1594 15.1478 12.2304 15.1046 12.2952C15.1046 12.2952 14.9533 12.5453 14.8082 12.7645H10.9495C10.6161 12.4588 10.4216 12.0297 10.4092 11.5759Z" fill="#EFCDB1"/>
<path d="M15.1015 13.9072C15.1046 14.0184 14.9904 14.1048 14.8484 14.1079H14.3452L10.8353 14.1357C10.6933 14.1357 10.576 14.0492 10.576 13.9412L10.5605 12.9317C10.5605 12.8237 10.6748 12.7342 10.8168 12.7342L14.3452 12.7064L14.8268 12.7002C14.9719 12.7002 15.0861 12.7866 15.0892 12.8947L15.1015 13.9072Z" fill="#D1D0DF"/>
<path d="M15.102 13.9071C15.1051 14.0182 14.9909 14.1046 14.8489 14.1077H14.3457V12.7093L14.8273 12.7031C14.9724 12.7031 15.0866 12.7896 15.0897 12.8976L15.102 13.9071Z" fill="#B5B5C6"/>
<path d="M15.5375 16.4657H10.9316C12.4844 16.4657 13.8458 15.6137 14.5959 14.098L15.5004 14.0918L15.5375 16.4657Z" fill="#EFB703"/>
<path d="M14.5961 14.0986C13.8459 15.6144 12.4846 16.4664 10.9318 16.4664H10.2187L10.1816 14.1326L14.5961 14.0986Z" fill="#FFC700"/>
<path d="M8.8943 9.35927L9.9161 11.6807L15.8956 9.05057C16.1889 8.92401 16.3217 8.58135 16.192 8.29117C16.192 8.29117 16.192 8.29117 16.192 8.28808L13.6051 2.40114L11.1941 3.46308C11.1447 3.48468 11.0892 3.46308 11.0676 3.41368C11.0614 3.39825 11.0583 3.37973 11.0614 3.3612C11.0923 3.10807 11.1231 2.62958 10.9533 2.32705C10.6385 1.76522 9.92845 1.56456 9.36661 1.87944C8.80478 2.19431 8.60412 2.90433 8.91899 3.46616C9.07026 3.73473 9.32031 3.9323 9.61666 4.01874C9.6537 4.028 9.6784 4.06504 9.66914 4.10209C9.66297 4.12678 9.64753 4.14531 9.62592 4.15457L7.09766 5.26281L8.20589 7.7849C8.21824 7.82194 8.25837 7.84046 8.29542 7.82811C8.31703 7.81885 8.33555 7.80033 8.34172 7.77872C8.52077 7.15823 9.16596 6.80014 9.78645 6.97919C10.4069 7.15823 10.765 7.80342 10.586 8.42391C10.5026 8.72026 10.302 8.97031 10.0334 9.12157C9.72779 9.29136 9.24931 9.26049 8.99617 9.22653C8.9406 9.22345 8.8943 9.26358 8.89121 9.31914C8.88504 9.3284 8.88813 9.34384 8.8943 9.35927Z" fill="#FFC700"/>
<path d="M9.02051 9.64645L9.91574 11.6808L15.8953 9.05066C16.1886 8.92409 16.3213 8.58143 16.1916 8.29125C16.1916 8.29125 16.1916 8.29125 16.1916 8.28817L16.0898 8.05664C15.8336 8.18938 15.5712 8.31595 15.3026 8.43326C13.3269 9.30379 11.1783 9.71745 9.02051 9.64645Z" fill="#EFB703"/>
<path d="M13.2715 10.9063C13.3332 10.7704 13.4073 10.6254 13.4937 10.471C13.7438 10.0357 14.1791 9.85669 14.1791 9.85669C14.1791 9.85669 13.9908 8.72067 13.9321 8.34097C13.892 8.07548 13.9414 7.80383 14.0741 7.56921C14.2562 7.28521 14.7316 7.1679 14.9045 7.49204L15.7349 10.0913L15.2101 12.0608" fill="#EFCDB1"/>
<path d="M6.60645 5.75979L6.6651 8.6585C5.64021 8.66776 4.30354 8.88694 3.15208 8.98263C3.15208 9.08142 3.13973 9.1802 3.11503 9.2759C3.09343 9.36542 3.05638 9.44877 3.01008 9.52904C2.8372 9.79452 2.37106 9.89948 2.19819 9.58769L1.33691 7.10882L1.8154 5.25352C1.83392 5.17634 1.86788 5.10226 1.9111 5.03743C1.9111 5.03743 2.06236 4.79047 2.20745 4.57129H6.06622C6.39962 4.8769 6.59719 5.306 6.60645 5.75979Z" fill="#EFCDB1"/>
<path d="M6.45522 4.40226L6.43978 3.38972C6.43978 3.28167 6.32248 3.19524 6.18048 3.19832L2.16736 3.22919C2.02535 3.22919 1.91113 3.31872 1.91113 3.42676L1.92657 4.43622C1.92657 4.54735 2.04387 4.63378 2.18588 4.6307L6.199 4.59983C6.341 4.59983 6.45522 4.5103 6.45522 4.40226Z" fill="#D1D0DF"/>
<path d="M2.67038 4.62126H2.10546C2.0005 4.62126 1.91406 4.53483 1.91406 4.42987V4.42678V3.46981C1.91406 3.34324 2.01902 3.23828 2.14559 3.23828H2.67038V4.62126Z" fill="#B5B5C6"/>
<path d="M1.47852 0.5H6.08434C4.53157 0.5 3.1702 1.71937 2.42006 3.23818L1.51247 3.24436L1.47852 0.5Z" fill="#035D7C"/>
<path d="M2.4209 3.23818C3.17104 1.71937 4.53242 0.5 6.08519 0.5H6.79829L6.83224 3.20114L2.4209 3.23818Z" fill="#02648E"/>
<path d="M10.5547 7.74169C10.7183 8.26648 10.493 8.83449 10.0176 9.10615C9.71197 9.27593 9.23348 9.25124 8.98035 9.22037C8.92787 9.21419 8.88156 9.25124 8.87539 9.30372C8.8723 9.31915 8.87539 9.33767 8.88156 9.35311L9.79532 11.3967C9.88793 11.6035 9.79532 11.8474 9.58849 11.94L7.45228 12.897C7.41832 12.9155 7.3751 12.9001 7.35658 12.8661C7.34732 12.8445 7.34732 12.8198 7.35658 12.8013C7.64058 12.2209 7.3998 11.5233 6.81944 11.2393C6.23908 10.9553 5.54141 11.1961 5.25741 11.7764C5.12158 12.0512 5.10306 12.3691 5.19875 12.6593C5.30989 12.9896 5.6865 13.286 5.89642 13.4341C5.93964 13.4681 5.9489 13.5298 5.91494 13.5731C5.90568 13.5854 5.89333 13.5947 5.88098 13.6008L3.4762 14.6751L0.809019 8.7141C0.679364 8.42083 0.809019 8.07817 1.10229 7.94543L6.74226 5.42334C6.91513 5.34308 7.12196 5.42025 7.19914 5.59621C7.19914 5.59621 7.19914 5.5993 7.20223 5.5993C7.46154 6.18274 7.96781 7.3095 8.18081 7.7849C8.19316 7.82195 8.23638 7.84047 8.27342 7.82812C8.29503 7.81886 8.31355 7.80034 8.31664 7.77564C8.48951 7.15515 9.1347 6.79089 9.75519 6.96376C10.1349 7.0718 10.4374 7.36507 10.5547 7.74169Z" fill="#D22732"/>
<path d="M10.0177 9.10615C9.71204 9.27593 9.23356 9.25124 8.98042 9.22037C8.92794 9.21419 8.88164 9.25124 8.87546 9.30372C8.87238 9.31915 8.87546 9.33767 8.88164 9.35311L9.79539 11.3967C9.888 11.6035 9.79539 11.8474 9.58856 11.94L7.44926 12.9001C7.41531 12.9155 7.37209 12.9032 7.35356 12.8661C7.3443 12.8445 7.3443 12.8198 7.35665 12.8013C7.64066 12.2209 7.39987 11.5233 6.81951 11.2393C6.23915 10.9553 5.54149 11.1961 5.25748 11.7764C5.12165 12.0512 5.10313 12.3691 5.19883 12.6593C5.30996 12.9896 5.68658 13.2891 5.89649 13.4341C5.93971 13.4681 5.94897 13.5298 5.91502 13.5731C5.90575 13.5854 5.89341 13.5947 5.88106 13.6008L3.47627 14.6751L2.84961 13.2736C4.88395 11.7795 6.23915 9.10615 6.23915 6.05926C6.23915 5.92035 6.23607 5.78452 6.22989 5.64869L6.73925 5.42334C6.91212 5.34308 7.11895 5.42025 7.19613 5.59621C7.19613 5.59621 7.19613 5.5993 7.19921 5.5993C7.45852 6.18274 7.96479 7.3095 8.1778 7.7849C8.19015 7.82195 8.23336 7.84047 8.27041 7.82812C8.29202 7.81886 8.31054 7.80034 8.31363 7.77564C8.4865 7.15515 9.13169 6.79089 9.75218 6.96376C10.135 7.06872 10.4344 7.36198 10.5517 7.74169C10.7153 8.26648 10.4931 8.8314 10.0177 9.10615Z" fill="#C11F2F"/>
<path d="M3.74469 6.42993C3.68295 6.56268 3.60886 6.71085 3.51934 6.8652C3.27237 7.30047 2.83711 7.47952 2.83711 7.47952C2.83711 7.47952 3.02541 8.61554 3.08407 8.99524C3.1242 9.26073 3.07481 9.53239 2.94206 9.767C2.75993 10.0479 2.28144 10.1683 2.11166 9.84417L1.28125 7.24182L1.80604 5.27539" fill="#EFCDB1"/>
<path d="M4.39648 15.1807L4.72581 15.0106L5.15372 15.8394L4.8244 16.0095L4.39648 15.1807Z" fill="#808285"/>
<path d="M1.72461 15.8545L2.15253 15.0257L2.48185 15.1957L2.05393 16.0245L1.72461 15.8545Z" fill="#808285"/>
<path d="M3.23828 16.4717L3.26066 15.5394L3.6311 15.5483L3.60872 16.4806L3.23828 16.4717Z" fill="#808285"/>
<path d="M12.2266 1.18555L12.5559 1.01551L12.9838 1.84431L12.6545 2.01434L12.2266 1.18555Z" fill="#808285"/>
<path d="M14.9014 1.85352L15.3293 1.02472L15.6586 1.19475L15.2307 2.02355L14.9014 1.85352Z" fill="#808285"/>
<path d="M13.7207 1.46484L13.7431 0.532565L14.1135 0.541455L14.0911 1.47373L13.7207 1.46484Z" fill="#808285"/>
</g>
<defs>
<clipPath id="clip0_369_16381">
<rect width="16" height="16" fill="white" transform="translate(0.5 0.5)"/>
</clipPath>
</defs>
</svg>
