<svg width="20" height="20" viewBox="0 0 20 20" fill="none" xmlns="http://www.w3.org/2000/svg">
<g clip-path="url(#clip0_5540_15038)">
<path d="M16.6261 16.6281C20.2867 12.9675 20.2867 7.03249 16.6261 3.37187C12.9655 -0.288738 7.03044 -0.288737 3.36982 3.37187C-0.290788 7.03249 -0.290788 12.9675 3.36982 16.6281C7.03044 20.2887 12.9655 20.2887 16.6261 16.6281Z" fill="#809AFF"/>
<path fill-rule="evenodd" clip-rule="evenodd" d="M19.2399 11.5904C18.5728 15.4935 15.4933 18.5729 11.5903 19.24L6.54334 14.1931C5.33564 13.1964 4.56592 11.6881 4.56592 9.99999C4.56592 6.99885 6.99873 4.56604 9.99986 4.56604C11.688 4.56604 13.1963 5.33581 14.193 6.54346L19.2399 11.5904Z" fill="#3F5AC4"/>
<path fill-rule="evenodd" clip-rule="evenodd" d="M15.2169 9.99986C15.2169 6.99873 12.8326 4.56592 9.8914 4.56592C6.95017 4.56592 4.56592 6.99873 4.56592 9.99986C4.56592 13.001 6.95017 15.4338 9.8914 15.4338C12.8326 15.4338 15.2169 13.001 15.2169 9.99986ZM12.4428 11.158L13.2553 11.6271C13.3859 11.7025 13.4307 11.8694 13.3553 12C13.3047 12.0876 13.2129 12.1365 13.1186 12.1365C13.0723 12.1365 13.0253 12.1248 12.9824 12.0999L12.1697 11.6307L12.1621 12.4485C12.1607 12.5984 12.0388 12.7189 11.8892 12.7189L11.8866 12.7189C11.7358 12.7175 11.6147 12.5942 11.6162 12.4434L11.6266 11.3171L10.1641 10.4728V12.1614L11.1446 12.7156C11.2759 12.7897 11.3222 12.9563 11.248 13.0876C11.1978 13.1764 11.1053 13.2263 11.0101 13.2263C10.9645 13.2263 10.9184 13.2149 10.876 13.1909L10.1641 12.7886V13.727C10.1641 13.8778 10.0419 14 9.89113 14C9.74036 14 9.61813 13.8778 9.61813 13.727V12.7886L8.9063 13.1909C8.86385 13.2149 8.8177 13.2263 8.7722 13.2263C8.67698 13.2263 8.58449 13.1764 8.53429 13.0876C8.46011 12.9563 8.50637 12.7897 8.63763 12.7156L9.6181 12.1614V10.4728L8.15562 11.3171L8.16578 12.4434C8.16716 12.5942 8.04602 12.7175 7.89525 12.7189L7.89274 12.7189C7.74314 12.7189 7.62116 12.5983 7.61982 12.4483L7.61243 11.6307L6.79987 12.0999C6.75688 12.1247 6.70993 12.1365 6.66363 12.1365C6.56928 12.1365 6.47752 12.0876 6.42696 12C6.35157 11.8694 6.39631 11.7024 6.52687 11.6271L7.33943 11.1579L6.63516 10.7427C6.50529 10.6661 6.46208 10.4988 6.53867 10.3689C6.61525 10.239 6.78269 10.1958 6.91249 10.2724L7.88262 10.8445L9.34517 10.0001L7.88288 9.1558L6.91249 9.72767C6.86896 9.7533 6.82124 9.76549 6.77414 9.76549C6.68063 9.76549 6.58959 9.71745 6.53867 9.63107C6.46212 9.50116 6.50536 9.33379 6.63524 9.25724L7.33961 8.8421L6.52691 8.37287C6.39634 8.29749 6.35161 8.13052 6.42699 7.99995C6.50238 7.86939 6.66934 7.82462 6.79991 7.90004L7.61246 8.36919L7.61985 7.55165C7.6212 7.40169 7.74318 7.28109 7.89278 7.28109H7.89529C8.04606 7.28244 8.1672 7.40576 8.16581 7.55653L8.15566 8.68278L9.6181 9.52715V7.83859L8.63763 7.28444C8.50637 7.21026 8.46011 7.04369 8.53429 6.91244C8.60851 6.78114 8.77497 6.73488 8.9063 6.8091L9.61813 7.21139V6.273C9.61813 6.12223 9.74036 6 9.89113 6C10.0419 6 10.1641 6.12223 10.1641 6.273V7.21139L10.876 6.80906C11.0072 6.73484 11.1738 6.78114 11.248 6.9124C11.3222 7.04369 11.2759 7.21022 11.1446 7.28441L10.1641 7.83856V9.52715L11.6266 8.68278L11.6164 7.55653C11.615 7.40576 11.7362 7.28244 11.8869 7.28109C12.0373 7.27902 12.161 7.40085 12.1624 7.55162L12.1698 8.36919L12.9823 7.90004C13.1129 7.82462 13.2799 7.86935 13.3552 7.99995C13.4306 8.13052 13.3859 8.29749 13.2553 8.37287L12.4426 8.8421L13.1468 9.25717C13.2767 9.33376 13.32 9.50112 13.2434 9.631C13.1925 9.71737 13.1015 9.76542 13.008 9.76542C12.9609 9.76542 12.9131 9.75326 12.8696 9.7276L11.8993 9.15572L10.4371 9.99998L11.8996 10.8444L12.8696 10.2724C12.9995 10.1959 13.1668 10.2391 13.2434 10.3689C13.32 10.4988 13.2768 10.6662 13.1469 10.7428L12.4428 11.158Z" fill="white"/>
</g>
<defs>
<clipPath id="clip0_5540_15038">
<rect width="20" height="20" fill="white"/>
</clipPath>
</defs>
</svg>
