<svg width="16" height="16" viewBox="0 0 16 16" fill="none" xmlns="http://www.w3.org/2000/svg">
<path d="M0 1.6C0 0.716352 0.691648 0 1.54483 0H11.8952C12.7484 0 13.44 0.716352 13.44 1.6V4C13.44 4.88365 12.7484 5.6 11.8952 5.6H1.54483C0.691648 5.6 0 4.88365 0 4V1.6Z" fill="currentColor"/>
<path d="M5.43994 10.0104C5.43994 9.60702 5.71215 9.28 6.04794 9.28H7.87194C8.20773 9.28 8.47994 9.60702 8.47994 10.0104V15.2696C8.47994 15.673 8.20773 16 7.87194 16H6.04794C5.71215 16 5.43994 15.673 5.43994 15.2696V10.0104Z" fill="currentColor"/>
<path d="M14.0801 3.44H14.5601C14.6484 3.44 14.7201 3.51164 14.7201 3.6V6.56C14.7201 6.64837 14.6484 6.72 14.5601 6.72H7.80011C7.00481 6.72 6.36011 7.36471 6.36011 8.16V8.64H7.64011V8.16C7.64011 8.07164 7.71174 8 7.80011 8H14.5601C15.3555 8 16.0001 7.3553 16.0001 6.56V3.6C16.0001 2.80471 15.3555 2.16 14.5601 2.16H14.0801V3.44Z" fill="currentColor"/>
</svg>
