<svg width="16" height="16" viewBox="0 0 16 16" fill="none" xmlns="http://www.w3.org/2000/svg">
<path d="M14.3023 1.71582C14.0651 1.7172 13.838 1.81245 13.6708 1.98077C13.6708 1.98077 9.91509 5.72922 7.63431 8.00848L6.02693 6.40109C5.67669 6.05175 5.1098 6.05175 4.75956 6.40109C4.41022 6.75132 4.41022 7.31822 4.75956 7.66845L7.00284 9.91173C7.35309 10.261 7.91995 10.261 8.2702 9.91173C10.3923 7.79041 14.9382 3.24814 14.9382 3.24814C15.2875 2.8979 15.2875 2.33101 14.9382 1.98077C14.7699 1.81138 14.5411 1.71603 14.3023 1.71582Z" fill="currentColor"/>
<path d="M8.00172 1C4.14578 1.00003 1 4.14236 1 7.99832C1 11.8542 4.14578 15 8.00172 15C11.166 15 13.944 12.8676 14.763 9.8111C14.9214 9.22021 15 8.61007 15 7.99832C15 7.51546 14.6089 7.12387 14.1261 7.12323C13.6432 7.12387 13.2521 7.51546 13.2521 7.99832C13.2521 8.45716 13.1897 8.91556 13.071 9.35875C12.4548 11.6582 10.3823 13.2521 8.00172 13.2522C5.09163 13.2521 2.74786 10.9084 2.74786 7.99832C2.74786 5.08823 5.09162 2.74788 8.00172 2.74788C8.46061 2.74791 8.91551 2.81042 9.35875 2.92902C9.82555 3.05418 10.3054 2.77725 10.4306 2.31044C10.4307 2.31004 10.4308 2.3096 10.4309 2.30919C10.5561 1.84238 10.2791 1.36252 9.81234 1.23736C9.81192 1.23726 9.81152 1.23712 9.8111 1.23702C9.22011 1.07869 8.61357 1.00003 8.00172 1Z" fill="currentColor"/>
</svg>
