<svg width="16" height="16" viewBox="0 0 16 16" fill="none" xmlns="http://www.w3.org/2000/svg">
<path d="M11.9999 9.3335H10.6666V6.66683H11.9999C13.4726 6.66683 14.6666 5.47283 14.6666 4.00016C14.6666 2.5275 13.4726 1.3335 11.9999 1.3335C10.5271 1.3335 9.33325 2.5275 9.33325 4.00016V5.3335H6.66658V4.00016C6.66658 2.5275 5.47259 1.3335 3.99992 1.3335C2.52725 1.3335 1.33325 2.5275 1.33325 4.00016C1.33325 5.47283 2.52725 6.66683 3.99992 6.66683H5.33325V9.3335H3.99992C2.52725 9.3335 1.33325 10.5275 1.33325 12.0002C1.33325 13.4728 2.52725 14.6668 3.99992 14.6668C5.47275 14.6668 6.66658 13.4728 6.66658 12.0002V10.6668H9.33325V11.9968L9.33309 12.0002C9.33309 13.4728 10.5271 14.6668 11.9998 14.6668C13.4724 14.6668 14.6664 13.4728 14.6664 12.0002C14.6664 10.5275 13.4726 9.33383 11.9999 9.3335ZM11.9999 2.66683C12.3535 2.66683 12.6927 2.80731 12.9427 3.05735C13.1928 3.3074 13.3333 3.64654 13.3333 4.00016C13.3333 4.35378 13.1928 4.69292 12.9427 4.94297C12.6927 5.19302 12.3535 5.3335 11.9999 5.3335H10.6666V4.00016C10.6666 3.64654 10.8071 3.3074 11.0571 3.05735C11.3072 2.80731 11.6463 2.66683 11.9999 2.66683ZM2.66659 4.00016C2.66659 3.64654 2.80706 3.3074 3.05711 3.05735C3.30716 2.80731 3.6463 2.66683 3.99992 2.66683C4.35354 2.66683 4.69268 2.80731 4.94273 3.05735C5.19278 3.3074 5.33325 3.64654 5.33325 4.00016V5.3335H3.99992C3.26359 5.3335 2.66659 4.73633 2.66659 4.00016ZM3.99992 13.3335C3.6463 13.3335 3.30716 13.193 3.05711 12.943C2.80706 12.6929 2.66659 12.3538 2.66659 12.0002C2.66659 11.6465 2.80706 11.3074 3.05711 11.0574C3.30716 10.8073 3.6463 10.6668 3.99992 10.6668H5.33325V12.0002C5.33325 12.3538 5.19278 12.6929 4.94273 12.943C4.69268 13.193 4.35354 13.3335 3.99992 13.3335ZM6.66658 9.3335V6.66683H9.33325V9.3335H6.66658ZM11.9999 13.3335C11.6463 13.3335 11.3072 13.193 11.0571 12.943C10.8071 12.6929 10.6666 12.3538 10.6666 12.0002V10.6668H11.9998C12.3534 10.6668 12.6925 10.8073 12.9426 11.0573C13.1926 11.3073 13.3331 11.6465 13.3332 12.0001C13.3332 12.3537 13.1927 12.6928 12.9427 12.9429C12.6927 13.193 12.3535 13.3335 11.9999 13.3335Z" fill="#301349"/>
</svg>
