<svg width="24" height="24" viewBox="0 0 24 24" fill="none" xmlns="http://www.w3.org/2000/svg">
<path d="M0 7C0 3.13401 3.13401 0 7 0H17C20.866 0 24 3.13401 24 7V17C24 20.866 20.866 24 17 24H7C3.13401 24 0 20.866 0 17V7Z" fill="#F7EBFF"/>
<path fill-rule="evenodd" clip-rule="evenodd" d="M5.78395 5.78395C6.71109 4.8568 8.10069 4.5 9.9 4.5H14.1C15.8993 4.5 17.2889 4.8568 18.2161 5.78395C19.1432 6.71109 19.5 8.10069 19.5 9.9V14.1C19.5 15.8993 19.1432 17.2889 18.2161 18.2161C17.2889 19.1432 15.8993 19.5 14.1 19.5H9.9C8.10069 19.5 6.71109 19.1432 5.78395 18.2161C4.8568 17.2889 4.5 15.8993 4.5 14.1V9.9C4.5 8.10069 4.8568 6.71109 5.78395 5.78395ZM6.49105 6.49105C5.8432 7.13891 5.5 8.19931 5.5 9.9V14.1C5.5 15.8007 5.8432 16.8611 6.49105 17.5089C7.13891 18.1568 8.19931 18.5 9.9 18.5H14.1C15.8007 18.5 16.8611 18.1568 17.5089 17.5089C18.1568 16.8611 18.5 15.8007 18.5 14.1V9.9C18.5 8.19931 18.1568 7.13891 17.5089 6.49105C16.8611 5.8432 15.8007 5.5 14.1 5.5H9.9C8.19931 5.5 7.13891 5.8432 6.49105 6.49105Z" fill="#71347B"/>
<path d="M11.6367 12.0586V14.2734C11.5534 14.3802 11.4219 14.4961 11.2422 14.6211C11.0651 14.7461 10.8333 14.8542 10.5469 14.9453C10.2604 15.0339 9.90885 15.0781 9.49219 15.0781C9.13021 15.0781 8.79948 15.0182 8.5 14.8984C8.20052 14.776 7.94271 14.5977 7.72656 14.3633C7.51042 14.1289 7.34375 13.8424 7.22656 13.5039C7.10938 13.1654 7.05078 12.7786 7.05078 12.3438V11.9688C7.05078 11.5339 7.10547 11.1471 7.21484 10.8086C7.32682 10.4701 7.48568 10.1836 7.69141 9.94922C7.89974 9.71484 8.14844 9.53646 8.4375 9.41406C8.72917 9.29167 9.05469 9.23047 9.41406 9.23047C9.89583 9.23047 10.2917 9.3099 10.6016 9.46875C10.9141 9.6276 11.1536 9.84635 11.3203 10.125C11.487 10.401 11.5911 10.7188 11.6328 11.0781H10.5859C10.5573 10.8802 10.5 10.707 10.4141 10.5586C10.3281 10.4076 10.2057 10.2904 10.0469 10.207C9.89062 10.1211 9.6875 10.0781 9.4375 10.0781C9.22656 10.0781 9.04036 10.1198 8.87891 10.2031C8.71745 10.2865 8.58203 10.4076 8.47266 10.5664C8.36328 10.7253 8.27995 10.9219 8.22266 11.1562C8.16797 11.3906 8.14062 11.6589 8.14062 11.9609V12.3438C8.14062 12.6484 8.17188 12.9193 8.23438 13.1562C8.29688 13.3906 8.38672 13.5885 8.50391 13.75C8.6237 13.9089 8.77083 14.0299 8.94531 14.1133C9.1224 14.194 9.32292 14.2344 9.54688 14.2344C9.75 14.2344 9.91797 14.2174 10.0508 14.1836C10.1862 14.1471 10.2943 14.1042 10.375 14.0547C10.4557 14.0052 10.5182 13.957 10.5625 13.9102V12.8438H9.43359V12.0586H11.6367ZM15.9805 13.1289H17.0547C17.026 13.5091 16.9206 13.8464 16.7383 14.1406C16.556 14.4323 16.3021 14.6615 15.9766 14.8281C15.651 14.9948 15.2565 15.0781 14.793 15.0781C14.4362 15.0781 14.1146 15.0156 13.8281 14.8906C13.5443 14.763 13.3008 14.582 13.0977 14.3477C12.8971 14.1107 12.7435 13.8268 12.6367 13.4961C12.5299 13.1628 12.4766 12.7891 12.4766 12.375V11.9414C12.4766 11.5273 12.5312 11.1536 12.6406 10.8203C12.75 10.487 12.9062 10.2031 13.1094 9.96875C13.3151 9.73177 13.5612 9.54948 13.8477 9.42188C14.1367 9.29427 14.4596 9.23047 14.8164 9.23047C15.2799 9.23047 15.6719 9.31641 15.9922 9.48828C16.3125 9.65755 16.5612 9.89062 16.7383 10.1875C16.9154 10.4844 17.0221 10.8255 17.0586 11.2109H15.9844C15.9635 10.9714 15.9115 10.7682 15.8281 10.6016C15.7474 10.4349 15.625 10.3086 15.4609 10.2227C15.2995 10.1341 15.0846 10.0898 14.8164 10.0898C14.6081 10.0898 14.4245 10.1289 14.2656 10.207C14.1094 10.2852 13.9792 10.4023 13.875 10.5586C13.7708 10.7122 13.6927 10.9049 13.6406 11.1367C13.5885 11.3659 13.5625 11.6315 13.5625 11.9336V12.375C13.5625 12.6641 13.5859 12.9232 13.6328 13.1523C13.6797 13.3815 13.7526 13.5755 13.8516 13.7344C13.9505 13.8932 14.0781 14.0143 14.2344 14.0977C14.3906 14.181 14.5768 14.2227 14.793 14.2227C15.056 14.2227 15.2695 14.181 15.4336 14.0977C15.6003 14.0143 15.7266 13.8919 15.8125 13.7305C15.901 13.569 15.957 13.3685 15.9805 13.1289Z" fill="#71347B"/>
</svg>
