<svg width="11" height="11" viewBox="0 0 11 11" fill="none" xmlns="http://www.w3.org/2000/svg">
<path d="M7.58219 4.17061C7.42413 3.91027 7.20562 3.71036 6.92668 3.57089C6.65704 3.43142 6.33626 3.36169 5.96434 3.36169C5.27629 3.36169 4.73235 3.58484 4.33254 4.03114C3.94202 4.47745 3.74677 5.07717 3.74677 5.83031C3.74677 6.67642 3.95597 7.32264 4.37438 7.76894C4.80209 8.20595 5.42041 8.42445 6.22933 8.42445C7.18703 8.42445 7.87043 7.99209 8.27954 7.12738H5.53198V5.16085H10.6366V7.81078C10.4227 8.33147 10.1066 8.81961 9.68819 9.27522C9.27908 9.73082 8.75839 10.1074 8.12612 10.4049C7.49386 10.6932 6.77327 10.8373 5.96434 10.8373C4.97875 10.8373 4.10474 10.6281 3.3423 10.2097C2.58917 9.78196 2.00339 9.19153 1.58498 8.4384C1.17587 7.67596 0.971313 6.8066 0.971313 5.83031C0.971313 4.86331 1.17587 4.00325 1.58498 3.25011C2.00339 2.48768 2.58917 1.89725 3.3423 1.47884C4.09544 1.05113 4.96481 0.83728 5.95039 0.83728C7.18703 0.83728 8.20981 1.13482 9.01873 1.72989C9.82766 2.32496 10.3298 3.13854 10.525 4.17061H7.58219Z" fill="currentColor"/>
</svg>
