<svg width="16" height="17" viewBox="0 0 16 17" fill="none" xmlns="http://www.w3.org/2000/svg">
<path d="M15.4273 4.75176L10.7936 0.117383C10.7467 0.0705078 10.6833 0.0439453 10.617 0.0439453H5.36828C4.14672 0.0439453 3.15297 1.03801 3.15297 2.25957V6.64426H1.20859C0.832969 6.64426 0.527344 6.94988 0.527344 7.32551V11.2418C0.527344 11.6174 0.832969 11.923 1.20859 11.923H3.15297V13.8283C3.15297 15.0499 4.14672 16.0439 5.36828 16.0439H13.2852C14.5067 16.0439 15.5005 15.0499 15.5005 13.8283V4.92863C15.5005 4.86238 15.4742 4.79863 15.4273 4.75176ZM15.0008 13.8283C15.0008 14.7746 14.2311 15.5443 13.2852 15.5443H5.36828C4.42234 15.5443 3.65266 14.7746 3.65266 13.8283V11.923H11.8836C12.2592 11.923 12.5648 11.6174 12.5648 11.2418V7.32551C12.5648 6.94988 12.2592 6.64426 11.8836 6.64426H3.65266V2.25957C3.65266 1.31332 4.42234 0.543633 5.36828 0.543633H10.367V4.42801C10.367 4.84176 10.7033 5.17832 11.1164 5.17832H15.0008V13.8283Z" fill="currentColor"/>
<path fill-rule="evenodd" clip-rule="evenodd" d="M4.87449 8.3684C5.01449 8.44507 5.12449 8.55673 5.20449 8.7034H6.00949C5.89949 8.35673 5.69949 8.0884 5.40949 7.8984C5.11949 7.70507 4.77783 7.6084 4.38449 7.6084C4.05116 7.6084 3.74783 7.68507 3.47449 7.8384C3.20449 7.9884 2.99116 8.20006 2.83449 8.4734C2.68116 8.7434 2.60449 9.05007 2.60449 9.3934C2.60449 9.73673 2.68116 10.0434 2.83449 10.3134C2.99116 10.5834 3.20449 10.7951 3.47449 10.9484C3.74783 11.0984 4.05283 11.1734 4.38949 11.1734C4.68949 11.1734 4.95949 11.1117 5.19949 10.9884C5.44283 10.8617 5.64116 10.6951 5.79449 10.4884C5.94783 10.2817 6.04783 10.0567 6.09449 9.8134V9.2034H4.20449V9.7384H5.40449C5.35116 9.99173 5.23949 10.1901 5.06949 10.3334C4.89949 10.4734 4.68116 10.5434 4.41449 10.5434C4.19783 10.5434 4.00783 10.4967 3.84449 10.4034C3.68116 10.3101 3.55283 10.1767 3.45949 10.0034C3.36949 9.83007 3.32449 9.62673 3.32449 9.3934C3.32449 9.16673 3.36949 8.96673 3.45949 8.7934C3.54949 8.62007 3.67449 8.48673 3.83449 8.3934C3.99449 8.30007 4.17783 8.2534 4.38449 8.2534C4.57116 8.2534 4.73449 8.29173 4.87449 8.3684ZM7.31238 11.1434V7.6534H6.61238V11.1434H7.31238ZM10.159 8.2184V7.6534H8.00398V11.1434H8.70398V9.6684H9.81898V9.1134H8.70398V8.2184H10.159Z" fill="white"/>
</svg>
