<svg width="20" height="16" viewBox="0 0 20 16" fill="none" xmlns="http://www.w3.org/2000/svg">
<rect width="20" height="16" rx="4" fill="#DED1E5"/>
<path d="M8.44 7.096C8.312 6.86133 8.136 6.68267 7.912 6.56C7.688 6.43733 7.42667 6.376 7.128 6.376C6.79733 6.376 6.504 6.45067 6.248 6.6C5.992 6.74933 5.792 6.96267 5.648 7.24C5.504 7.51733 5.432 7.83733 5.432 8.2C5.432 8.57333 5.504 8.89867 5.648 9.176C5.79733 9.45333 6.00267 9.66667 6.264 9.816C6.52533 9.96533 6.82933 10.04 7.176 10.04C7.60267 10.04 7.952 9.928 8.224 9.704C8.496 9.47467 8.67467 9.15733 8.76 8.752H6.84V7.896H9.864V8.872C9.78933 9.26133 9.62933 9.62133 9.384 9.952C9.13867 10.2827 8.82133 10.5493 8.432 10.752C8.048 10.9493 7.616 11.048 7.136 11.048C6.59733 11.048 6.10933 10.928 5.672 10.688C5.24 10.4427 4.89867 10.104 4.648 9.672C4.40267 9.24 4.28 8.74933 4.28 8.2C4.28 7.65067 4.40267 7.16 4.648 6.728C4.89867 6.29067 5.24 5.952 5.672 5.712C6.10933 5.46667 6.59467 5.344 7.128 5.344C7.75733 5.344 8.304 5.49867 8.768 5.808C9.232 6.112 9.552 6.54133 9.728 7.096H8.44ZM15.7086 5.416L13.6606 11H12.3006L10.2526 5.416H11.4526L12.9886 9.856L14.5166 5.416H15.7086Z" fill="currentColor"/>
</svg>
