<svg width="28" height="28" viewBox="0 0 28 28" fill="none" xmlns="http://www.w3.org/2000/svg">
<path fill-rule="evenodd" clip-rule="evenodd" d="M1.48027 20.2673C0.532932 18.382 0 16.2521 0 14C0 11.7479 0.532932 9.618 1.48027 7.73267C3.78093 3.14814 8.526 0 14 0C19.474 0 24.2191 3.14814 26.5197 7.73267C27.4671 9.618 28 11.7479 28 14C28 16.2521 27.4671 18.382 26.5197 20.2673C24.2191 24.8519 19.474 28 14 28C8.526 28 3.78093 24.8519 1.48027 20.2673ZM2.78693 9.35853C2.19427 10.7884 1.86667 12.3564 1.86667 14C1.86667 15.6436 2.19427 17.2116 2.78693 18.6415C4.31107 18.0507 6.10773 17.5765 8.09107 17.2573C7.9884 16.2139 7.93333 15.1228 7.93333 14C7.93333 12.8772 7.9884 11.7861 8.09107 10.7427C6.10773 10.4235 4.31107 9.94933 2.78693 9.35853ZM24.3609 7.68693C22.8163 5.15853 20.3728 3.2396 17.4767 2.37347C17.6064 2.57507 17.7324 2.7888 17.8537 3.01467C18.6499 4.50147 19.2864 6.5324 19.6691 8.8928C21.4125 8.61 23.0001 8.1984 24.3609 7.68693ZM10.5233 2.37347C7.6272 3.2396 5.18374 5.15853 3.63907 7.68693C4.99987 8.19933 6.58747 8.61 8.33094 8.8928C8.7136 6.5324 9.35014 4.50147 10.1463 3.01467C10.2676 2.7888 10.3936 2.57507 10.5233 2.37347ZM25.2131 18.6415C25.8057 17.2116 26.1333 15.6436 26.1333 14C26.1333 12.3564 25.8057 10.7884 25.2131 9.35853C23.6889 9.94933 21.8923 10.4235 19.9089 10.7427C20.0116 11.7861 20.0667 12.8772 20.0667 14C20.0667 15.1228 20.0116 16.2139 19.9089 17.2573C21.8923 17.5765 23.6889 18.0507 25.2131 18.6415ZM3.63907 20.3131C5.18374 22.8415 7.6272 24.7604 10.5233 25.6265C10.3936 25.4249 10.2676 25.2112 10.1463 24.9853C9.35014 23.4985 8.7136 21.4676 8.33094 19.1072C6.58747 19.39 4.99987 19.8016 3.63907 20.3131ZM17.4767 25.6265C20.3728 24.7604 22.8163 22.8415 24.3609 20.3131C23.0001 19.8016 21.4125 19.39 19.6691 19.1072C19.2864 21.4676 18.6499 23.4985 17.8537 24.9853C17.7324 25.2112 17.6064 25.4249 17.4767 25.6265ZM14 1.86667C13.6407 1.86667 13.3047 2.03746 12.9817 2.31186C12.5487 2.6796 12.1529 3.22187 11.7917 3.89667C11.0787 5.2276 10.5187 7.03733 10.1771 9.13827C11.3997 9.26613 12.6803 9.33333 14 9.33333C15.3197 9.33333 16.6003 9.2652 17.8229 9.13827C17.4813 7.03733 16.9213 5.2276 16.2083 3.89667C15.8471 3.22187 15.4513 2.6796 15.0183 2.31186C14.6953 2.03746 14.3593 1.86667 14 1.86667ZM14 26.1333C14.3593 26.1333 14.6953 25.9625 15.0183 25.6881C15.4513 25.3204 15.8471 24.7781 16.2083 24.1033C16.9213 22.7724 17.4813 20.9627 17.8229 18.8617C16.6003 18.7348 15.3197 18.6667 14 18.6667C12.6803 18.6667 11.3997 18.7348 10.1771 18.8617C10.5187 20.9627 11.0787 22.7724 11.7917 24.1033C12.1529 24.7781 12.5487 25.3204 12.9817 25.6881C13.3047 25.9625 13.6407 26.1333 14 26.1333ZM18.06 17.0119C18.1515 16.0468 18.2 15.0379 18.2 14C18.2 12.9621 18.1515 11.9532 18.06 10.9881C16.7617 11.1263 15.4009 11.2 14 11.2C12.5991 11.2 11.2383 11.1263 9.94 10.9881C9.84853 11.9532 9.8 12.9621 9.8 14C9.8 15.0379 9.84853 16.0468 9.94 17.0119C11.2383 16.8737 12.5991 16.8 14 16.8C15.4009 16.8 16.7617 16.8737 18.06 17.0119Z" fill="currentColor"/>
</svg>
