<svg width="12" height="16" viewBox="0 0 12 16" fill="none" xmlns="http://www.w3.org/2000/svg">
<path d="M2.58685 15.0513L2.58567 15.0508C1.9766 14.75 1.55615 14.3778 1.28499 13.9452C1.00268 13.4876 0.870972 13.0394 0.870972 12.5938C0.870972 12.13 0.98394 11.7187 1.22286 11.3024C1.45824 10.8923 1.79716 10.5458 2.25323 10.2642C2.55817 10.0759 2.9115 9.95023 3.31925 9.89342C3.31985 10.8929 3.42393 11.7229 3.65106 12.3574C3.86874 12.9655 4.17017 13.4636 4.58469 13.7858C4.968 14.0838 5.38919 14.2501 5.84817 14.2501C6.48759 14.2501 7.04815 14.0037 7.51826 13.5576L7.51827 13.5576L7.5203 13.5556C7.99573 13.0993 8.25696 12.5386 8.25696 11.8925C8.25696 11.1609 7.91399 10.5408 7.32183 10.0442L7.32016 10.0428C6.79599 9.60713 6.14126 9.12985 5.35914 8.61514C4.93546 8.31882 4.48741 7.98017 4.00538 7.59783L4.00332 7.5962C3.55955 7.248 3.18322 6.83106 2.86974 6.34216L2.86877 6.34066C2.58682 5.90438 2.43716 5.37204 2.43716 4.72111C2.43716 4.07825 2.60516 3.47804 2.92529 2.98254C3.26727 2.46456 3.71807 2.02141 4.28862 1.65696C4.87147 1.28467 5.52014 0.999049 6.22909 0.798336C6.93784 0.597676 7.64399 0.5 8.33983 0.5C9.21081 0.5 9.88436 0.631561 10.3891 0.866537C10.9158 1.11173 11.2777 1.4167 11.5106 1.76435C11.7586 2.13443 11.871 2.48999 11.871 2.84268C11.871 3.17589 11.7747 3.50115 11.5669 3.83004C11.3639 4.14457 11.0638 4.4124 10.6366 4.6235C10.3536 4.7634 10.0133 4.86194 9.6094 4.90995C9.62234 4.74545 9.63182 4.58579 9.63182 4.44143C9.63182 3.65476 9.45097 2.96761 8.97802 2.5179L8.97803 2.5179L8.97558 2.5156C8.56354 2.12904 8.07597 1.90856 7.52559 1.90856C6.99431 1.90856 6.5343 2.0891 6.10568 2.41581C5.58772 2.81064 5.37486 3.41359 5.37486 4.11166C5.37486 4.72017 5.54743 5.27189 5.91533 5.73386C6.24507 6.14792 6.66107 6.50767 7.16564 6.811C7.63318 7.09206 8.12785 7.3688 8.64964 7.63698L8.64962 7.63702L8.65579 7.64008C9.16885 7.89491 9.6604 8.17402 10.1349 8.47755C10.581 8.7629 10.9459 9.09231 11.2318 9.46351C11.4769 9.78159 11.6174 10.2025 11.6174 10.7529C11.6174 11.295 11.4517 11.8863 11.1077 12.4503C10.7589 13.0219 10.2769 13.5344 9.65523 13.9894C9.03349 14.4444 8.3148 14.8104 7.4943 15.0881L7.49299 15.0885C6.681 15.3659 5.83272 15.5 4.93604 15.5C3.94371 15.5 3.16796 15.3402 2.58685 15.0513Z" fill="white" stroke="#71347B"/>
</svg>
