<svg width="16" height="17" viewBox="0 0 16 17" fill="none" xmlns="http://www.w3.org/2000/svg">
<g clip-path="url(#clip0_2144_41230)">
<path d="M15.3959 7.39387L8.86968 7.39355C8.58149 7.39355 8.3479 7.62712 8.3479 7.9153V10.0001C8.3479 10.2883 8.58149 10.5219 8.86965 10.5219H12.5448C12.1424 11.5663 11.3913 12.441 10.433 12.9967L12.0001 15.7095C14.5139 14.2556 16.0001 11.7047 16.0001 8.84918C16.0001 8.44259 15.9701 8.15193 15.9101 7.82465C15.8646 7.57599 15.6487 7.39387 15.3959 7.39387Z" fill="#167EE6"/>
<path d="M8.0001 13.6541C6.20153 13.6541 4.63141 12.6714 3.78813 11.2173L1.07544 12.7808C2.45591 15.1734 5.04197 16.7846 8.0001 16.7846C9.45125 16.7846 10.8205 16.3938 12.0001 15.7129V15.7092L10.433 12.9964C9.71619 13.4122 8.88669 13.6541 8.0001 13.6541Z" fill="#12B347"/>
<path d="M12 15.7131V15.7094L10.4329 12.9966C9.71609 13.4123 8.88666 13.6543 8 13.6543V16.7847C9.45116 16.7847 10.8205 16.394 12 15.7131Z" fill="#0F993E"/>
<path d="M3.13044 8.78486C3.13044 7.89832 3.37238 7.06892 3.78803 6.35214L1.07534 4.78857C0.390687 5.96442 0 7.32998 0 8.78486C0 10.2397 0.390687 11.6053 1.07534 12.7811L3.78803 11.2176C3.37238 10.5008 3.13044 9.67139 3.13044 8.78486Z" fill="#FFD500"/>
<path d="M8.0001 3.91511C9.17294 3.91511 10.2503 4.33186 11.0917 5.02507C11.2993 5.19607 11.601 5.18373 11.7912 4.99357L13.2684 3.51639C13.4841 3.30064 13.4688 2.94748 13.2383 2.74754C11.8284 1.52445 9.99406 0.784668 8.0001 0.784668C5.04197 0.784668 2.45591 2.39582 1.07544 4.78839L3.78813 6.35195C4.63141 4.89779 6.20153 3.91511 8.0001 3.91511Z" fill="#FF4B26"/>
<path d="M11.0916 5.02507C11.2992 5.19607 11.601 5.18373 11.7911 4.99357L13.2683 3.51639C13.484 3.30064 13.4686 2.94748 13.2382 2.74754C11.8283 1.52442 9.99397 0.784668 8 0.784668V3.91511C9.17281 3.91511 10.2502 4.33186 11.0916 5.02507Z" fill="#D93F21"/>
</g>
<defs>
<clipPath id="clip0_2144_41230">
<rect width="16" height="16" fill="white" transform="translate(0 0.784668)"/>
</clipPath>
</defs>
</svg>
