<svg width="16" height="16" viewBox="0 0 16 16" fill="none" xmlns="http://www.w3.org/2000/svg">
<g clip-path="url(#clip0_9582_16047)">
<rect width="16" height="16" rx="8" fill="currentColor"/>
<path fill-rule="evenodd" clip-rule="evenodd" d="M5.91666 5.80792C5.91666 6.49828 5.35702 7.05792 4.66666 7.05792C3.97631 7.05792 3.41666 6.49828 3.41666 5.80792C3.41666 5.11757 3.97631 4.55792 4.66666 4.55792C5.35702 4.55792 5.91666 5.11757 5.91666 5.80792ZM5.03243 8.97849C5.27225 8.54623 5.61812 8.18212 6.0375 7.92042C5.92048 7.78116 5.77447 7.66911 5.60966 7.59211C5.44486 7.51511 5.26524 7.475 5.08333 7.47459H4.25C3.91878 7.47558 3.60142 7.60759 3.36721 7.8418C3.133 8.076 3.00099 8.39337 3 8.72459V9.55792C3.00066 9.77873 3.08867 9.99031 3.24481 10.1465C3.40094 10.3026 3.61252 10.3906 3.83333 10.3913H4.66667C4.66674 9.89693 4.79261 9.41075 5.03243 8.97849ZM11.3333 7.05792C12.0237 7.05792 12.5833 6.49828 12.5833 5.80792C12.5833 5.11757 12.0237 4.55792 11.3333 4.55792C10.643 4.55792 10.0833 5.11757 10.0833 5.80792C10.0833 6.49828 10.643 7.05792 11.3333 7.05792ZM13 9.55792V8.72459C12.999 8.39337 12.867 8.076 12.6328 7.8418C12.3986 7.60759 12.0812 7.47558 11.75 7.47459H10.9167C10.7348 7.475 10.5551 7.51511 10.3903 7.59211C10.2255 7.66911 10.0795 7.78116 9.9625 7.92042C10.3819 8.18212 10.7278 8.54623 10.9676 8.97849C11.2074 9.41075 11.3333 9.89693 11.3333 10.3913H12.1667C12.3875 10.3906 12.5991 10.3026 12.7552 10.1465C12.9113 9.99031 12.9993 9.77873 13 9.55792ZM8 7.89126C8.92047 7.89126 9.66667 7.14506 9.66667 6.22459C9.66667 5.30411 8.92047 4.55792 8 4.55792C7.07953 4.55792 6.33333 5.30411 6.33333 6.22459C6.33333 7.14506 7.07953 7.89126 8 7.89126ZM10.5 10.8079V10.3913C10.5 9.83872 10.2805 9.30882 9.88981 8.91812C9.49911 8.52742 8.9692 8.30792 8.41667 8.30792H7.58334C7.0308 8.30792 6.5009 8.52742 6.1102 8.91812C5.7195 9.30882 5.5 9.83872 5.5 10.3913V10.8079C5.50099 11.1391 5.63301 11.4565 5.86721 11.6907C6.10142 11.9249 6.41879 12.0569 6.75 12.0579H9.25C9.58122 12.0569 9.89859 11.9249 10.1328 11.6907C10.367 11.4565 10.499 11.1391 10.5 10.8079Z" fill="white"/>
</g>
<rect x="0.5" y="0.5" width="15" height="15" rx="7.5" stroke="white"/>
<defs>
<clipPath id="clip0_9582_16047">
<rect width="16" height="16" rx="8" fill="white"/>
</clipPath>
</defs>
</svg>
