<svg width="16" height="14" viewBox="0 0 16 14" fill="none" xmlns="http://www.w3.org/2000/svg">
<path fill-rule="evenodd" clip-rule="evenodd" d="M0 1.66683C0 0.930456 0.596955 0.333496 1.33333 0.333496H14.6667C15.403 0.333496 16 0.930456 16 1.66683C16 2.4032 15.403 3.00016 14.6667 3.00016H1.33333C0.596953 3.00016 0 2.4032 0 1.66683ZM0 7.00016C0 6.26379 0.596955 5.66683 1.33333 5.66683H9.33333C10.0697 5.66683 10.6667 6.26379 10.6667 7.00016C10.6667 7.73654 10.0697 8.3335 9.33333 8.3335H1.33333C0.596953 8.3335 0 7.73654 0 7.00016ZM1.33333 11.0002C0.596955 11.0002 0 11.5971 0 12.3335C0 13.0699 0.596953 13.6668 1.33333 13.6668H14.6667C15.403 13.6668 16 13.0699 16 12.3335C16 11.5971 15.403 11.0002 14.6667 11.0002H1.33333Z" fill="currentColor"/>
</svg>
