<svg width="110" height="120" viewBox="0 0 110 120" fill="none" xmlns="http://www.w3.org/2000/svg">
<g clip-path="url(#clip0_7010_20218)">
<path d="M92.4999 22.5H77.4999C74.742 22.4918 72.5082 20.258 72.5 17.5001V2.50006L92.4999 22.5Z" fill="#4A1353"/>
<path d="M90.0715 58.5714H69.5001C67.6066 58.5714 66.0715 60.1064 66.0715 62V82.5714C66.0715 84.465 67.6066 86 69.5001 86H90.0715C91.9651 86 93.5001 84.465 93.5001 82.5714V62C93.5001 60.1064 91.9651 58.5714 90.0715 58.5714Z" fill="#9D34AE"/>
<path d="M85.5 54H64.9286C63.035 54 61.5 55.535 61.5 57.4285V78C61.5 79.8935 63.035 81.4285 64.9286 81.4285H85.5C87.3935 81.4285 88.9286 79.8935 88.9286 78V57.4285C88.9286 55.535 87.3935 54 85.5 54Z" fill="#71347B"/>
<path d="M82.0715 66.5714H76.3572V60.8571C76.3572 60.554 76.2368 60.2633 76.0225 60.049C75.8082 59.8347 75.5175 59.7143 75.2144 59.7143C74.9113 59.7143 74.6206 59.8347 74.4062 60.049C74.1919 60.2633 74.0715 60.554 74.0715 60.8571V66.5714H68.3572C68.0541 66.5714 67.7634 66.6918 67.5491 66.9061C67.3348 67.1205 67.2144 67.4112 67.2144 67.7143C67.2144 68.0174 67.3348 68.3081 67.5491 68.5224C67.7634 68.7367 68.0541 68.8571 68.3572 68.8571H74.0715V74.5714C74.0715 74.8745 74.1919 75.1652 74.4062 75.3795C74.6206 75.5939 74.9113 75.7143 75.2144 75.7143C75.5175 75.7143 75.8082 75.5939 76.0225 75.3795C76.2368 75.1652 76.3572 74.8745 76.3572 74.5714V68.8571H82.0715C82.3746 68.8571 82.6653 68.7367 82.8796 68.5224C83.0939 68.3081 83.2144 68.0174 83.2144 67.7143C83.2144 67.4112 83.0939 67.1205 82.8796 66.9061C82.6653 66.6918 82.3746 66.5714 82.0715 66.5714Z" fill="#F5F5F5"/>
<path d="M15 15H40.0001V19.9999H15V15Z" fill="#71347B"/>
<path d="M15 25.0001H19.9999V30H15V25.0001Z" fill="#71347B"/>
<path d="M25 25.0001H29.9999V30H25V25.0001Z" fill="#71347B"/>
<path d="M90 112.5C90 113.881 88.8806 115 87.4999 115H7.5C6.1193 115 4.99992 113.881 4.99992 112.5V7.5C4.99992 6.1193 6.1193 4.99992 7.5 4.99992H70.0001V17.4998C70.0001 21.642 73.358 24.9998 77.5001 24.9998H82.5V19.9999H77.5001C76.1194 19.9999 75 18.8805 75 17.4998V8.535L90 23.535V32.5001H94.9999V22.5C94.9997 21.837 94.7362 21.2013 94.2675 20.7326L74.2676 0.732422C73.7988 0.263438 73.163 0 72.5002 0H7.5C3.35789 0 0 3.35789 0 7.5V112.5C0 116.642 3.35789 120 7.5 120H87.4999C91.642 120 94.9999 116.642 94.9999 112.5V107.5H90V112.5Z" fill="#71347B"/>
<path d="M77.5001 37.5C59.5509 37.5 45 52.0507 45 70.0001C45 87.9495 59.5509 102.5 77.5001 102.5C95.4492 102.5 110 87.9492 110 69.9998C109.979 52.0594 95.4408 37.5206 77.5001 37.5ZM77.5001 97.5C62.3123 97.5 50.0002 85.1878 50.0002 70.0001C50.0002 54.8123 62.3123 42.4999 77.5001 42.4999C92.6878 42.4999 105 54.8121 105 69.9998C104.982 85.1803 92.6805 97.4822 77.5001 97.5Z" fill="#71347B"/>
</g>
<defs>
<clipPath id="clip0_7010_20218">
<rect width="110" height="120" fill="white"/>
</clipPath>
</defs>
</svg>
