<svg width="16" height="17" viewBox="0 0 16 17" fill="none" xmlns="http://www.w3.org/2000/svg">
<g clip-path="url(#clip0_613_49273)">
<path d="M15.4386 7.15569L14 5.71702V4.56969C14 3.46702 13.1026 2.56969 12 2.56969H10.8526L9.41463 1.13169C8.65863 0.376352 7.3413 0.376352 6.58596 1.13169L5.14729 2.56969H3.99996C2.89729 2.56969 1.99996 3.46702 1.99996 4.56969V5.71702L0.561295 7.15569C-0.217372 7.93569 -0.217372 9.20369 0.561295 9.98369L1.99996 11.4224V12.5697C1.99996 13.6724 2.89729 14.5697 3.99996 14.5697H5.14729L6.5853 16.0077C6.9633 16.385 7.4653 16.5937 7.99996 16.5937C8.53463 16.5937 9.03663 16.3857 9.41396 16.0077L10.8526 14.5697H12C13.1026 14.5697 14 13.6724 14 12.5697V11.4224L15.4386 9.98369C16.2173 9.20369 16.2173 7.93569 15.4386 7.15569ZM9.96796 6.87969C10.1166 7.72769 9.7133 8.57502 8.96396 8.98902C8.83863 9.05769 8.66596 9.36435 8.66596 9.57302V9.90302C8.66596 10.2717 8.3673 10.5697 7.9993 10.5697C7.6313 10.5697 7.33263 10.2717 7.33263 9.90302V9.57302C7.33263 8.88435 7.75729 8.13102 8.31996 7.82102C8.5133 7.71502 8.71663 7.46435 8.65463 7.11035C8.60863 6.84902 8.38663 6.62702 8.12596 6.58169C7.92196 6.54369 7.72463 6.59569 7.5713 6.72569C7.4193 6.85235 7.33263 7.03902 7.33263 7.23702C7.33263 7.60569 7.03396 7.90369 6.66596 7.90369C6.29796 7.90369 5.9993 7.60569 5.9993 7.23702C5.9993 6.64435 6.25996 6.08569 6.71396 5.70435C7.1673 5.32302 7.76596 5.16169 8.35596 5.26902C9.16196 5.40969 9.82596 6.07169 9.96796 6.87969ZM8.9993 12.2364C8.9993 12.7884 8.5513 13.2364 7.9993 13.2364C7.4473 13.2364 6.9993 12.7884 6.9993 12.2364C6.9993 11.6844 7.4473 11.2364 7.9993 11.2364C8.5513 11.2364 8.9993 11.6844 8.9993 12.2364Z" fill="currentColor"/>
</g>
<defs>
<clipPath id="clip0_613_49273">
<rect width="16" height="16" fill="white" transform="translate(0 0.56958)"/>
</clipPath>
</defs>
</svg>
