<svg width="16" height="12" viewBox="0 0 16 12" fill="none" xmlns="http://www.w3.org/2000/svg">
<path fill-rule="evenodd" clip-rule="evenodd" d="M3.71305 9.66393C5.04428 10.4052 6.50768 10.7961 7.94891 10.7961H8.00016C9.00732 10.803 10.0251 10.6177 11.002 10.2561L12.2785 11.5326C12.3944 11.6486 12.5463 11.7067 12.6985 11.7067C12.8507 11.7067 13.0026 11.6486 13.1185 11.5326C13.3504 11.3008 13.3504 10.9248 13.1185 10.693L2.89276 0.467238C2.66089 0.235367 2.28496 0.235367 2.05308 0.467238C1.82121 0.699108 1.82121 1.07504 2.05308 1.30691L2.82682 2.08064C1.84059 2.78094 0.969356 3.67405 0.272807 4.70528C-0.0909357 5.24433 -0.0909357 5.94088 0.272807 6.48025C1.17123 7.81053 2.36089 8.91145 3.71274 9.66424L3.71305 9.66393ZM7.92234 7.17586C7.10986 7.13617 6.45644 6.48274 6.41675 5.67026L7.92234 7.17586ZM1.25716 5.36933C1.91277 4.39841 2.74182 3.56718 3.68024 2.93375L5.39333 4.64684C5.28583 4.94215 5.2274 5.26027 5.2274 5.59214C5.2274 7.12117 6.47144 8.36521 8.00047 8.36521C8.33234 8.36521 8.65045 8.30646 8.94576 8.19896L10.0629 9.31613C9.3995 9.50894 8.72233 9.60831 8.05203 9.60831H8.00484H7.99672C6.7408 9.61675 5.46083 9.27738 4.29117 8.62645C3.10119 7.96397 2.05215 6.9918 1.25779 5.81557C1.16623 5.67995 1.16623 5.50495 1.25779 5.36964L1.25716 5.36933ZM9.58103 5.47651L10.6163 6.51181C10.7179 6.224 10.7732 5.91463 10.7732 5.59245C10.7732 4.06342 9.52916 2.81938 8.00012 2.81938C7.67794 2.81938 7.36857 2.87469 7.08077 2.97625L8.11606 4.01154C8.89792 4.06842 9.52416 4.69465 9.58103 5.47651ZM12.2875 1.52096C13.6394 2.27376 14.8291 3.37468 15.7275 4.70497L15.7272 4.70465C16.0909 5.2437 16.0909 5.94025 15.7272 6.47931C15.0356 7.50335 14.1716 8.39114 13.1938 9.08925L12.341 8.23646C13.2706 7.60491 14.0922 6.77867 14.7431 5.81494C14.8347 5.67963 14.8347 5.50464 14.7431 5.36901C13.9488 4.19279 12.8997 3.22062 11.7097 2.55813C10.5401 1.90721 9.25854 1.5669 8.00419 1.57628H7.99606H7.94888C7.28764 1.57628 6.61953 1.67284 5.96485 1.86033L5.02393 0.919414C5.97673 0.570046 6.96796 0.3888 7.94888 0.3888H8.00013H8.05137C9.49291 0.3888 10.9563 0.779729 12.2875 1.52096Z" fill="currentColor"/>
</svg>
