<svg width="12" height="17" viewBox="0 0 12 17" fill="none" xmlns="http://www.w3.org/2000/svg">
<path fill-rule="evenodd" clip-rule="evenodd" d="M9.10311 0.701688L11.164 2.75408C11.3228 2.91404 11.4116 3.13055 11.4108 3.35597C11.41 3.58139 11.3197 3.79727 11.1598 3.9561C10.9998 4.11493 10.7833 4.20372 10.5579 4.20292C10.3324 4.20213 10.1166 4.11181 9.95774 3.95185L8.75482 2.74894V7.85227C8.75482 8.07757 8.66533 8.29364 8.50602 8.45294C8.34671 8.61225 8.13064 8.70175 7.90534 8.70175C7.68004 8.70175 7.46397 8.61225 7.30467 8.45294C7.14536 8.29364 7.05586 8.07757 7.05586 7.85227V2.74894L5.85295 3.95185C5.77398 4.03147 5.68002 4.09467 5.57651 4.1378C5.47299 4.18092 5.36196 4.20313 5.24981 4.20313C5.13767 4.20313 5.02664 4.18092 4.92312 4.1378C4.81961 4.09467 4.72565 4.03147 4.64668 3.95185C4.48846 3.79269 4.39966 3.57739 4.39966 3.35297C4.39966 3.12855 4.48846 2.91324 4.64668 2.75408L6.70757 0.701688C7.02589 0.385254 7.4565 0.207642 7.90534 0.207642C8.35418 0.207642 8.78479 0.385254 9.10311 0.701688ZM5.09921 15.7136L7.16009 13.6612C7.31893 13.5012 7.40771 13.2847 7.40692 13.0593C7.40612 12.8339 7.31581 12.618 7.15585 12.4592C6.99589 12.3003 6.77938 12.2116 6.55396 12.2124C6.32854 12.2132 6.11266 12.3035 5.95383 12.4634L4.75092 13.6663V8.56301C4.75092 8.33772 4.66142 8.12165 4.50211 7.96234C4.3428 7.80303 4.12673 7.71353 3.90143 7.71353C3.67614 7.71353 3.46007 7.80303 3.30076 7.96234C3.14145 8.12165 3.05195 8.33772 3.05195 8.56301V13.6663L1.84904 12.4634C1.77007 12.3838 1.67612 12.3206 1.5726 12.2775C1.46908 12.2344 1.35805 12.2122 1.24591 12.2122C1.13377 12.2122 1.02273 12.2344 0.919217 12.2775C0.815699 12.3206 0.721746 12.3838 0.642775 12.4634C0.484558 12.6226 0.395752 12.8379 0.395752 13.0623C0.395752 13.2867 0.484558 13.502 0.642775 13.6612L2.70366 15.7136C3.02199 16.03 3.45259 16.2076 3.90143 16.2076C4.35028 16.2076 4.78088 16.03 5.09921 15.7136Z" fill="currentColor"/>
</svg>
