<svg width="16" height="14" viewBox="0 0 16 14" fill="none" xmlns="http://www.w3.org/2000/svg">
<path fill-rule="evenodd" clip-rule="evenodd" d="M-0.0012207 0.957642C-0.0012207 0.543428 0.334566 0.207642 0.748779 0.207642H8.12878C8.54299 0.207642 8.87878 0.543428 8.87878 0.957642C8.87878 1.37186 8.54299 1.70764 8.12878 1.70764H0.748779C0.334566 1.70764 -0.0012207 1.37186 -0.0012207 0.957642ZM-0.0012207 4.9858C-0.0012207 4.57158 0.334566 4.2358 0.748779 4.2358H8.12878C8.54299 4.2358 8.87878 4.57158 8.87878 4.9858C8.87878 5.40001 8.54299 5.7358 8.12878 5.7358H0.748779C0.334566 5.7358 -0.0012207 5.40001 -0.0012207 4.9858ZM0.748779 8.26408C0.334566 8.26408 -0.0012207 8.59986 -0.0012207 9.01408C-0.0012207 9.42829 0.334566 9.76408 0.748779 9.76408H15.2504C15.6646 9.76408 16.0004 9.42829 16.0004 9.01408C16.0004 8.59986 15.6646 8.26408 15.2504 8.26408H0.748779ZM-0.0012207 13.0424C-0.0012207 12.6281 0.334566 12.2924 0.748779 12.2924H15.2504C15.6646 12.2924 16.0004 12.6281 16.0004 13.0424C16.0004 13.4566 15.6646 13.7924 15.2504 13.7924H0.748779C0.334566 13.7924 -0.0012207 13.4566 -0.0012207 13.0424ZM14.1556 6.60275L15.803 4.96211C15.93 4.83424 16.001 4.66117 16.0003 4.48098C15.9997 4.30078 15.9275 4.12822 15.7996 4.00125C15.6718 3.87428 15.4987 3.80331 15.3185 3.80394C15.1383 3.80458 14.9657 3.87677 14.8388 4.00464L13.8772 4.96622V0.886738C13.8772 0.706641 13.8056 0.53392 13.6783 0.406572C13.5509 0.279224 13.3782 0.207681 13.1981 0.207681C13.018 0.207681 12.8453 0.279224 12.7179 0.406572C12.5906 0.53392 12.5191 0.706641 12.5191 0.886738V4.96622L11.5575 4.00464C11.4944 3.941 11.4192 3.89048 11.3365 3.856C11.2537 3.82153 11.165 3.80378 11.0753 3.80378C10.9857 3.80378 10.8969 3.82153 10.8142 3.856C10.7314 3.89048 10.6563 3.941 10.5932 4.00464C10.4667 4.13187 10.3958 4.30398 10.3958 4.48338C10.3958 4.66278 10.4667 4.83488 10.5932 4.96211L12.2406 6.60275C12.4951 6.8557 12.8393 6.99768 13.1981 6.99768C13.5569 6.99768 13.9011 6.8557 14.1556 6.60275Z" fill="currentColor"/>
</svg>
