<svg width="24" height="24" viewBox="0 0 24 24" fill="none" xmlns="http://www.w3.org/2000/svg">
<g clip-path="url(#clip0_2947_13259)">
<path fill-rule="evenodd" clip-rule="evenodd" d="M3.99878 5.95764C3.99878 5.54343 4.33457 5.20764 4.74878 5.20764H12.1288C12.543 5.20764 12.8788 5.54343 12.8788 5.95764C12.8788 6.37186 12.543 6.70764 12.1288 6.70764H4.74878C4.33457 6.70764 3.99878 6.37186 3.99878 5.95764ZM3.99878 9.9858C3.99878 9.57158 4.33457 9.2358 4.74878 9.2358H12.1288C12.543 9.2358 12.8788 9.57158 12.8788 9.9858C12.8788 10.4 12.543 10.7358 12.1288 10.7358H4.74878C4.33457 10.7358 3.99878 10.4 3.99878 9.9858ZM4.74878 13.2641C4.33457 13.2641 3.99878 13.5999 3.99878 14.0141C3.99878 14.4283 4.33457 14.7641 4.74878 14.7641H19.2504C19.6646 14.7641 20.0004 14.4283 20.0004 14.0141C20.0004 13.5999 19.6646 13.2641 19.2504 13.2641H4.74878ZM3.99878 18.0424C3.99878 17.6281 4.33457 17.2924 4.74878 17.2924H19.2504C19.6646 17.2924 20.0004 17.6281 20.0004 18.0424C20.0004 18.4566 19.6646 18.7924 19.2504 18.7924H4.74878C4.33457 18.7924 3.99878 18.4566 3.99878 18.0424ZM18.1556 11.6028L19.803 9.96211C19.93 9.83424 20.001 9.66117 20.0003 9.48098C19.9997 9.30078 19.9275 9.12822 19.7996 9.00125C19.6718 8.87428 19.4987 8.80331 19.3185 8.80394C19.1383 8.80458 18.9657 8.87677 18.8388 9.00464L17.8772 9.96622V5.88674C17.8772 5.70664 17.8056 5.53392 17.6783 5.40657C17.5509 5.27922 17.3782 5.20768 17.1981 5.20768C17.018 5.20768 16.8453 5.27922 16.7179 5.40657C16.5906 5.53392 16.5191 5.70664 16.5191 5.88674V9.96622L15.5575 9.00464C15.4944 8.941 15.4192 8.89048 15.3365 8.856C15.2537 8.82153 15.165 8.80378 15.0753 8.80378C14.9857 8.80378 14.8969 8.82153 14.8142 8.856C14.7314 8.89048 14.6563 8.941 14.5932 9.00464C14.4667 9.13187 14.3958 9.30398 14.3958 9.48338C14.3958 9.66278 14.4667 9.83488 14.5932 9.96211L16.2406 11.6028C16.4951 11.8557 16.8393 11.9977 17.1981 11.9977C17.5569 11.9977 17.9011 11.8557 18.1556 11.6028Z" fill="currentColor"/>
</g>
<defs>
<clipPath id="clip0_2947_13259">
<path d="M0 4C0 1.79086 1.79086 0 4 0H20C22.2091 0 24 1.79086 24 4V20C24 22.2091 22.2091 24 20 24H4C1.79086 24 0 22.2091 0 20V4Z" fill="white"/>
</clipPath>
</defs>
</svg>
