<svg width="18" height="18" viewBox="0 0 18 18" fill="none" xmlns="http://www.w3.org/2000/svg">
<path d="M11.024 6.97605L6.97599 11.0241C6.45599 10.5041 6.13599 9.79205 6.13599 9.00005C6.13599 7.41605 7.41599 6.13605 8.99999 6.13605C9.79199 6.13605 10.504 6.45605 11.024 6.97605Z" stroke="currentColor" stroke-linecap="round" stroke-linejoin="round"/>
<path d="M3.87988 13.608C3.07988 12.92 2.35188 12.072 1.71188 11.072C0.991875 9.94404 0.991875 8.04804 1.71188 6.92003C2.65588 5.44003 3.80788 4.28003 5.09588 3.50403" stroke="currentColor" stroke-linecap="round" stroke-linejoin="round"/>
<path d="M13.656 4.01597C12.256 2.95997 10.656 2.38397 9 2.38397" stroke="currentColor" stroke-linecap="round" stroke-linejoin="round"/>
<path d="M6.13599 15.0241C7.04799 15.4081 8.01599 15.6161 8.99999 15.6161C11.824 15.6161 14.456 13.9521 16.288 11.0721C17.008 9.94409 17.008 8.04808 16.288 6.92008C16.024 6.50408 15.736 6.11208 15.44 5.74408" stroke="currentColor" stroke-linecap="round" stroke-linejoin="round"/>
<path d="M11.8079 9.56C11.5999 10.688 10.6799 11.608 9.55188 11.816" stroke="currentColor" stroke-linecap="round" stroke-linejoin="round"/>
<path d="M6.97601 11.024L1 17.0001" stroke="currentColor" stroke-linecap="round" stroke-linejoin="round"/>
<path d="M17.0001 1L11.024 6.97601" stroke="currentColor" stroke-linecap="round" stroke-linejoin="round"/>
</svg>
