<svg width="16" height="16" viewBox="0 0 16 16" fill="none" xmlns="http://www.w3.org/2000/svg">
<mask id="path-1-inside-1_2947_13205" fill="currentColor">
<path d="M7.63624 1.5C9.29576 1.5 9.69963 1.54828 10.3071 1.6209L10.3555 1.6267C10.5059 1.64474 10.6742 1.66492 10.8747 1.68562L10.8997 1.68812C11.0622 1.70542 11.2223 1.74042 11.3772 1.7925L11.4084 1.80312L11.4322 1.81187H11.4359L11.44 1.81344C11.7875 1.94044 12.098 2.15188 12.3435 2.42873C12.589 2.70558 12.7617 3.03914 12.8462 3.39937L12.8756 3.68062C12.9509 4.40688 13.0109 5.50219 13.0419 6.77594C13.0464 6.9684 13.1261 7.15143 13.264 7.28579C13.4018 7.42016 13.5868 7.49515 13.7794 7.49469C13.8825 7.49428 13.9846 7.47349 14.0796 7.43352C14.1747 7.39355 14.261 7.33518 14.3334 7.26176C14.4059 7.18835 14.4631 7.10134 14.5018 7.00574C14.5406 6.91014 14.56 6.80783 14.559 6.70469C14.5444 4.76719 14.3859 3.52625 14.3859 3.52625C14.314 2.83126 14.0484 2.17042 13.6194 1.61891C13.1904 1.06739 12.6153 0.64735 11.9594 0.406563C11.9247 0.39375 11.89 0.38125 11.855 0.369063C11.5957 0.28191 11.3276 0.223538 11.0556 0.195L11.0297 0.192187C10.8197 0.170636 10.6453 0.14994 10.4827 0.130637C9.84117 0.0544934 9.38206 0 7.63624 0C5.79355 0 5.25185 0.0607585 4.50652 0.144357C4.36705 0.16 4.22045 0.176443 4.05686 0.193437L4.03092 0.19625C3.74536 0.226245 3.46422 0.289163 3.19311 0.38375V0.369375C2.51701 0.599223 1.92102 1.01815 1.4758 1.57647C1.03058 2.13479 0.754828 2.80908 0.681235 3.51938C0.551235 4.76937 0.484985 5.97469 0.484985 7.90812C0.484985 9.84156 0.551235 11.0472 0.681235 12.2972C0.77005 13.1502 1.14949 13.9467 1.75592 14.5531C2.36234 15.1596 3.15886 15.539 4.01186 15.6278L4.0378 15.6303C4.24679 15.652 4.42044 15.6728 4.5824 15.6922C5.12105 15.7567 5.53034 15.8058 6.67999 15.8197C6.7785 15.8209 6.87629 15.8027 6.96777 15.7661C7.05924 15.7294 7.1426 15.6752 7.21309 15.6063C7.28359 15.5375 7.33982 15.4554 7.37859 15.3649C7.41736 15.2743 7.43791 15.177 7.43905 15.0784C7.44123 14.8808 7.36531 14.6903 7.22779 14.5483C7.09028 14.4064 6.90228 14.3244 6.70467 14.3203C5.73124 14.3003 5.14217 14.2481 4.75655 14.2019L4.753 14.2014C4.59232 14.1822 4.41118 14.1605 4.19217 14.1378L4.16717 14.135C3.65643 14.0819 3.17949 13.8548 2.81639 13.4917C2.4533 13.1286 2.22617 12.6517 2.17311 12.1409C2.0603 11.0569 1.98561 9.92219 1.98561 7.90719C1.98561 5.89219 2.06092 4.75781 2.17311 3.67375C2.21249 3.29234 2.34953 2.92753 2.571 2.61453C2.79248 2.30153 3.09091 2.05091 3.43749 1.88687L3.68499 1.80062C3.8468 1.74414 4.01457 1.70639 4.18499 1.68812L4.21186 1.68562C4.3708 1.66885 4.51117 1.65318 4.64628 1.6381L4.67124 1.63531C5.39592 1.55375 5.87499 1.5 7.63624 1.5Z"/>
<path d="M11.3506 12.6722H12.744C12.9243 12.6722 13.0972 12.6006 13.2247 12.4731C13.3521 12.3456 13.4237 12.1728 13.4237 11.9925C13.4237 11.8122 13.3521 11.6394 13.2247 11.5119C13.0972 11.3844 12.9243 11.3128 12.744 11.3128H12.0303V10.3206C12.0303 10.1404 11.9587 9.96748 11.8312 9.84001C11.7038 9.71255 11.5309 9.64094 11.3506 9.64094C11.1703 9.64094 10.9975 9.71255 10.87 9.84001C10.7425 9.96748 10.6709 10.1404 10.6709 10.3206V11.9925C10.6711 12.1727 10.7428 12.3455 10.8702 12.4729C10.9976 12.6004 11.1704 12.672 11.3506 12.6722Z"/>
<path fill-rule="evenodd" clip-rule="evenodd" d="M11.4172 16C9.15748 16 7.31936 14.1619 7.31936 11.9025C7.32052 10.816 7.75262 9.77443 8.52086 9.00619C9.2891 8.23795 10.3307 7.80585 11.4172 7.80469C13.6765 7.80469 15.515 9.64281 15.515 11.9025C15.515 14.1622 13.6765 16 11.4172 16ZM11.4172 9.30469C10.9034 9.30469 10.4011 9.45705 9.9739 9.7425C9.5467 10.0279 9.21373 10.4337 9.01711 10.9084C8.82048 11.383 8.76904 11.9054 8.86928 12.4093C8.96951 12.9132 9.21693 13.3761 9.58024 13.7394C9.94355 14.1027 10.4064 14.3502 10.9104 14.4504C11.4143 14.5506 11.9366 14.4992 12.4113 14.3026C12.886 14.1059 13.2917 13.773 13.5772 13.3458C13.8626 12.9186 14.015 12.4163 14.015 11.9025C14.0142 11.2137 13.7403 10.5534 13.2533 10.0664C12.7663 9.57937 12.1059 9.30543 11.4172 9.30469Z"/>
<path d="M10.934 4.16094H4.11342C3.9186 4.16493 3.7331 4.24512 3.59674 4.38432C3.46037 4.52351 3.38399 4.71061 3.38399 4.90547C3.38399 5.10033 3.46037 5.28743 3.59674 5.42662C3.7331 5.56581 3.9186 5.64601 4.11342 5.65H10.934C11.1289 5.64601 11.3144 5.56581 11.4507 5.42662C11.5871 5.28743 11.6635 5.10033 11.6635 4.90547C11.6635 4.71061 11.5871 4.52351 11.4507 4.38432C11.3144 4.24512 11.1289 4.16493 10.934 4.16094Z"/>
<path d="M4.11342 8.835C3.916 8.835 3.72667 8.75658 3.58707 8.61698C3.44747 8.47738 3.36905 8.28805 3.36905 8.09063C3.36905 7.89321 3.44747 7.70387 3.58707 7.56427C3.72667 7.42468 3.916 7.34625 4.11342 7.34625H8.0028C8.20022 7.34625 8.38955 7.42468 8.52915 7.56427C8.66875 7.70387 8.74717 7.89321 8.74717 8.09063C8.74717 8.28805 8.66875 8.47738 8.52915 8.61698C8.38955 8.75658 8.20022 8.835 8.0028 8.835H4.11342Z"/>
</mask>
<path d="M7.63624 1.5C9.29576 1.5 9.69963 1.54828 10.3071 1.6209L10.3555 1.6267C10.5059 1.64474 10.6742 1.66492 10.8747 1.68562L10.8997 1.68812C11.0622 1.70542 11.2223 1.74042 11.3772 1.7925L11.4084 1.80312L11.4322 1.81187H11.4359L11.44 1.81344C11.7875 1.94044 12.098 2.15188 12.3435 2.42873C12.589 2.70558 12.7617 3.03914 12.8462 3.39937L12.8756 3.68062C12.9509 4.40688 13.0109 5.50219 13.0419 6.77594C13.0464 6.9684 13.1261 7.15143 13.264 7.28579C13.4018 7.42016 13.5868 7.49515 13.7794 7.49469C13.8825 7.49428 13.9846 7.47349 14.0796 7.43352C14.1747 7.39355 14.261 7.33518 14.3334 7.26176C14.4059 7.18835 14.4631 7.10134 14.5018 7.00574C14.5406 6.91014 14.56 6.80783 14.559 6.70469C14.5444 4.76719 14.3859 3.52625 14.3859 3.52625C14.314 2.83126 14.0484 2.17042 13.6194 1.61891C13.1904 1.06739 12.6153 0.64735 11.9594 0.406563C11.9247 0.39375 11.89 0.38125 11.855 0.369063C11.5957 0.28191 11.3276 0.223538 11.0556 0.195L11.0297 0.192187C10.8197 0.170636 10.6453 0.14994 10.4827 0.130637C9.84117 0.0544934 9.38206 0 7.63624 0C5.79355 0 5.25185 0.0607585 4.50652 0.144357C4.36705 0.16 4.22045 0.176443 4.05686 0.193437L4.03092 0.19625C3.74536 0.226245 3.46422 0.289163 3.19311 0.38375V0.369375C2.51701 0.599223 1.92102 1.01815 1.4758 1.57647C1.03058 2.13479 0.754828 2.80908 0.681235 3.51938C0.551235 4.76937 0.484985 5.97469 0.484985 7.90812C0.484985 9.84156 0.551235 11.0472 0.681235 12.2972C0.77005 13.1502 1.14949 13.9467 1.75592 14.5531C2.36234 15.1596 3.15886 15.539 4.01186 15.6278L4.0378 15.6303C4.24679 15.652 4.42044 15.6728 4.5824 15.6922C5.12105 15.7567 5.53034 15.8058 6.67999 15.8197C6.7785 15.8209 6.87629 15.8027 6.96777 15.7661C7.05924 15.7294 7.1426 15.6752 7.21309 15.6063C7.28359 15.5375 7.33982 15.4554 7.37859 15.3649C7.41736 15.2743 7.43791 15.177 7.43905 15.0784C7.44123 14.8808 7.36531 14.6903 7.22779 14.5483C7.09028 14.4064 6.90228 14.3244 6.70467 14.3203C5.73124 14.3003 5.14217 14.2481 4.75655 14.2019L4.753 14.2014C4.59232 14.1822 4.41118 14.1605 4.19217 14.1378L4.16717 14.135C3.65643 14.0819 3.17949 13.8548 2.81639 13.4917C2.4533 13.1286 2.22617 12.6517 2.17311 12.1409C2.0603 11.0569 1.98561 9.92219 1.98561 7.90719C1.98561 5.89219 2.06092 4.75781 2.17311 3.67375C2.21249 3.29234 2.34953 2.92753 2.571 2.61453C2.79248 2.30153 3.09091 2.05091 3.43749 1.88687L3.68499 1.80062C3.8468 1.74414 4.01457 1.70639 4.18499 1.68812L4.21186 1.68562C4.3708 1.66885 4.51117 1.65318 4.64628 1.6381L4.67124 1.63531C5.39592 1.55375 5.87499 1.5 7.63624 1.5Z" fill="currentColor"/>
<path d="M11.3506 12.6722H12.744C12.9243 12.6722 13.0972 12.6006 13.2247 12.4731C13.3521 12.3456 13.4237 12.1728 13.4237 11.9925C13.4237 11.8122 13.3521 11.6394 13.2247 11.5119C13.0972 11.3844 12.9243 11.3128 12.744 11.3128H12.0303V10.3206C12.0303 10.1404 11.9587 9.96748 11.8312 9.84001C11.7038 9.71255 11.5309 9.64094 11.3506 9.64094C11.1703 9.64094 10.9975 9.71255 10.87 9.84001C10.7425 9.96748 10.6709 10.1404 10.6709 10.3206V11.9925C10.6711 12.1727 10.7428 12.3455 10.8702 12.4729C10.9976 12.6004 11.1704 12.672 11.3506 12.6722Z" fill="currentColor"/>
<path fill-rule="evenodd" clip-rule="evenodd" d="M11.4172 16C9.15748 16 7.31936 14.1619 7.31936 11.9025C7.32052 10.816 7.75262 9.77443 8.52086 9.00619C9.2891 8.23795 10.3307 7.80585 11.4172 7.80469C13.6765 7.80469 15.515 9.64281 15.515 11.9025C15.515 14.1622 13.6765 16 11.4172 16ZM11.4172 9.30469C10.9034 9.30469 10.4011 9.45705 9.9739 9.7425C9.5467 10.0279 9.21373 10.4337 9.01711 10.9084C8.82048 11.383 8.76904 11.9054 8.86928 12.4093C8.96951 12.9132 9.21693 13.3761 9.58024 13.7394C9.94355 14.1027 10.4064 14.3502 10.9104 14.4504C11.4143 14.5506 11.9366 14.4992 12.4113 14.3026C12.886 14.1059 13.2917 13.773 13.5772 13.3458C13.8626 12.9186 14.015 12.4163 14.015 11.9025C14.0142 11.2137 13.7403 10.5534 13.2533 10.0664C12.7663 9.57937 12.1059 9.30543 11.4172 9.30469Z" fill="currentColor"/>
<path d="M10.934 4.16094H4.11342C3.9186 4.16493 3.7331 4.24512 3.59674 4.38432C3.46037 4.52351 3.38399 4.71061 3.38399 4.90547C3.38399 5.10033 3.46037 5.28743 3.59674 5.42662C3.7331 5.56581 3.9186 5.64601 4.11342 5.65H10.934C11.1289 5.64601 11.3144 5.56581 11.4507 5.42662C11.5871 5.28743 11.6635 5.10033 11.6635 4.90547C11.6635 4.71061 11.5871 4.52351 11.4507 4.38432C11.3144 4.24512 11.1289 4.16493 10.934 4.16094Z" fill="currentColor"/>
<path d="M4.11342 8.835C3.916 8.835 3.72667 8.75658 3.58707 8.61698C3.44747 8.47738 3.36905 8.28805 3.36905 8.09063C3.36905 7.89321 3.44747 7.70387 3.58707 7.56427C3.72667 7.42468 3.916 7.34625 4.11342 7.34625H8.0028C8.20022 7.34625 8.38955 7.42468 8.52915 7.56427C8.66875 7.70387 8.74717 7.89321 8.74717 8.09063C8.74717 8.28805 8.66875 8.47738 8.52915 8.61698C8.38955 8.75658 8.20022 8.835 8.0028 8.835H4.11342Z" fill="currentColor"/>
<path d="M7.63624 1.5C9.29576 1.5 9.69963 1.54828 10.3071 1.6209L10.3555 1.6267C10.5059 1.64474 10.6742 1.66492 10.8747 1.68562L10.8997 1.68812C11.0622 1.70542 11.2223 1.74042 11.3772 1.7925L11.4084 1.80312L11.4322 1.81187H11.4359L11.44 1.81344C11.7875 1.94044 12.098 2.15188 12.3435 2.42873C12.589 2.70558 12.7617 3.03914 12.8462 3.39937L12.8756 3.68062C12.9509 4.40688 13.0109 5.50219 13.0419 6.77594C13.0464 6.9684 13.1261 7.15143 13.264 7.28579C13.4018 7.42016 13.5868 7.49515 13.7794 7.49469C13.8825 7.49428 13.9846 7.47349 14.0796 7.43352C14.1747 7.39355 14.261 7.33518 14.3334 7.26176C14.4059 7.18835 14.4631 7.10134 14.5018 7.00574C14.5406 6.91014 14.56 6.80783 14.559 6.70469C14.5444 4.76719 14.3859 3.52625 14.3859 3.52625C14.314 2.83126 14.0484 2.17042 13.6194 1.61891C13.1904 1.06739 12.6153 0.64735 11.9594 0.406563C11.9247 0.39375 11.89 0.38125 11.855 0.369063C11.5957 0.28191 11.3276 0.223538 11.0556 0.195L11.0297 0.192187C10.8197 0.170636 10.6453 0.14994 10.4827 0.130637C9.84117 0.0544934 9.38206 0 7.63624 0C5.79355 0 5.25185 0.0607585 4.50652 0.144357C4.36705 0.16 4.22045 0.176443 4.05686 0.193437L4.03092 0.19625C3.74536 0.226245 3.46422 0.289163 3.19311 0.38375V0.369375C2.51701 0.599223 1.92102 1.01815 1.4758 1.57647C1.03058 2.13479 0.754828 2.80908 0.681235 3.51938C0.551235 4.76937 0.484985 5.97469 0.484985 7.90812C0.484985 9.84156 0.551235 11.0472 0.681235 12.2972C0.77005 13.1502 1.14949 13.9467 1.75592 14.5531C2.36234 15.1596 3.15886 15.539 4.01186 15.6278L4.0378 15.6303C4.24679 15.652 4.42044 15.6728 4.5824 15.6922C5.12105 15.7567 5.53034 15.8058 6.67999 15.8197C6.7785 15.8209 6.87629 15.8027 6.96777 15.7661C7.05924 15.7294 7.1426 15.6752 7.21309 15.6063C7.28359 15.5375 7.33982 15.4554 7.37859 15.3649C7.41736 15.2743 7.43791 15.177 7.43905 15.0784C7.44123 14.8808 7.36531 14.6903 7.22779 14.5483C7.09028 14.4064 6.90228 14.3244 6.70467 14.3203C5.73124 14.3003 5.14217 14.2481 4.75655 14.2019L4.753 14.2014C4.59232 14.1822 4.41118 14.1605 4.19217 14.1378L4.16717 14.135C3.65643 14.0819 3.17949 13.8548 2.81639 13.4917C2.4533 13.1286 2.22617 12.6517 2.17311 12.1409C2.0603 11.0569 1.98561 9.92219 1.98561 7.90719C1.98561 5.89219 2.06092 4.75781 2.17311 3.67375C2.21249 3.29234 2.34953 2.92753 2.571 2.61453C2.79248 2.30153 3.09091 2.05091 3.43749 1.88687L3.68499 1.80062C3.8468 1.74414 4.01457 1.70639 4.18499 1.68812L4.21186 1.68562C4.3708 1.66885 4.51117 1.65318 4.64628 1.6381L4.67124 1.63531C5.39592 1.55375 5.87499 1.5 7.63624 1.5Z" stroke="white" stroke-width="0.2" mask="url(#path-1-inside-1_2947_13205)"/>
<path d="M11.3506 12.6722H12.744C12.9243 12.6722 13.0972 12.6006 13.2247 12.4731C13.3521 12.3456 13.4237 12.1728 13.4237 11.9925C13.4237 11.8122 13.3521 11.6394 13.2247 11.5119C13.0972 11.3844 12.9243 11.3128 12.744 11.3128H12.0303V10.3206C12.0303 10.1404 11.9587 9.96748 11.8312 9.84001C11.7038 9.71255 11.5309 9.64094 11.3506 9.64094C11.1703 9.64094 10.9975 9.71255 10.87 9.84001C10.7425 9.96748 10.6709 10.1404 10.6709 10.3206V11.9925C10.6711 12.1727 10.7428 12.3455 10.8702 12.4729C10.9976 12.6004 11.1704 12.672 11.3506 12.6722Z" stroke="white" stroke-width="0.2" mask="url(#path-1-inside-1_2947_13205)"/>
<path fill-rule="evenodd" clip-rule="evenodd" d="M11.4172 16C9.15748 16 7.31936 14.1619 7.31936 11.9025C7.32052 10.816 7.75262 9.77443 8.52086 9.00619C9.2891 8.23795 10.3307 7.80585 11.4172 7.80469C13.6765 7.80469 15.515 9.64281 15.515 11.9025C15.515 14.1622 13.6765 16 11.4172 16ZM11.4172 9.30469C10.9034 9.30469 10.4011 9.45705 9.9739 9.7425C9.5467 10.0279 9.21373 10.4337 9.01711 10.9084C8.82048 11.383 8.76904 11.9054 8.86928 12.4093C8.96951 12.9132 9.21693 13.3761 9.58024 13.7394C9.94355 14.1027 10.4064 14.3502 10.9104 14.4504C11.4143 14.5506 11.9366 14.4992 12.4113 14.3026C12.886 14.1059 13.2917 13.773 13.5772 13.3458C13.8626 12.9186 14.015 12.4163 14.015 11.9025C14.0142 11.2137 13.7403 10.5534 13.2533 10.0664C12.7663 9.57937 12.1059 9.30543 11.4172 9.30469Z" stroke="white" stroke-width="0.2" mask="url(#path-1-inside-1_2947_13205)"/>
<path d="M10.934 4.16094H4.11342C3.9186 4.16493 3.7331 4.24512 3.59674 4.38432C3.46037 4.52351 3.38399 4.71061 3.38399 4.90547C3.38399 5.10033 3.46037 5.28743 3.59674 5.42662C3.7331 5.56581 3.9186 5.64601 4.11342 5.65H10.934C11.1289 5.64601 11.3144 5.56581 11.4507 5.42662C11.5871 5.28743 11.6635 5.10033 11.6635 4.90547C11.6635 4.71061 11.5871 4.52351 11.4507 4.38432C11.3144 4.24512 11.1289 4.16493 10.934 4.16094Z" stroke="white" stroke-width="0.2" mask="url(#path-1-inside-1_2947_13205)"/>
<path d="M4.11342 8.835C3.916 8.835 3.72667 8.75658 3.58707 8.61698C3.44747 8.47738 3.36905 8.28805 3.36905 8.09063C3.36905 7.89321 3.44747 7.70387 3.58707 7.56427C3.72667 7.42468 3.916 7.34625 4.11342 7.34625H8.0028C8.20022 7.34625 8.38955 7.42468 8.52915 7.56427C8.66875 7.70387 8.74717 7.89321 8.74717 8.09063C8.74717 8.28805 8.66875 8.47738 8.52915 8.61698C8.38955 8.75658 8.20022 8.835 8.0028 8.835H4.11342Z" stroke="white" stroke-width="0.2" mask="url(#path-1-inside-1_2947_13205)"/>
</svg>
