<svg width="16" height="5" viewBox="0 0 16 5" fill="none" xmlns="http://www.w3.org/2000/svg">
<g clip-path="url(#clip0_6138_26194)">
<path d="M0.95791 2.62659H0.80191C0.60191 2.62659 0.43791 2.56459 0.30991 2.44259C0.17591 2.30259 0.10791 2.13059 0.10791 1.93059V1.07859C0.10791 1.01659 0.12991 0.962586 0.17591 0.918586C0.22191 0.872586 0.27391 0.850586 0.33591 0.850586C0.40191 0.850586 0.45591 0.872586 0.49991 0.918586C0.54591 0.962586 0.56991 1.01659 0.56991 1.07859V1.93059C0.56991 1.97459 0.57791 2.02259 0.59591 2.07259C0.63391 2.13259 0.69591 2.16459 0.78791 2.16459H0.86191H2.33591C2.53791 2.16459 2.70191 2.22659 2.82791 2.34859C2.96191 2.48859 3.02991 2.66059 3.02991 2.86059V4.49059C3.02991 4.55259 3.00791 4.60459 2.96191 4.65059C2.91791 4.69459 2.86391 4.71859 2.80391 4.71859C2.73791 4.71859 2.68191 4.69459 2.63791 4.65059C2.59191 4.60459 2.56991 4.55259 2.56991 4.49059V2.86059C2.56991 2.81659 2.55991 2.76859 2.54391 2.72059C2.50591 2.65859 2.44191 2.62659 2.35191 2.62659H0.95791Z" fill="#1F1B20"/>
<path d="M0.56991 3.7926V4.4906C0.56991 4.5526 0.54591 4.6046 0.50191 4.6506C0.45591 4.6966 0.40191 4.7186 0.34191 4.7186C0.27591 4.7186 0.21991 4.6966 0.17591 4.6506C0.12991 4.6046 0.10791 4.5526 0.10791 4.4906V3.7926V3.1406C0.10791 3.0786 0.12991 3.0266 0.17591 2.9806C0.21991 2.9346 0.27391 2.9126 0.33591 2.9126C0.40191 2.9126 0.45591 2.9346 0.50191 2.9806C0.54591 3.0266 0.56991 3.0786 0.56991 3.1406V3.7926Z" fill="#1F1B20"/>
<path d="M15.3697 2.62655H15.6637C15.7257 2.62655 15.7797 2.60455 15.8237 2.55855C15.8697 2.51455 15.8917 2.45855 15.8917 2.39255C15.8917 2.33055 15.8697 2.27655 15.8237 2.23255C15.7797 2.18655 15.7257 2.16455 15.6637 2.16455H15.3697H14.3117C14.1117 2.16455 13.9457 2.22855 13.8137 2.35455C13.6837 2.48455 13.6177 2.65255 13.6177 2.86055V4.49055C13.6177 4.55255 13.6397 4.60655 13.6857 4.65055C13.7297 4.69655 13.7857 4.71855 13.8517 4.71855C13.9117 4.71855 13.9657 4.69655 14.0117 4.65055C14.0557 4.60655 14.0797 4.55255 14.0797 4.49055V2.86055C14.0797 2.70455 14.1537 2.62655 14.3057 2.62655H15.3697Z" fill="#1F1B20"/>
<path d="M7.42387 3.8826V4.4906C7.42387 4.5526 7.40187 4.6046 7.35587 4.6506C7.31187 4.6966 7.25787 4.7186 7.19587 4.7186C7.13187 4.7186 7.07587 4.6966 7.03187 4.6506C6.98587 4.6046 6.96387 4.5526 6.96387 4.4906V3.8826V3.1406C6.96387 3.0786 6.98587 3.0266 7.03187 2.9806C7.07587 2.9346 7.12987 2.9126 7.18987 2.9126C7.25587 2.9126 7.31187 2.9346 7.35587 2.9806C7.40187 3.0266 7.42387 3.0786 7.42387 3.1406V3.8826Z" fill="#1F1B20"/>
<path d="M7.48587 2.62655H7.18987C7.12987 2.62655 7.07587 2.60455 7.03187 2.55855C6.98587 2.51455 6.96387 2.45855 6.96387 2.39255C6.96387 2.33055 6.98587 2.27655 7.03187 2.23255C7.07587 2.18655 7.12987 2.16455 7.18987 2.16455H7.48587H8.98787C9.18787 2.16455 9.35387 2.22855 9.48587 2.35455C9.61587 2.48455 9.68187 2.65255 9.68187 2.86055V4.49055C9.68187 4.55255 9.65987 4.60455 9.61387 4.65055C9.56987 4.69455 9.51387 4.71855 9.44787 4.71855C9.38587 4.71855 9.33387 4.69455 9.28787 4.65055C9.24387 4.60455 9.22187 4.55255 9.22187 4.49055V2.86055C9.22187 2.70455 9.14587 2.62655 8.99387 2.62655H7.48587Z" fill="#1F1B20"/>
<path d="M4.21983 4.71855C4.01983 4.71855 3.84983 4.65055 3.71183 4.51455C3.58783 4.38655 3.52783 4.22255 3.52783 4.02255V2.86055C3.52783 2.68455 3.57783 2.53255 3.67983 2.40655C3.80783 2.24455 3.98383 2.16455 4.21383 2.16455H5.53183H5.77383C5.97383 2.16455 6.14383 2.23255 6.28383 2.36855C6.40583 2.49455 6.46783 2.66055 6.46783 2.86055V3.11455V4.02655C6.46783 4.20055 6.41583 4.35055 6.31383 4.47655C6.18183 4.63855 6.00183 4.71855 5.77383 4.71855H4.21983ZM3.98783 4.03655C3.98783 4.12655 4.01783 4.19055 4.07983 4.22855C4.12983 4.24655 4.17583 4.25655 4.21983 4.25655H4.41783H5.78183C5.87583 4.25655 5.94183 4.22455 5.97983 4.16255C5.99783 4.11455 6.00583 4.06655 6.00583 4.02255V3.11455V2.84655C6.00583 2.75655 5.97583 2.69055 5.91383 2.65455C5.86583 2.63655 5.81783 2.62655 5.77383 2.62655H5.53183H4.20583C4.11583 2.62655 4.05183 2.65855 4.01383 2.72055C3.99583 2.76855 3.98783 2.81655 3.98783 2.86055V4.03655Z" fill="#1F1B20"/>
<path d="M10.8761 4.71855C10.6741 4.71855 10.5041 4.65055 10.3661 4.51455C10.2421 4.38655 10.1821 4.22255 10.1821 4.02255V2.86055C10.1821 2.68455 10.2321 2.53255 10.3341 2.40655C10.4621 2.24455 10.6401 2.16455 10.8681 2.16455H12.1861H12.4281C12.6281 2.16455 12.7981 2.23255 12.9381 2.36855C13.0601 2.49455 13.1221 2.66055 13.1221 2.86055V3.11455V4.02655C13.1221 4.20055 13.0701 4.35055 12.9681 4.47655C12.8361 4.63855 12.6561 4.71855 12.4281 4.71855H10.8761ZM10.6421 4.03655C10.6421 4.12655 10.6721 4.19055 10.7341 4.22855C10.7841 4.24655 10.8301 4.25655 10.8761 4.25655H11.0721H12.4361C12.5301 4.25655 12.5961 4.22455 12.6341 4.16255C12.6521 4.11455 12.6601 4.06655 12.6601 4.02255V3.11455V2.84655C12.6601 2.75655 12.6301 2.69055 12.5701 2.65455C12.5201 2.63655 12.4721 2.62655 12.4281 2.62655H12.1861H10.8601C10.7701 2.62655 10.7061 2.65855 10.6681 2.72055C10.6501 2.76855 10.6421 2.81655 10.6421 2.86055V4.03655Z" fill="#1F1B20"/>
</g>
<defs>
<clipPath id="clip0_6138_26194">
<rect width="16" height="4" fill="white" transform="translate(0 0.784546)"/>
</clipPath>
</defs>
</svg>
