<svg width="16" height="16" viewBox="0 0 16 16" fill="none" xmlns="http://www.w3.org/2000/svg">
<path d="M2.3749 4.75C3.68652 4.75 4.7498 3.68668 4.7498 2.375C4.7498 1.06332 3.68652 0 2.3749 0C1.06328 0 0 1.06332 0 2.375C0 3.68668 1.06328 4.75 2.3749 4.75Z" fill="currentColor"/>
<path d="M5.45189 10.0438C5.5011 10.129 5.57202 10.1998 5.65742 10.2487C5.74283 10.2977 5.83968 10.3231 5.93812 10.3225H10.063C10.1612 10.3225 10.2577 10.2968 10.3429 10.2479C10.4282 10.199 10.4991 10.1286 10.5486 10.0438C10.5982 9.95893 10.6247 9.8626 10.6254 9.76435C10.6262 9.6661 10.6012 9.56937 10.5529 9.48378L8.49052 5.83253C8.44155 5.74566 8.37037 5.67338 8.28427 5.62308C8.19817 5.57277 8.10025 5.54626 8.00054 5.54626C7.90082 5.54626 7.8029 5.57277 7.7168 5.62308C7.63071 5.67338 7.55953 5.74566 7.51056 5.83253L5.44814 9.48378C5.39958 9.56924 5.37435 9.66598 5.37501 9.76428C5.37567 9.86258 5.40219 9.95897 5.45189 10.0438Z" fill="currentColor"/>
<path d="M15.4373 11.25H11.8125C11.5018 11.25 11.25 11.5018 11.25 11.8125V15.4375C11.25 15.7482 11.5018 16 11.8125 16H15.4373C15.748 16 15.9998 15.7482 15.9998 15.4375V11.8125C15.9998 11.5018 15.748 11.25 15.4373 11.25Z" fill="currentColor"/>
<path d="M12.646 9.6425C12.7508 9.60129 12.8407 9.52933 12.9038 9.43607C12.9669 9.34281 13.0004 9.23262 12.9997 9.12V8.8675C13.8636 8.6966 14.639 8.22491 15.188 7.53626C15.7371 6.84761 16.0242 5.9866 15.9983 5.10625C15.9383 3.1175 14.2384 1.5 12.206 1.5H6.06248C5.91337 1.50023 5.77044 1.55957 5.665 1.66501C5.55957 1.77045 5.50023 1.91339 5.5 2.0625V2.8125C5.50023 2.96161 5.55957 3.10455 5.665 3.20999C5.77044 3.31543 5.91337 3.37477 6.06248 3.375H12.2272C12.4822 3.37619 12.7344 3.42783 12.9693 3.52695C13.2042 3.62607 13.4172 3.77069 13.5959 3.9525C13.7661 4.12258 13.9006 4.32499 13.9914 4.54782C14.0822 4.77065 14.1275 5.00939 14.1246 5.25C14.1169 5.60613 14.0067 5.95248 13.8072 6.24756C13.6077 6.54265 13.3273 6.77395 12.9997 6.91375V6.88C12.9999 6.76731 12.9663 6.65716 12.9031 6.56381C12.84 6.47047 12.7503 6.39824 12.6456 6.35648C12.541 6.31472 12.4262 6.30536 12.3162 6.32961C12.2061 6.35387 12.1059 6.41061 12.0285 6.4925L10.9685 7.61375C10.8699 7.71817 10.815 7.85636 10.815 8C10.815 8.14364 10.8699 8.28183 10.9685 8.38625C10.9685 8.38625 11.7635 9.22625 12.0285 9.5075C12.106 9.58927 12.2064 9.64587 12.3165 9.66994C12.4266 9.69401 12.5414 9.68445 12.646 9.6425Z" fill="currentColor"/>
<path d="M2.40397 12.1063C2.23376 11.9362 2.0993 11.7338 2.00849 11.511C1.91769 11.2881 1.87238 11.0494 1.87524 10.8088C1.8856 10.3259 2.08414 9.8662 2.42855 9.52762C2.77295 9.18904 3.23597 8.99838 3.71892 8.99628H3.87516C4.02427 8.99605 4.1672 8.93671 4.27264 8.83127C4.37807 8.72583 4.43741 8.58289 4.43764 8.43378V7.68378C4.43741 7.53466 4.37807 7.39172 4.27264 7.28628C4.1672 7.18085 4.02427 7.12151 3.87516 7.12128H3.71892C3.22125 7.12182 2.72874 7.22214 2.27051 7.4163C1.81228 7.61047 1.39763 7.89454 1.05107 8.25172C0.704506 8.6089 0.433071 9.03194 0.252809 9.49583C0.0725468 9.95972 -0.0128828 10.455 0.00157048 10.9525C0.061568 12.9413 1.7615 14.5588 3.79391 14.5588H8.49997V14.6788C8.49976 14.7915 8.53339 14.9016 8.59652 14.995C8.65964 15.0883 8.74935 15.1605 8.85401 15.2023C8.95867 15.2441 9.07346 15.2534 9.1835 15.2292C9.29355 15.2049 9.39377 15.1482 9.47118 15.0663C9.73617 14.785 10.5311 13.945 10.5311 13.945C10.6298 13.8406 10.6847 13.7024 10.6847 13.5588C10.6847 13.4151 10.6298 13.2769 10.5311 13.1725L9.47118 12.0513C9.39377 11.9694 9.29355 11.9126 9.1835 11.8884C9.07346 11.8641 8.95867 11.8735 8.85401 11.9153C8.74935 11.957 8.65964 12.0292 8.59652 12.1226C8.53339 12.2159 8.49976 12.3261 8.49997 12.4388V12.6838H3.77266C3.51771 12.6826 3.26551 12.6309 3.0306 12.5318C2.7957 12.4327 2.58273 12.2881 2.40397 12.1063Z" fill="currentColor"/>
</svg>
