<svg width="17" height="13" viewBox="0 0 17 13" fill="none" xmlns="http://www.w3.org/2000/svg">
<path d="M5.59083 0.184937H1.22727C0.825606 0.184937 0.500015 0.510527 0.500015 0.912192V5.27575C0.500015 5.67742 0.825606 6.00301 1.22727 6.00301H5.59083C5.9925 6.00301 6.31809 5.67742 6.31809 5.27575V0.912192C6.31809 0.510527 5.9925 0.184937 5.59083 0.184937ZM4.86358 4.5485H1.95453V1.63945H4.86358V4.5485Z" fill="currentColor"/>
<path d="M15.7725 2.3667H8.49988C8.09822 2.3667 7.77263 2.69229 7.77263 3.09395C7.77263 3.49562 8.09822 3.82121 8.49988 3.82121H15.7725C16.1742 3.82121 16.4998 3.49562 16.4998 3.09395C16.4998 2.69232 16.1741 2.3667 15.7725 2.3667Z" fill="currentColor"/>
<path d="M15.7725 9.63934H8.49988C8.09822 9.63934 7.77263 9.96496 7.77263 10.3666C7.77263 10.7682 8.09822 11.0939 8.49988 11.0939H15.7725C16.1742 11.0939 16.4998 10.7682 16.4998 10.3666C16.4998 9.96496 16.1741 9.63934 15.7725 9.63934Z" fill="currentColor"/>
<path d="M5.08175 8.39496L2.66071 10.7869L1.75018 9.8415C1.47083 9.55271 1.01026 9.54505 0.721464 9.8244C0.432666 10.1037 0.425011 10.5643 0.704359 10.8531L2.12542 12.3302C2.26093 12.4684 2.446 12.547 2.6396 12.5484H2.64833C2.839 12.5478 3.02183 12.4723 3.15741 12.3382L6.09992 9.42913C6.40434 9.16714 6.43874 8.70792 6.17675 8.4035C5.91475 8.09908 5.45554 8.06468 5.15112 8.32667C5.12651 8.34787 5.10333 8.37068 5.08175 8.39496Z" fill="currentColor"/>
</svg>
