<svg width="64" height="64" viewBox="0 0 65 64" fill="none" xmlns="http://www.w3.org/2000/svg">
<rect opacity="0.1" x="0.201172" width="64" height="64" rx="32" fill="#5F2868"/>
<rect opacity="0.3" x="12.2012" y="12" width="40" height="40" rx="20" fill="#5F2868"/>
<path fill-rule="evenodd" clip-rule="evenodd" d="M34.1995 32.2198L29.3093 36.4717V34.7262C29.3093 34.64 29.2392 34.5699 29.153 34.5699H22.6699V29.8698H29.153C29.2393 29.8698 29.3093 29.7998 29.3093 29.7135V27.968L34.1995 32.2198ZM39.623 22.6899L41.5115 24.5785H39.623V22.6899Z" fill="#5F2868" stroke="#5F2868" stroke-width="0.2"/>
<path fill-rule="evenodd" clip-rule="evenodd" d="M36.3418 26.0133H29.9906C29.8178 26.0133 29.6779 25.8734 29.6779 25.7008C29.6779 25.5286 29.8178 25.3884 29.9906 25.3884H36.3418C36.5144 25.3884 36.6543 25.5287 36.6543 25.7008C36.6543 25.8734 36.5145 26.0133 36.3418 26.0133ZM39.1507 38.7379C39.1507 38.9107 39.0105 39.0505 38.8382 39.0505H29.9906C29.8178 39.0505 29.6779 38.9107 29.6779 38.7379C29.6779 38.5657 29.8178 38.4253 29.9906 38.4253H38.8382C39.0105 38.4253 39.1507 38.5658 39.1507 38.7379ZM39.1507 36.1305C39.1507 36.3032 39.0105 36.443 38.8382 36.443H31.8065C31.6339 36.443 31.494 36.3032 31.494 36.1305C31.494 35.9583 31.6339 35.818 31.8065 35.818H38.8382C39.0105 35.818 39.1507 35.9583 39.1507 36.1305ZM39.1507 30.9156C39.1507 31.0884 39.0105 31.2283 38.8382 31.2283H35.0586C34.886 31.2283 34.7461 31.0884 34.7461 30.9156C34.7461 30.7435 34.886 30.6032 35.0586 30.6032H38.8382C39.0105 30.6032 39.1507 30.7435 39.1507 30.9156ZM39.1507 33.523C39.1507 33.6957 39.0105 33.8355 38.8382 33.8355H35.0586C34.886 33.8355 34.7461 33.6957 34.7461 33.523C34.7461 33.3509 34.886 33.2105 35.0586 33.2105H38.8382C39.0105 33.2105 39.1507 33.351 39.1507 33.523ZM39.1507 28.3083C39.1507 28.4809 39.0105 28.6208 38.8382 28.6208H31.8065C31.6339 28.6208 31.494 28.4809 31.494 28.3083C31.494 28.136 31.6339 27.9958 31.8065 27.9958H38.8382C39.0105 27.9957 39.1507 28.136 39.1507 28.3083ZM27.2523 41.375H41.5761V25.0468H39.4667C39.2941 25.0468 39.1542 24.9072 39.1542 24.7345V22.625H27.2523V29.4008H28.8407V27.6247C28.8407 27.5025 28.912 27.391 29.0235 27.3403C29.1347 27.2895 29.2656 27.3086 29.3577 27.3892L34.6425 31.9837C34.7109 32.0431 34.7499 32.1289 34.7499 32.2196C34.7499 32.3099 34.7109 32.3961 34.6425 32.4556L29.3577 37.05C29.2999 37.1005 29.2269 37.1271 29.1526 37.1271C29.109 37.1271 29.0647 37.1177 29.0235 37.0989C28.912 37.0482 28.8407 36.9367 28.8407 36.8146V35.0383H27.2523V41.375ZM22.8262 30.0258V34.4134H29.153C29.3253 34.4134 29.4655 34.5533 29.4655 34.7259V36.1285L33.9614 32.2196L29.4655 28.3106V29.7133C29.4655 29.8861 29.3253 30.0258 29.153 30.0258H22.8262ZM39.7792 23.0669L41.1343 24.4219H39.7792V23.0669ZM42.1098 24.5137L39.6875 22.0914C39.6289 22.0328 39.5494 22 39.4667 22H26.9398C26.7672 22 26.6273 22.1398 26.6273 22.3125V29.4007H22.5137C22.341 29.4007 22.2012 29.5406 22.2012 29.7132V34.7259C22.2012 34.8985 22.341 35.0382 22.5137 35.0382H26.6273V41.6875C26.6273 41.8602 26.7672 42 26.9398 42H41.8887C42.0613 42 42.2012 41.8602 42.2012 41.6875V24.7345C42.2012 24.6516 42.1684 24.5723 42.1098 24.5137Z" fill="#5F2868" stroke="#5F2868" stroke-width="0.2"/>
</svg>
