<svg width="18" height="18" viewBox="0 0 18 18" fill="none" xmlns="http://www.w3.org/2000/svg">
<path fill-rule="evenodd" clip-rule="evenodd" d="M10.6006 9.17662L6.68843 12.5781V11.1817C6.68843 11.1128 6.6324 11.0567 6.56343 11.0567H1.37695V7.29659H6.56343C6.63246 7.29659 6.68843 7.24065 6.68843 7.17159V5.77518L10.6006 9.17662ZM14.9394 1.55273L16.4502 3.06355H14.9394V1.55273Z" fill="currentColor" stroke="currentColor" stroke-width="0.2"/>
<path fill-rule="evenodd" clip-rule="evenodd" d="M12.3145 4.21158H7.23353C7.09525 4.21158 6.98337 4.0997 6.98337 3.96158C6.98337 3.82389 7.09525 3.71173 7.23353 3.71173H12.3144C12.4526 3.71173 12.5644 3.82392 12.5644 3.96158C12.5645 4.0997 12.4526 4.21158 12.3145 4.21158ZM14.5616 14.3913C14.5616 14.5295 14.4494 14.6414 14.3116 14.6414H7.23353C7.09525 14.6414 6.98337 14.5295 6.98337 14.3913C6.98337 14.2536 7.09525 14.1413 7.23353 14.1413H14.3116C14.4494 14.1413 14.5616 14.2536 14.5616 14.3913ZM14.5616 12.3054C14.5616 12.4435 14.4494 12.5554 14.3116 12.5554H8.68625C8.54812 12.5554 8.43625 12.4435 8.43625 12.3054C8.43625 12.1676 8.54812 12.0554 8.68625 12.0554H14.3116C14.4494 12.0554 14.5616 12.1676 14.5616 12.3054ZM14.5616 8.13343C14.5616 8.27171 14.4494 8.38359 14.3116 8.38359H11.2879C11.1498 8.38359 11.0379 8.27171 11.0379 8.13343C11.0379 7.99574 11.1498 7.88355 11.2879 7.88355H14.3116C14.4494 7.88355 14.5616 7.99574 14.5616 8.13343ZM14.5616 10.2194C14.5616 10.3575 14.4494 10.4694 14.3116 10.4694H11.2879C11.1498 10.4694 11.0379 10.3575 11.0379 10.2194C11.0379 10.0817 11.1498 9.9694 11.2879 9.9694H14.3116C14.4494 9.9694 14.5616 10.0817 14.5616 10.2194ZM14.5616 6.04758C14.5616 6.18571 14.4494 6.29758 14.3116 6.29758H8.68625C8.54812 6.29758 8.43625 6.18571 8.43625 6.04758C8.43625 5.90974 8.54812 5.79758 8.68625 5.79758H14.3116C14.4494 5.79755 14.5616 5.90974 14.5616 6.04758ZM5.04287 16.501H16.5019V3.43842H14.8144C14.6763 3.43842 14.5644 3.3267 14.5644 3.18858V1.50101H5.04287V6.92158H6.31356V5.5007C6.31356 5.40295 6.37062 5.3138 6.45978 5.27324C6.54881 5.23255 6.65346 5.24789 6.72718 5.3123L10.955 8.98796C11.0097 9.03543 11.041 9.10412 11.041 9.17665C11.041 9.24887 11.0097 9.31787 10.955 9.36549L6.72718 13.041C6.6809 13.0814 6.62253 13.1026 6.56312 13.1026C6.52818 13.1026 6.49281 13.0951 6.45978 13.0801C6.37059 13.0395 6.31356 12.9503 6.31356 12.8526V11.4316H5.04287V16.501ZM1.50195 7.42158V10.9317H6.56343C6.70125 10.9317 6.81343 11.0436 6.81343 11.1817V12.3038L10.4101 9.17665L6.81343 6.04949V7.17158C6.81343 7.30986 6.70125 7.42158 6.56343 7.42158H1.50195ZM15.0644 1.85448L16.1485 2.93851H15.0644V1.85448ZM16.9288 3.01195L14.991 1.0741C14.9441 1.02723 14.8806 1.00098 14.8144 1.00098H4.79287C4.65474 1.00098 4.54287 1.11285 4.54287 1.25098V6.92155H1.25195C1.11383 6.92155 1.00195 7.03343 1.00195 7.17155V11.1817C1.00195 11.3198 1.11383 11.4315 1.25195 11.4315H4.54287V16.751C4.54287 16.8891 4.65474 17.001 4.79287 17.001H16.752C16.8901 17.001 17.002 16.8891 17.002 16.751V3.18854C17.002 3.12223 16.9757 3.05882 16.9288 3.01195Z" fill="currentColor" stroke="currentColor" stroke-width="0.2"/>
</svg>
