<svg width="14" height="14" viewBox="0 0 14 14" fill="none" xmlns="http://www.w3.org/2000/svg">
<path d="M13.5 7C13.5 10.5898 10.5898 13.5 7 13.5C3.41016 13.5 0.5 10.5898 0.5 7C0.5 3.41015 3.41015 0.5 7 0.5C10.5898 0.5 13.5 3.41016 13.5 7Z" stroke="currentColor"/>
<path fill-rule="evenodd" clip-rule="evenodd" d="M7.00141 4.44022C7.47304 4.44022 7.85537 4.05789 7.85537 3.58626C7.85537 3.11463 7.47304 2.7323 7.00141 2.7323C6.52978 2.7323 6.14745 3.11463 6.14745 3.58626C6.14745 4.05789 6.52978 4.44022 7.00141 4.44022ZM5.8623 5.36406H5.3623V6.36406H5.8623H6.50092V9.91851H5.8623H5.3623V10.9185H5.8623H7.00092H8.13953H8.63953V9.91851H8.13953H7.50092V5.86406C7.50092 5.58792 7.27706 5.36406 7.00092 5.36406H5.8623Z" fill="currentColor"/>
</svg>
