<svg width="16" height="16" viewBox="0 0 16 16" fill="none" xmlns="http://www.w3.org/2000/svg">
<path d="M8 0C3.57895 0 0 3.57895 0 8C0 12.4211 3.57895 16 8 16C12.4211 16 16 12.4211 16 8C16 3.57895 12.4211 0 8 0ZM8 14.4211C4.47368 14.4211 1.57895 11.5263 1.57895 8C1.57895 4.47368 4.47368 1.57895 8 1.57895C11.5263 1.57895 14.4211 4.47368 14.4211 8C14.4211 11.5263 11.5263 14.4211 8 14.4211Z" fill="currentColor"/>
<path d="M8.42106 6.73685H7.57895C7.42106 6.73685 7.3158 6.84211 7.3158 7V11.7895C7.3158 11.9474 7.42106 12.0526 7.57895 12.0526H8.42106C8.57895 12.0526 8.68422 11.9474 8.68422 11.7895V7C8.68422 6.84211 8.57895 6.73685 8.42106 6.73685Z" fill="currentColor"/>
<path d="M7.31577 4.21053C7.10524 4.42105 7.05261 4.63158 7.05261 4.89474C7.05261 5.15789 7.15788 5.42105 7.31577 5.57895C7.47366 5.78947 7.73682 5.89474 7.99998 5.89474C8.26314 5.89474 8.5263 5.78947 8.68419 5.63158C8.84209 5.47368 8.94735 5.21053 8.94735 4.94737C8.94735 4.68421 8.84209 4.42105 8.68419 4.26316C8.31577 3.84211 7.68419 3.84211 7.31577 4.21053Z" fill="currentColor"/>
</svg>
