<svg width="65" height="65" viewBox="0 0 65 65" fill="none" xmlns="http://www.w3.org/2000/svg">
<rect opacity="0.1" x="0.102356" y="0.550781" width="64" height="64" rx="32" fill="#2591E4"/>
<rect opacity="0.3" x="12.1024" y="12.5508" width="40" height="40" rx="20" fill="#2591E4"/>
<path fill-rule="evenodd" clip-rule="evenodd" d="M34.347 24.1222C34.347 25.5424 33.1957 26.6936 31.7756 26.6936C30.3554 26.6936 29.2041 25.5424 29.2041 24.1222C29.2041 22.702 30.3554 21.5508 31.7756 21.5508C33.1957 21.5508 34.347 22.702 34.347 24.1222ZM30.0613 30.1222H31.7756C32.6849 30.1222 33.5569 30.4834 34.1999 31.1264C34.8429 31.7694 35.2041 32.6415 35.2041 33.5508V41.8365C35.2041 42.2912 35.0235 42.7272 34.702 43.0487C34.3805 43.3702 33.9445 43.5508 33.4898 43.5508C33.0352 43.5508 32.5992 43.3702 32.2777 43.0487C31.9562 42.7272 31.7756 42.2912 31.7756 41.8365V33.5508H30.0613C29.6066 33.5508 29.1706 33.3702 28.8491 33.0487C28.5276 32.7272 28.347 32.2912 28.347 31.8365C28.347 31.3818 28.5276 30.9458 28.8491 30.6243C29.1706 30.3028 29.6066 30.1222 30.0613 30.1222Z" fill="#186BB2"/>
</svg>
