<svg width="16" height="16" viewBox="0 0 16 16" fill="none" xmlns="http://www.w3.org/2000/svg">
<path d="M2.9766 3.34882C3.28485 3.34882 3.53474 3.09894 3.53474 2.79068C3.53474 2.48243 3.28485 2.23254 2.9766 2.23254C2.66834 2.23254 2.41846 2.48243 2.41846 2.79068C2.41846 3.09894 2.66834 3.34882 2.9766 3.34882Z" fill="currentcolor"/>
<path d="M4.83744 3.34882C5.14569 3.34882 5.39558 3.09894 5.39558 2.79068C5.39558 2.48243 5.14569 2.23254 4.83744 2.23254C4.52918 2.23254 4.2793 2.48243 4.2793 2.79068C4.2793 3.09894 4.52918 3.34882 4.83744 3.34882Z" fill="currentcolor"/>
<path d="M6.69779 3.34882C7.00604 3.34882 7.25593 3.09894 7.25593 2.79068C7.25593 2.48243 7.00604 2.23254 6.69779 2.23254C6.38954 2.23254 6.13965 2.48243 6.13965 2.79068C6.13965 3.09894 6.38954 3.34882 6.69779 3.34882Z" fill="currentcolor"/>
<path fill-rule="evenodd" clip-rule="evenodd" d="M16 6.51163V2.4186C16 1.08279 14.9172 0 13.5814 0H2.4186C1.08279 0 0 1.08279 0 2.4186V13.5814C0 14.9172 1.08279 16 2.4186 16H6.51163C6.81972 16 7.06977 15.75 7.06977 15.4419C7.06977 15.1338 6.81972 14.8837 6.51163 14.8837H2.4186C1.69898 14.8837 1.11628 14.301 1.11628 13.5814V2.4186C1.11628 1.69898 1.69898 1.11628 2.4186 1.11628H13.5814C14.301 1.11628 14.8837 1.69898 14.8837 2.4186V6.51163C14.8837 6.81972 15.1338 7.06977 15.4419 7.06977C15.75 7.06977 16 6.81972 16 6.51163Z" fill="currentcolor"/>
<path fill-rule="evenodd" clip-rule="evenodd" d="M15.4419 4.46509H0.55814C0.250047 4.46509 0 4.71513 0 5.02323C0 5.33132 0.250047 5.58137 0.55814 5.58137H15.4419C15.75 5.58137 16 5.33132 16 5.02323C16 4.71513 15.75 4.46509 15.4419 4.46509Z" fill="currentcolor"/>
<path fill-rule="evenodd" clip-rule="evenodd" d="M11.3489 6.69769C8.78222 6.69769 6.69775 8.78216 6.69775 11.3489C6.69775 13.9156 8.78222 16 11.3489 16C13.9156 16 16.0001 13.9156 16.0001 11.3489C16.0001 8.78216 13.9156 6.69769 11.3489 6.69769ZM11.3489 7.81397C13.3002 7.81397 14.8838 9.3976 14.8838 11.3489C14.8838 13.3001 13.3002 14.8837 11.3489 14.8837C9.39766 14.8837 7.81403 13.3001 7.81403 11.3489C7.81403 9.3976 9.39766 7.81397 11.3489 7.81397Z" fill="currentcolor"/>
<path fill-rule="evenodd" clip-rule="evenodd" d="M10.7914 9.67444V13.0233C10.7914 13.3314 11.0415 13.5814 11.3496 13.5814C11.6577 13.5814 11.9077 13.3314 11.9077 13.0233V9.67444C11.9077 9.36635 11.6577 9.1163 11.3496 9.1163C11.0415 9.1163 10.7914 9.36635 10.7914 9.67444Z" fill="currentcolor"/>
<path fill-rule="evenodd" clip-rule="evenodd" d="M9.46639 11.9294L10.9548 13.4178C11.1728 13.6358 11.5256 13.6358 11.7436 13.4178L13.232 11.9294C13.45 11.7121 13.45 11.3579 13.232 11.1406C13.0147 10.9225 12.6604 10.9225 12.4431 11.1406L11.3492 12.2338L10.2552 11.1406C10.0379 10.9225 9.68369 10.9225 9.46639 11.1406C9.24834 11.3579 9.24834 11.7121 9.46639 11.9294Z" fill="currentcolor"/>
</svg>
