<svg width="16" height="16" viewBox="0 0 16 16" fill="none" xmlns="http://www.w3.org/2000/svg">
<path d="M15.9953 8.39562C15.9771 7.12253 15.6657 5.92403 15.0965 4.8755C17.5681 -0.666814 12.5126 0.0960292 12.1756 0.15706C11.127 0.366779 10.0785 0.70381 9.17974 1.13072C5.73452 1.08953 2.7387 2.92822 1.76505 6.7479C3.56255 4.72569 4.83577 3.90184 5.58474 3.60228C5.42745 3.74459 5.27017 3.89437 5.11289 4.04415C3.91455 5.2425 2.94092 6.44081 2.11705 7.71406C1.48042 8.8375 0.768924 9.81115 0.394455 11.0844C-1.62773 18.4242 4.73842 15.3534 5.63717 14.8292C6.61083 15.3085 7.65936 15.5707 8.85771 15.5707C12.0033 15.5707 14.6996 13.5485 15.6732 10.7773H11.8535C10.056 13.6234 5.78695 12.3501 5.63717 9.2794H15.9728C16.0117 8.97231 15.9984 8.61659 15.9953 8.39562ZM1.39058 14.8367C0.861549 14.356 0.791424 13.0391 1.91486 10.7174C2.47658 12.3651 3.63745 13.7132 5.06049 14.5371C4.33399 14.934 2.40845 15.7614 1.39058 14.8367ZM5.58474 7.34706C5.64239 5.69934 7.08264 4.35125 8.88014 4.35125C10.6776 4.35125 12.1007 5.69937 12.1755 7.34706H5.58474ZM11.3892 1.65497C12.0557 1.3329 13.7611 0.683748 14.6846 1.2805C15.3781 1.72869 15.6787 2.60753 14.9093 4.5759C14.0854 3.22778 12.8871 2.17925 11.3892 1.65497Z" fill="#00BBEF"/>
</svg>
