<svg width="9" height="9" viewBox="0 0 9 9" fill="none" xmlns="http://www.w3.org/2000/svg">
<g clip-path="url(#clip0_613_49232)">
<path d="M5.8036 0.56958C5.3771 0.59908 4.8786 0.872078 4.58811 1.22758C4.32311 1.55007 4.10511 2.02907 4.19011 2.49457C4.65611 2.50907 5.1376 2.22957 5.4166 1.86807C5.6776 1.53157 5.8751 1.05558 5.8036 0.56958Z" fill="black"/>
<path d="M7.4891 3.25363C7.07961 2.74014 6.50411 2.44214 5.96061 2.44214C5.24312 2.44214 4.93962 2.78564 4.44112 2.78564C3.92712 2.78564 3.53663 2.44314 2.91613 2.44314C2.30663 2.44314 1.65764 2.81564 1.24614 3.45263C0.667643 4.34963 0.766642 6.03612 1.70414 7.47261C2.03963 7.98661 2.48763 8.5646 3.07363 8.5696C3.59513 8.5746 3.74213 8.23511 4.44862 8.23161C5.15512 8.22761 5.28912 8.5741 5.80961 8.5686C6.39611 8.5641 6.86861 7.92361 7.2041 7.40961C7.4446 7.04111 7.5341 6.85561 7.7206 6.43962C6.36411 5.92312 6.14661 3.99413 7.4891 3.25363Z" fill="currentColor"/>
</g>
<defs>
<clipPath id="clip0_613_49232">
<rect width="8" height="8" fill="white" transform="translate(0.303955 0.56958)"/>
</clipPath>
</defs>
</svg>
