<svg width="16" height="5" viewBox="0 0 16 5" fill="none" xmlns="http://www.w3.org/2000/svg">
<g clip-path="url(#clip0_6138_26175)">
<path d="M0 1.41752V0.784655H0.626722V1.41752H0ZM0 4.63572V2.05003H0.626722V4.63572H0ZM3.77342 1.41752C3.06669 1.41752 2.49402 1.99616 2.49402 2.70946C2.49402 3.42312 3.06669 4.00176 3.77342 4.00176V4.63463C2.72071 4.63463 1.8673 3.77249 1.8673 2.70946C1.8673 1.64643 2.72071 0.784655 3.77342 0.784655C4.82648 0.784655 5.67953 1.64643 5.67953 2.70946H5.05317C5.05317 1.99616 4.48014 1.41752 3.77342 1.41752ZM7.54701 2.70935C7.54701 3.42301 8.12003 4.00165 8.8264 4.00165C9.53313 4.00165 10.1062 3.42301 10.1062 2.70935C10.1062 1.99606 9.53313 1.41741 8.8264 1.41741C8.12003 1.41741 7.54701 1.99606 7.54701 2.70935ZM6.92029 2.70935C6.92029 1.64632 7.7737 0.784546 8.8264 0.784546C9.87911 0.784546 10.7329 1.64632 10.7329 2.70935C10.7329 3.77274 9.87911 4.63452 8.8264 4.63452C7.7737 4.63452 6.92029 3.77274 6.92029 2.70935ZM12.6001 2.70935C12.6001 3.42301 13.1727 4.00165 13.8795 4.00165C14.5862 4.00165 15.1589 3.42301 15.1589 2.70935C15.1589 1.99606 14.5862 1.41741 13.8795 1.41741C13.1727 1.41741 12.6001 1.99606 12.6001 2.70935ZM13.8795 0.784546C14.8334 0.784546 15.6241 1.49238 15.764 2.41639C15.7784 2.5121 15.7859 2.61 15.7859 2.70971C15.7859 3.77274 14.9322 4.63452 13.8795 4.63452C12.8268 4.63452 11.973 3.77274 11.973 2.70935C11.973 1.64632 12.8268 0.784546 13.8795 0.784546ZM3.73233 3.11476L4.17669 2.66823L5.73179 4.24694L5.28742 4.69311L3.73233 3.11476Z" fill="black"/>
</g>
<defs>
<clipPath id="clip0_6138_26175">
<rect width="16" height="4" fill="white" transform="translate(0 0.784546)"/>
</clipPath>
</defs>
</svg>
