<svg width="10" height="16" viewBox="0 0 10 16" fill="none" xmlns="http://www.w3.org/2000/svg">
<path d="M8.46841 0H3.90172C3.17467 0 2.58507 0.589598 2.58507 1.31666C2.58507 2.04371 3.17467 2.63331 3.90172 2.63331H4.74886L2.52345 13.3443C2.52187 13.3519 2.52266 13.3591 2.52134 13.3667H1.53174C0.804686 13.3667 0.215088 13.956 0.215088 14.6833C0.215088 15.4107 0.804686 16 1.53174 16H6.09843C6.82575 16 7.41509 15.4107 7.41509 14.6833C7.41509 13.956 6.82575 13.3667 6.09843 13.3667H5.20337L7.43299 2.63331H8.46841C9.19573 2.63331 9.78507 2.04371 9.78507 1.31666C9.78507 0.589598 9.19573 0 8.46841 0Z" fill="currentColor"/>
</svg>
