<svg width="24" height="33" viewBox="0 0 24 33" fill="none" xmlns="http://www.w3.org/2000/svg">
<path d="M3.42115 19.5361C3.42115 18.6503 6.78202 18.1533 8.34709 18.0325L8.49677 18.119C7.89559 18.2285 5.48321 18.6538 5.48321 19.2089C5.48321 19.813 9.18315 20.2089 11.3305 20.2089C14.9777 20.2089 17.457 19.6568 18.1238 19.4752L19.057 20.0178C18.4179 20.3308 15.6753 21.1503 11.3305 21.1503C6.50215 21.1503 3.42115 20.2059 3.42115 19.5361ZM10.7801 31.9738C8.86896 31.9903 6.53584 31.8323 4.57315 31.5028L4.3909 31.6069C6.34646 32.1803 9.0689 32.5264 12.06 32.5004C17.9345 32.4495 22.6971 30.9927 22.7912 29.2395L22.7238 29.1999C22.3297 29.6803 19.7889 31.8951 10.7801 31.9738ZM11.2801 30.8448C16.0883 30.8028 21.4676 29.862 21.454 28.2804C21.451 27.9934 21.2646 27.797 21.1025 27.6786L21.0231 27.7242C20.5788 28.949 16.8226 29.8543 11.2724 29.9023C7.6914 29.9336 2.73053 29.0757 2.72165 28.0845C2.71334 27.0905 5.0719 26.5443 5.0719 26.5443L4.90503 26.4491C3.32459 26.6668 0.412216 27.4236 0.421654 28.5165C0.435404 30.0963 7.12877 30.8809 11.2801 30.8448ZM22.112 19.9592C22.015 21.8142 20.3013 22.9692 18.5883 23.945L18.7434 24.0349C20.5712 23.5202 23.8326 22.0231 23.5628 19.7213C23.4285 18.574 22.3794 17.7539 21.012 17.7539C20.586 17.7539 20.2073 17.829 19.9001 17.9225L19.899 17.9255L19.8338 18.0888C21.0575 17.8492 22.1753 18.7427 22.112 19.9592ZM7.98852 25.4709C7.43052 25.5822 6.21459 25.8615 6.21459 26.4525C6.21459 27.2715 8.81571 27.8993 11.3275 27.8993C14.7837 27.8993 16.1996 27.01 16.2635 26.9638L14.8263 26.1324C14.215 26.278 13.1855 26.5063 11.3311 26.5063C9.2619 26.5063 7.9134 26.1525 7.9134 25.7643C7.9134 25.6821 7.9649 25.5839 8.06071 25.5129L7.98852 25.4709ZM16.4789 22.71C15.6842 22.9349 13.8937 23.3017 11.3334 23.3017C8.82102 23.3017 6.7684 22.8722 6.76184 22.3657C6.75709 22.0283 7.16477 21.8817 7.16477 21.8817L7.09259 21.8397C5.88909 22.0521 4.7719 22.3811 4.77784 22.8733C4.78909 23.7662 8.2044 24.4367 11.3286 24.4367C13.9848 24.4367 16.5356 23.9911 17.6865 23.4071L16.4789 22.71Z" fill="#427595"/>
<path d="M15.7942 2.78875C15.7942 7.71237 9.04695 9.59631 9.04695 13.0969C9.04695 15.5542 10.6765 17.0951 11.5783 18.0696L11.5049 18.1122C10.3664 17.3997 7.37183 15.6104 7.37183 12.6549C7.37183 8.50525 15.122 6.52243 15.122 1.8095C15.122 1.22962 15.0362 0.784687 14.9759 0.545L15.054 0.5C15.2995 0.808312 15.7942 1.57987 15.7942 2.78875ZM18.0131 7.149L17.9321 7.10287C16.4641 7.59456 11.9434 9.37912 11.9434 12.7057C11.9434 14.5867 13.7806 15.6294 13.7806 17.3932C13.7806 18.0228 13.425 18.6127 13.1363 18.9654L13.2812 19.0494C14.0463 18.5524 15.4001 17.4761 15.4001 16.0867C15.4001 14.9099 13.7717 13.4957 13.7717 11.9832C13.7718 9.59987 16.9137 7.73006 18.0131 7.149Z" fill="#DE8E2F"/>
</svg>
