<svg width="16" height="16" viewBox="0 0 16 16" fill="none" xmlns="http://www.w3.org/2000/svg">
<path fill-rule="evenodd" clip-rule="evenodd" d="M15.3371 0H7.63428C7.63428 1.92 9.18856 3.47428 11.1085 3.47428H12.5257V4.84572C12.5257 6.76572 14.0799 8.31997 15.9999 8.31997V0.662875C15.9999 0.297156 15.7028 0 15.3371 0ZM11.5201 3.83997H3.8172C3.8172 5.75997 5.37148 7.31422 7.29148 7.31422H8.70861V8.68568C8.70861 10.6057 10.2629 12.1599 12.1829 12.1599V4.50284C12.1829 4.13709 11.8857 3.83997 11.5201 3.83997ZM0.00012207 7.68005H7.703C8.06872 7.68005 8.36587 7.97718 8.36587 8.34293V16.0001C6.44587 16.0001 4.89153 14.4458 4.89153 12.5258V11.1543H3.4744C1.5544 11.1543 0.00012207 9.60005 0.00012207 7.68005Z" fill="currentColor"/>
</svg>
