<svg width="18" height="18" viewBox="0 0 18 18" fill="none" xmlns="http://www.w3.org/2000/svg">
<path d="M17.2541 0H8.58838C8.58838 2.16 10.3369 3.90857 12.4969 3.90857H14.0912V5.45143C14.0912 7.61143 15.8397 9.35997 17.9997 9.35997V0.745734C17.9997 0.334301 17.6654 0 17.2541 0Z" fill="#2684FF"/>
<path d="M12.9599 4.32031H4.29419C4.29419 6.48031 6.04276 8.22884 8.20276 8.22884H9.79702V9.77175C9.79702 11.9317 11.5457 13.6803 13.7057 13.6803V5.06605C13.7057 4.65458 13.3713 4.32031 12.9599 4.32031Z" fill="url(#paint0_linear_796_8259)"/>
<path d="M8.66573 8.64062H0C0 10.8006 1.74857 12.5492 3.90857 12.5492H5.50283V14.0921C5.50283 16.2521 7.25147 18.0006 9.41147 18.0006V9.38636C9.41147 8.97489 9.07717 8.64062 8.66573 8.64062Z" fill="url(#paint1_linear_796_8259)"/>
<defs>
<linearGradient id="paint0_linear_796_8259" x1="13.5274" y1="4.33136" x2="9.84024" y2="8.13373" gradientUnits="userSpaceOnUse">
<stop offset="0.176" stop-color="#0052CC"/>
<stop offset="1" stop-color="#2684FF"/>
</linearGradient>
<linearGradient id="paint1_linear_796_8259" x1="9.48145" y1="8.67404" x2="5.21823" y2="12.822" gradientUnits="userSpaceOnUse">
<stop offset="0.176" stop-color="#0052CC"/>
<stop offset="1" stop-color="#2684FF"/>
</linearGradient>
</defs>
</svg>
