<svg width="16" height="17" viewBox="0 0 16 17" fill="none" xmlns="http://www.w3.org/2000/svg">
<path d="M15.4269 4.752L10.7931 0.117627C10.7462 0.070752 10.6828 0.0441895 10.6165 0.0441895H5.36779C4.14623 0.0441895 3.15248 1.03825 3.15248 2.25981V6.6445H1.20811C0.83248 6.6445 0.526855 6.95013 0.526855 7.32575V11.242C0.526855 11.6176 0.83248 11.9233 1.20811 11.9233H3.15248V13.8286C3.15248 15.0501 4.14623 16.0442 5.36779 16.0442H13.2847C14.5062 16.0442 15.5 15.0501 15.5 13.8286V4.92888C15.5 4.86263 15.4737 4.79888 15.4269 4.752ZM15.0003 13.8286C15.0003 14.7748 14.2306 15.5445 13.2847 15.5445H5.36779C4.42186 15.5445 3.65217 14.7748 3.65217 13.8286V11.9233H11.8831C12.2587 11.9233 12.5644 11.6176 12.5644 11.242V7.32575C12.5644 6.95013 12.2587 6.6445 11.8831 6.6445H3.65217V2.25981C3.65217 1.31356 4.42186 0.543877 5.36779 0.543877H10.3665V4.42825C10.3665 4.842 10.7028 5.17856 11.1159 5.17856H15.0003V13.8286Z" fill="currentColor"/>
<path fill-rule="evenodd" clip-rule="evenodd" d="M3.28148 9.85464V7.89464H2.71748V9.85464C2.71748 9.96664 2.69082 10.0546 2.63748 10.1186C2.58415 10.1826 2.50682 10.2146 2.40548 10.2146C2.30148 10.2146 2.22148 10.1813 2.16548 10.1146C2.11215 10.048 2.08415 9.95464 2.08148 9.83464H1.52148C1.52148 10.112 1.60282 10.328 1.76548 10.4826C1.93082 10.6373 2.14682 10.7146 2.41348 10.7146C2.67748 10.7146 2.88815 10.64 3.04548 10.4906C3.20282 10.3386 3.28148 10.1266 3.28148 9.85464ZM5.86273 9.17864C5.93473 9.04798 5.97073 8.90798 5.97073 8.75864C5.97073 8.59331 5.93207 8.44531 5.85473 8.31464C5.78007 8.18398 5.66673 8.08131 5.51473 8.00664C5.36273 7.93198 5.17873 7.89464 4.96273 7.89464H3.93473V10.6866H4.49473V9.61464H4.96273C5.19207 9.61464 5.3814 9.57464 5.53073 9.49464C5.68273 9.41464 5.7934 9.30931 5.86273 9.17864ZM5.28273 9.05864C5.20807 9.12798 5.0934 9.16264 4.93873 9.16264H4.49473V8.35064H4.93873C5.24273 8.35064 5.39473 8.48664 5.39473 8.75864C5.39473 8.88664 5.3574 8.98664 5.28273 9.05864ZM6.92833 9.04664V8.34664H7.98833V7.89064H6.36833V10.6866H7.98833V10.2306H6.92833V9.49064H7.86833V9.04664H6.92833ZM10.1772 8.46664C10.2892 8.52798 10.3772 8.61731 10.4412 8.73464H11.0852C10.9972 8.45731 10.8372 8.24264 10.6052 8.09064C10.3732 7.93598 10.0999 7.85864 9.78523 7.85864C9.51857 7.85864 9.2759 7.91998 9.05723 8.04264C8.84123 8.16264 8.67057 8.33198 8.54523 8.55064C8.42257 8.76664 8.36123 9.01198 8.36123 9.28664C8.36123 9.56131 8.42257 9.80664 8.54523 10.0226C8.67057 10.2386 8.84123 10.408 9.05723 10.5306C9.2759 10.6506 9.5199 10.7106 9.78923 10.7106C10.0292 10.7106 10.2452 10.6613 10.4372 10.5626C10.6319 10.4613 10.7906 10.328 10.9132 10.1626C11.0359 9.99731 11.1159 9.81731 11.1532 9.62264V9.13464H9.64123V9.56264H10.6012C10.5586 9.76531 10.4692 9.92398 10.3332 10.0386C10.1972 10.1506 10.0226 10.2066 9.80923 10.2066C9.6359 10.2066 9.4839 10.1693 9.35323 10.0946C9.22257 10.02 9.1199 9.91331 9.04523 9.77464C8.97323 9.63598 8.93723 9.47331 8.93723 9.28664C8.93723 9.10531 8.97323 8.94531 9.04523 8.80664C9.11723 8.66798 9.21723 8.56131 9.34523 8.48664C9.47323 8.41198 9.6199 8.37464 9.78523 8.37464C9.93457 8.37464 10.0652 8.40531 10.1772 8.46664Z" fill="white"/>
</svg>
