<svg width="16" height="17" viewBox="0 0 16 17" fill="none" xmlns="http://www.w3.org/2000/svg">
<path d="M15.4273 4.75176L10.7936 0.117383C10.7467 0.0705078 10.6833 0.0439453 10.617 0.0439453H5.36828C4.14672 0.0439453 3.15297 1.03801 3.15297 2.25957V6.64426H1.20859C0.832969 6.64426 0.527344 6.94988 0.527344 7.32551V11.2418C0.527344 11.6174 0.832969 11.923 1.20859 11.923H3.15297V13.8283C3.15297 15.0499 4.14672 16.0439 5.36828 16.0439H13.2852C14.5067 16.0439 15.5005 15.0499 15.5005 13.8283V4.92863C15.5005 4.86238 15.4742 4.79863 15.4273 4.75176ZM15.0008 13.8283C15.0008 14.7746 14.2311 15.5443 13.2852 15.5443H5.36828C4.42234 15.5443 3.65266 14.7746 3.65266 13.8283V11.923H11.8836C12.2592 11.923 12.5648 11.6174 12.5648 11.2418V7.32551C12.5648 6.94988 12.2592 6.64426 11.8836 6.64426H3.65266V2.25957C3.65266 1.31332 4.42234 0.543633 5.36828 0.543633H10.367V4.42801C10.367 4.84176 10.7033 5.17832 11.1164 5.17832H15.0008V13.8283Z" fill="currentColor"/>
<path fill-rule="evenodd" clip-rule="evenodd" d="M4.0418 10.0546V7.60457H3.3368V10.0546C3.3368 10.1946 3.30346 10.3046 3.2368 10.3846C3.17013 10.4646 3.07346 10.5046 2.9468 10.5046C2.8168 10.5046 2.7168 10.4629 2.6468 10.3796C2.58013 10.2962 2.54513 10.1796 2.5418 10.0296H1.8418C1.8418 10.3762 1.94346 10.6462 2.1468 10.8396C2.35346 11.0329 2.62346 11.1296 2.9568 11.1296C3.2868 11.1296 3.55013 11.0362 3.7468 10.8496C3.94346 10.6596 4.0418 10.3946 4.0418 10.0546ZM7.26836 9.20957C7.35836 9.04624 7.40336 8.87124 7.40336 8.68457C7.40336 8.4779 7.35503 8.2929 7.25836 8.12957C7.16503 7.96624 7.02336 7.8379 6.83336 7.74457C6.64336 7.65124 6.41336 7.60457 6.14336 7.60457H4.85836V11.0946H5.55836V9.75457H6.14336C6.43003 9.75457 6.66669 9.70457 6.85336 9.60457C7.04336 9.50457 7.18169 9.3729 7.26836 9.20957ZM6.54336 9.05957C6.45003 9.14624 6.30669 9.18957 6.11336 9.18957H5.55836V8.17457H6.11336C6.49336 8.17457 6.68336 8.34457 6.68336 8.68457C6.68336 8.84457 6.63669 8.96957 6.54336 9.05957ZM10.0004 8.31957C10.1404 8.39624 10.2504 8.5079 10.3304 8.65457H11.1354C11.0254 8.3079 10.8254 8.03957 10.5354 7.84957C10.2454 7.65624 9.90368 7.55957 9.51035 7.55957C9.17702 7.55957 8.87368 7.63624 8.60035 7.78957C8.33035 7.93957 8.11702 8.15124 7.96035 8.42457C7.80702 8.69457 7.73035 9.00124 7.73035 9.34457C7.73035 9.6879 7.80702 9.99457 7.96035 10.2646C8.11702 10.5346 8.33035 10.7462 8.60035 10.8996C8.87368 11.0496 9.17868 11.1246 9.51535 11.1246C9.81535 11.1246 10.0854 11.0629 10.3254 10.9396C10.5687 10.8129 10.767 10.6462 10.9204 10.4396C11.0737 10.2329 11.1737 10.0079 11.2204 9.76457V9.15457H9.33035V9.68957H10.5304C10.477 9.9429 10.3654 10.1412 10.1954 10.2846C10.0254 10.4246 9.80702 10.4946 9.54035 10.4946C9.32368 10.4946 9.13369 10.4479 8.97035 10.3546C8.80702 10.2612 8.67868 10.1279 8.58535 9.95457C8.49535 9.78124 8.45035 9.5779 8.45035 9.34457C8.45035 9.1179 8.49535 8.9179 8.58535 8.74457C8.67535 8.57124 8.80035 8.4379 8.96035 8.34457C9.12035 8.25124 9.30369 8.20457 9.51035 8.20457C9.69702 8.20457 9.86035 8.2429 10.0004 8.31957Z" fill="white"/>
</svg>
