<svg width="16" height="17" viewBox="0 0 16 17" fill="none" xmlns="http://www.w3.org/2000/svg">
<path d="M15.4269 4.752L10.7931 0.117627C10.7462 0.070752 10.6828 0.0441895 10.6165 0.0441895H5.36779C4.14623 0.0441895 3.15248 1.03825 3.15248 2.25981V6.6445H1.20811C0.83248 6.6445 0.526855 6.95013 0.526855 7.32575V11.242C0.526855 11.6176 0.83248 11.9233 1.20811 11.9233H3.15248V13.8286C3.15248 15.0501 4.14623 16.0442 5.36779 16.0442H13.2847C14.5062 16.0442 15.5 15.0501 15.5 13.8286V4.92888C15.5 4.86263 15.4737 4.79888 15.4269 4.752ZM15.0003 13.8286C15.0003 14.7748 14.2306 15.5445 13.2847 15.5445H5.36779C4.42186 15.5445 3.65217 14.7748 3.65217 13.8286V11.9233H11.8831C12.2587 11.9233 12.5644 11.6176 12.5644 11.242V7.32575C12.5644 6.95013 12.2587 6.6445 11.8831 6.6445H3.65217V2.25981C3.65217 1.31356 4.42186 0.543877 5.36779 0.543877H10.3665V4.42825C10.3665 4.842 10.7028 5.17856 11.1159 5.17856H15.0003V13.8286Z" fill="currentColor"/>
<path d="M6.37891 9.85471C6.37889 10.1265 6.30067 10.3385 6.14355 10.4904C5.98622 10.6398 5.77474 10.7151 5.51074 10.7151C5.24431 10.715 5.02852 10.6372 4.86328 10.4826C4.70061 10.328 4.61914 10.1115 4.61914 9.8342H5.17871C5.18137 9.95402 5.20952 10.0478 5.2627 10.1145C5.31866 10.1811 5.39903 10.215 5.50293 10.2151C5.60426 10.2151 5.68202 10.1824 5.73535 10.1184C5.78854 10.0544 5.81541 9.96652 5.81543 9.85471V7.89474H6.37891V9.85471ZM7.95215 7.85471C8.24013 7.85471 8.47368 7.9253 8.65234 8.06662C8.83367 8.20528 8.93348 8.39995 8.95215 8.6506H8.33594C8.3306 8.55462 8.28924 8.4756 8.21191 8.41428C8.13729 8.35053 8.0372 8.31857 7.91211 8.31857C7.80294 8.31862 7.71504 8.34664 7.64844 8.40256C7.58444 8.45856 7.55273 8.54003 7.55273 8.6467C7.55275 8.72113 7.5763 8.78362 7.62402 8.8342C7.67469 8.8822 7.73659 8.92232 7.80859 8.95432C7.88322 8.98363 7.98692 9.01885 8.12012 9.05881C8.30145 9.11214 8.44979 9.16563 8.56445 9.21896C8.67895 9.27225 8.77777 9.35174 8.86035 9.45822C8.94294 9.56479 8.9843 9.70503 8.98438 9.87814C8.98438 10.0274 8.9454 10.1662 8.86816 10.2942C8.79083 10.4222 8.67765 10.5254 8.52832 10.6028C8.37901 10.6774 8.20138 10.7151 7.99609 10.7151C7.80165 10.715 7.62594 10.681 7.46875 10.6145C7.31408 10.5478 7.19125 10.4517 7.10059 10.3264C7.01002 10.2012 6.96269 10.0535 6.95996 9.88303H7.56055C7.56862 9.99749 7.60875 10.0879 7.68066 10.1545C7.75532 10.2211 7.85644 10.2551 7.98438 10.2551C8.11499 10.2551 8.21733 10.2236 8.29199 10.1623C8.36666 10.0983 8.4043 10.0156 8.4043 9.91428C8.40423 9.83176 8.37872 9.76344 8.32812 9.71017C8.27754 9.65705 8.21382 9.61541 8.13672 9.58615C8.06205 9.55415 7.95755 9.51997 7.82422 9.48264C7.64312 9.42937 7.49545 9.37699 7.38086 9.32639C7.26904 9.27314 7.17145 9.19479 7.08887 9.09103C7.00887 8.98437 6.96875 8.84223 6.96875 8.66623C6.96881 8.50106 7.01017 8.35716 7.09277 8.23459C7.17543 8.11202 7.29117 8.01828 7.44043 7.95432C7.58967 7.88772 7.76031 7.85473 7.95215 7.85471Z" fill="white"/>
</svg>
