<svg width="16" height="17" viewBox="0 0 16 17" fill="none" xmlns="http://www.w3.org/2000/svg">
<path d="M15.4273 4.75176L10.7936 0.117383C10.7467 0.0705078 10.6833 0.0439453 10.617 0.0439453H5.36828C4.14672 0.0439453 3.15297 1.03801 3.15297 2.25957V6.64426H1.20859C0.832969 6.64426 0.527344 6.94988 0.527344 7.32551V11.2418C0.527344 11.6174 0.832969 11.923 1.20859 11.923H3.15297V13.8283C3.15297 15.0499 4.14672 16.0439 5.36828 16.0439H13.2852C14.5067 16.0439 15.5005 15.0499 15.5005 13.8283V4.92863C15.5005 4.86238 15.4742 4.79863 15.4273 4.75176ZM15.0008 13.8283C15.0008 14.7746 14.2311 15.5443 13.2852 15.5443H5.36828C4.42234 15.5443 3.65266 14.7746 3.65266 13.8283V11.923H11.8836C12.2592 11.923 12.5648 11.6174 12.5648 11.2418V7.32551C12.5648 6.94988 12.2592 6.64426 11.8836 6.64426H3.65266V2.25957C3.65266 1.31332 4.42234 0.543633 5.36828 0.543633H10.367V4.42801C10.367 4.84176 10.7033 5.17832 11.1164 5.17832H15.0008V13.8283Z" fill="currentColor"/>
<path fill-rule="evenodd" clip-rule="evenodd" d="M3.15355 9.85449V7.89449H2.58955V9.85449C2.58955 9.96649 2.56289 10.0545 2.50955 10.1185C2.45622 10.1825 2.37889 10.2145 2.27755 10.2145C2.17355 10.2145 2.09355 10.1812 2.03755 10.1145C1.98422 10.0478 1.95622 9.95449 1.95355 9.83449H1.39355C1.39355 10.1118 1.47489 10.3278 1.63755 10.4825C1.80289 10.6372 2.01889 10.7145 2.28555 10.7145C2.54955 10.7145 2.76022 10.6398 2.91755 10.4905C3.07489 10.3385 3.15355 10.1265 3.15355 9.85449ZM4.2428 10.6145C4.40014 10.6812 4.57614 10.7145 4.7708 10.7145C4.97614 10.7145 5.15347 10.6772 5.3028 10.6025C5.45214 10.5252 5.56547 10.4225 5.6428 10.2945C5.72014 10.1665 5.7588 10.0278 5.7588 9.87849C5.7588 9.70516 5.71747 9.56516 5.6348 9.45849C5.55214 9.35183 5.45347 9.27183 5.3388 9.21849C5.22414 9.16516 5.07614 9.11183 4.8948 9.05849C4.76147 9.01849 4.65747 8.98383 4.5828 8.95449C4.5108 8.92249 4.44947 8.88249 4.3988 8.83449C4.3508 8.78383 4.3268 8.72116 4.3268 8.64649C4.3268 8.53983 4.3588 8.45849 4.4228 8.40249C4.48947 8.34649 4.57747 8.31849 4.6868 8.31849C4.81214 8.31849 4.91214 8.35049 4.9868 8.41449C5.06414 8.47583 5.10547 8.55449 5.1108 8.65049H5.7268C5.70814 8.39983 5.60814 8.20516 5.42681 8.06649C5.24814 7.92516 5.0148 7.85449 4.7268 7.85449C4.5348 7.85449 4.36414 7.88783 4.2148 7.95449C4.06547 8.01849 3.94947 8.11183 3.8668 8.23449C3.78414 8.35716 3.7428 8.50116 3.7428 8.66649C3.7428 8.84249 3.7828 8.98383 3.8628 9.09049C3.94547 9.19449 4.0428 9.27316 4.1548 9.32649C4.26947 9.37716 4.41747 9.42916 4.5988 9.48249C4.73214 9.51983 4.83614 9.55449 4.9108 9.58649C4.98814 9.61583 5.05214 9.65716 5.1028 9.71049C5.15347 9.76383 5.1788 9.83183 5.1788 9.91449C5.1788 10.0158 5.14147 10.0985 5.0668 10.1625C4.99214 10.2238 4.88947 10.2545 4.7588 10.2545C4.6308 10.2545 4.52947 10.2212 4.4548 10.1545C4.3828 10.0878 4.3428 9.99716 4.3348 9.88249H3.7348C3.73747 10.0532 3.78414 10.2012 3.8748 10.3265C3.96547 10.4518 4.08814 10.5478 4.2428 10.6145ZM6.8203 10.5305C7.03897 10.6532 7.27897 10.7145 7.5403 10.7145C7.80164 10.7145 8.04164 10.6532 8.2603 10.5305C8.47897 10.4078 8.65097 10.2385 8.7763 10.0225C8.9043 9.80383 8.96831 9.55716 8.96831 9.28249C8.96831 9.01049 8.9043 8.76649 8.7763 8.55049C8.65097 8.33183 8.47897 8.16116 8.2603 8.03849C8.0443 7.91583 7.8043 7.85449 7.5403 7.85449C7.27897 7.85449 7.03897 7.91583 6.8203 8.03849C6.60164 8.16116 6.4283 8.33183 6.3003 8.55049C6.1723 8.76649 6.1083 9.01049 6.1083 9.28249C6.1083 9.55716 6.1723 9.80383 6.3003 10.0225C6.4283 10.2385 6.60164 10.4078 6.8203 10.5305ZM7.9843 10.1025C7.8563 10.1772 7.7083 10.2145 7.5403 10.2145C7.3723 10.2145 7.22297 10.1772 7.0923 10.1025C6.9643 10.0252 6.8643 9.91583 6.7923 9.77449C6.7203 9.63316 6.6843 9.46916 6.6843 9.28249C6.6843 9.09583 6.7203 8.93316 6.7923 8.79449C6.8643 8.65316 6.9643 8.54516 7.0923 8.47049C7.22297 8.39583 7.3723 8.35849 7.5403 8.35849C7.7083 8.35849 7.8563 8.39583 7.9843 8.47049C8.1123 8.54516 8.21231 8.65316 8.28431 8.79449C8.3563 8.93316 8.3923 9.09583 8.3923 9.28249C8.3923 9.46916 8.3563 9.63316 8.28431 9.77449C8.21231 9.91583 8.1123 10.0252 7.9843 10.1025ZM11.2129 10.6865H11.7729V7.89049H11.2129V9.81049L9.94493 7.89049H9.38493V10.6865H9.94493V8.77049L11.2129 10.6865Z" fill="white"/>
</svg>
