<svg width="16" height="16" viewBox="0 0 14 14" fill="none" xmlns="http://www.w3.org/2000/svg">
<path d="M10.4186 4.88372V9.40692C10.4522 9.4299 10.48 9.45998 10.5124 9.48442C10.6811 9.25574 10.9217 9.08075 11.2103 9.00086C11.2718 8.98377 11.3335 8.98473 11.3953 8.97686V4.28374C11.3953 3.80523 11.209 3.35565 10.8707 3.01735L8.378 0.524616C8.03971 0.186317 7.59012 0 7.11192 0H1.7907C0.803144 0 0 0.803145 0 1.7907V11.0168C0.207584 10.9284 0.435791 10.8862 0.670242 10.9194C0.554511 10.7251 0.488372 10.4981 0.488372 10.2558C0.488372 9.84634 0.681247 9.48555 0.976744 9.24676V1.79069C0.976744 1.34175 1.34175 0.976738 1.7907 0.976738H6.51163V3.09302C6.51163 4.08057 7.31477 4.88372 8.30233 4.88372H10.4186ZM7.48837 3.09302V1.08249C7.55911 1.12005 7.63038 1.15805 7.68741 1.2152L10.1801 3.70793C10.2381 3.76592 10.276 3.83662 10.3135 3.90697H8.30232C7.85338 3.90697 7.48837 3.54196 7.48837 3.09302ZM4.88372 11.0698C4.88372 11.2462 4.99564 11.3953 5.12791 11.3953H5.61628C6.2897 11.3953 6.83721 11.9794 6.83721 12.6977C6.83721 13.4159 6.2897 14 5.61628 14H4.39535C4.12573 14 3.90698 13.7812 3.90698 13.5116C3.90698 13.242 4.12573 13.0233 4.39535 13.0233H5.61628C5.74854 13.0233 5.86047 12.8741 5.86047 12.6977C5.86047 12.5212 5.74854 12.3721 5.61628 12.3721H5.12791C4.45449 12.3721 3.90698 11.788 3.90698 11.0698C3.90698 10.3515 4.45449 9.76744 5.12791 9.76744H6.34884C6.61846 9.76744 6.83721 9.98619 6.83721 10.2558C6.83721 10.5254 6.61846 10.7442 6.34884 10.7442H5.12791C4.99564 10.7442 4.88372 10.8933 4.88372 11.0698ZM8.95349 9.76744C7.96594 9.76744 7.16279 10.5706 7.16279 11.5581V12.2093C7.16279 13.1969 7.96594 14 8.95349 14C9.94104 14 10.7442 13.1969 10.7442 12.2093V11.5581C10.7442 10.5706 9.94104 9.76744 8.95349 9.76744ZM9.76744 12.2093C9.76744 12.6582 9.40243 13.0233 8.95349 13.0233C8.50454 13.0233 8.13953 12.6582 8.13953 12.2093V11.5581C8.13953 11.1092 8.50454 10.7442 8.95349 10.7442C9.40243 10.7442 9.76744 11.1092 9.76744 11.5581V12.2093ZM14 10.2558V13.5116C14 13.731 13.8537 13.9237 13.642 13.9822C13.5987 13.9943 13.5549 14 13.5116 14C13.3431 14 13.1829 13.9126 13.0926 13.7628L12.0465 12.0188V13.5116C12.0465 13.7812 11.8278 14 11.5581 14C11.2885 14 11.0698 13.7812 11.0698 13.5116V10.2558C11.0698 10.0364 11.216 9.84375 11.4278 9.78524C11.6402 9.72642 11.864 9.8164 11.9772 10.0046L13.0233 11.7486V10.2558C13.0233 9.98619 13.242 9.76743 13.5116 9.76743C13.7812 9.76743 14 9.98619 14 10.2558ZM3.5814 10.2558V12.2093C3.5814 13.1969 2.77825 14 1.7907 14C0.803144 14 0 13.1969 0 12.2093C0 11.9397 0.218752 11.7209 0.488372 11.7209C0.757993 11.7209 0.976744 11.9397 0.976744 12.2093C0.976744 12.6582 1.34175 13.0233 1.7907 13.0233C2.23964 13.0233 2.60465 12.6582 2.60465 12.2093V10.7442H1.7907C1.52108 10.7442 1.30233 10.5254 1.30233 10.2558C1.30233 9.98619 1.52108 9.76744 1.7907 9.76744H3.09302C3.36264 9.76744 3.5814 9.98619 3.5814 10.2558Z" fill="currentColor"/>
</svg>
