<svg width="18" height="18" viewBox="0 0 18 18" fill="none" xmlns="http://www.w3.org/2000/svg">
<mask id="path-1-outside-1_2947_12817" maskUnits="userSpaceOnUse" x="0" y="0.390015" width="18" height="17" fill="black">
<rect fill="white" y="0.390015" width="18" height="17"/>
<path fill-rule="evenodd" clip-rule="evenodd" d="M15.1729 2.60648C15.1721 1.93451 14.6272 1.39001 13.9551 1.39001H8.85584C8.53286 1.39001 8.22312 1.51828 7.99472 1.74665L1.35682 8.38317C0.881098 8.85878 0.88106 9.62997 1.35671 10.1057L6.45599 15.205C6.6938 15.4428 7.00552 15.5618 7.31723 15.5618C7.51344 15.5618 7.70751 15.5091 7.88529 15.4148C7.95066 15.361 7.99975 15.322 8.04251 15.288C8.06738 15.2682 8.09011 15.2501 8.11266 15.2318C8.35215 15.0376 8.57128 14.8182 11.1178 12.2689C12.0221 11.3637 13.2199 10.1646 14.8163 8.56853C15.0447 8.34009 15.1731 8.03027 15.1731 7.70721L15.173 2.97696L15.1729 2.60648ZM14.5641 7.70717C14.5641 7.86984 14.5007 8.02281 14.3857 8.13783L7.74778 14.7745C7.63276 14.8895 7.47983 14.9528 7.31716 14.9528C7.15449 14.9528 7.00159 14.8895 6.88654 14.7745L1.78733 9.67511C1.67231 9.56009 1.60897 9.40712 1.60897 9.24449C1.60897 9.08182 1.67235 8.92889 1.78737 8.81387L8.42526 2.1773C8.54028 2.06232 8.69317 1.99899 8.85584 1.99899H13.9552C14.2909 1.99899 14.5641 2.27219 14.5641 2.60796V7.70717H14.5641ZM16.391 2.60796V8.31611C16.391 8.47878 16.3276 8.63175 16.2126 8.74677L9.01801 15.9401L9.44859 16.3707L16.6432 9.17743C16.8716 8.94899 17 8.63917 17 8.31611V2.60796H16.391ZM10.6058 4.73937C10.6058 4.06764 11.1523 3.52143 11.8237 3.52143C12.4951 3.52143 13.0417 4.06764 13.0417 4.73937C13.0417 5.41111 12.4951 5.95732 11.8237 5.95732C11.1523 5.95732 10.6058 5.41111 10.6058 4.73937ZM11.2147 4.73937C11.2147 5.07507 11.4877 5.34835 11.8237 5.34835C12.1597 5.34835 12.4327 5.07507 12.4327 4.73937C12.4327 4.40368 12.1597 4.1304 11.8237 4.1304C11.4877 4.1304 11.2147 4.40368 11.2147 4.73937Z"/>
</mask>
<path fill-rule="evenodd" clip-rule="evenodd" d="M15.1729 2.60648C15.1721 1.93451 14.6272 1.39001 13.9551 1.39001H8.85584C8.53286 1.39001 8.22312 1.51828 7.99472 1.74665L1.35682 8.38317C0.881098 8.85878 0.88106 9.62997 1.35671 10.1057L6.45599 15.205C6.6938 15.4428 7.00552 15.5618 7.31723 15.5618C7.51344 15.5618 7.70751 15.5091 7.88529 15.4148C7.95066 15.361 7.99975 15.322 8.04251 15.288C8.06738 15.2682 8.09011 15.2501 8.11266 15.2318C8.35215 15.0376 8.57128 14.8182 11.1178 12.2689C12.0221 11.3637 13.2199 10.1646 14.8163 8.56853C15.0447 8.34009 15.1731 8.03027 15.1731 7.70721L15.173 2.97696L15.1729 2.60648ZM14.5641 7.70717C14.5641 7.86984 14.5007 8.02281 14.3857 8.13783L7.74778 14.7745C7.63276 14.8895 7.47983 14.9528 7.31716 14.9528C7.15449 14.9528 7.00159 14.8895 6.88654 14.7745L1.78733 9.67511C1.67231 9.56009 1.60897 9.40712 1.60897 9.24449C1.60897 9.08182 1.67235 8.92889 1.78737 8.81387L8.42526 2.1773C8.54028 2.06232 8.69317 1.99899 8.85584 1.99899H13.9552C14.2909 1.99899 14.5641 2.27219 14.5641 2.60796V7.70717H14.5641ZM16.391 2.60796V8.31611C16.391 8.47878 16.3276 8.63175 16.2126 8.74677L9.01801 15.9401L9.44859 16.3707L16.6432 9.17743C16.8716 8.94899 17 8.63917 17 8.31611V2.60796H16.391ZM10.6058 4.73937C10.6058 4.06764 11.1523 3.52143 11.8237 3.52143C12.4951 3.52143 13.0417 4.06764 13.0417 4.73937C13.0417 5.41111 12.4951 5.95732 11.8237 5.95732C11.1523 5.95732 10.6058 5.41111 10.6058 4.73937ZM11.2147 4.73937C11.2147 5.07507 11.4877 5.34835 11.8237 5.34835C12.1597 5.34835 12.4327 5.07507 12.4327 4.73937C12.4327 4.40368 12.1597 4.1304 11.8237 4.1304C11.4877 4.1304 11.2147 4.40368 11.2147 4.73937Z" fill="currentColor"/>
<path d="M15.1729 2.60648L15.6729 2.60635V2.60586L15.1729 2.60648ZM7.99472 1.74665L8.34823 2.10024L8.34824 2.10023L7.99472 1.74665ZM1.35682 8.38317L1.71033 8.73677L1.71034 8.73676L1.35682 8.38317ZM1.35671 10.1057L1.00312 10.4592L1.00315 10.4592L1.35671 10.1057ZM6.45599 15.205L6.10244 15.5586L6.10244 15.5586L6.45599 15.205ZM7.88529 15.4148L8.11947 15.8566L8.16412 15.8329L8.20314 15.8008L7.88529 15.4148ZM8.04251 15.288L8.35367 15.6794L8.35367 15.6794L8.04251 15.288ZM8.11266 15.2318L7.79765 14.8436L7.79764 14.8436L8.11266 15.2318ZM11.1178 12.2689L11.4716 12.6223L11.1178 12.2689ZM14.8163 8.56853L15.1698 8.92212L15.1698 8.92211L14.8163 8.56853ZM15.1731 7.70721H15.6731V7.7072L15.1731 7.70721ZM15.173 2.97696L15.673 2.97696V2.97684L15.173 2.97696ZM14.3857 8.13783L14.7392 8.49142L14.7393 8.49138L14.3857 8.13783ZM14.5641 7.70717V7.20717H14.0641V7.70717H14.5641ZM7.74778 14.7745L7.39426 14.4209L7.39422 14.4209L7.74778 14.7745ZM6.88654 14.7745L6.53298 15.128L6.5331 15.1281L6.88654 14.7745ZM1.78733 9.67511L2.14089 9.32156L2.14088 9.32156L1.78733 9.67511ZM1.78737 8.81387L1.43385 8.46028L1.43381 8.46032L1.78737 8.81387ZM8.42526 2.1773L8.07177 1.82369L8.07174 1.82372L8.42526 2.1773ZM14.5641 7.70717V8.20717H15.0641V7.70717H14.5641ZM16.391 2.60796V2.10796H15.891V2.60796H16.391ZM16.2126 8.74677L16.5661 9.10035L16.5662 9.10032L16.2126 8.74677ZM9.01801 15.9401L8.66448 15.5865L8.31088 15.94L8.66444 16.2936L9.01801 15.9401ZM9.44859 16.3707L9.09502 16.7242L9.44854 17.0778L9.80211 16.7243L9.44859 16.3707ZM16.6432 9.17743L16.9967 9.53101L16.9967 9.53101L16.6432 9.17743ZM17 2.60796H17.5V2.10796H17V2.60796ZM13.9551 1.89001C14.3512 1.89001 14.6724 2.2109 14.6729 2.6071L15.6729 2.60586C15.6717 1.65813 14.9033 0.890015 13.9551 0.890015V1.89001ZM8.85584 1.89001H13.9551V0.890015H8.85584V1.89001ZM8.34824 2.10023C8.48287 1.96563 8.66543 1.89001 8.85584 1.89001V0.890015C8.40029 0.890015 7.96338 1.07093 7.64119 1.39306L8.34824 2.10023ZM1.71034 8.73676L8.34823 2.10024L7.6412 1.39306L1.0033 8.02958L1.71034 8.73676ZM1.71029 9.75217C1.42987 9.4717 1.42993 9.01711 1.71033 8.73677L1.00331 8.02958C0.33227 8.70046 0.332252 9.78824 1.00312 10.4592L1.71029 9.75217ZM6.80955 14.8515L1.71026 9.75214L1.00315 10.4592L6.10244 15.5586L6.80955 14.8515ZM7.31723 15.0618C7.13272 15.0618 6.94983 14.9917 6.80954 14.8515L6.10244 15.5586C6.43776 15.8939 6.87831 16.0618 7.31723 16.0618V15.0618ZM7.65112 14.9731C7.53774 15.0332 7.42348 15.0618 7.31723 15.0618V16.0618C7.6034 16.0618 7.87728 15.985 8.11947 15.8566L7.65112 14.9731ZM7.73134 14.8966C7.68824 14.9309 7.63633 14.9721 7.56744 15.0289L8.20314 15.8008C8.26499 15.7499 8.31125 15.7131 8.35367 15.6794L7.73134 14.8966ZM7.79764 14.8436C7.77734 14.86 7.75657 14.8766 7.73134 14.8966L8.35367 15.6794C8.37818 15.6599 8.40287 15.6403 8.42767 15.6201L7.79764 14.8436ZM10.7641 11.9156C8.19939 14.483 8.01035 14.671 7.79765 14.8436L8.42767 15.6201C8.69394 15.4041 8.94318 15.1534 11.4716 12.6223L10.7641 11.9156ZM14.4627 8.21494C12.8662 9.81113 11.6684 11.0103 10.7641 11.9156L11.4716 12.6223C12.3758 11.717 13.5735 10.5181 15.1698 8.92212L14.4627 8.21494ZM14.6731 7.70721C14.6731 7.89765 14.5974 8.08027 14.4627 8.21495L15.1698 8.92211C15.492 8.5999 15.6731 8.1629 15.6731 7.70721H14.6731ZM14.673 2.97697L14.6731 7.70722L15.6731 7.7072L15.673 2.97696L14.673 2.97697ZM14.6729 2.60661L14.673 2.97709L15.673 2.97684L15.6729 2.60635L14.6729 2.60661ZM14.7393 8.49138C14.948 8.28261 15.0641 8.00247 15.0641 7.70717H14.0641C14.0641 7.73722 14.0534 7.76301 14.0322 7.78428L14.7393 8.49138ZM8.1013 15.1281L14.7392 8.49142L14.0322 7.78424L7.39426 14.4209L8.1013 15.1281ZM7.31716 15.4528C7.61241 15.4528 7.89252 15.3368 8.10133 15.128L7.39422 14.4209C7.37299 14.4421 7.34725 14.4528 7.31716 14.4528V15.4528ZM6.5331 15.1281C6.74181 15.3367 7.02179 15.4528 7.31716 15.4528V14.4528C7.28718 14.4528 7.26137 14.4422 7.23997 14.4208L6.5331 15.1281ZM1.43377 10.0287L6.53298 15.128L7.24009 14.4209L2.14089 9.32156L1.43377 10.0287ZM1.10897 9.24449C1.10897 9.53969 1.22495 9.81984 1.43377 10.0287L2.14088 9.32156C2.11966 9.30034 2.10897 9.27456 2.10897 9.24449H1.10897ZM1.43381 8.46032C1.22506 8.66907 1.10897 8.94916 1.10897 9.24449H2.10897C2.10897 9.21448 2.11963 9.18871 2.14092 9.16742L1.43381 8.46032ZM8.07174 1.82372L1.43385 8.46028L2.14088 9.16746L8.77878 2.53089L8.07174 1.82372ZM8.85584 1.49899C8.56057 1.49899 8.28053 1.615 8.07177 1.82369L8.77876 2.53092C8.80003 2.50965 8.82578 2.49899 8.85584 2.49899V1.49899ZM13.9552 1.49899H8.85584V2.49899H13.9552V1.49899ZM15.0641 2.60796C15.0641 1.99605 14.5671 1.49899 13.9552 1.49899V2.49899C14.0148 2.49899 14.0641 2.54833 14.0641 2.60796H15.0641ZM15.0641 7.70717V2.60796H14.0641V7.70717H15.0641ZM14.5641 8.20717H14.5641V7.20717H14.5641V8.20717ZM16.891 8.31611V2.60796H15.891V8.31611H16.891ZM16.5662 9.10032C16.7749 8.89155 16.891 8.61141 16.891 8.31611H15.891C15.891 8.34615 15.8803 8.37195 15.8591 8.39321L16.5662 9.10032ZM9.37153 16.2937L16.5661 9.10035L15.8591 8.39318L8.66448 15.5865L9.37153 16.2937ZM9.80216 16.0172L9.37158 15.5865L8.66444 16.2936L9.09502 16.7242L9.80216 16.0172ZM16.2896 8.82384L9.09507 16.0171L9.80211 16.7243L16.9967 9.53101L16.2896 8.82384ZM16.5 8.31611C16.5 8.50654 16.4243 8.68917 16.2896 8.82384L16.9967 9.53101C17.319 9.2088 17.5 8.77179 17.5 8.31611H16.5ZM16.5 2.60796V8.31611H17.5V2.60796H16.5ZM16.391 3.10796H17V2.10796H16.391V3.10796ZM11.8237 3.02143C10.8762 3.02143 10.1058 3.79141 10.1058 4.73937H11.1058C11.1058 4.34386 11.4283 4.02143 11.8237 4.02143V3.02143ZM13.5417 4.73937C13.5417 3.7914 12.7712 3.02143 11.8237 3.02143V4.02143C12.2191 4.02143 12.5417 4.34387 12.5417 4.73937H13.5417ZM11.8237 6.45732C12.7712 6.45732 13.5417 5.68733 13.5417 4.73937H12.5417C12.5417 5.13489 12.2191 5.45732 11.8237 5.45732V6.45732ZM10.1058 4.73937C10.1058 5.68733 10.8762 6.45732 11.8237 6.45732V5.45732C11.4283 5.45732 11.1058 5.13489 11.1058 4.73937H10.1058ZM11.8237 4.84835C11.764 4.84835 11.7147 4.79909 11.7147 4.73937H10.7147C10.7147 5.35105 11.2114 5.84835 11.8237 5.84835V4.84835ZM11.9327 4.73937C11.9327 4.79909 11.8834 4.84835 11.8237 4.84835V5.84835C12.436 5.84835 12.9327 5.35105 12.9327 4.73937H11.9327ZM11.8237 4.6304C11.8834 4.6304 11.9327 4.67966 11.9327 4.73937H12.9327C12.9327 4.1277 12.436 3.6304 11.8237 3.6304V4.6304ZM11.7147 4.73937C11.7147 4.67966 11.764 4.6304 11.8237 4.6304V3.6304C11.2114 3.6304 10.7147 4.1277 10.7147 4.73937H11.7147Z" fill="currentColor" mask="url(#path-1-outside-1_2947_12817)"/>
</svg>
