<svg width="16" height="16" viewBox="0 0 16 16" fill="none" xmlns="http://www.w3.org/2000/svg">
<path d="M7.70342 8.42245C7.64466 8.50597 7.59514 8.57471 7.54747 8.64419C6.78716 9.7632 6.02711 10.8821 5.2673 12.0009C4.56046 13.0415 3.85288 14.0816 3.14456 15.121C3.13281 15.1374 3.11775 15.151 3.10037 15.1612C3.08299 15.1713 3.06367 15.1776 3.04367 15.1798C2.04365 15.1712 1.04388 15.1603 0.0443469 15.1473C0.0332601 15.1473 0.0218039 15.144 0 15.1406C0.00807304 15.1197 0.0174537 15.0994 0.0280863 15.0797C0.725564 13.9983 1.42304 12.9172 2.12052 11.8364C2.73916 10.8785 3.35817 9.92088 3.97754 8.96348C4.66393 7.89965 5.34996 6.83508 6.03561 5.76977C6.13687 5.61271 6.24219 5.4586 6.33827 5.29858C6.36291 5.25575 6.37031 5.20514 6.35897 5.15704C6.17419 4.56797 5.98572 3.98037 5.79761 3.39278C5.71705 3.14111 5.63279 2.89092 5.5574 2.63777C5.53301 2.55647 5.49273 2.53171 5.40958 2.53208C4.78133 2.53467 4.15678 2.53393 3.53038 2.53393C3.41138 2.53393 3.41101 2.53393 3.41101 2.41641C3.41101 1.64625 3.41101 0.876094 3.4088 0.105937C3.4088 0.0201993 3.43688 0.000982349 3.51744 0.000982349C4.77862 0.00319969 6.04004 0.00319969 7.30171 0.000982349C7.33101 -0.00276441 7.36067 0.00428353 7.38516 0.0208096C7.40964 0.0373357 7.42727 0.0622096 7.43475 0.0907847C8.09995 1.76389 8.76516 3.43639 9.43036 5.10826C10.2064 7.05805 10.9825 9.00808 11.7586 10.9584C11.9995 11.5637 12.2423 12.1687 12.4807 12.7755C12.5091 12.8494 12.5387 12.8634 12.6134 12.8405C13.2745 12.6361 13.9371 12.4373 14.5979 12.2326C14.681 12.2067 14.7113 12.2241 14.7372 12.3065C14.9626 13.0149 15.1925 13.7219 15.4209 14.4296C15.4286 14.454 15.4346 14.4788 15.4438 14.5128C15.3965 14.5301 15.3521 14.5497 15.3067 14.5623C13.8038 15.0385 12.3018 15.515 10.8007 15.9917C10.729 16.0143 10.7075 15.9899 10.6835 15.9296C10.225 14.7677 9.76542 13.6064 9.30471 12.4454C8.8541 11.3087 8.40324 10.1719 7.95213 9.03518C7.8845 8.86444 7.81798 8.69297 7.75035 8.52223C7.73964 8.49304 7.72485 8.46754 7.70342 8.42245Z" fill="#FA7E14"/>
</svg>
