<svg width="17" height="16" viewBox="0 0 17 16" fill="none" xmlns="http://www.w3.org/2000/svg">
<g clip-path="url(#clip0_2530_9696)">
<path d="M3.8822 7.75C3.8822 7.60825 3.94235 7.47318 4.04773 7.37835L6.54773 5.12835C6.75298 4.94363 7.06913 4.96025 7.25385 5.16553C7.43858 5.37078 7.42193 5.68693 7.21668 5.87165L5.12963 7.75L7.21668 9.62835C7.42193 9.81308 7.43858 10.1292 7.25385 10.3345C7.06913 10.5397 6.75298 10.5564 6.54773 10.3717L4.04773 8.12165C3.94235 8.02683 3.8822 7.89175 3.8822 7.75Z" fill="currentColor"/>
<path d="M13.8822 7.75C13.8822 7.89175 13.8221 8.02682 13.7167 8.12165L11.2167 10.3716C11.0114 10.5564 10.6953 10.5397 10.5106 10.3345C10.3258 10.1292 10.3425 9.81307 10.5477 9.62835L12.6348 7.75L10.5477 5.87165C10.3425 5.68692 10.3258 5.37077 10.5106 5.16552C10.6953 4.96027 11.0114 4.94362 11.2167 5.12835L13.7167 7.37835C13.8221 7.47317 13.8822 7.60825 13.8822 7.75Z" fill="currentColor"/>
<path fill-rule="evenodd" clip-rule="evenodd" d="M0.882202 4.26667C0.882202 1.91025 2.79245 0 5.14887 0H12.6155C14.972 0 16.8822 1.91025 16.8822 4.26667V11.7333C16.8822 14.0898 14.972 16 12.6155 16H5.14887C2.79245 16 0.882202 14.0898 0.882202 11.7333V4.26667ZM5.14887 1.06667C3.38156 1.06667 1.94887 2.49936 1.94887 4.26667V11.7333C1.94887 13.5006 3.38156 14.9333 5.14887 14.9333H12.6155C14.3828 14.9333 15.8155 13.5006 15.8155 11.7333V4.26667C15.8155 2.49936 14.3828 1.06667 12.6155 1.06667H5.14887Z" fill="currentColor"/>
</g>
<defs>
<clipPath id="clip0_2530_9696">
<rect width="16" height="16" fill="white" transform="translate(0.882202)"/>
</clipPath>
</defs>
</svg>
