<svg width="64" height="64" viewBox="0 0 65 64" fill="none" xmlns="http://www.w3.org/2000/svg">
<rect opacity="0.1" x="0.841797" width="64" height="64" rx="32" fill="#E79B08"/>
<rect opacity="0.23" x="12.8418" y="12" width="40" height="40" rx="20" fill="#E79B08"/>
<path d="M32.8418 44H21.4566C21.0772 44 20.7045 43.9003 20.376 43.7109C20.0474 43.5216 19.7746 43.2492 19.5849 42.9213C19.3952 42.5933 19.2954 42.2213 19.2953 41.8426C19.2953 41.4639 19.3952 41.0918 19.5849 40.7638L25.2775 30.9213L30.9701 21.0787C31.1598 20.7508 31.4326 20.4784 31.7612 20.2891C32.0897 20.0997 32.4624 20 32.8418 20C33.2212 20 33.5939 20.0997 33.9224 20.2891C34.251 20.4784 34.5238 20.7508 34.7135 21.0787L40.4061 30.9213L46.0987 40.7638C46.2884 41.0918 46.3883 41.4639 46.3882 41.8426C46.3882 42.2213 46.2884 42.5933 46.0987 42.9213C45.909 43.2492 45.6362 43.5216 45.3076 43.7109C44.9791 43.9003 44.6064 44 44.227 44H32.8418Z" fill="#E79B08"/>
<path d="M34.2913 28.1253C34.2913 27.5108 33.6424 27.0127 32.8419 27.0127C32.0414 27.0127 31.3925 27.5108 31.3925 28.1253V35.9135C31.3925 36.528 32.0414 37.0261 32.8419 37.0261C33.6424 37.0261 34.2913 36.528 34.2913 35.9135V28.1253Z" fill="white"/>
<path d="M32.8419 41.3175C33.6424 41.3175 34.2913 40.6771 34.2913 39.887C34.2913 39.097 33.6424 38.4565 32.8419 38.4565C32.0414 38.4565 31.3925 39.097 31.3925 39.887C31.3925 40.6771 32.0414 41.3175 32.8419 41.3175Z" fill="white"/>
</svg>
