<svg width="64" height="64" viewBox="0 0 64 64" fill="none" xmlns="http://www.w3.org/2000/svg">
<rect opacity="0.1" width="64" height="64" rx="32" fill="#5F2868"/>
<rect opacity="0.3" x="12" y="12" width="40" height="40" rx="20" fill="#5F2868"/>
<circle cx="32" cy="32" r="12" fill="url(#paint0_linear_14715_33777)"/>
<path d="M33.1998 37.0667C33.1998 37.5821 32.6625 38 31.9998 38C31.3371 38 30.7998 37.5821 30.7998 37.0667V30.5333C30.7998 30.0179 31.3371 29.6 31.9998 29.6C32.6625 29.6 33.1998 30.0179 33.1998 30.5333V37.0667Z" fill="white"/>
<path d="M31.9998 25.9999C32.6625 25.9999 33.1998 26.5372 33.1998 27.1999C33.1998 27.8626 32.6625 28.3999 31.9998 28.3999C31.3371 28.3999 30.7998 27.8626 30.7998 27.1999C30.7998 26.5372 31.3371 25.9999 31.9998 25.9999Z" fill="white"/>
<defs>
<linearGradient id="paint0_linear_14715_33777" x1="32" y1="20" x2="32" y2="44" gradientUnits="userSpaceOnUse">
<stop stop-color="#71347B"/>
<stop offset="1" stop-color="#46164D"/>
</linearGradient>
</defs>
</svg>
