<svg width="64" height="64" viewBox="0 0 64 64" fill="none" xmlns="http://www.w3.org/2000/svg">
<rect opacity="0.1" width="64" height="64" rx="32" fill="#E12121"/>
<rect opacity="0.3" x="12" y="12" width="40" height="40" rx="20" fill="#E12121"/>
<path d="M32.0001 42H20.6148C20.2355 42 19.8628 41.9003 19.5342 41.7109C19.2057 41.5216 18.9329 41.2492 18.7432 40.9213C18.5535 40.5933 18.4536 40.2213 18.4536 39.8426C18.4536 39.4639 18.5535 39.0918 18.7431 38.7638L24.4358 28.9213L30.1284 19.0787C30.318 18.7508 30.5909 18.4784 30.9194 18.2891C31.248 18.0997 31.6207 18 32.0001 18C32.3794 18 32.7521 18.0997 33.0807 18.2891C33.4092 18.4784 33.6821 18.7508 33.8718 19.0787L39.5644 28.9213L45.257 38.7638C45.4467 39.0918 45.5465 39.4639 45.5465 39.8426C45.5465 40.2213 45.4466 40.5933 45.257 40.9213C45.0673 41.2492 44.7944 41.5216 44.4659 41.7109C44.1373 41.9003 43.7647 42 43.3853 42H32.0001Z" fill="#E12121"/>
<path d="M33.4496 26.1253C33.4496 25.5108 32.8007 25.0127 32.0002 25.0127C31.1997 25.0127 30.5508 25.5108 30.5508 26.1253V33.9135C30.5508 34.528 31.1997 35.0261 32.0002 35.0261C32.8007 35.0261 33.4496 34.528 33.4496 33.9135V26.1253Z" fill="white"/>
<path d="M32.0002 39.3175C32.8007 39.3175 33.4496 38.6771 33.4496 37.887C33.4496 37.097 32.8007 36.4565 32.0002 36.4565C31.1997 36.4565 30.5508 37.097 30.5508 37.887C30.5508 38.6771 31.1997 39.3175 32.0002 39.3175Z" fill="white"/>
</svg>
