<svg width="16" height="16" viewBox="0 0 16 16" fill="none" xmlns="http://www.w3.org/2000/svg">
<path d="M5.22499 13.7397C5.09343 13.8514 5.07734 14.0486 5.18902 14.1802C5.30071 14.3117 5.49793 14.3278 5.62949 14.2161C5.76106 14.1044 5.77715 13.9072 5.66546 13.7757C5.55377 13.6441 5.35656 13.628 5.22499 13.7397Z" fill="currentColor"/>
<path d="M9.31659 9.14405L8.77474 8.87024L8.63074 8.33286C8.60305 8.22952 8.52449 8.14749 8.42246 8.11533C8.32033 8.08314 8.20899 8.10533 8.12708 8.17411L6.74248 9.33593C6.30095 8.91739 5.73557 8.66111 5.12042 8.60727C4.40016 8.54405 3.6986 8.76539 3.14488 9.23002L0.967091 11.0574C0.413558 11.5219 0.073869 12.1744 0.0105251 12.895C-0.0524751 13.615 0.168869 14.3166 0.633715 14.8705C1.16831 15.5076 1.93612 15.8361 2.70913 15.8361C3.32316 15.836 3.94051 15.6287 4.44654 15.2041L4.53657 15.1285C4.66901 15.0173 4.68632 14.8199 4.57516 14.6874C4.46401 14.5549 4.26657 14.5377 4.13407 14.6488L4.04404 14.7244C3.16532 15.4616 1.85069 15.3467 1.11337 14.468C0.756027 14.0422 0.585902 13.5028 0.634308 12.9496C0.682996 12.3957 0.94409 11.8941 1.36956 11.5371L3.54735 9.70965C3.97294 9.35255 4.51232 9.18271 5.06579 9.23102C5.51401 9.27027 5.92807 9.44896 6.25908 9.74146L5.94923 10.0015C5.84354 10.0901 5.74339 10.1414 5.67564 10.1624C5.16554 9.8068 4.47801 9.83196 3.99216 10.2397L1.81434 12.0671C1.22797 12.5592 1.15128 13.4366 1.64347 14.0231C1.91766 14.3499 2.31153 14.5184 2.70803 14.5184C3.023 14.5184 3.33966 14.4121 3.59926 14.1943L5.77707 12.3668C5.88404 12.277 5.97529 12.1739 6.04967 12.059C6.36198 11.9893 6.65955 11.8642 6.92833 11.6902C6.84664 12.1241 6.62955 12.521 6.30417 12.8241C6.17764 12.942 6.17064 13.1401 6.28851 13.2666C6.35017 13.3328 6.43379 13.3663 6.51764 13.3663C6.59408 13.3663 6.67067 13.3385 6.73098 13.2823C7.22067 12.8261 7.52242 12.207 7.58058 11.5397C7.59164 11.4153 7.5933 11.2898 7.58695 11.1649L9.37662 9.66324C9.45724 9.59561 9.49849 9.49199 9.4864 9.38746C9.47431 9.28299 9.41049 9.19152 9.31659 9.14405ZM3.19672 13.7147C2.87482 13.9848 2.39322 13.9426 2.12309 13.6207C1.9925 13.4651 1.93034 13.2675 1.94809 13.0643C1.96581 12.8612 2.06125 12.6774 2.21681 12.5469L3.60085 11.3855C4.01729 11.7803 4.54413 12.0302 5.11829 12.1023L3.19672 13.7147ZM6.79633 11.011C6.50998 11.2512 6.16492 11.41 5.79839 11.4702C5.79548 11.4707 5.4486 11.5047 5.27782 11.4896C4.82979 11.4506 4.41576 11.2721 4.08476 10.9795L4.39466 10.7195C4.39466 10.7195 4.39473 10.7194 4.39479 10.7194C4.68113 10.4792 5.09492 10.4809 5.37867 10.7234C5.42826 10.7658 5.48985 10.7916 5.55482 10.7973C5.89795 10.8274 6.22654 10.5862 6.35173 10.4812L8.15308 8.96967L8.20614 9.16758C8.22921 9.25364 8.28783 9.32577 8.36736 9.36596L8.61043 9.4888L6.79633 11.011Z" fill="currentColor"/>
<path d="M15.6361 1.51653C14.8899 0.224213 13.2315 -0.220257 11.939 0.525964L9.47701 1.94741C8.85075 2.30897 8.40297 2.89263 8.21625 3.59038C8.18378 3.71097 8.16038 3.83422 8.14494 3.95829L6.12168 5.12642C6.02993 5.17942 5.97115 5.2752 5.96556 5.38101C5.95996 5.48682 6.00828 5.58832 6.09393 5.65067L6.58003 6.00457L6.62503 6.56395C6.63365 6.67098 6.69653 6.76614 6.79156 6.81605C6.83718 6.84001 6.88715 6.85195 6.93709 6.85195C6.99122 6.85195 7.04528 6.83792 7.09362 6.81001L8.65894 5.90629C9.0211 6.39514 9.53338 6.74567 10.1299 6.90555C10.3631 6.96805 10.5997 6.99895 10.8349 6.99895C11.3038 6.99895 11.7666 6.87598 12.1835 6.6353L14.6456 5.21385C15.2713 4.85254 15.7192 4.26888 15.9067 3.57029C16.0937 2.87219 15.9976 2.14281 15.6361 1.51653ZM7.19269 5.81104C7.18537 5.72004 7.13869 5.63676 7.06487 5.58304L6.85184 5.42792L8.597 4.42035C8.59885 4.41929 8.60072 4.41826 8.60253 4.41716L8.89678 4.24729C9.2205 4.06038 9.58872 3.96379 9.95929 3.96844C9.96238 3.96851 9.96544 3.96844 9.96854 3.96841C10.1397 3.97122 10.31 3.99513 10.4754 4.03966C10.9098 4.15591 11.2865 4.40363 11.5617 4.7492L11.2114 4.95148C11.2112 4.95157 11.211 4.95166 11.2108 4.95179C10.8873 5.13823 10.4803 5.06476 10.2429 4.7767C10.2014 4.72638 10.1453 4.69026 10.0823 4.67338C9.74926 4.58423 9.38413 4.7646 9.2426 4.84632L8.601 5.21673C8.601 5.21673 8.60097 5.21673 8.60094 5.21676C8.60091 5.21679 8.60091 5.21679 8.60088 5.21679L7.20943 6.02014L7.19269 5.81104ZM10.7389 3.464L12.9112 2.20978C13.0871 2.10822 13.2924 2.08128 13.4894 2.13409C13.6863 2.18684 13.8506 2.31278 13.9522 2.48872C14.0538 2.66469 14.0807 2.87006 14.028 3.06707C13.9752 3.26407 13.8493 3.42844 13.6735 3.52997L12.1088 4.43335C11.7672 3.97222 11.2918 3.63472 10.7389 3.464ZM15.3019 3.4081C15.1578 3.94513 14.8135 4.39382 14.3325 4.67154L11.8704 6.09298C11.3893 6.37076 10.8287 6.44448 10.2919 6.30067C9.85735 6.1842 9.48063 5.93629 9.20544 5.59076L9.55572 5.38854C9.67522 5.31957 9.78276 5.28648 9.85307 5.27751C10.2937 5.71632 10.9752 5.81082 11.5244 5.4937L13.9865 4.07222C14.3073 3.88707 14.5368 3.58757 14.6328 3.22897C14.7288 2.87044 14.6797 2.49635 14.4945 2.17559C14.3093 1.85481 14.0099 1.62528 13.6514 1.52922C13.2929 1.43309 12.9188 1.48222 12.5981 1.66744L10.136 3.08891C10.0151 3.15875 9.90729 3.24444 9.81413 3.34472C9.49432 3.35913 9.17935 3.43079 8.88425 3.5555C9.05291 3.10647 9.369 2.73272 9.7901 2.48963L12.2521 1.06818C13.2455 0.494683 14.5202 0.836246 15.0938 1.82956C15.3717 2.31106 15.4456 2.87169 15.3019 3.4081Z" fill="currentColor"/>
<path d="M3.05852 5.17202C3.11918 5.22993 3.19699 5.25868 3.27471 5.25868C3.35724 5.25868 3.43968 5.22624 3.50118 5.1618C3.62062 5.03674 3.61602 4.83855 3.49096 4.71915L2.8803 4.13605C2.75521 4.01664 2.55708 4.02114 2.43765 4.14627C2.31821 4.27133 2.3228 4.46952 2.44786 4.58893L3.05852 5.17202Z" fill="currentColor"/>
<path d="M1.65559 7.13491L2.38232 7.42919C2.42085 7.44478 2.46063 7.45219 2.49975 7.45219C2.6235 7.45219 2.74075 7.37828 2.79004 7.25653C2.85494 7.09625 2.77763 6.91369 2.61738 6.84881L1.89066 6.55453C1.73028 6.48963 1.54781 6.56694 1.48294 6.72719C1.41803 6.88747 1.49534 7.07003 1.65559 7.13491Z" fill="currentColor"/>
<path d="M5.05995 3.89848C5.11983 3.99135 5.22055 4.04198 5.32342 4.04198C5.38149 4.04198 5.4403 4.02582 5.49274 3.99201C5.63805 3.89832 5.67995 3.70457 5.58627 3.55923L5.16152 2.90023C5.06786 2.75491 4.87417 2.71297 4.72873 2.80669C4.58342 2.90038 4.54151 3.09413 4.6352 3.23948L5.05995 3.89848Z" fill="currentColor"/>
<path d="M12.6246 10.0189C12.4995 9.89945 12.3014 9.90398 12.182 10.0291C12.0625 10.1541 12.0671 10.3523 12.1922 10.4717L12.8028 11.0548C12.8635 11.1127 12.9413 11.1415 13.019 11.1415C13.1016 11.1415 13.184 11.109 13.2455 11.0446C13.3649 10.9195 13.3603 10.7214 13.2353 10.6019L12.6246 10.0189Z" fill="currentColor"/>
<path d="M14.0276 8.05591L13.3009 7.76162C13.1405 7.69672 12.9581 7.77403 12.8932 7.93428C12.8283 8.09456 12.9055 8.27709 13.0658 8.342L13.7925 8.63628C13.831 8.65188 13.8708 8.65928 13.9099 8.65928C14.0337 8.65928 14.1509 8.58538 14.2002 8.46363C14.2651 8.30334 14.1879 8.12081 14.0276 8.05591Z" fill="currentColor"/>
<path d="M10.6232 11.2924C10.5296 11.147 10.3358 11.105 10.1905 11.1988C10.0451 11.2925 10.0032 11.4862 10.0969 11.6315L10.5217 12.2906C10.5815 12.3835 10.6822 12.4341 10.7851 12.4341C10.8432 12.4341 10.902 12.418 10.9544 12.3841C11.0997 12.2905 11.1417 12.0967 11.048 11.9514L10.6232 11.2924Z" fill="currentColor"/>
</svg>
