<svg width="16" height="17" viewBox="0 0 16 17" fill="none" xmlns="http://www.w3.org/2000/svg">
<g clip-path="url(#clip0_384_22598)">
<path d="M14.902 1.59837C13.4375 0.133875 11.0632 0.133875 9.59867 1.59837L6.70933 4.48772C5.26398 5.93306 5.28139 8.36306 6.70933 9.79103C7.17451 10.2562 7.73545 10.5566 8.32589 10.7262L9.44373 11.4019L10.319 10.7491C10.9382 10.5855 11.5271 10.2765 12.0126 9.79103L14.9019 6.90169C16.3665 5.43719 16.3665 3.06284 14.902 1.59837ZM10.6868 8.46519C10.5683 8.58369 10.4349 8.67587 10.2962 8.75594L8.69808 7.80228L7.74442 6.20416C7.82448 6.0655 7.91667 5.93206 8.03517 5.81353L10.9245 2.92419C11.6557 2.19297 12.845 2.19297 13.5762 2.92419C14.3074 3.65541 14.3074 4.84462 13.5762 5.57584L10.6868 8.46519Z" fill="#FF7B4A"/>
<path d="M9.44345 11.4022L10.3187 10.7494C10.9379 10.5858 11.5269 10.2767 12.0123 9.79129L14.9016 6.90195C16.3661 5.43745 16.3661 3.06313 14.9016 1.59863L13.5758 2.92445C14.307 3.65566 14.307 4.84488 13.5758 5.5761L10.6865 8.46545C10.568 8.58395 10.4345 8.67613 10.2959 8.7562L8.69773 7.80254L6.70898 9.79129C7.17417 10.2565 7.73511 10.5569 8.32555 10.7265L9.44345 11.4022Z" fill="#FF435B"/>
<path d="M10.3187 10.7495C9.66338 10.9227 8.97782 10.914 8.32554 10.7267C8.24541 10.8654 8.15329 10.9988 8.03479 11.1173L5.07582 14.0763C4.3446 14.8075 3.15538 14.8075 2.42416 14.0763C1.69295 13.345 1.69295 12.1558 2.42416 11.4246L5.38313 8.46564C6.07885 7.76992 7.28145 7.7123 8.03479 8.46564C8.64748 9.07833 9.57885 9.17055 10.2958 8.75639C10.1262 8.16595 9.82579 7.60498 9.3606 7.13983C8.89541 6.67467 8.33448 6.37426 7.74404 6.20461C6.38204 5.81326 4.96057 6.23658 4.05732 7.13983L1.09835 10.0988C-0.366086 11.5632 -0.366148 13.9376 1.09835 15.4021C2.56285 16.8666 4.9372 16.8665 6.40166 15.4021L9.36063 12.4431C9.8461 11.9576 10.1551 11.3687 10.3187 10.7495Z" fill="#6AA9FF"/>
<path d="M10.2962 8.75621C10.1265 8.16577 9.82616 7.6048 9.36097 7.13965L8.03516 8.46546C8.64784 9.07818 9.57922 9.17037 10.2962 8.75621Z" fill="#4895FF"/>
<path d="M6.40195 15.402L9.36091 12.443C9.84641 11.9575 10.1554 11.3686 10.319 10.7494C9.66366 10.9226 8.9781 10.9139 8.32582 10.7266C8.2457 10.8653 8.15357 10.9987 8.03507 11.1172L5.0761 14.0762C4.34488 14.8074 3.15566 14.8074 2.42445 14.0762L1.09863 15.402C2.56313 16.8664 4.93751 16.8664 6.40195 15.402Z" fill="#4895FF"/>
</g>
<defs>
<clipPath id="clip0_384_22598">
<rect width="16" height="16" fill="white" transform="translate(0 0.5)"/>
</clipPath>
</defs>
</svg>
