<svg width="241" height="241" viewBox="0 0 241 241" fill="none" xmlns="http://www.w3.org/2000/svg">
<path d="M206.689 122.185C205.061 109.225 200.991 96.7112 196.129 87.74C184.383 66.1832 151.661 51.764 127.009 55.4936C105.98 58.6712 95.8757 77.8568 76.9157 84.5144C59.4725 90.6392 43.7669 95.3672 35.5445 111.529C18.1253 145.666 60.7061 182.986 97.2005 180.078C108.721 179.156 119.012 174.726 130.834 176.804C154.834 181.023 162.802 185.559 183.999 177.121C204.884 168.802 209.535 144.855 206.689 122.185Z" fill="#B14CC2"/>
<path opacity="0.8" d="M206.689 122.185C205.061 109.225 200.991 96.7112 196.129 87.74C184.383 66.1832 151.661 51.764 127.009 55.4936C105.98 58.6712 95.8757 77.8568 76.9157 84.5144C59.4725 90.6392 43.7669 95.3672 35.5445 111.529C18.1253 145.666 60.7061 182.986 97.2005 180.078C108.721 179.156 119.012 174.726 130.834 176.804C154.834 181.023 162.802 185.559 183.999 177.121C204.884 168.802 209.535 144.855 206.689 122.185Z" fill="white"/>
<path d="M122.722 187.426L102.25 141.586H151.858L213.034 181.94" fill="white"/>
<path d="M122.722 187.426L102.25 141.586H151.858L213.034 181.94" stroke="#263238" stroke-width="0.75" stroke-linecap="round" stroke-linejoin="round"/>
<path d="M117.644 185.622L102.25 144.644V141.586L124.028 189.562L117.644 185.622Z" fill="#263238" stroke="#263238" stroke-width="0.75" stroke-linecap="round" stroke-linejoin="round"/>
<path d="M130.613 143.482L151.714 168.217L126.101 174.183L111.548 146.535L130.613 143.482Z" fill="white" stroke="#263238" stroke-width="0.75" stroke-linecap="round" stroke-linejoin="round"/>
<path d="M126.102 174.183V174.913L151.278 169.82L151.714 168.217L126.102 174.183Z" fill="#263238" stroke="#263238" stroke-width="0.75" stroke-linecap="round" stroke-linejoin="round"/>
<path d="M129.816 152.382L130.896 153.975L133.642 153.231L132.5 151.676L129.816 152.382Z" fill="#263238"/>
<path d="M140.209 162.13L138.903 160.364L135.783 161.204L137.002 163.009L140.209 162.13Z" fill="#263238"/>
<path d="M127.575 149.06L128.377 150.25L130.959 149.593L130.148 148.489L127.575 149.06Z" fill="#263238"/>
<path d="M132.548 156.418L134.026 158.607L137.045 157.844L135.413 155.631L132.548 156.418Z" fill="#263238"/>
<path d="M140.367 157.446L137.779 158.103L139.075 159.86L141.71 159.15L140.367 157.446Z" fill="#263238"/>
<path d="M134.29 158.991L135.524 160.825L138.624 159.985L137.324 158.218L134.29 158.991Z" fill="#263238"/>
<path d="M124.651 149.708L125.448 150.994L127.925 150.361L127.114 149.161L124.651 149.708Z" fill="#263238"/>
<path d="M131.15 154.354L132.293 156.039L135.134 155.252L133.92 153.606L131.15 154.354Z" fill="#263238"/>
<path d="M128.636 150.63L129.557 151.998L132.217 151.297L131.237 149.967L128.636 150.63Z" fill="#263238"/>
<path d="M123.049 153.716L122.242 152.262L119.3 153.01L120.121 154.489L123.049 153.716Z" fill="#263238"/>
<path d="M118.819 157.234L120.84 156.692L119.904 155.002L117.917 155.526L118.819 157.234Z" fill="#263238"/>
<path d="M123.778 148.297L124.407 149.314L126.85 148.772L126.193 147.802L123.778 148.297Z" fill="#263238"/>
<path d="M122.021 151.863L121.243 150.462L118.253 151.119L119.079 152.612L122.021 151.863Z" fill="#263238"/>
<path d="M120.874 148.887L121.469 149.962L123.956 149.415L123.317 148.388L120.874 148.887Z" fill="#263238"/>
<path d="M116.694 153.222L118.642 152.722L117.807 151.22L115.863 151.647L116.694 153.222Z" fill="#263238"/>
<path d="M117.408 149.598L118.032 150.721L121.023 150.063L120.423 148.978L117.408 149.598Z" fill="#263238"/>
<path d="M126.802 153.178L127.81 154.806L130.45 154.095L129.37 152.502L126.802 153.178Z" fill="#263238"/>
<path d="M133.579 158.722L132.106 156.543L129.355 157.302L130.69 159.457L133.579 158.722Z" fill="#263238"/>
<path d="M121.69 150.361L122.458 151.753L125.002 151.105L124.201 149.809L121.69 150.361Z" fill="#263238"/>
<path d="M122.266 159.255L120.192 159.826L121.268 161.857L123.404 161.314L122.266 159.255Z" fill="#263238"/>
<path d="M128.05 155.194L129.115 156.913L131.847 156.164L130.709 154.474L128.05 155.194Z" fill="#263238"/>
<path d="M126.12 152.91L125.242 151.494L122.679 152.146L123.485 153.606L126.12 152.91Z" fill="#263238"/>
<path d="M130.935 167.958L128.002 168.706L129.048 170.593L131.991 169.868L130.935 167.958Z" fill="#263238"/>
<path d="M126.394 147.318L128.905 146.804L127.556 144.97L125.084 145.378L126.394 147.318Z" fill="#263238"/>
<path d="M120.202 148.58L118.988 146.386L115.911 146.895L117.188 149.199L120.202 148.58Z" fill="#263238"/>
<path d="M124.195 155.785L123.269 154.11L120.341 154.882L121.277 156.572L124.195 155.785Z" fill="#263238"/>
<path d="M131.669 161.866L130.488 159.961L127.436 160.738L128.53 162.716L131.669 161.866Z" fill="#263238"/>
<path d="M130.249 159.572L128.914 157.422L126.039 158.214L127.215 160.34L130.249 159.572Z" fill="#263238"/>
<path d="M135.077 160.945L133.838 159.106L130.93 159.846L132.11 161.746L135.077 160.945Z" fill="#263238"/>
<path d="M127.368 154.926L126.36 153.294L123.701 153.999L124.628 155.665L127.368 154.926Z" fill="#263238"/>
<path d="M125.688 151.383L126.562 152.79L129.111 152.118L128.184 150.745L125.688 151.383Z" fill="#263238"/>
<path d="M128.674 157.038L127.609 155.314L124.844 156.058L125.823 157.825L128.674 157.038Z" fill="#263238"/>
<path d="M136.56 163.134L135.336 161.329L132.351 162.135L133.488 163.974L136.56 163.134Z" fill="#263238"/>
<path d="M134.588 166.575L133.287 164.478L130.004 165.38L131.156 167.449L134.588 166.575Z" fill="#263238"/>
<path d="M124.747 163.738L123.624 161.708L121.479 162.255L122.573 164.329L124.747 163.738Z" fill="#263238"/>
<path d="M121.062 157.086L119.031 157.633L119.986 159.433L122.046 158.866L121.062 157.086Z" fill="#263238"/>
<path d="M130.714 167.564L129.572 165.495L126.663 166.292L127.781 168.308L130.714 167.564Z" fill="#263238"/>
<path d="M125.386 157.94L124.412 156.178L121.493 156.966L122.482 158.746L125.386 157.94Z" fill="#263238"/>
<path d="M126.658 147.706L127.311 148.671L129.865 148.105L129.188 147.188L126.658 147.706Z" fill="#263238"/>
<path d="M115.651 151.249L117.586 150.822L116.962 149.689L115.032 150.082L115.651 151.249Z" fill="#263238"/>
<path d="M123.529 147.898L125.929 147.409L124.609 145.455L122.257 145.844L123.529 147.898Z" fill="#263238"/>
<path d="M120.653 148.489L123.077 147.994L121.791 145.921L119.443 146.31L120.653 148.489Z" fill="#263238"/>
<path d="M119.688 154.609L118.863 153.121L116.904 153.62L117.706 155.127L119.688 154.609Z" fill="#263238"/>
<path d="M129.374 146.708L131.544 146.262L130.181 144.538L128.035 144.889L129.374 146.708Z" fill="#263238"/>
<path d="M116.736 149.29L115.45 146.967L113.549 147.284L114.821 149.679L116.736 149.29Z" fill="#263238"/>
<path d="M127.565 168.817L125.261 169.402L126.259 171.284L128.611 170.703L127.565 168.817Z" fill="#263238"/>
<path d="M138.514 166.023L135.27 166.849L136.455 168.764L139.806 167.934L138.514 166.023Z" fill="#263238"/>
<path d="M134.828 166.964L131.372 167.842L132.433 169.758L136.009 168.874L134.828 166.964Z" fill="#263238"/>
<path d="M142.354 165.044L138.965 165.908L140.256 167.823L143.765 166.954L142.354 165.044Z" fill="#263238"/>
<path d="M145.69 164.194L142.81 164.929L144.226 166.844L147.202 166.105L145.69 164.194Z" fill="#263238"/>
<path d="M126.231 166.412L123.999 167.022L125.05 169.009L127.345 168.423L126.231 166.412Z" fill="#263238"/>
<path d="M133.047 164.094L131.909 162.255L128.751 163.11L129.788 164.986L133.047 164.094Z" fill="#263238"/>
<path d="M138.255 165.639L136.815 163.513L133.729 164.358L135.029 166.46L138.255 165.639Z" fill="#263238"/>
<path d="M129.356 165.102L128.314 163.225L125.4 164.017L126.447 165.898L129.356 165.102Z" fill="#263238"/>
<path d="M123.792 166.628L126.015 166.018L124.968 164.132L122.784 164.722L123.792 166.628Z" fill="#263238"/>
<path d="M126.778 160.455L125.607 158.334L122.698 159.135L123.841 161.199L126.778 160.455Z" fill="#263238"/>
<path d="M142.075 164.665L140.486 162.51L137.261 163.393L138.706 165.524L142.075 164.665Z" fill="#263238"/>
<path d="M128.098 162.831L126.999 160.849L124.062 161.598L125.185 163.623L128.098 162.831Z" fill="#263238"/>
<path d="M135.864 155.506L137.501 157.724L140.069 157.071L138.303 154.834L135.864 155.506Z" fill="#263238"/>
<path d="M132.673 151.177L134.948 150.577L133.925 149.286L131.698 149.852L132.673 151.177Z" fill="#263238"/>
<path d="M130.618 148.388L131.415 149.473L133.633 148.911L132.831 147.898L130.618 148.388Z" fill="#263238"/>
<path d="M145.393 163.82L143.674 161.636L140.938 162.385L142.532 164.55L145.393 163.82Z" fill="#263238"/>
<path d="M132.951 151.556L134.098 153.106L136.441 152.473L135.241 150.951L132.951 151.556Z" fill="#263238"/>
<path d="M139.354 160.239L140.659 162.01L143.381 161.266L142.003 159.524L139.354 160.239Z" fill="#263238"/>
<path d="M130.33 148.004L132.533 147.519L131.847 146.646L129.663 147.092L130.33 148.004Z" fill="#263238"/>
<path d="M135.586 155.132L138.01 154.46L136.738 152.847L134.376 153.486L135.586 155.132Z" fill="#263238"/>
<path d="M155.059 146.247V150.174C154.66 150.559 154.221 150.9 153.749 151.191C153.024 151.628 147.058 152.631 147.058 152.631L154.622 160.93C154.622 160.93 161.558 160.172 163.502 159.62C165.538 159.034 165.101 151.614 165.101 151.614L155.059 146.247Z" fill="white" stroke="#263238" stroke-width="0.75" stroke-linecap="round" stroke-linejoin="round"/>
<path d="M155.06 146.247V150.174C155.06 150.174 154.954 150.279 154.781 150.433L163.628 159.582C165.519 158.732 165.101 151.628 165.101 151.628L155.06 146.247Z" fill="#263238" stroke="#263238" stroke-width="0.75" stroke-linecap="round" stroke-linejoin="round"/>
<path d="M141.673 96.0392V137.66L173.396 162.687V98.3672L141.673 96.0392Z" fill="white" stroke="#263238" stroke-width="0.75" stroke-linecap="round" stroke-linejoin="round"/>
<path d="M143.856 98.2232V133.292L170.487 149.737V100.551L143.856 98.2232Z" fill="#B14CC2" stroke="#263238" stroke-width="0.75" stroke-linecap="round" stroke-linejoin="round"/>
<path d="M176.597 98.3672H173.396V162.702H176.597V98.3672Z" fill="#263238" stroke="#263238" stroke-width="0.75" stroke-linecap="round" stroke-linejoin="round"/>
<path d="M145.604 100.407L145.748 131.694L168.01 144.351V105.61L152.732 103.297L151.714 101.132L145.604 100.407Z" fill="white" stroke="#263238" stroke-width="0.75" stroke-linecap="round" stroke-linejoin="round"/>
<path d="M147.058 104.19V130.82L166.704 141.298V107.684L147.058 104.19Z" fill="#B14CC2" stroke="#263238" stroke-width="0.75" stroke-linecap="round" stroke-linejoin="round"/>
<path d="M158.548 130.182C161.32 129.252 162.528 125.4 161.245 121.581C159.963 117.761 156.676 115.419 153.904 116.349C151.132 117.28 149.924 121.131 151.207 124.951C152.49 128.771 155.776 131.113 158.548 130.182Z" fill="#263238"/>
<path d="M156.806 123.702L158.674 121.633C158.8 121.448 158.864 121.229 158.858 121.006C158.852 120.783 158.776 120.567 158.64 120.39C158.362 119.991 157.925 119.91 157.68 120.193L155.885 122.185L154.085 119.305C153.826 118.887 153.389 118.758 153.125 119.017C152.986 119.189 152.907 119.401 152.9 119.622C152.893 119.843 152.958 120.061 153.086 120.241L154.954 123.241L153.053 125.3C152.927 125.485 152.863 125.704 152.87 125.928C152.877 126.151 152.954 126.367 153.091 126.543C153.201 126.717 153.373 126.842 153.571 126.894C153.658 126.915 153.748 126.912 153.833 126.885C153.918 126.858 153.993 126.808 154.051 126.74L155.851 124.748L157.646 127.628C157.757 127.824 157.939 127.968 158.155 128.031C158.238 128.057 158.327 128.06 158.411 128.04C158.496 128.02 158.573 127.977 158.635 127.916C158.773 127.743 158.851 127.53 158.857 127.31C158.863 127.089 158.797 126.872 158.669 126.692L156.806 123.702Z" fill="white"/>
<path d="M150.548 113.214L161.549 116.444" stroke="#263238" stroke-width="0.75" stroke-linecap="round" stroke-linejoin="round"/>
<path d="M150.11 110.156L164.371 114.135" stroke="#263238" stroke-width="0.75" stroke-linecap="round" stroke-linejoin="round"/>
<path d="M159.941 178.729C159.941 178.729 152.986 179.372 150.413 181.431C147.84 183.49 149.77 184.522 152.213 185.166C154.656 185.809 165.605 184.777 167.021 183.361C168.437 181.945 167.021 178.47 159.941 178.729Z" fill="white" stroke="#263238" stroke-width="0.75" stroke-linecap="round" stroke-linejoin="round"/>
<path d="M167.021 183.38C167.294 183.107 167.464 182.747 167.501 182.362C164.386 182.209 160.301 183.111 156.59 184.282C155.338 184.681 154.066 185.016 152.779 185.286C156.014 185.674 165.696 184.686 167.021 183.38Z" fill="#263238" stroke="#263238" stroke-width="0.75" stroke-linecap="round" stroke-linejoin="round"/>
<path d="M135.283 102.337L140.366 104.982" stroke="#263238" stroke-linecap="round" stroke-linejoin="round"/>
<path d="M132.365 100.82L133.877 101.607" stroke="#263238" stroke-linecap="round" stroke-linejoin="round"/>
<path d="M136.402 115.662L138.126 115.858" stroke="#263238" stroke-linecap="round" stroke-linejoin="round"/>
<path d="M129.807 114.898L134.453 115.436" stroke="#263238" stroke-linecap="round" stroke-linejoin="round"/>
<path d="M137.487 128.022L131.727 129.62" stroke="#263238" stroke-linecap="round" stroke-linejoin="round"/>
<path d="M130.051 57.62C127.327 57.62 124.663 58.4279 122.398 59.9416C120.132 61.4554 118.367 63.6069 117.324 66.1241C116.281 68.6413 116.009 71.4112 116.54 74.0835C117.072 76.7558 118.384 79.2105 120.31 81.1371C122.237 83.0637 124.692 84.3757 127.364 84.9073C130.036 85.4388 132.806 85.166 135.323 84.1233C137.84 83.0807 139.992 81.315 141.506 79.0495C143.019 76.784 143.827 74.1206 143.827 71.396C143.827 67.7423 142.376 64.2384 139.793 61.6549C137.209 59.0714 133.705 57.62 130.051 57.62ZM130.051 82.4648C127.862 82.4638 125.723 81.8138 123.903 80.597C122.084 79.3802 120.666 77.6511 119.829 75.6285C118.992 73.6058 118.773 71.3804 119.201 69.2336C119.628 67.0868 120.683 65.115 122.231 63.5674C123.779 62.0199 125.752 60.9662 127.899 60.5395C130.046 60.1128 132.271 60.3323 134.293 61.1702C136.315 62.0081 138.044 63.4268 139.26 65.247C140.476 67.0671 141.125 69.207 141.125 71.396C141.128 72.8513 140.843 74.2929 140.287 75.6381C139.732 76.9833 138.916 78.2057 137.888 79.2352C136.859 80.2648 135.637 81.0812 134.293 81.6379C132.948 82.1945 131.507 82.4804 130.051 82.4792V82.4648Z" fill="#263238"/>
<path d="M131.035 71.4104C131.04 71.6059 130.986 71.7985 130.881 71.9634C130.776 72.1284 130.624 72.2582 130.445 72.3364C130.265 72.4146 130.067 72.4375 129.874 72.4023C129.682 72.3671 129.504 72.2753 129.364 72.1387C129.224 72.0021 129.128 71.8268 129.088 71.6353C129.048 71.4438 129.066 71.2448 129.14 71.0636C129.214 70.8824 129.34 70.7272 129.502 70.618C129.664 70.5088 129.855 70.4504 130.051 70.4504C130.308 70.4503 130.555 70.5507 130.739 70.73C130.922 70.9094 131.029 71.1536 131.035 71.4104Z" fill="#263238"/>
<path d="M126.754 76.4072L130.052 71.4104L135.624 76.0232" stroke="#263238" stroke-linecap="round" stroke-linejoin="round"/>
<path d="M56.948 81.9704L55.292 77.444L56.1752 78.4376V76.892L58.052 79.7624L56.396 69.4952L58.604 75.1256L58.8248 70.1576L59.156 71.8136L59.5976 66.1832L60.3704 74.7944L61.4744 71.8136L61.2536 75.6776L64.2344 66.8456L62.7992 77.8856L64.8968 76.34L63.6824 78.3272L65.228 77.2232L63.4664 82.3016L57.0584 82.412" fill="#B14CC2"/>
<path d="M64.0324 93.1208H57.13L55.2676 81.1592H65.89L64.0324 93.1208Z" fill="#263238" stroke="#263238" stroke-linecap="round" stroke-linejoin="round"/>
<path d="M82.9301 93.0392H48.0869V185.732H82.9301V93.0392Z" fill="white" stroke="#263238" stroke-linecap="round" stroke-linejoin="round"/>
<path d="M80.5587 96.0824H50.1123V118.407H80.5587V96.0824Z" stroke="#263238" stroke-linecap="round" stroke-linejoin="round"/>
<path d="M71.4247 105.217H59.2471V109.278H71.4247V105.217Z" fill="#263238"/>
<path d="M80.5587 122.132H50.1123V144.457H80.5587V122.132Z" stroke="#263238" stroke-linecap="round" stroke-linejoin="round"/>
<path d="M71.4247 131.266H59.2471V135.327H71.4247V131.266Z" fill="#263238"/>
<path d="M80.5587 148.177H50.1123V170.502H80.5587V148.177Z" stroke="#263238" stroke-linecap="round" stroke-linejoin="round"/>
<path d="M71.4247 157.311H59.2471V161.372H71.4247V157.311Z" fill="#263238"/>
<mask id="mask0_434_11806" style="mask-type:luminance" maskUnits="userSpaceOnUse" x="27" y="76" width="111" height="111">
<path d="M137.487 76.82H27.0869V186.26H137.487V76.82Z" fill="white"/>
</mask>
<g mask="url(#mask0_434_11806)">
<path d="M86.6645 180.442C86.6645 180.442 104.127 172.729 113.516 172.148L120.365 187.282H68.6309L86.6645 180.442Z" fill="#263238" stroke="#263238" stroke-width="0.75" stroke-linecap="round" stroke-linejoin="round"/>
<path d="M107.92 89.252C107.92 89.252 120.212 103.854 122.8 106.532C125.387 109.21 125.483 111.154 124.648 112.354C123.812 113.554 117.534 115.777 111.064 119.934C104.593 124.09 86.1996 134.814 86.0172 135.188C85.8348 135.562 84.0732 122.228 84.0732 122.228L114.851 109.566L114.76 108.639L104.776 90.1544L107.92 89.252Z" fill="white"/>
<mask id="mask1_434_11806" style="mask-type:luminance" maskUnits="userSpaceOnUse" x="84" y="89" width="42" height="47">
<path d="M107.92 89.252C107.92 89.252 120.212 103.854 122.8 106.532C125.387 109.21 125.483 111.154 124.648 112.354C123.812 113.554 117.534 115.777 111.064 119.934C104.593 124.09 86.1996 134.814 86.0172 135.188C85.8348 135.562 84.0732 122.228 84.0732 122.228L114.851 109.566L114.76 108.639L104.776 90.1544L107.92 89.252Z" fill="white"/>
</mask>
<g mask="url(#mask1_434_11806)">
<path d="M119.752 110.804L105.486 89.972L104.8 90.1736L114.784 108.658L114.875 109.585L84.0977 122.247C84.0977 122.247 84.1313 122.478 84.1793 122.866L86.1857 127.47L119.752 110.804Z" fill="#B14CC2"/>
<path opacity="0.5" d="M119.752 110.804L105.486 89.972L104.8 90.1736L114.784 108.658L114.875 109.585L84.0977 122.247C84.0977 122.247 84.1313 122.478 84.1793 122.866L86.1857 127.47L119.752 110.804Z" fill="white"/>
</g>
<path d="M107.92 89.252C107.92 89.252 120.212 103.854 122.8 106.532C125.387 109.21 125.483 111.154 124.648 112.354C123.812 113.554 117.534 115.777 111.064 119.934C104.593 124.09 86.1996 134.814 86.0172 135.188C85.8348 135.562 84.0732 122.228 84.0732 122.228L114.851 109.566L114.76 108.639L104.776 90.1544L107.92 89.252Z" stroke="#263238" stroke-width="0.75" stroke-linecap="round" stroke-linejoin="round"/>
<path d="M98.122 82.8728C98.122 82.8728 96.6436 81.5768 95.9044 82.8728C95.1652 84.1688 95.074 86.2904 95.5348 86.4776C95.9956 86.6648 97.8436 86.3864 98.122 85.8296C98.4004 85.2728 98.122 82.8728 98.122 82.8728Z" fill="white" stroke="#263238" stroke-width="0.75" stroke-linecap="round" stroke-linejoin="round"/>
<path d="M100.71 82.2248C100.71 82.2248 99.1402 80.564 98.1226 81.2072C97.105 81.8504 97.3834 85.3688 97.753 85.6472C98.1226 85.9256 100.34 85.1672 100.633 84.7208C100.926 84.2744 100.71 82.2248 100.71 82.2248Z" fill="white" stroke="#263238" stroke-width="0.75" stroke-linecap="round" stroke-linejoin="round"/>
<path d="M104.223 82.316C104.223 82.316 102.836 80.396 101.545 80.396C100.253 80.396 99.3221 85.0184 99.7877 85.388C100.253 85.7576 103.297 85.2968 103.484 85.0184C103.78 84.132 104.027 83.2298 104.223 82.316Z" fill="white" stroke="#263238" stroke-width="0.75" stroke-linecap="round" stroke-linejoin="round"/>
<path d="M106.926 85.46C106.926 84.908 106.652 80.0984 105.006 80.3768C103.359 80.6552 101.588 84.5384 101.679 85.1768C101.77 85.8152 106.926 85.46 106.926 85.46Z" fill="white" stroke="#263238" stroke-width="0.75" stroke-linecap="round" stroke-linejoin="round"/>
<path d="M114.851 109.585C114.851 109.585 119.564 111.342 121.321 111.246L114.851 109.585Z" fill="white"/>
<path d="M114.851 109.585C114.851 109.585 119.564 111.342 121.321 111.246" stroke="#263238" stroke-width="0.75" stroke-linecap="round" stroke-linejoin="round"/>
<path d="M76.0904 187.407C81.1112 186.562 87.5432 183.111 89.4584 178.767C88.0184 171.236 86.1992 160.628 86.1992 154.138C86.1992 143.233 89.0792 137.041 87.7688 129.658C86.4584 122.276 83.7032 117.462 80.7464 115.518C80.7464 115.518 76.22 116.718 71.5976 121.062C66.9752 125.406 62.9096 132.874 61.3256 139.993C59.7416 147.111 57.6296 169.014 57.6296 174.745C57.6296 180.476 57.2168 187.59 57.2168 187.59C62.7512 187.59 68.2856 187.59 73.82 187.59C74.5807 187.597 75.3406 187.536 76.0904 187.407Z" fill="white"/>
<mask id="mask2_434_11806" style="mask-type:luminance" maskUnits="userSpaceOnUse" x="57" y="115" width="33" height="73">
<path d="M76.0904 187.407C81.1112 186.562 87.5432 183.111 89.4584 178.767C88.0184 171.236 86.1992 160.628 86.1992 154.138C86.1992 143.233 89.0792 137.041 87.7688 129.658C86.4584 122.276 83.7032 117.462 80.7464 115.518C80.7464 115.518 76.22 116.718 71.5976 121.062C66.9752 125.406 62.9096 132.874 61.3256 139.993C59.7416 147.111 57.6296 169.014 57.6296 174.745C57.6296 180.476 57.2168 187.59 57.2168 187.59C62.7512 187.59 68.2856 187.59 73.82 187.59C74.5807 187.597 75.3406 187.536 76.0904 187.407Z" fill="white"/>
</mask>
<g mask="url(#mask2_434_11806)">
<path d="M89.4584 178.762C86.6456 181.162 73.9784 185.823 72.1304 186.236C70.2824 186.649 71.3096 182.742 74.1848 178.839C77.06 174.937 70.6904 180.279 69.6632 180.687C68.636 181.095 70.076 173.084 70.076 169.167C70.076 165.25 73.7768 131.977 73.7768 131.977L80.7608 119.233L83.1608 117.793C82.4904 116.902 81.6799 116.125 80.7608 115.494C80.7608 115.494 76.2344 116.694 71.612 121.038C66.9896 125.382 62.9096 132.874 61.3256 139.993C59.7416 147.111 57.6296 169.014 57.6296 174.745C57.6296 180.476 57.2168 187.59 57.2168 187.59C62.7512 187.59 68.2856 187.59 73.82 187.59C74.5781 187.59 75.3347 187.523 76.0808 187.388C81.1112 186.562 87.5432 183.111 89.4584 178.762Z" fill="#B14CC2"/>
<path opacity="0.5" d="M89.4584 178.762C86.6456 181.162 73.9784 185.823 72.1304 186.236C70.2824 186.649 71.3096 182.742 74.1848 178.839C77.06 174.937 70.6904 180.279 69.6632 180.687C68.636 181.095 70.076 173.084 70.076 169.167C70.076 165.25 73.7768 131.977 73.7768 131.977L80.7608 119.233L83.1608 117.793C82.4904 116.902 81.6799 116.125 80.7608 115.494C80.7608 115.494 76.2344 116.694 71.612 121.038C66.9896 125.382 62.9096 132.874 61.3256 139.993C59.7416 147.111 57.6296 169.014 57.6296 174.745C57.6296 180.476 57.2168 187.59 57.2168 187.59C62.7512 187.59 68.2856 187.59 73.82 187.59C74.5781 187.59 75.3347 187.523 76.0808 187.388C81.1112 186.562 87.5432 183.111 89.4584 178.762Z" fill="white"/>
</g>
<path d="M76.0904 187.407C81.1112 186.562 87.5432 183.111 89.4584 178.767C88.0184 171.236 86.1992 160.628 86.1992 154.138C86.1992 143.233 89.0792 137.041 87.7688 129.658C86.4584 122.276 83.7032 117.462 80.7464 115.518C80.7464 115.518 76.22 116.718 71.5976 121.062C66.9752 125.406 62.9096 132.874 61.3256 139.993C59.7416 147.111 57.6296 169.014 57.6296 174.745C57.6296 180.476 57.2168 187.59 57.2168 187.59C62.7512 187.59 68.2856 187.59 73.82 187.59C74.5807 187.597 75.3406 187.536 76.0904 187.407Z" stroke="#263238" stroke-width="0.75" stroke-linecap="round" stroke-linejoin="round"/>
<path d="M80.4775 117.217L88.4167 131.674L88.8439 139.604C88.8439 139.604 91.0567 133.95 90.0727 130.258C89.0887 126.567 80.4775 117.217 80.4775 117.217Z" fill="#263238" stroke="#263238" stroke-width="0.75" stroke-linecap="round" stroke-linejoin="round"/>
<path d="M88.8388 139.609L86.626 173.07L89.0884 179.958L90.8116 166.177L89.3332 138.62L88.8388 139.609Z" fill="#263238" stroke="#263238" stroke-width="0.75" stroke-linecap="round" stroke-linejoin="round"/>
<path d="M86.6602 103.666C86.6602 103.666 86.9386 107.271 87.217 109.028C87.4954 110.785 83.1514 115.7 83.1514 115.7L89.4346 125.218L96.553 119.674C96.553 119.674 106.633 118.935 107.55 118.1C108.467 117.265 108.476 108.121 108.476 108.121L110.876 106.734C110.876 106.734 108.659 97.1336 108.107 94.9928L107.55 92.8712C107.55 92.8712 110.785 91.7576 110.046 88.5512C109.307 85.3448 104.593 83.7512 99.8794 84.4808C95.1658 85.2104 93.9658 86.9768 93.9658 86.9768C93.9658 86.9768 87.3082 86.8856 83.521 90.0296C79.7338 93.1736 82.0426 98.1608 83.2426 99.9176C84.2638 101.27 85.4078 102.525 86.6602 103.666Z" fill="white"/>
<mask id="mask3_434_11806" style="mask-type:luminance" maskUnits="userSpaceOnUse" x="81" y="84" width="30" height="42">
<path d="M86.6602 103.666C86.6602 103.666 86.9386 107.271 87.217 109.028C87.4954 110.785 83.1514 115.7 83.1514 115.7L89.4346 125.218L96.553 119.674C96.553 119.674 106.633 118.935 107.55 118.1C108.467 117.265 108.476 108.121 108.476 108.121L110.876 106.734C110.876 106.734 108.659 97.1336 108.107 94.9928L107.55 92.8712C107.55 92.8712 110.785 91.7576 110.046 88.5512C109.307 85.3448 104.593 83.7512 99.8794 84.4808C95.1658 85.2104 93.9658 86.9768 93.9658 86.9768C93.9658 86.9768 87.3082 86.8856 83.521 90.0296C79.7338 93.1736 82.0426 98.1608 83.2426 99.9176C84.2638 101.27 85.4078 102.525 86.6602 103.666Z" fill="white"/>
</mask>
<g mask="url(#mask3_434_11806)">
<path d="M97.8056 116.578C95.9576 114.318 97.8056 105.687 99.2456 101.372C100.686 97.0568 97.1912 95.2088 97.1912 95.2088L107.684 93.3992L107.54 92.8568C108.25 92.5795 108.881 92.1329 109.378 91.556L109.945 88.22C108.985 85.1864 104.439 83.7272 99.8648 84.4424C95.1512 85.1816 93.9512 86.9384 93.9512 86.9384C93.9512 86.9384 87.2936 86.8472 83.5064 89.9912C79.7192 93.1352 82.028 98.1224 83.228 99.8792C84.2473 101.245 85.3914 102.513 86.6456 103.666C86.6456 103.666 86.924 107.271 87.2024 109.028C87.4808 110.785 83.1512 115.7 83.1512 115.7L89.4344 125.218L96.5528 119.674C96.5528 119.674 104.233 119.108 106.806 118.412L107.55 118.1C107.55 118.1 99.6632 118.839 97.8056 116.578Z" fill="#B14CC2"/>
<path opacity="0.5" d="M97.8056 116.578C95.9576 114.318 97.8056 105.687 99.2456 101.372C100.686 97.0568 97.1912 95.2088 97.1912 95.2088L107.684 93.3992L107.54 92.8568C108.25 92.5795 108.881 92.1329 109.378 91.556L109.945 88.22C108.985 85.1864 104.439 83.7272 99.8648 84.4424C95.1512 85.1816 93.9512 86.9384 93.9512 86.9384C93.9512 86.9384 87.2936 86.8472 83.5064 89.9912C79.7192 93.1352 82.028 98.1224 83.228 99.8792C84.2473 101.245 85.3914 102.513 86.6456 103.666C86.6456 103.666 86.924 107.271 87.2024 109.028C87.4808 110.785 83.1512 115.7 83.1512 115.7L89.4344 125.218L96.5528 119.674C96.5528 119.674 104.233 119.108 106.806 118.412L107.55 118.1C107.55 118.1 99.6632 118.839 97.8056 116.578Z" fill="white"/>
<path d="M103.206 99.4184C103.206 99.4184 103.206 99.2744 103.206 99.0488C103.206 98.3336 103.326 96.788 104.521 96.3656C106.091 95.8136 107.401 97.292 107.401 97.292L107.492 98.7704C107.267 98.4881 106.97 98.2709 106.632 98.141C106.295 98.0111 105.929 97.9732 105.572 98.0312C104.654 98.2242 103.823 98.7112 103.206 99.4184Z" fill="#263238"/>
<path d="M105.889 102.375C105.889 103.138 105.678 103.762 105.409 103.762C105.14 103.762 104.929 103.138 104.929 102.375C104.929 101.612 105.135 100.988 105.409 100.988C105.682 100.988 105.889 101.607 105.889 102.375Z" fill="#263238"/>
<path d="M102.975 112.057C102.462 112.59 101.775 112.762 101.444 112.446C101.113 112.129 101.262 111.433 101.775 110.9C102.289 110.367 102.97 110.194 103.302 110.511C103.633 110.828 103.489 111.524 102.975 112.057Z" fill="#263238"/>
</g>
<path d="M86.6602 103.666C86.6602 103.666 86.9386 107.271 87.217 109.028C87.4954 110.785 83.1514 115.7 83.1514 115.7L89.4346 125.218L96.553 119.674C96.553 119.674 106.633 118.935 107.55 118.1C108.467 117.265 108.476 108.121 108.476 108.121L110.876 106.734C110.876 106.734 108.659 97.1336 108.107 94.9928L107.55 92.8712C107.55 92.8712 110.785 91.7576 110.046 88.5512C109.307 85.3448 104.593 83.7512 99.8794 84.4808C95.1658 85.2104 93.9658 86.9768 93.9658 86.9768C93.9658 86.9768 87.3082 86.8856 83.521 90.0296C79.7338 93.1736 82.0426 98.1608 83.2426 99.9176C84.2638 101.27 85.4078 102.525 86.6602 103.666Z" stroke="#263238" stroke-width="0.75" stroke-linecap="round" stroke-linejoin="round"/>
<path d="M95.5352 94.6088C97.2008 93.5 107.535 92.8568 107.535 92.8568C107.535 92.8568 110.77 91.7432 110.031 88.5368C109.292 85.3304 104.578 83.7368 99.8648 84.4664C95.1512 85.196 93.9512 86.9624 93.9512 86.9624C93.9512 86.9624 87.2936 86.8712 83.5064 90.0152C79.7192 93.1592 82.028 98.1464 83.228 99.9032C84.2473 101.269 85.3914 102.537 86.6456 103.69C86.6456 103.69 86.7992 105.668 86.9912 107.41L89.8712 108.222L93.0152 106.556L96.1592 105.817C96.1592 105.817 93.8456 104.06 95.1416 102.399C96.4376 100.738 98.8376 100.182 98.9288 98.8856C99.02 97.5896 93.8696 95.7176 95.5352 94.6088Z" fill="#263238" stroke="#263238" stroke-width="0.75" stroke-linecap="round" stroke-linejoin="round"/>
<path d="M105.625 89.2376C105.625 89.2376 104.54 87.2504 106.528 87.6104C108.515 87.9704 108.515 91.4072 106.888 92.1272C105.26 92.8472 96.4091 91.2248 91.5275 92.6696C86.6459 94.1144 83.2188 98.0888 83.2188 98.0888" stroke="white" stroke-miterlimit="10" stroke-linecap="round"/>
<path d="M85.9307 101.161C85.9307 101.161 89.7275 97.9112 92.7947 97.3688C95.8619 96.8264 97.4939 96.8264 94.0619 98.8088C90.6299 100.791 92.9771 100.431 95.1467 99.7112" stroke="white" stroke-miterlimit="10" stroke-linecap="round"/>
<path d="M93.8693 108.289C93.8693 108.289 93.3173 102.466 90.4517 102.284C87.5861 102.102 87.6773 106.258 88.5317 109.124C89.3861 111.99 91.4117 112.911 93.0581 111.433" fill="#B14CC2"/>
<mask id="mask4_434_11806" style="mask-type:luminance" maskUnits="userSpaceOnUse" x="88" y="102" width="6" height="11">
<path d="M93.8693 108.289C93.8693 108.289 93.3173 102.466 90.4517 102.284C87.5861 102.102 87.6773 106.258 88.5317 109.124C89.3861 111.99 91.4117 112.911 93.0581 111.433" fill="white"/>
</mask>
<g mask="url(#mask4_434_11806)">
<g opacity="0.5">
<path d="M93.8693 108.289C93.8693 108.289 93.3173 102.466 90.4517 102.284C87.5861 102.102 87.6773 106.258 88.5317 109.124C89.3861 111.99 91.4117 112.911 93.0581 111.433" fill="white"/>
<path d="M93.8693 108.289C93.8693 108.289 93.3173 102.466 90.4517 102.284C87.5861 102.102 87.6773 106.258 88.5317 109.124C89.3861 111.99 91.4117 112.911 93.0581 111.433" stroke="#263238" stroke-width="0.75" stroke-linecap="round" stroke-linejoin="round"/>
</g>
</g>
<path d="M93.8693 108.289C93.8693 108.289 93.3173 102.466 90.4517 102.284C87.5861 102.102 87.6773 106.258 88.5317 109.124C89.3861 111.99 91.4117 112.911 93.0581 111.433" stroke="#263238" stroke-width="0.75" stroke-linecap="round" stroke-linejoin="round"/>
<path d="M83.4058 112.172L92.6506 126.222L88.3978 131.674C86.4825 127.98 84.3541 124.399 82.0234 120.951C78.8794 116.516 78.5098 115.777 78.5098 115.777L83.4058 112.172Z" fill="white"/>
<mask id="mask5_434_11806" style="mask-type:luminance" maskUnits="userSpaceOnUse" x="78" y="112" width="15" height="20">
<path d="M83.4058 112.172L92.6506 126.222L88.3978 131.674C86.4825 127.98 84.3541 124.399 82.0234 120.951C78.8794 116.516 78.5098 115.777 78.5098 115.777L83.4058 112.172Z" fill="white"/>
</mask>
<g mask="url(#mask5_434_11806)">
<path d="M83.4058 112.172L78.5098 115.777C78.5098 115.777 78.7834 116.319 80.7994 119.214L85.9738 116.074L83.4058 112.172Z" fill="#B14CC2"/>
<path opacity="0.5" d="M83.4058 112.172L78.5098 115.777C78.5098 115.777 78.7834 116.319 80.7994 119.214L85.9738 116.074L83.4058 112.172Z" fill="white"/>
</g>
<path d="M83.4058 112.172L92.6506 126.222L88.3978 131.674C86.4825 127.98 84.3541 124.399 82.0234 120.951C78.8794 116.516 78.5098 115.777 78.5098 115.777L83.4058 112.172Z" stroke="#263238" stroke-width="0.75" stroke-linecap="round" stroke-linejoin="round"/>
<path d="M107.18 147.111C107.18 147.111 108.658 144.058 108.936 142.119C109.215 140.18 109.306 139.066 110.415 138.145C111.524 137.223 115.128 133.522 115.695 132.135C116.261 130.748 116.616 132.044 116.895 133.153C117.173 134.262 117.077 135.279 116.156 135.927C115.506 136.409 114.917 136.967 114.399 137.588L115.229 138.236C115.229 138.236 126.783 133.892 127.988 133.436C129.192 132.98 130.296 133.34 130.388 134.266C130.479 135.193 130.114 135.284 129.557 135.562C129 135.841 122.904 137.962 122.069 138.332L121.239 138.702L121.887 139.35C121.887 139.35 125.213 139.258 126.879 139.167C128.544 139.076 131.036 138.798 131.405 139.35C131.57 139.597 131.633 139.898 131.581 140.19C131.53 140.483 131.367 140.744 131.127 140.919C130.933 141.105 130.699 141.245 130.443 141.328C130.187 141.412 129.915 141.436 129.648 141.399C128.818 141.399 121.7 141.951 121.7 141.951L121.887 142.969C121.887 142.969 129.466 144.169 129.74 144.538C130.013 144.908 130.018 145.095 129.74 145.647C129.461 146.199 129.26 146.204 128.54 146.204C127.82 146.204 121.82 145.278 121.82 145.278C121.82 145.278 124.776 146.943 125.146 147.222C125.516 147.5 126.807 147.702 126.437 148.33C126.068 148.959 125.885 149.161 125.328 149.07C124.772 148.978 120.802 147.222 120.802 147.222C120.802 147.222 116.828 147.774 115.522 147.87C114.561 147.914 113.598 147.882 112.642 147.774L108.946 150.174L107.18 147.111Z" fill="white" stroke="#263238" stroke-width="0.75" stroke-linecap="round" stroke-linejoin="round"/>
<path d="M80.9341 142.95C80.9341 142.95 78.2509 131.766 77.1421 129.27C76.0333 126.774 69.7501 124.47 66.6973 129.918C63.6445 135.366 66.4189 141.562 67.5325 145.998C68.6461 150.433 75.6637 170.478 76.6813 172.988C77.6989 175.498 79.5613 174.908 80.5645 174.654C81.5677 174.399 109.677 151.729 109.677 151.729L107.459 146.742L85.6477 157.94L80.9341 142.95Z" fill="white"/>
<mask id="mask6_434_11806" style="mask-type:luminance" maskUnits="userSpaceOnUse" x="65" y="126" width="45" height="49">
<path d="M80.9341 142.95C80.9341 142.95 78.2509 131.766 77.1421 129.27C76.0333 126.774 69.7501 124.47 66.6973 129.918C63.6445 135.366 66.4189 141.562 67.5325 145.998C68.6461 150.433 75.6637 170.478 76.6813 172.988C77.6989 175.498 79.5613 174.908 80.5645 174.654C81.5677 174.399 109.677 151.729 109.677 151.729L107.459 146.742L85.6477 157.94L80.9341 142.95Z" fill="white"/>
</mask>
<g mask="url(#mask6_434_11806)">
<path d="M80.1467 167.54C80.8588 165.376 81.6807 163.25 82.6091 161.17C83.6363 159.116 77.6795 165.898 76.4459 162.198C75.2123 158.497 67.4075 140.007 68.8427 133.844C69.4653 130.98 71.1407 128.455 73.5371 126.769C71.2475 126.226 68.4443 126.802 66.6971 129.922C63.6491 135.375 66.4187 141.567 67.5323 146.002C68.6459 150.438 75.6635 170.482 76.6811 172.993C77.6987 175.503 79.5611 174.913 80.5643 174.658C81.3035 174.457 96.4043 162.394 104.564 155.852L80.1467 167.54Z" fill="#B14CC2"/>
<path opacity="0.5" d="M80.1467 167.54C80.8588 165.376 81.6807 163.25 82.6091 161.17C83.6363 159.116 77.6795 165.898 76.4459 162.198C75.2123 158.497 67.4075 140.007 68.8427 133.844C69.4653 130.98 71.1407 128.455 73.5371 126.769C71.2475 126.226 68.4443 126.802 66.6971 129.922C63.6491 135.375 66.4187 141.567 67.5323 146.002C68.6459 150.438 75.6635 170.482 76.6811 172.993C77.6987 175.503 79.5611 174.913 80.5643 174.658C81.3035 174.457 96.4043 162.394 104.564 155.852L80.1467 167.54Z" fill="white"/>
</g>
<path d="M80.9341 142.95C80.9341 142.95 78.2509 131.766 77.1421 129.27C76.0333 126.774 69.7501 124.47 66.6973 129.918C63.6445 135.366 66.4189 141.562 67.5325 145.998C68.6461 150.433 75.6637 170.478 76.6813 172.988C77.6989 175.498 79.5613 174.908 80.5645 174.654C81.5677 174.399 109.677 151.729 109.677 151.729L107.459 146.742L85.6477 157.94L80.9341 142.95Z" stroke="#263238" stroke-width="0.75" stroke-linecap="round" stroke-linejoin="round"/>
<path d="M104.224 148.59L106.72 153.673" stroke="#263238" stroke-width="0.75" stroke-linecap="round" stroke-linejoin="round"/>
<path d="M45.5912 123.087L32.8232 131.943C32.8232 131.943 39.116 138.596 38.468 156.049C37.988 169.378 39.7496 184.513 42.308 187.59H55.9016C55.9016 187.59 51.2024 161.67 51.5384 146.818C51.8024 135.534 48.4136 127.7 45.5912 123.087Z" fill="white" stroke="#263238" stroke-width="0.75" stroke-linecap="round" stroke-linejoin="round"/>
<path d="M47.1274 123.087L34.3594 131.943C34.3594 131.943 40.6522 138.596 39.9994 156.049C39.5194 169.378 41.281 184.513 43.8394 187.59H57.4378C57.4378 187.59 52.7434 161.67 53.0794 146.818C53.3338 135.534 49.945 127.7 47.1274 123.087Z" fill="#263238" stroke="#263238" stroke-width="0.75" stroke-linecap="round" stroke-linejoin="round"/>
<path d="M45.5913 123.087H47.1273L34.3593 131.943H32.8281L45.5913 123.087Z" fill="white" stroke="#263238" stroke-width="0.75" stroke-linecap="round" stroke-linejoin="round"/>
</g>
</svg>
