<svg width="16" height="16" viewBox="0 0 16 16" fill="none" xmlns="http://www.w3.org/2000/svg">
<path d="M5.15556 9.70728L9.70423 5.15822C9.85502 5.00742 10.0595 4.92271 10.2728 4.92271C10.4861 4.92271 10.6906 5.00742 10.8414 5.15822C10.9922 5.30902 11.0769 5.51354 11.0769 5.7268C11.0769 5.94006 10.9922 6.14459 10.8414 6.29539L6.29272 10.8444C6.14192 10.9952 5.9374 11.08 5.72414 11.08C5.51088 11.08 5.30635 10.9952 5.15555 10.8444C5.00476 10.6936 4.92004 10.4891 4.92004 10.2759C4.92004 10.0626 5.00476 9.85807 5.15556 9.70728ZM8.56706 10.0403C8.46144 10.0402 8.35684 10.061 8.25924 10.1014C8.16164 10.1417 8.07297 10.201 7.99828 10.2757C7.92359 10.3504 7.86436 10.439 7.82397 10.5366C7.78357 10.6342 7.76282 10.7388 7.76288 10.8444C7.76365 11.0996 7.71379 11.3524 7.6162 11.5882C7.51861 11.824 7.37521 12.038 7.19432 12.218L5.72414 13.6881C5.50009 13.9122 5.2341 14.0899 4.94136 14.2112C4.64861 14.3324 4.33486 14.3949 4.018 14.3949C3.37807 14.3949 2.76435 14.1406 2.31185 13.6882C1.85935 13.2357 1.60514 12.6219 1.60514 11.982C1.60514 11.3421 1.85935 10.7284 2.31185 10.2759L3.782 8.80571C3.96198 8.62482 4.17605 8.48143 4.41182 8.38383C4.64759 8.28624 4.90038 8.23638 5.15555 8.23715C5.36883 8.23715 5.57338 8.15243 5.72419 8.00161C5.87501 7.8508 5.95973 7.64625 5.95973 7.43297C5.95973 7.21969 5.87501 7.01514 5.72419 6.86433C5.57338 6.71351 5.36883 6.62878 5.15555 6.62878C4.68909 6.62752 4.22702 6.71877 3.79606 6.89725C3.3651 7.07573 2.97381 7.33791 2.64483 7.6686L1.17468 9.13869C0.42193 9.89307 -0.000572243 10.9154 5.81712e-07 11.9811C0.000573406 13.0468 0.424175 14.0687 1.17774 14.8223C1.9313 15.5758 2.95319 15.9994 4.01889 16C5.08459 16.0006 6.10693 15.5781 6.86131 14.8253L8.33146 13.3552C8.66221 13.0262 8.92442 12.635 9.1029 12.204C9.28139 11.773 9.3726 11.3109 9.37127 10.8444C9.37133 10.7388 9.35057 10.6342 9.31018 10.5366C9.26978 10.439 9.21055 10.3503 9.13586 10.2757C9.06117 10.201 8.97249 10.1417 8.87489 10.1013C8.77729 10.061 8.67269 10.0402 8.56706 10.0403ZM9.13562 1.17774L7.66549 2.64789C7.33472 2.97672 7.07249 3.36793 6.894 3.79884C6.71551 4.22976 6.62431 4.69181 6.62568 5.15822C6.62568 5.3715 6.71041 5.57605 6.86122 5.72687C7.01203 5.87768 7.21658 5.96241 7.42986 5.96241C7.64315 5.96241 7.84769 5.87768 7.99851 5.72687C8.14932 5.57605 8.23405 5.3715 8.23405 5.15822C8.23329 4.90317 8.28315 4.65051 8.38074 4.41487C8.47834 4.17923 8.62173 3.9653 8.80261 3.78548L10.2728 2.31494C10.7253 1.86244 11.339 1.60823 11.9789 1.60823C12.6188 1.60823 13.2326 1.86244 13.6851 2.31494C14.1375 2.76744 14.3918 3.38116 14.3918 4.02109C14.3918 4.66102 14.1375 5.27473 13.685 5.72723L12.2149 7.19695C12.035 7.37797 11.821 7.52148 11.5852 7.61915C11.3494 7.71682 11.0966 7.76671 10.8414 7.76593C10.6281 7.76593 10.4236 7.85065 10.2728 8.00147C10.1219 8.15228 10.0372 8.35683 10.0372 8.57011C10.0372 8.78339 10.1219 8.98794 10.2728 9.13875C10.4236 9.28957 10.6281 9.37429 10.8414 9.37429C11.3079 9.37556 11.7699 9.28431 12.2009 9.10583C12.6319 8.92734 13.0231 8.66517 13.3521 8.33448L14.8223 6.86436C15.5764 6.11027 16 5.0875 16 4.02105C16 2.9546 15.5764 1.93183 14.8223 1.17774C14.0682 0.423644 13.0454 -7.54068e-07 11.979 0C10.9125 7.5407e-07 9.88971 0.423647 9.13562 1.17774Z" fill="currentColor"/>
</svg>
