<svg width="14" height="16" viewBox="0 0 14 16" fill="none" xmlns="http://www.w3.org/2000/svg">
<path d="M11.7874 12.0225C11.9329 11.7103 12 11.2728 12 10.6667C12 8.50228 11.0029 7.25358 10.2018 6.25C9.7168 5.64225 9.33333 5.16211 9.33333 4.66667L9.33398 4.51139C9.33919 3.59115 9.34993 1.67578 8.33268 0.652669C7.90202 0.219727 7.34147 0 6.66667 0C5.26628 0 4.33333 0.680339 4.33333 4C4.33333 4.91374 3.94889 5.66211 3.54199 6.45443C3.36361 6.80176 3.17904 7.16113 3.02441 7.54102C2.71647 8.29818 2 10.1514 2 11C2 11.054 2.01302 11.1071 2.03809 11.1549L4.39746 15.654C4.44824 15.7507 4.54492 15.8138 4.65332 15.8275C4.66667 15.8291 4.68001 15.8301 4.69336 15.8301C4.78809 15.8301 4.88086 15.7884 4.94466 15.7171C5.09277 15.5521 6.07454 15.3333 6.66667 15.3333H8.92806C9.01497 15.3333 9.09831 15.2995 9.16048 15.2389L11.8991 12.5723C12.0312 12.4437 12.0339 12.2327 11.9056 12.1009C11.8711 12.0654 11.8307 12.0394 11.7874 12.0225Z" fill="#1A1A1A"/>
<path opacity="0.2" d="M3.54199 6.62109C3.94889 5.82878 4.33333 5.0804 4.33333 4.16667C4.33333 0.847005 5.26628 0.166667 6.66667 0.166667C7.34147 0.166667 7.90202 0.386393 8.33268 0.819336C9.22184 1.71358 9.32556 3.28927 9.33411 4.28654C9.33468 3.30843 9.27625 1.60168 8.33268 0.652669C7.90202 0.219727 7.34147 0 6.66667 0C5.26628 0 4.33333 0.680339 4.33333 4C4.33333 4.91374 3.94889 5.66211 3.54199 6.45443C3.36361 6.80176 3.17904 7.16113 3.02441 7.54102C2.71647 8.29818 2 10.1514 2 11C2 11.0152 2.00867 11.0286 2.0107 11.0435C2.06718 10.1528 2.72961 8.43258 3.02441 7.70768C3.17904 7.3278 3.36361 6.96842 3.54199 6.62109Z" fill="white"/>
<path d="M11.9058 12.2675C11.9471 12.3101 11.9698 12.3616 11.984 12.4151C12.0118 12.3063 11.9897 12.1872 11.9058 12.1009C11.8856 12.0801 11.8603 12.0693 11.8367 12.055C11.8204 12.0999 11.8065 12.1486 11.7876 12.1891C11.8309 12.206 11.8713 12.2321 11.9058 12.2675Z" fill="#0099D8"/>
<path opacity="0.2" d="M9.3335 4.83334C9.3335 5.32879 9.71696 5.80893 10.202 6.41668C10.9956 7.41094 11.9786 8.64861 11.9969 10.7762C11.9974 10.7384 12.0002 10.7059 12.0002 10.6667C12.0002 8.50229 11.0031 7.25359 10.202 6.25001C9.71814 5.64373 9.33602 5.1644 9.33415 4.67026V4.67807L9.3335 4.83334Z" fill="white"/>
<path d="M9.3335 4.6666L9.33415 4.67018C9.3348 4.55596 9.33545 4.4273 9.33427 4.28647C9.33423 4.36284 9.33451 4.44467 9.33415 4.51132L9.3335 4.6666Z" fill="#0099D8"/>
<path d="M9.41977 11.2078C9.41179 9.58471 9.19125 7.75891 7.90866 5.13721C7.27393 5.56637 6.10876 5.90583 5.96879 5.90583C5.71643 5.90583 5.16545 5.7257 4.76062 5.36832C4.5942 5.85929 4.36381 6.31388 4.13525 6.75907C3.96338 7.09338 3.78564 7.43941 3.64242 7.79227C3.2395 8.78218 2.77938 10.0854 2.68652 10.7779C2.96851 10.9658 3.16516 11.3725 3.38232 11.8268C3.60726 12.2975 3.86214 12.831 4.19059 13.0598C4.79163 13.4783 5.10323 14.0752 5.1849 14.6175C5.41361 14.6403 5.7019 14.6601 6.02946 14.6601C6.84273 14.6601 7.94531 14.4949 8.76095 14C8.80672 13.1181 8.9616 11.7036 9.41977 11.2078Z" fill="white"/>
<path d="M11.9969 10.7762C11.9887 11.3229 11.9237 11.7305 11.7876 12.0225C11.8056 12.0295 11.8199 12.0449 11.8367 12.0551C11.9458 11.7545 12.0002 11.3608 12.0002 10.8333C12.0002 10.8133 11.997 10.7961 11.9969 10.7762Z" fill="#0099D8"/>
<path opacity="0.1" d="M5.18464 14.6176C5.41335 14.6404 5.70164 14.6602 6.0292 14.6602C6.84247 14.6602 7.94505 14.495 8.76068 14V13.8333C7.94505 14.3283 6.84247 14.4935 6.0292 14.4935C5.70164 14.4935 5.363 14.4707 5.13428 14.4479" fill="black"/>
<path opacity="0.3" d="M9.16243 15.0722C9.10026 15.1328 9.01693 15.1666 8.93001 15.1666H6.66862C6.0765 15.1666 5.09473 15.3854 4.94661 15.5504C4.88281 15.6217 4.79004 15.6634 4.69531 15.6634C4.68197 15.6634 4.66862 15.6624 4.65527 15.6608C4.54687 15.6471 4.4502 15.584 4.39941 15.4873L2.04004 10.9883C2.02201 10.9538 2.01786 10.915 2.01265 10.8768C2.01013 10.9165 2.00195 10.9638 2.00195 11C2.00195 11.054 2.01497 11.1071 2.04004 11.1549L4.39941 15.6539C4.4502 15.7506 4.54687 15.8138 4.65527 15.8274C4.66862 15.8291 4.68197 15.83 4.69531 15.83C4.79004 15.83 4.88281 15.7884 4.94661 15.7171C5.09473 15.5521 6.0765 15.3333 6.66862 15.3333H8.93001C9.01693 15.3333 9.10026 15.2994 9.16243 15.2389L11.901 12.5722C11.9906 12.4851 12.0157 12.361 11.9858 12.2485C11.9711 12.3059 11.9467 12.3612 11.901 12.4056L9.16243 15.0722Z" fill="black"/>
<path d="M12.6177 12.7161C12.4797 12.6257 12.3368 12.5319 12.2359 12.431C12.177 12.3721 12.204 12.0996 12.2183 11.9531C12.246 11.6719 12.2746 11.3815 12.0855 11.1729C12.0142 11.0941 11.8833 11 11.6669 11C11.4885 11 11.3583 11.1413 11.3505 11.3193C11.3503 11.3242 11.3523 11.3285 11.3523 11.3333H10.0002C10.0002 11.1491 9.85112 11 9.66688 11C8.67827 11 8.66688 14.6299 8.66297 14.7093C8.64441 14.9082 8.60079 15.3747 8.8993 15.7021C9.07931 15.8997 9.33745 16 9.66688 16C10.5321 16 10.9517 15.554 11.3573 15.123C11.4257 15.0501 11.4957 14.9759 11.5692 14.9023C11.7382 14.7334 12.0686 14.613 12.3602 14.5065C12.8388 14.3317 13.3335 14.151 13.3335 13.6667C13.3335 13.1859 12.9367 12.9255 12.6177 12.7161Z" fill="#FDB515"/>
<path d="M4.19043 13.0599C3.86198 12.831 3.6071 12.2975 3.38216 11.8268C3.08464 11.2044 2.82747 10.6667 2.33333 10.6667C1.70964 10.6667 1.57324 11.2272 1.50033 11.5283C1.48014 11.6113 1.44954 11.7363 1.44661 11.751C1.39714 11.7816 1.21094 11.8183 1.08789 11.8428C0.68099 11.9235 0 12.0583 0 12.6667C0 12.8437 0.0263672 12.9941 0.0553385 13.1507C0.106771 13.428 0.155273 13.6898 0.0107422 14.25C0.00358072 14.277 0 14.3053 0 14.3333C0 15.1348 1.24479 15.2386 1.98861 15.3004C2.1123 15.3109 2.21517 15.3187 2.28125 15.3291C2.38379 15.3454 2.59863 15.4443 2.80631 15.54C3.25065 15.7451 3.80371 16 4.33333 16C4.71419 16 5.01888 15.7539 5.14844 15.3418C5.34993 14.6995 5.08301 13.6813 4.19043 13.0599Z" fill="#FDB515"/>
<path opacity="0.2" d="M1.0352 12.0094C1.16248 11.985 1.35514 11.9482 1.40633 11.9176C1.40934 11.903 1.441 11.778 1.46187 11.695C1.53731 11.3939 1.67843 10.8333 2.32369 10.8333C2.83492 10.8333 3.10099 11.3711 3.40881 11.9935C3.64152 12.4642 3.90523 12.9977 4.24504 13.2266C4.58354 13.4543 4.83329 13.7359 5.00586 14.0323C4.84139 13.6757 4.57817 13.3299 4.19023 13.0599C3.86178 12.831 3.60689 12.2975 3.38196 11.8268C3.08443 11.2044 2.82727 10.6667 2.33313 10.6667C1.70943 10.6667 1.57304 11.2272 1.50012 11.5283C1.47994 11.6113 1.44934 11.7363 1.44641 11.751C1.39693 11.7816 1.21073 11.8183 1.08769 11.8428C0.734294 11.9129 0.175415 12.0246 0.0341797 12.4512C0.255005 12.16 0.722697 12.0694 1.0352 12.0094Z" fill="white"/>
<path d="M11.6665 10.3333C11.6026 10.3333 11.5463 10.3561 11.4956 10.3871L9.26989 6.74501C9.02685 6.05832 8.71593 5.32989 8.29601 4.51401C8.21203 4.35092 8.01118 4.28614 7.84712 4.37013C7.68371 4.45444 7.61925 4.65561 7.70356 4.81935C9.20845 7.74383 9.33312 9.56935 9.33377 11.3148C9.32986 11.3848 9.3061 12.0091 9.66515 12.389C9.83703 12.5707 10.0678 12.6667 10.3331 12.6667L10.4506 12.6673C10.4881 12.6677 10.5258 12.668 10.5642 12.668C10.9031 12.668 11.2696 12.6423 11.5564 12.3578C11.8631 12.0537 11.9998 11.5322 11.9998 10.6667C11.9998 10.4824 11.8507 10.3333 11.6665 10.3333Z" fill="#1A1A1A"/>
<path opacity="0.3" d="M11.5564 12.191C11.2697 12.4755 10.9031 12.5012 10.5643 12.5012C10.5258 12.5012 10.4881 12.5009 10.4506 12.5006L10.3331 12.4999C10.0678 12.4999 9.83704 12.4039 9.66516 12.2222C9.39632 11.9378 9.34212 11.5165 9.3335 11.2933C9.3335 11.3004 9.33378 11.3076 9.33378 11.3147C9.32988 11.3847 9.30611 12.009 9.66516 12.3889C9.83704 12.5705 10.0678 12.6666 10.3331 12.6666L10.4506 12.6672C10.4881 12.6676 10.5258 12.6679 10.5643 12.6679C10.9031 12.6679 11.2697 12.6422 11.5564 12.3577C11.8631 12.0536 11.9998 11.5321 11.9998 10.6666C11.9998 10.6559 11.9947 10.6468 11.9937 10.6364C11.9786 11.4143 11.8453 11.9047 11.5564 12.191Z" fill="black"/>
<path d="M7.33317 2.02768C6.94678 2.02768 6.6665 2.44239 6.6665 3.01401C6.6665 3.5853 6.94678 4.00001 7.33317 4.00001C7.71956 4.00001 7.99984 3.5853 7.99984 3.01401C7.99984 2.44239 7.71956 2.02768 7.33317 2.02768Z" fill="white"/>
<path d="M7.33343 3.85066C7.50059 3.85066 7.6361 3.58561 7.6361 3.25866C7.6361 2.9317 7.50059 2.66666 7.33343 2.66666C7.16627 2.66666 7.03076 2.9317 7.03076 3.25866C7.03076 3.58561 7.16627 3.85066 7.33343 3.85066Z" fill="black"/>
<path d="M5.33317 2.02768C4.94678 2.02768 4.6665 2.44239 4.6665 3.01401C4.6665 3.5853 4.94678 4.00001 5.33317 4.00001C5.71956 4.00001 5.99984 3.5853 5.99984 3.01401C5.99984 2.44239 5.71956 2.02768 5.33317 2.02768Z" fill="white"/>
<path d="M7.86772 5.16162C7.22567 5.5789 6.10567 5.90584 5.96842 5.90584C5.71606 5.90584 5.16508 5.72571 4.76025 5.36833L9.28129 9.88936C9.17395 8.59867 8.83545 7.13045 7.86772 5.16162Z" fill="url(#paint0_linear_4989_1641)"/>
<path d="M5.33329 3.82799C5.49713 3.82799 5.62995 3.56802 5.62995 3.24732C5.62995 2.92663 5.49713 2.66666 5.33329 2.66666C5.16944 2.66666 5.03662 2.92663 5.03662 3.24732C5.03662 3.56802 5.16944 3.82799 5.33329 3.82799Z" fill="black"/>
<path d="M6.39893 3.33985C6.37744 3.33562 6.35531 3.33334 6.3335 3.33334C5.6167 3.33334 4.3335 4.00554 4.3335 4.66668C4.3335 5.29135 5.59424 6.00001 6.00016 6.00001C6.1971 6.00001 8.3335 5.25815 8.3335 4.66668C8.3335 3.79461 6.8527 3.43067 6.39893 3.33985Z" fill="#FDB515"/>
<path d="M6.39893 3.33985C6.37744 3.33562 6.35531 3.33334 6.3335 3.33334C5.6167 3.33334 4.3335 4.00554 4.3335 4.66668C4.3335 5.29135 5.59424 6.00001 6.00016 6.00001C6.1971 6.00001 8.3335 5.25815 8.3335 4.66668C8.3335 3.79461 6.8527 3.43067 6.39893 3.33985Z" fill="#FDB515"/>
<path opacity="0.1" d="M12.3602 14.3398C12.0685 14.4462 11.7381 14.5667 11.5692 14.7356C11.4956 14.8092 11.4256 14.8834 11.3572 14.9563C10.9516 15.3873 10.5321 15.8333 9.66682 15.8333C9.33739 15.8333 9.07925 15.733 8.89924 15.5354C8.70381 15.321 8.65986 15.0523 8.65469 14.8329C8.64029 15.0631 8.64855 15.4271 8.89924 15.7021C9.07925 15.8997 9.33739 15.9999 9.66682 15.9999C10.5321 15.9999 10.9516 15.554 11.3572 15.123C11.4256 15.0501 11.4956 14.9758 11.5692 14.9023C11.7381 14.7333 12.0685 14.6129 12.3602 14.5064C12.8387 14.3316 13.3335 14.151 13.3335 13.6666C13.3335 13.6424 13.322 13.625 13.32 13.6019C13.2534 14.0085 12.8024 14.1782 12.3602 14.3398Z" fill="black"/>
<path opacity="0.1" d="M5.14844 15.1752C5.01888 15.5873 4.71419 15.8334 4.33333 15.8334C3.80371 15.8334 3.25065 15.5785 2.80632 15.3735C2.59863 15.2778 2.38379 15.1788 2.28125 15.1625C2.21517 15.1521 2.1123 15.1443 1.98861 15.1339C1.26827 15.074 0.0882975 14.9688 0.0138753 14.2347C0.0124105 14.2405 0.0122477 14.2443 0.0107422 14.2501C0.00358072 14.2771 0 14.3054 0 14.3334C0 15.1349 1.24479 15.2387 1.98861 15.3005C2.1123 15.311 2.21517 15.3188 2.28125 15.3292C2.38379 15.3455 2.59863 15.4444 2.80632 15.5401C3.25065 15.7452 3.80371 16.0001 4.33333 16.0001C4.71419 16.0001 5.01888 15.754 5.14844 15.3419C5.20113 15.1739 5.21977 14.9796 5.20557 14.7741C5.20195 14.9168 5.18644 15.054 5.14844 15.1752Z" fill="black"/>
<path opacity="0.1" d="M5.99288 5.83334C5.61922 5.83334 4.54537 5.24586 4.33439 4.66269C4.33439 4.66403 4.3335 4.66533 4.3335 4.66668C4.3335 5.29135 5.59424 6.00001 6.00016 6.00001C6.1971 6.00001 8.3335 5.25815 8.3335 4.66668C8.3335 4.65378 8.3265 4.6434 8.32585 4.63071C8.00948 5.2009 6.17672 5.83334 5.99288 5.83334Z" fill="black"/>
<path d="M12.6177 12.7161C12.4797 12.6256 12.3368 12.5319 12.2358 12.431C12.1769 12.372 12.2039 12.0996 12.2183 11.9531C12.2459 11.6718 12.2746 11.3815 12.0854 11.1728C12.0613 11.1461 12.0227 11.121 11.981 11.0975C11.939 11.7044 11.8071 12.1095 11.5568 12.3577C11.27 12.6422 10.9035 12.6679 10.5646 12.6679C10.5262 12.6679 10.4884 12.6676 10.451 12.6673L10.3335 12.6666C10.0682 12.6666 9.8374 12.5706 9.66553 12.389L11.946 14.6695C12.0791 14.6099 12.2235 14.5564 12.3602 14.5065C12.8387 14.3317 13.3335 14.151 13.3335 13.6666C13.3335 13.1858 12.9367 12.9254 12.6177 12.7161Z" fill="url(#paint1_linear_4989_1641)"/>
<path d="M12.6175 12.7161C12.4795 12.6257 12.3366 12.5319 12.2357 12.431C12.1768 12.3721 12.2038 12.0996 12.2181 11.9531C12.2458 11.6719 12.2744 11.3815 12.0853 11.1729C12.0625 11.1477 12.0221 11.1235 11.9864 11.0988C11.9953 10.965 12 10.8217 12 10.6667C12 8.50228 11.0029 7.25358 10.2018 6.25C9.7168 5.64225 9.33333 5.16211 9.33333 4.66667L9.33398 4.51139C9.33919 3.59115 9.34993 1.67578 8.33268 0.652669C7.90202 0.219727 7.34147 0 6.66667 0C5.26628 0 4.33333 0.680339 4.33333 4C4.33333 4.91374 3.94889 5.66211 3.54199 6.45443C3.36361 6.80176 3.17904 7.16113 3.02441 7.54102C2.74524 8.22746 2.13586 9.80717 2.02344 10.7301C1.66313 10.8817 1.55892 11.2864 1.50033 11.5283C1.48014 11.6113 1.44954 11.7363 1.44661 11.751C1.39714 11.7816 1.21094 11.8184 1.08789 11.8428C0.68099 11.9235 0 12.0583 0 12.6667C0 12.8438 0.0263672 12.9941 0.0553385 13.1507C0.106771 13.4281 0.155273 13.6898 0.0107422 14.25C0.00358072 14.277 0 14.3053 0 14.3333C0 15.1348 1.24479 15.2386 1.98861 15.3005C2.1123 15.3109 2.21517 15.3187 2.28125 15.3291C2.38379 15.3454 2.59863 15.4443 2.80631 15.54C3.25065 15.7451 3.80371 16 4.33333 16C4.56128 16 4.75582 15.903 4.90796 15.7439C4.9196 15.734 4.93441 15.7286 4.94466 15.7171C5.09277 15.5521 6.07454 15.3333 6.66667 15.3333H8.70711C8.74386 15.4618 8.79679 15.5899 8.89909 15.7021C9.0791 15.8997 9.33724 16 9.66667 16C10.5319 16 10.9515 15.554 11.3571 15.123C11.4255 15.0501 11.4954 14.9759 11.569 14.9023C11.738 14.7334 12.0684 14.613 12.36 14.5065C12.8385 14.3317 13.3333 14.151 13.3333 13.6667C13.3333 13.1859 12.9365 12.9255 12.6175 12.7161Z" fill="url(#paint2_linear_4989_1641)"/>
<defs>
<linearGradient id="paint0_linear_4989_1641" x1="5.58846" y1="4.53996" x2="10.1098" y2="9.06063" gradientUnits="userSpaceOnUse">
<stop stop-opacity="0.1"/>
<stop offset="1" stop-opacity="0"/>
</linearGradient>
<linearGradient id="paint1_linear_4989_1641" x1="10.5748" y1="11.48" x2="13.1728" y2="14.078" gradientUnits="userSpaceOnUse">
<stop stop-opacity="0.1"/>
<stop offset="1" stop-opacity="0"/>
</linearGradient>
<linearGradient id="paint2_linear_4989_1641" x1="2.16333" y1="6.70667" x2="14.0573" y2="12.2527" gradientUnits="userSpaceOnUse">
<stop stop-color="white" stop-opacity="0.2"/>
<stop offset="1" stop-color="white" stop-opacity="0"/>
</linearGradient>
</defs>
</svg>
