<svg width="16" height="16" viewBox="0 0 14 14" fill="none" xmlns="http://www.w3.org/2000/svg">
<path d="M12.8605 13.3488H1.13953C0.837424 13.3485 0.547792 13.2283 0.334167 13.0147C0.120543 12.801 0.000367042 12.5114 0 12.2093V1.79069C0.000367042 1.48858 0.120543 1.19895 0.334167 0.985321C0.547792 0.771696 0.837424 0.651521 1.13953 0.651154H12.8605C13.1626 0.651521 13.4522 0.771696 13.6658 0.985321C13.8795 1.19895 13.9996 1.48858 14 1.79069V12.2093C13.9996 12.5114 13.8795 12.801 13.6658 13.0147C13.4522 13.2283 13.1626 13.3485 12.8605 13.3488ZM1.13953 1.6279C1.09639 1.62798 1.05503 1.64516 1.02452 1.67567C0.994005 1.70618 0.976827 1.74754 0.976744 1.79069V12.2093C0.976827 12.2524 0.994005 12.2938 1.02452 12.3243C1.05503 12.3548 1.09639 12.372 1.13953 12.3721H12.8605C12.9036 12.372 12.945 12.3548 12.9755 12.3243C13.006 12.2938 13.0232 12.2524 13.0233 12.2093V1.79069C13.0232 1.74754 13.006 1.70618 12.9755 1.67567C12.945 1.64516 12.9036 1.62798 12.8605 1.6279H1.13953Z" fill="currentColor"/>
<path d="M10.9065 10.0931H5.04599C4.91646 10.0931 4.79225 10.0416 4.70066 9.95005C4.60907 9.85846 4.55762 9.73424 4.55762 9.60472C4.55762 9.4752 4.60907 9.35098 4.70066 9.25939C4.79225 9.1678 4.91646 9.11635 5.04599 9.11635H10.9065C11.036 9.11635 11.1602 9.1678 11.2518 9.25939C11.3434 9.35098 11.3948 9.4752 11.3948 9.60472C11.3948 9.73424 11.3434 9.85846 11.2518 9.95005C11.1602 10.0416 11.036 10.0931 10.9065 10.0931Z" fill="currentColor"/>
<path d="M3.09257 10.2558C3.4522 10.2558 3.74373 9.96427 3.74373 9.60464C3.74373 9.24501 3.4522 8.95348 3.09257 8.95348C2.73294 8.95348 2.44141 9.24501 2.44141 9.60464C2.44141 9.96427 2.73294 10.2558 3.09257 10.2558Z" fill="currentColor"/>
<path d="M10.9065 7.48836H5.04599C4.91646 7.48836 4.79225 7.4369 4.70066 7.34532C4.60907 7.25373 4.55762 7.12951 4.55762 6.99998C4.55762 6.87046 4.60907 6.74624 4.70066 6.65465C4.79225 6.56307 4.91646 6.51161 5.04599 6.51161H10.9065C11.036 6.51161 11.1602 6.56307 11.2518 6.65465C11.3434 6.74624 11.3948 6.87046 11.3948 6.99998C11.3948 7.12951 11.3434 7.25373 11.2518 7.34532C11.1602 7.4369 11.036 7.48836 10.9065 7.48836Z" fill="currentColor"/>
<path d="M3.09257 7.65108C3.4522 7.65108 3.74373 7.35954 3.74373 6.99992C3.74373 6.64029 3.4522 6.34875 3.09257 6.34875C2.73294 6.34875 2.44141 6.64029 2.44141 6.99992C2.44141 7.35954 2.73294 7.65108 3.09257 7.65108Z" fill="currentColor"/>
<path d="M10.9065 4.88364H5.04599C4.91646 4.88364 4.79225 4.83218 4.70066 4.74059C4.60907 4.64901 4.55762 4.52479 4.55762 4.39526C4.55762 4.26574 4.60907 4.14152 4.70066 4.04993C4.79225 3.95834 4.91646 3.90689 5.04599 3.90689H10.9065C11.036 3.90689 11.1602 3.95834 11.2518 4.04993C11.3434 4.14152 11.3948 4.26574 11.3948 4.39526C11.3948 4.52479 11.3434 4.64901 11.2518 4.74059C11.1602 4.83218 11.036 4.88364 10.9065 4.88364Z" fill="currentColor"/>
<path d="M3.09257 5.04659C3.4522 5.04659 3.74373 4.75505 3.74373 4.39543C3.74373 4.0358 3.4522 3.74426 3.09257 3.74426C2.73294 3.74426 2.44141 4.0358 2.44141 4.39543C2.44141 4.75505 2.73294 5.04659 3.09257 5.04659Z" fill="currentColor"/>
</svg>
