<svg width="16" height="17" viewBox="0 0 16 17" fill="none" xmlns="http://www.w3.org/2000/svg">
<path fill-rule="evenodd" clip-rule="evenodd" d="M1.875 0.385742H14.125C15.1589 0.385742 16 1.22687 16 2.26074V9.76074C16 10.7946 15.1589 11.6357 14.125 11.6357H9.875V10.3857H14.125C14.4696 10.3857 14.75 10.1054 14.75 9.76074V2.26074C14.75 1.91612 14.4696 1.63574 14.125 1.63574H1.875C1.53038 1.63574 1.25 1.91612 1.25 2.26074V9.76074C1.25 10.1054 1.53038 10.3857 1.875 10.3857H6.125V11.6357H1.875C0.841125 11.6357 0 10.7946 0 9.76074V2.26074C0 1.22687 0.841125 0.385742 1.875 0.385742ZM6.125 3.03187V8.98959L11.0898 6.01074L6.125 3.03187ZM7.375 5.23962L8.66022 6.01074L7.375 6.78187V5.23962ZM8.625 14.0285V10.3857H7.375V14.0285L5.93632 12.6257L5.06369 13.5207L8 16.3857L10.9363 13.5207L10.0637 12.6257L8.625 14.0285Z" fill="currentColor"/>
</svg>
