<svg width="19" height="16" viewBox="0 0 19 16" fill="none" xmlns="http://www.w3.org/2000/svg">
<path fill-rule="evenodd" clip-rule="evenodd" d="M0 2.37838C0 1.06484 1.06484 0 2.37838 0H16.2162C17.5298 0 18.5946 1.06484 18.5946 2.37838V11.027C18.5946 12.3406 17.5298 13.4054 16.2162 13.4054H11.2117L11.8603 14.7027H13.6216C13.9798 14.7027 14.2703 14.9931 14.2703 15.3514C14.2703 15.7096 13.9798 16 13.6216 16H4.97297C4.61474 16 4.32432 15.7096 4.32432 15.3514C4.32432 14.9931 4.61474 14.7027 4.97297 14.7027H6.73424L7.38289 13.4054H2.37838C1.06484 13.4054 0 12.3406 0 11.027V2.37838ZM16.2162 12.1081H2.37838C1.78131 12.1081 1.2973 11.6241 1.2973 11.027V2.37838C1.2973 1.78131 1.78131 1.2973 2.37838 1.2973H16.2162C16.8133 1.2973 17.2973 1.78131 17.2973 2.37838V11.027C17.2973 11.6241 16.8133 12.1081 16.2162 12.1081Z" fill="#71347B"/>
</svg>
