<svg width="14" height="14" viewBox="0 0 14 12" fill="none" xmlns="http://www.w3.org/2000/svg">
<path d="M6.57275 2.32623C6.73803 2.20338 6.94657 2.15389 7.14943 2.18938L10.2798 2.73706C10.6723 2.80573 10.9425 3.16935 10.8952 3.565L10.5174 6.72034C10.4929 6.92482 10.3854 7.11024 10.2201 7.2331L6.33913 10.1179C6.00669 10.365 5.53688 10.2959 5.28978 9.96342L2.53725 6.2604C2.29015 5.92797 2.35932 5.45816 2.69176 5.21106L6.57275 2.32623Z" stroke="currentColor" stroke-width="0.5"/>
<mask id="path-2-inside-1_7884_18237" fill="white">
<path d="M9.39827 4.52531C9.39827 4.90981 9.08657 5.22152 8.70207 5.22152C8.31756 5.22152 8.00586 4.90981 8.00586 4.52531C8.00586 4.1408 8.31756 3.8291 8.70207 3.8291C9.08657 3.8291 9.39827 4.1408 9.39827 4.52531ZM8.3818 4.52531C8.3818 4.70219 8.52519 4.84558 8.70207 4.84558C8.87895 4.84558 9.02234 4.70219 9.02234 4.52531C9.02234 4.34843 8.87895 4.20504 8.70207 4.20504C8.52519 4.20504 8.3818 4.34843 8.3818 4.52531Z"/>
</mask>
<path d="M9.39827 4.52531C9.39827 4.90981 9.08657 5.22152 8.70207 5.22152C8.31756 5.22152 8.00586 4.90981 8.00586 4.52531C8.00586 4.1408 8.31756 3.8291 8.70207 3.8291C9.08657 3.8291 9.39827 4.1408 9.39827 4.52531ZM8.3818 4.52531C8.3818 4.70219 8.52519 4.84558 8.70207 4.84558C8.87895 4.84558 9.02234 4.70219 9.02234 4.52531C9.02234 4.34843 8.87895 4.20504 8.70207 4.20504C8.52519 4.20504 8.3818 4.34843 8.3818 4.52531Z" fill="currentColor" stroke="currentColor" mask="url(#path-2-inside-1_7884_18237)"/>
<path d="M6.20854 1.52297C6.31902 1.44016 6.34145 1.28346 6.25863 1.17299C6.17582 1.06251 6.01912 1.04008 5.90864 1.1229L6.20854 1.52297ZM5.90864 1.1229L0.0594091 5.50755L0.359309 5.90762L6.20854 1.52297L5.90864 1.1229Z" fill="currentColor"/>
<path d="M4.25511 10.941C4.33793 11.0515 4.49462 11.0739 4.6051 10.9911C4.71558 10.9083 4.738 10.7516 4.65519 10.6411L4.25511 10.941ZM0.0792595 5.37029L4.25511 10.941L4.65519 10.6411L0.479334 5.07039L0.0792595 5.37029Z" fill="currentColor"/>
</svg>
