<svg width="14" height="18" viewBox="0 0 14 18" fill="none" xmlns="http://www.w3.org/2000/svg">
<path d="M6.90345 4.81948C7.79923 4.81948 8.58506 4.4701 9.26091 3.77134C9.93677 3.07257 10.2747 2.26003 10.2747 1.33372C10.2747 1.23198 10.2667 1.08741 10.2506 0.9C10.1326 0.916063 10.0441 0.92945 9.98506 0.940159C9.15901 1.05796 8.43218 1.46222 7.80459 2.15294C7.17701 2.84368 6.86323 3.5826 6.86323 4.36972C6.86323 4.46073 6.87663 4.61067 6.90345 4.81948ZM10.1138 17.1C10.7521 17.1 11.4575 16.6636 12.2299 15.7908C13.0023 14.918 13.5923 13.8927 14 12.7147C12.482 11.9329 11.723 10.8112 11.723 9.34937C11.723 8.12856 12.3372 7.08444 13.5655 6.21701C12.7126 5.15146 11.5862 4.61868 10.1862 4.61868C9.59616 4.61868 9.0571 4.70703 8.56897 4.88373L8.26323 4.99618L7.85287 5.15681C7.58467 5.25855 7.34061 5.30943 7.12069 5.30943C6.94904 5.30943 6.72374 5.25052 6.44483 5.13272L6.13103 5.00421L5.83334 4.88373C5.39884 4.70168 4.93218 4.61065 4.43334 4.61065C3.0977 4.61065 2.02491 5.06043 1.21494 5.95999C0.404976 6.85954 0 8.04556 0 9.51804C0 11.5902 0.649037 13.5045 1.94713 15.2607C2.84828 16.4869 3.67165 17.1 4.41724 17.1C4.73372 17.1 5.04751 17.0384 5.35862 16.9153L5.75287 16.7546L6.06668 16.6422C6.50652 16.4869 6.91149 16.4093 7.2816 16.4093C7.67318 16.4093 8.12376 16.5083 8.63334 16.7064L8.88276 16.8028C9.40305 17.0009 9.81342 17.1 10.1138 17.1Z" fill="white"/>
</svg>
