<svg width="15" height="14" viewBox="0 0 15 14" fill="none" xmlns="http://www.w3.org/2000/svg">
<g clip-path="url(#clip0_8274_14443)">
<path d="M5.25708 12.5L6.46198 10H8.96198L9.96196 12.5H5.25708Z" fill="currentColor"/>
<path d="M8.42463 9.76172L9.52932 12.5891H5.80783L6.91252 9.76172H8.42463Z" fill="#F4EDF9"/>
<path d="M4.95744 13.6336C4.57463 13.6336 4.26291 13.3219 4.26291 12.939C4.26291 12.5562 4.57463 12.2445 4.95744 12.2445H10.3797C10.7625 12.2445 11.0742 12.5562 11.0742 12.939C11.0742 13.3219 10.7625 13.6336 10.3797 13.6336H4.95744Z" fill="currentColor"/>
<path d="M4.95744 12.3566H10.3797C10.7024 12.3566 10.9649 12.6191 10.9649 12.9418C10.9649 13.2644 10.7024 13.5269 10.3797 13.5269H4.95744C4.63478 13.5269 4.37228 13.2644 4.37228 12.9418C4.37502 12.6164 4.63478 12.3566 4.95744 12.3566Z" fill="currentColor"/>
<path d="M2.58946 1.70349H12.7477C13.2371 1.70349 13.6336 2.09998 13.6336 2.58943V9.87654C13.6336 10.366 13.2371 10.7625 12.7477 10.7625H2.58946C2.10001 10.7625 1.70352 10.366 1.70352 9.87654V2.58943C1.70352 2.09998 2.10001 1.70349 2.58946 1.70349Z" fill="currentColor"/>
<path d="M2.58947 1.81561H12.7504C13.177 1.81561 13.5242 2.16288 13.5242 2.58944V9.87655C13.5242 10.3031 13.177 10.6504 12.7504 10.6504H2.58947C2.16291 10.6504 1.81564 10.3031 1.81564 9.87655V2.58944C1.81564 2.16014 2.16017 1.81561 2.58947 1.81561Z" fill="currentColor"/>
<path d="M2.61954 2.61951H12.7203V9.84646H2.61954V2.61951Z" fill="currentColor"/>
<path d="M2.72891 2.72888H12.6082V9.73435H2.72891V2.72888Z" fill="#F4EDF9"/>
<path d="M13.4309 14C13.2696 14 13.1138 13.9371 12.9989 13.8222L0.21571 1.03904C-0.0221802 0.801149 -0.0221802 0.415602 0.21571 0.180446C0.453601 -0.0601792 0.839148 -0.0601792 1.07704 0.177711L13.8602 12.9609C14.0981 13.1988 14.0981 13.5844 13.8602 13.8222C13.7454 13.9371 13.5923 14 13.4309 14Z" fill="currentColor"/>
</g>
<defs>
<clipPath id="clip0_8274_14443">
<rect width="14" height="14" fill="white" transform="translate(0.0380859)"/>
</clipPath>
</defs>
</svg>
