<svg width="15" height="14" viewBox="0 0 15 14" fill="none" xmlns="http://www.w3.org/2000/svg">
<path d="M5.2951 12.5L6.5 10H9L9.99999 12.5H5.2951Z" fill="currentColor"/>
<path d="M8.46268 9.76172L9.56737 12.5891H5.84589L6.95057 9.76172H8.46268Z" fill="#F4EDF9"/>
<path d="M4.9955 13.6336C4.61268 13.6336 4.30096 13.3219 4.30096 12.939C4.30096 12.5562 4.61268 12.2445 4.9955 12.2445H10.4178C10.8006 12.2445 11.1123 12.5562 11.1123 12.939C11.1123 13.3219 10.8006 13.6336 10.4178 13.6336H4.9955Z" fill="currentColor"/>
<path d="M4.9955 12.3566H10.4178C10.7404 12.3566 11.0029 12.6191 11.0029 12.9418C11.0029 13.2644 10.7404 13.5269 10.4178 13.5269H4.9955C4.67284 13.5269 4.41034 13.2644 4.41034 12.9418C4.41307 12.6164 4.67284 12.3566 4.9955 12.3566Z" fill="currentColor"/>
<path d="M2.62751 1.70349H12.7857C13.2752 1.70349 13.6717 2.09998 13.6717 2.58943V9.87654C13.6717 10.366 13.2752 10.7625 12.7857 10.7625H2.62751C2.13806 10.7625 1.74158 10.366 1.74158 9.87654V2.58943C1.74158 2.09998 2.13806 1.70349 2.62751 1.70349Z" fill="currentColor"/>
<path d="M2.62753 1.81561H12.7885C13.215 1.81561 13.5623 2.16288 13.5623 2.58944V9.87655C13.5623 10.3031 13.215 10.6504 12.7885 10.6504H2.62753C2.20096 10.6504 1.8537 10.3031 1.8537 9.87655V2.58944C1.8537 2.16014 2.19823 1.81561 2.62753 1.81561Z" fill="currentColor"/>
<path d="M2.65759 2.61951H12.7584V9.84646H2.65759V2.61951Z" fill="currentColor"/>
<path d="M2.76697 2.72888H12.6463V9.73435H2.76697V2.72888Z" fill="#F4EDF9"/>
</svg>
