<svg width="14" height="15" viewBox="0 0 14 15" fill="none" xmlns="http://www.w3.org/2000/svg">
<path d="M4.68101 0.17616H1.84874C1.35861 0.176782 0.888742 0.37176 0.542171 0.718331C0.1956 1.0649 0.000622608 1.53477 0 2.0249V4.85751C0.000622608 5.34763 0.1956 5.8175 0.542171 6.16407C0.888742 6.51064 1.35861 6.70562 1.84874 6.70624H4.68101C5.17113 6.70562 5.64101 6.51064 5.98758 6.16407C6.33415 5.8175 6.52913 5.34763 6.52975 4.85751V2.0249C6.52913 1.53477 6.33415 1.0649 5.98758 0.718331C5.64101 0.37176 5.17113 0.176782 4.68101 0.17616ZM5.52135 4.85683C5.52135 5.0797 5.43281 5.29345 5.27522 5.45104C5.11762 5.60863 4.90388 5.69717 4.68101 5.69717H1.84874C1.62587 5.69717 1.41213 5.60863 1.25453 5.45104C1.09694 5.29345 1.0084 5.0797 1.0084 4.85683V2.0249C1.0084 1.80203 1.09694 1.58829 1.25453 1.43069C1.41213 1.2731 1.62587 1.18456 1.84874 1.18456H4.68101C4.90388 1.18456 5.11762 1.2731 5.27522 1.43069C5.43281 1.58829 5.52135 1.80203 5.52135 2.0249V4.85683ZM4.68101 7.6054H1.84874C1.35861 7.60603 0.888742 7.801 0.542171 8.14758C0.1956 8.49415 0.000622608 8.96402 0 9.45414V12.2861C0.000622608 12.7762 0.1956 13.2461 0.542171 13.5926C0.888742 13.9392 1.35861 14.1342 1.84874 14.1348H4.68101C5.17113 14.1342 5.64101 13.9392 5.98758 13.5926C6.33415 13.2461 6.52913 12.7762 6.52975 12.2861V9.45414C6.52913 8.96402 6.33415 8.49415 5.98758 8.14758C5.64101 7.801 5.17113 7.60603 4.68101 7.6054ZM5.52135 12.2861C5.52135 12.3964 5.49961 12.5057 5.45738 12.6077C5.41515 12.7096 5.35325 12.8023 5.27522 12.8803C5.19718 12.9583 5.10455 13.0202 5.00259 13.0624C4.90064 13.1047 4.79136 13.1264 4.68101 13.1264H1.84874C1.73839 13.1264 1.62911 13.1047 1.52716 13.0624C1.4252 13.0202 1.33256 12.9583 1.25453 12.8803C1.1765 12.8023 1.1146 12.7096 1.07237 12.6077C1.03014 12.5057 1.0084 12.3964 1.0084 12.2861V9.45414C1.0084 9.23127 1.09694 9.01753 1.25453 8.85994C1.41213 8.70234 1.62587 8.61381 1.84874 8.61381H4.68101C4.90388 8.61381 5.11762 8.70234 5.27522 8.85994C5.43281 9.01753 5.52135 9.23127 5.52135 9.45414V12.2861ZM12.1096 7.6054H9.27798C8.78786 7.60603 8.31799 7.801 7.97142 8.14758C7.62485 8.49415 7.42987 8.96402 7.42924 9.45414V12.2861C7.42987 12.7762 7.62485 13.2461 7.97142 13.5926C8.31799 13.9392 8.78786 14.1342 9.27798 14.1348H12.1099C12.6 14.1342 13.0699 13.9392 13.4165 13.5926C13.7631 13.2461 13.958 12.7762 13.9587 12.2861V9.45414C13.958 8.96402 13.7631 8.49415 13.4165 8.14758C13.0699 7.801 12.5997 7.60603 12.1096 7.6054ZM12.9499 12.2861C12.9499 12.3964 12.9282 12.5057 12.886 12.6077C12.8437 12.7096 12.7818 12.8023 12.7038 12.8803C12.6258 12.9583 12.5331 13.0202 12.4312 13.0624C12.3292 13.1047 12.2199 13.1264 12.1096 13.1264H9.27798C9.16763 13.1264 9.05836 13.1047 8.9564 13.0624C8.85445 13.0202 8.76181 12.9583 8.68378 12.8803C8.60574 12.8023 8.54385 12.7096 8.50162 12.6077C8.45938 12.5057 8.43765 12.3964 8.43765 12.2861V9.45414C8.43765 9.23127 8.52618 9.01753 8.68378 8.85994C8.84137 8.70234 9.05511 8.61381 9.27798 8.61381H12.1099C12.3328 8.61381 12.5465 8.70234 12.7041 8.85994C12.8617 9.01753 12.9503 9.23127 12.9503 9.45414L12.9499 12.2861ZM10.0333 4.64843C10.2352 4.75904 10.4618 4.81685 10.6921 4.8165C10.8236 4.81641 10.9545 4.79762 11.0807 4.7607C11.3415 4.68363 11.5737 4.5311 11.7481 4.32232C11.9224 4.11354 12.031 3.85785 12.0603 3.58744C12.0896 3.31703 12.0382 3.044 11.9127 2.80273C11.7871 2.56147 11.5929 2.36276 11.3546 2.23162C11.1156 2.10126 10.8434 2.0446 10.5722 2.06879C10.3011 2.09299 10.0431 2.19695 9.83099 2.36756C9.61885 2.53817 9.46199 2.7678 9.3802 3.02746C9.29841 3.28712 9.29536 3.56519 9.37143 3.82658C9.42167 4.00064 9.50608 4.16296 9.61971 4.30406C9.73334 4.44516 9.87393 4.56223 10.0333 4.64843ZM10.3694 3.26423C10.4043 3.19977 10.4575 3.14712 10.5223 3.11295C10.5871 3.07878 10.6606 3.06465 10.7335 3.07233C10.8063 3.08001 10.8753 3.10917 10.9315 3.15611C10.9878 3.20304 11.0289 3.26563 11.0495 3.33594C11.0701 3.40625 11.0694 3.4811 11.0474 3.55099C11.0254 3.62088 10.9832 3.68267 10.926 3.72851C10.8688 3.77434 10.7993 3.80216 10.7263 3.80843C10.6533 3.8147 10.5801 3.79914 10.516 3.76372C10.4306 3.7166 10.3673 3.63768 10.3399 3.54414C10.3125 3.45059 10.3231 3.34999 10.3694 3.26423ZM7.8484 3.6649C7.66681 3.87999 7.53258 4.13093 7.45445 4.40137C7.4348 4.46861 7.42937 4.5392 7.43852 4.60865C7.44766 4.67809 7.47118 4.74488 7.50756 4.80473L8.01714 5.64171C8.05372 5.70158 8.10233 5.7532 8.15991 5.7933C8.21748 5.8334 8.28276 5.8611 8.3516 5.87465C8.62766 5.92932 8.91214 5.92531 9.18656 5.86288L9.46454 6.01482C9.55983 6.27991 9.71013 6.52184 9.90555 6.72473C9.95263 6.77404 10.0092 6.81328 10.0719 6.84009C10.1346 6.86689 10.2021 6.88071 10.2703 6.8807H10.283L11.2625 6.85784C11.3328 6.8564 11.402 6.84029 11.4657 6.81054C11.5293 6.78078 11.5861 6.73805 11.6323 6.68507C11.8184 6.47337 11.9576 6.22467 12.0407 5.95532L12.3096 5.79095C12.587 5.8413 12.872 5.8319 13.1455 5.76339C13.2136 5.74685 13.2774 5.71626 13.3329 5.6736C13.3884 5.63094 13.4344 5.57714 13.4679 5.51566L13.9385 4.65616C13.9721 4.59445 13.9925 4.52639 13.9983 4.45635C14.0041 4.38631 13.9952 4.31583 13.9721 4.24944C13.8813 3.98328 13.7356 3.73914 13.5445 3.5328L13.5375 3.21582C13.719 3.0008 13.8532 2.74999 13.9314 2.47969C13.951 2.41243 13.9564 2.34183 13.9472 2.27238C13.938 2.20293 13.9144 2.13616 13.878 2.07633L13.3687 1.23902C13.3321 1.1788 13.2833 1.12693 13.2254 1.08675C13.1675 1.04657 13.1018 1.01897 13.0326 1.00574C12.7567 0.951465 12.4726 0.955472 12.1983 1.0175L11.92 0.865236C11.8249 0.600338 11.6747 0.358612 11.4793 0.155992C11.4303 0.105986 11.3717 0.0663956 11.307 0.0395949C11.2423 0.0127941 11.1729 -0.000664814 11.1029 2.52534e-05L10.123 0.0225464C10.053 0.024258 9.98413 0.0405346 9.92076 0.0703391C9.85739 0.100144 9.80093 0.142822 9.75496 0.195656C9.56895 0.407298 9.42977 0.655868 9.34656 0.925068L9.07765 1.08944C8.80064 1.03965 8.51625 1.04881 8.24303 1.11633C8.1748 1.13293 8.1108 1.16361 8.05511 1.20638C7.99943 1.24916 7.9533 1.30309 7.91966 1.36473L7.44908 2.22423C7.41537 2.28585 7.39496 2.35386 7.38916 2.42386C7.38338 2.49386 7.39233 2.56429 7.41546 2.63061C7.50607 2.897 7.65162 3.14138 7.84269 3.34792L7.8484 3.6649ZM8.68471 2.06759C8.7334 2.0645 8.78224 2.0645 8.83093 2.06759C8.91103 2.12395 9.00588 2.15563 9.10377 2.15874C9.20167 2.16184 9.29833 2.13623 9.38185 2.08507L10.0928 1.65246C10.1764 1.60164 10.2435 1.52757 10.2857 1.43929C10.328 1.35101 10.3436 1.25234 10.3308 1.15532C10.3496 1.1102 10.3721 1.06669 10.398 1.02524L10.8787 1.01414C10.9064 1.05432 10.9308 1.0967 10.9516 1.14087C10.9432 1.23837 10.9633 1.33622 11.0096 1.42247C11.0559 1.50872 11.1262 1.57964 11.2121 1.62658L11.9425 2.02591C12.0284 2.07291 12.1261 2.0939 12.2237 2.08632C12.3213 2.07874 12.4145 2.04291 12.4921 1.98322C12.5404 1.97678 12.5893 1.97453 12.638 1.9765L12.8877 2.38725C12.8667 2.43137 12.8422 2.47374 12.8145 2.51398C12.7259 2.55541 12.6513 2.6217 12.5997 2.70477C12.5482 2.78785 12.5219 2.88412 12.524 2.98187L12.5432 3.81414C12.5455 3.912 12.5762 4.00707 12.6316 4.08777C12.687 4.16847 12.7646 4.2313 12.8551 4.2686C12.8846 4.30753 12.911 4.34866 12.9341 4.39162L12.7032 4.81381C12.6547 4.81807 12.6058 4.81807 12.5573 4.81381C12.4771 4.75779 12.3822 4.72633 12.2844 4.72329C12.1866 4.72025 12.09 4.74574 12.0064 4.79666L11.2955 5.22927C11.2116 5.27992 11.1443 5.35391 11.1018 5.4422C11.0593 5.53049 11.0434 5.62925 11.0561 5.72641C11.0372 5.7715 11.0148 5.815 10.9889 5.8565L10.5082 5.86759C10.4805 5.82736 10.456 5.78499 10.435 5.74087C10.4435 5.64334 10.4234 5.54544 10.3772 5.45913C10.331 5.37282 10.2607 5.30183 10.1748 5.25482L9.44437 4.85515C9.35848 4.8082 9.26077 4.78727 9.16318 4.79491C9.06559 4.80255 8.97233 4.83843 8.89479 4.89818C8.8464 4.9041 8.79764 4.90646 8.74891 4.90524L8.50151 4.49448C8.52271 4.45027 8.54732 4.40779 8.57513 4.36742C8.66369 4.32599 8.7383 4.2597 8.78986 4.17662C8.84142 4.09355 8.86772 3.99727 8.86555 3.89952L8.84639 3.06759C8.84418 2.96968 8.81351 2.87453 8.75811 2.79377C8.70272 2.713 8.625 2.65012 8.53446 2.6128C8.50488 2.57385 8.47847 2.5326 8.45546 2.48944L8.68471 2.06759Z" fill="currentColor"/>
</svg>
