<svg width="14" height="16" viewBox="0 0 14 16" fill="none" xmlns="http://www.w3.org/2000/svg">
    <path
        d="M6.99999 7.83672C9.17511 7.83672 10.9385 6.08242 10.9385 3.91837C10.9385 1.75431 9.17511 0 6.99999 0C4.82484 0 3.06152 1.75431 3.06152 3.91837C3.06152 6.08242 4.82484 7.83672 6.99999 7.83672Z"
        fill="currentColor" />
    <path
        d="M9.05126 9.46942H4.9487C2.56921 9.46942 0.599976 11.4287 0.599976 13.796C0.599976 14.3674 0.846128 14.8573 1.33844 15.1021C2.0769 15.5103 3.71793 16 6.99998 16C10.2821 16 11.923 15.5103 12.6615 15.1021C13.0717 14.8573 13.4 14.3674 13.4 13.796C13.4 11.347 11.4308 9.46942 9.05126 9.46942Z"
        fill="currentColor" />
</svg>