<svg width="16" height="16" viewBox="0 0 16 16" fill="none" xmlns="http://www.w3.org/2000/svg">
<path fill-rule="evenodd" clip-rule="evenodd" d="M0.59298 8.32095L7.85998 15.438C8.62798 16.19 9.87198 16.184 10.633 15.425L15.425 10.633C16.185 9.87295 16.191 8.62895 15.439 7.86095L8.32198 0.593953C7.95298 0.216953 7.43998 0.00195312 6.91398 0.00195312L6.90798 0.00195312L1.32998 0.0159531C0.60698 0.0179531 0.0179795 0.606953 0.0149795 1.33095L0.000980019 6.90895C-1.99807e-05 7.43695 0.21598 7.95195 0.59298 8.32095ZM6.91198 1.33395H6.91398C7.08398 1.33395 7.24898 1.40295 7.36798 1.52495L14.485 8.79195C14.728 9.03995 14.726 9.44195 14.481 9.68795L9.68898 14.48C9.44298 14.726 9.03998 14.728 8.79298 14.485L1.52598 7.36795C1.40498 7.24795 1.33498 7.08195 1.33498 6.91095L1.33398 1.34695L6.91198 1.33395ZM2.01904 3.33398C2.01904 4.06898 2.61704 4.66698 3.35204 4.66698C4.08704 4.66698 4.68504 4.06898 4.68504 3.33398C4.68504 2.59898 4.08704 2.00098 3.35204 2.00098C2.61704 2.00098 2.01904 2.59898 2.01904 3.33398ZM6.5888 9.41C6.3938 9.215 6.3938 8.898 6.5888 8.703L8.1208 7.171C8.2508 7.041 8.2508 6.83 8.1208 6.699C7.9908 6.569 7.7798 6.569 7.6498 6.699L6.1178 8.231C5.9228 8.426 5.6058 8.426 5.4108 8.231C5.2158 8.036 5.2158 7.719 5.4108 7.524L6.9428 5.992C7.4628 5.472 8.30881 5.472 8.82781 5.992C9.05074 6.21493 9.17809 6.49778 9.20988 6.78917C9.50145 6.82079 9.78441 6.94818 10.0072 7.17134C10.5272 7.69134 10.5272 8.53734 10.0072 9.05734L8.47515 10.5893C8.28015 10.7853 7.96315 10.7853 7.76815 10.5893C7.57315 10.3943 7.57315 10.0773 7.76815 9.88234L9.30015 8.35034C9.43015 8.22034 9.43015 8.00934 9.30015 7.87834C9.17015 7.74834 8.95915 7.74834 8.82915 7.87834L7.29715 9.41034C7.23002 9.47748 7.14843 9.5215 7.06233 9.54241C6.89799 9.58301 6.71702 9.53887 6.5888 9.41Z" fill="currentColor"/>
</svg>
