<svg width="16" height="16" viewBox="0 0 16 16" fill="none" xmlns="http://www.w3.org/2000/svg">
<path d="M1.5 0H14.5C15.3271 0 16 0.67285 16 1.5V7.67481C16 7.95117 15.7761 8.1748 15.5 8.1748C15.2239 8.1748 15 7.95117 15 7.67481V1.5C15 1.22412 14.7756 1 14.5 1H1.5C1.22437 1 1 1.22412 1 1.5V14.5C1 14.7759 1.22437 15 1.5 15H7.67505C7.95117 15 8.17505 15.2236 8.17505 15.5C8.17505 15.7764 7.95117 16 7.67505 16H1.5C0.67285 16 0 15.3272 0 14.5V1.5C0 0.67285 0.67285 0 1.5 0Z" fill="currentColor"/>
<path d="M10.5 9H14.5C15.3271 9 16 9.67285 16 10.5V14.5C16 15.3271 15.3271 16 14.5 16H10.5C9.67285 16 9 15.3271 9 14.5V10.5C9 9.67285 9.67285 9 10.5 9Z" fill="currentColor"/>
<path d="M7.64649 8.35351L4.5 5.20703V6C4.5 6.27637 4.27612 6.5 4 6.5C3.72388 6.5 3.5 6.27637 3.5 6V4C3.5 3.73216 3.72802 3.5 4 3.5H6C6.27612 3.5 6.5 3.72363 6.5 4C6.5 4.27637 6.27612 4.5 6 4.5H5.20703L8.35352 7.64648C8.54883 7.84179 8.54883 8.1582 8.35352 8.35351C8.16474 8.54229 7.84137 8.54839 7.64649 8.35351Z" fill="currentColor"/>
</svg>
