<svg width="18" height="18" viewBox="0 0 18 18" fill="none" xmlns="http://www.w3.org/2000/svg">
<path d="M16.418 0.900391C16.463 0.900408 16.5078 0.904749 16.5508 0.913086H16.5518C16.5655 0.915934 16.578 0.919968 16.5869 0.922852C16.5974 0.926251 16.6025 0.928007 16.6084 0.929688L16.6787 0.952148L16.6777 0.953125L16.7432 0.985352L16.7637 0.996094C16.772 1.00039 16.7831 1.00675 16.7949 1.01465C16.87 1.06446 16.9347 1.12881 16.9844 1.20312C16.9925 1.21517 16.9986 1.22697 17.0029 1.23535L17.0127 1.25488L17.0137 1.25586C17.0204 1.26803 17.0362 1.29485 17.0469 1.32031L17.0479 1.32129C17.0582 1.34671 17.0655 1.37669 17.0693 1.38965L17.0859 1.44824V1.44922C17.0942 1.49237 17.0996 1.53688 17.0996 1.58203V5.07227C17.0996 5.44854 16.7946 5.75475 16.418 5.75488C16.0416 5.75488 15.7363 5.44866 15.7363 5.07227V3.22656L11.6631 7.2998C11.5301 7.43308 11.3559 7.49993 11.1816 7.5C11.0508 7.5 10.9192 7.4628 10.8057 7.3877L10.6992 7.2998C10.4332 7.03353 10.4331 6.6021 10.6992 6.33594L14.7715 2.26367H12.9268C12.5505 2.26364 12.2452 1.95831 12.2451 1.58203C12.2451 1.20566 12.5504 0.900419 12.9268 0.900391H16.418Z" fill="white" stroke="white" stroke-width="0.2"/>
<path d="M6.33594 10.6995C6.60181 10.4333 7.03381 10.4335 7.2998 10.6995C7.56606 10.9657 7.56606 11.3971 7.2998 11.6633L3.22656 15.7366H5.07227C5.44866 15.7366 5.75488 16.0418 5.75488 16.4182C5.75475 16.7945 5.44857 17.0999 5.07227 17.0999H1.58203C1.53681 17.0999 1.49193 17.0949 1.44824 17.0862V17.0852C1.42485 17.0806 1.39347 17.0707 1.38965 17.0696C1.37703 17.0659 1.34651 17.0584 1.32129 17.0481L1.32031 17.0471C1.29496 17.0364 1.26737 17.0202 1.25586 17.0139V17.0129C1.24872 17.0093 1.22091 16.9966 1.20312 16.9846C1.16572 16.9597 1.13109 16.9312 1.09961 16.8997L1.01465 16.7961C1.00656 16.7841 1.00042 16.7724 0.996094 16.7639L0.986328 16.7444C0.979286 16.7317 0.963078 16.7051 0.952148 16.679V16.678C0.941952 16.653 0.934497 16.6238 0.930664 16.6106L0.913086 16.55L0.914062 16.5491C0.90563 16.5062 0.900408 16.4626 0.900391 16.4182V12.927C0.900419 12.5507 1.20533 12.2454 1.58203 12.2454C1.95863 12.2455 2.26364 12.5507 2.26367 12.927V14.7717L6.33594 10.6995Z" fill="white" stroke="white" stroke-width="0.2"/>
<path d="M5.07227 0.900391C5.44866 0.900391 5.75488 1.20564 5.75488 1.58203C5.75477 1.95833 5.44859 2.26367 5.07227 2.26367H3.22754L7.2998 6.33594C7.56593 6.6022 7.56602 7.03359 7.2998 7.2998C7.1667 7.43257 6.99228 7.4989 6.81836 7.49902C6.64404 7.49902 6.46894 7.43281 6.33594 7.2998L2.26367 3.22754V5.07227C2.26367 5.44855 1.95865 5.75477 1.58203 5.75488C1.20532 5.75488 0.900391 5.44863 0.900391 5.07227V1.58203C0.900391 1.5371 0.905435 1.49264 0.914062 1.44922C0.918491 1.42575 0.929166 1.3946 0.930664 1.38965L0.952148 1.32129V1.32031C0.96291 1.29466 0.979683 1.26797 0.986328 1.25586V1.25488C0.989195 1.24976 0.990971 1.24535 0.996094 1.23535C1.00039 1.22696 1.00649 1.21525 1.01465 1.20312C1.03947 1.16593 1.06801 1.13123 1.09961 1.09961L1.2041 1.01465C1.22329 1.00182 1.25315 0.987348 1.25684 0.985352L1.25781 0.984375C1.26587 0.980073 1.29557 0.963447 1.32031 0.953125C1.34656 0.942156 1.37716 0.933567 1.39062 0.929688H1.3916C1.39739 0.928029 1.40179 0.926199 1.41211 0.922852C1.42101 0.919966 1.43338 0.91597 1.44727 0.913086H1.44922C1.49235 0.904811 1.53692 0.900391 1.58203 0.900391H5.07227Z" fill="white" stroke="white" stroke-width="0.2"/>
<path d="M10.6992 10.6995C10.9655 10.4332 11.3978 10.4332 11.6641 10.6995L15.7363 14.7717V12.927C15.7365 12.5508 16.0417 12.2454 16.418 12.2454C16.7946 12.2454 17.0994 12.5508 17.0996 12.927V16.4182C17.0996 16.4634 17.0952 16.5079 17.0869 16.551V16.552L17.0693 16.6106L17.0479 16.679C17.0368 16.7053 17.0206 16.7328 17.0137 16.7454C17.0108 16.7506 17.0088 16.7543 17.0039 16.7639C16.9996 16.7723 16.9923 16.7833 16.9844 16.7952L16.9854 16.7961C16.9356 16.8707 16.8712 16.9357 16.7959 16.9856C16.7767 16.9984 16.7471 17.0128 16.7432 17.0149L16.7422 17.0139C16.7302 17.0206 16.7043 17.0376 16.6797 17.0481H16.6787C16.6532 17.0585 16.6217 17.065 16.6094 17.0686L16.6104 17.0696C16.6065 17.0707 16.5743 17.0827 16.5508 17.0872L16.5498 17.0862C16.5066 17.0947 16.4626 17.0999 16.418 17.0999H12.9268C12.5505 17.0997 12.2451 16.7945 12.2451 16.4182C12.2451 16.042 12.5505 15.7368 12.9268 15.7366H14.7715L10.6992 11.6643C10.433 11.3981 10.433 10.9657 10.6992 10.6995Z" fill="white" stroke="white" stroke-width="0.2"/>
</svg>
