<svg width="18" height="18" viewBox="0 0 18 18" fill="none" xmlns="http://www.w3.org/2000/svg">
<path d="M17.0866 1.4489L17.0866 1.4489C17.0949 1.49212 17.0998 1.53659 17.0998 1.58182V5.07273C17.0998 5.44909 16.7947 5.75454 16.418 5.75454C16.0416 5.75454 15.7361 5.44912 15.7361 5.07273V3.22775L11.6637 7.30015C11.6637 7.30016 11.6637 7.30018 11.6637 7.30019C11.5307 7.43354 11.3559 7.5 11.1816 7.5C11.0073 7.5 10.8325 7.43354 10.6995 7.30019M17.0866 1.4489L10.6995 7.30019M17.0866 1.4489L17.0864 1.44785C17.0827 1.4297 17.0746 1.40522 17.0711 1.39443C17.0702 1.392 17.0697 1.39026 17.0694 1.38946L16.9736 1.41804M17.0866 1.4489L16.9017 1.2592M10.6995 7.30019C10.6995 7.30021 10.6995 7.30022 10.6995 7.30024L10.7703 7.22953L10.6995 7.30015C10.4333 7.03389 10.4333 6.60235 10.6995 6.33612L14.772 2.26364H12.9271C12.5507 2.26364 12.2452 1.95821 12.2452 1.58182C12.2452 1.20543 12.5507 0.9 12.9271 0.9H16.418C16.4631 0.9 16.5079 0.904818 16.551 0.913172L16.5523 0.913412L16.5523 0.913419C16.5662 0.916307 16.5786 0.920162 16.5875 0.923059C16.5909 0.92415 16.5936 0.925055 16.596 0.925837C16.601 0.927493 16.6043 0.928597 16.6083 0.929739L16.6087 0.929843C16.6112 0.930578 16.6144 0.931444 16.618 0.932442C16.6334 0.936653 16.6574 0.943211 16.6787 0.952097M10.6995 7.30019L16.7406 1.09804M16.6787 0.952097C16.6997 0.960729 16.7213 0.973 16.7347 0.980684C16.738 0.982542 16.7408 0.984132 16.743 0.985337L16.7436 0.98568L16.7436 0.985682C16.7472 0.987695 16.7502 0.989192 16.7546 0.991422C16.7571 0.992664 16.76 0.994134 16.7637 0.996048C16.7723 1.00046 16.7841 1.00672 16.7963 1.01499M16.6787 0.952097C16.6788 0.952145 16.679 0.952193 16.6791 0.952242L16.6405 1.04451L16.6784 0.951954C16.6785 0.952002 16.6786 0.952049 16.6787 0.952097ZM16.7963 1.01499C16.7965 1.01511 16.7966 1.01522 16.7968 1.01534L16.7406 1.09804M16.7963 1.01499C16.7962 1.0149 16.796 1.01481 16.7959 1.01471L16.7406 1.09804M16.7963 1.01499C16.8713 1.06484 16.9352 1.12917 16.9848 1.20348M16.7406 1.09804C16.8046 1.14051 16.8593 1.19549 16.9017 1.2592M16.9848 1.20348C16.9848 1.20344 16.9847 1.20339 16.9847 1.20334L16.9017 1.2592M16.9848 1.20348C16.9848 1.20357 16.9849 1.20365 16.9849 1.20373L16.9017 1.2592M16.9848 1.20348C16.9929 1.21562 16.9991 1.22724 17.0034 1.23561C17.0051 1.23902 17.0065 1.24171 17.0076 1.24398C17.0098 1.24837 17.0113 1.25118 17.0131 1.25456L17.0136 1.25543L17.0136 1.25544C17.015 1.25788 17.0167 1.26094 17.0187 1.2645C17.0267 1.27849 17.0389 1.30004 17.0475 1.32071L17.0478 1.32141C17.0562 1.34179 17.0626 1.36504 17.0668 1.38013C17.0679 1.38394 17.0688 1.38723 17.0695 1.38982L16.9736 1.41804M16.9736 1.41804C16.9752 1.42356 16.9771 1.42903 16.9789 1.43449C16.9825 1.44541 16.9861 1.45634 16.9884 1.46778M16.9736 1.41804C16.9721 1.41295 16.9707 1.40787 16.9693 1.40279C16.9652 1.38812 16.9611 1.37354 16.9553 1.35927C16.9492 1.34484 16.9416 1.33137 16.9339 1.31779C16.9312 1.31303 16.9285 1.30825 16.9259 1.30342L16.9884 1.46778M16.9884 1.46778C16.9957 1.5056 16.9998 1.54371 16.9998 1.58182V5.07273C16.9998 5.39389 16.7394 5.65454 16.418 5.65454C16.0968 5.65454 15.8361 5.39389 15.8361 5.07273V3.12775L16.9884 1.46778ZM11.5929 7.22953L15.7361 3.08633L14.9135 2.26364L10.7703 6.40684C10.5431 6.63404 10.5431 7.00233 10.7703 7.22953C10.8837 7.34327 11.0327 7.4 11.1816 7.4C11.3305 7.4 11.4795 7.34327 11.5929 7.22953Z" fill="#71347B" stroke="#71347B" stroke-width="0.2"/>
<path d="M1.32021 17.0471L1.32022 17.0471C1.30003 17.0385 1.27871 17.0264 1.26505 17.0186C1.26155 17.0166 1.25855 17.0149 1.25621 17.0136L1.30429 16.9259L1.25688 17.014C1.25619 17.0136 1.25467 17.0129 1.25254 17.0118C1.24264 17.0068 1.21946 16.9953 1.20362 16.9846M1.32021 17.0471L1.08201 16.7115C1.08691 16.7213 1.0918 16.7311 1.09804 16.7403L1.01483 16.7958C1.01488 16.7959 1.01493 16.796 1.01497 16.796C1.0646 16.8704 1.12856 16.9348 1.20362 16.9846M1.32021 17.0471L1.32141 17.0476M1.32021 17.0471L1.32141 17.0476M1.20362 16.9846C1.20353 16.9846 1.20343 16.9845 1.20334 16.9844L1.2592 16.9015L1.2039 16.9848C1.20381 16.9848 1.20372 16.9847 1.20362 16.9846ZM1.32141 17.0476C1.34171 17.0559 1.36538 17.0624 1.38043 17.0666M1.32141 17.0476L1.38043 17.0666M1.38043 17.0666C1.3843 17.0676 1.38759 17.0686 1.39011 17.0693M1.38043 17.0666L1.39011 17.0693M1.39011 17.0693L1.41833 16.9734L1.39011 17.0693ZM1.58182 17.0995C1.53657 17.0995 1.49188 17.0947 1.44817 17.086L1.58182 17.0995ZM1.58182 17.0995H5.07273M1.58182 17.0995H5.07273M5.07273 17.0995C5.44912 17.0995 5.75455 16.7941 5.75455 16.4177M5.07273 17.0995L5.75455 16.4177M5.75455 16.4177C5.75455 16.0413 5.44912 15.7359 5.07273 15.7359M5.75455 16.4177L5.07273 15.7359M5.07273 15.7359H3.22775M5.07273 15.7359H3.22775M3.22775 15.7359L7.30024 11.6634C7.56647 11.3972 7.56649 10.9656 7.30028 10.6993L3.22775 15.7359ZM0.9 16.4177C0.9 16.4627 0.904788 16.5072 0.91345 16.5507L7.30026 10.6993C7.0343 10.433 6.60209 10.433 6.33613 10.6993C6.33611 10.6993 6.3361 10.6993 6.33608 10.6993L2.26364 14.7718V12.9268C2.26364 12.5505 1.95853 12.245 1.58182 12.245C1.2051 12.245 0.9 12.5505 0.9 12.9268V16.4177Z" fill="#71347B" stroke="#71347B" stroke-width="0.2"/>
<path d="M1.02618 1.41804L0.930353 1.38946C0.930109 1.39027 0.929564 1.39192 0.928807 1.39421C0.92524 1.40497 0.916969 1.42994 0.91333 1.44945L1.01164 1.46778L0.913578 1.44817C0.904836 1.49188 0.9 1.53657 0.9 1.58182V5.07273C0.9 5.44909 1.2051 5.75455 1.58182 5.75455C1.95853 5.75455 2.26364 5.44909 2.26364 5.07273V3.22775L6.33583 7.29995C6.46884 7.43295 6.64358 7.49942 6.81789 7.49942C6.99197 7.49942 7.16663 7.43292 7.29986 7.30004L7.29995 7.29995C7.5662 7.03369 7.5662 6.6018 7.29995 6.33554L7.22924 6.40625L7.29994 6.33554L3.22776 2.26364H5.07273C5.44912 2.26364 5.75455 1.95821 5.75455 1.58182C5.75455 1.20543 5.44912 0.9 5.07273 0.9H1.58182C1.53659 0.9 1.49212 0.904832 1.4489 0.913145L1.4489 0.913135L1.44752 0.913419C1.43356 0.916307 1.42121 0.920162 1.41228 0.92306C1.40892 0.92415 1.40617 0.925055 1.4038 0.925837C1.39878 0.927493 1.39543 0.928597 1.39144 0.929739L1.39144 0.929738L1.39107 0.929844C1.38854 0.930578 1.38537 0.931444 1.38173 0.932442C1.36636 0.936654 1.34241 0.943212 1.32106 0.952097M1.02618 1.41804L0.930245 1.38982C0.931008 1.38723 0.931921 1.38394 0.932978 1.38013C0.937167 1.36503 0.94362 1.34178 0.951954 1.32141L0.95224 1.32071L0.952242 1.32071C0.960881 1.30004 0.973118 1.27849 0.98106 1.2645C0.983079 1.26094 0.98482 1.25788 0.986154 1.25544L0.986636 1.25456L0.98664 1.25456C0.988532 1.25118 0.989952 1.24837 0.99217 1.24397C0.993314 1.2417 0.994671 1.23902 0.996414 1.23561C1.00072 1.22721 1.00689 1.21552 1.01509 1.20334L1.09804 1.2592M1.02618 1.41804C1.02768 1.41295 1.0291 1.40786 1.03051 1.40279C1.0346 1.38812 1.03867 1.37354 1.04451 1.35927C1.05054 1.34484 1.05816 1.33137 1.06585 1.31779C1.06854 1.31303 1.07125 1.30825 1.07389 1.30342C1.07687 1.2981 1.07962 1.29266 1.08237 1.2872C1.08715 1.27774 1.09195 1.26824 1.09804 1.2592M1.02618 1.41804L1.30487 1.07302C1.29974 1.07583 1.29457 1.07845 1.28942 1.08105C1.27912 1.08627 1.2689 1.09144 1.2592 1.09804M1.09804 1.2592L1.01483 1.20373C1.06454 1.12917 1.12865 1.06466 1.2039 1.01471L1.2592 1.09804M1.09804 1.2592C1.14051 1.19549 1.1952 1.14051 1.2592 1.09804M1.2592 1.09804L1.20297 1.01534C1.21887 1.00453 1.24296 0.99235 1.25279 0.987382C1.25484 0.986346 1.25627 0.985623 1.25687 0.985292L1.25788 0.984738L1.25789 0.984743C1.25957 0.983849 1.26222 0.982348 1.26559 0.980439C1.27831 0.973239 1.30126 0.960238 1.32106 0.952097M1.32106 0.952097C1.32118 0.952049 1.32129 0.952002 1.32141 0.951954L1.35927 1.04451L1.32071 0.952242C1.32083 0.952194 1.32095 0.952145 1.32106 0.952097Z" fill="#71347B" stroke="#71347B" stroke-width="0.2"/>
<path d="M15.7364 14.7721L11.6639 10.6993L11.6639 10.6993C11.3977 10.433 10.9658 10.433 10.6995 10.6993C10.4333 10.9656 10.4333 11.3975 10.6995 11.6637L10.6995 11.6637L14.7723 15.7362H12.9273C12.551 15.7362 12.2455 16.0416 12.2455 16.418C12.2455 16.7944 12.551 17.0998 12.9273 17.0998H16.4183C16.4633 17.0998 16.5077 17.095 16.5513 17.0864M15.7364 14.7721L16.9887 16.532C16.9864 16.5435 16.9828 16.5544 16.9792 16.5653C16.9773 16.5708 16.9755 16.5763 16.9739 16.5818M15.7364 14.7721V12.9271C15.7364 12.5507 16.0419 12.2453 16.4183 12.2453C16.795 12.2453 17.1001 12.5507 17.1001 12.9271V16.418C17.1001 16.4632 17.0952 16.5077 17.0869 16.5509L17.0867 16.552C17.083 16.5701 17.0749 16.5946 17.0713 16.6054C17.0705 16.6078 17.07 16.6096 17.0697 16.6104L16.9739 16.5818M15.7364 14.7721L16.6958 16.9262M16.5513 17.0864C16.551 17.0864 16.5508 17.0865 16.5506 17.0865L16.5323 16.9882L16.5519 17.0862C16.5517 17.0863 16.5515 17.0863 16.5513 17.0864ZM16.5513 17.0864C16.5708 17.0827 16.596 17.0742 16.6062 17.0708C16.6082 17.0701 16.6097 17.0697 16.6103 17.0695L16.5817 16.9736M16.5817 16.9736C16.587 16.9721 16.5923 16.9706 16.5975 16.9692C16.6121 16.9651 16.6267 16.9611 16.6408 16.9553C16.655 16.9493 16.6683 16.9417 16.6816 16.9342C16.6863 16.9315 16.691 16.9288 16.6958 16.9262M16.5817 16.9736L16.61 17.0696C16.6125 17.0688 16.6158 17.0679 16.6196 17.0669C16.6347 17.0627 16.6584 17.0562 16.6787 17.0479L16.6787 17.0479L16.6799 17.0474C16.7 17.0388 16.7214 17.0267 16.735 17.0189C16.7385 17.0169 16.7415 17.0152 16.7439 17.0139L16.6958 16.9262M16.5817 16.9736L16.6958 16.9262M16.6958 16.9262L16.7432 17.0143C16.7439 17.0139 16.7454 17.0131 16.7475 17.0121C16.7574 17.0072 16.7803 16.9957 16.7962 16.9851C16.8714 16.9352 16.9355 16.8707 16.9852 16.7961L16.902 16.7406M16.6958 16.9262C16.7007 16.9236 16.7057 16.9211 16.7106 16.9186C16.7209 16.9134 16.7312 16.9083 16.7409 16.9018C16.8049 16.8593 16.8596 16.8043 16.902 16.7406M16.902 16.7406C16.9083 16.7314 16.9132 16.7216 16.9181 16.7118C16.9207 16.7066 16.9233 16.7013 16.9262 16.6961M16.902 16.7406L16.985 16.7965C16.9932 16.7843 16.9994 16.7726 17.0037 16.764C17.0057 16.7601 17.0072 16.7572 17.0084 16.7547C17.0105 16.7506 17.0119 16.7478 17.0138 16.7442L16.9262 16.6961M16.9262 16.6961L17.0136 16.7447C17.0149 16.7423 17.0166 16.7394 17.0185 16.7361C17.0265 16.7221 17.0389 16.7005 17.0478 16.6791L17.0481 16.6784C17.0565 16.658 17.0629 16.6348 17.0671 16.6197C17.0682 16.6159 17.0691 16.6126 17.0698 16.61L16.9739 16.5818M16.9262 16.6961C16.9286 16.6918 16.931 16.6875 16.9335 16.6832C16.9414 16.6693 16.9493 16.6555 16.9556 16.6406C16.9614 16.6263 16.9655 16.6117 16.9696 16.597C16.971 16.592 16.9724 16.5869 16.9739 16.5818" fill="#71347B" stroke="#71347B" stroke-width="0.2"/>
</svg>
