<svg width="16" height="16" viewBox="0 0 16 16" fill="none" xmlns="http://www.w3.org/2000/svg">
<path fill-rule="evenodd" clip-rule="evenodd" d="M15.7423 7.37601C16.0859 7.71962 16.0859 8.28048 15.7423 8.62409L9.01159 15.3546C8.66744 15.6987 8.10762 15.6987 7.76351 15.3546L7.38702 14.9781C7.04257 14.6336 7.04249 14.0741 7.38698 13.7296L12.4928 8.62425C12.8373 8.27979 12.8373 7.72015 12.4928 7.3757L7.38702 2.27034C7.04249 1.92585 7.04253 1.36637 7.38706 1.02188L7.76354 0.645389C8.10716 0.301772 8.66802 0.301772 9.01163 0.645389L15.7423 7.37601ZM1.88276 0.645313C1.5388 0.301315 0.978438 0.301353 0.63448 0.645313L0.257993 1.0218C-0.0858154 1.36561 -0.0858536 1.92646 0.257993 2.2703L5.36354 7.3757C5.70803 7.72019 5.70803 8.27975 5.36354 8.62425L0.257956 13.7296C-0.0860043 14.0735 -0.0859661 14.6342 0.257956 14.9781L0.634441 15.3546C0.978553 15.6987 1.53861 15.6987 1.88272 15.3546L8.01555 9.22158C9.73588 10.9402 9.30072 10.5044 8.0168 9.22032L8.61299 8.62409C8.95684 8.28025 8.9568 7.71981 8.61299 7.37597L1.88276 0.645313Z" fill="currentColor"/>
</svg>
