<svg width="24" height="24" viewBox="0 0 24 24" fill="none" xmlns="http://www.w3.org/2000/svg">
<g clip-path="url(#clip0_2947_11413)">
<path d="M5.5 4H18.5C19.3271 4 20 4.67285 20 5.5V11.6748C20 11.9512 19.7761 12.1748 19.5 12.1748C19.2239 12.1748 19 11.9512 19 11.6748V5.5C19 5.22412 18.7756 5 18.5 5H5.5C5.22437 5 5 5.22412 5 5.5V18.5C5 18.7759 5.22437 19 5.5 19H11.675C11.9512 19 12.175 19.2236 12.175 19.5C12.175 19.7764 11.9512 20 11.675 20H5.5C4.67285 20 4 19.3272 4 18.5V5.5C4 4.67285 4.67285 4 5.5 4Z" fill="currentColor"/>
<path d="M14.5 13H18.5C19.3271 13 20 13.6729 20 14.5V18.5C20 19.3271 19.3271 20 18.5 20H14.5C13.6729 20 13 19.3271 13 18.5V14.5C13 13.6729 13.6729 13 14.5 13Z" fill="currentColor"/>
<path d="M11.6465 12.3535L8.5 9.20703V10C8.5 10.2764 8.27612 10.5 8 10.5C7.72388 10.5 7.5 10.2764 7.5 10V8C7.5 7.73216 7.72802 7.5 8 7.5H10C10.2761 7.5 10.5 7.72363 10.5 8C10.5 8.27637 10.2761 8.5 10 8.5H9.20703L12.3535 11.6465C12.5488 11.8418 12.5488 12.1582 12.3535 12.3535C12.1647 12.5423 11.8414 12.5484 11.6465 12.3535Z" fill="currentColor"/>
</g>
<defs>
<clipPath id="clip0_2947_11413">
<path d="M0 4C0 1.79086 1.79086 0 4 0H20C22.2091 0 24 1.79086 24 4V20C24 22.2091 22.2091 24 20 24H4C1.79086 24 0 22.2091 0 20V4Z" fill="currentColor"/>
</clipPath>
</defs>
</svg>
