<svg width="24" height="24" viewBox="0 0 24 24" fill="none"
    xmlns="http://www.w3.org/2000/svg">
    <path fill-rule="evenodd" clip-rule="evenodd" d="M7.32834 6C7.32834 3.38986 9.40509 1.25 11.9999 1.25C14.5947 1.25 16.6715 3.38986 16.6715 6V11.5C16.6715 14.1101 14.5947 16.25 11.9999 16.25C9.40509 16.25 7.32834 14.1101 7.32834 11.5V6ZM11.9999 2.75C10.2614 2.75 8.82834 4.19014 8.82834 6V11.5C8.82834 13.3099 10.2614 14.75 11.9999 14.75C13.7384 14.75 15.1715 13.3099 15.1715 11.5V6C15.1715 4.19014 13.7384 2.75 11.9999 2.75ZM13.1 7.13259C12.3871 6.86596 11.6129 6.86596 10.9 7.13259C10.512 7.27769 10.0799 7.08081 9.93479 6.69284C9.78969 6.30488 9.98657 5.87274 10.3745 5.72764C11.4263 5.33428 12.5737 5.33428 13.6255 5.72764C14.0135 5.87274 14.2103 6.30488 14.0652 6.69284C13.9201 7.08081 13.488 7.27769 13.1 7.13259ZM12.5989 9.27424C12.207 9.16868 11.8025 9.16868 11.4107 9.27424C11.0107 9.382 10.5991 9.14514 10.4914 8.74519C10.3836 8.34523 10.6205 7.93365 11.0204 7.82589C11.6678 7.65146 12.3417 7.65146 12.9891 7.82589C13.389 7.93365 13.6259 8.34523 13.5182 8.74519C13.4104 9.14514 12.9988 9.382 12.5989 9.27424ZM4.5 8.8999C4.91421 8.8999 5.25 9.23569 5.25 9.6499V11.3499C5.25 15.1698 8.29089 18.2499 12 18.2499C15.7091 18.2499 18.75 15.1698 18.75 11.3499V9.6499C18.75 9.23569 19.0858 8.8999 19.5 8.8999C19.9142 8.8999 20.25 9.23569 20.25 9.6499V11.3499C20.25 15.7142 16.9622 19.3286 12.75 19.7156L12.7499 22C12.7499 22.4142 12.4141 22.75 11.9999 22.75C11.5857 22.75 11.2499 22.4142 11.2499 22L11.25 19.7156C7.03774 19.3286 3.75 15.7141 3.75 11.3499V9.6499C3.75 9.23569 4.08579 8.8999 4.5 8.8999Z" fill="currentColor"/>
</svg>
