<svg width="32" height="32" viewBox="0 0 32 32" fill="none"
    xmlns="http://www.w3.org/2000/svg">
    <rect width="32" height="32" rx="16" fill="url(#paint0_linear_767_27863)"/>
    <g filter="url(#filter0_i_767_27863)">
        <path d="M21.6252 16.125C21.6252 15.7798 21.3454 15.5 21.0002 15.5C20.6551 15.5 20.3752 15.7798 20.3752 16.125C20.3752 18.5374 18.4126 20.5 16.0002 20.5C13.5879 20.5 11.6252 18.5374 11.6252 16.125C11.6252 15.7798 11.3454 15.5 11.0002 15.5C10.6551 15.5 10.3752 15.7798 10.3752 16.125C10.3752 18.8474 12.3194 21.124 14.8922 21.64C15.1651 21.6947 15.3752 21.9256 15.3752 22.2039V22.2039C15.3752 22.5055 15.1307 22.75 14.8291 22.75H13.5002C13.1551 22.75 12.8752 23.0298 12.8752 23.375C12.8752 23.7202 13.1551 24 13.5002 24H18.5002C18.8454 24 19.1252 23.7202 19.1252 23.375C19.1252 23.0298 18.8454 22.75 18.5002 22.75H17.1713C16.8697 22.75 16.6252 22.5055 16.6252 22.2039V22.2039C16.6252 21.9256 16.8354 21.6947 17.1082 21.64C19.6811 21.124 21.6252 18.8474 21.6252 16.125Z" fill="#F4F4F4"/>
        <path d="M16.0002 19.25C14.2771 19.25 12.8752 17.8481 12.8752 16.125V11.125C12.8752 9.40187 14.2771 8 16.0002 8C17.7234 8 19.1252 9.40187 19.1252 11.125V16.125C19.1252 17.8481 17.7234 19.25 16.0002 19.25ZM16.0002 9.25C14.9664 9.25 14.1252 10.0911 14.1252 11.125V16.125C14.1252 17.1589 14.9664 18 16.0002 18C17.0341 18 17.8752 17.1589 17.8752 16.125V11.125C17.8752 10.0911 17.0341 9.25 16.0002 9.25Z" fill="#F4F4F4"/>
        <path d="M11.0002 14.25C10.6551 14.25 10.3752 13.9702 10.3752 13.625V12.375C10.3752 12.0298 10.6551 11.75 11.0002 11.75C11.3454 11.75 11.6252 12.0298 11.6252 12.375V13.625C11.6252 13.9702 11.3454 14.25 11.0002 14.25Z" fill="#F4F4F4"/>
        <path d="M8.625 15.5C8.27981 15.5 8 15.2202 8 14.875V11.125C8 10.7798 8.27981 10.5 8.625 10.5C8.97019 10.5 9.25 10.7798 9.25 11.125V14.875C9.25 15.2202 8.97019 15.5 8.625 15.5Z" fill="#F4F4F4"/>
        <path d="M21.0002 14.25C20.6551 14.25 20.3752 13.9702 20.3752 13.625V12.375C20.3752 12.0298 20.6551 11.75 21.0002 11.75C21.3454 11.75 21.6252 12.0298 21.6252 12.375V13.625C21.6252 13.9702 21.3454 14.25 21.0002 14.25Z" fill="#F4F4F4"/>
        <path d="M23.3748 15.5C23.0296 15.5 22.7498 15.2202 22.7498 14.875V11.125C22.7498 10.7798 23.0296 10.5 23.3748 10.5C23.7199 10.5 23.9998 10.7798 23.9998 11.125V14.875C23.9998 15.2202 23.7199 15.5 23.3748 15.5Z" fill="#F4F4F4"/>
    </g>
    <defs>
        <filter id="filter0_i_767_27863" x="8" y="8" width="15.9998" height="16" filterUnits="userSpaceOnUse" color-interpolation-filters="sRGB">
            <feFlood flood-opacity="0" result="BackgroundImageFix"/>
            <feBlend mode="normal" in="SourceGraphic" in2="BackgroundImageFix" result="shape"/>
            <feColorMatrix in="SourceAlpha" type="matrix" values="0 0 0 0 0 0 0 0 0 0 0 0 0 0 0 0 0 0 127 0" result="hardAlpha"/>
            <feOffset/>
            <feGaussianBlur stdDeviation="0.5"/>
            <feComposite in2="hardAlpha" operator="arithmetic" k2="-1" k3="1"/>
            <feColorMatrix type="matrix" values="0 0 0 0 0 0 0 0 0 0 0 0 0 0 0 0 0 0 0.25 0"/>
            <feBlend mode="normal" in2="shape" result="effect1_innerShadow_767_27863"/>
        </filter>
        <linearGradient id="paint0_linear_767_27863" x1="16" y1="0" x2="16" y2="32" gradientUnits="userSpaceOnUse">
            <stop stop-color="currentColor"/>
            <stop offset="1" stop-color="currentColor"/>
        </linearGradient>
    </defs>
</svg>
