<svg width="16" height="16" viewBox="0 0 16 16" fill="none" xmlns="http://www.w3.org/2000/svg">
<path fill-rule="evenodd" clip-rule="evenodd" d="M0.257713 8.62399C-0.0859044 8.28038 -0.0859044 7.71952 0.257713 7.37591L6.98841 0.645442C7.33256 0.301292 7.89238 0.301292 8.23649 0.645442L8.61298 1.02193C8.95743 1.36638 8.95751 1.9259 8.61302 2.27043L3.5072 7.37575C3.16267 7.72021 3.16267 8.27985 3.5072 8.6243L8.61298 13.7297C8.95751 14.0741 8.95747 14.6336 8.61294 14.9781L8.23646 15.3546C7.89284 15.6982 7.33198 15.6982 6.98837 15.3546L0.257713 8.62399ZM14.1172 15.3547C14.4612 15.6987 15.0216 15.6986 15.3655 15.3547L15.742 14.9782C16.0858 14.6344 16.0859 14.0735 15.742 13.7297L10.6365 8.6243C10.292 8.27981 10.292 7.72025 10.6365 7.37575L15.742 2.2704C16.086 1.92647 16.086 1.36581 15.742 1.02189L15.3656 0.645404C15.0214 0.301292 14.4614 0.301254 14.1173 0.645404L7.98445 6.77842C6.26412 5.0598 6.69928 5.49564 7.9832 6.77968L7.38701 7.37591C7.04316 7.71975 7.0432 8.28019 7.38701 8.62403L14.1172 15.3547Z" fill="#71347B"/>
</svg>
