<svg width="16" height="16" viewBox="0 0 16 16" fill="none" xmlns="http://www.w3.org/2000/svg">
<path d="M14.5 16H1.5C0.67285 16 0 15.3271 0 14.5V8.32519C0 8.04883 0.223875 7.8252 0.5 7.8252C0.776125 7.8252 1 8.04883 1 8.32519V14.5C1 14.7759 1.22436 15 1.5 15H14.5C14.7756 15 15 14.7759 15 14.5V1.5C15 1.22412 14.7756 1 14.5 1H8.32495C8.04883 1 7.82495 0.776365 7.82495 0.5C7.82495 0.223635 8.04883 0 8.32495 0H14.5C15.3272 0 16 0.67285 16 1.5V14.5C16 15.3271 15.3272 16 14.5 16Z" fill="currentColor"/>
<path d="M5.5 7H1.5C0.67285 7 0 6.32715 0 5.5V1.5C0 0.67285 0.67285 0 1.5 0H5.5C6.32715 0 7 0.67285 7 1.5V5.5C7 6.32715 6.32715 7 5.5 7Z" fill="currentColor"/>
<path d="M8.35351 7.64649L11.5 10.793V10C11.5 9.72363 11.7239 9.5 12 9.5C12.2761 9.5 12.5 9.72363 12.5 10V12C12.5 12.2678 12.272 12.5 12 12.5H10C9.72388 12.5 9.5 12.2764 9.5 12C9.5 11.7236 9.72388 11.5 10 11.5H10.793L7.64648 8.35352C7.45117 8.15821 7.45117 7.8418 7.64648 7.64649C7.83526 7.45771 8.15863 7.45161 8.35351 7.64649Z" fill="currentColor"/>
</svg>
