<svg width="10" height="16" viewBox="0 0 10 16" fill="none" xmlns="http://www.w3.org/2000/svg">
<path fill-rule="evenodd" clip-rule="evenodd" d="M1.90138 0H8.09976C8.9541 0 9.90347 0.962408 9.90347 1.81674V14.2135C9.90347 15.0678 8.9541 16 8.09976 16H1.90138C1.04705 16 0.0965576 15.0678 0.0965576 14.2135V1.81674C0.0965576 0.962408 1.04705 0 1.90138 0ZM8.09976 14.9883C8.52772 14.9883 8.87456 14.6415 8.87456 14.2135V1.81674C8.87456 1.38879 8.52772 1.04195 8.09976 1.04195H1.90138C1.47343 1.04195 1.12659 1.38879 1.12659 1.81674V14.2135C1.12659 14.6415 1.47343 14.9883 1.90138 14.9883H8.09976ZM4.87139 1.55849H6.42099C6.63509 1.55849 6.80839 1.73179 6.80839 1.94589C6.80839 2.15999 6.63509 2.33329 6.42099 2.33329H4.87139C4.6573 2.33329 4.48399 2.15999 4.48399 1.94589C4.48399 1.73179 4.6573 1.55849 4.87139 1.55849ZM5.00059 14.4717C5.4285 14.4717 5.77539 14.1248 5.77539 13.6969C5.77539 13.269 5.4285 12.9221 5.00059 12.9221C4.57268 12.9221 4.22579 13.269 4.22579 13.6969C4.22579 14.1248 4.57268 14.4717 5.00059 14.4717ZM3.96754 1.94589C3.96754 2.15985 3.7941 2.33329 3.58014 2.33329C3.36619 2.33329 3.19274 2.15985 3.19274 1.94589C3.19274 1.73194 3.36619 1.55849 3.58014 1.55849C3.7941 1.55849 3.96754 1.73194 3.96754 1.94589Z" fill="currentColor"/>
</svg>
