<svg width="16" height="16" viewBox="0 0 16 16" fill="none" xmlns="http://www.w3.org/2000/svg">
<path d="M15.5312 11.3125H14.125V8.625C14.125 8.36613 13.9151 8.15625 13.6562 8.15625H8.46875V5.9375H10.5C10.7589 5.9375 10.9688 5.72762 10.9688 5.46875V0.46875C10.9688 0.209875 10.7589 0 10.5 0H5.5C5.24113 0 5.03125 0.209875 5.03125 0.46875V5.46875C5.03125 5.72762 5.24113 5.9375 5.5 5.9375H7.53125V8.15625H2.34375C2.08488 8.15625 1.875 8.36613 1.875 8.625V11.3125H0.46875C0.209875 11.3125 0 11.5224 0 11.7812V15.5312C0 15.7901 0.209875 16 0.46875 16H4.21875C4.47762 16 4.6875 15.7901 4.6875 15.5312V11.7812C4.6875 11.5224 4.47762 11.3125 4.21875 11.3125H2.8125V9.09375H7.53125V11.3125H6.125C5.86613 11.3125 5.65625 11.5224 5.65625 11.7812V15.5312C5.65625 15.7901 5.86613 16 6.125 16H9.875C10.1339 16 10.3438 15.7901 10.3438 15.5312V11.7812C10.3438 11.5224 10.1339 11.3125 9.875 11.3125H8.46875V9.09375H13.1875V11.3125H11.7812C11.5224 11.3125 11.3125 11.5224 11.3125 11.7812V15.5312C11.3125 15.7901 11.5224 16 11.7812 16H15.5312C15.7901 16 16 15.7901 16 15.5312V11.7812C16 11.5224 15.7901 11.3125 15.5312 11.3125ZM5.96875 0.9375H10.0312V5H5.96875V0.9375ZM3.75 15.0625H0.9375V12.25H3.75V15.0625ZM9.40625 15.0625H6.59375V12.25H9.40625V15.0625ZM15.0625 15.0625H12.25V12.25H15.0625V15.0625Z" fill="currentColor"/>
</svg>
