<svg width="10" height="11" viewBox="0 0 10 11" fill="none" xmlns="http://www.w3.org/2000/svg">
<g clip-path="url(#clip0_783_9892)">
<path d="M6.30036 3.95478L6.95053 3.37785L7.125 2.526L7.70202 3.17649L8.55386 3.35096L7.90379 3.92821L7.72932 4.78006L7.15197 4.12966L6.30036 3.95478ZM8.97307 6.16087C8.88768 6.18375 8.81487 6.23962 8.77067 6.31618C8.72647 6.39274 8.71449 6.48373 8.73737 6.56912C8.76025 6.65451 8.81612 6.72732 8.89268 6.77152C8.96924 6.81572 9.06023 6.8277 9.14562 6.80482C9.23101 6.78194 9.30382 6.72607 9.34802 6.64951C9.39223 6.57295 9.4042 6.48197 9.38132 6.39657C9.35844 6.31118 9.30258 6.23837 9.22601 6.19417C9.14945 6.14997 9.05847 6.13799 8.97307 6.16087ZM6.69613 5.39061C6.61074 5.41349 6.53793 5.46935 6.49373 5.54592C6.44953 5.62248 6.43755 5.71346 6.46043 5.79886C6.48331 5.88425 6.53918 5.95705 6.61574 6.00126C6.6923 6.04546 6.78328 6.05744 6.86868 6.03456C6.95407 6.01168 7.02688 5.95581 7.07108 5.87925C7.11528 5.80269 7.12726 5.7117 7.10438 5.62631C7.0815 5.54092 7.02563 5.46811 6.94907 5.42391C6.87251 5.3797 6.78152 5.36773 6.69613 5.39061ZM8.03012 8.10241L8.41534 7.65203L7.83036 7.55652C5.31042 7.18403 4.27519 3.94769 6.11425 2.18222L6.53481 1.76585L5.96074 1.6222C3.07353 0.844982 0.314998 3.66469 1.13628 6.53527C1.32316 7.23899 1.69897 7.8782 2.22301 8.38369C2.74706 8.88918 3.39939 9.24171 4.10939 9.40311C4.81939 9.56451 5.56002 9.52864 6.25109 9.29937C6.94217 9.07011 7.55738 8.65619 8.03012 8.10241Z" fill="currentColor"/>
</g>
<defs>
<clipPath id="clip0_783_9892">
<rect width="8" height="8" fill="white" transform="translate(0.101013 2.67157) rotate(-15)"/>
</clipPath>
</defs>
</svg>
