<svg width="4" height="14" viewBox="0 0 4 14" fill="none" xmlns="http://www.w3.org/2000/svg">
    <path
        d="M2 3.5C2.825 3.5 3.5 2.825 3.5 2C3.5 1.175 2.825 0.5 2 0.5C1.175 0.5 0.5 1.175 0.5 2C0.5 2.825 1.175 3.5 2 3.5Z"
        fill="currentColor" />
    <path
        d="M2 8.5C2.825 8.5 3.5 7.825 3.5 7C3.5 6.175 2.825 5.5 2 5.5C1.175 5.5 0.5 6.175 0.5 7C0.5 7.825 1.175 8.5 2 8.5Z"
        fill="currentColor" />
    <path
        d="M2 13.5C2.825 13.5 3.5 12.825 3.5 12C3.5 11.175 2.825 10.5 2 10.5C1.175 10.5 0.5 11.175 0.5 12C0.5 12.825 1.175 13.5 2 13.5Z"
        fill="currentColor" />
</svg>