<svg width="15" height="16" viewBox="0 0 15 16" fill="none" xmlns="http://www.w3.org/2000/svg">
<path d="M14.9 4.70781L10.2663 0.0734375C10.2194 0.0265625 10.1559 0 10.0897 0H4.84094C3.61938 0 2.62562 0.994063 2.62562 2.21563V6.60031H0.68125C0.305625 6.60031 0 6.90594 0 7.28156V11.1978C0 11.5734 0.305625 11.8791 0.68125 11.8791H2.62562V13.7844C2.62562 15.0059 3.61938 16 4.84094 16H12.7578C13.9794 16 14.9731 15.0059 14.9731 13.7844V4.88469C14.9731 4.81844 14.9469 4.75469 14.9 4.70781ZM14.4734 13.7844C14.4734 14.7306 13.7037 15.5003 12.7578 15.5003H4.84094C3.895 15.5003 3.12531 14.7306 3.12531 13.7844V11.8791H11.3562C11.7319 11.8791 12.0375 11.5734 12.0375 11.1978V7.28156C12.0375 6.90594 11.7319 6.60031 11.3562 6.60031H3.12531V2.21563C3.12531 1.26938 3.895 0.499687 4.84094 0.499687H9.83969V4.38406C9.83969 4.79781 10.1759 5.13438 10.5891 5.13438H14.4734V13.7844Z" fill="currentColor"/>
<path d="M6.37891 7.81052C6.64274 7.81056 6.88274 7.87154 7.09863 7.99411C7.3173 8.11678 7.48892 8.28814 7.61426 8.50681C7.74219 8.72273 7.80661 8.96637 7.80664 9.23825C7.80664 9.51292 7.74226 9.75982 7.61426 9.97849C7.48894 10.1944 7.31721 10.3637 7.09863 10.4863C6.88004 10.6089 6.64014 10.6708 6.37891 10.6709C6.11757 10.6709 5.87687 10.609 5.6582 10.4863C5.43974 10.3637 5.26659 10.1943 5.13867 9.97849C5.01067 9.75982 4.94629 9.51292 4.94629 9.23825C4.94632 8.96643 5.0108 8.72269 5.13867 8.50681C5.26663 8.2882 5.43963 8.11677 5.6582 7.99411C5.87687 7.87144 6.11757 7.81052 6.37891 7.81052ZM3.00879 9.92673L3.89746 7.85056H4.5293V10.6425H3.96875V8.82614L3.2207 10.6425H2.79688L2.04492 8.82614V10.6425H1.48535V7.85056H2.12109L3.00879 9.92673ZM9.37109 10.0703L10.1357 7.85056H10.7314L9.70703 10.6425H9.02734L8.00293 7.85056H8.60352L9.37109 10.0703ZM6.37891 8.31442C6.21091 8.31442 6.06133 8.35206 5.93066 8.42673C5.80285 8.50131 5.70282 8.6089 5.63086 8.74997C5.55888 8.88859 5.52248 9.05166 5.52246 9.23825C5.52246 9.42492 5.55886 9.5891 5.63086 9.73044C5.70286 9.87172 5.80269 9.98125 5.93066 10.0586C6.06131 10.1332 6.21094 10.1709 6.37891 10.1709C6.54665 10.1708 6.69441 10.1331 6.82227 10.0586C6.95027 9.98123 7.05105 9.87177 7.12305 9.73044C7.19499 9.58914 7.23047 9.42485 7.23047 9.23825C7.23045 9.05166 7.19502 8.88859 7.12305 8.74997C7.05105 8.60873 6.95021 8.50136 6.82227 8.42673C6.69437 8.35216 6.54673 8.31446 6.37891 8.31442Z" fill="white"/>
</svg>
