<svg width="16" height="16" viewBox="0 0 16 16" fill="none" xmlns="http://www.w3.org/2000/svg">
<path d="M14.3333 15.3334H11C10.0667 15.3334 9.33333 14.6 9.33333 13.6667V10.3334C9.33333 9.40002 10.0667 8.66669 11 8.66669H14.3333C15.2667 8.66669 16 9.40002 16 10.3334V13.6667C16 14.6 15.2667 15.3334 14.3333 15.3334ZM11 10C10.8 10 10.6667 10.1334 10.6667 10.3334V13.6667C10.6667 13.8667 10.8 14 11 14H14.3333C14.5333 14 14.6667 13.8667 14.6667 13.6667V10.3334C14.6667 10.1334 14.5333 10 14.3333 10H11Z" fill="currentColor"/>
<path d="M5 15.3334H1.66667C0.733333 15.3334 0 14.6 0 13.6667V10.3334C0 9.40002 0.733333 8.66669 1.66667 8.66669H5C5.93333 8.66669 6.66667 9.40002 6.66667 10.3334V13.6667C6.66667 14.6 5.93333 15.3334 5 15.3334Z" fill="currentColor"/>
<path d="M12.6667 7.33335C12.4667 7.33335 12.3333 7.26669 12.2 7.13335L10.8667 5.80002C10.6 5.53335 10.6 5.13335 10.8667 4.86669C11.1333 4.60002 11.5333 4.60002 11.8 4.86669L11.8667 4.93335C11.4 3.20002 9.80001 2.00002 8.00001 2.00002C5.80001 2.00002 4.00001 3.80002 4.00001 6.00002C4.00001 6.40002 3.73334 6.66669 3.33334 6.66669C2.93334 6.66669 2.66667 6.40002 2.66667 6.00002C2.66667 3.06669 5.06667 0.666687 8.00001 0.666687C10.6667 0.666687 12.8667 2.60002 13.2667 5.13335L13.5333 4.86669C13.8 4.60002 14.2 4.60002 14.4667 4.86669C14.7333 5.13335 14.7333 5.53335 14.4667 5.80002L13.1333 7.13335C13 7.26669 12.8667 7.33335 12.6667 7.33335Z" fill="currentColor"/>
</svg>
