<svg width="15" height="16" viewBox="0 0 15 16" fill="none" xmlns="http://www.w3.org/2000/svg">
<path d="M14.9 4.70781L10.2663 0.0734375C10.2194 0.0265625 10.1559 0 10.0897 0H4.84094C3.61938 0 2.62562 0.994063 2.62562 2.21563V6.60031H0.68125C0.305625 6.60031 0 6.90594 0 7.28156V11.1978C0 11.5734 0.305625 11.8791 0.68125 11.8791H2.62562V13.7844C2.62562 15.0059 3.61938 16 4.84094 16H12.7578C13.9794 16 14.9731 15.0059 14.9731 13.7844V4.88469C14.9731 4.81844 14.9469 4.75469 14.9 4.70781ZM14.4734 13.7844C14.4734 14.7306 13.7037 15.5003 12.7578 15.5003H4.84094C3.895 15.5003 3.12531 14.7306 3.12531 13.7844V11.8791H11.3562C11.7319 11.8791 12.0375 11.5734 12.0375 11.1978V7.28156C12.0375 6.90594 11.7319 6.60031 11.3562 6.60031H3.12531V2.21563C3.12531 1.26938 3.895 0.499687 4.84094 0.499687H9.83969V4.38406C9.83969 4.79781 10.1759 5.13438 10.5891 5.13438H14.4734V13.7844Z" fill="currentColor"/>
<path d="M9.51074 7.65817C9.70524 7.65822 9.87217 7.69338 10.0107 7.76266C10.1491 7.82926 10.253 7.92099 10.3223 8.03806C10.3943 8.15272 10.4307 8.28397 10.4307 8.43063C10.4306 8.59842 10.3867 8.74113 10.2988 8.85837C10.2135 8.97303 10.1102 9.05079 9.99023 9.09079V9.10641C10.1449 9.15441 10.2653 9.23961 10.3506 9.36227C10.4385 9.48484 10.4823 9.64217 10.4824 9.83395C10.4824 9.99395 10.4448 10.1373 10.3701 10.2627C10.2981 10.3879 10.1898 10.4866 10.0459 10.5586C9.90465 10.6278 9.73398 10.6621 9.53418 10.6621C9.23311 10.662 8.98808 10.5863 8.79883 10.4345C8.60954 10.2826 8.50876 10.0586 8.49805 9.76266H9.04199C9.04737 9.89323 9.09219 9.99814 9.1748 10.0781C9.26013 10.1554 9.37584 10.1943 9.52246 10.1943C9.65841 10.1943 9.762 10.1566 9.83398 10.082C9.90863 10.0047 9.94629 9.90609 9.94629 9.7861C9.94622 9.62627 9.89521 9.51164 9.79395 9.44235C9.6926 9.37316 9.53538 9.33884 9.32227 9.33884H9.20605V8.87888H9.32227C9.70093 8.87888 9.89062 8.75135 9.89062 8.49802C9.89054 8.38355 9.85538 8.29436 9.78613 8.23044C9.71947 8.16651 9.62207 8.13474 9.49414 8.13474C9.36891 8.13478 9.27144 8.16896 9.20215 8.23825C9.13555 8.30486 9.09664 8.39024 9.08594 8.49411H8.53809C8.55147 8.2277 8.64523 8.02281 8.81836 7.87888C8.99436 7.73221 9.22541 7.65817 9.51074 7.65817ZM4.08691 9.92673L4.97559 7.85056H5.60742V10.6425H5.04688V8.82614L4.29883 10.6425H3.875L3.12305 8.82614V10.6425H2.56348V7.85056H3.19922L4.08691 9.92673ZM7.18848 7.85056C7.40448 7.85056 7.58921 7.88819 7.74121 7.96286C7.89294 8.0375 8.00647 8.13996 8.08105 8.27048C8.15832 8.4011 8.19629 8.54955 8.19629 8.71481C8.19623 8.864 8.1608 9.00418 8.08887 9.13474C8.01955 9.26526 7.90868 9.37022 7.75684 9.45016C7.6075 9.53016 7.41781 9.57028 7.18848 9.57028H6.7207V10.6425H6.16113V7.85056H7.18848ZM6.7207 9.11813H7.16504C7.31951 9.11809 7.43416 9.08386 7.50879 9.01462C7.58338 8.94269 7.62102 8.84263 7.62109 8.71481C7.62109 8.44289 7.46886 8.30669 7.16504 8.30661H6.7207V9.11813Z" fill="white"/>
</svg>
