<svg width="17" height="17" viewBox="0 0 17 17" fill="none" xmlns="http://www.w3.org/2000/svg">
<g clip-path="url(#clip0_290_15078)">
<path d="M8.10721 9.74726C10.6408 9.74726 12.6947 7.69337 12.6947 5.15977C12.6947 2.62616 10.6408 0.572266 8.10721 0.572266C5.57361 0.572266 3.51971 2.62616 3.51971 5.15977C3.51971 7.69337 5.57361 9.74726 8.10721 9.74726Z" fill="#036C70"/>
<path d="M11.9322 13.5854C14.2725 13.5854 16.1697 11.6882 16.1697 9.34785C16.1697 7.00755 14.2725 5.11035 11.9322 5.11035C9.5919 5.11035 7.6947 7.00755 7.6947 9.34785C7.6947 11.6882 9.5919 13.5854 11.9322 13.5854Z" fill="#1A9BA1"/>
<path d="M8.70721 16.6104C10.5021 16.6104 11.9572 15.1553 11.9572 13.3604C11.9572 11.5654 10.5021 10.1104 8.70721 10.1104C6.91229 10.1104 5.45721 11.5654 5.45721 13.3604C5.45721 15.1553 6.91229 16.6104 8.70721 16.6104Z" fill="#37C6D0"/>
<path d="M7.58223 12.748H0.957227C0.519727 12.748 0.157227 12.3855 0.157227 11.948V5.42305C0.157227 4.98555 0.519727 4.62305 0.957227 4.62305H7.58223C8.01973 4.62305 8.38223 4.98555 8.38223 5.42305V11.948C8.38223 12.3855 8.03223 12.748 7.58223 12.748Z" fill="#04878B"/>
<path d="M2.93219 10.0854C3.19469 10.2354 3.60719 10.3729 4.03219 10.3729C4.55719 10.3729 4.85719 10.1229 4.85719 9.76035C4.85719 9.42285 4.63219 9.22285 4.05719 9.01035C3.30719 8.74785 2.81969 8.34785 2.81969 7.71035C2.81969 6.97285 3.44469 6.42285 4.43219 6.42285C4.91969 6.42285 5.28219 6.53535 5.51969 6.64785L5.31969 7.31035C5.15719 7.22285 4.84469 7.09785 4.41969 7.09785C3.89469 7.09785 3.66969 7.37285 3.66969 7.63535C3.66969 7.98535 3.93219 8.13535 4.54469 8.37285C5.33219 8.67285 5.70719 9.06035 5.70719 9.69785C5.70719 10.4229 5.15719 11.0354 3.98219 11.0354C3.49469 11.0354 2.99469 10.8979 2.74469 10.7604L2.93219 10.0854Z" fill="white"/>
<path opacity="0.2" d="M8.38223 5.34766V5.42266V11.9477C8.38223 12.3852 8.01973 12.7477 7.58223 12.7477H5.49473L5.46973 13.4602H8.26973C8.70723 13.4602 9.06973 13.0977 9.06973 12.6602V6.13516C9.05723 5.73516 8.76973 5.41016 8.38223 5.34766Z" fill="black"/>
</g>
<defs>
<clipPath id="clip0_290_15078">
<rect width="16" height="16" fill="white" transform="translate(0.144714 0.597656)"/>
</clipPath>
</defs>
</svg>
