<svg width="16" height="16" viewBox="0 0 16 16" fill="none" xmlns="http://www.w3.org/2000/svg">
<path d="M11.6667 4.14333V14C11.6667 14.2652 11.5613 14.5196 11.3738 14.7071C11.1862 14.8946 10.9319 15 10.6667 15H2C1.73478 15 1.48043 14.8946 1.29289 14.7071C1.10536 14.5196 1 14.2652 1 14V1.66667C1 1.48986 1.07024 1.32029 1.19526 1.19526C1.32029 1.07024 1.48986 1 1.66667 1H8.36667C8.53624 0.999738 8.69954 1.0641 8.82333 1.18L11.4567 3.66667C11.5219 3.72796 11.5741 3.80175 11.6101 3.88364C11.6462 3.96554 11.6654 4.05385 11.6667 4.14333Z" fill="#468FF1"/>
<path d="M11.6667 4.14333V13C11.6667 13.2652 11.5613 13.5196 11.3738 13.7071C11.1862 13.8946 10.9319 14 10.6667 14H2C1.73478 14 1.48043 13.8946 1.29289 13.7071C1.10536 13.5196 1 13.2652 1 13V1.66667C1 1.48986 1.07024 1.32029 1.19526 1.19526C1.32029 1.07024 1.48986 1 1.66667 1H8.36667C8.53624 0.999738 8.69954 1.0641 8.82333 1.18L11.4567 3.66667C11.5219 3.72796 11.5741 3.80175 11.6101 3.88364C11.6462 3.96554 11.6654 4.05385 11.6667 4.14333Z" fill="#8BCAFF"/>
<path d="M11.6667 4.14333V4.33333H8.66667C8.48986 4.33333 8.32029 4.2631 8.19526 4.13807C8.07024 4.01305 8 3.84348 8 3.66667V1H8.36667C8.53624 0.999738 8.69954 1.0641 8.82333 1.18L11.4567 3.66667C11.5219 3.72796 11.5741 3.80175 11.6101 3.88364C11.6462 3.96554 11.6654 4.05385 11.6667 4.14333Z" fill="#468FF1"/>
<path d="M9.33333 11.6667H3.33333C3.24493 11.6667 3.16014 11.6315 3.09763 11.569C3.03512 11.5065 3 11.4217 3 11.3333C3 11.2449 3.03512 11.1601 3.09763 11.0976C3.16014 11.0351 3.24493 11 3.33333 11H9.33333C9.42174 11 9.50652 11.0351 9.56904 11.0976C9.63155 11.1601 9.66667 11.2449 9.66667 11.3333C9.66667 11.4217 9.63155 11.5065 9.56904 11.569C9.50652 11.6315 9.42174 11.6667 9.33333 11.6667Z" fill="#F9F6F6"/>
<path d="M9.33333 9.66667H3.33333C3.24493 9.66667 3.16014 9.63155 3.09763 9.56904C3.03512 9.50652 3 9.42174 3 9.33333C3 9.24493 3.03512 9.16014 3.09763 9.09763C3.16014 9.03512 3.24493 9 3.33333 9H9.33333C9.42174 9 9.50652 9.03512 9.56904 9.09763C9.63155 9.16014 9.66667 9.24493 9.66667 9.33333C9.66667 9.42174 9.63155 9.50652 9.56904 9.56904C9.50652 9.63155 9.42174 9.66667 9.33333 9.66667Z" fill="#F9F6F6"/>
<path d="M9.33333 7.66667H3.33333C3.24493 7.66667 3.16014 7.63155 3.09763 7.56904C3.03512 7.50652 3 7.42174 3 7.33333C3 7.24493 3.03512 7.16014 3.09763 7.09763C3.16014 7.03512 3.24493 7 3.33333 7H9.33333C9.42174 7 9.50652 7.03512 9.56904 7.09763C9.63155 7.16014 9.66667 7.24493 9.66667 7.33333C9.66667 7.42174 9.63155 7.50652 9.56904 7.56904C9.50652 7.63155 9.42174 7.66667 9.33333 7.66667Z" fill="#F9F6F6"/>
<path d="M7 5.66667H3.33333C3.24493 5.66667 3.16014 5.63155 3.09763 5.56904C3.03512 5.50652 3 5.42174 3 5.33333C3 5.24493 3.03512 5.16014 3.09763 5.09763C3.16014 5.03512 3.24493 5 3.33333 5H7C7.08841 5 7.17319 5.03512 7.2357 5.09763C7.29821 5.16014 7.33333 5.24493 7.33333 5.33333C7.33333 5.42174 7.29821 5.50652 7.2357 5.56904C7.17319 5.63155 7.08841 5.66667 7 5.66667Z" fill="#F9F6F6"/>
<path d="M5.33333 3.66667H3.33333C3.24493 3.66667 3.16014 3.63155 3.09763 3.56904C3.03512 3.50652 3 3.42174 3 3.33333C3 3.24493 3.03512 3.16014 3.09763 3.09763C3.16014 3.03512 3.24493 3 3.33333 3H5.33333C5.42174 3 5.50652 3.03512 5.56904 3.09763C5.63155 3.16014 5.66667 3.24493 5.66667 3.33333C5.66667 3.42174 5.63155 3.50652 5.56904 3.56904C5.50652 3.63155 5.42174 3.66667 5.33333 3.66667Z" fill="#F9F6F6"/>
<path d="M12.3337 15.0001C13.8064 15.0001 15.0003 13.8062 15.0003 12.3334C15.0003 10.8607 13.8064 9.66675 12.3337 9.66675C10.8609 9.66675 9.66699 10.8607 9.66699 12.3334C9.66699 13.8062 10.8609 15.0001 12.3337 15.0001Z" fill="#FFCA3A"/>
<path d="M12.3333 13.5001C12.2449 13.5001 12.1601 13.465 12.0976 13.4025C12.0351 13.3399 12 13.2552 12 13.1667V11.5001C12 11.4117 12.0351 11.3269 12.0976 11.2644C12.1601 11.2019 12.2449 11.1667 12.3333 11.1667C12.4217 11.1667 12.5065 11.2019 12.569 11.2644C12.6315 11.3269 12.6667 11.4117 12.6667 11.5001V13.1667C12.6667 13.2552 12.6315 13.3399 12.569 13.4025C12.5065 13.465 12.4217 13.5001 12.3333 13.5001Z" fill="#F9F6F6"/>
<path d="M13.167 12.6667H11.5003C11.4119 12.6667 11.3271 12.6315 11.2646 12.569C11.2021 12.5065 11.167 12.4217 11.167 12.3333C11.167 12.2449 11.2021 12.1601 11.2646 12.0976C11.3271 12.0351 11.4119 12 11.5003 12H13.167C13.2554 12 13.3402 12.0351 13.4027 12.0976C13.4652 12.1601 13.5003 12.2449 13.5003 12.3333C13.5003 12.4217 13.4652 12.5065 13.4027 12.569C13.3402 12.6315 13.2554 12.6667 13.167 12.6667Z" fill="#F9F6F6"/>
</svg>
