<svg width="16" height="16" viewBox="0 0 16 16" fill="none" xmlns="http://www.w3.org/2000/svg">
<g clip-path="url(#clip0_12674_109599)">
<path d="M2.56698 9.98954C2.56699 9.952 2.55961 9.91483 2.54525 9.88015C2.53089 9.84547 2.50984 9.81396 2.48329 9.78742C2.45675 9.76087 2.42524 9.73982 2.39056 9.72546C2.35588 9.7111 2.31871 9.70372 2.28117 9.70373C1.96047 9.70399 1.64618 9.61387 1.37434 9.44372C1.12449 9.28307 0.919907 9.06115 0.780073 8.79908C0.64024 8.53701 0.569805 8.24351 0.575474 7.94652C0.581144 7.64953 0.662727 7.35893 0.81246 7.10239C0.962194 6.84585 1.17509 6.63189 1.43089 6.4809C1.46325 6.44484 1.48627 6.40141 1.49797 6.3544C1.50966 6.30739 1.50967 6.25823 1.49798 6.21122C1.40819 5.90806 1.40337 5.58607 1.48406 5.28037C1.56474 4.97466 1.72782 4.69698 1.95552 4.47762C2.18321 4.25826 2.46677 4.10563 2.77527 4.0364C3.08377 3.96716 3.40536 3.98397 3.70496 4.08499C3.77584 4.10884 3.85325 4.10397 3.92058 4.07142C3.98792 4.03887 4.03981 3.98123 4.06515 3.91086C4.09048 3.84049 4.08723 3.763 4.0561 3.695C4.02496 3.627 3.96842 3.5739 3.8986 3.5471C2.28081 2.93103 0.4955 4.47601 0.90504 6.16807C-0.838329 7.46073 0.109206 10.287 2.28118 10.2753C2.31871 10.2754 2.35588 10.268 2.39056 10.2536C2.42524 10.2392 2.45675 10.2182 2.48329 10.1917C2.50983 10.1651 2.53088 10.1336 2.54524 10.0989C2.5596 10.0642 2.56699 10.0271 2.56698 9.98954Z" fill="currentcolor"/>
<path d="M13.8608 13.0497C13.7954 13.0114 13.7175 13.0005 13.6442 13.0196C13.5708 13.0386 13.508 13.086 13.4695 13.1513C13.3542 13.3454 13.2018 13.5148 13.0209 13.6498C12.84 13.7848 12.6342 13.8827 12.4154 13.938C12.1965 13.9933 11.9689 14.0048 11.7456 13.9718C11.5223 13.9389 11.3077 13.8622 11.1141 13.7461C11.082 13.7266 11.0463 13.7137 11.0092 13.708C10.9721 13.7024 10.9342 13.7041 10.8977 13.7131C10.8613 13.7221 10.827 13.7383 10.7968 13.7606C10.7665 13.7829 10.741 13.8109 10.7217 13.8431C10.477 14.3672 11.5684 14.5365 11.921 14.5571C11.6771 14.9041 11.3292 15.1646 10.9275 15.301C10.5259 15.4375 10.0913 15.4427 9.6865 15.3161C9.28168 15.1895 8.92757 14.9375 8.67527 14.5965C8.42298 14.2555 8.28555 13.8432 8.28282 13.4191C8.28281 13.4191 8.28281 12.6739 8.28281 12.2601C9.36718 12.1889 10.3839 11.7079 11.1267 10.9147C11.8695 10.1215 12.2828 9.07545 12.2828 7.98874C12.2828 6.90203 11.8695 5.85599 11.1267 5.06279C10.3839 4.26959 9.36718 3.7886 8.28281 3.71738V2.55836C8.33179 0.29213 11.3981 -0.193809 12.1901 1.91567C12.2338 1.96903 12.2928 2.00764 12.3592 2.02625C12.742 2.10944 13.0849 2.32088 13.3312 2.62556C13.5774 2.93024 13.7122 3.30987 13.7132 3.7016C13.726 3.88836 13.6354 4.03556 13.7285 4.19553C14.0586 4.4238 14.3155 4.74292 14.4679 5.11421C14.4949 5.18396 14.5482 5.24033 14.6163 5.27123C14.6845 5.30213 14.762 5.30509 14.8323 5.27948C14.9026 5.25386 14.96 5.20172 14.9923 5.13423C15.0246 5.06675 15.0291 4.9893 15.0049 4.91851C14.8578 4.52429 14.6049 4.17818 14.2742 3.91808C14.3225 3.38626 14.1838 2.85424 13.882 2.4137C13.5802 1.97316 13.1342 1.65167 12.6208 1.50465C12.4206 1.06609 12.1012 0.692597 11.699 0.426724C11.2969 0.160851 10.8281 0.0132901 10.3462 0.000856283C9.86422 -0.0115776 9.38848 0.111615 8.97314 0.356397C8.5578 0.601179 8.21958 0.957707 7.997 1.38535C7.06483 -0.504069 4.22323 -0.457245 3.3728 1.50564C2.94493 1.55986 1.57109 2.51939 2.13317 2.92777C2.19856 2.96607 2.27647 2.97688 2.34982 2.95784C2.42317 2.9388 2.48598 2.89145 2.52449 2.82618C2.63975 2.63211 2.7922 2.46271 2.9731 2.3277C3.154 2.1927 3.35979 2.09476 3.57864 2.03949C3.79749 1.98423 4.0251 1.97273 4.24841 2.00566C4.47171 2.03859 4.68632 2.1153 4.8799 2.23139C4.94483 2.27045 5.02259 2.28218 5.09615 2.264C5.16971 2.24582 5.23306 2.19922 5.27232 2.13441C5.51699 1.61022 4.42561 1.44096 4.07301 1.42035C4.31696 1.07336 4.66485 0.812856 5.06648 0.676441C5.4681 0.540026 5.90269 0.534754 6.3075 0.661385C6.71232 0.788016 7.06643 1.04 7.31872 1.38097C7.57102 1.72194 7.70845 2.13425 7.71117 2.55841C7.71119 2.55839 7.71119 3.30357 7.71119 3.71739C6.62682 3.78861 5.61012 4.2696 4.86731 5.0628C4.12449 5.856 3.71117 6.90204 3.71117 7.98875C3.71117 9.07546 4.12449 10.1215 4.86731 10.9147C5.61012 11.7079 6.62682 12.1889 7.71119 12.2601V13.4191C7.66217 15.6854 4.59592 16.1712 3.80394 14.0618C3.76027 14.0084 3.7012 13.9698 3.63479 13.9512C3.25199 13.868 2.90909 13.6566 2.66286 13.3519C2.41663 13.0472 2.28185 12.6676 2.28082 12.2759C2.26796 12.0892 2.3587 11.9418 2.26549 11.7819C1.93539 11.5537 1.67858 11.2346 1.52614 10.8633C1.49918 10.7934 1.44589 10.737 1.37772 10.706C1.30956 10.675 1.23197 10.672 1.16162 10.6977C1.09128 10.7233 1.03379 10.7755 1.00153 10.8431C0.969271 10.9106 0.964804 10.9881 0.989092 11.059C1.13625 11.4532 1.38905 11.7993 1.71981 12.0594C1.67151 12.5912 1.81021 13.1233 2.11201 13.5638C2.41382 14.0043 2.85983 14.3258 3.37319 14.4728C3.57343 14.9114 3.89282 15.2849 4.29498 15.5508C4.69715 15.8166 5.1659 15.9642 5.64785 15.9766C6.12979 15.9891 6.60553 15.8659 7.02086 15.6211C7.4362 15.3763 7.77442 15.0198 7.997 14.5921C8.92915 16.4815 11.7708 16.4347 12.6212 14.4718C13.0494 14.4174 14.4228 13.4581 13.8608 13.0497ZM4.28261 7.98873C4.28261 7.2541 4.50046 6.53596 4.9086 5.92513C5.31674 5.3143 5.89685 4.83822 6.57557 4.55709C7.25428 4.27595 8.00112 4.2024 8.72164 4.34572C9.44216 4.48904 10.104 4.8428 10.6235 5.36226C11.1429 5.88173 11.4967 6.54357 11.64 7.26409C11.7833 7.98461 11.7098 8.73145 11.4286 9.41017C11.1475 10.0889 10.6714 10.669 10.0606 11.0771C9.44978 11.4853 8.73164 11.7031 7.997 11.7031C7.01223 11.702 6.0681 11.3103 5.37176 10.614C4.67542 9.91763 4.28373 8.97351 4.28261 7.98873Z" fill="currentcolor"/>
<path d="M16 7.98879C15.9976 7.38312 15.7559 6.80295 15.3276 6.37468C14.8994 5.94641 14.3192 5.70474 13.7135 5.70233C13.6379 5.70257 13.5654 5.73279 13.512 5.78637C13.4586 5.83994 13.4286 5.9125 13.4286 5.98814C13.4286 6.06378 13.4586 6.13634 13.512 6.18991C13.5654 6.24348 13.6379 6.2737 13.7135 6.27393C14.0876 6.27445 14.4513 6.3971 14.7493 6.62324C15.0472 6.84938 15.2632 7.16664 15.3644 7.52678C15.4655 7.88692 15.4463 8.27024 15.3097 8.61846C15.173 8.96668 14.9264 9.26075 14.6073 9.45596C14.3501 9.66001 14.6149 10.0103 14.5709 10.2753C14.5681 10.5481 14.5007 10.8164 14.3742 11.0582C14.2477 11.2999 14.0657 11.5083 13.8431 11.6661C13.6205 11.8239 13.3637 11.9267 13.0937 11.9661C12.8236 12.0055 12.5482 11.9803 12.2898 11.8927C12.2185 11.8672 12.14 11.871 12.0716 11.9033C12.0031 11.9356 11.9503 11.9938 11.9246 12.065C11.899 12.1362 11.9026 12.2147 11.9348 12.2832C11.9669 12.3518 12.0249 12.4047 12.0961 12.4305C12.478 12.5659 12.8891 12.5971 13.2871 12.5208C13.6851 12.4446 14.0556 12.2637 14.3604 11.9968C14.6653 11.7299 14.8936 11.3865 15.0218 11.0021C15.1499 10.6177 15.1734 10.2061 15.0897 9.80962C15.3729 9.59815 15.6028 9.32334 15.7608 9.00718C15.9189 8.69102 16.0008 8.34226 16 7.98879Z" fill="currentcolor"/>
<path d="M6.05765 7.08652V7.94745L5.37794 6.92805C5.3433 6.87811 5.29373 6.84044 5.23634 6.82044C5.17895 6.80045 5.1167 6.79916 5.05854 6.81677C5.00037 6.83438 4.94929 6.86998 4.91262 6.91845C4.87596 6.96691 4.85561 7.02576 4.85449 7.08652V8.89098C4.85449 8.96676 4.8846 9.03943 4.93818 9.09301C4.99176 9.1466 5.06444 9.1767 5.14021 9.1767C5.21599 9.1767 5.28867 9.1466 5.34225 9.09301C5.39583 9.03943 5.42594 8.96676 5.42594 8.89098V8.03004L6.10564 9.04946C6.13966 9.10048 6.18919 9.1392 6.24691 9.1599C6.30463 9.1806 6.36747 9.18218 6.42616 9.16441C6.48485 9.14665 6.53626 9.11047 6.57281 9.06123C6.60935 9.01199 6.62908 8.9523 6.62909 8.89098V7.08654C6.62759 7.01175 6.59684 6.94053 6.54342 6.88816C6.49 6.8358 6.41818 6.80647 6.34338 6.80647C6.26857 6.80646 6.19675 6.83579 6.14333 6.88815C6.08991 6.94051 6.05915 7.01173 6.05765 7.08652Z" fill="currentcolor"/>
<path d="M11.1403 7.56774C11.1401 7.3644 11.0592 7.16945 10.9154 7.02568C10.7716 6.8819 10.5766 6.80105 10.3733 6.80084H9.65144C9.61392 6.80083 9.57676 6.80822 9.54209 6.82257C9.50742 6.83693 9.47592 6.85797 9.44939 6.88451C9.42285 6.91104 9.40181 6.94254 9.38745 6.97721C9.3731 7.01188 9.36571 7.04904 9.36572 7.08656V8.89102C9.36572 8.9668 9.39583 9.03948 9.44941 9.09306C9.50299 9.14664 9.57567 9.17674 9.65144 9.17674C9.72722 9.17674 9.7999 9.14664 9.85348 9.09306C9.90706 9.03948 9.93717 8.9668 9.93717 8.89102V8.33464H10.3733C10.5766 8.33444 10.7716 8.25358 10.9154 8.10981C11.0592 7.96604 11.1401 7.77109 11.1403 7.56774ZM10.3733 7.7632H9.93717V7.37229H10.3733C10.4251 7.37229 10.4748 7.39288 10.5115 7.42953C10.5481 7.46619 10.5687 7.51591 10.5687 7.56774C10.5687 7.61958 10.5481 7.6693 10.5115 7.70595C10.4748 7.74261 10.4251 7.7632 10.3733 7.7632Z" fill="currentcolor"/>
<path d="M8.59923 8.6053H7.6818V7.08656C7.6818 7.01079 7.65169 6.93811 7.59811 6.88453C7.54453 6.83094 7.47185 6.80084 7.39607 6.80084C7.3203 6.80084 7.24762 6.83094 7.19404 6.88453C7.14045 6.93811 7.11035 7.01079 7.11035 7.08656V8.89102C7.11034 8.92855 7.11773 8.96571 7.13208 9.00038C7.14644 9.03505 7.16748 9.06655 7.19402 9.09308C7.22055 9.11961 7.25205 9.14066 7.28672 9.15502C7.32139 9.16937 7.35855 9.17675 7.39607 9.17674H8.59923C8.67501 9.17674 8.74769 9.14664 8.80127 9.09306C8.85485 9.03948 8.88495 8.9668 8.88495 8.89102C8.88495 8.81524 8.85485 8.74257 8.80127 8.68899C8.74769 8.6354 8.67501 8.6053 8.59923 8.6053Z" fill="currentcolor"/>
</g>
<defs>
<clipPath id="clip0_12674_109599">
<rect width="16" height="16" fill="currentcolor"/>
</clipPath>
</defs>
</svg>
