<svg width="16" height="16" viewBox="0 0 16 16" fill="none" xmlns="http://www.w3.org/2000/svg">
<path fill-rule="evenodd" clip-rule="evenodd" d="M16 10.8281C16 8.49597 14.4286 6.45837 12.2126 5.84436C12.0734 2.59814 9.38928 0 6.10938 0C2.7406 0 0 2.7406 0 6.10938C0 7.20728 0.292236 8.27625 0.847168 9.21472L0.0224609 12.1962L3.00403 11.3716C3.8667 11.8817 4.83984 12.1691 5.84424 12.2124C6.45813 14.4285 8.49585 16 10.8281 16C11.759 16 12.6643 15.7521 13.4597 15.281L15.9774 15.9774L15.281 13.4597C15.7521 12.6643 16 11.759 16 10.8281ZM3.15198 10.3579L1.36707 10.8517L1.86084 9.06677L1.74829 8.89075C1.2179 8.06091 0.9375 7.09912 0.9375 6.10938C0.9375 3.25757 3.25757 0.9375 6.10938 0.9375C8.96118 0.9375 11.2812 3.25757 11.2812 6.10938C11.2812 8.96118 8.96118 11.2812 6.10938 11.2812C5.11963 11.2812 4.15796 11.0009 3.328 10.4705L3.15198 10.3579ZM14.6329 14.6329L13.3085 14.2665L13.1316 14.3816C12.4459 14.827 11.6493 15.0625 10.8281 15.0625C8.99512 15.0625 7.3844 13.8773 6.81372 12.1779C9.62061 11.8542 11.8542 9.62061 12.178 6.8136C13.8773 7.3844 15.0625 8.99512 15.0625 10.8281C15.0625 11.6493 14.827 12.4459 14.3816 13.1316L14.2665 13.3085L14.6329 14.6329ZM6.57812 8.46875V9.40625H5.64062V8.46875H6.57812ZM6.7417 5.37952C6.93848 5.19946 7.04687 4.95374 7.04687 4.6875C7.04687 4.17053 6.62634 3.75 6.10937 3.75C5.59241 3.75 5.17187 4.17053 5.17187 4.6875H4.23437C4.23437 3.65356 5.07544 2.8125 6.10937 2.8125C7.14331 2.8125 7.98437 3.65356 7.98437 4.6875C7.98437 5.21228 7.76208 5.71655 7.37463 6.07117L6.57812 6.80017V7.53125H5.64062V6.38733L6.7417 5.37952Z" fill="currentColor"/>
</svg>
