<svg width="14" height="14" viewBox="0 0 14 14" fill="none" xmlns="http://www.w3.org/2000/svg">
<path d="M14 7C14 10.866 10.866 14 7 14C3.13401 14 0 10.866 0 7C0 3.13401 3.13401 0 7 0C10.866 0 14 3.13401 14 7ZM1.75 7C1.75 9.8995 4.1005 12.25 7 12.25C9.8995 12.25 12.25 9.8995 12.25 7C12.25 4.1005 9.8995 1.75 7 1.75C4.1005 1.75 1.75 4.1005 1.75 7Z" fill="currentColor"/>
<path d="M1 7C1 6.44772 1.44772 6 2 6H12C12.5523 6 13 6.44772 13 7C13 7.55228 12.5523 8 12 8H2C1.44772 8 1 7.55228 1 7Z" fill="currentColor"/>
</svg>
