<svg width="87" height="114" viewBox="0 0 87 114" fill="none" xmlns="http://www.w3.org/2000/svg">
<path fill-rule="evenodd" clip-rule="evenodd" d="M60.376 60.75C45.8822 60.75 34.126 72.5119 34.126 87C34.126 101.488 45.8822 113.25 60.376 113.25C74.8697 113.25 86.626 101.488 86.626 87C86.626 72.5119 74.8697 60.75 60.376 60.75ZM49.126 8.25V30.75H75.376V60.75H82.876V25.4475L58.1824 0.75H15.376C7.08848 0.75 0.375977 7.46625 0.375977 15.75V94.5C0.375977 102.784 7.08848 109.5 15.376 109.5H34.126V102C34.126 102 28.1635 102 15.376 102C11.2322 102 7.87598 98.6419 7.87598 94.5V15.75C7.87598 11.6081 11.2322 8.25 15.376 8.25H49.126ZM44.7383 76.6612L70.7072 102.641C67.7447 104.606 64.201 105.75 60.376 105.75C50.026 105.75 41.626 97.3481 41.626 87C41.626 83.1806 42.7696 79.6256 44.7383 76.6612ZM76.0136 97.3388L50.0447 71.3587C53.0072 69.3937 56.551 68.25 60.376 68.25C70.726 68.25 79.126 76.6519 79.126 87C79.126 90.8194 77.9824 94.3744 76.0136 97.3388ZM56.626 23.25H70.0696L56.626 9.80251V23.25Z" fill="currentColor"/>
</svg>
