<svg width="120" height="120" viewBox="0 0 120 120" fill="none" xmlns="http://www.w3.org/2000/svg">
<path d="M97.5 22.5H82.5C79.7421 22.4918 77.5083 20.258 77.5001 17.5001V2.50008L97.5 22.5Z" fill="currentColor"/>
<path d="M97.5 22.5V112.5C97.4918 115.258 95.258 117.492 92.5001 117.5H12.4999C9.74203 117.492 7.5082 115.258 7.5 112.5V7.5C7.5082 4.74211 9.74203 2.50828 12.4999 2.50008H77.4998V17.5001C77.5083 20.258 79.7421 22.4918 82.5 22.5H97.5Z" fill="white"/>
<path d="M82.5 100C99.0685 100 112.5 86.5686 112.5 70.0001C112.5 53.4315 99.0685 40.0001 82.5 40.0001C65.9315 40.0001 52.5 53.4315 52.5 70.0001C52.5 86.5686 65.9315 100 82.5 100Z" fill="#FDFAFF"/>
<path d="M95.0716 58.5714H74.5001C72.6066 58.5714 71.0716 60.1064 71.0716 62V82.5714C71.0716 84.4649 72.6066 86 74.5001 86H95.0716C96.9651 86 98.5001 84.4649 98.5001 82.5714V62C98.5001 60.1064 96.9651 58.5714 95.0716 58.5714Z" fill="currentColor"/>
<path d="M90.5001 54H69.9286C68.0351 54 66.5001 55.535 66.5001 57.4285V78C66.5001 79.8935 68.0351 81.4285 69.9286 81.4285H90.5001C92.3936 81.4285 93.9286 79.8935 93.9286 78V57.4285C93.9286 55.535 92.3936 54 90.5001 54Z" fill="currentColor"/>
<path d="M87.0717 66.5714H81.3574V60.8571C81.3574 60.554 81.237 60.2633 81.0226 60.049C80.8083 59.8347 80.5176 59.7142 80.2145 59.7142C79.9114 59.7142 79.6207 59.8347 79.4064 60.049C79.1921 60.2633 79.0717 60.554 79.0717 60.8571V66.5714H73.3574C73.0543 66.5714 72.7636 66.6918 72.5493 66.9061C72.3349 67.1205 72.2145 67.4111 72.2145 67.7142C72.2145 68.0174 72.3349 68.308 72.5493 68.5224C72.7636 68.7367 73.0543 68.8571 73.3574 68.8571H79.0717V74.5714C79.0717 74.8745 79.1921 75.1652 79.4064 75.3795C79.6207 75.5938 79.9114 75.7142 80.2145 75.7142C80.5176 75.7142 80.8083 75.5938 81.0226 75.3795C81.237 75.1652 81.3574 74.8745 81.3574 74.5714V68.8571H87.0717C87.3748 68.8571 87.6655 68.7367 87.8798 68.5224C88.0941 68.308 88.2145 68.0174 88.2145 67.7142C88.2145 67.4111 88.0941 67.1205 87.8798 66.9061C87.6655 66.6918 87.3748 66.5714 87.0717 66.5714Z" fill="#F5F5F5"/>
<path d="M19.9999 15H45V19.9999H19.9999V15Z" fill="currentColor"/>
<path d="M19.9999 25.0001H24.9998V30H19.9999V25.0001Z" fill="currentColor"/>
<path d="M30 25.0001H34.9999V30H30V25.0001Z" fill="currentColor"/>
<path d="M94.9999 112.5C94.9999 113.881 93.8805 115 92.4998 115H12.4999C11.1192 115 9.99983 113.881 9.99983 112.5V7.5C9.99983 6.1193 11.1192 4.99992 12.4999 4.99992H75V17.4998C75 21.642 78.3579 24.9998 82.5 24.9998H87.4999V19.9999H82.5C81.1193 19.9999 79.9999 18.8805 79.9999 17.4998V8.535L94.9999 23.535V32.5001H99.9998V22.5C99.9996 21.837 99.7362 21.2013 99.2674 20.7326L79.2675 0.732422C78.7987 0.263438 78.1629 0 77.5001 0H12.4999C8.3578 0 4.99991 3.35789 4.99991 7.5V112.5C4.99991 116.642 8.3578 120 12.4999 120H92.4998C96.6419 120 99.9998 116.642 99.9998 112.5V107.5H94.9999V112.5Z" fill="currentColor"/>
<path d="M82.5 37.5C64.5508 37.5 49.9999 52.0507 49.9999 70.0001C49.9999 87.9495 64.5508 102.5 82.5 102.5C100.449 102.5 115 87.9492 115 69.9998C114.979 52.0594 100.441 37.5206 82.5 37.5ZM82.5 97.5C67.3123 97.5 55.0001 85.1878 55.0001 70.0001C55.0001 54.8123 67.3123 42.4999 82.5 42.4999C97.6877 42.4999 110 54.8121 110 69.9998C109.982 85.1803 97.6805 97.4822 82.5 97.5Z" fill="currentColor"/>
</svg>
