<svg width="121" height="121" viewBox="0 0 121 121" fill="none" xmlns="http://www.w3.org/2000/svg">
<g clip-path="url(#clip0_5382_30932)">
<path d="M58.9145 5.52071H13.7748C7.73823 5.52071 2.84479 10.387 2.84479 16.3895V97.0915C2.84479 103.094 7.73823 107.96 13.7748 107.96H65.9273C71.9638 107.96 76.8572 103.094 76.8572 97.0915V26.2608L58.9145 5.52071Z" fill="white"/>
<path d="M76.857 35.818C76.2387 35.787 75.6178 35.7713 74.9944 35.7713C65.2515 35.7713 56.0944 39.5718 49.2101 46.4728C35.0342 60.6834 35.0342 83.8055 49.2101 98.0161C54.2205 103.039 60.4347 106.419 67.2025 107.887C72.6381 107.259 76.857 102.665 76.857 97.0915V35.818Z" fill="white"/>
<path d="M58.9146 26.2608H76.857L58.9146 5.52071V26.2608Z" fill="white"/>
<path d="M47.6293 86.3579L45.3719 93.4883H20.2798V79.2273H39.2461L45.9098 82.35L47.6293 86.3579Z" fill="#9E30B0"/>
<path d="M45.3719 93.4883H61.234V79.2273H39.2461C40.2209 84.2719 42.2628 89.1483 45.3719 93.4883Z" fill="#9E30B0"/>
<path d="M74.9941 98.2046C89.2966 98.2046 100.891 86.5819 100.891 72.2446C100.891 57.9073 89.2966 46.2846 74.9941 46.2846C60.6916 46.2846 49.0972 57.9073 49.0972 72.2446C49.0972 86.5819 60.6916 98.2046 74.9941 98.2046Z" fill="#8D359C"/>
<path d="M116.66 113.971C114.656 115.98 111.403 115.982 109.397 113.975L96.1038 100.679L103.359 93.4056L116.656 106.706C118.661 108.712 118.663 111.964 116.66 113.971Z" fill="#71347B"/>
<path d="M56.8663 55.4009H20.2799C18.9854 55.4009 17.936 54.3516 17.936 53.0571C17.936 51.7626 18.9854 50.7132 20.2799 50.7132H56.8665C58.161 50.7132 59.2104 51.7626 59.2104 53.0571C59.2104 54.3516 58.1608 55.4009 56.8663 55.4009Z" fill="#71347B"/>
<path d="M49.7692 67.2698H20.2799C18.9854 67.2698 17.936 66.2205 17.936 64.926C17.936 63.6315 18.9854 62.5821 20.2799 62.5821H49.7692C51.0637 62.5821 52.113 63.6315 52.113 64.926C52.113 66.2205 51.0637 67.2698 49.7692 67.2698Z" fill="#71347B"/>
<path d="M61.2338 43.532H20.2799C18.9854 43.532 17.936 42.4826 17.936 41.1881C17.936 39.8937 18.9854 38.8443 20.2799 38.8443H61.2338C62.5283 38.8443 63.5776 39.8937 63.5776 41.1881C63.5776 42.4826 62.5283 43.532 61.2338 43.532Z" fill="#71347B"/>
<path d="M43.9835 31.6631H20.2799C18.9854 31.6631 17.936 30.6137 17.936 29.3192C17.936 28.0247 18.9854 26.9754 20.2799 26.9754H43.9835C45.278 26.9754 46.3273 28.0247 46.3273 29.3192C46.3273 30.6137 45.278 31.6631 43.9835 31.6631Z" fill="#71347B"/>
<path d="M118.314 105.049L105.017 91.7485C104.577 91.3088 103.981 91.0618 103.359 91.0618H103.358C102.736 91.062 102.139 91.3097 101.7 91.7504L99.7316 93.7234L96.5492 90.5332C105.945 79.4258 105.417 62.7101 94.9654 52.2327C90.6362 47.8929 85.1483 45.1354 79.2009 44.2506V26.2608C79.2009 25.6976 78.9981 25.1531 78.6294 24.7274L60.687 3.98738C60.2419 3.47268 59.595 3.17689 58.9143 3.17689H13.7748C6.45547 3.17689 0.500977 9.10419 0.500977 16.3895V97.0915C0.500977 104.377 6.45547 110.304 13.7748 110.304H65.9271C72.0297 110.304 77.3506 106.084 78.8066 100.294C84.1381 99.5778 89.1148 97.3613 93.2385 93.8519L96.4207 97.042L94.4444 99.0233C93.531 99.9388 93.5317 101.421 94.446 102.336L107.739 115.632C109.152 117.045 111.029 117.823 113.026 117.823H113.03C115.029 117.822 116.907 117.042 118.319 115.626C121.23 112.709 121.228 107.964 118.314 105.049ZM91.6468 88.9457C87.1985 93.4049 81.2845 95.8607 74.9941 95.8607C68.704 95.8607 62.7901 93.4049 58.3417 88.9457C49.1551 79.7366 49.1551 64.7525 58.3417 55.5434C62.7901 51.0843 68.704 48.6284 74.9941 48.6284C81.2843 48.6284 87.1985 51.0843 91.6468 55.5434C100.833 64.7525 100.833 79.7366 91.6468 88.9457ZM65.9271 105.616H13.7748C9.04048 105.616 5.18863 101.792 5.18863 97.0915V16.3895C5.18863 11.6887 9.04048 7.86454 13.7748 7.86454H57.8432L74.5134 27.1339V43.9447C67.1489 44.0671 60.244 46.9992 55.0233 52.2327C44.0155 63.2672 44.0155 81.2219 55.0233 92.2564C60.0719 97.3174 66.6956 100.226 73.7868 100.523C72.4406 103.538 69.3772 105.616 65.9271 105.616ZM115.001 112.316C114.474 112.844 113.774 113.135 113.028 113.135H113.027C112.282 113.135 111.581 112.845 111.054 112.318L99.4161 100.677L103.361 96.7226L114.999 108.363C116.088 109.453 116.089 111.225 115.001 112.316Z" fill="#71347B"/>
<path d="M78.2987 72.2446L83.0537 67.4603C83.9661 66.5423 83.9617 65.0582 83.0436 64.1457C82.1257 63.2333 80.6416 63.2377 79.7289 64.1558L74.9942 68.9196L70.2594 64.1558C69.3465 63.2375 67.8626 63.2333 66.9448 64.1457C66.0267 65.0584 66.022 66.5423 66.9347 67.4603L71.6896 72.2446L66.9347 77.0288C66.0222 77.9469 66.0267 79.431 66.9448 80.3434C67.402 80.7979 67.9995 81.0248 68.5969 81.0248C69.199 81.0248 69.8014 80.7941 70.2594 80.3331L74.9942 75.5693L79.7289 80.3331C80.1872 80.7941 80.789 81.0248 81.3914 81.0248C81.9889 81.0248 82.5865 80.7977 83.0436 80.3434C83.9617 79.4307 83.9663 77.9469 83.0537 77.0288L78.2987 72.2446Z" fill="white"/>
</g>
<defs>
<clipPath id="clip0_5382_30932">
<rect width="120" height="120" fill="white" transform="translate(0.500977 0.5)"/>
</clipPath>
</defs>
</svg>
