<svg width="16" height="16" viewBox="0 0 16 16" fill="none" xmlns="http://www.w3.org/2000/svg">
<path d="M12.9691 10.1187V7.07871C12.9691 4.82065 11.5284 2.85163 9.54476 2.11615C9.56791 2.00001 9.58076 1.88132 9.58076 1.76259C9.5808 0.789693 8.79352 0 7.82359 0C6.85365 0 6.06637 0.789693 6.06637 1.76259C6.06637 1.87873 6.07921 1.99483 6.09979 2.10581C5.41803 2.34839 4.78769 2.7329 4.24999 3.25419C3.23632 4.23484 2.67803 5.55354 2.67803 6.96774V10.1187C2.67803 10.2297 2.58798 10.3226 2.47477 10.3226C1.52542 10.3226 0.714972 11.04 0.627496 11.9536C0.578602 12.462 0.745864 12.9678 1.08804 13.3445C1.42763 13.7187 1.91391 13.9355 2.42072 13.9355H5.52351C5.65214 15.0942 6.63496 16 7.82359 16C9.01221 16 9.99503 15.0942 10.1237 13.9355H13.2265C13.7333 13.9355 14.2195 13.7187 14.5591 13.3445C14.8987 12.9678 15.066 12.462 15.0197 11.9536C14.9322 11.04 14.1192 10.3226 13.1724 10.3226C13.0592 10.3226 12.9691 10.2322 12.9691 10.1187ZM7.82359 1.03224C8.22492 1.03224 8.55167 1.35998 8.55167 1.76255C8.55167 1.79607 8.54651 1.82706 8.54136 1.86059C8.3664 1.83477 8.18887 1.81672 8.01134 1.81155C7.70517 1.8012 7.40416 1.82189 7.10573 1.86318C7.10057 1.82965 7.09542 1.79866 7.09542 1.76513C7.0955 1.35998 7.42225 1.03224 7.82359 1.03224ZM7.82359 14.9677C7.20356 14.9677 6.68386 14.5238 6.56291 13.9355H9.08422C8.96336 14.5239 8.44365 14.9677 7.82359 14.9677ZM13.9957 12.0516C14.0163 12.2736 13.9468 12.4877 13.8002 12.6503C13.6484 12.8129 13.4477 12.9032 13.2265 12.9032H2.42076C2.19949 12.9032 1.99885 12.8129 1.84959 12.6503C1.70037 12.4877 1.6309 12.2735 1.65148 12.0516C1.68748 11.6619 2.05028 11.3548 2.47477 11.3548C3.154 11.3548 3.70713 10.8 3.70713 10.1187V6.96774C3.70713 5.83741 4.15478 4.78195 4.96522 3.99742C5.73962 3.24647 6.74818 2.8387 7.82359 2.8387C7.87506 2.8387 7.92391 2.8387 7.97538 2.84128C10.1597 2.91869 11.94 4.82065 11.94 7.07871V10.1187C11.94 10.8 12.4932 11.3548 13.1724 11.3548C13.5969 11.3548 13.9571 11.6619 13.9957 12.0516Z" fill="currentColor"/>
</svg>
