<svg width="21" height="20" viewBox="0 0 21 20" fill="none" xmlns="http://www.w3.org/2000/svg">
<g clip-path="url(#clip0_2699_12939)">
<path d="M16.8937 16.6281C20.4813 12.9675 20.4813 7.03249 16.8937 3.37187C13.3062 -0.28874 7.48963 -0.28874 3.90208 3.37187C0.314532 7.03249 0.314532 12.9675 3.90208 16.6281C7.48963 20.2887 13.3062 20.2887 16.8937 16.6281Z" fill="#F64C6E"/>
<path fill-rule="evenodd" clip-rule="evenodd" d="M19.4558 11.5903C18.802 15.4934 15.7839 18.5728 11.9588 19.2399L7.01266 14.193C5.82907 13.1963 5.07471 11.688 5.07471 9.99986C5.07471 6.99873 7.45896 4.56592 10.4002 4.56592C12.0546 4.56592 13.5328 5.33568 14.5096 6.54334L19.4558 11.5903Z" fill="#9C1732"/>
<path fill-rule="evenodd" clip-rule="evenodd" d="M15.7257 9.99986C15.7257 6.99873 13.3414 4.56592 10.4002 4.56592C7.45896 4.56592 5.07471 6.99873 5.07471 9.99986C5.07471 13.001 7.45896 15.4338 10.4002 15.4338C13.3414 15.4338 15.7257 13.001 15.7257 9.99986ZM12.9249 9.64978C12.9249 9.55787 12.9648 9.46879 13.0318 9.41147L13.4001 9.09613L13.3734 8.9905C13.3412 8.86285 13.2994 8.73668 13.2493 8.61531C13.199 8.49419 13.1393 8.37544 13.0718 8.26239L13.016 8.16883L12.534 8.20618C12.446 8.21298 12.3546 8.17811 12.2893 8.11256C12.2243 8.04761 12.1896 7.95637 12.1964 7.8685L12.2338 7.38509L12.1403 7.32926C12.0272 7.2618 11.9085 7.20211 11.7872 7.15177C11.666 7.10163 11.5398 7.05987 11.4121 7.02765L11.3065 7.00098L10.9921 7.36816C10.9348 7.4351 10.8452 7.47502 10.7524 7.47502L10.5758 7.47471V9.23258H10.7515C10.9808 9.23258 11.1674 9.41912 11.1674 9.64842C11.1674 9.87772 10.9808 10.0643 10.7515 10.0643H10.576L10.5742 11.8219L10.7502 11.8218C10.8422 11.8218 10.9312 11.8618 10.9885 11.9287L11.3038 12.297L11.4095 12.2703C11.5371 12.2381 11.6632 12.1963 11.7846 12.1461C11.9058 12.0959 12.0245 12.0362 12.1376 11.9687L12.2311 11.9129L12.1938 11.4309C12.187 11.3429 12.2219 11.2515 12.2874 11.1862C12.3524 11.1212 12.4435 11.0864 12.5315 11.0932L13.0149 11.1307L13.0707 11.0371C13.1382 10.9241 13.1979 10.8054 13.2482 10.684C13.2983 10.5628 13.3401 10.4367 13.3723 10.309L13.399 10.2034L13.0318 9.889C12.9647 9.83159 12.9248 9.74231 12.9249 9.64978ZM11.5188 9.64842C11.5188 9.28581 11.2659 8.98113 10.9272 8.90146V8.54357C11.4609 8.62813 11.8702 9.09135 11.8702 9.64842C11.8702 10.2057 11.4606 10.669 10.9267 10.7534L10.9271 10.3954C11.2658 10.3158 11.5188 10.0111 11.5188 9.64842ZM12.9235 10.5496C12.8934 10.6221 12.8594 10.6937 12.822 10.7633L12.5586 10.7429C12.3668 10.728 12.1774 10.7991 12.0391 10.9376C11.8998 11.0763 11.8285 11.266 11.8434 11.4581L11.8637 11.7201C11.7941 11.7575 11.7225 11.7914 11.6501 11.8215C11.5776 11.8515 11.5029 11.8781 11.4273 11.9008L11.2554 11.7001C11.1687 11.5989 11.0537 11.5276 10.9259 11.4934L10.9263 11.1081C11.6548 11.0214 12.2216 10.3999 12.2216 9.64842C12.2216 8.89727 11.6553 8.27598 10.9272 8.18886V7.80386C11.0561 7.76983 11.172 7.69838 11.2591 7.59671L11.4299 7.39711C11.5056 7.4199 11.5802 7.44645 11.6527 7.47641C11.7252 7.5065 11.7967 7.54049 11.8664 7.57789L11.846 7.84134C11.8311 8.03306 11.9022 8.22252 12.0406 8.36087C12.1794 8.50012 12.3691 8.57147 12.5612 8.55654L12.8232 8.53624C12.8606 8.60589 12.8945 8.67741 12.9246 8.7498C12.9546 8.82235 12.9811 8.89698 13.0039 8.97269L12.8032 9.14454C12.6571 9.26959 12.5734 9.45381 12.5735 9.64955C12.5731 9.8461 12.6569 10.0307 12.8032 10.156L13.0028 10.3269C12.98 10.4025 12.9535 10.4771 12.9235 10.5496ZM9.63312 10.351C9.63312 10.1217 9.81966 9.93512 10.049 9.93512H10.2247V8.1775L10.0489 8.17756C9.95646 8.17756 9.87016 8.13861 9.81201 8.0707L9.49667 7.70239L9.39104 7.72907C9.26342 7.76128 9.13725 7.80304 9.01585 7.85324C8.8947 7.90351 8.77596 7.9632 8.66292 8.03066L8.56936 8.0865L8.6067 8.56846C8.61352 8.65649 8.57864 8.74787 8.51309 8.81318C8.44813 8.87819 8.35696 8.91292 8.26901 8.90614L7.7856 8.86868L7.72976 8.96224C7.6623 9.07528 7.60262 9.19402 7.55229 9.31536C7.50216 9.43655 7.46041 9.56272 7.42818 9.69035L7.4015 9.79599L7.76871 10.1104C7.83577 10.1678 7.87572 10.2571 7.87556 10.3496C7.87559 10.4415 7.83565 10.5306 7.7687 10.5879L7.40039 10.9033L7.42706 11.0089C7.4593 11.1365 7.50106 11.2627 7.55125 11.3841C7.60151 11.5052 7.66119 11.6239 7.72866 11.737L7.78449 11.8306L8.26646 11.7932C8.35447 11.7864 8.44587 11.8213 8.51118 11.8868C8.57619 11.9518 8.61094 12.043 8.60413 12.1309L8.56667 12.6143L8.66023 12.6701C8.77326 12.7376 8.89201 12.7973 9.01334 12.8476C9.13455 12.8977 9.26072 12.9395 9.38835 12.9717L9.49399 12.9984L9.80837 12.6312C9.86568 12.5643 9.95473 12.5244 10.0467 12.5244L10.2231 12.5247L10.2249 10.7668H10.049C9.81967 10.7668 9.63312 10.5803 9.63312 10.351ZM9.2817 10.351C9.2817 10.7135 9.53451 11.0182 9.87309 11.0979L9.87272 11.4557C9.33932 11.3709 8.93028 10.9078 8.93028 10.351C8.93028 9.79389 9.33959 9.33068 9.87325 9.24611V9.604C9.5346 9.68365 9.2817 9.98833 9.2817 10.351ZM9.54142 12.4027L9.37052 12.6023C9.29484 12.5795 9.22026 12.5529 9.14782 12.523C9.07529 12.4929 9.00373 12.4589 8.93407 12.4215L8.95449 12.158C8.96936 11.9663 8.89831 11.7769 8.75984 11.6385C8.62111 11.4993 8.43138 11.428 8.23931 11.4428L7.97731 11.4631C7.93991 11.3935 7.90595 11.322 7.87592 11.2496C7.84591 11.177 7.81934 11.1024 7.79653 11.0267L7.99725 10.8548C8.14332 10.7298 8.22706 10.5456 8.22697 10.3498C8.22732 10.1533 8.14359 9.9687 7.99726 9.84342L7.79766 9.67251C7.82045 9.59684 7.84701 9.52225 7.87697 9.44981C7.90707 9.37728 7.94105 9.30572 7.97845 9.23606L8.2419 9.25648C8.43362 9.27135 8.62308 9.20028 8.76143 9.06182C8.90067 8.92309 8.97198 8.73336 8.9571 8.54129L8.9368 8.27929C9.00643 8.2419 9.07796 8.20793 9.15035 8.1779C9.22293 8.14789 9.29756 8.12132 9.37324 8.09852L9.5451 8.29924C9.63163 8.40031 9.7462 8.47153 9.87327 8.50579V8.89138C9.14519 8.9785 8.57888 9.59978 8.57888 10.3509C8.57888 11.1018 9.14474 11.7229 9.87238 11.8104L9.872 12.1957C9.7438 12.2298 9.62835 12.3011 9.54142 12.4027ZM10.225 7.29932H9.87354V7.65073H10.225V7.29932ZM9.17041 7.00098H9.52183V7.3524H9.17041V7.00098ZM10.9276 12.3489H10.5762V12.7003H10.9276V12.3489ZM11.2788 12.647H11.6302V12.9984H11.2788V12.647Z" fill="white"/>
</g>
<defs>
<clipPath id="clip0_2699_12939">
<rect width="19.6008" height="20" fill="white" transform="translate(0.599609)"/>
</clipPath>
</defs>
</svg>
