<svg width="16" height="16" viewBox="0 0 16 16" fill="none" xmlns="http://www.w3.org/2000/svg">
<g clip-path="url(#clip0_612_23549)">
<path d="M14.8528 6.5487C15.2158 5.45917 15.0908 4.26564 14.5103 3.27464C13.6372 1.75461 11.8822 0.972574 10.1682 1.34061C9.40565 0.481574 8.31015 -0.00692579 7.16162 7.42116e-05C5.40959 -0.00392579 3.85506 1.12411 3.31603 2.79114C2.1905 3.02164 1.219 3.72617 0.650465 4.72467C-0.229035 6.2407 -0.0285351 8.15173 1.1465 9.45176C0.783496 10.5413 0.908496 11.7348 1.489 12.7258C2.36203 14.2459 4.11706 15.0279 5.83109 14.6599C6.59312 15.5189 7.68912 16.0074 8.83765 15.9999C10.5907 16.0044 12.1457 14.8754 12.6847 13.2068C13.8103 12.9763 14.7818 12.2718 15.3503 11.2733C16.2288 9.75726 16.0278 7.84773 14.8533 6.5477L14.8528 6.5487ZM8.83865 14.9544C8.13715 14.9554 7.45762 14.7099 6.91912 14.2604C6.94362 14.2474 6.98612 14.2239 7.01362 14.2069L10.1997 12.3669C10.3627 12.2744 10.4627 12.1009 10.4617 11.9134V7.4217L11.8082 8.19923C11.8227 8.20623 11.8322 8.22023 11.8342 8.23623V11.9558C11.8322 13.6099 10.4927 14.9509 8.83865 14.9544ZM2.3965 12.2028C2.045 11.5958 1.9185 10.8843 2.039 10.1938C2.0625 10.2078 2.104 10.2333 2.1335 10.2503L5.31956 12.0903C5.48106 12.1848 5.68106 12.1848 5.84306 12.0903L9.73265 9.84426V11.3993C9.73365 11.4153 9.72615 11.4308 9.71365 11.4408L6.49309 13.3003C5.05856 14.1264 3.22653 13.6353 2.397 12.2028L2.3965 12.2028ZM1.558 5.24817C1.908 4.64017 2.46053 4.17514 3.11853 3.93364C3.11853 3.96114 3.11703 4.00964 3.11703 4.04364V7.72423C3.11603 7.91123 3.21603 8.08473 3.37853 8.17723L7.26812 10.4228L5.92159 11.2003C5.90809 11.2093 5.89109 11.2108 5.87609 11.2043L2.65503 9.34326C1.2235 8.51423 0.732496 6.6827 1.5575 5.24867L1.558 5.24817ZM12.6212 7.82273L8.73162 5.57667L10.0782 4.79967C10.0917 4.79067 10.1087 4.78917 10.1237 4.79567L13.3447 6.6552C14.7787 7.4837 15.2702 9.31826 14.4417 10.7523C14.0912 11.3593 13.5392 11.8243 12.8817 12.0663V8.27573C12.8832 8.08873 12.7837 7.91573 12.6217 7.82273H12.6212ZM13.9612 5.80567C13.9377 5.79117 13.8962 5.76617 13.8667 5.74917L10.6807 3.90914C10.5192 3.81464 10.3192 3.81464 10.1572 3.90914L6.26759 6.15517V4.60014C6.26659 4.58414 6.27409 4.56864 6.28659 4.55864L9.50715 2.70061C10.9417 1.87307 12.7757 2.36561 13.6027 3.80064C13.9522 4.40667 14.0787 5.11617 13.9602 5.80567H13.9612ZM5.53559 8.57723L4.18856 7.79973C4.17406 7.79273 4.16456 7.77873 4.16256 7.76273V4.04314C4.16356 2.38711 5.50709 1.04507 7.16312 1.04607C7.86362 1.04607 8.54165 1.29207 9.08015 1.74007C9.05565 1.75307 9.01365 1.77657 8.98565 1.79357L5.79959 3.63364C5.63659 3.72614 5.53659 3.89914 5.53759 4.08664L5.53559 8.57623V8.57723ZM6.26709 7.0002L7.99962 5.99967L9.73215 6.9997V9.00023L7.99962 10.0003L6.26709 9.00023V7.0002Z" fill="black"/>
</g>
<defs>
<clipPath id="clip0_612_23549">
<rect width="16" height="16" fill="white"/>
</clipPath>
</defs>
</svg>
