<svg width="15" height="16" viewBox="0 0 15 16" fill="none" xmlns="http://www.w3.org/2000/svg">
<path d="M12.8483 2.1782C11.4453 0.726066 9.68556 0.0123062 7.50737 0H7.47045C5.26764 0 3.47093 0.713759 2.09264 2.20281C0.689734 3.64263 0.000586502 5.5624 0.000586502 7.9375C-0.0240259 10.0295 0.726652 12.0478 2.12956 13.5983C3.45863 15.1612 5.42762 16.0473 7.48275 15.9981H7.51967C9.68556 15.9857 11.4577 15.1858 12.8606 13.5737C14.2512 12.0232 15.0141 10.0049 14.9895 7.92519C14.9649 5.55009 14.2758 3.64263 12.8483 2.1782ZM10.227 9.21734C10.227 9.63575 10.1778 10.1034 10.1163 10.6572C10.0794 11.1248 9.99322 11.5924 9.84554 12.0355C9.72248 12.417 9.57481 12.7861 9.37791 13.143C9.20562 13.4876 8.93488 13.7706 8.60262 13.9675C8.27035 14.1521 7.90116 14.2506 7.51967 14.2506H7.50737C7.12587 14.2629 6.73208 14.1767 6.39981 13.9675C6.06754 13.7706 5.7968 13.4876 5.62452 13.143C5.42762 12.7984 5.26764 12.417 5.15688 12.0355C5.03382 11.5801 4.94768 11.1248 4.91076 10.6572C4.86153 10.1034 4.82462 9.63575 4.8 9.25426C4.77539 8.87277 4.77539 8.36821 4.77539 7.81443C4.77539 6.90378 4.8 6.1531 4.86153 5.52548C4.92307 4.88556 5.04613 4.25794 5.21841 3.65494C5.34148 3.10116 5.62452 2.59661 6.04293 2.20281C6.43673 1.85824 6.95359 1.68595 7.48275 1.71056H7.51967C8.03653 1.69825 8.52878 1.87054 8.92258 2.20281C9.31638 2.5843 9.61172 3.07655 9.78401 3.60572C9.98091 4.22102 10.104 4.86095 10.1655 5.51318C10.2147 6.17771 10.2516 6.91608 10.2763 7.80213C10.2516 8.35591 10.227 8.82354 10.227 9.21734Z" fill="url(#paint0_linear_4989_1639)"/>
<defs>
<linearGradient id="paint0_linear_4989_1639" x1="1.93143" y1="2.35196" x2="13.0132" y2="13.4336" gradientUnits="userSpaceOnUse">
<stop stop-color="#EF5350"/>
<stop offset="1" stop-color="#FF0000"/>
</linearGradient>
</defs>
</svg>
