<svg width="17" height="16" viewBox="0 0 17 16" fill="none" xmlns="http://www.w3.org/2000/svg">
<mask id="mask0_1348_31534" style="mask-type:alpha" maskUnits="userSpaceOnUse" x="1" y="0" width="16" height="16">
<path d="M16.1251 5.76894L15.0162 5.56707C14.9244 5.55134 14.8772 5.48842 14.8562 5.45434C14.8353 5.42026 14.8091 5.34686 14.8431 5.25772L15.3439 3.95738C15.4514 3.67948 15.3858 3.36226 15.1735 3.15253L13.7263 1.70538C13.514 1.49303 13.1994 1.42748 12.9215 1.53497L11.6211 2.03571C11.532 2.06979 11.4612 2.04095 11.4245 2.0226C11.3904 2.00163 11.3275 1.95706 11.3118 1.86268L11.1099 0.756341C11.0444 0.397175 10.7324 0.13501 10.368 0.13501H7.38978C7.02537 0.13501 6.71339 0.397175 6.64785 0.756341L6.44598 1.86268C6.43025 1.95444 6.36733 2.00163 6.33325 2.0226C6.29917 2.04357 6.22576 2.06979 6.13663 2.03571L4.83629 1.53497C4.55839 1.42748 4.24117 1.49303 4.03144 1.70538L2.58429 3.15253C2.37455 3.36226 2.30639 3.67948 2.41388 3.95738L2.91461 5.25772C2.9487 5.34686 2.91986 5.41764 2.90151 5.45434C2.88053 5.48842 2.83596 5.55134 2.74159 5.56707L1.63525 5.76894C1.27608 5.83448 1.01392 6.14646 1.01392 6.51087V9.48907C1.01392 9.85348 1.27608 10.1655 1.63525 10.231L2.74421 10.4329C2.83596 10.4486 2.88315 10.5115 2.90413 10.5456C2.9251 10.5797 2.95132 10.6531 2.91724 10.7422L2.4165 12.0426C2.30901 12.3204 2.37455 12.6377 2.58691 12.8474L4.03406 14.2946C4.24641 14.5069 4.56101 14.5724 4.83891 14.465L6.13925 13.9642C6.22838 13.9301 6.29917 13.959 6.33587 13.9773C6.36995 13.9983 6.43287 14.0429 6.4486 14.1373L6.65047 15.2436C6.71601 15.6028 7.02799 15.8649 7.3924 15.8649H10.3706C10.735 15.8649 11.047 15.6028 11.1125 15.2436L11.3144 14.1346C11.3301 14.0429 11.393 13.9957 11.4271 13.9747C11.4612 13.9537 11.5346 13.9275 11.6237 13.9616L12.9241 14.4623C13.202 14.5698 13.5192 14.5043 13.7289 14.2919L15.1761 12.8448C15.3858 12.635 15.454 12.3178 15.3465 12.0399L14.8458 10.7396C14.8117 10.6505 14.8405 10.5797 14.8589 10.543C14.8798 10.5089 14.9244 10.446 15.0188 10.4302L16.1251 10.2284C16.4843 10.1628 16.7465 9.85085 16.7465 9.48644V6.50825C16.7465 6.14384 16.4843 5.83186 16.1251 5.76632V5.76894ZM14.0593 8.78646C13.8731 10.016 13.2623 11.104 12.3762 11.8984C12.3473 11.9246 12.3185 11.9534 12.2896 11.977C12.211 12.0452 12.1271 12.1081 12.0458 12.171C11.9986 12.2077 11.9515 12.2418 11.9043 12.2759C11.8282 12.3309 11.7496 12.3807 11.6709 12.4306C11.6106 12.4673 11.5503 12.5066 11.49 12.5407C11.4166 12.5826 11.3406 12.6246 11.2646 12.6639C11.1938 12.7006 11.123 12.7347 11.0496 12.7688C10.9762 12.8028 10.9054 12.8343 10.8294 12.8631C10.7481 12.8946 10.6668 12.9261 10.5829 12.9523C10.5122 12.9759 10.4414 13.0021 10.3706 13.0231C10.2788 13.0493 10.1845 13.0729 10.0927 13.0938C10.0272 13.1096 9.95899 13.1279 9.89345 13.141C9.78597 13.162 9.67586 13.1777 9.56575 13.1908C9.50807 13.1987 9.45302 13.2092 9.39534 13.2144C9.22755 13.2302 9.05715 13.2407 8.88412 13.2407C8.71109 13.2407 8.54068 13.2302 8.3729 13.2144C8.31522 13.2092 8.26016 13.1987 8.20249 13.1908C8.09238 13.1777 7.98227 13.162 7.87478 13.141C7.80662 13.1279 7.74108 13.1096 7.67554 13.0938C7.58116 13.0729 7.4894 13.0493 7.39764 13.0231C7.32686 13.0021 7.25607 12.9759 7.18529 12.9523C7.10139 12.9234 7.02012 12.8946 6.93885 12.8631C6.86545 12.8343 6.79204 12.8002 6.71863 12.7688C6.64523 12.7347 6.57444 12.7006 6.50366 12.6639C6.42763 12.6246 6.3516 12.5852 6.27819 12.5407C6.2179 12.504 6.1576 12.4673 6.0973 12.4306C6.01865 12.3807 5.94 12.3309 5.86397 12.2759C5.81678 12.2418 5.76959 12.2051 5.7224 12.171C5.63851 12.1081 5.55724 12.0452 5.47859 11.977C5.44975 11.9508 5.42091 11.9246 5.39208 11.8984C4.50596 11.104 3.89511 10.016 3.70898 8.78646C3.66965 8.52954 3.64343 8.26738 3.64343 7.99997C3.64343 5.10828 5.99506 2.75666 8.88674 2.75666C11.7784 2.75666 14.13 5.10828 14.13 7.99997C14.13 8.26738 14.1038 8.52954 14.0645 8.78646H14.0593Z" fill="#301349"/>
</mask>
<g mask="url(#mask0_1348_31534)">
<rect x="0.471924" y="9.90198" width="16.7081" height="7.48332" fill="#301349"/>
</g>
<path d="M11.8035 5.38871L9.60798 7.03315C9.39464 6.89093 9.14131 6.81093 8.8702 6.81093C8.13687 6.81093 7.53687 7.41093 7.53687 8.14426C7.53687 8.8776 8.13687 9.4776 8.8702 9.4776C9.60353 9.4776 10.2035 8.8776 10.2035 8.14426C10.2035 8.00649 10.1769 7.87315 10.1369 7.74871L12.3369 6.09982C12.5324 5.95315 12.5724 5.67315 12.4258 5.4776C12.2791 5.28204 11.9991 5.24204 11.8035 5.38871Z" fill="#301349"/>
<path d="M0.870117 8.14423C0.870117 8.59757 0.919006 9.04201 0.990117 9.47757H2.48345C2.75456 9.47757 2.97678 9.23757 2.97678 8.94423C2.97678 8.61534 3.00789 8.29979 3.05234 7.98423L0.941228 7.1709C0.901228 7.4909 0.874562 7.81534 0.874562 8.14868L0.870117 8.14423Z" fill="#D02539"/>
<path d="M1.09668 6.27756L3.22557 7.09978C3.37668 6.54867 3.60335 6.03311 3.8789 5.55311L1.99001 4.09534C1.59446 4.76645 1.28779 5.49978 1.10112 6.27756H1.09668Z" fill="#D02539"/>
<path d="M2.479 3.35311L4.37678 4.81533C4.78123 4.29533 5.26123 3.84644 5.799 3.48644L4.72345 1.31311C3.85234 1.84644 3.08789 2.53978 2.479 3.35311Z" fill="#D02539"/>
<path d="M8.42557 0.157593C7.39001 0.215371 6.40334 0.473149 5.51001 0.890926L6.58112 3.05981C7.15445 2.79315 7.77668 2.6287 8.42557 2.57093V0.157593Z" fill="#FCC951"/>
<path d="M12.23 0.895393C11.3367 0.482059 10.35 0.224282 9.31445 0.166504V2.5665C9.96334 2.61984 10.5856 2.79317 11.1589 3.05984L12.23 0.895393Z" fill="#FCC951"/>
<path d="M13.0123 1.31755L11.9412 3.49089C12.4789 3.84644 12.9589 4.29978 13.3678 4.81533L15.2656 3.34867C14.6523 2.53533 13.8878 1.84644 13.0167 1.31311L13.0123 1.31755Z" fill="#FCC951"/>
<path d="M15.7591 4.09094L13.8657 5.55317C14.1102 5.97094 14.3057 6.42428 14.4568 6.90428L16.5991 6.07761C16.4079 5.37094 16.1279 4.70428 15.7635 4.09094H15.7591Z" fill="#089C08"/>
<path d="M14.6611 7.77542C14.7278 8.1532 14.7634 8.54431 14.7634 8.94431C14.7634 9.23764 14.9811 9.47764 15.2567 9.47764H16.75C16.8256 9.04209 16.87 8.59764 16.87 8.14431C16.87 7.73986 16.8389 7.34431 16.7767 6.95764L14.6611 7.77542Z" fill="#089C08"/>
</svg>
