<svg width="24" height="24" viewBox="0 0 24 24" fill="none" xmlns="http://www.w3.org/2000/svg">
<g clip-path="url(#clip0_2947_13306)">
<path fill-rule="evenodd" clip-rule="evenodd" d="M16.6411 4.24835C15.9661 4.24835 15.4159 4.79853 15.4159 5.47352V16.351C15.4159 17.026 15.9661 17.5762 16.6411 17.5762H17.8014C18.4763 17.5762 19.0265 17.026 19.0265 16.351V5.47352C19.0265 4.79853 18.4763 4.24835 17.8014 4.24835H16.6411ZM16.4159 5.47352C16.4159 5.35082 16.5184 5.24835 16.6411 5.24835H17.8014C17.9241 5.24835 18.0265 5.35082 18.0265 5.47352V16.351C18.0265 16.4737 17.9241 16.5762 17.8014 16.5762H16.6411C16.5184 16.5762 16.4159 16.4737 16.4159 16.351V5.47352ZM10.1947 7.7868C10.1947 7.11182 10.7449 6.56164 11.4199 6.56164H12.5801C13.2551 6.56164 13.8053 7.11182 13.8053 7.7868V16.351C13.8053 17.026 13.2551 17.5762 12.5801 17.5762H11.4199C10.7449 17.5762 10.1947 17.026 10.1947 16.351V7.7868ZM11.4199 7.56164C11.2972 7.56164 11.1947 7.66411 11.1947 7.7868V16.351C11.1947 16.4737 11.2972 16.5762 11.4199 16.5762H12.5801C12.7028 16.5762 12.8053 16.4737 12.8053 16.351V7.7868C12.8053 7.66411 12.7028 7.56164 12.5801 7.56164H11.4199ZM6.19868 8.87492C5.52369 8.87492 4.97351 9.42511 4.97351 10.1001V16.351C4.97351 17.026 5.52369 17.5762 6.19868 17.5762H7.35893C8.03391 17.5762 8.5841 17.026 8.5841 16.351V10.1001C8.5841 9.42511 8.03391 8.87492 7.35893 8.87492H6.19868ZM5.97351 10.1001C5.97351 9.97739 6.07598 9.87492 6.19868 9.87492H7.35893C7.48163 9.87492 7.5841 9.97739 7.5841 10.1001V16.351C7.5841 16.4737 7.48163 16.5762 7.35893 16.5762H6.19868C6.07598 16.5762 5.97351 16.4737 5.97351 16.351V10.1001ZM5.47357 18.7517C5.19742 18.7517 4.97357 18.9756 4.97357 19.2517C4.97357 19.5279 5.19742 19.7517 5.47357 19.7517H18.5266C18.8027 19.7517 19.0266 19.5279 19.0266 19.2517C19.0266 18.9756 18.8027 18.7517 18.5266 18.7517H5.47357Z" fill="currentColor"/>
</g>
<defs>
<clipPath id="clip0_2947_13306">
<path d="M0 4C0 1.79086 1.79086 0 4 0H20C22.2091 0 24 1.79086 24 4V20C24 22.2091 22.2091 24 20 24H4C1.79086 24 0 22.2091 0 20V4Z" fill="white"/>
</clipPath>
</defs>
</svg>
