<svg width="14" height="16" viewBox="0 0 14 16" fill="none" xmlns="http://www.w3.org/2000/svg">
<path fill-rule="evenodd" clip-rule="evenodd" d="M10.0058 2.15563C9.72708 2.05653 9.40188 2.00697 9.03022 2.00697C8.66473 2.00697 8.29002 2.05343 7.90594 2.14634C7.52187 2.23926 7.14404 2.36005 6.77238 2.50871C6.70213 2.53717 6.63301 2.56609 6.56514 2.59547C6.28216 2.71797 6.01999 2.84852 5.77863 2.98711C5.75477 3.00083 5.73113 3.01462 5.70764 3.02849C5.63301 3.07258 5.56047 3.11747 5.49 3.16315C5.28715 3.2946 5.10139 3.43262 4.93266 3.57724C4.80875 3.6949 4.67249 3.75377 4.52383 3.75377C4.37517 3.75377 4.23579 3.72278 4.10571 3.66086C3.97563 3.59894 3.86101 3.51839 3.76193 3.41928C3.53276 3.20248 3.41814 2.98258 3.41814 2.75958C3.41814 2.53039 3.49864 2.32598 3.65972 2.14634C3.8208 1.9667 4.0345 1.80565 4.30083 1.66318C4.56717 1.51452 4.87379 1.38444 5.22069 1.27294C5.5676 1.15525 5.92373 1.05613 6.28922 0.97561C7.03254 0.820754 7.76969 0.743322 8.5006 0.743322C9.23775 0.743322 9.90979 0.836237 10.5169 1.02207C11.1301 1.20171 11.635 1.44638 12.0314 1.7561C12.8305 2.37553 13.23 3.16222 13.23 4.11614V4.26481C13.1742 5.43554 12.7314 6.4669 11.9013 7.35888C11.1766 8.1332 10.2412 8.74332 9.09526 9.18931C8.06078 9.59814 7.08212 9.80256 6.15914 9.80256H5.91756C5.83706 9.80256 5.7596 9.79639 5.68527 9.78397C5.12778 11.1901 4.61675 12.2401 4.15217 12.9338C3.69376 13.6214 3.2416 14.182 2.79561 14.6156C2.35581 15.043 1.9284 15.2567 1.51338 15.2567C1.30277 15.2567 1.14482 15.2071 1.03951 15.108C0.859871 14.9469 0.770055 14.7952 0.770055 14.6527C0.770055 14.5102 0.816513 14.405 0.909428 14.3368C1.84477 13.6617 2.88235 11.6794 4.02209 8.39024L4.57029 6.82927C5.11603 5.28844 5.59013 4.25358 5.99256 3.72471C6.05604 3.64131 6.11781 3.57047 6.17772 3.5122C6.33255 3.39451 6.49363 3.33566 6.66088 3.33566C6.68303 3.33566 6.70489 3.33615 6.72629 3.33713C6.86633 3.34354 6.9901 3.37093 7.09758 3.41928C7.22149 3.46884 7.32987 3.53388 7.42279 3.6144C7.63337 3.80023 7.7387 4.01706 7.7387 4.26481C7.7387 4.35772 7.69536 4.49093 7.60862 4.66434C7.52187 4.83776 7.42279 5.06388 7.31129 5.34262L6.13126 8.62253C6.42926 8.56857 6.71693 8.50092 6.99426 8.41953C8.11794 8.08979 9.07222 7.5349 9.85716 6.75494C10.7739 5.84437 11.2323 4.90905 11.2323 3.9489C11.2323 3.03833 10.8235 2.44057 10.0058 2.15563ZM7.31545 7.52673C8.09817 7.22427 8.76753 6.7898 9.3332 6.2277L9.33335 6.22755C10.1597 5.40677 10.489 4.65007 10.489 3.9489C10.489 3.60474 10.4126 3.3841 10.3122 3.23728C10.2139 3.09361 10.0502 2.95826 9.7612 2.85755L9.75904 2.85679L9.75681 2.856C9.57552 2.79154 9.33788 2.75029 9.03022 2.75029C8.72821 2.75029 8.41215 2.78864 8.08077 2.86882C7.97931 2.89335 7.87837 2.92003 7.7778 2.94886C7.82306 2.98123 7.86707 3.01581 7.90959 3.05268L7.91211 3.05484L7.91457 3.05703C8.26133 3.36301 8.48202 3.77399 8.48202 4.26481C8.48202 4.54266 8.3674 4.80885 8.27344 4.99676C8.2006 5.14252 8.11162 5.34381 8.00622 5.60673L7.31545 7.52673ZM4.70743 4.48409C4.4434 5.04775 4.16436 5.749 3.86963 6.58115L3.86926 6.58204L3.32024 8.14539L3.31972 8.14688C2.75606 9.77349 2.22558 11.0533 1.73055 11.9991C1.22408 12.9667 0.796369 13.5017 0.474369 13.7341L0.472102 13.7358L0.469857 13.7374C0.140588 13.9788 0.0267334 14.3361 0.0267334 14.6527C0.0267334 15.1107 0.30591 15.4472 0.537574 15.6563C0.831342 15.9281 1.2017 16 1.51338 16C2.19727 16 2.80074 15.6471 3.31363 15.1486L3.31378 15.1485C3.80712 14.6689 4.29169 14.0645 4.77009 13.3469C5.21884 12.6767 5.68735 11.7354 6.17884 10.5459C7.20574 10.543 8.27032 10.3144 9.36665 9.88135C10.5991 9.40146 11.6324 8.73396 12.444 7.86687L12.4447 7.86605L12.4455 7.86524C13.39 6.85016 13.908 5.65385 13.9725 4.30019L13.9733 4.2825V4.11614C13.9733 2.91731 13.4552 1.91973 12.4878 1.16936C12.0014 0.789764 11.4078 0.508945 10.7301 0.30998C10.0434 0.100319 9.29819 0 8.5006 0C7.71677 0 6.92885 0.0830663 6.13758 0.247913L6.13342 0.248782L6.12926 0.249704C5.73968 0.335543 5.35903 0.441303 4.98751 0.567125C4.60716 0.689728 4.25787 0.836505 3.94434 1.0109C3.62248 1.18375 3.33623 1.39363 3.10624 1.65014C2.83002 1.95828 2.67482 2.33697 2.67482 2.75958C2.67482 3.25579 2.9323 3.65528 3.24383 3.95239C3.40275 4.1096 3.58494 4.23619 3.78616 4.332C4.01926 4.44298 4.2682 4.4971 4.52383 4.4971C4.58664 4.4971 4.64789 4.49264 4.70743 4.48409Z" fill="currentColor"/>
</svg>
