<svg width="68" height="28" viewBox="0 0 68 28" fill="none" xmlns="http://www.w3.org/2000/svg">
<rect opacity="0.8" x="31.6997" y="20.002" width="12" height="4" rx="2" fill="#CAB600"/>
<rect opacity="0.8" x="8.30078" y="11.9297" width="12" height="4" rx="2" fill="#7232F8"/>
<path d="M0.466667 14C0.466667 14.2946 0.705448 14.5333 1 14.5333C1.29455 14.5333 1.53333 14.2946 1.53333 14C1.53333 13.7054 1.29455 13.4667 1 13.4667C0.705448 13.4667 0.466667 13.7054 0.466667 14ZM8.30078 14L7.30078 13.4227L7.30078 14.5774L8.30078 14ZM1 14.1L7.40078 14.1L7.40078 13.9L1 13.9L1 14.1Z" fill="white"/>
<rect opacity="0.8" x="31.6997" y="4" width="12" height="4" rx="2" fill="#F85632"/>
<rect x="55.0469" width="12" height="4" rx="2" fill="#C532F8"/>
<rect opacity="0.8" x="55.0469" y="8" width="12" height="4" rx="2" fill="#C532F8"/>
<rect opacity="0.8" x="55.0469" y="16.002" width="12" height="4" rx="2" fill="#32B1F8"/>
<rect opacity="0.8" x="55.0469" y="24.002" width="12" height="4" rx="2" fill="#32B1F8"/>
<path d="M19.7674 13.9296C19.7674 14.2242 20.0062 14.463 20.3008 14.463C20.5953 14.463 20.8341 14.2242 20.8341 13.9296C20.8341 13.6351 20.5953 13.3963 20.3008 13.3963C20.0062 13.3963 19.7674 13.6351 19.7674 13.9296ZM31.6996 6L30.6996 5.42265V6.57735L31.6996 6ZM20.3008 14.0296H23.7192V13.8296H20.3008V14.0296ZM25.8192 11.9296V8H25.6192V11.9296H25.8192ZM27.7192 6.1H30.7996V5.9H27.7192V6.1ZM25.8192 8C25.8192 6.95066 26.6699 6.1 27.7192 6.1V5.9C26.5594 5.9 25.6192 6.8402 25.6192 8H25.8192ZM23.7192 14.0296C24.879 14.0296 25.8192 13.0894 25.8192 11.9296H25.6192C25.6192 12.979 24.7686 13.8296 23.7192 13.8296V14.0296Z" fill="white"/>
<path d="M43.1664 6C43.1664 6.29455 43.4052 6.53333 43.6997 6.53333C43.9943 6.53333 44.233 6.29455 44.233 6C44.233 5.70545 43.9943 5.46667 43.6997 5.46667C43.4052 5.46667 43.1664 5.70545 43.1664 6ZM55.0986 2L54.0986 1.42265V2.57735L55.0986 2ZM43.6997 6.1H47.1182V5.9H43.6997V6.1ZM51.1182 2.1H54.1986V1.9H51.1182V2.1ZM49.2182 4C49.2182 2.95066 50.0688 2.1 51.1182 2.1V1.9C49.9584 1.9 49.0182 2.8402 49.0182 4H49.2182ZM47.1182 6.1C48.278 6.1 49.2182 5.1598 49.2182 4H49.0182C49.0182 5.04934 48.1675 5.9 47.1182 5.9V6.1Z" fill="white"/>
<path d="M43.1664 22.002C43.1664 22.2965 43.4052 22.5353 43.6997 22.5353C43.9943 22.5353 44.233 22.2965 44.233 22.002C44.233 21.7074 43.9943 21.4686 43.6997 21.4686C43.4052 21.4686 43.1664 21.7074 43.1664 22.002ZM55.0986 18.002L54.0986 17.4246V18.5793L55.0986 18.002ZM43.6997 22.102H47.1182V21.902H43.6997V22.102ZM51.1182 18.102H54.1986V17.902H51.1182V18.102ZM49.2182 20.002C49.2182 18.9526 50.0688 18.102 51.1182 18.102V17.902C49.9584 17.902 49.0182 18.8422 49.0182 20.002H49.2182ZM47.1182 22.102C48.278 22.102 49.2182 21.1618 49.2182 20.002H49.0182C49.0182 21.0513 48.1675 21.902 47.1182 21.902V22.102Z" fill="white"/>
<path d="M43.1664 6C43.1664 5.70545 43.4052 5.46667 43.6997 5.46667C43.9943 5.46667 44.233 5.70545 44.233 6C44.233 6.29455 43.9943 6.53333 43.6997 6.53333C43.4052 6.53333 43.1664 6.29455 43.1664 6ZM55.0986 10L54.0986 10.5774V9.42265L55.0986 10ZM43.6997 5.9H47.1182V6.1H43.6997V5.9ZM51.1182 9.9H54.1986V10.1H51.1182V9.9ZM49.2182 8C49.2182 9.04934 50.0688 9.9 51.1182 9.9V10.1C49.9584 10.1 49.0182 9.1598 49.0182 8H49.2182ZM47.1182 5.9C48.278 5.9 49.2182 6.8402 49.2182 8H49.0182C49.0182 6.95066 48.1675 6.1 47.1182 6.1V5.9Z" fill="white"/>
<path d="M19.7674 13.9297C19.7674 13.6351 20.0062 13.3964 20.3008 13.3964C20.5953 13.3964 20.8341 13.6351 20.8341 13.9297C20.8341 14.2242 20.5953 14.463 20.3008 14.463C20.0062 14.463 19.7674 14.2242 19.7674 13.9297ZM31.6996 22.002L30.6996 22.5793V21.4246L31.6996 22.002ZM20.3008 13.8297H23.7192V14.0297H20.3008V13.8297ZM25.8192 15.9297V20.002H25.6192V15.9297H25.8192ZM27.7192 21.902H30.7996V22.102H27.7192V21.902ZM25.8192 20.002C25.8192 21.0513 26.6699 21.902 27.7192 21.902V22.102C26.5594 22.102 25.6192 21.1618 25.6192 20.002H25.8192ZM23.7192 13.8297C24.879 13.8297 25.8192 14.7699 25.8192 15.9297H25.6192C25.6192 14.8803 24.7686 14.0297 23.7192 14.0297V13.8297Z" fill="white"/>
<path d="M43.1664 22.002C43.1664 21.7074 43.4052 21.4686 43.6997 21.4686C43.9943 21.4686 44.233 21.7074 44.233 22.002C44.233 22.2965 43.9943 22.5353 43.6997 22.5353C43.4052 22.5353 43.1664 22.2965 43.1664 22.002ZM55.0986 26.002L54.0986 26.5793V25.4246L55.0986 26.002ZM43.6997 21.902H47.1182V22.102H43.6997V21.902ZM51.1182 25.902H54.1986V26.102H51.1182V25.902ZM49.2182 24.002C49.2182 25.0513 50.0688 25.902 51.1182 25.902V26.102C49.9584 26.102 49.0182 25.1618 49.0182 24.002H49.2182ZM47.1182 21.902C48.278 21.902 49.2182 22.8422 49.2182 24.002H49.0182C49.0182 22.9526 48.1675 22.102 47.1182 22.102V21.902Z" fill="currentColor"/>
</svg>
