<svg width="20" height="20" viewBox="0 0 20 20" fill="none" xmlns="http://www.w3.org/2000/svg">
<g clip-path="url(#clip0_5540_15042)">
<path d="M16.6261 16.6281C20.2867 12.9675 20.2867 7.03249 16.6261 3.37187C12.9655 -0.288738 7.03044 -0.288737 3.36982 3.37187C-0.290788 7.03249 -0.290788 12.9675 3.36982 16.6281C7.03044 20.2887 12.9655 20.2887 16.6261 16.6281Z" fill="#46CC6B"/>
<path fill-rule="evenodd" clip-rule="evenodd" d="M19.2399 11.5904C18.5728 15.4935 15.4933 18.5729 11.5903 19.24L6.54334 14.1931C5.33564 13.1964 4.56592 11.6881 4.56592 9.99999C4.56592 6.99885 6.99873 4.56604 9.99986 4.56604C11.688 4.56604 13.1963 5.33581 14.193 6.54346L19.2399 11.5904Z" fill="#179C5F"/>
<path fill-rule="evenodd" clip-rule="evenodd" d="M7.45635 10.3226L9.00393 11.7438C9.22967 11.9516 9.57908 11.9406 9.79139 11.7217L12.5523 9.07827C12.7769 8.86233 12.7837 8.50506 12.5676 8.28038C12.3516 8.05604 11.9946 8.04901 11.77 8.26495L9.3785 10.5547L8.22088 9.49166C7.99154 9.28065 7.63424 9.29545 7.42311 9.52502C7.21201 9.75436 7.22689 10.1114 7.45635 10.3226ZM9.99986 4.56604C13.001 4.56604 15.4338 6.99885 15.4338 9.99999C15.4338 13.0011 13.001 15.4339 9.99986 15.4339C6.99873 15.4339 4.56592 13.0011 4.56592 9.99999C4.56592 6.99885 6.99873 4.56604 9.99986 4.56604Z" fill="white"/>
</g>
<defs>
<clipPath id="clip0_5540_15042">
<rect width="20" height="20" fill="white"/>
</clipPath>
</defs>
</svg>
