<svg width="40" height="40" viewBox="0 0 40 40" fill="none" xmlns="http://www.w3.org/2000/svg">
<g clip-path="url(#clip0_1220_17285)">
<g clip-path="url(#clip1_1220_17285)">
<path d="M0 4C0 1.79086 1.79086 0 4 0H36C38.2091 0 40 1.79086 40 4V36C40 38.2091 38.2091 40 36 40H4C1.79086 40 0 38.2091 0 36V4Z" fill="#592F7C" fill-opacity="0.1"/>
<path d="M20.0003 6.66846C12.635 6.66846 6.6665 12.637 6.6665 20.0022C6.6665 27.3648 12.635 33.3316 20.0003 33.3316C27.3638 33.3316 33.3332 27.3639 33.3332 20.0022C33.3341 12.637 27.3638 6.66846 20.0003 6.66846ZM20.0003 31.1069C13.8667 31.1069 8.89383 26.1367 8.89383 20.0022C8.89383 13.8704 13.8667 8.89401 20.0003 8.89401C26.133 8.89401 31.105 13.8695 31.105 20.0022C31.1058 26.1367 26.133 31.1069 20.0003 31.1069Z" fill="white"/>
<rect x="16" y="15" width="3" height="10" rx="1" fill="#FFF6F6"/>
<rect x="21" y="15" width="3" height="10" rx="1" fill="#FFF6F6"/>
</g>
</g>
<defs>
<clipPath id="clip0_1220_17285">
<rect width="40" height="40" fill="white"/>
</clipPath>
<clipPath id="clip1_1220_17285">
<path d="M0 4C0 1.79086 1.79086 0 4 0H36C38.2091 0 40 1.79086 40 4V36C40 38.2091 38.2091 40 36 40H4C1.79086 40 0 38.2091 0 36V4Z" fill="white"/>
</clipPath>
</defs>
</svg>
