<svg width="16" height="17" viewBox="0 0 16 17" fill="none" xmlns="http://www.w3.org/2000/svg">
<path d="M15.4273 4.75176L10.7936 0.117383C10.7467 0.0705078 10.6833 0.0439453 10.617 0.0439453H5.36828C4.14672 0.0439453 3.15297 1.03801 3.15297 2.25957V6.64426H1.20859C0.832969 6.64426 0.527344 6.94988 0.527344 7.32551V11.2418C0.527344 11.6174 0.832969 11.923 1.20859 11.923H3.15297V13.8283C3.15297 15.0499 4.14672 16.0439 5.36828 16.0439H13.2852C14.5067 16.0439 15.5005 15.0499 15.5005 13.8283V4.92863C15.5005 4.86238 15.4742 4.79863 15.4273 4.75176ZM15.0008 13.8283C15.0008 14.7746 14.2311 15.5443 13.2852 15.5443H5.36828C4.42234 15.5443 3.65266 14.7746 3.65266 13.8283V11.923H11.8836C12.2592 11.923 12.5648 11.6174 12.5648 11.2418V7.32551C12.5648 6.94988 12.2592 6.64426 11.8836 6.64426H3.65266V2.25957C3.65266 1.31332 4.42234 0.543633 5.36828 0.543633H10.367V4.42801C10.367 4.84176 10.7033 5.17832 11.1164 5.17832H15.0008V13.8283Z" fill="currentColor"/>
<path fill-rule="evenodd" clip-rule="evenodd" d="M4.48617 9.25832C4.57617 9.09499 4.62117 8.91999 4.62117 8.73332C4.62117 8.52665 4.57284 8.34165 4.47617 8.17832C4.38284 8.01499 4.24117 7.88665 4.05117 7.79332C3.86117 7.69999 3.63117 7.65332 3.36117 7.65332H2.07617V11.1433H2.77617V9.80332H3.36117C3.64784 9.80332 3.88451 9.75332 4.07117 9.65332C4.26117 9.55332 4.39951 9.42165 4.48617 9.25832ZM3.76117 9.10832C3.66784 9.19499 3.52451 9.23832 3.33117 9.23832H2.77617V8.22332H3.33117C3.71117 8.22332 3.90117 8.39332 3.90117 8.73332C3.90117 8.89332 3.85451 9.01832 3.76117 9.10832ZM7.30316 7.86832C7.0265 7.72499 6.70483 7.65332 6.33816 7.65332H5.11816V11.1433H6.33816C6.70483 11.1433 7.0265 11.0717 7.30316 10.9283C7.58316 10.785 7.79816 10.5833 7.94816 10.3233C8.1015 10.06 8.17816 9.75332 8.17816 9.40332C8.17816 9.05332 8.1015 8.74665 7.94816 8.48332C7.79816 8.21665 7.58316 8.01165 7.30316 7.86832ZM7.16316 10.2483C6.96316 10.4483 6.67983 10.5483 6.31316 10.5483H5.81816V8.24332H6.31316C6.67983 8.24332 6.96316 8.34665 7.16316 8.55332C7.36316 8.75665 7.46316 9.03999 7.46316 9.40332C7.46316 9.76665 7.36316 10.0483 7.16316 10.2483ZM10.8571 8.21832V7.65332H8.70215V11.1433H9.40215V9.66832H10.5171V9.11332H9.40215V8.21832H10.8571Z" fill="white"/>
</svg>
