<svg width="16" height="17" viewBox="0 0 16 17" fill="none" xmlns="http://www.w3.org/2000/svg">
<path d="M15.4269 4.752L10.7931 0.117627C10.7462 0.070752 10.6828 0.0441895 10.6165 0.0441895H5.36779C4.14623 0.0441895 3.15248 1.03825 3.15248 2.25981V6.6445H1.20811C0.83248 6.6445 0.526855 6.95013 0.526855 7.32575V11.242C0.526855 11.6176 0.83248 11.9233 1.20811 11.9233H3.15248V13.8286C3.15248 15.0501 4.14623 16.0442 5.36779 16.0442H13.2847C14.5062 16.0442 15.5 15.0501 15.5 13.8286V4.92888C15.5 4.86263 15.4737 4.79888 15.4269 4.752ZM15.0003 13.8286C15.0003 14.7748 14.2306 15.5445 13.2847 15.5445H5.36779C4.42186 15.5445 3.65217 14.7748 3.65217 13.8286V11.9233H11.8831C12.2587 11.9233 12.5644 11.6176 12.5644 11.242V7.32575C12.5644 6.95013 12.2587 6.6445 11.8831 6.6445H3.65217V2.25981C3.65217 1.31356 4.42186 0.543877 5.36779 0.543877H10.3665V4.42825C10.3665 4.842 10.7028 5.17856 11.1159 5.17856H15.0003V13.8286Z" fill="currentColor"/>
<path d="M3.05664 7.89474C3.27257 7.89476 3.45644 7.9324 3.6084 8.00705C3.76032 8.0817 3.87359 8.18406 3.94824 8.31467C4.02558 8.44533 4.06445 8.59367 4.06445 8.759C4.06439 8.90819 4.02799 9.04837 3.95605 9.17892C3.88671 9.3094 3.77586 9.41444 3.62402 9.49435C3.47476 9.57425 3.28578 9.61445 3.05664 9.61447H2.58887V10.6867H2.02832V7.89474H3.05664ZM5.43848 7.89474C5.73161 7.8948 5.98875 7.95204 6.20996 8.06662C6.43396 8.18129 6.60656 8.34547 6.72656 8.55881C6.84902 8.76928 6.91009 9.01451 6.91016 9.29416C6.91016 9.57402 6.84911 9.81989 6.72656 10.0305C6.60656 10.2385 6.43396 10.4002 6.20996 10.5149C5.98877 10.6294 5.73156 10.6867 5.43848 10.6867H4.46191V7.89474H5.43848ZM9.05371 8.34689H7.88965V9.06271H8.78125V9.50705H7.88965V10.6867H7.3291V7.89474H9.05371V8.34689ZM10.5742 8.83029L11.1182 7.89474H11.75L10.874 9.29904L11.7666 10.6867H11.1221L10.5186 9.74631L9.9707 10.6867H9.33789L10.2188 9.27853L9.32617 7.89474H9.9707L10.5742 8.83029ZM5.02246 10.2102H5.41797C5.71108 10.2102 5.93768 10.1307 6.09766 9.97092C6.25766 9.81092 6.33789 9.58483 6.33789 9.29416C6.33781 9.00371 6.25757 8.77705 6.09766 8.61447C5.93767 8.44933 5.71113 8.36642 5.41797 8.36642H5.02246V10.2102ZM2.58887 9.16232H3.03223C3.18689 9.16232 3.30229 9.12814 3.37695 9.05881C3.45145 8.98689 3.48821 8.88673 3.48828 8.759C3.48828 8.487 3.33623 8.3508 3.03223 8.3508H2.58887V9.16232Z" fill="white"/>
</svg>
