<svg width="16" height="16" viewBox="0 0 16 16" fill="none" xmlns="http://www.w3.org/2000/svg">
<path d="M13.5007 10.447C14.4768 9.70696 15.1477 8.39715 15.2107 7.13752H15.2608C15.6684 7.13752 16 6.80593 16 6.39837V5.90921C16 5.77115 15.888 5.65921 15.75 5.65921H11.3431V3.45674C11.3431 3.39227 11.3182 3.33034 11.2736 3.2838L8.20034 0.0760859C8.15319 0.0268672 8.08797 -0.000976562 8.01984 -0.000976562H0.25C0.111937 -0.000976562 0 0.110961 0 0.249023V15.7491C0 15.8871 0.111937 15.9991 0.25 15.9991H8.21725H15.75C15.8881 15.9991 16 15.8871 16 15.7491V15.2599C16 14.8524 15.6684 14.5208 15.2608 14.5208H15.2107C15.1477 13.2612 14.4769 11.9514 13.5008 11.2114C13.382 11.1213 13.3139 10.982 13.3139 10.8292C13.3139 10.6763 13.382 10.537 13.5007 10.447ZM15.5 6.39834C15.5 6.53021 15.3927 6.63749 15.2608 6.63749H8.70641C8.57453 6.63749 8.46725 6.53018 8.46725 6.39834V6.15918H15.5V6.39834ZM10.5073 3.20674H8.13538V0.730961L10.5073 3.20674ZM0.5 0.499023H7.63538V3.45671C7.63538 3.59477 7.74731 3.70671 7.88538 3.70671H10.8431V5.65918H8.21725C8.07919 5.65918 7.96725 5.77112 7.96725 5.90918V6.39834C7.96725 6.8059 8.29884 7.13749 8.70641 7.13749H8.75656C8.8195 8.39712 9.49038 9.70693 10.4665 10.4469C10.5852 10.5369 10.6533 10.6762 10.6533 10.8291C10.6533 10.982 10.5852 11.1213 10.4665 11.2113C9.49038 11.9512 8.8195 13.2611 8.75656 14.5207H8.70641C8.29884 14.5207 7.96725 14.8523 7.96725 15.2598V15.499H0.5V0.499023ZM15.5 15.2599V15.4991H8.46725V15.2599C8.46725 15.1281 8.57456 15.0208 8.70641 15.0208H15.2608C15.3927 15.0207 15.5 15.1281 15.5 15.2599ZM11.7925 13.816C11.8586 13.7884 11.9224 13.7562 11.9836 13.7198C12.0448 13.7562 12.1087 13.7883 12.1748 13.816C12.4904 13.9477 12.7873 14.1922 13.036 14.5208H10.9313C11.18 14.1922 11.4769 13.9477 11.7925 13.816ZM13.1987 11.6098C14.0425 12.2495 14.6456 13.4234 14.71 14.5207H13.6387C13.3055 13.9709 12.8583 13.5594 12.3674 13.3546C12.3209 13.3351 12.2763 13.3121 12.2336 13.2862V12.5991C12.2336 12.4611 12.1217 12.3491 11.9836 12.3491C11.8455 12.3491 11.7336 12.4611 11.7336 12.5991V13.2863C11.6908 13.3121 11.6463 13.3352 11.5999 13.3546C11.109 13.5594 10.6618 13.9709 10.3286 14.5207H9.25725C9.32162 13.4234 9.92475 12.2495 10.7685 11.6098C11.0131 11.4244 11.1533 11.1399 11.1533 10.8292C11.1533 10.5184 11.0131 10.2339 10.7685 10.0485C9.92475 9.40884 9.32162 8.2349 9.25725 7.13756H14.71C14.6456 8.2349 14.0425 9.40884 13.1987 10.0486C12.9542 10.2339 12.8139 10.5184 12.8139 10.8291C12.8139 11.1398 12.9542 11.4244 13.1987 11.6098ZM12.2336 11.1133V11.3289C12.2336 11.4669 12.1217 11.5789 11.9836 11.5789C11.8456 11.5789 11.7336 11.4669 11.7336 11.3289V11.1133C11.7336 10.9753 11.8456 10.8633 11.9836 10.8633C12.1217 10.8633 12.2336 10.9753 12.2336 11.1133ZM13.8461 8.3459C13.8952 8.23802 13.8618 8.11052 13.7661 8.04056C12.972 7.45977 12.3647 7.75105 11.8288 8.00805C11.427 8.20077 11.0475 8.38277 10.5434 8.28396C10.4474 8.26515 10.3493 8.30402 10.2923 8.38343C10.2353 8.4628 10.2298 8.56818 10.2782 8.65315C10.6158 9.24521 11.0852 9.68959 11.5998 9.9044C11.6463 9.92377 11.6908 9.94684 11.7336 9.97268V10.3204C11.7336 10.4585 11.8455 10.5704 11.9836 10.5704C12.1217 10.5704 12.2336 10.4585 12.2336 10.3204V9.97277C12.2764 9.9469 12.3209 9.92384 12.3673 9.90449C12.9711 9.65249 13.51 9.0844 13.8461 8.3459ZM12.1748 9.44302C12.1088 9.47056 12.0449 9.50268 11.9837 9.53912C11.9225 9.50271 11.8586 9.47055 11.7925 9.44296C11.4997 9.32077 11.2218 9.10018 10.984 8.80543C11.3946 8.77087 11.7346 8.60781 12.0451 8.4589C12.4966 8.2423 12.8365 8.07934 13.2957 8.33159C13.0125 8.86109 12.6117 9.26065 12.1748 9.44302ZM1.97287 3.94155C1.97287 3.80349 2.08481 3.69155 2.22288 3.69155H6.23537C6.37344 3.69155 6.48537 3.80349 6.48537 3.94155C6.48537 4.07962 6.37344 4.19156 6.23537 4.19156H2.22288C2.08481 4.19156 1.97287 4.07962 1.97287 3.94155ZM1.97287 6.64659C1.97287 6.50852 2.08481 6.39659 2.22288 6.39659H6.23537C6.37344 6.39659 6.48537 6.50852 6.48537 6.64659C6.48537 6.78465 6.37344 6.89659 6.23537 6.89659H2.22288C2.08481 6.89659 1.97287 6.78465 1.97287 6.64659ZM1.97287 9.35155C1.97287 9.21349 2.08481 9.10155 2.22288 9.10155H7.82175C7.95981 9.10155 8.07175 9.21349 8.07175 9.35155C8.07175 9.48962 7.95981 9.60155 7.82175 9.60155H2.22288C2.08481 9.60155 1.97287 9.48962 1.97287 9.35155ZM7.82175 12.3066H2.22288C2.08481 12.3066 1.97287 12.1946 1.97287 12.0566C1.97287 11.9185 2.08481 11.8066 2.22288 11.8066H7.82175C7.95981 11.8066 8.07175 11.9185 8.07175 12.0566C8.07175 12.1946 7.95981 12.3066 7.82175 12.3066Z" fill="currentcolor"/>
</svg>
