<svg width="17" height="17" viewBox="0 0 17 17" fill="none" xmlns="http://www.w3.org/2000/svg">
<path d="M6.8675 11.2918L2.8125 14.7806C2.32438 15.2034 1.78094 15.544 1.19531 15.8043C1.45562 15.2187 1.79625 14.6753 2.21906 14.1871L5.70781 10.1318L6.8675 11.2918Z" fill="#E6E7E8"/>
<path d="M15.5649 7.19899C15.4846 7.2793 15.389 7.34055 15.2893 7.37899C14.9965 7.49586 14.648 7.43836 14.4108 7.20086L9.79896 2.58867C9.56177 2.35149 9.50427 2.00305 9.62083 1.71024C9.65896 1.61086 9.72021 1.51492 9.80083 1.43461C10.1186 1.1168 10.6371 1.11492 10.9549 1.43274L15.5671 6.04492C15.8846 6.36274 15.8827 6.88117 15.5649 7.19899Z" fill="#E02B3D"/>
<path d="M15.2896 7.37866C14.9968 7.49553 14.6483 7.43803 14.4111 7.20053L9.79896 2.58835C9.56177 2.35116 9.50427 2.00272 9.62083 1.70991C9.91365 1.59303 10.2621 1.65053 10.4993 1.88803L15.1115 6.50022C15.3486 6.73741 15.4061 7.08585 15.2896 7.37866Z" fill="#FE3745"/>
<path d="M10.1077 9.66723C9.94895 9.2941 9.74613 8.93441 9.49707 8.60129L12.2433 5.03223L13.0508 5.83973L10.1077 9.66723Z" fill="#E02B3D"/>
<path d="M9.49707 8.60074C9.46082 8.54918 9.42238 8.49918 9.38426 8.44949C9.26363 8.29449 9.13363 8.14918 8.99207 8.00731C8.85426 7.86949 8.70895 7.73949 8.55957 7.62074C8.17863 7.31637 7.76551 7.07543 7.33301 6.89168L7.59332 6.69262L8.03145 6.35387L11.1605 3.94824L12.2436 5.03137L9.49707 8.60074Z" fill="#FE3745"/>
<path d="M9.49312 13.9171L3.08594 7.50995C3.285 7.3262 3.50125 7.1712 3.72313 7.02963C5.21594 6.33307 7.00719 6.46307 8.39062 7.42588C8.61844 7.58088 8.83281 7.76088 9.03562 7.9637C9.1525 8.08057 9.26156 8.20088 9.36094 8.32745C10.5131 9.7437 10.7159 11.6803 9.96938 13.2765L9.97125 13.2784C9.83156 13.5018 9.67469 13.7162 9.49312 13.9171Z" fill="#E02B3D"/>
<path d="M8.32 12.744L3.08594 7.50995C3.285 7.3262 3.50125 7.1712 3.72313 7.02963C5.21594 6.33307 7.00719 6.46307 8.39062 7.42588C9.36281 8.81151 9.49688 10.6065 8.79625 12.1031L8.79813 12.1049C8.65844 12.3287 8.50156 12.5431 8.32 12.744Z" fill="#FE3745"/>
<path d="M6.28781 10.7118L1.19531 15.8043C1.45562 15.2187 1.79625 14.6753 2.21906 14.1871L5.70781 10.1318L6.28781 10.7118Z" fill="#BCBEC0"/>
</svg>
