<svg width="40" height="40" viewBox="0 0 40 40" fill="none" xmlns="http://www.w3.org/2000/svg">
<g clip-path="url(#clip0_1003_36669)">
<g clip-path="url(#clip1_1003_36669)">
<path d="M0 4C0 1.79086 1.79086 0 4 0H36C38.2091 0 40 1.79086 40 4V36C40 38.2091 38.2091 40 36 40H4C1.79086 40 0 38.2091 0 36V4Z" fill="#592F7C" fill-opacity="0.1"/>
<path d="M24.398 19.4786L18.8607 15.4535C18.6575 15.3062 18.3877 15.284 18.165 15.3985C17.9405 15.5121 17.8003 15.7428 17.8003 15.9921V24.0398C17.8003 24.2918 17.9405 24.5216 18.165 24.6352C18.26 24.6831 18.3638 24.7071 18.4685 24.7071C18.6051 24.7071 18.7436 24.6636 18.8607 24.5775L24.398 20.5559C24.5728 20.4273 24.6748 20.2285 24.6748 20.0173C24.6757 19.8025 24.571 19.6047 24.398 19.4786Z" fill="white"/>
<path d="M20.0003 6.66846C12.635 6.66846 6.6665 12.637 6.6665 20.0022C6.6665 27.3648 12.635 33.3316 20.0003 33.3316C27.3638 33.3316 33.3332 27.3639 33.3332 20.0022C33.3341 12.637 27.3638 6.66846 20.0003 6.66846ZM20.0003 31.1069C13.8667 31.1069 8.89383 26.1367 8.89383 20.0022C8.89383 13.8704 13.8667 8.89401 20.0003 8.89401C26.133 8.89401 31.105 13.8695 31.105 20.0022C31.1058 26.1367 26.133 31.1069 20.0003 31.1069Z" fill="white"/>
</g>
</g>
<defs>
<clipPath id="clip0_1003_36669">
<rect width="40" height="40" fill="white"/>
</clipPath>
<clipPath id="clip1_1003_36669">
<path d="M0 4C0 1.79086 1.79086 0 4 0H36C38.2091 0 40 1.79086 40 4V36C40 38.2091 38.2091 40 36 40H4C1.79086 40 0 38.2091 0 36V4Z" fill="white"/>
</clipPath>
</defs>
</svg>
