<svg width="26" height="27" viewBox="0 0 26 27" fill="none" xmlns="http://www.w3.org/2000/svg">
<g filter="url(#filter0_ddii_1383_25738)">
<path d="M22 13C22 18.5228 17.5228 23 12 23C6.47715 23 2 18.5228 2 13C2 7.47715 6.47715 3 12 3C17.5228 3 22 7.47715 22 13Z" fill="url(#paint0_linear_1383_25738)"/>
</g>
<path fill-rule="evenodd" clip-rule="evenodd" d="M13 8C13 7.44772 12.5523 7 12 7C11.4477 7 11 7.44772 11 8V9.49994C11 10.8806 9.88074 11.9999 8.50006 11.9999H7C6.44772 11.9999 6 12.4476 6 12.9999C6 13.5522 6.44772 13.9999 7 13.9999H8.5C9.88071 13.9999 11 15.1192 11 16.4999V18C11 18.5523 11.4477 19 12 19C12.5523 19 13 18.5523 13 18V16.4999C13 15.1192 14.1193 13.9999 15.5 13.9999H17C17.5523 13.9999 18 13.5522 18 12.9999C18 12.4476 17.5523 11.9999 17 11.9999H15.4999C14.1193 11.9999 13 10.8806 13 9.49994V8Z" fill="#71347B"/>
<defs>
<filter id="filter0_ddii_1383_25738" x="0" y="0" width="26" height="27" filterUnits="userSpaceOnUse" color-interpolation-filters="sRGB">
<feFlood flood-opacity="0" result="BackgroundImageFix"/>
<feColorMatrix in="SourceAlpha" type="matrix" values="0 0 0 0 0 0 0 0 0 0 0 0 0 0 0 0 0 0 127 0" result="hardAlpha"/>
<feOffset dx="1" dy="1"/>
<feGaussianBlur stdDeviation="1.5"/>
<feColorMatrix type="matrix" values="0 0 0 0 0.442507 0 0 0 0 0.202278 0 0 0 0 0.481615 0 0 0 0.2 0"/>
<feBlend mode="normal" in2="BackgroundImageFix" result="effect1_dropShadow_1383_25738"/>
<feColorMatrix in="SourceAlpha" type="matrix" values="0 0 0 0 0 0 0 0 0 0 0 0 0 0 0 0 0 0 127 0" result="hardAlpha"/>
<feOffset dx="1" dy="-1"/>
<feGaussianBlur stdDeviation="1"/>
<feColorMatrix type="matrix" values="0 0 0 0 0.141176 0 0 0 0 0.0745098 0 0 0 0 0.196078 0 0 0 0.1 0"/>
<feBlend mode="normal" in2="effect1_dropShadow_1383_25738" result="effect2_dropShadow_1383_25738"/>
<feBlend mode="normal" in="SourceGraphic" in2="effect2_dropShadow_1383_25738" result="shape"/>
<feColorMatrix in="SourceAlpha" type="matrix" values="0 0 0 0 0 0 0 0 0 0 0 0 0 0 0 0 0 0 127 0" result="hardAlpha"/>
<feOffset dx="-1" dy="-1"/>
<feGaussianBlur stdDeviation="1"/>
<feComposite in2="hardAlpha" operator="arithmetic" k2="-1" k3="1"/>
<feColorMatrix type="matrix" values="0 0 0 0 0.941176 0 0 0 0 0.905882 0 0 0 0 0.956863 0 0 0 1 0"/>
<feBlend mode="normal" in2="shape" result="effect3_innerShadow_1383_25738"/>
<feColorMatrix in="SourceAlpha" type="matrix" values="0 0 0 0 0 0 0 0 0 0 0 0 0 0 0 0 0 0 127 0" result="hardAlpha"/>
<feOffset dx="1" dy="1"/>
<feGaussianBlur stdDeviation="1"/>
<feComposite in2="hardAlpha" operator="arithmetic" k2="-1" k3="1"/>
<feColorMatrix type="matrix" values="0 0 0 0 0.556863 0 0 0 0 0.294118 0 0 0 0 0.776471 0 0 0 0.3 0"/>
<feBlend mode="normal" in2="effect3_innerShadow_1383_25738" result="effect4_innerShadow_1383_25738"/>
</filter>
<linearGradient id="paint0_linear_1383_25738" x1="2" y1="3" x2="22" y2="23" gradientUnits="userSpaceOnUse">
<stop offset="1" stop-color="#F0E7F4"/>
<stop stop-color="#F7EBFF"/>
</linearGradient>
</defs>
</svg>
