<svg width="12" height="12" viewBox="0 0 12 12" fill="none" xmlns="http://www.w3.org/2000/svg">
<path fill-rule="evenodd" clip-rule="evenodd" d="M7 1C7 0.447715 6.55228 0 6 0C5.44772 0 5 0.447715 5 1V2.49994C5 3.88062 3.88074 4.99988 2.50006 4.99988H1C0.447715 4.99988 0 5.44759 0 5.99988C0 6.55216 0.447715 6.99988 1 6.99988H2.5C3.88071 6.99988 5 8.11917 5 9.49988V11C5 11.5523 5.44772 12 6 12C6.55228 12 7 11.5523 7 11V9.49988C7 8.11917 8.11929 6.99988 9.5 6.99988H11C11.5523 6.99988 12 6.55216 12 5.99988C12 5.44759 11.5523 4.99988 11 4.99988H9.49994C8.11926 4.99988 7 3.88062 7 2.49994V1Z" fill="currentColor"/>
</svg>
