<svg width="16" height="17" viewBox="0 0 16 17" fill="none" xmlns="http://www.w3.org/2000/svg">
<path d="M15.4273 4.75176L10.7936 0.117383C10.7467 0.0705078 10.6833 0.0439453 10.617 0.0439453H5.36828C4.14672 0.0439453 3.15297 1.03801 3.15297 2.25957V6.64426H1.20859C0.832969 6.64426 0.527344 6.94988 0.527344 7.32551V11.2418C0.527344 11.6174 0.832969 11.923 1.20859 11.923H3.15297V13.8283C3.15297 15.0499 4.14672 16.0439 5.36828 16.0439H13.2852C14.5067 16.0439 15.5005 15.0499 15.5005 13.8283V4.92863C15.5005 4.86238 15.4742 4.79863 15.4273 4.75176ZM15.0008 13.8283C15.0008 14.7746 14.2311 15.5443 13.2852 15.5443H5.36828C4.42234 15.5443 3.65266 14.7746 3.65266 13.8283V11.923H11.8836C12.2592 11.923 12.5648 11.6174 12.5648 11.2418V7.32551C12.5648 6.94988 12.2592 6.64426 11.8836 6.64426H3.65266V2.25957C3.65266 1.31332 4.42234 0.543633 5.36828 0.543633H10.367V4.42801C10.367 4.84176 10.7033 5.17832 11.1164 5.17832H15.0008V13.8283Z" fill="currentColor"/>
<path fill-rule="evenodd" clip-rule="evenodd" d="M4.10922 9.23887C4.19922 9.07553 4.24422 8.90053 4.24422 8.71387C4.24422 8.5072 4.19589 8.3222 4.09922 8.15887C4.00589 7.99553 3.86422 7.8672 3.67422 7.77387C3.48422 7.68053 3.25422 7.63387 2.98422 7.63387H1.69922V11.1239H2.39922V9.78387H2.98422C3.27089 9.78387 3.50755 9.73387 3.69422 9.63387C3.88422 9.53387 4.02255 9.4022 4.10922 9.23887ZM3.38422 9.08887C3.29089 9.17553 3.14755 9.21887 2.95422 9.21887H2.39922V8.20387H2.95422C3.33422 8.20387 3.52422 8.37387 3.52422 8.71387C3.52422 8.87387 3.47755 8.99887 3.38422 9.08887ZM7.02621 11.1239H7.72621V7.62887H7.02621V10.0289L5.44121 7.62887H4.74121V11.1239H5.44121V8.72887L7.02621 11.1239ZM10.518 8.34887C10.658 8.42553 10.768 8.5372 10.848 8.68387H11.653C11.543 8.3372 11.343 8.06887 11.053 7.87887C10.763 7.68553 10.4213 7.58887 10.028 7.58887C9.69464 7.58887 9.3913 7.66553 9.11797 7.81887C8.84797 7.96887 8.63464 8.18053 8.47797 8.45387C8.32464 8.72387 8.24797 9.03053 8.24797 9.37387C8.24797 9.7172 8.32464 10.0239 8.47797 10.2939C8.63464 10.5639 8.84797 10.7755 9.11797 10.9289C9.3913 11.0789 9.6963 11.1539 10.033 11.1539C10.333 11.1539 10.603 11.0922 10.843 10.9689C11.0863 10.8422 11.2846 10.6755 11.438 10.4689C11.5913 10.2622 11.6913 10.0372 11.738 9.79387V9.18387H9.84797V9.71887H11.048C10.9946 9.9722 10.883 10.1705 10.713 10.3139C10.543 10.4539 10.3246 10.5239 10.058 10.5239C9.8413 10.5239 9.6513 10.4772 9.48797 10.3839C9.32464 10.2905 9.1963 10.1572 9.10297 9.98387C9.01297 9.81053 8.96797 9.6072 8.96797 9.37387C8.96797 9.1472 9.01297 8.9472 9.10297 8.77387C9.19297 8.60053 9.31797 8.4672 9.47797 8.37387C9.63797 8.28053 9.8213 8.23387 10.028 8.23387C10.2146 8.23387 10.378 8.2722 10.518 8.34887Z" fill="white"/>
</svg>
