<svg width="6" height="6" viewBox="0 0 6 6" fill="none" xmlns="http://www.w3.org/2000/svg">
<path d="M4.44355 1.56692L2.75585 3.25462L2.27994 2.7787C3.93964 1.119 4.10361 1.26298 4.44355 1.56692Z" fill="white"/>
<path d="M2.75584 3.29632C2.74384 3.29632 2.73584 3.29232 2.72784 3.28432L2.24793 2.80841C2.23193 2.79241 2.23193 2.76842 2.24793 2.75242C3.93563 1.06472 4.11159 1.22469 4.46753 1.54464C4.47553 1.55263 4.47953 1.56063 4.47953 1.57263C4.47953 1.58463 4.47553 1.59263 4.46753 1.60063L2.77983 3.28432C2.77583 3.29232 2.76384 3.29632 2.75584 3.29632ZM2.33591 2.78041L2.75584 3.20034L4.38355 1.57263C4.0876 1.30868 3.88763 1.22869 2.33591 2.78041Z" fill="#FF6C37"/>
<path d="M3.23976 3.73941L2.77985 3.27949L4.46754 1.5918C4.91946 2.04771 4.24358 2.78758 3.23976 3.73941Z" fill="white"/>
<path d="M3.23976 3.78033C3.22776 3.78033 3.21977 3.77633 3.21177 3.76834L2.75185 3.30842C2.74385 3.30042 2.74385 3.29242 2.74385 3.28042C2.74385 3.26843 2.74785 3.26043 2.75585 3.25243L4.44355 1.56473C4.45954 1.54874 4.48354 1.54874 4.49954 1.56473C4.60352 1.66071 4.65951 1.79669 4.65551 1.93667C4.64751 2.38059 4.1436 2.94448 3.27176 3.76834C3.25976 3.77633 3.24776 3.78033 3.23976 3.78033ZM2.83583 3.28042C3.09179 3.54038 3.19977 3.64436 3.23976 3.68435C3.91164 3.04447 4.56352 2.38858 4.56752 1.93667C4.57152 1.83268 4.53153 1.7287 4.46354 1.64872L2.83583 3.28042Z" fill="#FF6C37"/>
<path d="M2.28792 2.79147L2.62786 3.13141C2.63586 3.13941 2.63586 3.14741 2.62786 3.1554C2.62386 3.1594 2.62386 3.1594 2.61986 3.1594L1.91599 3.31138C1.87999 3.31537 1.848 3.29138 1.84 3.25539C1.836 3.23539 1.844 3.21539 1.856 3.2034L2.26392 2.79547C2.27192 2.78747 2.28392 2.78347 2.28792 2.79147Z" fill="white"/>
<path d="M1.90398 3.35103C1.844 3.35103 1.8 3.30304 1.8 3.24305C1.8 3.21506 1.812 3.18706 1.832 3.16706L2.23992 2.75914C2.26392 2.73914 2.29591 2.73914 2.31991 2.75914L2.65985 3.09908C2.68384 3.11907 2.68384 3.15507 2.65985 3.17906C2.65185 3.18706 2.64385 3.19106 2.63185 3.19506L1.92798 3.34703C1.91998 3.34703 1.91198 3.35103 1.90398 3.35103ZM2.27592 2.83512L1.88399 3.22705C1.87599 3.23505 1.87199 3.24705 1.87999 3.25905C1.88399 3.27105 1.89599 3.27505 1.90798 3.27105L2.56786 3.12707L2.27592 2.83512Z" fill="#FF6C37"/>
<path d="M5.33538 0.631784C5.07943 0.383829 4.6675 0.391827 4.41955 0.65178C4.17159 0.911734 4.17959 1.31966 4.43955 1.56762C4.65151 1.77158 4.97145 1.80757 5.22341 1.6556L4.76749 1.19968L5.33538 0.631784Z" fill="white"/>
<path d="M4.88746 1.78786C4.50753 1.78786 4.19958 1.47992 4.19958 1.09999C4.19958 0.720054 4.50753 0.412109 4.88746 0.412109C5.06343 0.412109 5.2354 0.480097 5.36338 0.604075C5.37137 0.612073 5.37537 0.620072 5.37537 0.63207C5.37537 0.644068 5.37137 0.652066 5.36338 0.660065L4.82347 1.19997L5.2474 1.62389C5.26339 1.63989 5.26339 1.66388 5.2474 1.67988C5.2434 1.68388 5.2434 1.68388 5.2394 1.68788C5.13542 1.75187 5.01144 1.78786 4.88746 1.78786ZM4.88746 0.496094C4.55152 0.496094 4.27957 0.768045 4.28357 1.10398C4.28357 1.43992 4.55552 1.71188 4.89146 1.70788C4.98344 1.70788 5.07543 1.68788 5.15941 1.64389L4.73949 1.22796C4.73149 1.21996 4.72749 1.21197 4.72749 1.19997C4.72749 1.18797 4.73149 1.17997 4.73949 1.17197L5.27539 0.636069C5.16741 0.544086 5.03144 0.496094 4.88746 0.496094Z" fill="#FF6C37"/>
<path d="M5.34738 0.644717L5.33938 0.636719L4.76749 1.20062L5.21941 1.65254C5.2634 1.62454 5.30739 1.59255 5.34338 1.55655C5.59934 1.3046 5.59934 0.896672 5.34738 0.644717Z" fill="white"/>
<path d="M5.22339 1.6956C5.21139 1.6956 5.20339 1.6916 5.19539 1.6836L4.73948 1.22768C4.73148 1.21968 4.72748 1.21169 4.72748 1.19969C4.72748 1.18769 4.73148 1.17969 4.73948 1.17169L5.30737 0.603795C5.32337 0.587798 5.34737 0.587798 5.36336 0.603795L5.37536 0.611793C5.64331 0.879745 5.64331 1.31167 5.37936 1.58362C5.33937 1.62361 5.29538 1.6596 5.24738 1.6876C5.23539 1.6916 5.22739 1.6956 5.22339 1.6956ZM4.82346 1.19969L5.22739 1.60361C5.25938 1.58362 5.29138 1.55562 5.31537 1.53163C5.54333 1.30367 5.55533 0.931736 5.33537 0.691779L4.82346 1.19969Z" fill="#FF6C37"/>
<path d="M4.51152 1.64035C4.41554 1.54436 4.25956 1.54436 4.16358 1.64035L2.65585 3.14808L2.90781 3.40003L4.50352 2.00028C4.6075 1.9123 4.6155 1.75633 4.52752 1.65234C4.51952 1.64835 4.51552 1.64435 4.51152 1.64035Z" fill="white"/>
<path d="M2.90381 3.439C2.89181 3.439 2.88381 3.435 2.87581 3.427L2.62386 3.17505C2.60786 3.15905 2.60786 3.13505 2.62386 3.11906L4.13159 1.61133C4.24357 1.49935 4.42354 1.49935 4.53552 1.61133C4.6475 1.72331 4.6475 1.90328 4.53552 2.01526C4.53152 2.01926 4.52752 2.02325 4.52352 2.02725L2.92781 3.427C2.92381 3.435 2.91581 3.439 2.90381 3.439ZM2.71184 3.14705L2.90781 3.34302L4.47553 1.96726C4.56351 1.89528 4.57151 1.7633 4.49952 1.67532C4.42754 1.58733 4.29556 1.57933 4.20758 1.65132C4.20358 1.65532 4.19958 1.65932 4.19158 1.66332L2.71184 3.14705Z" fill="#FF6C37"/>
<path d="M1.50007 4.86422C1.48408 4.87222 1.47608 4.88822 1.48008 4.90421L1.54807 5.19216C1.56406 5.23215 1.54007 5.28015 1.49608 5.29214C1.46408 5.30414 1.42809 5.29214 1.40809 5.26815L0.96817 4.83223L2.40391 3.39648L2.89982 3.40448L3.23576 3.74042C3.15578 3.80841 2.67186 4.27633 1.50007 4.86422Z" fill="white"/>
<path d="M1.46806 5.33111C1.43607 5.33111 1.40407 5.31912 1.38408 5.29512L0.948155 4.8592C0.940156 4.8512 0.936157 4.8432 0.936157 4.8312C0.936157 4.81921 0.940156 4.81121 0.948155 4.80321L2.3839 3.36747C2.3919 3.35947 2.40389 3.35547 2.41189 3.35547L2.9078 3.36347C2.9198 3.36347 2.9278 3.36747 2.9358 3.37547L3.27174 3.7114C3.27974 3.7194 3.28374 3.7314 3.28374 3.7434C3.28374 3.7554 3.27974 3.7634 3.26774 3.77139L3.23974 3.79539C2.81582 4.16732 2.23992 4.53926 1.52405 4.89519L1.59204 5.17914C1.60404 5.23113 1.58004 5.28712 1.53205 5.31512C1.50805 5.32711 1.48806 5.33111 1.46806 5.33111ZM1.02814 4.8312L1.44007 5.23913C1.45206 5.25913 1.47606 5.26712 1.49606 5.25513C1.51605 5.24313 1.52405 5.21913 1.51205 5.19914L1.44407 4.91119C1.43607 4.8752 1.45206 4.8432 1.48406 4.8272C2.19193 4.47127 2.76383 4.10333 3.18375 3.7394L2.88781 3.44345L2.42789 3.43545L1.02814 4.8312Z" fill="#FF6C37"/>
<path d="M0.628233 5.17597L0.972171 4.83203L1.48408 5.34394L0.668226 5.28795C0.632232 5.28395 0.608236 5.25196 0.612236 5.21596C0.612236 5.19996 0.616235 5.18397 0.628233 5.17597Z" fill="white"/>
<path d="M1.48407 5.379L0.66422 5.32301C0.604231 5.31901 0.564238 5.26702 0.568238 5.20703C0.572237 5.18304 0.580235 5.15904 0.600232 5.14305L0.94417 4.79911C0.960167 4.78311 0.984163 4.78311 1.00016 4.79911L1.51207 5.31102C1.52407 5.32301 1.52806 5.33901 1.52007 5.35501C1.51207 5.371 1.50007 5.379 1.48407 5.379ZM0.972165 4.88709L0.656222 5.20303C0.644224 5.21103 0.644224 5.23103 0.656222 5.23903C0.660221 5.24303 0.66422 5.24703 0.672219 5.24703L1.38009 5.29502L0.972165 4.88709Z" fill="#FF6C37"/>
<path d="M2.26393 3.57924C2.23994 3.57924 2.22394 3.55925 2.22394 3.53925C2.22394 3.52725 2.22794 3.51925 2.23594 3.51126L2.62387 3.12333C2.63986 3.10733 2.66386 3.10733 2.67986 3.12333L2.93181 3.37528C2.94381 3.38728 2.94781 3.39928 2.94381 3.41527C2.93981 3.42727 2.92781 3.43927 2.91181 3.44327L2.27193 3.57924C2.26793 3.57924 2.26393 3.57924 2.26393 3.57924ZM2.65186 3.20731L2.38791 3.47126L2.81983 3.37928L2.65186 3.20731Z" fill="#FF6C37"/>
<path d="M2.89982 3.40421L2.4599 3.50019C2.42791 3.50819 2.39592 3.48819 2.38792 3.4562C2.38392 3.4362 2.38792 3.4162 2.40391 3.40021L2.64787 3.15625L2.89982 3.40421Z" fill="white"/>
<path d="M2.45191 3.53925C2.39592 3.53925 2.35193 3.49526 2.35193 3.43927C2.35193 3.41127 2.36393 3.38728 2.37992 3.36728L2.62388 3.12333C2.63988 3.10733 2.66387 3.10733 2.67987 3.12333L2.93182 3.37528C2.94382 3.38728 2.94782 3.39928 2.94382 3.41527C2.93982 3.42727 2.92783 3.43927 2.91183 3.44327L2.47191 3.53925C2.46391 3.53925 2.45591 3.53925 2.45191 3.53925ZM2.65187 3.20731L2.43591 3.42327C2.42792 3.43127 2.42792 3.43927 2.43191 3.44727C2.43591 3.45527 2.44391 3.45927 2.45591 3.45927L2.82384 3.37928L2.65187 3.20731Z" fill="#FF6C37"/>
<path d="M5.35138 1.02851C5.34338 1.00451 5.31538 0.992516 5.29139 1.00051C5.26739 1.00851 5.25539 1.03651 5.26339 1.0605C5.26339 1.0645 5.26739 1.0685 5.26739 1.0725C5.29139 1.12049 5.28339 1.18048 5.25139 1.22447C5.2354 1.24447 5.2394 1.27247 5.25539 1.28846C5.27539 1.30446 5.30339 1.30046 5.31938 1.28046C5.37937 1.20448 5.39137 1.1085 5.35138 1.02851Z" fill="#FF6C37"/>
</svg>
