<svg width="18" height="16" viewBox="0 0 18 16" fill="none" xmlns="http://www.w3.org/2000/svg">
<mask id="path-1-outside-1_2947_12976" maskUnits="userSpaceOnUse" x="0" y="-0.907471" width="18" height="17" fill="black">
<rect fill="white" y="-0.907471" width="18" height="17"/>
<path fill-rule="evenodd" clip-rule="evenodd" d="M13.0131 0.0925293C15.2116 0.0925293 17 1.88128 17 4.0794C17 5.89659 15.7778 7.43378 14.1122 7.9119V14.7622C14.1122 15.3938 13.5984 15.9075 12.9669 15.9075H2.14531C1.51375 15.9075 1 15.3938 1 14.7622V3.94065C1 3.30909 1.51375 2.79534 2.14531 2.79534H9.23844C9.77406 1.22503 11.2638 0.0925293 13.0131 0.0925293ZM12.9669 15.4388C13.34 15.4388 13.6434 15.1353 13.6434 14.7622V8.01628C13.4381 8.04909 13.2278 8.06628 13.0134 8.06628C10.815 8.06628 9.02656 6.27753 9.02656 4.0794C9.02656 3.80003 9.05562 3.52722 9.11063 3.26409H2.14531C1.77219 3.26409 1.46875 3.56753 1.46875 3.94065V14.7622C1.46875 15.1353 1.77219 15.4388 2.14531 15.4388H12.9669ZM9.495 4.07909C9.495 6.01909 11.0734 7.59722 13.0131 7.59722C14.9531 7.59722 16.5312 6.01909 16.5312 4.07909C16.5312 2.13909 14.9531 0.560967 13.0131 0.560967C11.0731 0.560967 9.495 2.13909 9.495 4.07909ZM12.36 3.49034C12.36 3.62659 12.4416 3.74784 12.5675 3.7994C12.6934 3.85097 12.8366 3.8219 12.9322 3.72472L13.9444 2.69784C14.0719 2.56847 14.0719 2.35815 13.9444 2.22878L12.9322 1.2019C12.8366 1.10503 12.6934 1.07565 12.5675 1.12722C12.4416 1.17878 12.36 1.30034 12.36 1.43628V1.64034C11.8406 1.71222 11.3631 1.96128 11.0041 2.34972C10.6147 2.77097 10.4003 3.31909 10.4003 3.89315C10.4003 3.99097 10.4066 4.0894 10.4191 4.18597C10.4381 4.33315 10.5494 4.44847 10.6962 4.47253C10.7147 4.47565 10.7334 4.47722 10.7516 4.47722C10.8778 4.47722 10.9934 4.40659 11.0503 4.29003C11.3034 3.77034 11.7969 3.40159 12.36 3.30159V3.49034ZM10.8816 3.68128C10.9259 3.30409 11.0878 2.95034 11.3484 2.66815C11.6556 2.33565 12.0725 2.13159 12.5219 2.09409C12.6956 2.0794 12.8272 1.93815 12.8291 1.76472L13.5178 2.46347L12.8291 3.16222V3.14753C12.8291 3.05378 12.7894 2.96378 12.72 2.90065C12.6506 2.83753 12.5572 2.80597 12.4637 2.81472C11.8378 2.87253 11.2641 3.19347 10.8819 3.68128H10.8816ZM15.6075 3.97253C15.5884 3.82534 15.4772 3.71003 15.3303 3.68597C15.1838 3.66191 15.0412 3.73534 14.9762 3.86878C14.7231 4.38847 14.2297 4.75753 13.6666 4.85753V4.66816C13.6666 4.53191 13.5853 4.41066 13.4591 4.35909C13.3331 4.30753 13.1897 4.33659 13.0944 4.43378L12.0822 5.46066C11.9547 5.59003 11.9547 5.80034 12.0822 5.92972L13.0944 6.95659C13.1587 7.02191 13.2444 7.05628 13.3319 7.05628C13.3747 7.05628 13.4178 7.04816 13.4591 7.03097C13.585 6.97941 13.6666 6.85784 13.6666 6.72191V6.51784C14.1859 6.44597 14.6634 6.19691 15.0225 5.80847C15.4119 5.38722 15.6263 4.83909 15.6263 4.26503C15.6263 4.16722 15.62 4.06878 15.6075 3.97222V3.97253ZM14.6781 5.49034C14.3709 5.82284 13.9541 6.02691 13.5047 6.06441C13.3309 6.07909 13.1994 6.22034 13.1978 6.39378L12.5091 5.69503L13.1978 4.99628V5.01097C13.1978 5.10472 13.2375 5.19472 13.3069 5.25784C13.3763 5.32097 13.4697 5.35253 13.5631 5.34378C14.1891 5.28597 14.7628 4.96503 15.145 4.47722C15.1006 4.85441 14.9388 5.20816 14.6781 5.49034ZM7.99754 12.9804C7.99754 13.1652 7.93382 13.3192 7.80636 13.4424C7.68102 13.5635 7.48877 13.624 7.22961 13.624H6.80263V14.5513H6.51266V12.3303H7.22961C7.48028 12.3303 7.6704 12.3909 7.79998 12.5119C7.93169 12.633 7.99754 12.7892 7.99754 12.9804ZM7.22961 13.385C7.39106 13.385 7.51002 13.35 7.58649 13.2799C7.66297 13.2098 7.7012 13.1099 7.7012 12.9804C7.7012 12.7063 7.54401 12.5693 7.22961 12.5693H6.80263V13.385H7.22961ZM9.1195 14.58C8.95593 14.58 8.80723 14.5428 8.6734 14.4684C8.54169 14.3941 8.4376 14.2889 8.36112 14.153C8.28677 14.0149 8.2496 13.8556 8.2496 13.675C8.2496 13.4966 8.28784 13.3394 8.36431 13.2034C8.44291 13.0653 8.54912 12.9602 8.68296 12.888C8.81679 12.8136 8.96655 12.7764 9.13225 12.7764C9.29794 12.7764 9.4477 12.8136 9.58153 12.888C9.71537 12.9602 9.82052 13.0643 9.89699 13.2002C9.97559 13.3362 10.0149 13.4944 10.0149 13.675C10.0149 13.8556 9.97453 14.0149 9.89381 14.153C9.81521 14.2889 9.70793 14.3941 9.57197 14.4684C9.43602 14.5428 9.28519 14.58 9.1195 14.58ZM9.1195 14.325C9.22359 14.325 9.32131 14.3006 9.41265 14.2518C9.504 14.2029 9.57729 14.1296 9.63252 14.0319C9.68987 13.9342 9.71855 13.8152 9.71855 13.675C9.71855 13.5348 9.69094 13.4158 9.6357 13.3181C9.58047 13.2204 9.50825 13.1482 9.41903 13.1014C9.3298 13.0526 9.23315 13.0282 9.12906 13.0282C9.02284 13.0282 8.92513 13.0526 8.8359 13.1014C8.74881 13.1482 8.67871 13.2204 8.6256 13.3181C8.57249 13.4158 8.54594 13.5348 8.54594 13.675C8.54594 13.8173 8.57143 13.9374 8.62241 14.0351C8.67552 14.1328 8.74562 14.2061 8.83272 14.2549C8.91981 14.3017 9.01541 14.325 9.1195 14.325ZM10.6542 14.513C10.7605 14.5577 10.8805 14.58 11.0143 14.58C11.1397 14.58 11.2501 14.5587 11.3457 14.5162C11.4434 14.4716 11.5188 14.4111 11.5719 14.3346C11.6251 14.2581 11.6516 14.1721 11.6516 14.0765C11.6495 13.9703 11.6197 13.8842 11.5624 13.8184C11.5072 13.7525 11.4402 13.7037 11.3616 13.6718C11.283 13.6378 11.1811 13.6038 11.0557 13.5699C10.9559 13.5422 10.8773 13.5178 10.8199 13.4966C10.7647 13.4732 10.718 13.4435 10.6797 13.4073C10.6436 13.3691 10.6256 13.3213 10.6256 13.264C10.6256 13.1917 10.6564 13.1333 10.718 13.0887C10.7796 13.0441 10.8624 13.0218 10.9665 13.0218C11.0791 13.0218 11.1683 13.0494 11.2342 13.1046C11.3022 13.1599 11.3393 13.2331 11.3457 13.3245H11.6357C11.6272 13.1546 11.5634 13.0207 11.4445 12.923C11.3255 12.8253 11.1694 12.7764 10.9761 12.7764C10.8507 12.7764 10.7392 12.7987 10.6415 12.8433C10.5438 12.8858 10.4684 12.9442 10.4153 13.0186C10.3622 13.0929 10.3356 13.1747 10.3356 13.264C10.3356 13.3765 10.3643 13.4679 10.4216 13.538C10.4811 13.606 10.5512 13.658 10.6319 13.6941C10.7148 13.7281 10.821 13.7621 10.9506 13.7961C11.0929 13.8322 11.1981 13.8694 11.266 13.9076C11.334 13.9437 11.368 14 11.368 14.0765C11.368 14.1508 11.3361 14.2125 11.2724 14.2613C11.2087 14.3102 11.1216 14.3346 11.0111 14.3346C10.8922 14.3346 10.7955 14.307 10.7212 14.2518C10.6489 14.1965 10.6086 14.1254 10.6001 14.0383H10.3006C10.3069 14.1445 10.3409 14.239 10.4025 14.3219C10.4641 14.4026 10.548 14.4663 10.6542 14.513ZM12.4146 13.0441V14.0733C12.4146 14.1583 12.4327 14.2188 12.4688 14.2549C12.5049 14.2889 12.5676 14.3059 12.6568 14.3059H12.8703V14.5513H12.609C12.4476 14.5513 12.3265 14.5141 12.2458 14.4398C12.165 14.3654 12.1247 14.2433 12.1247 14.0733V13.0441H11.8984V12.8051H12.1247V12.3654H12.4146V12.8051H12.8703V13.0441H12.4146ZM2.90469 7.13342C2.77532 7.13342 2.67032 7.02842 2.67032 6.89905C2.67032 6.76967 2.77532 6.66467 2.90469 6.66467H8.78469C8.91407 6.66467 9.01907 6.76967 9.01907 6.89905C9.01907 7.02842 8.91407 7.13342 8.78469 7.13342H2.90469ZM3.9617 4.97132C4.08893 4.84833 4.15254 4.6946 4.15254 4.51011C4.15254 4.31927 4.08681 4.16341 3.95533 4.04255C3.82598 3.92168 3.6362 3.86124 3.38598 3.86124H2.67032V6.07821H2.95977V5.15262H3.38598C3.64468 5.15262 3.83659 5.09219 3.9617 4.97132ZM3.74223 4.8091C3.66589 4.87908 3.54714 4.91407 3.38598 4.91407H2.95977V4.0998H3.38598C3.69982 4.0998 3.85673 4.23657 3.85673 4.51011C3.85673 4.63946 3.81856 4.73913 3.74223 4.8091ZM5.01802 4.38606C4.92472 4.4412 4.85262 4.5186 4.80173 4.61826V4.33517H4.51229V6.07821H4.80173V5.13036C4.80173 4.77836 4.96395 4.60235 5.28838 4.60235H5.36472V4.30337C5.22901 4.30337 5.11344 4.33093 5.01802 4.38606ZM7.28922 5.1399C7.28922 5.19503 7.28603 5.25334 7.27967 5.31484H5.88651C5.89711 5.4866 5.95543 5.62125 6.06145 5.71879C6.1696 5.81421 6.30001 5.86192 6.45268 5.86192C6.57779 5.86192 6.68169 5.8333 6.76439 5.77604C6.84921 5.71667 6.90859 5.63821 6.94251 5.54067H7.25423C7.20758 5.70819 7.11427 5.84496 6.97432 5.95098C6.83437 6.05489 6.66049 6.10684 6.45268 6.10684C6.28728 6.10684 6.13885 6.06973 6.00738 5.99552C5.87803 5.9213 5.77625 5.81633 5.70203 5.68062C5.62781 5.54279 5.5907 5.38375 5.5907 5.20351C5.5907 5.02327 5.62675 4.86529 5.69885 4.72958C5.77095 4.59387 5.87167 4.48997 6.00102 4.41787C6.13249 4.34365 6.28304 4.30655 6.45268 4.30655C6.61808 4.30655 6.76439 4.34259 6.89162 4.41469C7.01885 4.48679 7.11639 4.58645 7.18425 4.71368C7.25423 4.83879 7.28922 4.98086 7.28922 5.1399ZM6.99023 5.07946C6.99023 4.9692 6.96584 4.87484 6.91707 4.79638C6.8683 4.7158 6.8015 4.65537 6.71668 4.61508C6.63398 4.57267 6.54174 4.55146 6.43996 4.55146C6.29365 4.55146 6.16854 4.59811 6.06463 4.69141C5.96285 4.78472 5.90454 4.91407 5.88969 5.07946H6.99023ZM2.90469 8.39441C2.77531 8.39441 2.67031 8.28941 2.67031 8.16003C2.67031 8.03066 2.77531 7.92566 2.90469 7.92566H9.94531C10.0747 7.92566 10.1797 8.03066 10.1797 8.16003C10.1797 8.28941 10.0747 8.39441 9.94531 8.39441H2.90469ZM2.67031 9.42128C2.67031 9.55066 2.77531 9.65565 2.90469 9.65565H11.7638C11.8931 9.65565 11.9981 9.55066 11.9981 9.42128C11.9981 9.2919 11.8931 9.1869 11.7638 9.1869H2.90469C2.77531 9.1869 2.67031 9.2919 2.67031 9.42128ZM2.90469 10.4478H11.7638C11.8931 10.4478 11.9981 10.5528 11.9981 10.6822C11.9981 10.8116 11.8931 10.9166 11.7638 10.9166H2.90469C2.77531 10.9166 2.67031 10.8116 2.67031 10.6822C2.67031 10.5528 2.77531 10.4478 2.90469 10.4478ZM5.90442 11.7091H2.77867C2.71886 11.7091 2.67031 11.8141 2.67031 11.9435C2.67031 12.0728 2.71886 12.1778 2.77867 12.1778H5.90442C5.96423 12.1778 6.01278 12.0728 6.01278 11.9435C6.01278 11.8141 5.96423 11.7091 5.90442 11.7091ZM5.89295 12.945H5.89343C5.95915 12.945 6.01246 13.0494 6.01278 13.1785C6.01309 13.3078 5.95979 13.4132 5.89391 13.4138L2.79013 13.4391H2.78966C2.72394 13.4391 2.67063 13.3347 2.67031 13.2057C2.66999 13.0763 2.7233 12.971 2.78918 12.9703L5.89295 12.945Z"/>
</mask>
<path fill-rule="evenodd" clip-rule="evenodd" d="M13.0131 0.0925293C15.2116 0.0925293 17 1.88128 17 4.0794C17 5.89659 15.7778 7.43378 14.1122 7.9119V14.7622C14.1122 15.3938 13.5984 15.9075 12.9669 15.9075H2.14531C1.51375 15.9075 1 15.3938 1 14.7622V3.94065C1 3.30909 1.51375 2.79534 2.14531 2.79534H9.23844C9.77406 1.22503 11.2638 0.0925293 13.0131 0.0925293ZM12.9669 15.4388C13.34 15.4388 13.6434 15.1353 13.6434 14.7622V8.01628C13.4381 8.04909 13.2278 8.06628 13.0134 8.06628C10.815 8.06628 9.02656 6.27753 9.02656 4.0794C9.02656 3.80003 9.05562 3.52722 9.11063 3.26409H2.14531C1.77219 3.26409 1.46875 3.56753 1.46875 3.94065V14.7622C1.46875 15.1353 1.77219 15.4388 2.14531 15.4388H12.9669ZM9.495 4.07909C9.495 6.01909 11.0734 7.59722 13.0131 7.59722C14.9531 7.59722 16.5312 6.01909 16.5312 4.07909C16.5312 2.13909 14.9531 0.560967 13.0131 0.560967C11.0731 0.560967 9.495 2.13909 9.495 4.07909ZM12.36 3.49034C12.36 3.62659 12.4416 3.74784 12.5675 3.7994C12.6934 3.85097 12.8366 3.8219 12.9322 3.72472L13.9444 2.69784C14.0719 2.56847 14.0719 2.35815 13.9444 2.22878L12.9322 1.2019C12.8366 1.10503 12.6934 1.07565 12.5675 1.12722C12.4416 1.17878 12.36 1.30034 12.36 1.43628V1.64034C11.8406 1.71222 11.3631 1.96128 11.0041 2.34972C10.6147 2.77097 10.4003 3.31909 10.4003 3.89315C10.4003 3.99097 10.4066 4.0894 10.4191 4.18597C10.4381 4.33315 10.5494 4.44847 10.6962 4.47253C10.7147 4.47565 10.7334 4.47722 10.7516 4.47722C10.8778 4.47722 10.9934 4.40659 11.0503 4.29003C11.3034 3.77034 11.7969 3.40159 12.36 3.30159V3.49034ZM10.8816 3.68128C10.9259 3.30409 11.0878 2.95034 11.3484 2.66815C11.6556 2.33565 12.0725 2.13159 12.5219 2.09409C12.6956 2.0794 12.8272 1.93815 12.8291 1.76472L13.5178 2.46347L12.8291 3.16222V3.14753C12.8291 3.05378 12.7894 2.96378 12.72 2.90065C12.6506 2.83753 12.5572 2.80597 12.4637 2.81472C11.8378 2.87253 11.2641 3.19347 10.8819 3.68128H10.8816ZM15.6075 3.97253C15.5884 3.82534 15.4772 3.71003 15.3303 3.68597C15.1838 3.66191 15.0412 3.73534 14.9762 3.86878C14.7231 4.38847 14.2297 4.75753 13.6666 4.85753V4.66816C13.6666 4.53191 13.5853 4.41066 13.4591 4.35909C13.3331 4.30753 13.1897 4.33659 13.0944 4.43378L12.0822 5.46066C11.9547 5.59003 11.9547 5.80034 12.0822 5.92972L13.0944 6.95659C13.1587 7.02191 13.2444 7.05628 13.3319 7.05628C13.3747 7.05628 13.4178 7.04816 13.4591 7.03097C13.585 6.97941 13.6666 6.85784 13.6666 6.72191V6.51784C14.1859 6.44597 14.6634 6.19691 15.0225 5.80847C15.4119 5.38722 15.6263 4.83909 15.6263 4.26503C15.6263 4.16722 15.62 4.06878 15.6075 3.97222V3.97253ZM14.6781 5.49034C14.3709 5.82284 13.9541 6.02691 13.5047 6.06441C13.3309 6.07909 13.1994 6.22034 13.1978 6.39378L12.5091 5.69503L13.1978 4.99628V5.01097C13.1978 5.10472 13.2375 5.19472 13.3069 5.25784C13.3763 5.32097 13.4697 5.35253 13.5631 5.34378C14.1891 5.28597 14.7628 4.96503 15.145 4.47722C15.1006 4.85441 14.9388 5.20816 14.6781 5.49034ZM7.99754 12.9804C7.99754 13.1652 7.93382 13.3192 7.80636 13.4424C7.68102 13.5635 7.48877 13.624 7.22961 13.624H6.80263V14.5513H6.51266V12.3303H7.22961C7.48028 12.3303 7.6704 12.3909 7.79998 12.5119C7.93169 12.633 7.99754 12.7892 7.99754 12.9804ZM7.22961 13.385C7.39106 13.385 7.51002 13.35 7.58649 13.2799C7.66297 13.2098 7.7012 13.1099 7.7012 12.9804C7.7012 12.7063 7.54401 12.5693 7.22961 12.5693H6.80263V13.385H7.22961ZM9.1195 14.58C8.95593 14.58 8.80723 14.5428 8.6734 14.4684C8.54169 14.3941 8.4376 14.2889 8.36112 14.153C8.28677 14.0149 8.2496 13.8556 8.2496 13.675C8.2496 13.4966 8.28784 13.3394 8.36431 13.2034C8.44291 13.0653 8.54912 12.9602 8.68296 12.888C8.81679 12.8136 8.96655 12.7764 9.13225 12.7764C9.29794 12.7764 9.4477 12.8136 9.58153 12.888C9.71537 12.9602 9.82052 13.0643 9.89699 13.2002C9.97559 13.3362 10.0149 13.4944 10.0149 13.675C10.0149 13.8556 9.97453 14.0149 9.89381 14.153C9.81521 14.2889 9.70793 14.3941 9.57197 14.4684C9.43602 14.5428 9.28519 14.58 9.1195 14.58ZM9.1195 14.325C9.22359 14.325 9.32131 14.3006 9.41265 14.2518C9.504 14.2029 9.57729 14.1296 9.63252 14.0319C9.68987 13.9342 9.71855 13.8152 9.71855 13.675C9.71855 13.5348 9.69094 13.4158 9.6357 13.3181C9.58047 13.2204 9.50825 13.1482 9.41903 13.1014C9.3298 13.0526 9.23315 13.0282 9.12906 13.0282C9.02284 13.0282 8.92513 13.0526 8.8359 13.1014C8.74881 13.1482 8.67871 13.2204 8.6256 13.3181C8.57249 13.4158 8.54594 13.5348 8.54594 13.675C8.54594 13.8173 8.57143 13.9374 8.62241 14.0351C8.67552 14.1328 8.74562 14.2061 8.83272 14.2549C8.91981 14.3017 9.01541 14.325 9.1195 14.325ZM10.6542 14.513C10.7605 14.5577 10.8805 14.58 11.0143 14.58C11.1397 14.58 11.2501 14.5587 11.3457 14.5162C11.4434 14.4716 11.5188 14.4111 11.5719 14.3346C11.6251 14.2581 11.6516 14.1721 11.6516 14.0765C11.6495 13.9703 11.6197 13.8842 11.5624 13.8184C11.5072 13.7525 11.4402 13.7037 11.3616 13.6718C11.283 13.6378 11.1811 13.6038 11.0557 13.5699C10.9559 13.5422 10.8773 13.5178 10.8199 13.4966C10.7647 13.4732 10.718 13.4435 10.6797 13.4073C10.6436 13.3691 10.6256 13.3213 10.6256 13.264C10.6256 13.1917 10.6564 13.1333 10.718 13.0887C10.7796 13.0441 10.8624 13.0218 10.9665 13.0218C11.0791 13.0218 11.1683 13.0494 11.2342 13.1046C11.3022 13.1599 11.3393 13.2331 11.3457 13.3245H11.6357C11.6272 13.1546 11.5634 13.0207 11.4445 12.923C11.3255 12.8253 11.1694 12.7764 10.9761 12.7764C10.8507 12.7764 10.7392 12.7987 10.6415 12.8433C10.5438 12.8858 10.4684 12.9442 10.4153 13.0186C10.3622 13.0929 10.3356 13.1747 10.3356 13.264C10.3356 13.3765 10.3643 13.4679 10.4216 13.538C10.4811 13.606 10.5512 13.658 10.6319 13.6941C10.7148 13.7281 10.821 13.7621 10.9506 13.7961C11.0929 13.8322 11.1981 13.8694 11.266 13.9076C11.334 13.9437 11.368 14 11.368 14.0765C11.368 14.1508 11.3361 14.2125 11.2724 14.2613C11.2087 14.3102 11.1216 14.3346 11.0111 14.3346C10.8922 14.3346 10.7955 14.307 10.7212 14.2518C10.6489 14.1965 10.6086 14.1254 10.6001 14.0383H10.3006C10.3069 14.1445 10.3409 14.239 10.4025 14.3219C10.4641 14.4026 10.548 14.4663 10.6542 14.513ZM12.4146 13.0441V14.0733C12.4146 14.1583 12.4327 14.2188 12.4688 14.2549C12.5049 14.2889 12.5676 14.3059 12.6568 14.3059H12.8703V14.5513H12.609C12.4476 14.5513 12.3265 14.5141 12.2458 14.4398C12.165 14.3654 12.1247 14.2433 12.1247 14.0733V13.0441H11.8984V12.8051H12.1247V12.3654H12.4146V12.8051H12.8703V13.0441H12.4146ZM2.90469 7.13342C2.77532 7.13342 2.67032 7.02842 2.67032 6.89905C2.67032 6.76967 2.77532 6.66467 2.90469 6.66467H8.78469C8.91407 6.66467 9.01907 6.76967 9.01907 6.89905C9.01907 7.02842 8.91407 7.13342 8.78469 7.13342H2.90469ZM3.9617 4.97132C4.08893 4.84833 4.15254 4.6946 4.15254 4.51011C4.15254 4.31927 4.08681 4.16341 3.95533 4.04255C3.82598 3.92168 3.6362 3.86124 3.38598 3.86124H2.67032V6.07821H2.95977V5.15262H3.38598C3.64468 5.15262 3.83659 5.09219 3.9617 4.97132ZM3.74223 4.8091C3.66589 4.87908 3.54714 4.91407 3.38598 4.91407H2.95977V4.0998H3.38598C3.69982 4.0998 3.85673 4.23657 3.85673 4.51011C3.85673 4.63946 3.81856 4.73913 3.74223 4.8091ZM5.01802 4.38606C4.92472 4.4412 4.85262 4.5186 4.80173 4.61826V4.33517H4.51229V6.07821H4.80173V5.13036C4.80173 4.77836 4.96395 4.60235 5.28838 4.60235H5.36472V4.30337C5.22901 4.30337 5.11344 4.33093 5.01802 4.38606ZM7.28922 5.1399C7.28922 5.19503 7.28603 5.25334 7.27967 5.31484H5.88651C5.89711 5.4866 5.95543 5.62125 6.06145 5.71879C6.1696 5.81421 6.30001 5.86192 6.45268 5.86192C6.57779 5.86192 6.68169 5.8333 6.76439 5.77604C6.84921 5.71667 6.90859 5.63821 6.94251 5.54067H7.25423C7.20758 5.70819 7.11427 5.84496 6.97432 5.95098C6.83437 6.05489 6.66049 6.10684 6.45268 6.10684C6.28728 6.10684 6.13885 6.06973 6.00738 5.99552C5.87803 5.9213 5.77625 5.81633 5.70203 5.68062C5.62781 5.54279 5.5907 5.38375 5.5907 5.20351C5.5907 5.02327 5.62675 4.86529 5.69885 4.72958C5.77095 4.59387 5.87167 4.48997 6.00102 4.41787C6.13249 4.34365 6.28304 4.30655 6.45268 4.30655C6.61808 4.30655 6.76439 4.34259 6.89162 4.41469C7.01885 4.48679 7.11639 4.58645 7.18425 4.71368C7.25423 4.83879 7.28922 4.98086 7.28922 5.1399ZM6.99023 5.07946C6.99023 4.9692 6.96584 4.87484 6.91707 4.79638C6.8683 4.7158 6.8015 4.65537 6.71668 4.61508C6.63398 4.57267 6.54174 4.55146 6.43996 4.55146C6.29365 4.55146 6.16854 4.59811 6.06463 4.69141C5.96285 4.78472 5.90454 4.91407 5.88969 5.07946H6.99023ZM2.90469 8.39441C2.77531 8.39441 2.67031 8.28941 2.67031 8.16003C2.67031 8.03066 2.77531 7.92566 2.90469 7.92566H9.94531C10.0747 7.92566 10.1797 8.03066 10.1797 8.16003C10.1797 8.28941 10.0747 8.39441 9.94531 8.39441H2.90469ZM2.67031 9.42128C2.67031 9.55066 2.77531 9.65565 2.90469 9.65565H11.7638C11.8931 9.65565 11.9981 9.55066 11.9981 9.42128C11.9981 9.2919 11.8931 9.1869 11.7638 9.1869H2.90469C2.77531 9.1869 2.67031 9.2919 2.67031 9.42128ZM2.90469 10.4478H11.7638C11.8931 10.4478 11.9981 10.5528 11.9981 10.6822C11.9981 10.8116 11.8931 10.9166 11.7638 10.9166H2.90469C2.77531 10.9166 2.67031 10.8116 2.67031 10.6822C2.67031 10.5528 2.77531 10.4478 2.90469 10.4478ZM5.90442 11.7091H2.77867C2.71886 11.7091 2.67031 11.8141 2.67031 11.9435C2.67031 12.0728 2.71886 12.1778 2.77867 12.1778H5.90442C5.96423 12.1778 6.01278 12.0728 6.01278 11.9435C6.01278 11.8141 5.96423 11.7091 5.90442 11.7091ZM5.89295 12.945H5.89343C5.95915 12.945 6.01246 13.0494 6.01278 13.1785C6.01309 13.3078 5.95979 13.4132 5.89391 13.4138L2.79013 13.4391H2.78966C2.72394 13.4391 2.67063 13.3347 2.67031 13.2057C2.66999 13.0763 2.7233 12.971 2.78918 12.9703L5.89295 12.945Z" fill="currentColor"/>
<path d="M14.1122 7.9119L14.0846 7.81579L14.0122 7.83657V7.9119H14.1122ZM9.23844 2.79534V2.89534H9.30999L9.33308 2.82762L9.23844 2.79534ZM13.6434 8.01628H13.7434V7.89903L13.6277 7.91753L13.6434 8.01628ZM9.11063 3.26409L9.20851 3.28455L9.23369 3.16409H9.11063V3.26409ZM12.9322 3.72472L12.861 3.65452L12.8609 3.65458L12.9322 3.72472ZM13.9444 2.69784L14.0156 2.76804L14.0156 2.76803L13.9444 2.69784ZM13.9444 2.22878L14.0156 2.15859L14.0156 2.15858L13.9444 2.22878ZM12.9322 1.2019L13.0034 1.1317L13.0034 1.13165L12.9322 1.2019ZM12.5675 1.12722L12.5296 1.03467L12.5675 1.12722ZM12.36 1.64034L12.3737 1.7394L12.46 1.72746V1.64034H12.36ZM11.0041 2.34972L10.9306 2.28184L10.9306 2.28184L11.0041 2.34972ZM10.4191 4.18597L10.3199 4.1988L10.3199 4.19881L10.4191 4.18597ZM10.6962 4.47253L10.713 4.37393L10.7124 4.37384L10.6962 4.47253ZM11.0503 4.29003L11.1402 4.33388L11.1402 4.33382L11.0503 4.29003ZM12.36 3.30159H12.46V3.18227L12.3425 3.20313L12.36 3.30159ZM11.3484 2.66815L11.275 2.60029L11.275 2.60031L11.3484 2.66815ZM10.8816 3.68128L10.7822 3.66959L10.7691 3.78128H10.8816V3.68128ZM12.5219 2.09409L12.5302 2.19374L12.5303 2.19374L12.5219 2.09409ZM12.8291 1.76472L12.9003 1.69452L12.7317 1.52345L12.7291 1.76364L12.8291 1.76472ZM13.5178 2.46347L13.589 2.53367L13.6582 2.46347L13.589 2.39327L13.5178 2.46347ZM12.8291 3.16222H12.7291V3.40612L12.9003 3.23242L12.8291 3.16222ZM12.4637 2.81472L12.4729 2.91429L12.4731 2.91428L12.4637 2.81472ZM10.8819 3.68128V3.78128H10.9306L10.9606 3.74295L10.8819 3.68128ZM15.3303 3.68597L15.3141 3.78465L15.3141 3.78465L15.3303 3.68597ZM15.6075 3.97253L15.5083 3.98538L15.7075 3.97253H15.6075ZM14.9762 3.86878L14.8863 3.82499L14.8863 3.82499L14.9762 3.86878ZM13.6666 4.85753H13.5666V4.97685L13.684 4.95599L13.6666 4.85753ZM13.4591 4.35909L13.4212 4.45164L13.4213 4.45167L13.4591 4.35909ZM13.0944 4.43378L13.1656 4.50398L13.1658 4.5038L13.0944 4.43378ZM12.0822 5.46066L12.011 5.39046L12.011 5.39046L12.0822 5.46066ZM12.0822 5.92972L12.011 5.99991L12.011 5.99992L12.0822 5.92972ZM13.0944 6.95659L13.1656 6.8864L13.1656 6.88639L13.0944 6.95659ZM13.4591 7.03097L13.4212 6.93842L13.4206 6.93866L13.4591 7.03097ZM13.6666 6.51784L13.6529 6.41879L13.5666 6.43073V6.51784H13.6666ZM15.0225 5.80847L15.0959 5.87635L15.0959 5.87635L15.0225 5.80847ZM15.6075 3.97222L15.7067 3.95938L15.5075 3.97222H15.6075ZM13.5047 6.06441L13.4964 5.96475L13.4963 5.96476L13.5047 6.06441ZM14.6781 5.49034L14.7516 5.5582L14.7516 5.55819L14.6781 5.49034ZM13.1978 6.39378L13.1266 6.46398L13.2956 6.63548L13.2978 6.39468L13.1978 6.39378ZM12.5091 5.69503L12.4378 5.62483L12.3686 5.69503L12.4378 5.76523L12.5091 5.69503ZM13.1978 4.99628H13.2978V4.75238L13.1266 4.92608L13.1978 4.99628ZM13.3069 5.25784L13.2396 5.33181L13.2396 5.33181L13.3069 5.25784ZM13.5631 5.34378L13.5539 5.24421L13.5538 5.24422L13.5631 5.34378ZM15.145 4.47722L15.2443 4.4889L15.2859 4.1352L15.0663 4.41555L15.145 4.47722ZM7.80636 13.4424L7.87584 13.5143L7.87586 13.5143L7.80636 13.4424ZM6.80263 13.624V13.524H6.70263V13.624H6.80263ZM6.80263 14.5513V14.6513H6.90263V14.5513H6.80263ZM6.51266 14.5513H6.41266V14.6513H6.51266V14.5513ZM6.51266 12.3303V12.2303H6.41266V12.3303H6.51266ZM7.79998 12.5119L7.73171 12.585L7.73231 12.5856L7.79998 12.5119ZM7.58649 13.2799L7.51892 13.2062H7.51892L7.58649 13.2799ZM6.80263 12.5693V12.4693H6.70263V12.5693H6.80263ZM6.80263 13.385H6.70263V13.485H6.80263V13.385ZM8.6734 14.4684L8.62424 14.5555L8.62483 14.5558L8.6734 14.4684ZM8.36112 14.153L8.27306 14.2004L8.27397 14.202L8.36112 14.153ZM8.36431 13.2034L8.2774 13.1539L8.27715 13.1544L8.36431 13.2034ZM8.68296 12.888L8.73045 12.976L8.73152 12.9754L8.68296 12.888ZM9.58153 12.888L9.53297 12.9754L9.53404 12.976L9.58153 12.888ZM9.89699 13.2002L9.80983 13.2493L9.81042 13.2503L9.89699 13.2002ZM9.89381 14.153L9.80748 14.1025L9.80723 14.1029L9.89381 14.153ZM9.41265 14.2518L9.45982 14.3399H9.45982L9.41265 14.2518ZM9.63252 14.0319L9.54626 13.9813L9.54546 13.9827L9.63252 14.0319ZM9.6357 13.3181L9.72276 13.2689L9.6357 13.3181ZM9.41903 13.1014L9.37099 13.1892L9.37262 13.19L9.41903 13.1014ZM8.8359 13.1014L8.88319 13.1896L8.88394 13.1892L8.8359 13.1014ZM8.6256 13.3181L8.71346 13.3659L8.6256 13.3181ZM8.62241 14.0351L8.53374 14.0813L8.53455 14.0828L8.62241 14.0351ZM8.83272 14.2549L8.78378 14.3422L8.78544 14.3431L8.83272 14.2549ZM10.6542 14.513L10.614 14.6046L10.6155 14.6052L10.6542 14.513ZM11.3457 14.5162L11.3863 14.6076L11.3872 14.6072L11.3457 14.5162ZM11.6516 14.0765H11.7516L11.7516 14.0745L11.6516 14.0765ZM11.5624 13.8184L11.4858 13.8827L11.487 13.8841L11.5624 13.8184ZM11.3616 13.6718L11.3219 13.7636L11.3241 13.7645L11.3616 13.6718ZM11.0557 13.5699L11.0291 13.6662L11.0296 13.6664L11.0557 13.5699ZM10.8199 13.4966L10.7809 13.5888L10.7852 13.5903L10.8199 13.4966ZM10.6797 13.4073L10.6069 13.4761L10.6111 13.48L10.6797 13.4073ZM11.2342 13.1046L11.1699 13.1813L11.1711 13.1822L11.2342 13.1046ZM11.3457 13.3245L11.2459 13.3315L11.2524 13.4245H11.3457V13.3245ZM11.6357 13.3245V13.4245H11.7408L11.7355 13.3195L11.6357 13.3245ZM11.4445 12.923L11.381 13.0003L11.381 13.0003L11.4445 12.923ZM10.6415 12.8433L10.6814 12.9351L10.683 12.9343L10.6415 12.8433ZM10.4153 13.0186L10.3339 12.9605V12.9605L10.4153 13.0186ZM10.4216 13.538L10.3442 13.6013L10.3464 13.6038L10.4216 13.538ZM10.6319 13.6941L10.5911 13.7854L10.594 13.7866L10.6319 13.6941ZM10.9506 13.7961L10.9252 13.8928L10.926 13.893L10.9506 13.7961ZM11.266 13.9076L11.217 13.9948L11.2191 13.9959L11.266 13.9076ZM11.2724 14.2613L11.2116 14.1819L11.2116 14.182L11.2724 14.2613ZM10.7212 14.2518L10.6604 14.3312L10.6615 14.332L10.7212 14.2518ZM10.6001 14.0383L10.6996 14.0285L10.6908 13.9383H10.6001V14.0383ZM10.3006 14.0383V13.9383H10.1944L10.2007 14.0442L10.3006 14.0383ZM10.4025 14.3219L10.3223 14.3815L10.323 14.3825L10.4025 14.3219ZM12.4146 13.0441V12.9441H12.3146V13.0441H12.4146ZM12.4688 14.2549L12.3981 14.3257L12.4003 14.3278L12.4688 14.2549ZM12.8703 14.3059H12.9703V14.2059H12.8703V14.3059ZM12.8703 14.5513V14.6513H12.9703V14.5513H12.8703ZM12.2458 14.4398L12.178 14.5133L12.178 14.5133L12.2458 14.4398ZM12.1247 13.0441H12.2247V12.9441H12.1247V13.0441ZM11.8984 13.0441H11.7984V13.1441H11.8984V13.0441ZM11.8984 12.8051V12.7051H11.7984V12.8051H11.8984ZM12.1247 12.8051V12.9051H12.2247V12.8051H12.1247ZM12.1247 12.3654V12.2654H12.0247V12.3654H12.1247ZM12.4146 12.3654H12.5146V12.2654H12.4146V12.3654ZM12.4146 12.8051H12.3146V12.9051H12.4146V12.8051ZM12.8703 12.8051H12.9703V12.7051H12.8703V12.8051ZM12.8703 13.0441V13.1441H12.9703V13.0441H12.8703ZM3.9617 4.97132L4.03118 5.04324L4.0312 5.04322L3.9617 4.97132ZM3.95533 4.04255L3.88706 4.11561L3.88765 4.11616L3.95533 4.04255ZM2.67032 3.86124V3.76124H2.57032V3.86124H2.67032ZM2.67032 6.07821H2.57032V6.17821H2.67032V6.07821ZM2.95977 6.07821V6.17821H3.05977V6.07821H2.95977ZM2.95977 5.15262V5.05262H2.85977V5.15262H2.95977ZM3.74223 4.8091L3.67465 4.73539L3.67465 4.73539L3.74223 4.8091ZM2.95977 4.91407H2.85977V5.01407H2.95977V4.91407ZM2.95977 4.0998V3.9998H2.85977V4.0998H2.95977ZM4.80173 4.61826H4.70173L4.89079 4.66374L4.80173 4.61826ZM5.01802 4.38606L4.96799 4.29947L4.96715 4.29997L5.01802 4.38606ZM4.80173 4.33517H4.90173V4.23517H4.80173V4.33517ZM4.51229 4.33517V4.23517H4.41229V4.33517H4.51229ZM4.51229 6.07821H4.41229V6.17821H4.51229V6.07821ZM4.80173 6.07821V6.17821H4.90173V6.07821H4.80173ZM5.36472 4.60235V4.70235H5.46472V4.60235H5.36472ZM5.36472 4.30337H5.46472V4.20337H5.36472V4.30337ZM7.27967 5.31484V5.41484H7.36986L7.37914 5.32513L7.27967 5.31484ZM5.88651 5.31484V5.21484H5.78015L5.7867 5.321L5.88651 5.31484ZM6.06145 5.71879L5.99373 5.7924L5.99529 5.79378L6.06145 5.71879ZM6.76439 5.77604L6.82132 5.85827L6.82174 5.85797L6.76439 5.77604ZM6.94251 5.54067V5.44067H6.87142L6.84807 5.50782L6.94251 5.54067ZM7.25423 5.54067L7.35056 5.5675L7.38588 5.44067H7.25423V5.54067ZM6.97432 5.95098L7.03394 6.03128L7.03471 6.03069L6.97432 5.95098ZM6.00738 5.99552L5.95761 6.08225L5.95822 6.0826L6.00738 5.99552ZM5.70203 5.68062L5.61398 5.72803L5.61429 5.7286L5.70203 5.68062ZM5.69885 4.72958L5.78716 4.7765L5.69885 4.72958ZM6.00102 4.41787L6.0497 4.50522L6.05018 4.50495L6.00102 4.41787ZM6.89162 4.41469L6.84232 4.50169H6.84232L6.89162 4.41469ZM7.18425 4.71368L7.096 4.76075L7.09698 4.7625L7.18425 4.71368ZM6.91707 4.79638L6.83151 4.84816L6.83214 4.84917L6.91707 4.79638ZM6.99023 5.07946V5.17946H7.09023V5.07946H6.99023ZM6.71668 4.61508L6.67103 4.7041L6.67378 4.70541L6.71668 4.61508ZM6.06463 4.69141L5.99782 4.61701L5.99706 4.6177L6.06463 4.69141ZM5.88969 5.07946L5.79009 5.07053L5.78032 5.17946H5.88969V5.07946ZM5.89295 12.945V12.845L5.89214 12.845L5.89295 12.945ZM6.01278 13.1785L6.11278 13.1782V13.1782L6.01278 13.1785ZM5.89391 13.4138L5.89472 13.5138L5.89486 13.5138L5.89391 13.4138ZM2.79013 13.4391V13.5391L2.79095 13.5391L2.79013 13.4391ZM2.67031 13.2057L2.57031 13.2059V13.2059L2.67031 13.2057ZM2.78918 12.9703L2.78836 12.8703L2.78823 12.8703L2.78918 12.9703ZM17.1 4.0794C17.1 1.82606 15.2668 -0.0074707 13.0131 -0.0074707V0.192529C15.1563 0.192529 16.9 1.9365 16.9 4.0794H17.1ZM14.1398 8.00802C15.847 7.51795 17.1 5.94247 17.1 4.0794H16.9C16.9 5.85072 15.7086 7.34961 14.0846 7.81579L14.1398 8.00802ZM14.2122 14.7622V7.9119H14.0122V14.7622H14.2122ZM12.9669 16.0075C13.6537 16.0075 14.2122 15.449 14.2122 14.7622H14.0122C14.0122 15.3386 13.5432 15.8075 12.9669 15.8075V16.0075ZM2.14531 16.0075H12.9669V15.8075H2.14531V16.0075ZM0.9 14.7622C0.9 15.449 1.45852 16.0075 2.14531 16.0075V15.8075C1.56898 15.8075 1.1 15.3386 1.1 14.7622H0.9ZM0.9 3.94065V14.7622H1.1V3.94065H0.9ZM2.14531 2.69534C1.45852 2.69534 0.9 3.25386 0.9 3.94065H1.1C1.1 3.36432 1.56898 2.89534 2.14531 2.89534V2.69534ZM9.23844 2.69534H2.14531V2.89534H9.23844V2.69534ZM13.0131 -0.0074707C11.2196 -0.0074707 9.69277 1.15359 9.14379 2.76306L9.33308 2.82762C9.85535 1.29647 11.3079 0.192529 13.0131 0.192529V-0.0074707ZM13.5434 14.7622C13.5434 15.0801 13.2848 15.3388 12.9669 15.3388V15.5388C13.3952 15.5388 13.7434 15.1906 13.7434 14.7622H13.5434ZM13.5434 8.01628V14.7622H13.7434V8.01628H13.5434ZM13.0134 8.16628C13.2332 8.16628 13.4488 8.14866 13.6592 8.11503L13.6277 7.91753C13.4275 7.94952 13.2225 7.96628 13.0134 7.96628V8.16628ZM8.92656 4.0794C8.92656 6.33275 10.7598 8.16628 13.0134 8.16628V7.96628C10.8702 7.96628 9.12656 6.22231 9.12656 4.0794H8.92656ZM9.01274 3.24363C8.95635 3.51341 8.92656 3.79308 8.92656 4.0794H9.12656C9.12656 3.80698 9.1549 3.54102 9.20851 3.28455L9.01274 3.24363ZM2.14531 3.36409H9.11063V3.16409H2.14531V3.36409ZM1.56875 3.94065C1.56875 3.62276 1.82742 3.36409 2.14531 3.36409V3.16409C1.71696 3.16409 1.36875 3.5123 1.36875 3.94065H1.56875ZM1.56875 14.7622V3.94065H1.36875V14.7622H1.56875ZM2.14531 15.3388C1.82742 15.3388 1.56875 15.0801 1.56875 14.7622H1.36875C1.36875 15.1906 1.71696 15.5388 2.14531 15.5388V15.3388ZM12.9669 15.3388H2.14531V15.5388H12.9669V15.3388ZM13.0131 7.49722C11.1287 7.49722 9.595 5.96386 9.595 4.07909H9.395C9.395 6.07433 11.0182 7.69722 13.0131 7.69722V7.49722ZM16.4312 4.07909C16.4312 5.96386 14.8979 7.49722 13.0131 7.49722V7.69722C15.0084 7.69722 16.6313 6.07432 16.6313 4.07909H16.4312ZM13.0131 0.660967C14.8979 0.660967 16.4312 2.19432 16.4312 4.07909H16.6313C16.6313 2.08386 15.0084 0.460967 13.0131 0.460967V0.660967ZM9.595 4.07909C9.595 2.19432 11.1284 0.660967 13.0131 0.660967V0.460967C11.0179 0.460967 9.395 2.08386 9.395 4.07909H9.595ZM12.6054 3.70686C12.517 3.67065 12.46 3.58593 12.46 3.49034H12.26C12.26 3.66725 12.3662 3.82503 12.5296 3.89195L12.6054 3.70686ZM12.8609 3.65458C12.7939 3.72273 12.6939 3.7431 12.6054 3.70686L12.5296 3.89195C12.693 3.95883 12.8793 3.92108 13.0035 3.79485L12.8609 3.65458ZM13.8732 2.62764L12.861 3.65452L13.0034 3.79492L14.0156 2.76804L13.8732 2.62764ZM13.8731 2.29897C13.9623 2.38942 13.9623 2.5372 13.8731 2.62765L14.0156 2.76803C14.1815 2.59973 14.1815 2.32689 14.0156 2.15859L13.8731 2.29897ZM12.861 1.2721L13.8732 2.29898L14.0156 2.15858L13.0034 1.1317L12.861 1.2721ZM12.6054 1.21976C12.6937 1.18359 12.7938 1.20407 12.861 1.27215L13.0034 1.13165C12.8793 1.00599 12.6931 0.967722 12.5296 1.03467L12.6054 1.21976ZM12.46 1.43628C12.46 1.34095 12.517 1.25595 12.6054 1.21976L12.5296 1.03467C12.3661 1.10161 12.26 1.25973 12.26 1.43628H12.46ZM12.46 1.64034V1.43628H12.26V1.64034H12.46ZM11.0775 2.4176C11.4209 2.04608 11.8773 1.80809 12.3737 1.7394L12.3463 1.54129C11.8039 1.61634 11.3053 1.87647 10.9306 2.28184L11.0775 2.4176ZM10.5003 3.89315C10.5003 3.34423 10.7052 2.82035 11.0775 2.41759L10.9306 2.28184C10.5242 2.72159 10.3003 3.29396 10.3003 3.89315H10.5003ZM10.5182 4.17313C10.5063 4.0809 10.5003 3.98675 10.5003 3.89315H10.3003C10.3003 3.99518 10.3068 4.09791 10.3199 4.1988L10.5182 4.17313ZM10.7124 4.37384C10.6092 4.35693 10.5316 4.27654 10.5182 4.17312L10.3199 4.19881C10.3446 4.38977 10.4896 4.54 10.6801 4.57121L10.7124 4.37384ZM10.7516 4.37722C10.7391 4.37722 10.7259 4.37613 10.713 4.37393L10.6795 4.57112C10.7035 4.57518 10.7278 4.57722 10.7516 4.57722V4.37722ZM10.9604 4.24618C10.9205 4.32812 10.8399 4.37722 10.7516 4.37722V4.57722C10.9157 4.57722 11.0664 4.48506 11.1402 4.33388L10.9604 4.24618ZM12.3425 3.20313C11.7481 3.30869 11.2276 3.6976 10.9604 4.24624L11.1402 4.33382C11.3792 3.84308 11.8456 3.4945 12.3775 3.40005L12.3425 3.20313ZM12.46 3.49034V3.30159H12.26V3.49034H12.46ZM11.275 2.60031C11 2.89804 10.8291 3.27146 10.7822 3.66959L10.9809 3.69296C11.0228 3.33672 11.1756 3.00264 11.4219 2.736L11.275 2.60031ZM12.5136 1.99444C12.0391 2.03403 11.5991 2.24952 11.275 2.60029L11.4219 2.73601C11.7122 2.42178 12.1059 2.22915 12.5302 2.19374L12.5136 1.99444ZM12.7291 1.76364C12.7278 1.88522 12.6361 1.98407 12.5135 1.99445L12.5303 2.19374C12.7551 2.17473 12.9266 1.99109 12.9291 1.7658L12.7291 1.76364ZM13.589 2.39327L12.9003 1.69452L12.7578 1.83492L13.4466 2.53367L13.589 2.39327ZM12.9003 3.23242L13.589 2.53367L13.4466 2.39327L12.7578 3.09202L12.9003 3.23242ZM12.7291 3.14753V3.16222H12.9291V3.14753H12.7291ZM12.6527 2.97462C12.7012 3.01875 12.7291 3.08187 12.7291 3.14753H12.9291C12.9291 3.02569 12.8776 2.90881 12.7873 2.82669L12.6527 2.97462ZM12.4731 2.91428C12.5383 2.90818 12.6039 2.93025 12.6527 2.97462L12.7873 2.82669C12.6973 2.7448 12.5761 2.70376 12.4544 2.71515L12.4731 2.91428ZM10.9606 3.74295C11.3262 3.2763 11.875 2.96952 12.4729 2.91429L12.4546 2.71514C11.8006 2.77554 11.2019 3.11063 10.8032 3.61961L10.9606 3.74295ZM10.8816 3.78128H10.8819V3.58128H10.8816V3.78128ZM15.3141 3.78465C15.4174 3.80157 15.4949 3.88196 15.5083 3.98538L15.7067 3.95969C15.6819 3.76873 15.537 3.61849 15.3465 3.58728L15.3141 3.78465ZM15.0662 3.91257C15.1117 3.81902 15.211 3.76772 15.3141 3.78465L15.3465 3.58729C15.1565 3.55609 14.9708 3.65167 14.8863 3.82499L15.0662 3.91257ZM13.684 4.95599C14.2785 4.85043 14.7989 4.46118 15.0662 3.91257L14.8863 3.82499C14.6473 4.31576 14.1809 4.66463 13.6491 4.75907L13.684 4.95599ZM13.5666 4.66816V4.85753H13.7666V4.66816H13.5666ZM13.4213 4.45167C13.5098 4.48784 13.5666 4.57245 13.5666 4.66816H13.7666C13.7666 4.49136 13.6608 4.33347 13.4969 4.26652L13.4213 4.45167ZM13.1658 4.5038C13.2324 4.43585 13.3326 4.41537 13.4212 4.45164L13.497 4.26655C13.3337 4.1997 13.147 4.23734 13.023 4.36376L13.1658 4.5038ZM12.1534 5.53086L13.1656 4.50398L13.0232 4.36358L12.011 5.39046L12.1534 5.53086ZM12.1534 5.85953C12.0643 5.76908 12.0643 5.62129 12.1534 5.53085L12.011 5.39046C11.8451 5.55877 11.8451 5.83161 12.011 5.99991L12.1534 5.85953ZM13.1656 6.88639L12.1534 5.85952L12.011 5.99992L13.0232 7.02679L13.1656 6.88639ZM13.3319 6.95628C13.2707 6.95628 13.2109 6.93233 13.1656 6.8864L13.0232 7.02679C13.1066 7.11148 13.218 7.15628 13.3319 7.15628V6.95628ZM13.4206 6.93866C13.392 6.95059 13.362 6.95628 13.3319 6.95628V7.15628C13.3874 7.15628 13.4436 7.14573 13.4975 7.12328L13.4206 6.93866ZM13.5666 6.72191C13.5666 6.81724 13.5096 6.90224 13.4212 6.93843L13.497 7.12351C13.6604 7.05657 13.7666 6.89845 13.7666 6.72191H13.5666ZM13.5666 6.51784V6.72191H13.7666V6.51784H13.5666ZM14.9491 5.74059C14.6057 6.1121 14.1492 6.3501 13.6529 6.41879L13.6803 6.6169C14.2226 6.54184 14.7212 6.28171 15.0959 5.87635L14.9491 5.74059ZM15.5262 4.26503C15.5262 4.81396 15.3213 5.33784 14.9491 5.74059L15.0959 5.87635C15.5024 5.4366 15.7263 4.86423 15.7263 4.26503H15.5262ZM15.5083 3.98506C15.5203 4.07729 15.5262 4.17144 15.5262 4.26503H15.7263C15.7263 4.163 15.7197 4.06027 15.7067 3.95938L15.5083 3.98506ZM15.7075 3.97253V3.97222H15.5075V3.97253H15.7075ZM13.513 6.16406C13.9874 6.12447 14.4275 5.90898 14.7516 5.5582L14.6047 5.42248C14.3144 5.73671 13.9207 5.92934 13.4964 5.96475L13.513 6.16406ZM13.2978 6.39468C13.2989 6.27327 13.3904 6.17443 13.5131 6.16405L13.4963 5.96476C13.2715 5.98376 13.0998 6.16742 13.0978 6.39288L13.2978 6.39468ZM12.4378 5.76523L13.1266 6.46398L13.269 6.32358L12.5803 5.62483L12.4378 5.76523ZM13.1266 4.92608L12.4378 5.62483L12.5803 5.76523L13.269 5.06648L13.1266 4.92608ZM13.2978 5.01097V4.99628H13.0978V5.01097H13.2978ZM13.3742 5.18388C13.3257 5.13975 13.2978 5.07663 13.2978 5.01097H13.0978C13.0978 5.13281 13.1493 5.24969 13.2396 5.33181L13.3742 5.18388ZM13.5538 5.24422C13.4886 5.25032 13.4229 5.22824 13.3742 5.18388L13.2396 5.33181C13.3296 5.41369 13.4508 5.45474 13.5724 5.44335L13.5538 5.24422ZM15.0663 4.41555C14.7007 4.8822 14.1518 5.18898 13.5539 5.24421L13.5723 5.44336C14.2263 5.38296 14.825 5.04787 15.2237 4.53889L15.0663 4.41555ZM14.7516 5.55819C15.0266 5.26046 15.1975 4.88704 15.2443 4.4889L15.0457 4.46554C15.0038 4.82178 14.8509 5.15586 14.6047 5.4225L14.7516 5.55819ZM7.87586 13.5143C8.02372 13.3714 8.09754 13.191 8.09754 12.9804H7.89754C7.89754 13.1394 7.84391 13.267 7.73686 13.3705L7.87586 13.5143ZM7.22961 13.724C7.50224 13.724 7.7245 13.6605 7.87584 13.5143L7.73688 13.3705C7.63755 13.4664 7.47531 13.524 7.22961 13.524V13.724ZM6.80263 13.724H7.22961V13.524H6.80263V13.724ZM6.90263 14.5513V13.624H6.70263V14.5513H6.90263ZM6.51266 14.6513H6.80263V14.4513H6.51266V14.6513ZM6.41266 12.3303V14.5513H6.61266V12.3303H6.41266ZM7.22961 12.2303H6.51266V12.4303H7.22961V12.2303ZM7.86826 12.4389C7.7137 12.2945 7.49514 12.2303 7.22961 12.2303V12.4303C7.46542 12.4303 7.62711 12.4873 7.73171 12.585L7.86826 12.4389ZM8.09754 12.9804C8.09754 12.7633 8.0215 12.5798 7.86766 12.4383L7.73231 12.5856C7.84188 12.6863 7.89754 12.815 7.89754 12.9804H8.09754ZM7.51892 13.2062C7.46882 13.2521 7.37941 13.285 7.22961 13.285V13.485C7.4027 13.485 7.55122 13.4479 7.65407 13.3536L7.51892 13.2062ZM7.6012 12.9804C7.6012 13.0894 7.5698 13.1595 7.51892 13.2062L7.65406 13.3536C7.75614 13.26 7.8012 13.1305 7.8012 12.9804H7.6012ZM7.22961 12.6693C7.37451 12.6693 7.46451 12.7012 7.5176 12.7475C7.56807 12.7914 7.6012 12.8626 7.6012 12.9804H7.8012C7.8012 12.8241 7.75574 12.6897 7.64901 12.5967C7.54491 12.5059 7.39911 12.4693 7.22961 12.4693V12.6693ZM6.80263 12.6693H7.22961V12.4693H6.80263V12.6693ZM6.90263 13.385V12.5693H6.70263V13.385H6.90263ZM7.22961 13.285H6.80263V13.485H7.22961V13.285ZM8.62483 14.5558C8.77453 14.639 8.94013 14.68 9.1195 14.68V14.48C8.97172 14.48 8.83992 14.4465 8.72196 14.381L8.62483 14.5558ZM8.27397 14.202C8.3591 14.3533 8.47611 14.4719 8.62424 14.5555L8.72256 14.3813C8.60727 14.3163 8.5161 14.2245 8.44828 14.1039L8.27397 14.202ZM8.1496 13.675C8.1496 13.8696 8.18976 14.0457 8.27308 14.2004L8.44917 14.1056C8.38378 13.9841 8.3496 13.8415 8.3496 13.675H8.1496ZM8.27715 13.1544C8.19111 13.3073 8.1496 13.4819 8.1496 13.675H8.3496C8.3496 13.5112 8.38456 13.3714 8.45147 13.2524L8.27715 13.1544ZM8.63546 12.7999C8.48439 12.8815 8.36484 13.0003 8.2774 13.1539L8.45122 13.2529C8.52098 13.1303 8.61386 13.0389 8.73045 12.976L8.63546 12.7999ZM9.13225 12.6764C8.95099 12.6764 8.78429 12.7173 8.63439 12.8005L8.73152 12.9754C8.84929 12.9099 8.98211 12.8764 9.13225 12.8764V12.6764ZM9.6301 12.8005C9.4802 12.7173 9.3135 12.6764 9.13225 12.6764V12.8764C9.28238 12.8764 9.4152 12.9099 9.53297 12.9754L9.6301 12.8005ZM9.98415 13.1512C9.89866 12.9992 9.77995 12.8814 9.62903 12.7999L9.53404 12.976C9.65079 13.039 9.74238 13.1293 9.80984 13.2492L9.98415 13.1512ZM10.1149 13.675C10.1149 13.4795 10.0722 13.3035 9.98357 13.1502L9.81042 13.2503C9.87898 13.3689 9.91489 13.5093 9.91489 13.675H10.1149ZM9.98014 14.2034C10.0709 14.0482 10.1149 13.871 10.1149 13.675H9.91489C9.91489 13.8402 9.87814 13.9816 9.80748 14.1025L9.98014 14.2034ZM9.61996 14.5562C9.77221 14.4729 9.89274 14.3546 9.98038 14.203L9.80723 14.1029C9.73767 14.2232 9.64365 14.3153 9.52399 14.3807L9.61996 14.5562ZM9.1195 14.68C9.30077 14.68 9.46827 14.6391 9.61996 14.5562L9.52399 14.3807C9.40377 14.4464 9.26962 14.48 9.1195 14.48V14.68ZM9.36549 14.1636C9.28872 14.2046 9.20722 14.225 9.1195 14.225V14.425C9.23996 14.425 9.35389 14.3966 9.45982 14.3399L9.36549 14.1636ZM9.54546 13.9827C9.49875 14.0653 9.43871 14.1244 9.36549 14.1636L9.45982 14.3399C9.56928 14.2814 9.65582 14.1939 9.71957 14.0811L9.54546 13.9827ZM9.61855 13.675C9.61855 13.8016 9.59271 13.9021 9.54628 13.9813L9.71876 14.0825C9.78703 13.9662 9.81855 13.8288 9.81855 13.675H9.61855ZM9.54865 13.3673C9.59353 13.4467 9.61855 13.5478 9.61855 13.675H9.81855C9.81855 13.5218 9.78834 13.3849 9.72276 13.2689L9.54865 13.3673ZM9.37262 13.19C9.44287 13.2268 9.50177 13.2844 9.54865 13.3673L9.72276 13.2689C9.65917 13.1564 9.57362 13.0695 9.46543 13.0129L9.37262 13.19ZM9.12906 13.1282C9.21677 13.1282 9.29685 13.1486 9.37099 13.1892L9.46706 13.0137C9.36276 12.9566 9.24953 12.9282 9.12906 12.9282V13.1282ZM8.88394 13.1892C8.95777 13.1487 9.03886 13.1282 9.12906 13.1282V12.9282C9.00682 12.9282 8.89248 12.9564 8.78787 13.0137L8.88394 13.1892ZM8.71346 13.3659C8.75847 13.2831 8.81535 13.226 8.88319 13.1896L8.78862 13.0133C8.68226 13.0704 8.59895 13.1577 8.53774 13.2704L8.71346 13.3659ZM8.64594 13.675C8.64594 13.5472 8.67013 13.4456 8.71346 13.3659L8.53774 13.2704C8.47485 13.3861 8.44594 13.5224 8.44594 13.675H8.64594ZM8.71107 13.9888C8.66939 13.9089 8.64594 13.8058 8.64594 13.675H8.44594C8.44594 13.8289 8.47347 13.9658 8.53375 14.0813L8.71107 13.9888ZM8.88164 14.1677C8.81281 14.1291 8.75544 14.0704 8.71028 13.9873L8.53455 14.0828C8.5956 14.1952 8.67843 14.283 8.78379 14.3422L8.88164 14.1677ZM9.1195 14.225C9.031 14.225 8.95178 14.2053 8.88 14.1668L8.78544 14.3431C8.88785 14.398 8.99981 14.425 9.1195 14.425V14.225ZM11.0143 14.48C10.8917 14.48 10.7851 14.4595 10.693 14.4208L10.6155 14.6052C10.7358 14.6558 10.8693 14.68 11.0143 14.68V14.48ZM11.3051 14.4248C11.2246 14.4606 11.1284 14.48 11.0143 14.48V14.68C11.1509 14.68 11.2757 14.6568 11.3863 14.6076L11.3051 14.4248ZM11.4898 14.2776C11.4484 14.3371 11.3881 14.3869 11.3042 14.4253L11.3872 14.6072C11.4987 14.5563 11.5892 14.485 11.6541 14.3916L11.4898 14.2776ZM11.5516 14.0765C11.5516 14.1523 11.531 14.2183 11.4898 14.2776L11.6541 14.3916C11.7191 14.2979 11.7516 14.1919 11.7516 14.0765H11.5516ZM11.487 13.8841C11.5258 13.9286 11.5499 13.9905 11.5516 14.0785L11.7516 14.0745C11.7491 13.9501 11.7137 13.8399 11.6378 13.7527L11.487 13.8841ZM11.3241 13.7645C11.3873 13.7901 11.4409 13.8291 11.4858 13.8827L11.639 13.7541C11.5734 13.6759 11.4932 13.6172 11.3992 13.5791L11.3241 13.7645ZM11.0296 13.6664C11.1524 13.6997 11.2494 13.7322 11.3219 13.7636L11.4013 13.58C11.3167 13.5434 11.2098 13.508 11.0819 13.4733L11.0296 13.6664ZM10.7852 13.5903C10.8464 13.613 10.9281 13.6383 11.0291 13.6662L11.0824 13.4735C10.9837 13.4462 10.9082 13.4226 10.8547 13.4028L10.7852 13.5903ZM10.6111 13.48C10.6591 13.5254 10.7163 13.5613 10.781 13.5887L10.8589 13.4045C10.8131 13.3851 10.7768 13.3615 10.7484 13.3346L10.6111 13.48ZM10.5256 13.264C10.5256 13.3443 10.5517 13.4174 10.607 13.476L10.7524 13.3387C10.7355 13.3208 10.7256 13.2983 10.7256 13.264H10.5256ZM10.6593 13.0077C10.5734 13.0699 10.5256 13.1577 10.5256 13.264H10.7256C10.7256 13.2257 10.7394 13.1967 10.7766 13.1697L10.6593 13.0077ZM10.9665 12.9218C10.849 12.9218 10.7433 12.9469 10.6593 13.0077L10.7766 13.1697C10.8159 13.1413 10.8759 13.1218 10.9665 13.1218V12.9218ZM11.2984 13.028C11.2096 12.9535 11.0952 12.9218 10.9665 12.9218V13.1218C11.063 13.1218 11.127 13.1453 11.1699 13.1812L11.2984 13.028ZM11.4455 13.3175C11.4373 13.2 11.3878 13.1006 11.2972 13.027L11.1711 13.1822C11.2165 13.2191 11.2414 13.2663 11.2459 13.3315L11.4455 13.3175ZM11.6357 13.2245H11.3457V13.4245H11.6357V13.2245ZM11.381 13.0003C11.4758 13.0781 11.5285 13.1844 11.5358 13.3295L11.7355 13.3195C11.7258 13.1247 11.6511 12.9633 11.508 12.8457L11.381 13.0003ZM10.9761 12.8764C11.1523 12.8764 11.2841 12.9207 11.381 13.0003L11.508 12.8457C11.3669 12.7299 11.1865 12.6764 10.9761 12.6764V12.8764ZM10.683 12.9343C10.7657 12.8966 10.8627 12.8764 10.9761 12.8764V12.6764C10.8388 12.6764 10.7127 12.7009 10.6 12.7524L10.683 12.9343ZM10.4966 13.0767C10.5376 13.0194 10.5975 12.9715 10.6814 12.935L10.6016 12.7516C10.4901 12.8001 10.3992 12.8691 10.3339 12.9605L10.4966 13.0767ZM10.4356 13.264C10.4356 13.1961 10.4553 13.1345 10.4966 13.0767L10.3339 12.9605C10.269 13.0513 10.2356 13.1534 10.2356 13.264H10.4356ZM10.499 13.4747C10.4596 13.4264 10.4356 13.3592 10.4356 13.264H10.2356C10.2356 13.3939 10.269 13.5093 10.3442 13.6013L10.499 13.4747ZM10.6728 13.6028C10.6055 13.5728 10.5471 13.5295 10.4969 13.4721L10.3464 13.6038C10.4152 13.6824 10.4969 13.7433 10.5911 13.7854L10.6728 13.6028ZM10.976 13.6994C10.8488 13.666 10.7472 13.6333 10.6699 13.6016L10.594 13.7866C10.6824 13.8229 10.7932 13.8582 10.9252 13.8928L10.976 13.6994ZM11.3151 13.8205C11.2354 13.7756 11.1199 13.7359 10.9752 13.6992L10.926 13.893C11.0659 13.9285 11.1608 13.9631 11.217 13.9948L11.3151 13.8205ZM11.468 14.0765C11.468 14.0231 11.456 13.9714 11.4281 13.9252C11.4003 13.8791 11.3602 13.8444 11.313 13.8193L11.2191 13.9959C11.2399 14.007 11.2508 14.0184 11.2569 14.0286C11.263 14.0388 11.268 14.0535 11.268 14.0765H11.468ZM11.3333 14.3407C11.4194 14.2746 11.468 14.1847 11.468 14.0765H11.268C11.268 14.117 11.2529 14.1503 11.2116 14.1819L11.3333 14.3407ZM11.0111 14.4346C11.1355 14.4346 11.2466 14.4071 11.3333 14.3407L11.2116 14.182C11.1708 14.2132 11.1077 14.2346 11.0111 14.2346V14.4346ZM10.6615 14.332C10.7575 14.4033 10.8768 14.4346 11.0111 14.4346V14.2346C10.9075 14.2346 10.8336 14.2107 10.7808 14.1715L10.6615 14.332ZM10.5006 14.048C10.5119 14.1639 10.5671 14.2598 10.6604 14.3312L10.7819 14.1723C10.7308 14.1332 10.7053 14.0868 10.6996 14.0285L10.5006 14.048ZM10.3006 14.1383H10.6001V13.9383H10.3006V14.1383ZM10.4828 14.2622C10.4331 14.1954 10.4056 14.1197 10.4004 14.0323L10.2007 14.0442C10.2082 14.1693 10.2487 14.2826 10.3223 14.3815L10.4828 14.2622ZM10.6945 14.4215C10.6015 14.3806 10.532 14.3267 10.482 14.2612L10.323 14.3825C10.3963 14.4785 10.4945 14.552 10.614 14.6046L10.6945 14.4215ZM12.5146 14.0733V13.0441H12.3146V14.0733H12.5146ZM12.5395 14.1842C12.5313 14.176 12.5146 14.1484 12.5146 14.0733H12.3146C12.3146 14.1681 12.3341 14.2616 12.3981 14.3257L12.5395 14.1842ZM12.6568 14.2059C12.5746 14.2059 12.5448 14.1892 12.5373 14.1821L12.4003 14.3278C12.465 14.3887 12.5605 14.4059 12.6568 14.4059V14.2059ZM12.8703 14.2059H12.6568V14.4059H12.8703V14.2059ZM12.9703 14.5513V14.3059H12.7703V14.5513H12.9703ZM12.609 14.6513H12.8703V14.4513H12.609V14.6513ZM12.178 14.5133C12.2843 14.6112 12.4341 14.6513 12.609 14.6513V14.4513C12.461 14.4513 12.3687 14.417 12.3135 14.3662L12.178 14.5133ZM12.0247 14.0733C12.0247 14.2561 12.0677 14.4117 12.178 14.5133L12.3135 14.3662C12.2623 14.3191 12.2247 14.2305 12.2247 14.0733H12.0247ZM12.0247 13.0441V14.0733H12.2247V13.0441H12.0247ZM11.8984 13.1441H12.1247V12.9441H11.8984V13.1441ZM11.7984 12.8051V13.0441H11.9984V12.8051H11.7984ZM12.1247 12.7051H11.8984V12.9051H12.1247V12.7051ZM12.0247 12.3654V12.8051H12.2247V12.3654H12.0247ZM12.4146 12.2654H12.1247V12.4654H12.4146V12.2654ZM12.5146 12.8051V12.3654H12.3146V12.8051H12.5146ZM12.8703 12.7051H12.4146V12.9051H12.8703V12.7051ZM12.9703 13.0441V12.8051H12.7703V13.0441H12.9703ZM12.4146 13.1441H12.8703V12.9441H12.4146V13.1441ZM2.57032 6.89905C2.57032 7.08365 2.72009 7.23342 2.90469 7.23342V7.03342C2.83055 7.03342 2.77032 6.97319 2.77032 6.89905H2.57032ZM2.90469 6.56467C2.72009 6.56467 2.57032 6.71444 2.57032 6.89905H2.77032C2.77032 6.8249 2.83055 6.76467 2.90469 6.76467V6.56467ZM8.78469 6.56467H2.90469V6.76467H8.78469V6.56467ZM9.11907 6.89905C9.11907 6.71445 8.9693 6.56467 8.78469 6.56467V6.76467C8.85884 6.76467 8.91907 6.8249 8.91907 6.89905H9.11907ZM8.78469 7.23342C8.9693 7.23342 9.11907 7.08365 9.11907 6.89905H8.91907C8.91907 6.9732 8.85884 7.03342 8.78469 7.03342V7.23342ZM2.90469 7.23342H8.78469V7.03342H2.90469V7.23342ZM4.05254 4.51011C4.05254 4.66878 3.99902 4.79615 3.89219 4.89942L4.0312 5.04322C4.17883 4.90051 4.25254 4.72041 4.25254 4.51011H4.05254ZM3.88765 4.11616C3.99699 4.21668 4.05254 4.34509 4.05254 4.51011H4.25254C4.25254 4.29345 4.17662 4.11015 4.02302 3.96893L3.88765 4.11616ZM3.38598 3.96124C3.62134 3.96124 3.78269 4.01808 3.88706 4.11561L4.02361 3.96948C3.86928 3.82527 3.65106 3.76124 3.38598 3.76124V3.96124ZM2.67032 3.96124H3.38598V3.76124H2.67032V3.96124ZM2.77032 6.07821V3.86124H2.57032V6.07821H2.77032ZM2.95977 5.97821H2.67032V6.17821H2.95977V5.97821ZM2.85977 5.15262V6.07821H3.05977V5.15262H2.85977ZM3.38598 5.05262H2.95977V5.25262H3.38598V5.05262ZM3.89222 4.8994C3.79311 4.99514 3.63122 5.05262 3.38598 5.05262V5.25262C3.65815 5.25262 3.88006 5.18923 4.03118 5.04324L3.89222 4.8994ZM3.38598 5.01407C3.55878 5.01407 3.70709 4.97697 3.8098 4.88282L3.67465 4.73539C3.62469 4.78119 3.5355 4.81407 3.38598 4.81407V5.01407ZM2.95977 5.01407H3.38598V4.81407H2.95977V5.01407ZM2.85977 4.0998V4.91407H3.05977V4.0998H2.85977ZM3.38598 3.9998H2.95977V4.1998H3.38598V3.9998ZM3.95673 4.51011C3.95673 4.35408 3.91134 4.2199 3.80475 4.12699C3.70079 4.03638 3.5552 3.9998 3.38598 3.9998V4.1998C3.5306 4.1998 3.62039 4.23161 3.67334 4.27776C3.72366 4.32163 3.75673 4.3926 3.75673 4.51011H3.95673ZM3.8098 4.88282C3.91173 4.78938 3.95673 4.66001 3.95673 4.51011H3.75673C3.75673 4.61891 3.72539 4.68888 3.67465 4.73539L3.8098 4.88282ZM4.89079 4.66374C4.93336 4.58038 4.99247 4.51732 5.0689 4.47216L4.96715 4.29997C4.85697 4.36508 4.77189 4.45681 4.71267 4.57278L4.89079 4.66374ZM4.70173 4.33517V4.61826H4.90173V4.33517H4.70173ZM4.51229 4.43517H4.80173V4.23517H4.51229V4.43517ZM4.61229 6.07821V4.33517H4.41229V6.07821H4.61229ZM4.80173 5.97821H4.51229V6.17821H4.80173V5.97821ZM4.70173 5.13036V6.07821H4.90173V5.13036H4.70173ZM5.28838 4.50235C5.10856 4.50235 4.95593 4.55151 4.84986 4.66658C4.74522 4.78011 4.70173 4.94087 4.70173 5.13036H4.90173C4.90173 4.96784 4.93935 4.8646 4.99693 4.80213C5.05308 4.7412 5.14377 4.70235 5.28838 4.70235V4.50235ZM5.36472 4.50235H5.28838V4.70235H5.36472V4.50235ZM5.26472 4.30337V4.60235H5.46472V4.30337H5.26472ZM5.06805 4.47265C5.14511 4.42813 5.24254 4.40337 5.36472 4.40337V4.20337C5.21548 4.20337 5.08178 4.23374 4.96799 4.29948L5.06805 4.47265ZM7.37914 5.32513C7.38582 5.26062 7.38921 5.19885 7.38921 5.1399H7.18922C7.18922 5.19121 7.18625 5.24607 7.1802 5.30455L7.37914 5.32513ZM5.88651 5.41484H7.27967V5.21484H5.88651V5.41484ZM6.12916 5.6452C6.04575 5.56846 5.99566 5.46 5.98632 5.30868L5.7867 5.321C5.79857 5.5132 5.86511 5.67404 5.99375 5.79238L6.12916 5.6452ZM6.45268 5.76192C6.32282 5.76192 6.21636 5.72211 6.12761 5.64381L5.99529 5.79378C6.12284 5.90632 6.2772 5.96192 6.45268 5.96192V5.76192ZM6.70747 5.69383C6.64518 5.73695 6.56245 5.76192 6.45268 5.76192V5.96192C6.59314 5.96192 6.71821 5.92965 6.82132 5.85826L6.70747 5.69383ZM6.84807 5.50782C6.82106 5.58546 6.7747 5.64677 6.70705 5.69412L6.82174 5.85797C6.92373 5.78657 6.99611 5.69097 7.03696 5.57352L6.84807 5.50782ZM7.25423 5.44067H6.94251V5.64067H7.25423V5.44067ZM7.03471 6.03069C7.19193 5.91159 7.29798 5.75632 7.35056 5.5675L7.15789 5.51384C7.11718 5.66006 7.03662 5.77833 6.91394 5.87128L7.03471 6.03069ZM6.45268 6.20684C6.67771 6.20684 6.87362 6.1503 7.03393 6.03128L6.91471 5.87069C6.79512 5.95948 6.64327 6.00684 6.45268 6.00684V6.20684ZM5.95822 6.0826C6.1061 6.16608 6.27175 6.20684 6.45268 6.20684V6.00684C6.30282 6.00684 6.1716 5.97339 6.05654 5.90843L5.95822 6.0826ZM5.61429 5.7286C5.69701 5.87985 5.81166 5.99851 5.95761 6.08225L6.05715 5.90878C5.9444 5.84409 5.85549 5.75281 5.78977 5.63264L5.61429 5.7286ZM5.4907 5.20351C5.4907 5.39778 5.5308 5.57356 5.61398 5.72803L5.79008 5.63321C5.72482 5.51202 5.6907 5.36973 5.6907 5.20351H5.4907ZM5.61054 4.68267C5.52954 4.83514 5.4907 5.00974 5.4907 5.20351H5.6907C5.6907 5.0368 5.72397 4.89545 5.78716 4.7765L5.61054 4.68267ZM5.95233 4.33052C5.8055 4.41237 5.69131 4.53062 5.61054 4.68267L5.78716 4.7765C5.85058 4.65712 5.93784 4.56757 6.0497 4.50522L5.95233 4.33052ZM6.45268 4.20655C6.26799 4.20655 6.10011 4.2471 5.95186 4.33079L6.05018 4.50495C6.16486 4.44021 6.2981 4.40655 6.45268 4.40655V4.20655ZM6.94093 4.32769C6.79678 4.246 6.63306 4.20655 6.45268 4.20655V4.40655C6.6031 4.40655 6.73201 4.43918 6.84232 4.50169L6.94093 4.32769ZM7.27249 4.66662C7.19557 4.5224 7.08441 4.409 6.94092 4.32769L6.84232 4.50169C6.9533 4.56458 7.03722 4.6505 7.09602 4.76074L7.27249 4.66662ZM7.38921 5.1399C7.38921 4.96568 7.35073 4.80647 7.27153 4.66487L7.09698 4.7625C7.15772 4.8711 7.18922 4.99604 7.18922 5.1399H7.38921ZM6.83214 4.84917C6.8693 4.90895 6.89023 4.98421 6.89023 5.07946H7.09023C7.09023 4.95419 7.06238 4.84073 7.002 4.74359L6.83214 4.84917ZM6.67378 4.70541C6.74086 4.73727 6.79285 4.78427 6.83152 4.84816L7.00262 4.7446C6.94375 4.64733 6.86215 4.57346 6.75959 4.52475L6.67378 4.70541ZM6.43996 4.65146C6.52741 4.65146 6.60378 4.66956 6.67105 4.70406L6.76231 4.5261C6.66419 4.47577 6.55607 4.45146 6.43996 4.45146V4.65146ZM6.13145 4.76582C6.21606 4.68984 6.31702 4.65146 6.43996 4.65146V4.45146C6.27027 4.45146 6.12101 4.50639 5.99782 4.61701L6.13145 4.76582ZM5.98929 5.0884C6.00238 4.94253 6.05238 4.8383 6.13221 4.76513L5.99706 4.6177C5.87332 4.73113 5.80669 4.88561 5.79009 5.07053L5.98929 5.0884ZM6.99023 4.97946H5.88969V5.17946H6.99023V4.97946ZM2.57031 8.16003C2.57031 8.34463 2.72008 8.49441 2.90469 8.49441V8.2944C2.83054 8.2944 2.77031 8.23418 2.77031 8.16003H2.57031ZM2.90469 7.82566C2.72008 7.82566 2.57031 7.97543 2.57031 8.16003H2.77031C2.77031 8.08588 2.83054 8.02566 2.90469 8.02566V7.82566ZM9.94531 7.82566H2.90469V8.02566H9.94531V7.82566ZM10.2797 8.16003C10.2797 7.97543 10.1299 7.82566 9.94531 7.82566V8.02566C10.0195 8.02566 10.0797 8.08588 10.0797 8.16003H10.2797ZM9.94531 8.49441C10.1299 8.49441 10.2797 8.34463 10.2797 8.16003H10.0797C10.0797 8.23418 10.0195 8.2944 9.94531 8.2944V8.49441ZM2.90469 8.49441H9.94531V8.2944H2.90469V8.49441ZM2.90469 9.55565C2.83054 9.55565 2.77031 9.49543 2.77031 9.42128H2.57031C2.57031 9.60588 2.72008 9.75566 2.90469 9.75566V9.55565ZM11.7638 9.55565H2.90469V9.75566H11.7638V9.55565ZM11.8981 9.42128C11.8981 9.49543 11.8379 9.55565 11.7638 9.55565V9.75566C11.9484 9.75566 12.0981 9.60588 12.0981 9.42128H11.8981ZM11.7638 9.28691C11.8379 9.28691 11.8981 9.34713 11.8981 9.42128H12.0981C12.0981 9.23668 11.9484 9.0869 11.7638 9.0869V9.28691ZM2.90469 9.28691H11.7638V9.0869H2.90469V9.28691ZM2.77031 9.42128C2.77031 9.34713 2.83054 9.28691 2.90469 9.28691V9.0869C2.72008 9.0869 2.57031 9.23668 2.57031 9.42128H2.77031ZM11.7638 10.3478H2.90469V10.5478H11.7638V10.3478ZM12.0981 10.6822C12.0981 10.4976 11.9484 10.3478 11.7638 10.3478V10.5478C11.8379 10.5478 11.8981 10.6081 11.8981 10.6822H12.0981ZM11.7638 11.0166C11.9484 11.0166 12.0981 10.8668 12.0981 10.6822H11.8981C11.8981 10.7564 11.8379 10.8166 11.7638 10.8166V11.0166ZM2.90469 11.0166H11.7638V10.8166H2.90469V11.0166ZM2.57031 10.6822C2.57031 10.8668 2.72008 11.0166 2.90469 11.0166V10.8166C2.83054 10.8166 2.77031 10.7564 2.77031 10.6822H2.57031ZM2.90469 10.3478C2.72008 10.3478 2.57031 10.4976 2.57031 10.6822H2.77031C2.77031 10.6081 2.83054 10.5478 2.90469 10.5478V10.3478ZM2.77867 11.8091H5.90442V11.6091H2.77867V11.8091ZM2.77031 11.9435C2.77031 11.8899 2.78056 11.8463 2.79283 11.8197C2.79574 11.8134 2.79845 11.8088 2.80063 11.8056C2.80285 11.8024 2.80413 11.8012 2.80403 11.8013C2.80374 11.8016 2.79495 11.8091 2.77867 11.8091V11.6091C2.68631 11.6091 2.63434 11.686 2.61129 11.7358C2.58433 11.7941 2.57031 11.8676 2.57031 11.9435H2.77031ZM2.77867 12.0778C2.79495 12.0778 2.80374 12.0854 2.80403 12.0857C2.80413 12.0857 2.80285 12.0846 2.80063 12.0813C2.79845 12.0781 2.79574 12.0735 2.79283 12.0672C2.78056 12.0407 2.77031 11.997 2.77031 11.9435H2.57031C2.57031 12.0193 2.58433 12.0928 2.61129 12.1511C2.63434 12.201 2.68631 12.2778 2.77867 12.2778V12.0778ZM5.90442 12.0778H2.77867V12.2778H5.90442V12.0778ZM5.91278 11.9435C5.91278 11.997 5.90253 12.0407 5.89026 12.0672C5.88735 12.0735 5.88465 12.0781 5.88246 12.0813C5.88024 12.0846 5.87896 12.0857 5.87907 12.0857C5.87936 12.0854 5.88814 12.0778 5.90442 12.0778V12.2778C5.99678 12.2778 6.04876 12.201 6.0718 12.1511C6.09876 12.0928 6.11278 12.0193 6.11278 11.9435H5.91278ZM5.90442 11.8091C5.88814 11.8091 5.87936 11.8016 5.87907 11.8013C5.87896 11.8012 5.88024 11.8024 5.88246 11.8056C5.88465 11.8088 5.88735 11.8134 5.89026 11.8197C5.90253 11.8463 5.91278 11.8899 5.91278 11.9435H6.11278C6.11278 11.8676 6.09876 11.7941 6.0718 11.7358C6.04876 11.686 5.99678 11.6091 5.90442 11.6091V11.8091ZM5.89343 12.845H5.89295V13.045H5.89343V12.845ZM6.11278 13.1782C6.11259 13.1013 6.09681 13.0268 6.06667 12.9678C6.0393 12.9143 5.98349 12.845 5.89343 12.845V13.045C5.86909 13.045 5.8728 13.028 5.88859 13.0589C5.90161 13.0843 5.91265 13.1265 5.91278 13.1787L6.11278 13.1782ZM5.89486 13.5138C5.98477 13.5129 6.04023 13.4433 6.06741 13.3895C6.09739 13.3302 6.11297 13.2554 6.11278 13.1782L5.91278 13.1787C5.91291 13.2309 5.90199 13.2734 5.88892 13.2993C5.87306 13.3307 5.86892 13.314 5.89296 13.3138L5.89486 13.5138ZM2.79095 13.5391L5.89472 13.5138L5.89309 13.3138L2.78932 13.3391L2.79095 13.5391ZM2.78966 13.5391H2.79013V13.3391H2.78966V13.5391ZM2.57031 13.2059C2.5705 13.2828 2.58627 13.3573 2.61641 13.4163C2.64379 13.4698 2.6996 13.5391 2.78966 13.5391V13.3391C2.81399 13.3391 2.81029 13.3562 2.7945 13.3253C2.78148 13.2998 2.77044 13.2576 2.77031 13.2054L2.57031 13.2059ZM2.78823 12.8703C2.69831 12.8712 2.64286 12.9408 2.61567 12.9946C2.5857 13.0539 2.57012 13.1287 2.57031 13.2059L2.77031 13.2054C2.77018 13.1532 2.7811 13.1107 2.79417 13.0848C2.81003 13.0535 2.81417 13.0701 2.79013 13.0703L2.78823 12.8703ZM5.89214 12.845L2.78836 12.8703L2.78999 13.0703L5.89377 13.045L5.89214 12.845Z" fill="currentColor" mask="url(#path-1-outside-1_2947_12976)"/>
</svg>
