<svg width="16" height="16" viewBox="0 0 16 16" fill="none" xmlns="http://www.w3.org/2000/svg">
<path d="M11.1765 2.11765H12.3515C12.8727 2.11765 13.2941 2.53741 13.2941 3.0603V15.0573C13.2941 15.5778 12.8721 16 12.3518 16H2.94233C2.42128 16 2 15.5802 2 15.0573V3.0603C2 2.53918 2.41979 2.11765 2.94257 2.11765H4.11765V1.88235C4.11765 1.3623 4.53723 0.941176 5.05838 0.941176H6.15176C6.19889 0.850068 6.25751 0.754691 6.32941 0.658821C6.63379 0.252976 7.07651 0 7.64706 0C8.21761 0 8.66032 0.252976 8.96471 0.658821C9.03661 0.754691 9.09522 0.850068 9.14236 0.941176H10.2357C10.7557 0.941176 11.1765 1.36119 11.1765 1.88235V2.11765ZM4.11765 3.05924C3.40112 3.05948 2.94118 3.05982 2.94118 3.0603C2.94118 3.0603 2.94034 15.0588 2.94233 15.0588C2.94233 15.0588 12.3529 15.0581 12.3529 15.0573C12.3529 15.0573 12.3537 3.05882 12.3515 3.05882C12.3515 3.05882 11.8922 3.05878 11.1765 3.05875V3.29461C11.1765 3.81404 10.7553 4.23529 10.236 4.23529H5.05812C4.53883 4.23529 4.11765 3.81337 4.11765 3.29461V3.05924ZM10.2353 3.29412V1.88235H8.82353C8.60759 1.88235 8.41937 1.73538 8.36699 1.52589C8.3515 1.4639 8.3008 1.34225 8.21176 1.22353C8.07497 1.04114 7.90004 0.941176 7.64706 0.941176C7.39408 0.941176 7.21915 1.04114 7.08235 1.22353C6.99332 1.34225 6.94262 1.4639 6.92712 1.52589C6.87475 1.73538 6.68653 1.88235 6.47059 1.88235H5.05882V3.29412H10.2353ZM10.7036 6.11765C10.9635 6.11765 11.1742 6.32834 11.1742 6.58824C11.1742 6.84813 10.9635 7.05882 10.7036 7.05882H7.64706C7.38716 7.05882 7.17647 6.84813 7.17647 6.58824C7.17647 6.32834 7.38716 6.11765 7.64706 6.11765H10.7036ZM10.7047 8.94118C10.9646 8.94118 11.1753 9.15187 11.1753 9.41177C11.1753 9.67166 10.9646 9.88235 10.7047 9.88235H7.64821C7.38832 9.88235 7.17763 9.67166 7.17763 9.41177C7.17763 9.15187 7.38832 8.94118 7.64821 8.94118H10.7047ZM4.92099 6.25549L5.05882 6.39331L5.66724 5.7849C5.85102 5.60112 6.14898 5.60112 6.33276 5.7849C6.51653 5.96867 6.51653 6.26662 6.33276 6.4504L5.39158 7.39157C5.2078 7.57535 4.90984 7.57535 4.72607 7.39157L4.25548 6.92098C4.0717 6.73721 4.0717 6.43926 4.25548 6.25549C4.43925 6.07171 4.73722 6.07171 4.92099 6.25549ZM4.92099 9.07902L5.05882 9.21684L5.66724 8.60843C5.85102 8.42465 6.14898 8.42465 6.33276 8.60843C6.51653 8.7922 6.51653 9.09015 6.33276 9.27393L5.39158 10.2151C5.2078 10.3989 4.90984 10.3989 4.72607 10.2151L4.25548 9.74451C4.0717 9.56074 4.0717 9.26279 4.25548 9.07902C4.43925 8.89524 4.73722 8.89524 4.92099 9.07902ZM10.7047 11.7647C10.9646 11.7647 11.1753 11.9754 11.1753 12.2353C11.1753 12.4952 10.9646 12.7059 10.7047 12.7059H7.64821C7.38832 12.7059 7.17763 12.4952 7.17763 12.2353C7.17763 11.9754 7.38832 11.7647 7.64821 11.7647H10.7047ZM4.92099 11.9025L5.05882 12.0404L5.66724 11.432C5.85102 11.2482 6.14898 11.2482 6.33276 11.432C6.51653 11.6157 6.51653 11.9137 6.33276 12.0975L5.39158 13.0386C5.2078 13.2224 4.90984 13.2224 4.72607 13.0386L4.25548 12.568C4.0717 12.3843 4.0717 12.0863 4.25548 11.9025C4.43925 11.7188 4.73722 11.7188 4.92099 11.9025Z" fill="currentcolor"/>
</svg>
