<svg width="24" height="24" viewBox="0 0 24 24" fill="none" xmlns="http://www.w3.org/2000/svg">
<path d="M9.33333 12H8C7.26467 12 6.66667 12.598 6.66667 13.3333V14.6667C6.66667 15.402 7.26467 16 8 16H9.33333C10.0687 16 10.6667 15.402 10.6667 14.6667V13.3333C10.6667 12.598 10.0687 12 9.33333 12ZM8 14.6667V13.3333H9.33333V14.6667H8ZM16.6667 5.33333H16V4.66667C16 4.29867 15.702 4 15.3333 4C14.9647 4 14.6667 4.29867 14.6667 4.66667V5.33333H9.33333V4.66667C9.33333 4.29867 9.03533 4 8.66667 4C8.298 4 8 4.29867 8 4.66667V5.33333H7.33333C5.49533 5.33333 4 6.82867 4 8.66667V16.6667C4 18.5047 5.49533 20 7.33333 20H16.6667C18.5047 20 20 18.5047 20 16.6667V8.66667C20 6.82867 18.5047 5.33333 16.6667 5.33333ZM7.33333 6.66667H16.6667C17.7693 6.66667 18.6667 7.564 18.6667 8.66667V9.33333H5.33333V8.66667C5.33333 7.564 6.23067 6.66667 7.33333 6.66667ZM16.6667 18.6667H7.33333C6.23067 18.6667 5.33333 17.7693 5.33333 16.6667V10.6667H18.6667V16.6667C18.6667 17.7693 17.7693 18.6667 16.6667 18.6667Z" fill="currentColor"/>
</svg>
