<svg width="16" height="16" viewBox="0 0 16 16" fill="none" xmlns="http://www.w3.org/2000/svg">
<path fill-rule="evenodd" clip-rule="evenodd" d="M13.0233 6.02211V5.02326C13.0233 2.86512 12.5023 0 8 0C3.49767 0 2.97674 2.86512 2.97674 5.02326V6.02211C0.725784 6.29571 0 7.43273 0 10.2326V11.7209C0 15.0028 0.997209 16 4.27907 16H11.7209C15.0028 16 16 15.0028 16 11.7209V10.2326C16 7.43273 15.2742 6.29571 13.0233 6.02211ZM4.09302 5.95459C4.15421 5.95385 4.21622 5.95349 4.27907 5.95349H11.7209C11.7838 5.95349 11.8458 5.95385 11.907 5.95459V5.02326C11.907 2.67907 11.2447 1.11628 8 1.11628C4.75535 1.11628 4.09302 2.67907 4.09302 5.02326V5.95459ZM8 13.3953C6.66791 13.3953 5.5814 12.3088 5.5814 10.9767C5.5814 9.64465 6.66791 8.55814 8 8.55814C9.33209 8.55814 10.4186 9.64465 10.4186 10.9767C10.4186 12.3088 9.33209 13.3953 8 13.3953ZM8 9.67442C7.28558 9.67442 6.69767 10.2623 6.69767 10.9767C6.69767 11.6912 7.28558 12.2791 8 12.2791C8.71442 12.2791 9.30233 11.6912 9.30233 10.9767C9.30233 10.2623 8.71442 9.67442 8 9.67442ZM1.11628 10.2326C1.11628 7.57581 1.61488 7.06977 4.27907 7.06977H11.7209C14.3851 7.06977 14.8837 7.57581 14.8837 10.2326V11.7209C14.8837 14.3777 14.3851 14.8837 11.7209 14.8837H4.27907C1.61488 14.8837 1.11628 14.3777 1.11628 11.7209V10.2326Z" fill="#71347B"/>
</svg>
