<svg width="16" height="16" viewBox="0 0 16 16" fill="none" xmlns="http://www.w3.org/2000/svg">
<g clip-path="url(#clip0_12674_109798)">
<path d="M3.25879 1.75873C2.43154 1.75873 1.75879 2.43148 1.75879 3.25873C1.75879 4.08598 2.43154 4.75873 3.25879 4.75873C4.08604 4.75873 4.75879 4.08598 4.75879 3.25873C4.75879 2.43148 4.08604 1.75873 3.25879 1.75873ZM3.25879 4.25873C2.70729 4.25873 2.25879 3.81023 2.25879 3.25873C2.25879 2.70723 2.70729 2.25873 3.25879 2.25873C3.81029 2.25873 4.25879 2.70723 4.25879 3.25873C4.25879 3.81023 3.81029 4.25873 3.25879 4.25873Z" fill="currentcolor"/>
<path d="M14.4267 12.1767L14.0732 11.8232L12.25 13.6465L11.9267 13.3232L11.5732 13.6767L12.25 14.3535L14.4267 12.1767Z" fill="currentcolor"/>
<path d="M8.75 3H9.25V3.5H8.75V3Z" fill="currentcolor"/>
<path d="M11.75 3H12.25V3.5H11.75V3Z" fill="currentcolor"/>
<path d="M10.75 3H11.25V3.5H10.75V3Z" fill="currentcolor"/>
<path d="M9.75 3H10.25V3.5H9.75V3Z" fill="currentcolor"/>
<path d="M6 9.24998H10C10.4135 9.24998 10.75 8.91348 10.75 8.49998V8.24998H14C14.9648 8.24998 15.75 7.46498 15.75 6.49998V4.74998C15.75 3.78498 14.9648 2.99998 14 2.99998H13.25V2.74998C13.25 2.33648 12.9135 1.99998 12.5 1.99998H8.5C8.0865 1.99998 7.75 2.33648 7.75 2.74998V2.99998H6.25875V2.56798L5.6025 2.38873C5.581 2.33123 5.557 2.27398 5.531 2.21748L5.86875 1.62598L4.89175 0.648978L4.3005 0.986478C4.24375 0.960478 4.18675 0.936478 4.12925 0.914978L3.94975 0.258728H2.568L2.3885 0.914978C2.331 0.936478 2.274 0.960228 2.2175 0.986478L1.626 0.648978L0.649 1.62598L0.9865 2.21748C0.9605 2.27398 0.9365 2.33123 0.915 2.38873L0.25875 2.56798V3.94948L0.915 4.12898C0.9365 4.18648 0.9605 4.24373 0.9865 4.30023L0.64875 4.89173L1.62575 5.86848L2.21725 5.53098C2.27375 5.55698 2.33075 5.58098 2.38825 5.60248L2.56775 6.25873H3.9495L4.129 5.60248C4.18625 5.58098 4.2435 5.55698 4.30025 5.53098L4.8915 5.86823L5.8685 4.89148L5.53075 4.29998C5.55675 4.24348 5.58075 4.18623 5.60225 4.12873L6.2585 3.94923V3.49998H7.75V3.74998C7.75 4.16348 8.0865 4.49998 8.5 4.49998H12.5C12.9135 4.49998 13.25 4.16348 13.25 3.74998V3.49998H14C14.6892 3.49998 15.25 4.06073 15.25 4.74998V6.49998C15.25 7.18923 14.6892 7.74998 14 7.74998H10.75V7.49998C10.75 7.08648 10.4135 6.74998 10 6.74998H6C5.5865 6.74998 5.25 7.08648 5.25 7.49998V7.74998H2C1.03525 7.74998 0.25 8.53523 0.25 9.49998V11.5C0.25 12.4647 1.03525 13.25 2 13.25H2.75V13.5C2.75 13.9135 3.0865 14.25 3.5 14.25H7.5C7.9135 14.25 8.25 13.9135 8.25 13.5V13.25H10.2627C10.3895 14.6495 11.568 15.75 13 15.75C14.5162 15.75 15.75 14.5162 15.75 13C15.75 11.4837 14.5162 10.25 13 10.25C11.568 10.25 10.3895 11.3505 10.2627 12.75H8.25V12.5C8.25 12.0865 7.9135 11.75 7.5 11.75H3.5C3.0865 11.75 2.75 12.0865 2.75 12.5V12.75H2C1.31075 12.75 0.75 12.1892 0.75 11.5V9.49998C0.75 8.81073 1.31075 8.24998 2 8.24998H5.25V8.49998C5.25 8.91348 5.5865 9.24998 6 9.24998ZM5.75875 3.56798L5.2105 3.71798L5.17025 3.84923C5.13425 3.96498 5.08625 4.08023 5.02725 4.19173L4.96275 4.31323L5.24525 4.80798L4.80825 5.24523L4.31325 4.96298L4.192 5.02723C4.08075 5.08623 3.9655 5.13423 3.8495 5.16998L3.7185 5.21048L3.56825 5.75873H2.95L2.79975 5.21048L2.66875 5.16998C2.55325 5.13423 2.438 5.08648 2.32625 5.02723L2.20475 4.96298L1.71 5.24523L1.2725 4.80798L1.555 4.31323L1.4905 4.19173C1.4315 4.08023 1.38325 3.96498 1.3475 3.84923L1.30725 3.71798L0.759 3.56798V2.94948L1.30725 2.79973L1.34775 2.66848C1.3835 2.55273 1.4315 2.43748 1.4905 2.32623L1.555 2.20448L1.2725 1.70973L1.7095 1.27248L2.20425 1.55473L2.32575 1.49048C2.438 1.43123 2.55325 1.38298 2.66825 1.34748L2.79925 1.30698L2.9495 0.758728H3.56775L3.718 1.30698L3.849 1.34748C3.9645 1.38323 4.07975 1.43123 4.1915 1.49048L4.31275 1.55473L4.80775 1.27248L5.24475 1.70973L4.96225 2.20448L5.02675 2.32598C5.08575 2.43723 5.134 2.55248 5.1695 2.66823L5.21 2.79948L5.75825 2.94923V3.56798H5.75875ZM12.75 3.74998C12.75 3.88773 12.638 3.99998 12.5 3.99998H8.5C8.362 3.99998 8.25 3.88773 8.25 3.74998V2.74998C8.25 2.61223 8.362 2.49998 8.5 2.49998H12.5C12.638 2.49998 12.75 2.61223 12.75 2.74998V3.74998ZM13 10.75C14.2408 10.75 15.25 11.7592 15.25 13C15.25 14.2407 14.2408 15.25 13 15.25C11.7592 15.25 10.75 14.2407 10.75 13C10.75 11.7592 11.7592 10.75 13 10.75ZM3.25 12.5C3.25 12.362 3.362 12.25 3.5 12.25H7.5C7.638 12.25 7.75 12.362 7.75 12.5V13.5C7.75 13.638 7.638 13.75 7.5 13.75H3.5C3.362 13.75 3.25 13.638 3.25 13.5V12.5ZM5.75 7.49998C5.75 7.36223 5.862 7.24998 6 7.24998H10C10.138 7.24998 10.25 7.36223 10.25 7.49998V8.49998C10.25 8.63798 10.138 8.74998 10 8.74998H6C5.862 8.74998 5.75 8.63798 5.75 8.49998V7.49998Z" fill="currentcolor"/>
<path d="M8.25 7.75H8.75V8.25H8.25V7.75Z" fill="currentcolor"/>
<path d="M7.25 7.75H7.75V8.25H7.25V7.75Z" fill="currentcolor"/>
<path d="M6.25 7.75H6.75V8.25H6.25V7.75Z" fill="currentcolor"/>
<path d="M9.25 7.75H9.75V8.25H9.25V7.75Z" fill="currentcolor"/>
<path d="M4.75 12.75H5.25V13.25H4.75V12.75Z" fill="currentcolor"/>
<path d="M6.75 12.75H7.25V13.25H6.75V12.75Z" fill="currentcolor"/>
<path d="M5.75 12.75H6.25V13.25H5.75V12.75Z" fill="currentcolor"/>
<path d="M3.75 12.75H4.25V13.25H3.75V12.75Z" fill="currentcolor"/>
</g>
<defs>
<clipPath id="clip0_12674_109798">
<rect width="16" height="16" fill="currentcolor"/>
</clipPath>
</defs>
</svg>
