<svg width="16" height="16" viewBox="0 0 16 16" fill="none" xmlns="http://www.w3.org/2000/svg">
<g clip-path="url(#clip0_12674_109542)">
<path d="M16 4.5713C16 4.46815 15.972 4.36695 15.9191 4.27841C15.8662 4.18988 15.7903 4.11731 15.6995 4.06842L8.27061 0.0682741C8.18736 0.0234589 8.09429 0 7.99974 0C7.9052 0 7.81213 0.0234589 7.72888 0.0682741L0.300026 4.06842C0.209308 4.11739 0.133524 4.18998 0.0807055 4.27851C0.0278867 4.36704 0 4.46821 0 4.5713C0 4.67439 0.0278867 4.77556 0.0807055 4.86409C0.133524 4.95262 0.209308 5.02521 0.300026 5.07418L2.54982 6.28565L0.300026 7.49712C0.209308 7.54609 0.133524 7.61868 0.0807055 7.70721C0.0278867 7.79574 0 7.89691 0 8C0 8.10309 0.0278867 8.20426 0.0807055 8.29279C0.133524 8.38132 0.209308 8.45391 0.300026 8.50288L2.54982 9.71435L0.300026 10.9258C0.209308 10.9748 0.133524 11.0474 0.0807055 11.1359C0.0278867 11.2244 0 11.3256 0 11.4287C0 11.5318 0.0278867 11.633 0.0807055 11.7215C0.133524 11.81 0.209308 11.8826 0.300026 11.9316L7.72888 15.9317C7.81213 15.9765 7.9052 16 7.99974 16C8.09429 16 8.18736 15.9765 8.27061 15.9317L15.6995 11.9316C15.7902 11.8826 15.866 11.81 15.9188 11.7215C15.9716 11.633 15.9995 11.5318 15.9995 11.4287C15.9995 11.3256 15.9716 11.2244 15.9188 11.1359C15.866 11.0474 15.7902 10.9748 15.6995 10.9258L13.4497 9.71435L15.6995 8.50288C15.7902 8.45391 15.866 8.38132 15.9188 8.29279C15.9716 8.20426 15.9995 8.10309 15.9995 8C15.9995 7.89691 15.9716 7.79574 15.9188 7.70721C15.866 7.61868 15.7902 7.54609 15.6995 7.49712L13.4497 6.28565L15.6995 5.07418C15.7903 5.02529 15.8662 4.95272 15.9191 4.86419C15.972 4.77565 16 4.67445 16 4.5713ZM12.245 10.3635L14.2234 11.4287L7.99974 14.7797L1.77608 11.4287L3.75444 10.3635L7.72888 12.503C7.81213 12.5478 7.9052 12.5713 7.99974 12.5713C8.09429 12.5713 8.18736 12.5478 8.27061 12.503L12.245 10.3635ZM12.245 6.93482L14.2234 8L7.99974 11.351L1.77608 8L3.75444 6.93482L7.72888 9.07433C7.81213 9.11914 7.9052 9.1426 7.99974 9.1426C8.09429 9.1426 8.18736 9.11914 8.27061 9.07433L12.245 6.93482ZM7.99974 7.92228L1.77608 4.5713L7.99974 1.22032L14.2234 4.5713L7.99974 7.92228Z" fill="currentcolor"/>
</g>
<defs>
<clipPath id="clip0_12674_109542">
<rect width="16" height="16" fill="currentcolor"/>
</clipPath>
</defs>
</svg>
