<svg width="17" height="18" viewBox="0 0 17 18" fill="none" xmlns="http://www.w3.org/2000/svg">
<mask id="path-1-outside-1_2947_12082" maskUnits="userSpaceOnUse" x="-0.427979" y="0" width="17" height="18" fill="black">
<rect fill="white" x="-0.427979" width="17" height="18"/>
<path fill-rule="evenodd" clip-rule="evenodd" d="M12.827 9.80509C12.6956 9.80509 12.5892 9.91156 12.5892 10.0429V15.7462C12.5892 16.1753 12.2399 16.5245 11.8106 16.5245H1.82587C1.39674 16.5245 1.04758 16.1753 1.04758 15.7462V4.08697H9.74337C9.87471 4.08697 9.98115 3.9805 9.98115 3.84919C9.98115 3.71788 9.87471 3.61141 9.74337 3.61141H1.04758V2.25381C1.04758 1.82469 1.39674 1.47553 1.82587 1.47553H11.8106C12.2399 1.47553 12.5892 1.82469 12.5892 2.25381C12.5892 2.38513 12.6957 2.49159 12.827 2.49159C12.9584 2.49159 13.0648 2.38513 13.0648 2.25381C13.0647 1.56247 12.5021 1 11.8106 1H1.82587C1.13452 1 0.572021 1.56247 0.572021 2.25381V15.7462C0.572021 16.4376 1.13449 17 1.82587 17H11.8106C12.5021 17 13.0648 16.4375 13.0648 15.7462V10.0429C13.0647 9.91156 12.9583 9.80509 12.827 9.80509ZM1.66752 2.51781C1.66752 2.09816 2.00896 1.75672 2.42862 1.75672C2.84827 1.75672 3.18971 2.09816 3.18971 2.51781C3.18971 2.93747 2.84827 3.27891 2.42862 3.27891C2.00896 3.27891 1.66752 2.9375 1.66752 2.51781ZM2.14305 2.51778C2.14305 2.67522 2.27115 2.80334 2.42862 2.80334C2.58609 2.80334 2.71418 2.67528 2.71418 2.51778C2.71418 2.36034 2.58609 2.23222 2.42862 2.23222C2.27115 2.23222 2.14305 2.36034 2.14305 2.51778ZM3.42936 2.51781C3.42936 2.09816 3.7708 1.75672 4.19046 1.75672C4.61011 1.75672 4.95155 2.09816 4.95155 2.51781C4.95155 2.93747 4.61011 3.27891 4.19046 3.27891C3.7708 3.27891 3.42936 2.9375 3.42936 2.51781ZM3.90489 2.51778C3.90489 2.67522 4.03299 2.80334 4.19046 2.80334C4.34793 2.80334 4.47602 2.67528 4.47602 2.51778C4.47602 2.36034 4.34793 2.23222 4.19046 2.23222C4.03299 2.23222 3.90489 2.36034 3.90489 2.51778ZM5.95236 1.75672C5.53267 1.75675 5.19127 2.09816 5.19127 2.51781C5.19127 2.9375 5.53271 3.27891 5.95236 3.27891C6.37205 3.27891 6.71349 2.93747 6.71349 2.51781C6.71346 2.09816 6.37202 1.75672 5.95236 1.75672ZM5.95233 2.80334C5.79486 2.80334 5.66677 2.67522 5.66677 2.51778C5.66677 2.36034 5.79486 2.23222 5.95233 2.23222C6.1098 2.23222 6.23789 2.36034 6.23789 2.51778C6.23789 2.67528 6.1098 2.80334 5.95233 2.80334ZM15.105 4.10778C15.212 4.03166 15.3605 4.05675 15.4366 4.16375C15.8289 4.71538 16.0363 5.36597 16.0362 6.045C16.0362 7.83675 14.5786 9.29444 12.7868 9.29444C10.9951 9.29444 9.53736 7.83675 9.53736 6.045C9.53736 4.25325 10.9951 2.79556 12.7868 2.79556C13.5277 2.79556 14.2256 3.0385 14.8049 3.49809C14.9078 3.57975 14.925 3.72928 14.8434 3.83216C14.7618 3.93503 14.6122 3.95225 14.5094 3.87066C14.015 3.47844 13.4193 3.27113 12.7868 3.27113C11.2573 3.27113 10.0129 4.5155 10.0129 6.04503C10.0129 7.57456 11.2573 8.81894 12.7868 8.81894C14.3163 8.81894 15.5607 7.57456 15.5607 6.04503C15.5607 5.46525 15.3837 4.91 15.049 4.43931C14.9729 4.33234 14.9979 4.18391 15.105 4.10778ZM3.3248 5.47791H8.60305C8.7344 5.47791 8.84083 5.58437 8.84083 5.71569C8.84083 5.847 8.73436 5.95347 8.60305 5.95347H3.3248C3.19346 5.95347 3.08702 5.847 3.08702 5.71569C3.08702 5.58437 3.19346 5.47791 3.3248 5.47791ZM2.49599 5.66922C2.45193 5.45888 2.16136 5.40913 2.05549 5.59953C1.95174 5.78609 2.13727 6.01003 2.34002 5.94028C2.45033 5.90238 2.51986 5.78431 2.49599 5.66922ZM3.3248 8.13469H8.60305C8.7344 8.13469 8.84083 8.24116 8.84083 8.37247C8.84083 8.50378 8.7344 8.61025 8.60305 8.61025H3.3248C3.19346 8.61025 3.08702 8.50378 3.08702 8.37247C3.08702 8.24116 3.19346 8.13469 3.3248 8.13469ZM2.43099 8.20419C2.28296 8.06069 2.02468 8.16303 2.02483 8.37253C2.02493 8.47647 2.09565 8.57053 2.19496 8.60028C2.28943 8.62856 2.39515 8.59331 2.45371 8.51403C2.52312 8.42013 2.51305 8.28687 2.43099 8.20419ZM9.25302 9.46309H10.7429C10.8742 9.46309 10.9806 9.56956 10.9806 9.70087C10.9806 9.83219 10.8742 9.93865 10.7429 9.93865H9.25302C9.12168 9.93865 9.01524 9.83219 9.01524 9.70087C9.01524 9.56956 9.12168 9.46309 9.25302 9.46309ZM8.4604 9.46309H5.68661C5.55527 9.46309 5.44883 9.56956 5.44883 9.70087C5.44883 9.83219 5.55527 9.93865 5.68661 9.93865H8.4604C8.59174 9.93865 8.69818 9.83219 8.69818 9.70087C8.69818 9.56956 8.59171 9.46309 8.4604 9.46309ZM3.3248 9.46309H4.89402C5.02536 9.46309 5.1318 9.56956 5.1318 9.70087C5.1318 9.83219 5.02536 9.93865 4.89402 9.93865H3.3248C3.19346 9.93865 3.08702 9.83219 3.08702 9.70087C3.08702 9.56956 3.19346 9.46309 3.3248 9.46309ZM2.43099 9.53284C2.27955 9.38141 2.01208 9.50178 2.0254 9.71562C2.03143 9.81247 2.09812 9.89744 2.1903 9.92712C2.29087 9.9595 2.40421 9.91934 2.4618 9.83078C2.5224 9.73769 2.50971 9.61156 2.43099 9.53284ZM3.3248 10.7915H7.17649C7.30783 10.7915 7.41427 10.898 7.41427 11.0293C7.41427 11.1606 7.30783 11.2671 7.17649 11.2671H3.3248C3.19346 11.2671 3.08702 11.1606 3.08702 11.0293C3.08702 10.898 3.19346 10.7915 3.3248 10.7915ZM2.49599 10.9829C2.45186 10.7723 2.16283 10.7233 2.05611 10.9123C2.00327 11.0059 2.02052 11.1262 2.09821 11.2007C2.16933 11.2689 2.27777 11.2859 2.36649 11.2432C2.46214 11.1971 2.51764 11.0872 2.49599 10.9829ZM8.82505 12.1199H9.55408C9.68543 12.1199 9.79187 12.2263 9.79187 12.3577C9.79187 12.489 9.68543 12.5954 9.55408 12.5954H8.82505C8.69371 12.5954 8.58727 12.489 8.58727 12.3577C8.58727 12.2263 8.69371 12.1199 8.82505 12.1199ZM8.03243 12.1199H5.92437C5.79302 12.1199 5.68658 12.2263 5.68658 12.3577C5.68658 12.489 5.79302 12.5954 5.92437 12.5954H8.03243C8.16374 12.5954 8.27021 12.489 8.27021 12.3577C8.27021 12.2263 8.16377 12.1199 8.03243 12.1199ZM3.3248 12.1199H5.13177C5.26311 12.1199 5.36955 12.2263 5.36955 12.3577C5.36955 12.489 5.26311 12.5954 5.13177 12.5954H3.3248C3.19346 12.5954 3.08702 12.489 3.08702 12.3577C3.08702 12.2263 3.19346 12.1199 3.3248 12.1199ZM2.43099 12.1895C2.27961 12.0382 2.01215 12.1588 2.0254 12.3724C2.03143 12.4693 2.09796 12.5542 2.1903 12.5838C2.29086 12.6161 2.40421 12.5764 2.4618 12.4877C2.52236 12.3944 2.50977 12.2683 2.43099 12.1895ZM7.25583 13.4483H10.6478C10.7791 13.4483 10.8856 13.5547 10.8856 13.6861C10.8856 13.8174 10.7791 13.9239 10.6478 13.9239H7.25583C7.12449 13.9239 7.01805 13.8174 7.01805 13.6861C7.01805 13.5548 7.12449 13.4483 7.25583 13.4483ZM6.46321 13.4483H3.3248C3.19346 13.4483 3.08702 13.5548 3.08702 13.6861C3.08702 13.8174 3.19346 13.9239 3.3248 13.9239H6.46321C6.59452 13.9239 6.70099 13.8174 6.70099 13.6861C6.70099 13.5547 6.59455 13.4483 6.46321 13.4483ZM2.06018 13.5619C2.17115 13.3796 2.4528 13.4336 2.49599 13.6396C2.52052 13.758 2.4464 13.8783 2.3318 13.9135C2.12712 13.9763 1.94905 13.7445 2.06018 13.5619ZM4.89402 14.7767H3.3248C3.19346 14.7767 3.08702 14.8832 3.08702 15.0145C3.08702 15.1458 3.19346 15.2523 3.3248 15.2523H4.89402C5.02536 15.2523 5.1318 15.1458 5.1318 15.0145C5.1318 14.8832 5.02536 14.7767 4.89402 14.7767ZM2.04324 14.9236C2.12371 14.7317 2.40174 14.7323 2.48233 14.9236C2.52912 15.0342 2.48112 15.1668 2.37583 15.2236C2.29312 15.2683 2.18962 15.2591 2.11558 15.2012C2.03296 15.1366 2.00271 15.0202 2.04324 14.9236ZM4.51358 6.80628H3.3248C3.19346 6.80628 3.08702 6.91275 3.08702 7.04406C3.08702 7.17538 3.19346 7.28184 3.3248 7.28184H4.51358C4.64493 7.28184 4.75136 7.17538 4.75136 7.04406C4.75136 6.91275 4.64493 6.80628 4.51358 6.80628ZM5.36952 6.80628H7.65199C7.78337 6.80628 7.88977 6.91275 7.88977 7.04406C7.88977 7.17538 7.78333 7.28184 7.65199 7.28184H5.36952C5.23818 7.28184 5.13174 7.17538 5.13174 7.04406C5.13174 6.91275 5.23818 6.80628 5.36952 6.80628ZM2.49599 6.99756C2.45233 6.78925 2.16633 6.73757 2.05783 6.92385C1.94927 7.11016 2.13561 7.33944 2.34005 7.26891C2.45027 7.23091 2.51986 7.11256 2.49599 6.99756ZM12.8727 5.56255C12.8727 5.7277 12.8348 5.87932 12.759 6.0174C12.6832 6.15277 12.5667 6.26242 12.4097 6.34635C12.2527 6.43028 12.0577 6.47224 11.8249 6.47224H11.3944V7.49564H10.7V4.64474H11.8249C12.0523 4.64474 12.2446 4.684 12.4016 4.76252C12.5586 4.84103 12.6764 4.94933 12.7549 5.0874C12.8334 5.22548 12.8727 5.38386 12.8727 5.56255ZM11.7721 5.91993C11.9048 5.91993 12.0036 5.8888 12.0686 5.82653C12.1336 5.76425 12.166 5.67626 12.166 5.56255C12.166 5.44884 12.1336 5.36085 12.0686 5.29858C12.0036 5.23631 11.9048 5.20518 11.7721 5.20518H11.3944V5.91993H11.7721ZM13.9287 5.20112V5.77779H14.8586V6.31386H13.9287V6.93927H14.9805V7.49564H13.2342V4.64474H14.9805V5.20112H13.9287Z"/>
</mask>
<path fill-rule="evenodd" clip-rule="evenodd" d="M12.827 9.80509C12.6956 9.80509 12.5892 9.91156 12.5892 10.0429V15.7462C12.5892 16.1753 12.2399 16.5245 11.8106 16.5245H1.82587C1.39674 16.5245 1.04758 16.1753 1.04758 15.7462V4.08697H9.74337C9.87471 4.08697 9.98115 3.9805 9.98115 3.84919C9.98115 3.71788 9.87471 3.61141 9.74337 3.61141H1.04758V2.25381C1.04758 1.82469 1.39674 1.47553 1.82587 1.47553H11.8106C12.2399 1.47553 12.5892 1.82469 12.5892 2.25381C12.5892 2.38513 12.6957 2.49159 12.827 2.49159C12.9584 2.49159 13.0648 2.38513 13.0648 2.25381C13.0647 1.56247 12.5021 1 11.8106 1H1.82587C1.13452 1 0.572021 1.56247 0.572021 2.25381V15.7462C0.572021 16.4376 1.13449 17 1.82587 17H11.8106C12.5021 17 13.0648 16.4375 13.0648 15.7462V10.0429C13.0647 9.91156 12.9583 9.80509 12.827 9.80509ZM1.66752 2.51781C1.66752 2.09816 2.00896 1.75672 2.42862 1.75672C2.84827 1.75672 3.18971 2.09816 3.18971 2.51781C3.18971 2.93747 2.84827 3.27891 2.42862 3.27891C2.00896 3.27891 1.66752 2.9375 1.66752 2.51781ZM2.14305 2.51778C2.14305 2.67522 2.27115 2.80334 2.42862 2.80334C2.58609 2.80334 2.71418 2.67528 2.71418 2.51778C2.71418 2.36034 2.58609 2.23222 2.42862 2.23222C2.27115 2.23222 2.14305 2.36034 2.14305 2.51778ZM3.42936 2.51781C3.42936 2.09816 3.7708 1.75672 4.19046 1.75672C4.61011 1.75672 4.95155 2.09816 4.95155 2.51781C4.95155 2.93747 4.61011 3.27891 4.19046 3.27891C3.7708 3.27891 3.42936 2.9375 3.42936 2.51781ZM3.90489 2.51778C3.90489 2.67522 4.03299 2.80334 4.19046 2.80334C4.34793 2.80334 4.47602 2.67528 4.47602 2.51778C4.47602 2.36034 4.34793 2.23222 4.19046 2.23222C4.03299 2.23222 3.90489 2.36034 3.90489 2.51778ZM5.95236 1.75672C5.53267 1.75675 5.19127 2.09816 5.19127 2.51781C5.19127 2.9375 5.53271 3.27891 5.95236 3.27891C6.37205 3.27891 6.71349 2.93747 6.71349 2.51781C6.71346 2.09816 6.37202 1.75672 5.95236 1.75672ZM5.95233 2.80334C5.79486 2.80334 5.66677 2.67522 5.66677 2.51778C5.66677 2.36034 5.79486 2.23222 5.95233 2.23222C6.1098 2.23222 6.23789 2.36034 6.23789 2.51778C6.23789 2.67528 6.1098 2.80334 5.95233 2.80334ZM15.105 4.10778C15.212 4.03166 15.3605 4.05675 15.4366 4.16375C15.8289 4.71538 16.0363 5.36597 16.0362 6.045C16.0362 7.83675 14.5786 9.29444 12.7868 9.29444C10.9951 9.29444 9.53736 7.83675 9.53736 6.045C9.53736 4.25325 10.9951 2.79556 12.7868 2.79556C13.5277 2.79556 14.2256 3.0385 14.8049 3.49809C14.9078 3.57975 14.925 3.72928 14.8434 3.83216C14.7618 3.93503 14.6122 3.95225 14.5094 3.87066C14.015 3.47844 13.4193 3.27113 12.7868 3.27113C11.2573 3.27113 10.0129 4.5155 10.0129 6.04503C10.0129 7.57456 11.2573 8.81894 12.7868 8.81894C14.3163 8.81894 15.5607 7.57456 15.5607 6.04503C15.5607 5.46525 15.3837 4.91 15.049 4.43931C14.9729 4.33234 14.9979 4.18391 15.105 4.10778ZM3.3248 5.47791H8.60305C8.7344 5.47791 8.84083 5.58437 8.84083 5.71569C8.84083 5.847 8.73436 5.95347 8.60305 5.95347H3.3248C3.19346 5.95347 3.08702 5.847 3.08702 5.71569C3.08702 5.58437 3.19346 5.47791 3.3248 5.47791ZM2.49599 5.66922C2.45193 5.45888 2.16136 5.40913 2.05549 5.59953C1.95174 5.78609 2.13727 6.01003 2.34002 5.94028C2.45033 5.90238 2.51986 5.78431 2.49599 5.66922ZM3.3248 8.13469H8.60305C8.7344 8.13469 8.84083 8.24116 8.84083 8.37247C8.84083 8.50378 8.7344 8.61025 8.60305 8.61025H3.3248C3.19346 8.61025 3.08702 8.50378 3.08702 8.37247C3.08702 8.24116 3.19346 8.13469 3.3248 8.13469ZM2.43099 8.20419C2.28296 8.06069 2.02468 8.16303 2.02483 8.37253C2.02493 8.47647 2.09565 8.57053 2.19496 8.60028C2.28943 8.62856 2.39515 8.59331 2.45371 8.51403C2.52312 8.42013 2.51305 8.28687 2.43099 8.20419ZM9.25302 9.46309H10.7429C10.8742 9.46309 10.9806 9.56956 10.9806 9.70087C10.9806 9.83219 10.8742 9.93865 10.7429 9.93865H9.25302C9.12168 9.93865 9.01524 9.83219 9.01524 9.70087C9.01524 9.56956 9.12168 9.46309 9.25302 9.46309ZM8.4604 9.46309H5.68661C5.55527 9.46309 5.44883 9.56956 5.44883 9.70087C5.44883 9.83219 5.55527 9.93865 5.68661 9.93865H8.4604C8.59174 9.93865 8.69818 9.83219 8.69818 9.70087C8.69818 9.56956 8.59171 9.46309 8.4604 9.46309ZM3.3248 9.46309H4.89402C5.02536 9.46309 5.1318 9.56956 5.1318 9.70087C5.1318 9.83219 5.02536 9.93865 4.89402 9.93865H3.3248C3.19346 9.93865 3.08702 9.83219 3.08702 9.70087C3.08702 9.56956 3.19346 9.46309 3.3248 9.46309ZM2.43099 9.53284C2.27955 9.38141 2.01208 9.50178 2.0254 9.71562C2.03143 9.81247 2.09812 9.89744 2.1903 9.92712C2.29087 9.9595 2.40421 9.91934 2.4618 9.83078C2.5224 9.73769 2.50971 9.61156 2.43099 9.53284ZM3.3248 10.7915H7.17649C7.30783 10.7915 7.41427 10.898 7.41427 11.0293C7.41427 11.1606 7.30783 11.2671 7.17649 11.2671H3.3248C3.19346 11.2671 3.08702 11.1606 3.08702 11.0293C3.08702 10.898 3.19346 10.7915 3.3248 10.7915ZM2.49599 10.9829C2.45186 10.7723 2.16283 10.7233 2.05611 10.9123C2.00327 11.0059 2.02052 11.1262 2.09821 11.2007C2.16933 11.2689 2.27777 11.2859 2.36649 11.2432C2.46214 11.1971 2.51764 11.0872 2.49599 10.9829ZM8.82505 12.1199H9.55408C9.68543 12.1199 9.79187 12.2263 9.79187 12.3577C9.79187 12.489 9.68543 12.5954 9.55408 12.5954H8.82505C8.69371 12.5954 8.58727 12.489 8.58727 12.3577C8.58727 12.2263 8.69371 12.1199 8.82505 12.1199ZM8.03243 12.1199H5.92437C5.79302 12.1199 5.68658 12.2263 5.68658 12.3577C5.68658 12.489 5.79302 12.5954 5.92437 12.5954H8.03243C8.16374 12.5954 8.27021 12.489 8.27021 12.3577C8.27021 12.2263 8.16377 12.1199 8.03243 12.1199ZM3.3248 12.1199H5.13177C5.26311 12.1199 5.36955 12.2263 5.36955 12.3577C5.36955 12.489 5.26311 12.5954 5.13177 12.5954H3.3248C3.19346 12.5954 3.08702 12.489 3.08702 12.3577C3.08702 12.2263 3.19346 12.1199 3.3248 12.1199ZM2.43099 12.1895C2.27961 12.0382 2.01215 12.1588 2.0254 12.3724C2.03143 12.4693 2.09796 12.5542 2.1903 12.5838C2.29086 12.6161 2.40421 12.5764 2.4618 12.4877C2.52236 12.3944 2.50977 12.2683 2.43099 12.1895ZM7.25583 13.4483H10.6478C10.7791 13.4483 10.8856 13.5547 10.8856 13.6861C10.8856 13.8174 10.7791 13.9239 10.6478 13.9239H7.25583C7.12449 13.9239 7.01805 13.8174 7.01805 13.6861C7.01805 13.5548 7.12449 13.4483 7.25583 13.4483ZM6.46321 13.4483H3.3248C3.19346 13.4483 3.08702 13.5548 3.08702 13.6861C3.08702 13.8174 3.19346 13.9239 3.3248 13.9239H6.46321C6.59452 13.9239 6.70099 13.8174 6.70099 13.6861C6.70099 13.5547 6.59455 13.4483 6.46321 13.4483ZM2.06018 13.5619C2.17115 13.3796 2.4528 13.4336 2.49599 13.6396C2.52052 13.758 2.4464 13.8783 2.3318 13.9135C2.12712 13.9763 1.94905 13.7445 2.06018 13.5619ZM4.89402 14.7767H3.3248C3.19346 14.7767 3.08702 14.8832 3.08702 15.0145C3.08702 15.1458 3.19346 15.2523 3.3248 15.2523H4.89402C5.02536 15.2523 5.1318 15.1458 5.1318 15.0145C5.1318 14.8832 5.02536 14.7767 4.89402 14.7767ZM2.04324 14.9236C2.12371 14.7317 2.40174 14.7323 2.48233 14.9236C2.52912 15.0342 2.48112 15.1668 2.37583 15.2236C2.29312 15.2683 2.18962 15.2591 2.11558 15.2012C2.03296 15.1366 2.00271 15.0202 2.04324 14.9236ZM4.51358 6.80628H3.3248C3.19346 6.80628 3.08702 6.91275 3.08702 7.04406C3.08702 7.17538 3.19346 7.28184 3.3248 7.28184H4.51358C4.64493 7.28184 4.75136 7.17538 4.75136 7.04406C4.75136 6.91275 4.64493 6.80628 4.51358 6.80628ZM5.36952 6.80628H7.65199C7.78337 6.80628 7.88977 6.91275 7.88977 7.04406C7.88977 7.17538 7.78333 7.28184 7.65199 7.28184H5.36952C5.23818 7.28184 5.13174 7.17538 5.13174 7.04406C5.13174 6.91275 5.23818 6.80628 5.36952 6.80628ZM2.49599 6.99756C2.45233 6.78925 2.16633 6.73757 2.05783 6.92385C1.94927 7.11016 2.13561 7.33944 2.34005 7.26891C2.45027 7.23091 2.51986 7.11256 2.49599 6.99756ZM12.8727 5.56255C12.8727 5.7277 12.8348 5.87932 12.759 6.0174C12.6832 6.15277 12.5667 6.26242 12.4097 6.34635C12.2527 6.43028 12.0577 6.47224 11.8249 6.47224H11.3944V7.49564H10.7V4.64474H11.8249C12.0523 4.64474 12.2446 4.684 12.4016 4.76252C12.5586 4.84103 12.6764 4.94933 12.7549 5.0874C12.8334 5.22548 12.8727 5.38386 12.8727 5.56255ZM11.7721 5.91993C11.9048 5.91993 12.0036 5.8888 12.0686 5.82653C12.1336 5.76425 12.166 5.67626 12.166 5.56255C12.166 5.44884 12.1336 5.36085 12.0686 5.29858C12.0036 5.23631 11.9048 5.20518 11.7721 5.20518H11.3944V5.91993H11.7721ZM13.9287 5.20112V5.77779H14.8586V6.31386H13.9287V6.93927H14.9805V7.49564H13.2342V4.64474H14.9805V5.20112H13.9287Z" fill="currentColor"/>
<path d="M1.04758 4.08697V3.98697H0.947584V4.08697H1.04758ZM1.04758 3.61141H0.947584V3.71141H1.04758V3.61141ZM13.0648 2.25381H13.1648V2.2538L13.0648 2.25381ZM13.0648 10.0429H13.1648V10.0429L13.0648 10.0429ZM5.95236 1.75672V1.65672H5.95235L5.95236 1.75672ZM6.71349 2.51781H6.81349V2.5178L6.71349 2.51781ZM15.4366 4.16375L15.355 4.22169L15.3551 4.22171L15.4366 4.16375ZM16.0362 6.045L15.9362 6.04499V6.045H16.0362ZM14.8049 3.49809L14.8671 3.41977L14.867 3.41976L14.8049 3.49809ZM14.8434 3.83216L14.9218 3.89433L14.9218 3.8943L14.8434 3.83216ZM14.5094 3.87066L14.4472 3.949L14.4472 3.949L14.5094 3.87066ZM15.049 4.43931L14.9675 4.49726L14.9675 4.49727L15.049 4.43931ZM2.05549 5.59953L2.14288 5.64813L2.14289 5.64813L2.05549 5.59953ZM2.49599 5.66922L2.5939 5.64891L2.59386 5.64872L2.49599 5.66922ZM2.34002 5.94028L2.30752 5.84571L2.30749 5.84572L2.34002 5.94028ZM2.02483 8.37253L1.92483 8.37261L1.92483 8.37262L2.02483 8.37253ZM2.43099 8.20419L2.50198 8.13373L2.50059 8.13239L2.43099 8.20419ZM2.19496 8.60028L2.16626 8.69607L2.16628 8.69608L2.19496 8.60028ZM2.45371 8.51403L2.37329 8.45459L2.37327 8.45462L2.45371 8.51403ZM2.0254 9.71562L1.92559 9.72184L1.92559 9.72184L2.0254 9.71562ZM2.43099 9.53284L2.5017 9.46213H2.5017L2.43099 9.53284ZM2.1903 9.92712L2.15965 10.0223L2.15966 10.0223L2.1903 9.92712ZM2.4618 9.83078L2.37799 9.77623L2.37797 9.77626L2.4618 9.83078ZM2.05611 10.9123L1.96904 10.8631L1.96903 10.8631L2.05611 10.9123ZM2.49599 10.9829L2.5939 10.9626L2.59386 10.9624L2.49599 10.9829ZM2.09821 11.2007L2.02898 11.2729L2.02899 11.2729L2.09821 11.2007ZM2.36649 11.2432L2.40987 11.3333L2.40987 11.3333L2.36649 11.2432ZM2.0254 12.3724L1.92559 12.3786L1.92559 12.3786L2.0254 12.3724ZM2.43099 12.1895L2.50171 12.1188L2.5017 12.1188L2.43099 12.1895ZM2.1903 12.5838L2.15972 12.6791L2.15974 12.6791L2.1903 12.5838ZM2.4618 12.4877L2.37795 12.4332L2.37792 12.4332L2.4618 12.4877ZM2.49599 13.6396L2.59391 13.6193L2.59387 13.6191L2.49599 13.6396ZM2.06018 13.5619L2.1456 13.6139L2.1456 13.6139L2.06018 13.5619ZM2.3318 13.9135L2.36113 14.0091L2.36113 14.0091L2.3318 13.9135ZM2.48233 14.9236L2.39018 14.9624L2.39024 14.9626L2.48233 14.9236ZM2.04324 14.9236L2.13546 14.9623L2.13546 14.9623L2.04324 14.9236ZM2.37583 15.2236L2.32834 15.1356L2.3283 15.1356L2.37583 15.2236ZM2.11558 15.2012L2.05396 15.28L2.05397 15.28L2.11558 15.2012ZM2.05783 6.92385L2.14423 6.97419L2.14424 6.97418L2.05783 6.92385ZM2.49599 6.99756L2.5939 6.97724L2.59386 6.97705L2.49599 6.99756ZM2.34005 7.26891L2.30746 7.17437L2.30744 7.17438L2.34005 7.26891ZM12.759 6.0174L12.8462 6.06626L12.8466 6.06552L12.759 6.0174ZM12.4097 6.34635L12.4568 6.43454L12.4568 6.43454L12.4097 6.34635ZM11.3944 6.47224V6.37224H11.2944V6.47224H11.3944ZM11.3944 7.49564V7.59564H11.4944V7.49564H11.3944ZM10.7 7.49564H10.6V7.59564H10.7V7.49564ZM10.7 4.64474V4.54474H10.6V4.64474H10.7ZM12.4016 4.76252L12.3569 4.85196L12.4016 4.76252ZM12.7549 5.0874L12.8418 5.03797V5.03797L12.7549 5.0874ZM12.0686 5.82653L12.1378 5.89872L12.1378 5.89872L12.0686 5.82653ZM11.3944 5.20518V5.10518H11.2944V5.20518H11.3944ZM11.3944 5.91993H11.2944V6.01993H11.3944V5.91993ZM13.9287 5.77779H13.8287V5.87779H13.9287V5.77779ZM13.9287 5.20112V5.10112H13.8287V5.20112H13.9287ZM14.8586 5.77779H14.9586V5.67779H14.8586V5.77779ZM14.8586 6.31386V6.41386H14.9586V6.31386H14.8586ZM13.9287 6.31386V6.21386H13.8287V6.31386H13.9287ZM13.9287 6.93927H13.8287V7.03927H13.9287V6.93927ZM14.9805 6.93927H15.0805V6.83927H14.9805V6.93927ZM14.9805 7.49564V7.59564H15.0805V7.49564H14.9805ZM13.2342 7.49564H13.1342V7.59564H13.2342V7.49564ZM13.2342 4.64474V4.54474H13.1342V4.64474H13.2342ZM14.9805 4.64474H15.0805V4.54474H14.9805V4.64474ZM14.9805 5.20112V5.30112H15.0805V5.20112H14.9805ZM12.6892 10.0429C12.6892 9.96678 12.7509 9.90509 12.827 9.90509V9.70509C12.6404 9.70509 12.4892 9.85634 12.4892 10.0429H12.6892ZM12.6892 15.7462V10.0429H12.4892V15.7462H12.6892ZM11.8106 16.6245C12.2951 16.6245 12.6892 16.2306 12.6892 15.7462H12.4892C12.4892 16.1201 12.1847 16.4245 11.8106 16.4245V16.6245ZM1.82587 16.6245H11.8106V16.4245H1.82587V16.6245ZM0.947584 15.7462C0.947584 16.2305 1.34151 16.6245 1.82587 16.6245V16.4245C1.45197 16.4245 1.14758 16.1201 1.14758 15.7462H0.947584ZM0.947584 4.08697V15.7462H1.14758V4.08697H0.947584ZM9.74337 3.98697H1.04758V4.18697H9.74337V3.98697ZM9.88115 3.84919C9.88115 3.92528 9.81947 3.98697 9.74337 3.98697V4.18697C9.92995 4.18697 10.0811 4.03572 10.0811 3.84919H9.88115ZM9.74337 3.71141C9.81947 3.71141 9.88115 3.7731 9.88115 3.84919H10.0811C10.0811 3.66265 9.92995 3.51141 9.74337 3.51141V3.71141ZM1.04758 3.71141H9.74337V3.51141H1.04758V3.71141ZM0.947584 2.25381V3.61141H1.14758V2.25381H0.947584ZM1.82587 1.37553C1.34151 1.37553 0.947584 1.76946 0.947584 2.25381H1.14758C1.14758 1.87992 1.45197 1.57553 1.82587 1.57553V1.37553ZM11.8106 1.37553H1.82587V1.57553H11.8106V1.37553ZM12.6892 2.25381C12.6892 1.76942 12.2951 1.37553 11.8106 1.37553V1.57553C12.1847 1.57553 12.4892 1.87996 12.4892 2.25381H12.6892ZM12.827 2.39159C12.7509 2.39159 12.6892 2.3299 12.6892 2.25381H12.4892C12.4892 2.44035 12.6404 2.59159 12.827 2.59159V2.39159ZM12.9648 2.25381C12.9648 2.3299 12.9031 2.39159 12.827 2.39159V2.59159C13.0136 2.59159 13.1648 2.44035 13.1648 2.25381H12.9648ZM11.8106 1.1C12.4469 1.1 12.9647 1.61772 12.9648 2.25382L13.1648 2.2538C13.1647 1.50722 12.5574 0.9 11.8106 0.9V1.1ZM1.82587 1.1H11.8106V0.9H1.82587V1.1ZM0.672021 2.25381C0.672021 1.6177 1.18975 1.1 1.82587 1.1V0.9C1.0793 0.9 0.472021 1.50724 0.472021 2.25381H0.672021ZM0.672021 15.7462V2.25381H0.472021V15.7462H0.672021ZM1.82587 16.9C1.18972 16.9 0.672021 16.3823 0.672021 15.7462H0.472021C0.472021 16.4928 1.07926 17.1 1.82587 17.1V16.9ZM11.8106 16.9H1.82587V17.1H11.8106V16.9ZM12.9648 15.7462C12.9648 16.3823 12.4469 16.9 11.8106 16.9V17.1C12.5573 17.1 13.1648 16.4928 13.1648 15.7462H12.9648ZM12.9648 10.0429V15.7462H13.1648V10.0429H12.9648ZM12.827 9.90509C12.9031 9.90509 12.9648 9.96677 12.9648 10.0429L13.1648 10.0429C13.1647 9.85636 13.0136 9.70509 12.827 9.70509V9.90509ZM2.42862 1.65672C1.95373 1.65672 1.56752 2.04293 1.56752 2.51781H1.76752C1.76752 2.15338 2.06419 1.85672 2.42862 1.85672V1.65672ZM3.28971 2.51781C3.28971 2.04293 2.9035 1.65672 2.42862 1.65672V1.85672C2.79304 1.85672 3.08971 2.15338 3.08971 2.51781H3.28971ZM2.42862 3.37891C2.9035 3.37891 3.28971 2.9927 3.28971 2.51781H3.08971C3.08971 2.88224 2.79304 3.17891 2.42862 3.17891V3.37891ZM1.56752 2.51781C1.56752 2.99273 1.95373 3.37891 2.42862 3.37891V3.17891C2.06419 3.17891 1.76752 2.88227 1.76752 2.51781H1.56752ZM2.42862 2.70334C2.32638 2.70334 2.24305 2.62 2.24305 2.51778H2.04305C2.04305 2.73044 2.21591 2.90334 2.42862 2.90334V2.70334ZM2.61418 2.51778C2.61418 2.62004 2.53086 2.70334 2.42862 2.70334V2.90334C2.64131 2.90334 2.81418 2.73052 2.81418 2.51778H2.61418ZM2.42862 2.33222C2.53085 2.33222 2.61418 2.41556 2.61418 2.51778H2.81418C2.81418 2.30512 2.64132 2.13222 2.42862 2.13222V2.33222ZM2.24305 2.51778C2.24305 2.41556 2.32638 2.33222 2.42862 2.33222V2.13222C2.21591 2.13222 2.04305 2.30512 2.04305 2.51778H2.24305ZM4.19046 1.65672C3.71557 1.65672 3.32936 2.04293 3.32936 2.51781H3.52936C3.52936 2.15338 3.82603 1.85672 4.19046 1.85672V1.65672ZM5.05155 2.51781C5.05155 2.04293 4.66534 1.65672 4.19046 1.65672V1.85672C4.55488 1.85672 4.85155 2.15338 4.85155 2.51781H5.05155ZM4.19046 3.37891C4.66534 3.37891 5.05155 2.9927 5.05155 2.51781H4.85155C4.85155 2.88224 4.55488 3.17891 4.19046 3.17891V3.37891ZM3.32936 2.51781C3.32936 2.99273 3.71557 3.37891 4.19046 3.37891V3.17891C3.82603 3.17891 3.52936 2.88227 3.52936 2.51781H3.32936ZM4.19046 2.70334C4.08822 2.70334 4.00489 2.62 4.00489 2.51778H3.80489C3.80489 2.73044 3.97775 2.90334 4.19046 2.90334V2.70334ZM4.37602 2.51778C4.37602 2.62004 4.2927 2.70334 4.19046 2.70334V2.90334C4.40315 2.90334 4.57602 2.73052 4.57602 2.51778H4.37602ZM4.19046 2.33222C4.29269 2.33222 4.37602 2.41556 4.37602 2.51778H4.57602C4.57602 2.30512 4.40316 2.13222 4.19046 2.13222V2.33222ZM4.00489 2.51778C4.00489 2.41556 4.08822 2.33222 4.19046 2.33222V2.13222C3.97775 2.13222 3.80489 2.30512 3.80489 2.51778H4.00489ZM5.29127 2.51781C5.29127 2.15339 5.5879 1.85674 5.95237 1.85672L5.95235 1.65672C5.47745 1.65675 5.09127 2.04292 5.09127 2.51781H5.29127ZM5.95236 3.17891C5.58793 3.17891 5.29127 2.88227 5.29127 2.51781H5.09127C5.09127 2.99273 5.47748 3.37891 5.95236 3.37891V3.17891ZM6.61349 2.51781C6.61349 2.88224 6.31682 3.17891 5.95236 3.17891V3.37891C6.42728 3.37891 6.81349 2.9927 6.81349 2.51781H6.61349ZM5.95236 1.85672C6.31679 1.85672 6.61346 2.15338 6.61349 2.51782L6.81349 2.5178C6.81345 2.04293 6.42725 1.65672 5.95236 1.65672V1.85672ZM5.56677 2.51778C5.56677 2.73044 5.73963 2.90334 5.95233 2.90334V2.70334C5.8501 2.70334 5.76677 2.62 5.76677 2.51778H5.56677ZM5.95233 2.13222C5.73963 2.13222 5.56677 2.30512 5.56677 2.51778H5.76677C5.76677 2.41556 5.8501 2.33222 5.95233 2.33222V2.13222ZM6.33789 2.51778C6.33789 2.30512 6.16504 2.13222 5.95233 2.13222V2.33222C6.05456 2.33222 6.13789 2.41556 6.13789 2.51778H6.33789ZM5.95233 2.90334C6.16502 2.90334 6.33789 2.73052 6.33789 2.51778H6.13789C6.13789 2.62004 6.05458 2.70334 5.95233 2.70334V2.90334ZM15.5181 4.10581C15.41 3.95379 15.199 3.91815 15.047 4.02629L15.1629 4.18927C15.2249 4.14516 15.311 4.15971 15.355 4.22169L15.5181 4.10581ZM16.1362 6.04501C16.1363 5.34527 15.9225 4.6744 15.518 4.10579L15.3551 4.22171C15.7353 4.75635 15.9363 5.38667 15.9362 6.04499L16.1362 6.04501ZM12.7868 9.39444C14.6338 9.39444 16.1362 7.89198 16.1362 6.045H15.9362C15.9362 7.78152 14.5233 9.19444 12.7868 9.19444V9.39444ZM9.43736 6.045C9.43736 7.89198 10.9398 9.39444 12.7868 9.39444V9.19444C11.0503 9.19444 9.63737 7.78152 9.63737 6.045H9.43736ZM12.7868 2.69556C10.9398 2.69556 9.43736 4.19802 9.43736 6.045H9.63737C9.63737 4.30848 11.0503 2.89556 12.7868 2.89556V2.69556ZM14.867 3.41976C14.27 2.9461 13.5503 2.69556 12.7868 2.69556V2.89556C13.5052 2.89556 14.1812 3.1309 14.7427 3.57643L14.867 3.41976ZM14.9218 3.8943C15.0377 3.74814 15.0132 3.53573 14.8671 3.41977L14.7427 3.57642C14.8024 3.62377 14.8123 3.71042 14.7651 3.77002L14.9218 3.8943ZM14.4472 3.949C14.5934 4.06491 14.8058 4.04044 14.9218 3.89433L14.7651 3.76999C14.7178 3.82962 14.6311 3.83959 14.5715 3.79231L14.4472 3.949ZM12.7868 3.37113C13.3968 3.37113 13.9706 3.57084 14.4472 3.949L14.5715 3.79232C14.0594 3.38604 13.4418 3.17113 12.7868 3.17113V3.37113ZM10.1129 6.04503C10.1129 4.57073 11.3125 3.37113 12.7868 3.37113V3.17113C11.202 3.17113 9.9129 4.46027 9.9129 6.04503H10.1129ZM12.7868 8.71894C11.3125 8.71894 10.1129 7.51933 10.1129 6.04503H9.9129C9.9129 7.62979 11.202 8.91894 12.7868 8.91894V8.71894ZM15.4607 6.04503C15.4607 7.51933 14.2611 8.71894 12.7868 8.71894V8.91894C14.3715 8.91894 15.6607 7.62979 15.6607 6.04503H15.4607ZM14.9675 4.49727C15.2902 4.95096 15.4607 5.48594 15.4607 6.04503H15.6607C15.6607 5.44456 15.4773 4.86904 15.1304 4.38135L14.9675 4.49727ZM15.047 4.02629C14.895 4.13442 14.8594 4.34528 14.9675 4.49726L15.1305 4.38136C15.0864 4.3194 15.1009 4.23339 15.1629 4.18927L15.047 4.02629ZM8.60305 5.37791H3.3248V5.57791H8.60305V5.37791ZM8.94083 5.71569C8.94083 5.52915 8.78963 5.37791 8.60305 5.37791V5.57791C8.67916 5.57791 8.74083 5.63959 8.74083 5.71569H8.94083ZM8.60305 6.05347C8.78959 6.05347 8.94083 5.90223 8.94083 5.71569H8.74083C8.74083 5.79177 8.67914 5.85347 8.60305 5.85347V6.05347ZM3.3248 6.05347H8.60305V5.85347H3.3248V6.05347ZM2.98702 5.71569C2.98702 5.90222 3.13822 6.05347 3.3248 6.05347V5.85347C3.2487 5.85347 3.18702 5.79178 3.18702 5.71569H2.98702ZM3.3248 5.37791C3.13822 5.37791 2.98702 5.52915 2.98702 5.71569H3.18702C3.18702 5.63959 3.2487 5.57791 3.3248 5.57791V5.37791ZM2.14289 5.64813C2.20165 5.54244 2.37213 5.5657 2.39811 5.68972L2.59386 5.64872C2.53172 5.35205 2.12107 5.27581 1.96809 5.55093L2.14289 5.64813ZM2.30749 5.84572C2.19253 5.88527 2.08314 5.75557 2.14288 5.64813L1.96809 5.55093C1.82034 5.81662 2.08201 6.1348 2.37255 6.03484L2.30749 5.84572ZM2.39807 5.68953C2.41145 5.75401 2.37149 5.82373 2.30752 5.84571L2.37252 6.03485C2.52917 5.98102 2.62828 5.81462 2.5939 5.64891L2.39807 5.68953ZM8.60305 8.03469H3.3248V8.23469H8.60305V8.03469ZM8.94083 8.37247C8.94083 8.18594 8.78963 8.03469 8.60305 8.03469V8.23469C8.67916 8.23469 8.74083 8.29638 8.74083 8.37247H8.94083ZM8.60305 8.71025C8.78963 8.71025 8.94083 8.559 8.94083 8.37247H8.74083C8.74083 8.44856 8.67916 8.51025 8.60305 8.51025V8.71025ZM3.3248 8.71025H8.60305V8.51025H3.3248V8.71025ZM2.98702 8.37247C2.98702 8.559 3.13822 8.71025 3.3248 8.71025V8.51025C3.2487 8.51025 3.18702 8.44856 3.18702 8.37247H2.98702ZM3.3248 8.03469C3.13822 8.03469 2.98702 8.18594 2.98702 8.37247H3.18702C3.18702 8.29638 3.2487 8.23469 3.3248 8.23469V8.03469ZM2.12483 8.37246C2.12475 8.25611 2.27337 8.19066 2.36139 8.27599L2.50059 8.13239C2.29255 7.93071 1.92461 8.06996 1.92483 8.37261L2.12483 8.37246ZM2.22365 8.50449C2.16629 8.4873 2.12489 8.43188 2.12483 8.37244L1.92483 8.37262C1.92497 8.52106 2.02501 8.65376 2.16626 8.69607L2.22365 8.50449ZM2.37327 8.45462C2.33978 8.49996 2.27771 8.52067 2.22364 8.50448L2.16628 8.69608C2.30114 8.73645 2.45052 8.68666 2.53414 8.57345L2.37327 8.45462ZM2.36001 8.27463C2.40747 8.32245 2.41323 8.40056 2.37329 8.45459L2.53413 8.57347C2.633 8.43969 2.61864 8.2513 2.50197 8.13375L2.36001 8.27463ZM10.7429 9.36309H9.25302V9.56309H10.7429V9.36309ZM11.0806 9.70087C11.0806 9.51434 10.9294 9.36309 10.7429 9.36309V9.56309C10.819 9.56309 10.8806 9.62478 10.8806 9.70087H11.0806ZM10.7429 10.0387C10.9294 10.0387 11.0806 9.88742 11.0806 9.70087H10.8806C10.8806 9.77696 10.8189 9.83865 10.7429 9.83865V10.0387ZM9.25302 10.0387H10.7429V9.83865H9.25302V10.0387ZM8.91524 9.70087C8.91524 9.88741 9.06644 10.0387 9.25302 10.0387V9.83865C9.17691 9.83865 9.11524 9.77697 9.11524 9.70087H8.91524ZM9.25302 9.36309C9.06644 9.36309 8.91524 9.51434 8.91524 9.70087H9.11524C9.11524 9.62478 9.17691 9.56309 9.25302 9.56309V9.36309ZM5.68661 9.56309H8.4604V9.36309H5.68661V9.56309ZM5.54883 9.70087C5.54883 9.62478 5.61051 9.56309 5.68661 9.56309V9.36309C5.50003 9.36309 5.34883 9.51434 5.34883 9.70087H5.54883ZM5.68661 9.83865C5.61051 9.83865 5.54883 9.77697 5.54883 9.70087H5.34883C5.34883 9.88741 5.50003 10.0387 5.68661 10.0387V9.83865ZM8.4604 9.83865H5.68661V10.0387H8.4604V9.83865ZM8.59818 9.70087C8.59818 9.77697 8.5365 9.83865 8.4604 9.83865V10.0387C8.64698 10.0387 8.79818 9.88741 8.79818 9.70087H8.59818ZM8.4604 9.56309C8.53648 9.56309 8.59818 9.62479 8.59818 9.70087H8.79818C8.79818 9.51433 8.64694 9.36309 8.4604 9.36309V9.56309ZM4.89402 9.36309H3.3248V9.56309H4.89402V9.36309ZM5.2318 9.70087C5.2318 9.51434 5.0806 9.36309 4.89402 9.36309V9.56309C4.97013 9.56309 5.0318 9.62478 5.0318 9.70087H5.2318ZM4.89402 10.0387C5.0806 10.0387 5.2318 9.88741 5.2318 9.70087H5.0318C5.0318 9.77697 4.97013 9.83865 4.89402 9.83865V10.0387ZM3.3248 10.0387H4.89402V9.83865H3.3248V10.0387ZM2.98702 9.70087C2.98702 9.88741 3.13822 10.0387 3.3248 10.0387V9.83865C3.2487 9.83865 3.18702 9.77697 3.18702 9.70087H2.98702ZM3.3248 9.36309C3.13822 9.36309 2.98702 9.51434 2.98702 9.70087H3.18702C3.18702 9.62478 3.2487 9.56309 3.3248 9.56309V9.36309ZM2.1252 9.70941C2.11763 9.58773 2.27382 9.5171 2.36028 9.60355L2.5017 9.46213C2.28528 9.24571 1.90654 9.41583 1.92559 9.72184L2.1252 9.70941ZM2.22096 9.83194C2.16755 9.81474 2.12865 9.7648 2.1252 9.70941L1.92559 9.72184C1.9342 9.86013 2.02868 9.98013 2.15965 10.0223L2.22096 9.83194ZM2.37797 9.77626C2.34503 9.82691 2.27863 9.85051 2.22095 9.83194L2.15966 10.0223C2.3031 10.0685 2.46339 10.0118 2.54563 9.8853L2.37797 9.77626ZM2.36028 9.60355C2.40534 9.64862 2.41299 9.72246 2.37799 9.77623L2.54561 9.88533C2.6318 9.75292 2.61407 9.57451 2.5017 9.46213L2.36028 9.60355ZM7.17649 10.6915H3.3248V10.8915H7.17649V10.6915ZM7.51427 11.0293C7.51427 10.8427 7.36307 10.6915 7.17649 10.6915V10.8915C7.2526 10.8915 7.31427 10.9532 7.31427 11.0293H7.51427ZM7.17649 11.3671C7.36307 11.3671 7.51427 11.2158 7.51427 11.0293H7.31427C7.31427 11.1054 7.2526 11.1671 7.17649 11.1671V11.3671ZM3.3248 11.3671H7.17649V11.1671H3.3248V11.3671ZM2.98702 11.0293C2.98702 11.2158 3.13822 11.3671 3.3248 11.3671V11.1671C3.2487 11.1671 3.18702 11.1054 3.18702 11.0293H2.98702ZM3.3248 10.6915C3.13822 10.6915 2.98702 10.8427 2.98702 11.0293H3.18702C3.18702 10.9532 3.2487 10.8915 3.3248 10.8915V10.6915ZM2.14319 10.9614C2.20287 10.8558 2.3722 10.8798 2.39811 11.0034L2.59386 10.9624C2.53152 10.6649 2.12279 10.5908 1.96904 10.8631L2.14319 10.9614ZM2.16744 11.1286C2.12294 11.0859 2.11265 11.0155 2.14319 10.9614L1.96903 10.8631C1.89389 10.9962 1.9181 11.1665 2.02898 11.2729L2.16744 11.1286ZM2.3231 11.1531C2.27175 11.1778 2.20825 11.1677 2.16743 11.1285L2.02899 11.2729C2.13041 11.3702 2.28378 11.394 2.40987 11.3333L2.3231 11.1531ZM2.39808 11.0033C2.41023 11.0618 2.37814 11.1266 2.3231 11.1531L2.40987 11.3333C2.54615 11.2676 2.62506 11.1127 2.5939 10.9626L2.39808 11.0033ZM9.55408 12.0199H8.82505V12.2199H9.55408V12.0199ZM9.89187 12.3577C9.89187 12.1711 9.74067 12.0199 9.55408 12.0199V12.2199C9.63019 12.2199 9.69187 12.2816 9.69187 12.3577H9.89187ZM9.55408 12.6954C9.74067 12.6954 9.89187 12.5442 9.89187 12.3577H9.69187C9.69187 12.4337 9.63019 12.4954 9.55408 12.4954V12.6954ZM8.82505 12.6954H9.55408V12.4954H8.82505V12.6954ZM8.48727 12.3577C8.48727 12.5442 8.63847 12.6954 8.82505 12.6954V12.4954C8.74895 12.4954 8.68727 12.4337 8.68727 12.3577H8.48727ZM8.82505 12.0199C8.63847 12.0199 8.48727 12.1711 8.48727 12.3577H8.68727C8.68727 12.2816 8.74895 12.2199 8.82505 12.2199V12.0199ZM5.92437 12.2199H8.03243V12.0199H5.92437V12.2199ZM5.78658 12.3577C5.78658 12.2816 5.84826 12.2199 5.92437 12.2199V12.0199C5.73778 12.0199 5.58658 12.1711 5.58658 12.3577H5.78658ZM5.92437 12.4954C5.84826 12.4954 5.78658 12.4337 5.78658 12.3577H5.58658C5.58658 12.5442 5.73778 12.6954 5.92437 12.6954V12.4954ZM8.03243 12.4954H5.92437V12.6954H8.03243V12.4954ZM8.17021 12.3577C8.17021 12.4337 8.10851 12.4954 8.03243 12.4954V12.6954C8.21897 12.6954 8.37021 12.5442 8.37021 12.3577H8.17021ZM8.03243 12.2199C8.10853 12.2199 8.17021 12.2816 8.17021 12.3577H8.37021C8.37021 12.1711 8.21901 12.0199 8.03243 12.0199V12.2199ZM5.13177 12.0199H3.3248V12.2199H5.13177V12.0199ZM5.46955 12.3577C5.46955 12.1711 5.31835 12.0199 5.13177 12.0199V12.2199C5.20788 12.2199 5.26955 12.2816 5.26955 12.3577H5.46955ZM5.13177 12.6954C5.31835 12.6954 5.46955 12.5442 5.46955 12.3577H5.26955C5.26955 12.4337 5.20788 12.4954 5.13177 12.4954V12.6954ZM3.3248 12.6954H5.13177V12.4954H3.3248V12.6954ZM2.98702 12.3577C2.98702 12.5442 3.13822 12.6954 3.3248 12.6954V12.4954C3.2487 12.4954 3.18702 12.4337 3.18702 12.3577H2.98702ZM3.3248 12.0199C3.13822 12.0199 2.98702 12.1711 2.98702 12.3577H3.18702C3.18702 12.2816 3.2487 12.2199 3.3248 12.2199V12.0199ZM2.1252 12.3662C2.11766 12.2446 2.27403 12.174 2.36028 12.2602L2.5017 12.1188C2.2852 11.9023 1.90663 12.0731 1.92559 12.3786L2.1252 12.3662ZM2.22088 12.4886C2.16743 12.4715 2.12866 12.4217 2.1252 12.3662L1.92559 12.3786C1.9342 12.517 2.02849 12.6369 2.15972 12.6791L2.22088 12.4886ZM2.37792 12.4332C2.34515 12.4837 2.2789 12.5073 2.22087 12.4886L2.15974 12.6791C2.30283 12.725 2.46326 12.6691 2.54569 12.5421L2.37792 12.4332ZM2.36026 12.2602C2.40536 12.3053 2.41302 12.3792 2.37795 12.4332L2.54566 12.5421C2.6317 12.4097 2.61418 12.2313 2.50171 12.1188L2.36026 12.2602ZM10.6478 13.3483H7.25583V13.5483H10.6478V13.3483ZM10.9856 13.6861C10.9856 13.4995 10.8344 13.3483 10.6478 13.3483V13.5483C10.7239 13.5483 10.7856 13.61 10.7856 13.6861H10.9856ZM10.6478 14.0239C10.8344 14.0239 10.9856 13.8726 10.9856 13.6861H10.7856C10.7856 13.7622 10.7239 13.8239 10.6478 13.8239V14.0239ZM7.25583 14.0239H10.6478V13.8239H7.25583V14.0239ZM6.91805 13.6861C6.91805 13.8726 7.06925 14.0239 7.25583 14.0239V13.8239C7.17973 13.8239 7.11805 13.7622 7.11805 13.6861H6.91805ZM7.25583 13.3483C7.06925 13.3483 6.91805 13.4996 6.91805 13.6861H7.11805C7.11805 13.61 7.17973 13.5483 7.25583 13.5483V13.3483ZM3.3248 13.5483H6.46321V13.3483H3.3248V13.5483ZM3.18702 13.6861C3.18702 13.61 3.2487 13.5483 3.3248 13.5483V13.3483C3.13822 13.3483 2.98702 13.4996 2.98702 13.6861H3.18702ZM3.3248 13.8239C3.2487 13.8239 3.18702 13.7622 3.18702 13.6861H2.98702C2.98702 13.8726 3.13822 14.0239 3.3248 14.0239V13.8239ZM6.46321 13.8239H3.3248V14.0239H6.46321V13.8239ZM6.60099 13.6861C6.60099 13.7622 6.53929 13.8239 6.46321 13.8239V14.0239C6.64975 14.0239 6.80099 13.8726 6.80099 13.6861H6.60099ZM6.46321 13.5483C6.53932 13.5483 6.60099 13.61 6.60099 13.6861H6.80099C6.80099 13.4995 6.64978 13.3483 6.46321 13.3483V13.5483ZM2.59387 13.6191C2.53294 13.3284 2.13501 13.2466 1.97475 13.5099L2.1456 13.6139C2.20728 13.5125 2.37267 13.5387 2.39812 13.6601L2.59387 13.6191ZM2.36113 14.0091C2.52346 13.9593 2.62926 13.7899 2.59391 13.6193L2.39807 13.6599C2.41179 13.7261 2.36934 13.7974 2.30247 13.8179L2.36113 14.0091ZM1.97476 13.5099C1.81662 13.7697 2.06704 14.0993 2.36113 14.0091L2.30248 13.8179C2.18719 13.8533 2.08148 13.7192 2.1456 13.6139L1.97476 13.5099ZM3.3248 14.8767H4.89402V14.6767H3.3248V14.8767ZM3.18702 15.0145C3.18702 14.9384 3.2487 14.8767 3.3248 14.8767V14.6767C3.13822 14.6767 2.98702 14.828 2.98702 15.0145H3.18702ZM3.3248 15.1523C3.2487 15.1523 3.18702 15.0906 3.18702 15.0145H2.98702C2.98702 15.201 3.13822 15.3523 3.3248 15.3523V15.1523ZM4.89402 15.1523H3.3248V15.3523H4.89402V15.1523ZM5.0318 15.0145C5.0318 15.0906 4.97013 15.1523 4.89402 15.1523V15.3523C5.0806 15.3523 5.2318 15.201 5.2318 15.0145H5.0318ZM4.89402 14.8767C4.97013 14.8767 5.0318 14.9384 5.0318 15.0145H5.2318C5.2318 14.828 5.0806 14.6767 4.89402 14.6767V14.8767ZM2.57449 14.8848C2.45972 14.6124 2.06597 14.6108 1.95102 14.8849L2.13546 14.9623C2.18145 14.8526 2.34376 14.8523 2.39018 14.9624L2.57449 14.8848ZM2.42332 15.3116C2.57317 15.2307 2.64166 15.0436 2.57443 14.8846L2.39024 14.9626C2.41657 15.0248 2.38906 15.1028 2.32834 15.1356L2.42332 15.3116ZM2.05397 15.28C2.15904 15.3622 2.30536 15.3753 2.42336 15.3116L2.3283 15.1356C2.28087 15.1612 2.22019 15.1561 2.17719 15.1225L2.05397 15.28ZM1.95102 14.8849C1.89306 15.0231 1.93583 15.1875 2.05396 15.28L2.17721 15.1225C2.13009 15.0856 2.11236 15.0173 2.13546 14.9623L1.95102 14.8849ZM3.3248 6.90628H4.51358V6.70628H3.3248V6.90628ZM3.18702 7.04406C3.18702 6.96797 3.2487 6.90628 3.3248 6.90628V6.70628C3.13822 6.70628 2.98702 6.85753 2.98702 7.04406H3.18702ZM3.3248 7.18184C3.2487 7.18184 3.18702 7.12016 3.18702 7.04406H2.98702C2.98702 7.2306 3.13822 7.38184 3.3248 7.38184V7.18184ZM4.51358 7.18184H3.3248V7.38184H4.51358V7.18184ZM4.65136 7.04406C4.65136 7.12016 4.58969 7.18184 4.51358 7.18184V7.38184C4.70016 7.38184 4.85136 7.2306 4.85136 7.04406H4.65136ZM4.51358 6.90628C4.58969 6.90628 4.65136 6.96797 4.65136 7.04406H4.85136C4.85136 6.85753 4.70016 6.70628 4.51358 6.70628V6.90628ZM7.65199 6.70628H5.36952V6.90628H7.65199V6.70628ZM7.98977 7.04406C7.98977 6.85754 7.83861 6.70628 7.65199 6.70628V6.90628C7.72812 6.90628 7.78977 6.96796 7.78977 7.04406H7.98977ZM7.65199 7.38184C7.83857 7.38184 7.98977 7.2306 7.98977 7.04406H7.78977C7.78977 7.12016 7.7281 7.18184 7.65199 7.18184V7.38184ZM5.36952 7.38184H7.65199V7.18184H5.36952V7.38184ZM5.03174 7.04406C5.03174 7.2306 5.18294 7.38184 5.36952 7.38184V7.18184C5.29342 7.18184 5.23174 7.12016 5.23174 7.04406H5.03174ZM5.36952 6.70628C5.18294 6.70628 5.03174 6.85753 5.03174 7.04406H5.23174C5.23174 6.96797 5.29342 6.90628 5.36952 6.90628V6.70628ZM2.14424 6.97418C2.20458 6.87058 2.3724 6.89538 2.39811 7.01808L2.59386 6.97705C2.53226 6.68313 2.12808 6.60455 1.97142 6.87352L2.14424 6.97418ZM2.30744 7.17438C2.19188 7.21424 2.0817 7.08151 2.14423 6.97419L1.97143 6.8735C1.81684 7.1388 2.07934 7.46464 2.37266 7.36344L2.30744 7.17438ZM2.39808 7.01789C2.41145 7.08231 2.37139 7.15233 2.30746 7.17437L2.37264 7.36345C2.52915 7.30949 2.62828 7.14282 2.5939 6.97724L2.39808 7.01789ZM12.8466 6.06552C12.9309 5.91197 12.9727 5.74368 12.9727 5.56255H12.7727C12.7727 5.71172 12.7386 5.84666 12.6713 5.96927L12.8466 6.06552ZM12.4568 6.43454C12.6282 6.34296 12.7597 6.22066 12.8462 6.06626L12.6717 5.96854C12.6066 6.08488 12.5053 6.18187 12.3626 6.25815L12.4568 6.43454ZM11.8249 6.57224C12.0693 6.57224 12.2815 6.52824 12.4568 6.43454L12.3626 6.25815C12.2238 6.33231 12.0462 6.37224 11.8249 6.37224V6.57224ZM11.3944 6.57224H11.8249V6.37224H11.3944V6.57224ZM11.4944 7.49564V6.47224H11.2944V7.49564H11.4944ZM10.7 7.59564H11.3944V7.39564H10.7V7.59564ZM10.6 4.64474V7.49564H10.8V4.64474H10.6ZM11.8249 4.54474H10.7V4.74474H11.8249V4.54474ZM12.4463 4.67307C12.2719 4.58588 12.0634 4.54474 11.8249 4.54474V4.74474C12.0412 4.74474 12.2172 4.78213 12.3569 4.85196L12.4463 4.67307ZM12.8418 5.03797C12.7525 4.88088 12.6191 4.75948 12.4463 4.67307L12.3569 4.85196C12.4981 4.92258 12.6003 5.01778 12.668 5.13683L12.8418 5.03797ZM12.9727 5.56255C12.9727 5.36874 12.9299 5.19293 12.8418 5.03797L12.668 5.13683C12.7369 5.25804 12.7727 5.39899 12.7727 5.56255H12.9727ZM11.9994 5.75433C11.9602 5.79185 11.8911 5.81993 11.7721 5.81993V6.01993C11.9185 6.01993 12.047 5.98574 12.1378 5.89872L11.9994 5.75433ZM12.066 5.56255C12.066 5.65661 12.0398 5.7156 11.9994 5.75433L12.1378 5.89872C12.2273 5.81291 12.266 5.69591 12.266 5.56255H12.066ZM11.9994 5.37078C12.0398 5.4095 12.066 5.46849 12.066 5.56255H12.266C12.266 5.42919 12.2273 5.3122 12.1378 5.22638L11.9994 5.37078ZM11.7721 5.30518C11.8911 5.30518 11.9602 5.33325 11.9994 5.37078L12.1378 5.22638C12.047 5.13937 11.9185 5.10518 11.7721 5.10518V5.30518ZM11.3944 5.30518H11.7721V5.10518H11.3944V5.30518ZM11.4944 5.91993V5.20518H11.2944V5.91993H11.4944ZM11.7721 5.81993H11.3944V6.01993H11.7721V5.81993ZM14.0287 5.77779V5.20112H13.8287V5.77779H14.0287ZM14.8586 5.67779H13.9287V5.87779H14.8586V5.67779ZM14.9586 6.31386V5.77779H14.7586V6.31386H14.9586ZM13.9287 6.41386H14.8586V6.21386H13.9287V6.41386ZM14.0287 6.93927V6.31386H13.8287V6.93927H14.0287ZM14.9805 6.83927H13.9287V7.03927H14.9805V6.83927ZM15.0805 7.49564V6.93927H14.8805V7.49564H15.0805ZM13.2342 7.59564H14.9805V7.39564H13.2342V7.59564ZM13.1342 4.64474V7.49564H13.3342V4.64474H13.1342ZM14.9805 4.54474H13.2342V4.74474H14.9805V4.54474ZM15.0805 5.20112V4.64474H14.8805V5.20112H15.0805ZM13.9287 5.30112H14.9805V5.10112H13.9287V5.30112Z" fill="currentColor" mask="url(#path-1-outside-1_2947_12082)"/>
</svg>
