<svg width="16" height="16" viewBox="0 0 16 16" fill="none" xmlns="http://www.w3.org/2000/svg">
<g clip-path="url(#clip0_12674_109525)">
<path d="M11.0476 16H2.64379C2.4756 16.0006 2.30937 15.9639 2.1571 15.8925C2.00482 15.821 1.87029 15.7167 1.76321 15.587L0.263779 13.7907C0.0930914 13.5851 -0.000231543 13.3262 4.31426e-07 13.059V1.90476C0.000331172 1.60176 0.120845 1.31126 0.335101 1.097C0.549356 0.882747 0.839854 0.762233 1.14286 0.761902H8.8497C8.95074 0.761902 9.04763 0.802038 9.11907 0.87348C9.19052 0.944923 9.23065 1.04182 9.23065 1.14285C9.23065 1.24389 9.19052 1.34079 9.11907 1.41223C9.04763 1.48367 8.95074 1.52381 8.8497 1.52381H1.14286C1.04186 1.52394 0.945042 1.56412 0.873628 1.63553C0.802214 1.70694 0.762036 1.80376 0.761905 1.90476V13.059C0.761923 13.1478 0.792602 13.234 0.848762 13.3028L2.3495 15.1006C2.38504 15.1442 2.42996 15.1792 2.48092 15.203C2.53188 15.2268 2.58755 15.2388 2.64379 15.2381H11.0476C11.1486 15.238 11.2455 15.1978 11.3169 15.1264C11.3883 15.055 11.4285 14.9581 11.4286 14.8571V7.56194C11.4286 7.4609 11.4687 7.36401 11.5401 7.29256C11.6116 7.22112 11.7085 7.18098 11.8095 7.18098C11.9106 7.18098 12.0075 7.22112 12.0789 7.29256C12.1503 7.36401 12.1905 7.4609 12.1905 7.56194V14.8571C12.1901 15.1601 12.0696 15.4506 11.8554 15.6649C11.6411 15.8791 11.3506 15.9997 11.0476 16Z" fill="currentcolor"/>
<path d="M2.66641 15.9085C2.56538 15.9085 2.46848 15.8684 2.39704 15.7969C2.3256 15.7255 2.28546 15.6286 2.28546 15.5275V13.7143H0.815034C0.713999 13.7143 0.617103 13.6742 0.54566 13.6027C0.474218 13.5313 0.434082 13.4344 0.434082 13.3333C0.434082 13.2323 0.474218 13.1354 0.54566 13.064C0.617103 12.9925 0.713999 12.9524 0.815034 12.9524H2.28546C2.48746 12.9526 2.68114 13.0329 2.82398 13.1758C2.96682 13.3186 3.04716 13.5123 3.04736 13.7143V15.5275C3.04736 15.6286 3.00722 15.7255 2.93578 15.7969C2.86434 15.8684 2.76744 15.9085 2.66641 15.9085Z" fill="currentcolor"/>
<path d="M11.3703 8.38095H10.7245C10.5071 8.38066 10.2987 8.29415 10.145 8.1404C9.99125 7.98666 9.9048 7.77823 9.90455 7.56082C9.90404 7.54834 9.89964 7.53632 9.89197 7.52645C9.8843 7.51658 9.87374 7.50935 9.86177 7.50576C9.7524 7.46651 9.64575 7.42237 9.54183 7.37332C9.53085 7.36714 9.51818 7.36462 9.50567 7.36613C9.49316 7.36764 9.48146 7.37309 9.47226 7.3817C9.39634 7.45811 9.30602 7.51869 9.20653 7.55994C9.10704 7.60119 9.00035 7.6223 8.89265 7.62203C8.78492 7.62234 8.67782 7.60124 8.57832 7.55995C8.47882 7.51866 8.38851 7.45801 8.31265 7.38152L7.85619 6.92541C7.78 6.84928 7.71956 6.75888 7.67832 6.65938C7.63709 6.55988 7.61586 6.45322 7.61586 6.34552C7.61586 6.23781 7.63709 6.13116 7.67832 6.03166C7.71956 5.93216 7.78 5.84176 7.85619 5.76562C7.86467 5.75623 7.87001 5.74443 7.87148 5.73187C7.87294 5.7193 7.87046 5.70659 7.86437 5.6955C7.81498 5.59125 7.77083 5.48459 7.73212 5.37593C7.72851 5.36402 7.72129 5.35352 7.71146 5.34589C7.70163 5.33826 7.68968 5.33387 7.67725 5.33333C7.45978 5.33312 7.25129 5.24665 7.0975 5.0929C6.94372 4.93914 6.8572 4.73067 6.85693 4.51321V3.86774C6.85719 3.65031 6.94368 3.44186 7.09742 3.28811C7.25117 3.13436 7.45963 3.04787 7.67706 3.04762C7.68955 3.0471 7.70156 3.04271 7.71143 3.03504C7.7213 3.02737 7.72853 3.01681 7.73212 3.00484C7.77093 2.89603 7.8152 2.78925 7.86475 2.68489C7.87067 2.67383 7.87303 2.66121 7.87149 2.64875C7.86996 2.6363 7.86462 2.62462 7.85619 2.61532C7.78 2.53919 7.71956 2.44879 7.67832 2.34929C7.63709 2.24979 7.61586 2.14314 7.61586 2.03543C7.61586 1.92773 7.63709 1.82107 7.67832 1.72157C7.71956 1.62207 7.78 1.53167 7.85619 1.45554L8.31266 0.999257C8.38856 0.922827 8.47887 0.862227 8.57837 0.820973C8.67787 0.779718 8.78456 0.758629 8.89227 0.758929C8.99998 0.758664 9.10705 0.779769 9.20654 0.821022C9.30603 0.862275 9.39635 0.922856 9.47227 0.999257C9.48154 1.00787 9.49331 1.01332 9.50587 1.01483C9.51844 1.01634 9.53116 1.01382 9.54221 1.00764C9.646 0.95853 9.7524 0.914445 9.8614 0.875383C9.87343 0.871828 9.88405 0.864613 9.89178 0.854743C9.89951 0.844873 9.90398 0.832838 9.90455 0.820312C9.90476 0.602879 9.9912 0.394405 10.1449 0.240622C10.2986 0.0868385 10.5071 0.000303554 10.7245 0H11.3703C11.5877 0.0002934 11.7961 0.0867994 11.9499 0.240545C12.1036 0.39429 12.19 0.602722 12.1903 0.820125C12.1908 0.832614 12.1952 0.84463 12.2028 0.8545C12.2105 0.864369 12.2211 0.8716 12.233 0.875184C12.3424 0.914433 12.4491 0.95858 12.553 1.00763C12.564 1.01359 12.5766 1.01598 12.5891 1.01448C12.6016 1.01298 12.6132 1.00766 12.6226 0.999245C12.6985 0.922844 12.7888 0.862263 12.8883 0.82101C12.9878 0.779757 13.0945 0.758653 13.2022 0.758918C13.3099 0.758583 13.4169 0.779638 13.5164 0.820861C13.6159 0.862084 13.7063 0.922655 13.7822 0.999059L14.2386 1.45554C14.3148 1.53167 14.3753 1.62207 14.4165 1.72157C14.4577 1.82107 14.479 1.92773 14.479 2.03543C14.479 2.14314 14.4577 2.24979 14.4165 2.34929C14.3753 2.44879 14.3148 2.53919 14.2386 2.61532C14.2301 2.6247 14.2248 2.6365 14.2233 2.64908C14.2218 2.66165 14.2243 2.67437 14.2305 2.68545C14.2799 2.7897 14.3241 2.89635 14.3629 3.00502C14.3664 3.01696 14.3736 3.02749 14.3834 3.03514C14.3932 3.04278 14.4051 3.04715 14.4176 3.04762C14.635 3.04783 14.8435 3.1343 14.9973 3.28805C15.1511 3.44181 15.2376 3.65028 15.2379 3.86774V4.51321C15.2376 4.73061 15.1512 4.93904 14.9975 5.09279C14.8438 5.24653 14.6353 5.33304 14.4179 5.33333C14.4054 5.33384 14.3933 5.33822 14.3834 5.34589C14.3735 5.35355 14.3662 5.36411 14.3625 5.37611C14.3239 5.48498 14.2797 5.59177 14.2301 5.69605C14.2241 5.70711 14.2217 5.71974 14.2233 5.7322C14.2248 5.74467 14.2302 5.75635 14.2386 5.76562C14.3148 5.84176 14.3753 5.93216 14.4165 6.03166C14.4577 6.13116 14.479 6.23781 14.479 6.34552C14.479 6.45322 14.4577 6.55988 14.4165 6.65938C14.3753 6.75888 14.3148 6.84928 14.2386 6.92541L13.7822 7.38188C13.6283 7.53553 13.4198 7.62183 13.2024 7.62183C12.9849 7.62183 12.7764 7.53553 12.6226 7.38188C12.6132 7.37337 12.6013 7.36799 12.5887 7.36649C12.5761 7.36499 12.5634 7.36744 12.5522 7.3735C12.4488 7.42242 12.3425 7.46644 12.2334 7.50557C12.2214 7.50912 12.2108 7.51633 12.203 7.5262C12.1953 7.53607 12.1908 7.54811 12.1903 7.56064C12.1901 7.77807 12.1036 7.98654 11.9499 8.14033C11.7962 8.29411 11.5878 8.38065 11.3703 8.38095ZM9.5128 6.60472C9.63569 6.60476 9.75704 6.63208 9.86809 6.68472C9.94956 6.72341 10.0329 6.75795 10.1181 6.78834C10.2778 6.845 10.4162 6.94957 10.5144 7.08778C10.6125 7.226 10.6656 7.39113 10.6665 7.56064C10.6664 7.57607 10.6725 7.59089 10.6834 7.60184C10.6943 7.61278 10.7091 7.61897 10.7245 7.61904H11.3703C11.3857 7.61901 11.4005 7.61286 11.4114 7.60195C11.4223 7.59103 11.4284 7.57624 11.4284 7.56082C11.4292 7.39121 11.4823 7.22598 11.5805 7.08769C11.6787 6.9494 11.8172 6.84479 11.9771 6.78813C12.0619 6.75791 12.1451 6.72339 12.2264 6.68471C12.3795 6.61168 12.5515 6.58769 12.7188 6.61602C12.8861 6.64435 13.0406 6.72362 13.1612 6.843C13.1729 6.85242 13.1874 6.85757 13.2023 6.8576C13.2173 6.85764 13.2318 6.85255 13.2435 6.84319L13.6999 6.38672C13.7108 6.37578 13.717 6.36096 13.717 6.34552C13.717 6.33007 13.7108 6.31526 13.6999 6.30431C13.5807 6.18373 13.5016 6.02934 13.4732 5.86216C13.4448 5.69498 13.4687 5.52313 13.5415 5.36998C13.5802 5.28858 13.6147 5.20526 13.6449 5.12035C13.7015 4.96046 13.8061 4.82195 13.9444 4.72371C14.0827 4.62547 14.2479 4.57229 14.4176 4.57143C14.4252 4.57145 14.4328 4.56996 14.4399 4.56705C14.447 4.56413 14.4534 4.55985 14.4589 4.55444C14.4643 4.54903 14.4686 4.5426 14.4715 4.53553C14.4745 4.52845 14.476 4.52087 14.476 4.51321V3.86774C14.476 3.85233 14.4699 3.83754 14.459 3.82662C14.4481 3.8157 14.4334 3.80955 14.4179 3.80952C14.2483 3.80877 14.0831 3.75565 13.9448 3.65744C13.8065 3.55922 13.7019 3.42069 13.6453 3.26079C13.6147 3.17578 13.5801 3.09245 13.5418 3.01153C13.4689 2.85835 13.4449 2.6864 13.4732 2.51911C13.5015 2.35182 13.5807 2.19731 13.6999 2.07664C13.7108 2.06569 13.7169 2.05088 13.7169 2.03543C13.7169 2.01999 13.7108 2.00517 13.6999 1.99423L13.2435 1.53776C13.2325 1.52697 13.2177 1.52094 13.2023 1.52097C13.1869 1.52101 13.1722 1.52711 13.1612 1.53795C13.0407 1.65732 12.8863 1.73659 12.719 1.76492C12.5518 1.79325 12.3798 1.76927 12.2267 1.69624C12.1453 1.65755 12.0619 1.62301 11.9767 1.59262C11.817 1.53596 11.6786 1.43139 11.5804 1.29317C11.4823 1.15495 11.4292 0.989824 11.4284 0.820312C11.4284 0.804878 11.4223 0.790063 11.4114 0.779114C11.4005 0.768166 11.3858 0.761977 11.3703 0.761904H10.7245C10.7091 0.761935 10.6943 0.768084 10.6834 0.779002C10.6725 0.789919 10.6664 0.804711 10.6665 0.820125C10.6656 0.989738 10.6125 1.15496 10.5143 1.29325C10.4161 1.43154 10.2776 1.53616 10.1177 1.59282C10.0329 1.62304 9.94974 1.65756 9.86846 1.69624C9.71529 1.76932 9.5433 1.79333 9.37597 1.76499C9.20865 1.73666 9.05415 1.65737 8.93357 1.53795C8.92191 1.52862 8.90743 1.52352 8.89249 1.52348C8.87756 1.52345 8.86306 1.52848 8.85135 1.53776L8.39488 1.99423C8.38398 2.00517 8.37786 2.01999 8.37786 2.03543C8.37786 2.05088 8.38398 2.06569 8.39488 2.07664C8.51409 2.19722 8.59326 2.35161 8.62161 2.51879C8.64997 2.68597 8.62614 2.85782 8.55336 3.01097C8.51466 3.09237 8.48014 3.17569 8.44993 3.2606C8.39328 3.42049 8.28867 3.559 8.15039 3.65724C8.0121 3.75548 7.84687 3.80866 7.67725 3.80952C7.66178 3.80951 7.64695 3.81563 7.63599 3.82655C7.62504 3.83746 7.61887 3.85228 7.61884 3.86774V4.51321C7.61883 4.52085 7.62034 4.52843 7.62326 4.53549C7.62619 4.54256 7.63047 4.54898 7.63588 4.55438C7.64129 4.55979 7.64771 4.56408 7.65477 4.567C7.66184 4.56993 7.66941 4.57143 7.67706 4.57143C7.84666 4.57221 8.01188 4.62534 8.15014 4.72356C8.28841 4.82177 8.39298 4.96028 8.44957 5.12016C8.48007 5.20517 8.51467 5.2885 8.55299 5.36942C8.62595 5.5226 8.64991 5.69455 8.62162 5.86184C8.59333 6.02913 8.51416 6.18364 8.39489 6.30431C8.38399 6.31526 8.37788 6.33007 8.37788 6.34552C8.37788 6.36096 8.38399 6.37578 8.39489 6.38672L8.85137 6.843C8.86305 6.85231 8.87754 6.85737 8.89248 6.85737C8.90741 6.85737 8.9219 6.85231 8.93358 6.843C9.00973 6.76717 9.10009 6.70709 9.19948 6.6662C9.29887 6.62531 9.40533 6.60442 9.5128 6.60472Z" fill="currentcolor"/>
<path d="M11.0474 6.47615C10.5954 6.47615 10.1534 6.3421 9.77756 6.09094C9.40168 5.83978 9.10871 5.4828 8.93571 5.06514C8.76271 4.64748 8.71744 4.1879 8.80564 3.74452C8.89383 3.30113 9.11153 2.89386 9.43119 2.57419C9.75085 2.25453 10.1581 2.03684 10.6015 1.94864C11.0449 1.86045 11.5045 1.90571 11.9221 2.07871C12.3398 2.25171 12.6968 2.54468 12.9479 2.92056C13.1991 3.29645 13.3331 3.73837 13.3331 4.19044C13.3325 4.79644 13.0915 5.37744 12.6629 5.80595C12.2344 6.23446 11.6534 6.47549 11.0474 6.47615ZM11.0474 2.66663C10.7461 2.66663 10.4514 2.756 10.2009 2.92344C9.95026 3.09088 9.75495 3.32886 9.63962 3.6073C9.52428 3.88574 9.49411 4.19213 9.5529 4.48772C9.6117 4.78331 9.75683 5.05482 9.96994 5.26793C10.183 5.48104 10.4546 5.62617 10.7502 5.68497C11.0457 5.74376 11.3521 5.71359 11.6306 5.59825C11.909 5.48292 12.147 5.28761 12.3144 5.03702C12.4819 4.78643 12.5712 4.49182 12.5712 4.19044C12.5708 3.78643 12.4101 3.39909 12.1245 3.11342C11.8388 2.82774 11.4514 2.66706 11.0474 2.66663Z" fill="currentcolor"/>
<path d="M5.71421 5.7143H2.6666C2.56556 5.7143 2.46867 5.67416 2.39722 5.60272C2.32578 5.53128 2.28564 5.43438 2.28564 5.33334C2.28564 5.23231 2.32578 5.13541 2.39722 5.06397C2.46867 4.99253 2.56556 4.95239 2.6666 4.95239H5.71421C5.81525 4.95239 5.91215 4.99253 5.98359 5.06397C6.05503 5.13541 6.09517 5.23231 6.09517 5.33334C6.09517 5.43438 6.05503 5.53128 5.98359 5.60272C5.91215 5.67416 5.81525 5.7143 5.71421 5.7143Z" fill="currentcolor"/>
<path d="M5.71421 4.19049H2.6666C2.56556 4.19049 2.46867 4.15036 2.39722 4.07891C2.32578 4.00747 2.28564 3.91058 2.28564 3.80954C2.28564 3.70851 2.32578 3.61161 2.39722 3.54017C2.46867 3.46872 2.56556 3.42859 2.6666 3.42859H5.71421C5.81525 3.42859 5.91215 3.46872 5.98359 3.54017C6.05503 3.61161 6.09517 3.70851 6.09517 3.80954C6.09517 3.91058 6.05503 4.00747 5.98359 4.07891C5.91215 4.15036 5.81525 4.19049 5.71421 4.19049Z" fill="currentcolor"/>
<path d="M5.71421 8.7619H2.6666C2.56556 8.7619 2.46867 8.72177 2.39722 8.65033C2.32578 8.57888 2.28564 8.48199 2.28564 8.38095C2.28564 8.27992 2.32578 8.18302 2.39722 8.11158C2.46867 8.04014 2.56556 8 2.6666 8H5.71421C5.81525 8 5.91215 8.04014 5.98359 8.11158C6.05503 8.18302 6.09517 8.27992 6.09517 8.38095C6.09517 8.48199 6.05503 8.57888 5.98359 8.65033C5.91215 8.72177 5.81525 8.7619 5.71421 8.7619Z" fill="currentcolor"/>
<path d="M5.71421 7.2381H2.6666C2.56556 7.2381 2.46867 7.19797 2.39722 7.12652C2.32578 7.05508 2.28564 6.95818 2.28564 6.85715C2.28564 6.75611 2.32578 6.65922 2.39722 6.58777C2.46867 6.51633 2.56556 6.4762 2.6666 6.4762H5.71421C5.81525 6.4762 5.91215 6.51633 5.98359 6.58777C6.05503 6.65922 6.09517 6.75611 6.09517 6.85715C6.09517 6.95818 6.05503 7.05508 5.98359 7.12652C5.91215 7.19797 5.81525 7.2381 5.71421 7.2381Z" fill="currentcolor"/>
<path d="M9.52374 10.2857H2.6666C2.56556 10.2857 2.46867 10.2456 2.39722 10.1741C2.32578 10.1027 2.28564 10.0058 2.28564 9.90476C2.28564 9.80372 2.32578 9.70682 2.39722 9.63538C2.46867 9.56394 2.56556 9.5238 2.6666 9.5238H9.52374C9.62477 9.5238 9.72167 9.56394 9.79311 9.63538C9.86455 9.70682 9.90469 9.80372 9.90469 9.90476C9.90469 10.0058 9.86455 10.1027 9.79311 10.1741C9.72167 10.2456 9.62477 10.2857 9.52374 10.2857Z" fill="currentcolor"/>
<path d="M9.52388 13.3333H6.09531C5.99427 13.3333 5.89738 13.2932 5.82593 13.2217C5.75449 13.1503 5.71436 13.0534 5.71436 12.9524C5.71436 12.8513 5.75449 12.7544 5.82593 12.683C5.89738 12.6115 5.99427 12.5714 6.09531 12.5714H9.52388C9.62491 12.5714 9.72181 12.6115 9.79325 12.683C9.86469 12.7544 9.90483 12.8513 9.90483 12.9524C9.90483 13.0534 9.86469 13.1503 9.79325 13.2217C9.72181 13.2932 9.62491 13.3333 9.52388 13.3333Z" fill="currentcolor"/>
<path d="M9.52374 11.8095H2.6666C2.56556 11.8095 2.46867 11.7694 2.39722 11.6979C2.32578 11.6265 2.28564 11.5296 2.28564 11.4286C2.28564 11.3275 2.32578 11.2306 2.39722 11.1592C2.46867 11.0877 2.56556 11.0476 2.6666 11.0476H9.52374C9.62477 11.0476 9.72167 11.0877 9.79311 11.1592C9.86455 11.2306 9.90469 11.3275 9.90469 11.4286C9.90469 11.5296 9.86455 11.6265 9.79311 11.6979C9.72167 11.7694 9.62477 11.8095 9.52374 11.8095Z" fill="currentcolor"/>
</g>
<defs>
<clipPath id="clip0_12674_109525">
<rect width="16" height="16" fill="currentcolor"/>
</clipPath>
</defs>
</svg>
