<svg width="16" height="16" viewBox="0 0 16 16" fill="none" xmlns="http://www.w3.org/2000/svg">
<path fill-rule="evenodd" clip-rule="evenodd" d="M5.25996 0C4.96541 0 4.72663 0.238781 4.72663 0.533333V1.86667H4.13996C3.67249 1.86667 4.23484 1.88136 3.83358 1.93801C2.78514 2.05486 1.97454 2.37818 1.47172 3.14174C0.999156 3.85935 0.873291 4.8662 0.873291 6.13333V9.86667C0.873291 11.1338 0.999156 12.1407 1.47172 12.8583C1.97454 13.6218 2.78513 13.9451 3.83355 14.062C4.23482 14.1186 3.67248 14.1333 4.13996 14.1333H4.72663V15.4667C4.72663 15.7612 4.96541 16 5.25996 16C5.55451 16 5.7933 15.7612 5.7933 15.4667V0.533333C5.7933 0.238781 5.55451 0 5.25996 0ZM4.72663 13.0667H4.13996C3.68488 13.0667 4.30404 13.0517 3.97589 13.0048L3.95892 13.0027C3.04771 12.9022 2.61439 12.654 2.36257 12.2716C2.07915 11.8412 1.93996 11.1233 1.93996 9.86667V6.13333C1.93996 4.87673 2.07915 4.15879 2.36257 3.72839C2.61439 3.346 3.04771 3.09779 3.95892 2.99732L3.97589 2.99517C4.30404 2.94829 3.68488 2.93333 4.13996 2.93333H4.72663V13.0667ZM11.86 2.93333C12.315 2.93333 12.6958 2.94829 13.024 2.99517L13.041 2.99732C13.9522 3.09779 14.3855 3.346 14.6373 3.7284C14.9208 4.15879 15.06 4.87674 15.06 6.13333V9.86667C15.06 11.1233 14.9208 11.8412 14.6373 12.2716C14.3855 12.654 13.9522 12.9022 13.041 13.0027L13.024 13.0048C12.6958 13.0517 12.315 13.0667 11.86 13.0667H8.23168C7.93713 13.0667 7.69835 13.3054 7.69835 13.6C7.69835 13.8946 7.93713 14.1333 8.23168 14.1333H11.86C12.3275 14.1333 12.7651 14.1186 13.1663 14.062C14.2148 13.9451 15.0254 13.6218 15.5282 12.8583C16.0008 12.1407 16.1266 11.1338 16.1266 9.86667V6.13333C16.1266 4.86619 16.0008 3.85934 15.5282 3.14173C15.0253 2.37818 14.2147 2.05486 13.1663 1.93801C12.765 1.88136 12.3274 1.86667 11.86 1.86667H8.27648C7.98193 1.86667 7.74315 2.10545 7.74315 2.4C7.74315 2.69455 7.98193 2.93333 8.27648 2.93333H11.86Z" fill="currentColor"/>
<path fill-rule="evenodd" clip-rule="evenodd" d="M10.2976 7.95194C10.4283 7.71394 10.4936 7.4526 10.4936 7.16794C10.4936 6.85994 10.4259 6.58694 10.2906 6.34894C10.1553 6.11094 9.95225 5.92427 9.68159 5.78894C9.41092 5.6536 9.07959 5.58594 8.68759 5.58594H6.74859V10.4999H7.94559V8.73594H8.68759C9.08892 8.73594 9.42492 8.6636 9.69559 8.51894C9.96625 8.37427 10.1669 8.18527 10.2976 7.95194ZM9.10759 7.62294C8.99559 7.73027 8.82525 7.78394 8.59659 7.78394H7.94559V6.55194H8.59659C8.82525 6.55194 8.99559 6.6056 9.10759 6.71294C9.21959 6.82027 9.27559 6.97194 9.27559 7.16794C9.27559 7.36394 9.21959 7.5156 9.10759 7.62294ZM12.3138 7.53894V6.54494H14.1268V5.58594H11.1168V10.4999H14.1268V9.54094H12.3138V8.46294H13.9168V7.53894H12.3138Z" fill="currentColor"/>
</svg>
