<svg width="23" height="16" viewBox="0 0 23 16" fill="none" xmlns="http://www.w3.org/2000/svg">
<rect width="23" height="16" rx="4" fill="#DED1E5"/>
<path d="M8.624 7.144C8.624 7.44267 8.552 7.72267 8.408 7.984C8.26933 8.24533 8.048 8.456 7.744 8.616C7.44533 8.776 7.06667 8.856 6.608 8.856H5.672V11H4.552V5.416H6.608C7.04 5.416 7.408 5.49067 7.712 5.64C8.016 5.78933 8.24267 5.99467 8.392 6.256C8.54667 6.51733 8.624 6.81333 8.624 7.144ZM6.56 7.952C6.86933 7.952 7.09867 7.88267 7.248 7.744C7.39733 7.6 7.472 7.4 7.472 7.144C7.472 6.6 7.168 6.328 6.56 6.328H5.672V7.952H6.56ZM10.5392 6.32V7.72H12.4192V8.608H10.5392V10.088H12.6592V11H9.41919V5.408H12.6592V6.32H10.5392ZM18.693 5.416L16.645 11H15.285L13.237 5.416H14.437L15.973 9.856L17.501 5.416H18.693Z" fill="currentColor"/>
</svg>
