<svg width="18" height="20" viewBox="0 0 18 20" fill="none" xmlns="http://www.w3.org/2000/svg">
<path d="M17.522 3.29551V9.46075C17.522 10.9867 16.8226 12.7579 15.5531 14.4481C14.0737 16.4173 11.8945 18.1555 9.25101 19.4748L8.99975 19.6L8.74849 19.4748C6.10501 18.1555 3.9258 16.4173 2.44637 14.4481C1.17694 12.7579 0.477539 10.9867 0.477539 9.46075V3.29551L4.6237 0.400024H13.3758L17.522 3.29551Z" fill="#00358F"/>
<path d="M17.5222 3.29551V9.46075C17.5222 10.9867 16.8228 12.7579 15.5534 14.4481C14.0739 16.4173 11.8947 18.1555 9.25126 19.4748L9 19.6V0.400024H13.376L17.5222 3.29551Z" fill="#012453"/>
<path d="M12.6677 2.65015H5.33164L2.72754 4.46859V9.46079C2.72754 11.1765 4.41548 14.5291 8.99966 17.0653C13.5838 14.5291 15.2718 11.1765 15.2718 9.46079V4.46859L12.6677 2.65015Z" fill="#00B3FE"/>
<path d="M15.2721 4.46859V9.46079C15.2721 11.1765 13.5842 14.5291 9 17.0653V2.65015H12.668L15.2721 4.46859Z" fill="#0274F9"/>
<path d="M12.8447 2.08765H5.15466L2.16504 4.17535V9.46081C2.16504 10.5581 2.72081 11.9524 3.68947 13.286C4.86889 14.9098 6.61084 16.387 8.72742 17.5578L8.99968 17.7085L9.27194 17.5578C11.3885 16.387 13.1305 14.9098 14.3099 13.286C15.2786 11.9524 15.8343 10.5581 15.8343 9.46081V4.17535L12.8447 2.08765ZM14.7093 9.46081C14.7093 10.9575 13.1826 14.0135 8.99968 16.4196C4.81677 14.0135 3.29008 10.9575 3.29008 9.46081V4.76188L5.50867 3.21269H12.4907L14.7093 4.76188V9.46081Z" fill="#EFF5FA"/>
<path d="M15.8346 4.17535V9.46081C15.8346 10.5581 15.2789 11.9524 14.3102 13.286C13.1308 14.9098 11.3888 16.387 9.27226 17.5578L9 17.7085V16.4196C13.1829 14.0135 14.7096 10.9575 14.7096 9.46081V4.76188L12.491 3.21269H9V2.08765H12.845L15.8346 4.17535Z" fill="#C6E1EC"/>
<path d="M12.591 6.93419L8.99983 10.6251L8.99233 10.633L8.07917 11.5712L5.40869 9.07365L6.1771 8.25199L8.04167 9.99618L8.99233 9.01965L8.99983 9.01177L11.7847 6.14966L12.591 6.93419Z" fill="#EFF5FA"/>
<path d="M12.5911 6.93419L9 10.6251V9.01177L11.7849 6.14966L12.5911 6.93419Z" fill="#C6E1EC"/>
</svg>
