<svg width="20" height="20" viewBox="0 0 20 20" fill="none" xmlns="http://www.w3.org/2000/svg">
<path d="M12.7907 0H7.2093C2.15535 0 0 2.15535 0 7.2093V12.7907C0 17.8447 2.15535 20 7.2093 20H12.7907C17.8447 20 20 17.8447 20 12.7907V7.2093C20 2.15535 17.8447 0 12.7907 0ZM12.093 18.6047H7.2093C2.91721 18.6047 1.39535 17.0828 1.39535 12.7907V7.2093C1.39535 2.91721 2.91721 1.39535 7.2093 1.39535H12.093V18.6047ZM18.6047 12.7907C18.6047 16.8409 17.2474 18.4223 13.4884 18.5879V1.41209C17.2474 1.57767 18.6047 3.15907 18.6047 7.2093V12.7907ZM6.77209 7.12558L9.15349 9.50698C9.21829 9.57169 9.2697 9.64854 9.30478 9.73314C9.33986 9.81774 9.35791 9.90842 9.35791 10C9.35791 10.0916 9.33986 10.1823 9.30478 10.2669C9.2697 10.3515 9.21829 10.4283 9.15349 10.493L6.77209 12.8744C6.64045 13.0014 6.46418 13.0717 6.28125 13.07C6.09833 13.0683 5.92338 12.9949 5.79408 12.8655C5.66479 12.736 5.5915 12.561 5.58999 12.3781C5.58849 12.1952 5.6589 12.019 5.78605 11.8874L7.67442 10L5.78605 8.11256C5.6589 7.98104 5.58849 7.80483 5.58999 7.6219C5.5915 7.43898 5.66479 7.26395 5.79408 7.13454C5.92338 7.00512 6.09833 6.93167 6.28125 6.92999C6.46418 6.92832 6.64045 6.99856 6.77209 7.12558Z" fill="#71347B"/>
</svg>
