<svg width="15" height="16" viewBox="0 0 15 16" fill="none" xmlns="http://www.w3.org/2000/svg">
<path d="M14.9 4.70781L10.2663 0.0734375C10.2194 0.0265625 10.1559 0 10.0897 0H4.84094C3.61938 0 2.62562 0.994063 2.62562 2.21563V6.60031H0.68125C0.305625 6.60031 0 6.90594 0 7.28156V11.1978C0 11.5734 0.305625 11.8791 0.68125 11.8791H2.62562V13.7844C2.62562 15.0059 3.61938 16 4.84094 16H12.7578C13.9794 16 14.9731 15.0059 14.9731 13.7844V4.88469C14.9731 4.81844 14.9469 4.75469 14.9 4.70781ZM14.4734 13.7844C14.4734 14.7306 13.7037 15.5003 12.7578 15.5003H4.84094C3.895 15.5003 3.12531 14.7306 3.12531 13.7844V11.8791H11.3562C11.7319 11.8791 12.0375 11.5734 12.0375 11.1978V7.28156C12.0375 6.90594 11.7319 6.60031 11.3562 6.60031H3.12531V2.21563C3.12531 1.26938 3.895 0.499687 4.84094 0.499687H9.83969V4.38406C9.83969 4.79781 10.1759 5.13438 10.5891 5.13438H14.4734V13.7844Z" fill="currentColor"/>
<path d="M9.51367 8.39061C9.70285 8.39067 9.87349 8.43699 10.0254 8.53026C10.1801 8.62359 10.3016 8.75732 10.3896 8.93065C10.4802 9.10123 10.5254 9.29986 10.5254 9.52635C10.5254 9.75302 10.4803 9.95484 10.3896 10.1308C10.3017 10.304 10.1799 10.4382 10.0254 10.5342C9.87349 10.6301 9.70286 10.6786 9.51367 10.6787C9.35101 10.6787 9.20639 10.6448 9.08105 10.5781C8.95854 10.5115 8.85851 10.4274 8.78125 10.3262V11.6982H8.22168V8.42674H8.78125V8.74608C8.85324 8.64484 8.9519 8.56075 9.07715 8.49413C9.20515 8.42479 9.35101 8.39061 9.51367 8.39061ZM6.6709 8.39061C6.88409 8.39066 7.07774 8.43822 7.25098 8.53416C7.42418 8.62748 7.55958 8.76133 7.6582 8.93456C7.7595 9.10782 7.81051 9.30761 7.81055 9.53416C7.81055 9.76083 7.7583 9.96142 7.6543 10.1348C7.55298 10.3079 7.41417 10.4421 7.23828 10.5381C7.06496 10.6314 6.87028 10.6787 6.6543 10.6787C6.44106 10.6787 6.24873 10.6314 6.07812 10.5381C5.90779 10.4422 5.77336 10.3078 5.6748 10.1348C5.5788 9.96142 5.53027 9.76083 5.53027 9.53416C5.53031 9.30762 5.58009 9.10782 5.67871 8.93456C5.78004 8.76122 5.91749 8.6275 6.09082 8.53416C6.26407 8.43829 6.4577 8.39061 6.6709 8.39061ZM2.64746 7.85057C2.86346 7.85057 3.0482 7.88821 3.2002 7.96288C3.35193 8.03752 3.46546 8.13998 3.54004 8.27049C3.61731 8.40112 3.65527 8.54956 3.65527 8.71483C3.65521 8.86402 3.61979 9.0042 3.54785 9.13475C3.47854 9.26528 3.36766 9.37023 3.21582 9.45018C3.06649 9.53018 2.87679 9.5703 2.64746 9.5703H2.17969V10.6426H1.62012V7.85057H2.64746ZM5.29297 8.98241H5.14551C4.96951 8.98241 4.83578 9.02376 4.74512 9.10643C4.65725 9.18906 4.61333 9.33302 4.61328 9.53807V10.6426H4.05371V8.42674H4.61328V8.77049C4.68528 8.65316 4.77889 8.56079 4.89355 8.49413C5.01072 8.42763 5.14391 8.39457 5.29297 8.39452V8.98241ZM6.66211 8.87889C6.50229 8.87899 6.36803 8.9362 6.25879 9.05077C6.1522 9.16272 6.09868 9.32366 6.09863 9.53416C6.09863 9.74483 6.15088 9.90778 6.25488 10.0224C6.36147 10.1343 6.49449 10.1904 6.6543 10.1904C6.75563 10.1904 6.85048 10.1661 6.93848 10.1181C7.02906 10.0675 7.10099 9.99308 7.1543 9.89452C7.20763 9.79585 7.23438 9.6755 7.23438 9.53416C7.23433 9.3237 7.17829 9.16271 7.06641 9.05077C6.95707 8.9361 6.82211 8.87889 6.66211 8.87889ZM9.36523 8.8828C9.26393 8.88281 9.16779 8.90956 9.07715 8.96288C8.98929 9.01354 8.91726 9.08796 8.86133 9.18651C8.80805 9.2851 8.78129 9.40097 8.78125 9.53416C8.78125 9.6675 8.80799 9.78413 8.86133 9.8828C8.91727 9.98127 8.98931 10.0571 9.07715 10.1103C9.16779 10.161 9.26393 10.1865 9.36523 10.1865C9.46923 10.1865 9.56532 10.1598 9.65332 10.1064C9.74385 10.0532 9.81583 9.97735 9.86914 9.87889C9.92514 9.78022 9.95312 9.66235 9.95312 9.52635C9.95311 9.39308 9.92511 9.27857 9.86914 9.1826C9.81581 9.08394 9.74399 9.00866 9.65332 8.95799C9.56537 8.9074 9.46916 8.8828 9.36523 8.8828ZM2.17969 9.11815H2.62402C2.77849 9.11811 2.89315 9.08387 2.96777 9.01463C3.04236 8.94271 3.08 8.84264 3.08008 8.71483C3.08008 8.44291 2.92784 8.30671 2.62402 8.30663H2.17969V9.11815Z" fill="white"/>
</svg>
