<svg width="33" height="33" viewBox="0 0 33 33" fill="none" xmlns="http://www.w3.org/2000/svg">
<g clip-path="url(#clip0_25_22761)">
<path d="M16.2471 0.777605C14.942 0.783668 13.6957 0.89498 12.5991 1.08904C9.36852 1.65979 8.78195 2.85436 8.78195 5.05742V7.96698H16.4161V8.93679H8.78195H5.91689C3.6982 8.93679 1.75539 10.2704 1.14777 12.8073C0.446829 15.7152 0.415766 17.5298 1.14777 20.5661C1.69045 22.8262 2.98639 24.4365 5.20508 24.4365H7.82989V20.9486C7.82989 18.4288 10.0101 16.2062 12.5991 16.2062H20.2244C22.347 16.2062 24.0415 14.4585 24.0415 12.3268V5.05742C24.0415 2.98854 22.2961 1.43436 20.2244 1.08904C18.913 0.87073 17.5522 0.771543 16.2471 0.777605ZM12.1186 3.11773C12.9071 3.11773 13.5511 3.77223 13.5511 4.57692C13.5511 5.37879 12.9071 6.02723 12.1186 6.02723C11.3272 6.02723 10.6861 5.37879 10.6861 4.57692C10.6861 3.77217 11.3272 3.11773 12.1186 3.11773Z" fill="url(#paint0_linear_25_22761)"/>
<path d="M24.9935 8.93762V12.3276C24.9935 14.9559 22.7653 17.1679 20.2244 17.1679H12.5991C10.5104 17.1679 8.78198 18.9556 8.78198 21.0473V28.3167C8.78198 30.3856 10.581 31.6025 12.5991 32.1961C15.0157 32.9066 17.333 33.0351 20.2244 32.1961C22.1464 31.6396 24.0415 30.5198 24.0415 28.3167V25.4071H16.4162V24.4373H24.0415H27.8586C30.0773 24.4373 30.9041 22.8897 31.6757 20.5668C32.4728 18.1754 32.4389 15.8758 31.6757 12.808C31.1274 10.5993 30.0802 8.9375 27.8586 8.9375H24.9935V8.93762ZM20.7049 27.3469C21.4963 27.3469 22.1374 27.9953 22.1374 28.7972C22.1374 29.6019 21.4963 30.2564 20.7049 30.2564C19.9164 30.2564 19.2724 29.6019 19.2724 28.7972C19.2724 27.9953 19.9163 27.3469 20.7049 27.3469Z" fill="url(#paint1_linear_25_22761)"/>
</g>
<defs>
<linearGradient id="paint0_linear_25_22761" x1="-0.137864" y1="1.68738" x2="17.4697" y2="16.703" gradientUnits="userSpaceOnUse">
<stop stop-color="#5A9FD4"/>
<stop offset="1" stop-color="#306998"/>
</linearGradient>
<linearGradient id="paint1_linear_25_22761" x1="24.0947" y1="26.0377" x2="17.7804" y2="17.1827" gradientUnits="userSpaceOnUse">
<stop stop-color="#FFD43B"/>
<stop offset="1" stop-color="#FFE873"/>
</linearGradient>
<clipPath id="clip0_25_22761">
<rect width="32" height="32" fill="white" transform="translate(0.435547 0.777344)"/>
</clipPath>
</defs>
</svg>
