<svg width="21" height="20" viewBox="0 0 21 20" fill="none" xmlns="http://www.w3.org/2000/svg">
<g clip-path="url(#clip0_2699_12934)">
<path d="M16.8537 16.6281C20.4412 12.9675 20.4412 7.03249 16.8537 3.37187C13.2661 -0.28874 7.44959 -0.28874 3.86204 3.37187C0.274492 7.03249 0.274492 12.9675 3.86204 16.6281C7.44959 20.2887 13.2661 20.2887 16.8537 16.6281Z" fill="#FFC38B"/>
<path fill-rule="evenodd" clip-rule="evenodd" d="M19.4158 11.4833C18.762 15.3864 15.7439 18.4659 11.9188 19.133L6.97262 14.0861C5.78903 13.0894 5.03467 11.5811 5.03467 9.89293C5.03467 6.8918 7.41892 4.45898 10.3602 4.45898C12.0146 4.45898 13.4928 5.22875 14.4696 6.43641L19.4158 11.4833Z" fill="#E2750F"/>
<path fill-rule="evenodd" clip-rule="evenodd" d="M10.3602 4.45898C13.3014 4.45898 15.6856 6.8918 15.6856 9.89293C15.6856 12.8941 13.3014 15.3269 10.3602 15.3269C7.41892 15.3269 5.03467 12.8941 5.03467 9.89293C5.03467 6.8918 7.41892 4.45898 10.3602 4.45898ZM8.49928 7.73264H8.96833L9.05285 7.48502H8.36952L7.45166 8.8243H7.75166L8.49928 7.73264ZM9.72904 12.3981L7.45166 9.07192H8.5969L9.72904 12.3981ZM11.8624 8.8243L11.4064 7.48502H9.31357L8.85761 8.8243H11.8624ZM10.36 13.485L8.85761 9.07192H11.8624L10.36 13.485ZM12.2207 7.73264L12.9683 8.8243H13.2683L12.3505 7.48502H11.6671L11.7517 7.73264H12.2207ZM10.9909 12.3981L12.1231 9.07192H13.2683L10.9909 12.3981Z" fill="white"/>
</g>
<defs>
<clipPath id="clip0_2699_12934">
<rect width="19.6008" height="20" fill="white" transform="translate(0.55957)"/>
</clipPath>
</defs>
</svg>
