<svg width="16" height="16" viewBox="0 0 16 16" fill="none" xmlns="http://www.w3.org/2000/svg">
<path d="M15.2974 9.27172L14.6318 8.72378C14.1758 8.34844 14.1766 7.65081 14.6318 7.27622L15.2974 6.72828C15.771 6.33831 15.8922 5.66963 15.5854 5.13822L14.2711 2.86178C13.9643 2.33041 13.3245 2.10103 12.7501 2.31622L11.9427 2.61869C11.3897 2.82581 10.786 2.47647 10.6891 1.89491L10.5473 1.04447C10.4465 0.439281 9.92794 0 9.31437 0H6.68578C6.07219 0 5.55362 0.439281 5.45278 1.0445L5.31103 1.89491C5.21394 2.4775 4.60938 2.82547 4.05741 2.61872L3.25006 2.31622C2.67559 2.10103 2.03584 2.33044 1.729 2.86178L0.414718 5.13819C0.107937 5.66953 0.229062 6.33825 0.702781 6.72825L1.36837 7.27619C1.82437 7.65156 1.82347 8.34912 1.36837 8.72375L0.702749 9.27169C0.229062 9.66169 0.107906 10.3304 0.414687 10.8618L1.729 13.1382C2.03581 13.6695 2.67544 13.8989 3.25006 13.6838L4.05737 13.3813C4.61047 13.1741 5.21409 13.5237 5.311 14.1051L5.45275 14.9554C5.55362 15.5607 6.07219 16 6.68575 16H9.31434C9.92791 16 10.4465 15.5607 10.5473 14.9555L10.689 14.1051C10.7861 13.5227 11.3906 13.1745 11.9427 13.3813L12.7501 13.6838C13.3247 13.899 13.9643 13.6696 14.2711 13.1382L15.5855 10.8618C15.8922 10.3304 15.771 9.66169 15.2974 9.27172ZM13.6196 11.7666C13.3709 12.1974 12.8471 12.3853 12.3813 12.2107C11.0907 11.7273 9.68219 12.5429 9.45609 13.8996C9.37431 14.3903 8.94974 14.75 8.45224 14.75H7.54792C7.05042 14.75 6.62583 14.3903 6.54403 13.8996C6.3175 12.5403 4.90697 11.7282 3.61887 12.2107C3.15299 12.3853 2.62921 12.1974 2.38046 11.7666L1.9283 10.9834C1.67956 10.5526 1.77876 10.005 2.16284 9.68884C3.22687 8.81291 3.22466 7.18528 2.16284 6.31116C1.77876 5.99497 1.67957 5.44744 1.92831 5.0166L2.3805 4.23339C2.62925 3.80256 3.15301 3.61471 3.61887 3.78925C4.9095 4.27269 6.31794 3.45706 6.54403 2.10041C6.62581 1.60968 7.05039 1.25 7.54788 1.25H8.45221C8.94971 1.25 9.37428 1.60968 9.45606 2.10041C9.68262 3.45984 11.0932 4.27169 12.3812 3.78925C12.8471 3.6147 13.3709 3.80253 13.6198 4.23335L14.0718 5.01599C14.3207 5.44699 14.2215 5.99478 13.8372 6.31112C12.7733 7.187 12.7754 8.81466 13.8372 9.68881C14.2213 10.005 14.3205 10.5525 14.0718 10.9834L13.6196 11.7666Z" fill="currentColor"/>
<path fill-rule="evenodd" clip-rule="evenodd" d="M6.84562 9.65817C7.0032 9.65817 7.11696 9.809 7.07366 9.96052C7.04457 10.0623 6.95151 10.1325 6.84562 10.1325H6.36815C5.95661 10.1325 5.68582 9.65817 6.09736 9.65817H6.84562ZM7.34519 9.01035C7.31609 9.11217 7.22303 9.18236 7.11714 9.18236H5.71242C5.30089 9.18236 5.0301 8.70801 5.44163 8.70801H7.11714C7.27472 8.70801 7.38849 8.85884 7.34519 9.01035ZM7.61724 8.05832C7.58795 8.16085 7.49404 8.2322 7.38741 8.2322H4.70925C4.29772 8.2322 4.02693 7.75784 4.43846 7.75784H7.39086C7.496 7.75784 7.58841 7.82754 7.61731 7.92863C7.6294 7.97093 7.62933 8.01602 7.61724 8.05832ZM7.30402 6.83259C7.34733 6.98411 7.23356 7.13495 7.07598 7.13495H5.71242C5.30089 7.13495 5.0301 6.6606 5.44163 6.6606H7.07598C7.18186 6.6606 7.27492 6.73079 7.30402 6.83259ZM7.03238 5.88226C7.07569 6.03378 6.96192 6.18462 6.80433 6.18462H6.26611C5.91093 6.18462 5.649 5.79659 5.99607 5.7211C6.0287 5.71401 6.06259 5.71027 6.09736 5.71027H6.80433C6.91022 5.71027 7.00328 5.78045 7.03238 5.88226Z" fill="currentColor"/>
<path d="M7.38239 10.7495C7.41437 10.7736 7.45335 10.7867 7.49341 10.7867C7.52874 10.7866 7.56334 10.7766 7.59321 10.7577L11.6803 8.15678C11.7067 8.14001 11.7284 8.11684 11.7435 8.08944C11.7585 8.06204 11.7664 8.03128 11.7664 8.00002C11.7664 7.96876 11.7585 7.93801 11.7435 7.9106C11.7284 7.8832 11.7067 7.86004 11.6803 7.84326L7.59321 5.24238C7.56137 5.22213 7.52412 5.21204 7.48642 5.21345C7.44871 5.21486 7.41233 5.2277 7.38209 5.25028C7.35186 5.27286 7.3292 5.30409 7.31714 5.33984C7.30507 5.3756 7.30417 5.41417 7.31454 5.45045L8.04331 8.00002L7.31469 10.5497C7.30438 10.586 7.30534 10.6245 7.31743 10.6602C7.32952 10.6959 7.35217 10.727 7.38239 10.7495Z" fill="#10B660"/>
</svg>
