<svg width="24" height="24" viewBox="0 0 24 24" fill="none" xmlns="http://www.w3.org/2000/svg">
<g clip-path="url(#clip0_5110_1206)">
<path d="M0 4C0 1.79086 1.79086 0 4 0H20C22.2091 0 24 1.79086 24 4V20C24 22.2091 22.2091 24 20 24H4C1.79086 24 0 22.2091 0 20V4Z" fill="#F7ECF8"/>
<path d="M0 4C0 1.79086 1.79086 0 4 0H20C22.2091 0 24 1.79086 24 4V20C24 22.2091 22.2091 24 20 24H4C1.79086 24 0 22.2091 0 20V4Z" fill="currentColor"/>
<path d="M19.2974 13.2717L18.6318 12.7238C18.1758 12.3484 18.1766 11.6508 18.6318 11.2762L19.2974 10.7283C19.771 10.3383 19.8922 9.66963 19.5854 9.13822L18.2711 6.86178C17.9643 6.33041 17.3245 6.10103 16.7501 6.31622L15.9427 6.61869C15.3897 6.82581 14.786 6.47647 14.6891 5.89491L14.5473 5.04447C14.4465 4.43928 13.9279 4 13.3144 4H10.6858C10.0722 4 9.55362 4.43928 9.45278 5.0445L9.31103 5.89491C9.21394 6.4775 8.60938 6.82547 8.05741 6.61872L7.25006 6.31622C6.67559 6.10103 6.03584 6.33044 5.729 6.86178L4.41472 9.13819C4.10794 9.66953 4.22906 10.3383 4.70278 10.7283L5.36837 11.2762C5.82437 11.6516 5.82347 12.3491 5.36837 12.7238L4.70275 13.2717C4.22906 13.6617 4.10791 14.3304 4.41469 14.8618L5.729 17.1382C6.03581 17.6695 6.67544 17.8989 7.25006 17.6838L8.05737 17.3813C8.61047 17.1741 9.21409 17.5237 9.311 18.1051L9.45275 18.9554C9.55362 19.5607 10.0722 20 10.6858 20H13.3143C13.9279 20 14.4465 19.5607 14.5473 18.9555L14.689 18.1051C14.7861 17.5227 15.3906 17.1745 15.9427 17.3813L16.7501 17.6838C17.3247 17.899 17.9643 17.6696 18.2711 17.1382L19.5855 14.8618C19.8922 14.3304 19.771 13.6617 19.2974 13.2717ZM17.6196 15.7666C17.3709 16.1974 16.8471 16.3853 16.3813 16.2107C15.0907 15.7273 13.6822 16.5429 13.4561 17.8996C13.3743 18.3903 12.9497 18.75 12.4522 18.75H11.5479C11.0504 18.75 10.6258 18.3903 10.544 17.8996C10.3175 16.5403 8.90697 15.7282 7.61887 16.2107C7.15299 16.3853 6.62921 16.1974 6.38046 15.7666L5.9283 14.9834C5.67956 14.5526 5.77876 14.005 6.16284 13.6888C7.22687 12.8129 7.22466 11.1853 6.16284 10.3112C5.77876 9.99497 5.67957 9.44744 5.92831 9.0166L6.3805 8.23339C6.62925 7.80256 7.15301 7.61471 7.61887 7.78925C8.9095 8.27269 10.3179 7.45706 10.544 6.10041C10.6258 5.60968 11.0504 5.25 11.5479 5.25H12.4522C12.9497 5.25 13.3743 5.60968 13.4561 6.10041C13.6826 7.45984 15.0932 8.27169 16.3812 7.78925C16.8471 7.6147 17.3709 7.80253 17.6198 8.23335L18.0718 9.01599C18.3207 9.44699 18.2215 9.99478 17.8372 10.3111C16.7733 11.187 16.7754 12.8147 17.8372 13.6888C18.2213 14.005 18.3205 14.5525 18.0718 14.9834L17.6196 15.7666Z" fill="white"/>
<path fill-rule="evenodd" clip-rule="evenodd" d="M10.8456 13.6582C11.0032 13.6582 11.117 13.809 11.0737 13.9605C11.0446 14.0623 10.9515 14.1325 10.8456 14.1325H10.3681C9.95661 14.1325 9.68582 13.6582 10.0974 13.6582H10.8456ZM11.3452 13.0104C11.3161 13.1122 11.223 13.1824 11.1171 13.1824H9.71242C9.30089 13.1824 9.0301 12.708 9.44163 12.708H11.1171C11.2747 12.708 11.3885 12.8588 11.3452 13.0104ZM11.6172 12.0583C11.5879 12.1608 11.494 12.2322 11.3874 12.2322H8.70925C8.29772 12.2322 8.02693 11.7578 8.43846 11.7578H11.3909C11.496 11.7578 11.5884 11.8275 11.6173 11.9286C11.6294 11.9709 11.6293 12.016 11.6172 12.0583ZM11.304 10.8326C11.3473 10.9841 11.2336 11.135 11.076 11.135H9.71242C9.30089 11.135 9.0301 10.6606 9.44163 10.6606H11.076C11.1819 10.6606 11.2749 10.7308 11.304 10.8326ZM11.0324 9.88226C11.0757 10.0338 10.9619 10.1846 10.8043 10.1846H10.2661C9.91093 10.1846 9.649 9.79659 9.99607 9.7211C10.0287 9.71401 10.0626 9.71027 10.0974 9.71027H10.8043C10.9102 9.71027 11.0033 9.78045 11.0324 9.88226Z" fill="white"/>
<path d="M11.3824 14.7495C11.4144 14.7736 11.4533 14.7867 11.4934 14.7867C11.5287 14.7866 11.5633 14.7766 11.5932 14.7577L15.6803 12.1568C15.7067 12.14 15.7284 12.1168 15.7435 12.0894C15.7585 12.062 15.7664 12.0313 15.7664 12C15.7664 11.9688 15.7585 11.938 15.7435 11.9106C15.7284 11.8832 15.7067 11.86 15.6803 11.8433L11.5932 9.24238C11.5614 9.22213 11.5241 9.21204 11.4864 9.21345C11.4487 9.21486 11.4123 9.2277 11.3821 9.25028C11.3519 9.27286 11.3292 9.30409 11.3171 9.33984C11.3051 9.3756 11.3042 9.41417 11.3145 9.45045L12.0433 12L11.3147 14.5497C11.3044 14.586 11.3053 14.6245 11.3174 14.6602C11.3295 14.6959 11.3522 14.727 11.3824 14.7495Z" fill="#10B660"/>
</g>
<defs>
<clipPath id="clip0_5110_1206">
<path d="M0 4C0 1.79086 1.79086 0 4 0H20C22.2091 0 24 1.79086 24 4V20C24 22.2091 22.2091 24 20 24H4C1.79086 24 0 22.2091 0 20V4Z" fill="white"/>
</clipPath>
</defs>
</svg>
