<svg width="16" height="16" viewBox="0 0 16 16" fill="none" xmlns="http://www.w3.org/2000/svg">
<g clip-path="url(#clip0_576_5769)">
<path d="M10.376 3.44153C11.6169 4.09045 12.5658 5.22119 12.9559 6.59375H12.2183C12.0452 6.59375 11.8864 6.68896 11.8048 6.84143C11.7234 6.99377 11.7325 7.17871 11.8282 7.3225C11.8833 7.41748 13.5754 10.3317 13.4689 10.1481C13.6428 10.4089 14.0749 10.4089 14.2489 10.1481C14.4276 9.84045 15.9822 7.21691 15.9209 7.3225C16.0166 7.17871 16.0256 6.99377 15.9442 6.84143C15.8628 6.68896 15.7039 6.59375 15.5309 6.59375H14.8896C14.462 4.48755 13.0843 2.73901 11.2318 1.77686C11.2627 1.89441 11.2803 2.01587 11.2803 2.14062C11.2812 3.14355 10.4701 3.37903 10.376 3.44153Z" fill="currentcolor"/>
<path d="M7.32238 0.0786067C7.17858 -0.0169743 6.99365 -0.0261296 6.8413 0.0552913C6.68884 0.136834 6.59362 0.295648 6.59362 0.468743V1.10986C4.05237 1.62585 2.01416 3.51439 1.27344 5.96605C1.52393 5.76818 1.82129 5.65673 2.1405 5.65673C2.56067 5.65673 2.94299 5.8424 3.20471 6.14769C3.78515 4.65123 5.03381 3.48693 6.59362 3.04357V3.78124C6.59362 3.95434 6.68884 4.11315 6.8413 4.19469C6.99377 4.27611 7.17871 4.26696 7.32238 4.17138C7.41735 4.1162 10.3315 2.42406 10.1479 2.53063C10.4089 2.35668 10.4089 1.92455 10.1479 1.7506C9.84033 1.57201 7.21679 0.0173275 7.32238 0.0786067Z" fill="currentcolor"/>
<path d="M0.055276 10.0961C0.136819 10.2485 0.295632 10.3437 0.468728 10.3437H1.3773C1.97385 12.0286 3.20066 13.4025 4.76584 14.2184C4.73569 14.1024 4.71921 13.9824 4.71921 13.8594C4.71824 12.8607 5.52292 12.6241 5.61679 12.5619C4.67319 12.0677 3.89988 11.2927 3.41294 10.3437H3.78123C3.95432 10.3437 4.11313 10.2485 4.19468 10.0961C4.2761 9.94372 4.26694 9.75879 4.17124 9.61499C4.11619 9.52002 2.42405 6.60583 2.53062 6.78943C2.35667 6.52856 1.92454 6.52856 1.75059 6.78943C1.62705 7.0022 -0.0223606 9.78906 0.0785914 9.61499C-0.0169896 9.75879 -0.0261448 9.94372 0.055276 10.0961Z" fill="currentcolor"/>
<path d="M9.40622 12.2187C9.40622 12.0456 9.311 11.8868 9.15854 11.8053C9.00619 11.7239 8.82126 11.733 8.67746 11.8287C8.58249 11.8838 5.6683 13.5759 5.8519 13.4693C5.59103 13.6433 5.59103 14.0754 5.8519 14.2494C6.15951 14.428 8.78305 15.9826 8.67746 15.9214C8.82126 16.0171 9.00619 16.0261 9.15854 15.9447C9.311 15.8633 9.40622 15.7043 9.40622 15.5314V14.8901C11.5123 14.4625 13.2607 13.0851 14.2229 11.2326C14.1056 11.2637 13.9841 11.2812 13.8593 11.2812C13.0631 11.2812 12.7616 10.7739 12.5424 10.409C11.8908 11.6343 10.7668 12.5697 9.40622 12.9564V12.2187Z" fill="currentcolor"/>
<rect x="10" y="10" width="6" height="6" rx="3" fill="#F7ECF8"/>
<path d="M13.1484 10.9053C13.4671 10.927 13.7761 11.0227 14.0527 11.1836L14.2549 10.9834C14.2943 10.944 14.3448 10.9162 14.3994 10.9053C14.4541 10.8944 14.511 10.9005 14.5625 10.9219C14.6139 10.9432 14.6576 10.9792 14.6885 11.0254C14.7194 11.0717 14.7363 11.126 14.7363 11.1816V11.9092C14.7363 11.9838 14.707 12.0556 14.6543 12.1084C14.6014 12.1612 14.5288 12.1904 14.4541 12.1904H13.7275C13.6718 12.1904 13.6166 12.1745 13.5703 12.1436C13.5241 12.1126 13.4881 12.068 13.4668 12.0166C13.4456 11.9653 13.4404 11.9089 13.4512 11.8545C13.462 11.7998 13.4889 11.7494 13.5283 11.71L13.6338 11.6035C13.4352 11.5126 13.2195 11.4635 13 11.4639C12.6961 11.4639 12.3991 11.5538 12.1465 11.7227C11.8939 11.8914 11.6973 12.1314 11.5811 12.4121C11.4648 12.6928 11.4339 13.0018 11.4932 13.2998C11.5525 13.5978 11.6992 13.8711 11.9141 14.0859C12.1289 14.3008 12.4022 14.4475 12.7002 14.5068C12.9982 14.5661 13.3072 14.5352 13.5879 14.4189C13.8686 14.3027 14.1086 14.1061 14.2773 13.8535C14.4462 13.6009 14.5361 13.3039 14.5361 13C14.5361 12.9253 14.5663 12.8536 14.6191 12.8008C14.672 12.748 14.7437 12.7178 14.8184 12.7178C14.893 12.7178 14.9648 12.748 15.0176 12.8008C15.0704 12.8536 15.0996 12.9253 15.0996 13C15.0996 13.4153 14.9768 13.8216 14.7461 14.167C14.5153 14.5122 14.1874 14.7815 13.8037 14.9404C13.42 15.0994 12.9972 15.1406 12.5898 15.0596C12.1827 14.9785 11.8082 14.7789 11.5146 14.4854C11.2211 14.1918 11.0215 13.8173 10.9404 13.4102C10.8594 13.0028 10.9006 12.58 11.0596 12.1963C11.2185 11.8126 11.4878 11.4846 11.833 11.2539C12.1784 11.0232 12.5847 10.9004 13 10.9004L13.1484 10.9053Z" fill="currentcolor" stroke="#71347B" stroke-width="0.2"/>
</g>
<defs>
<clipPath id="clip0_576_5769">
<rect width="16" height="16" fill="white"/>
</clipPath>
</defs>
</svg>
