<svg width="24" height="24" viewBox="0 0 24 24" fill="none" xmlns="http://www.w3.org/2000/svg">
<g clip-path="url(#clip0_21650_1038)">
<path d="M10.9463 0.0463562C13.6974 -0.19619 16.4484 0.518172 18.7344 2.06784C21.0204 3.61786 22.7021 5.91045 23.4951 8.55612C24.1726 10.8171 24.166 13.2191 23.4902 15.4624L23.4482 15.5766C23.2266 16.0935 22.6389 16.3373 22.0947 16.1743L21.9785 16.1333C21.3666 15.8796 21.0837 15.1785 21.2588 14.5395C21.7325 12.8116 21.7152 10.9762 21.1963 9.2446C20.6015 7.26035 19.3817 5.52523 17.7246 4.2944L17.3877 4.05515C15.5589 2.81528 13.3582 2.24393 11.1572 2.43796L10.7461 2.48288C8.69959 2.75254 6.79036 3.67596 5.30566 5.12057L5.01465 5.41452C3.59863 6.91635 2.70222 8.83925 2.46387 10.8969L2.4248 11.3081C2.27585 13.3668 2.79502 15.4237 3.91016 17.1694C5.09975 19.0314 6.89577 20.4257 8.99414 21.1176C10.711 21.6837 12.5448 21.7511 14.2852 21.3247C14.9286 21.1672 15.6215 21.4698 15.8584 22.0883C16.0951 22.7074 15.786 23.4077 15.1465 23.5815L14.7207 23.6889C12.5858 24.1858 10.3437 24.0899 8.24219 23.3969C5.7832 22.586 3.65617 21.0035 2.1748 18.8911L1.8877 18.4614C0.493772 16.2793 -0.154882 13.7086 0.03125 11.1352L0.0800781 10.6206C0.378002 8.04836 1.49844 5.64537 3.26855 3.76804L3.63184 3.39987C5.48772 1.59419 7.87452 0.440038 10.4326 0.102997L10.9463 0.0463562Z" fill="#71347B"/>
<path d="M8.53341 17.4228C8.59649 17.4704 8.67334 17.4961 8.75233 17.4961C8.82202 17.496 8.89024 17.4761 8.94913 17.4389L17.0084 12.3102C17.0604 12.2772 17.1033 12.2315 17.1329 12.1775C17.1626 12.1234 17.1782 12.0628 17.1782 12.0011C17.1782 11.9395 17.1626 11.8788 17.1329 11.8248C17.1033 11.7708 17.0604 11.7251 17.0084 11.692L8.94913 6.56338C8.88635 6.52344 8.81291 6.50355 8.73855 6.50633C8.6642 6.50911 8.59245 6.53444 8.53283 6.57896C8.47321 6.62347 8.42854 6.68507 8.40475 6.75557C8.38096 6.82607 8.37917 6.90213 8.39963 6.97367L9.83667 12.0011L8.39992 17.0289C8.3796 17.1003 8.38149 17.1763 8.40533 17.2466C8.42917 17.317 8.47384 17.3785 8.53341 17.4228Z" fill="#10B660"/>
<path d="M21.0964 17.2481C21.4202 16.9244 21.9563 16.9244 22.28 17.2481C22.6034 17.5718 22.6034 18.1071 22.28 18.4308L20.8953 19.8145L22.28 21.1993C22.6037 21.523 22.6037 22.0592 22.28 22.3829C22.1126 22.5392 21.9003 22.628 21.6882 22.628C21.4762 22.628 21.2639 22.5503 21.0964 22.3829L19.7117 20.9981L18.3279 22.3829C18.1716 22.539 17.9481 22.628 17.7361 22.628C17.5243 22.6279 17.3126 22.55 17.1453 22.3829C16.8215 22.0592 16.8215 21.523 17.1453 21.1993L18.5291 19.8145L17.1453 18.4308C16.8215 18.107 16.8215 17.5719 17.1453 17.2481C17.469 16.9244 18.0042 16.9244 18.3279 17.2481L19.7117 18.6319L21.0964 17.2481Z" fill="#A91224"/>
</g>
<defs>
<clipPath id="clip0_21650_1038">
<path d="M0 4C0 1.79086 1.79086 0 4 0H20C22.2091 0 24 1.79086 24 4V20C24 22.2091 22.2091 24 20 24H4C1.79086 24 0 22.2091 0 20V4Z" fill="white"/>
</clipPath>
</defs>
</svg>
