<svg width="24" height="24" viewBox="0 0 24 24" fill="none" xmlns="http://www.w3.org/2000/svg">
<g clip-path="url(#clip0_2947_11536)">
<path fill-rule="evenodd" clip-rule="evenodd" d="M20.0797 14.2606C19.9522 14.6836 19.4801 14.8768 19.0719 14.7077C18.6637 14.5387 18.4751 14.0714 18.5919 13.6453C18.9078 12.4933 18.8963 11.2701 18.5503 10.1157C18.1274 8.70459 17.2306 7.48257 16.0114 6.65585C14.7921 5.82914 13.3249 5.44835 11.8575 5.57775C10.3901 5.70715 9.01223 6.33881 7.95645 7.36614C6.90066 8.39346 6.2316 9.75356 6.06217 11.2169C5.89273 12.6802 6.2333 14.1572 7.0264 15.3986C7.81949 16.64 9.01656 17.5698 10.4156 18.0311C11.5601 18.4085 12.7825 18.4534 13.9428 18.1692C14.3719 18.064 14.8338 18.2653 14.9917 18.678C15.1495 19.0906 14.9435 19.5573 14.5172 19.6732C13.0098 20.0827 11.4091 20.0434 9.91457 19.5507C8.16578 18.9741 6.66944 17.8118 5.67807 16.2601C4.6867 14.7083 4.26099 12.8621 4.47278 11.0329C4.68458 9.2037 5.5209 7.50358 6.84063 6.21942C8.16037 4.93526 9.88269 4.14568 11.717 3.98394C13.5513 3.82219 15.3852 4.29817 16.9093 5.33156C18.4334 6.36495 19.5543 7.89248 20.0829 9.65637C20.5347 11.1638 20.5302 12.765 20.0797 14.2606Z" fill="currentColor"/>
<path d="M10.1085 15.5674C10.1505 15.5991 10.2018 15.6162 10.2544 15.6162C10.3009 15.6161 10.3464 15.6029 10.3856 15.5781L15.7584 12.159C15.7931 12.137 15.8216 12.1065 15.8414 12.0705C15.8612 12.0345 15.8715 11.9941 15.8715 11.953C15.8715 11.9119 15.8612 11.8714 15.8414 11.8354C15.8216 11.7994 15.7931 11.769 15.7584 11.7469L10.3856 8.32788C10.3438 8.30125 10.2948 8.28799 10.2453 8.28984C10.1957 8.2917 10.1479 8.30859 10.1081 8.33826C10.0684 8.36794 10.0386 8.409 10.0227 8.456C10.0069 8.503 10.0057 8.55371 10.0193 8.6014L10.9773 11.953L10.0195 15.3047C10.006 15.3524 10.0072 15.403 10.0231 15.4499C10.039 15.4968 10.0688 15.5378 10.1085 15.5674Z" fill="#10B660"/>
<path fill-rule="evenodd" clip-rule="evenodd" d="M15.8494 18.8739C15.961 18.9856 16.1024 19.0377 16.2438 19.0377C16.3852 19.0377 16.534 18.9781 16.6382 18.8739L17.561 17.9511L18.4838 18.8739C18.5954 18.9856 18.7368 19.0377 18.8782 19.0377C19.0196 19.0377 19.161 18.9781 19.2726 18.8739C19.4884 18.6581 19.4884 18.3009 19.2726 18.0851L18.3498 17.1623L19.2726 16.2395C19.4884 16.0237 19.4884 15.6665 19.2726 15.4507C19.0568 15.2349 18.6996 15.2349 18.4838 15.4507L17.561 16.3735L16.6382 15.4507C16.4224 15.2349 16.0652 15.2349 15.8494 15.4507C15.6335 15.6665 15.6335 16.0237 15.8494 16.2395L16.7722 17.1623L15.8494 18.0851C15.6335 18.3009 15.6335 18.6581 15.8494 18.8739Z" fill="#A91224"/>
</g>
<defs>
<clipPath id="clip0_2947_11536">
<path d="M0 4C0 1.79086 1.79086 0 4 0H20C22.2091 0 24 1.79086 24 4V20C24 22.2091 22.2091 24 20 24H4C1.79086 24 0 22.2091 0 20V4Z" fill="white"/>
</clipPath>
</defs>
</svg>
