<svg width="16" height="17" viewBox="0 0 16 17" fill="none" xmlns="http://www.w3.org/2000/svg">
<g clip-path="url(#clip0_6138_26146)">
<path fill-rule="evenodd" clip-rule="evenodd" d="M0 0.784546H16V16.7845H0V0.784546Z" fill="#FFC915"/>
<path d="M7.51831 9.31357C7.50347 9.29591 7.49514 9.27369 7.49471 9.25063C7.4945 9.23803 7.49678 9.22551 7.50141 9.21378C7.50604 9.20206 7.51294 9.19136 7.5217 9.1823C7.53047 9.17324 7.54094 9.166 7.5525 9.16098C7.56407 9.15597 7.57651 9.15328 7.58911 9.15308H9.0052C10.7202 9.15308 12.1363 7.85028 12.1363 5.95429C12.1363 4.14327 10.7785 2.73819 8.69209 2.73819H3.92144C3.90172 2.73644 3.88186 2.73909 3.86328 2.74596C3.84471 2.75282 3.82789 2.76371 3.81404 2.77787C3.80019 2.79202 3.78966 2.80907 3.7832 2.82778C3.77674 2.8465 3.77451 2.86642 3.77669 2.8861V3.48715C3.77451 3.50683 3.77674 3.52675 3.7832 3.54546C3.78966 3.56418 3.80019 3.58123 3.81404 3.59538C3.82789 3.60953 3.84471 3.62043 3.86328 3.62729C3.88186 3.63415 3.90172 3.6368 3.92144 3.63505H8.64174C10.264 3.63505 11.1592 4.51617 11.1592 5.95429C11.1592 7.39241 10.264 8.25622 8.64174 8.25622H6.72845C6.70866 8.25451 6.68875 8.25718 6.67011 8.26403C6.65147 8.27088 6.63457 8.28175 6.62061 8.29587C6.60664 8.30998 6.59595 8.327 6.5893 8.34571C6.58265 8.36442 6.5802 8.38436 6.58212 8.40412V9.537C6.57866 9.58659 6.59196 9.6359 6.61988 9.67703L10.9012 14.5216C10.9208 14.5437 10.9451 14.5609 10.9724 14.5721C10.9997 14.5833 11.0291 14.5881 11.0585 14.5861H12.0341C12.0531 14.5881 12.0723 14.584 12.0888 14.5743C12.1053 14.5646 12.1182 14.5499 12.1258 14.5324C12.1334 14.5148 12.1351 14.4953 12.1308 14.4766C12.1264 14.458 12.1163 14.4412 12.1017 14.4288L7.51831 9.31357ZM8.65433 6.27212C8.65685 6.29094 8.65525 6.31007 8.64962 6.3282C8.644 6.34633 8.63449 6.36301 8.62176 6.37709C8.60903 6.39117 8.59338 6.40231 8.57591 6.40972C8.55844 6.41714 8.53956 6.42065 8.52059 6.42003H4.77739C4.76395 6.41996 4.75065 6.42272 4.73834 6.42812C4.72604 6.43352 4.715 6.44145 4.70595 6.45139C4.69691 6.46133 4.69005 6.47305 4.68582 6.48581C4.68159 6.49857 4.68009 6.51207 4.68141 6.52545V14.4382C4.68396 14.4572 4.68233 14.4765 4.67661 14.4947C4.6709 14.513 4.66125 14.5297 4.64834 14.5438C4.63543 14.5579 4.61959 14.569 4.60192 14.5764C4.58425 14.5837 4.5652 14.587 4.5461 14.5861H3.91672C3.83176 14.5861 3.78298 14.5437 3.78298 14.4382V5.67422C3.78298 5.58139 3.83176 5.52632 3.91672 5.52632H8.51744C8.53641 5.52569 8.55529 5.52921 8.57276 5.53662C8.59024 5.54404 8.60588 5.55517 8.61861 5.56925C8.63134 5.58333 8.64085 5.60001 8.64648 5.61814C8.6521 5.63627 8.65371 5.65541 8.65118 5.67422V6.27212H8.65433Z" fill="black"/>
</g>
<defs>
<clipPath id="clip0_6138_26146">
<rect y="0.784546" width="16" height="16" rx="2" fill="white"/>
</clipPath>
</defs>
</svg>
