<svg width="16" height="16" viewBox="0 0 16 16" fill="none" xmlns="http://www.w3.org/2000/svg">
<g clip-path="url(#clip0_20310_13972)">
<path fill-rule="evenodd" clip-rule="evenodd" d="M8 0C3.5875 0 0 3.5875 0 8C0 12.4125 3.5875 16 8 16C12.4125 16 16 12.4125 16 8C16 3.5875 12.4125 0 8 0ZM5.03125 6.20312H3.78125C3.64375 6.20312 3.53125 6.31563 3.53125 6.45312V8.22812V9.54375C3.53125 9.68125 3.64375 9.79375 3.78125 9.79375C3.91875 9.79375 4.03125 9.68125 4.03125 9.54375V8.47812H4.425L5.34375 9.65C5.39375 9.7125 5.46563 9.74687 5.54063 9.74687C5.59375 9.74687 5.65 9.72813 5.69375 9.69375C5.80312 9.60938 5.82188 9.45 5.7375 9.34375L5.05937 8.48125C5.675 8.46562 6.16875 7.9625 6.16875 7.34375C6.17188 6.71562 5.65938 6.20312 5.03125 6.20312ZM7.30625 6.70312V7.75H9.09375C9.23125 7.75 9.34375 7.8625 9.34375 8C9.34375 8.1375 9.23125 8.25 9.09375 8.25H7.30625V9.29688H9.09375C9.23125 9.29688 9.34375 9.40938 9.34375 9.54688C9.34375 9.68437 9.23125 9.79688 9.09375 9.79688H7.05312C6.91563 9.79688 6.80312 9.68437 6.80312 9.54688V6.45312C6.80312 6.31563 6.91563 6.20312 7.05312 6.20312H9.09375C9.23125 6.20312 9.34375 6.31563 9.34375 6.45312C9.34375 6.59062 9.23125 6.70312 9.09375 6.70312H7.30625ZM10.4312 7.325V8.67188C10.4312 9.01562 10.7094 9.29375 11.0531 9.29375H11.35C11.6875 9.29375 11.9656 9.01875 11.9719 8.68437C11.975 8.54688 12.0875 8.43437 12.2281 8.4375C12.3656 8.44063 12.475 8.55313 12.475 8.69375C12.4625 9.3 11.9594 9.79375 11.3531 9.79375H11.0562C10.4375 9.79375 9.93437 9.29062 9.93437 8.67188V7.325C9.93437 6.70625 10.4375 6.20312 11.0562 6.20312H11.3531C11.9594 6.20312 12.4625 6.69688 12.475 7.30312C12.4781 7.44062 12.3687 7.55625 12.2281 7.55937C12.0875 7.5625 11.975 7.45312 11.9719 7.3125C11.9656 6.975 11.6875 6.70312 11.35 6.70312H11.0531C10.7094 6.70312 10.4312 6.98438 10.4312 7.325ZM5.03125 7.98125H4.03125V6.70625H5.03125C5.38438 6.70625 5.66875 6.99062 5.66875 7.34375C5.66875 7.69375 5.38438 7.98125 5.03125 7.98125Z" fill="currentColor"/>
</g>
<defs>
<clipPath id="clip0_20310_13972">
<rect width="16" height="16" fill="white"/>
</clipPath>
</defs>
</svg>
