<svg width="16" height="16" viewBox="0 0 16 16" fill="none" xmlns="http://www.w3.org/2000/svg">
<path d="M7.27273 4.85714V11.1429C7.27273 11.3702 7.15779 11.5882 6.95321 11.7489C6.74862 11.9097 6.47115 12 6.18182 12H5.09091C4.80158 12 4.52411 11.9097 4.31952 11.7489C4.11493 11.5882 4 11.3702 4 11.1429V4.85714C4 4.62981 4.11493 4.4118 4.31952 4.25105C4.52411 4.09031 4.80158 4 5.09091 4H6.18182C6.47115 4 6.74862 4.09031 6.95321 4.25105C7.15779 4.4118 7.27273 4.62981 7.27273 4.85714ZM10.9091 4H9.81818C9.52885 4 9.25138 4.09031 9.04679 4.25105C8.84221 4.4118 8.72727 4.62981 8.72727 4.85714V11.1429C8.72727 11.3702 8.84221 11.5882 9.04679 11.7489C9.25138 11.9097 9.52885 12 9.81818 12H10.9091C11.1984 12 11.4759 11.9097 11.6805 11.7489C11.8851 11.5882 12 11.3702 12 11.1429V4.85714C12 4.62981 11.8851 4.4118 11.6805 4.25105C11.4759 4.09031 11.1984 4 10.9091 4Z" fill="#71347B"/>
</svg>
