<svg width="24" height="24" viewBox="0 0 24 24" fill="none" xmlns="http://www.w3.org/2000/svg">
<g clip-path="url(#clip0_306_29176)">
<path fill-rule="evenodd" clip-rule="evenodd" d="M19.8613 13.4835C19.7669 13.9836 19.2447 14.2547 18.7587 14.1034C18.2727 13.9522 18.0088 13.4355 18.0858 12.9324C18.2473 11.8787 18.1331 10.7955 17.7468 9.7907C17.2497 8.49759 16.331 7.40994 15.1392 6.70358C13.9474 5.99722 12.5523 5.71344 11.1793 5.89812C9.80627 6.0828 8.53567 6.72513 7.57291 7.72129C6.61014 8.71744 6.01147 10.0092 5.87369 11.3877C5.73591 12.7662 6.06707 14.1509 6.81364 15.3179C7.5602 16.4849 8.67852 17.366 9.98782 17.8187C11.0052 18.1706 12.0917 18.2478 13.1393 18.0505C13.6394 17.9564 14.1648 18.2025 14.3325 18.6831C14.5002 19.1636 14.2471 19.6948 13.7505 19.8062C12.3068 20.1299 10.7951 20.0482 9.38543 19.5607C7.68418 18.9724 6.23106 17.8275 5.261 16.3111C4.29095 14.7948 3.86065 12.9956 4.03967 11.2044C4.2187 9.4132 4.99659 7.73475 6.24758 6.44038C7.49856 5.14601 9.14953 4.31137 10.9336 4.07141C12.7176 3.83145 14.5304 4.20019 16.079 5.11801C17.6275 6.03583 18.8212 7.44909 19.4672 9.1293C20.0024 10.5215 20.1356 12.0296 19.8613 13.4835ZM17.4866 17.616C17.2556 17.847 16.9425 17.9769 16.6158 17.9773C16.2892 17.9769 15.976 17.847 15.7451 17.616C15.5141 17.3851 15.3842 17.0719 15.3838 16.7453V15.1024C15.3848 14.7764 15.5151 14.464 15.746 14.2338C15.977 14.0035 16.2897 13.8743 16.6158 13.8743C16.9419 13.8743 17.2547 14.0035 17.4856 14.2338C17.7166 14.464 17.8468 14.7764 17.8478 15.1024V16.7453C17.8475 17.0719 17.7176 17.3851 17.4866 17.616ZM16.0167 14.5042C15.8576 14.6627 15.7678 14.8778 15.7669 15.1024V15.2071H16.1124C16.1653 15.2071 16.2082 15.25 16.2082 15.3029C16.2082 15.3558 16.1653 15.3987 16.1124 15.3987H15.7669V15.686H16.1124C16.1653 15.686 16.2082 15.7289 16.2082 15.7818C16.2082 15.8347 16.1653 15.8776 16.1124 15.8776H15.7669V16.1649H16.1124C16.1653 16.1649 16.2082 16.2078 16.2082 16.2607C16.2082 16.3136 16.1653 16.3564 16.1124 16.3564H15.7669V16.7453C15.7678 16.9699 15.8576 17.185 16.0167 17.3435C16.1758 17.502 16.3912 17.591 16.6158 17.591C16.8404 17.591 17.0559 17.502 17.215 17.3435C17.3741 17.185 17.4639 16.9699 17.4647 16.7453V16.3564H17.115C17.0621 16.3564 17.0192 16.3136 17.0192 16.2607C17.0192 16.2078 17.0621 16.1649 17.115 16.1649H17.4647V15.8776H17.115C17.0621 15.8776 17.0192 15.8347 17.0192 15.7818C17.0192 15.7289 17.0621 15.686 17.115 15.686H17.4647V15.3987H17.115C17.0621 15.3987 17.0192 15.3558 17.0192 15.3029C17.0192 15.25 17.0621 15.2071 17.115 15.2071H17.4647V15.1024C17.4639 14.8778 17.3741 14.6627 17.215 14.5042C17.0559 14.3457 16.8404 14.2567 16.6158 14.2567C16.3912 14.2567 16.1758 14.3457 16.0167 14.5042ZM16.8074 19.6169V18.7252C17.3057 18.6762 17.7681 18.4439 18.1049 18.0734C18.4418 17.7028 18.6291 17.2205 18.6305 16.7197C18.6305 16.6689 18.6103 16.6202 18.5744 16.5843C18.5385 16.5483 18.4898 16.5282 18.439 16.5282C18.3882 16.5282 18.3394 16.5483 18.3035 16.5843C18.2676 16.6202 18.2474 16.6689 18.2474 16.7197C18.2474 17.6193 17.5155 18.3513 16.6158 18.3513C15.7162 18.3513 14.9843 17.6194 14.9843 16.7197C14.9843 16.6689 14.9641 16.6202 14.9282 16.5843C14.8922 16.5483 14.8435 16.5282 14.7927 16.5282C14.7419 16.5282 14.6932 16.5483 14.6573 16.5843C14.6213 16.6202 14.6012 16.6689 14.6012 16.7197C14.6026 17.2205 14.7899 17.7028 15.1267 18.0734C15.4636 18.4439 15.926 18.6762 16.4243 18.7252V19.6169H15.6197C15.5689 19.6169 15.5202 19.6371 15.4842 19.673C15.4483 19.7089 15.4281 19.7576 15.4281 19.8084C15.4281 19.8592 15.4483 19.908 15.4842 19.9439C15.5202 19.9798 15.5689 20 15.6197 20H17.612C17.6628 20 17.7115 19.9798 17.7474 19.9439C17.7834 19.908 17.8035 19.8592 17.8035 19.8084C17.8035 19.7576 17.7834 19.7089 17.7474 19.673C17.7115 19.6371 17.6628 19.6169 17.612 19.6169H16.8074Z" fill="#71347B"/>
<path d="M10.2607 15.31C10.2992 15.3391 10.3462 15.3548 10.3944 15.3548C10.437 15.3547 10.4787 15.3426 10.5147 15.3198L15.4395 12.1859C15.4712 12.1657 15.4974 12.1378 15.5155 12.1047C15.5337 12.0717 15.5432 12.0347 15.5432 11.997C15.5432 11.9593 15.5337 11.9223 15.5155 11.8893C15.4974 11.8562 15.4712 11.8283 15.4395 11.8081L10.5147 8.67418C10.4763 8.64978 10.4315 8.63762 10.386 8.63932C10.3406 8.64102 10.2968 8.6565 10.2603 8.6837C10.2239 8.7109 10.1966 8.74854 10.1821 8.79162C10.1675 8.8347 10.1664 8.88118 10.1789 8.92489L11.0571 11.997L10.1791 15.0693C10.1667 15.113 10.1678 15.1594 10.1824 15.2024C10.197 15.2454 10.2243 15.2829 10.2607 15.31Z" fill="#C50303"/>
</g>
<defs>
<clipPath id="clip0_306_29176">
<path d="M0 4C0 1.79086 1.79086 0 4 0H20C22.2091 0 24 1.79086 24 4V20C24 22.2091 22.2091 24 20 24H4C1.79086 24 0 22.2091 0 20V4Z" fill="white"/>
</clipPath>
</defs>
</svg>
