<svg width="16" height="16" viewBox="0 0 16 16" fill="none" xmlns="http://www.w3.org/2000/svg">
<path d="M14.0002 14C13.8234 14 13.6538 13.9298 13.5288 13.8047C13.4037 13.6797 13.3335 13.5101 13.3335 13.3333V10.6667H10.6668C10.49 10.6667 10.3204 10.5964 10.1954 10.4714C10.0704 10.3464 10.0002 10.1768 10.0002 10C10.0002 9.82319 10.0704 9.65362 10.1954 9.5286C10.3204 9.40357 10.49 9.33333 10.6668 9.33333H14.0002C14.177 9.33333 14.3465 9.40357 14.4716 9.5286C14.5966 9.65362 14.6668 9.82319 14.6668 10V13.3333C14.6668 13.5101 14.5966 13.6797 14.4716 13.8047C14.3465 13.9298 14.177 14 14.0002 14ZM5.3335 6.66667H2.00016C1.82335 6.66667 1.65378 6.59643 1.52876 6.4714C1.40373 6.34638 1.3335 6.17681 1.3335 6V2.66667C1.3335 2.48986 1.40373 2.32029 1.52876 2.19526C1.65378 2.07024 1.82335 2 2.00016 2C2.17697 2 2.34654 2.07024 2.47157 2.19526C2.59659 2.32029 2.66683 2.48986 2.66683 2.66667V5.33333H5.3335C5.51031 5.33333 5.67988 5.40357 5.8049 5.5286C5.92992 5.65362 6.00016 5.82319 6.00016 6C6.00016 6.17681 5.92992 6.34638 5.8049 6.4714C5.67988 6.59643 5.51031 6.66667 5.3335 6.66667Z" fill="currentColor"/>
<path d="M7.99983 14.6669C6.35964 14.6672 4.77691 14.0628 3.55435 12.9694C2.3318 11.876 1.55522 10.3703 1.37316 8.74022C1.36353 8.65267 1.37124 8.56408 1.39585 8.47951C1.42045 8.39494 1.46147 8.31605 1.51657 8.24733C1.62784 8.10856 1.78968 8.01966 1.9665 8.00022C2.14331 7.98077 2.3206 8.03235 2.45938 8.14362C2.59816 8.2549 2.68705 8.41674 2.7065 8.59355C2.83827 9.79535 3.37446 10.9167 4.22716 11.7738C5.07986 12.6309 6.19847 13.1728 7.39958 13.3108C8.60069 13.4487 9.81303 13.1744 10.8378 12.533C11.8626 11.8915 12.6391 10.9209 13.0398 9.78022C13.0648 9.69253 13.1075 9.61091 13.1653 9.54039C13.2231 9.46987 13.2948 9.41195 13.3758 9.37023C13.4569 9.3285 13.5457 9.30384 13.6366 9.29778C13.7276 9.29172 13.8189 9.30439 13.9048 9.33499C13.9906 9.3656 14.0693 9.4135 14.136 9.47573C14.2026 9.53796 14.2558 9.6132 14.2922 9.69679C14.3286 9.78039 14.3475 9.87056 14.3476 9.96174C14.3478 10.0529 14.3293 10.1432 14.2932 10.2269C13.8324 11.5271 12.9797 12.6524 11.8525 13.4476C10.7254 14.2429 9.37928 14.6689 7.99983 14.6669ZM13.9598 8.00022C13.795 8.00122 13.6357 7.94113 13.5126 7.83156C13.3895 7.72199 13.3113 7.57069 13.2932 7.40688C13.1555 6.21083 12.6172 5.09655 11.7658 4.24529C10.9145 3.39402 9.80012 2.85585 8.60406 2.71832C7.408 2.58078 6.20059 2.85198 5.17823 3.4878C4.15587 4.12361 3.37871 5.08663 2.97316 6.22022C2.94817 6.3079 2.90545 6.38952 2.84766 6.46004C2.78986 6.53056 2.71822 6.58848 2.63715 6.63021C2.55608 6.67193 2.46732 6.69659 2.37634 6.70265C2.28537 6.70871 2.19412 6.69605 2.10823 6.66544C2.02235 6.63483 1.94365 6.58693 1.87702 6.5247C1.81038 6.46247 1.75722 6.38723 1.72081 6.30364C1.68441 6.22004 1.66554 6.12987 1.66537 6.0387C1.6652 5.94752 1.68373 5.85728 1.71983 5.77355C2.22178 4.3496 3.19222 3.1382 4.47232 2.33762C5.75243 1.53704 7.26637 1.19469 8.76639 1.36661C10.2664 1.53853 11.6636 2.21453 12.7294 3.28397C13.7952 4.35341 14.4664 5.75296 14.6332 7.25355C14.6519 7.42846 14.6008 7.60369 14.4909 7.74105C14.381 7.87841 14.2213 7.96677 14.0465 7.98688L13.9598 8.00022Z" fill="currentColor"/>
</svg>
