<svg width="16" height="16" viewBox="0 0 16 16" fill="none" xmlns="http://www.w3.org/2000/svg">
<path d="M14 14C13.8232 14 13.6537 13.9298 13.5286 13.8047C13.4036 13.6797 13.3334 13.5101 13.3334 13.3333V10.6667H10.6667C10.4899 10.6667 10.3203 10.5964 10.1953 10.4714C10.0703 10.3464 10 10.1768 10 10C10 9.82319 10.0703 9.65362 10.1953 9.5286C10.3203 9.40357 10.4899 9.33333 10.6667 9.33333H14C14.1769 9.33333 14.3464 9.40357 14.4714 9.5286C14.5965 9.65362 14.6667 9.82319 14.6667 10V13.3333C14.6667 13.5101 14.5965 13.6797 14.4714 13.8047C14.3464 13.9298 14.1769 14 14 14ZM5.33337 6.66667H2.00004C1.82323 6.66667 1.65366 6.59643 1.52864 6.4714C1.40361 6.34638 1.33337 6.17681 1.33337 6V2.66667C1.33337 2.48986 1.40361 2.32029 1.52864 2.19526C1.65366 2.07024 1.82323 2 2.00004 2C2.17685 2 2.34642 2.07024 2.47145 2.19526C2.59647 2.32029 2.66671 2.48986 2.66671 2.66667V5.33333H5.33337C5.51018 5.33333 5.67975 5.40357 5.80478 5.5286C5.9298 5.65362 6.00004 5.82319 6.00004 6C6.00004 6.17681 5.9298 6.34638 5.80478 6.4714C5.67975 6.59643 5.51018 6.66667 5.33337 6.66667Z" fill="currentcolor"/>
<path d="M7.99995 14.6666C6.35977 14.6669 4.77704 14.0626 3.55448 12.9692C2.33192 11.8757 1.55534 10.37 1.37328 8.73997C1.36365 8.65242 1.37136 8.56384 1.39597 8.47927C1.42057 8.3947 1.4616 8.3158 1.51669 8.24709C1.62796 8.10831 1.78981 8.01942 1.96662 7.99997C2.14343 7.98052 2.32072 8.03211 2.4595 8.14338C2.59828 8.25465 2.68717 8.41649 2.70662 8.59331C2.83839 9.79511 3.37458 10.9165 4.22728 11.7736C5.07999 12.6306 6.19859 13.1726 7.3997 13.3105C8.60081 13.4485 9.81315 13.1742 10.8379 12.5327C11.8627 11.8912 12.6392 10.9206 13.0399 9.77997C13.0649 9.69229 13.1077 9.61066 13.1655 9.54014C13.2232 9.46963 13.2949 9.41171 13.376 9.36998C13.457 9.32825 13.5458 9.3036 13.6368 9.29754C13.7277 9.29148 13.819 9.30414 13.9049 9.33475C13.9908 9.36536 14.0695 9.41326 14.1361 9.47549C14.2027 9.53772 14.2559 9.61296 14.2923 9.69655C14.3287 9.78014 14.3476 9.87032 14.3477 9.96149C14.3479 10.0527 14.3294 10.1429 14.2933 10.2266C13.8325 11.5269 12.9798 12.6522 11.8527 13.4474C10.7255 14.2426 9.3794 14.6686 7.99995 14.6666ZM13.96 7.99997C13.7951 8.00097 13.6358 7.94089 13.5127 7.83132C13.3896 7.72174 13.3114 7.57045 13.2933 7.40664C13.1556 6.21059 12.6173 5.09631 11.766 4.24504C10.9146 3.39377 9.80024 2.8556 8.60418 2.71807C7.40812 2.58054 6.20071 2.85174 5.17835 3.48755C4.15599 4.12337 3.37883 5.08639 2.97328 6.21997C2.94829 6.30766 2.90557 6.38928 2.84778 6.4598C2.78999 6.53032 2.71834 6.58823 2.63727 6.62996C2.55621 6.67169 2.46744 6.69635 2.37647 6.70241C2.28549 6.70847 2.19424 6.6958 2.10836 6.66519C2.02247 6.63459 1.94378 6.58669 1.87714 6.52446C1.8105 6.46223 1.75734 6.38699 1.72093 6.30339C1.68453 6.2198 1.66566 6.12963 1.66549 6.03845C1.66532 5.94728 1.68386 5.85703 1.71995 5.7733C2.2219 4.34935 3.19234 3.13796 4.47245 2.33738C5.75255 1.5368 7.2665 1.19445 8.76651 1.36637C10.2665 1.53828 11.6638 2.21428 12.7295 3.28372C13.7953 4.35317 14.4665 5.75271 14.6333 7.2533C14.652 7.42821 14.6009 7.60344 14.491 7.7408C14.3811 7.87817 14.2214 7.96653 14.0466 7.98664L13.96 7.99997Z" fill="currentcolor"/>
</svg>
