<svg width="17" height="17" viewBox="0 0 17 17" fill="none"
    xmlns="http://www.w3.org/2000/svg">
    <path d="M0.984542 7.79772C0.984542 4.5833 3.52652 1.96829 6.65115 1.96829H13.6511V0.827784C13.6511 0.216723 14.3691 -0.0891503 14.7891 0.342913L16.789 2.51214C17.0497 2.7803 17.049 3.21442 16.789 3.48189L14.7891 5.65112C14.3691 6.08318 13.6511 5.77731 13.6511 5.16625V4.02574H6.65115C4.62917 4.02574 2.98452 5.71833 2.98452 7.79772C2.98452 8.36557 2.53719 8.82644 1.98453 8.82644C1.43187 8.82644 0.984542 8.36557 0.984542 7.79772ZM15.9844 7.45481C15.4317 7.45481 14.9844 7.91568 14.9844 8.48353C14.9844 10.5629 13.3397 12.2555 11.3178 12.2555H4.31784V11.115C4.31784 10.5039 3.59985 10.1981 3.17985 10.6301L1.17987 12.7994C0.919209 13.0675 0.919209 13.5016 1.17987 13.7691L3.17985 15.9383C3.59985 16.3704 4.31784 16.0645 4.31784 15.4535V14.313H11.3178C14.4424 14.313 16.9844 11.6979 16.9844 8.48353C16.9844 7.91568 16.537 7.45481 15.9844 7.45481Z" fill="currentColor"/>
</svg>
