<svg width="25" height="24" viewBox="0 0 25 24" fill="none" xmlns="http://www.w3.org/2000/svg">
<g clip-path="url(#clip0_142_30365)">
<rect x="0.712891" y="-0.000244141" width="24" height="24" rx="4" fill="url(#paint0_linear_142_30365)"/>
<g clip-path="url(#clip1_142_30365)">
<path fill-rule="evenodd" clip-rule="evenodd" d="M9.71444 15.2592H9.21431C8.80017 15.2592 8.46399 14.923 8.46399 14.5089C8.46399 14.095 8.80017 13.7588 9.21431 13.7588H9.71444V13.2587C9.71444 12.8446 10.0506 12.5084 10.4645 12.5084C10.8786 12.5084 11.2148 12.8446 11.2148 13.2587V13.7588H11.715C12.1291 13.7588 12.465 14.095 12.465 14.5089C12.465 14.923 12.1291 15.2592 11.715 15.2592H11.2148V15.7593C11.2148 16.1732 10.8786 16.5094 10.4645 16.5094C10.0506 16.5094 9.71444 16.1732 9.71444 15.7593V15.2592ZM5.46321 6.0067C5.46321 5.59256 5.7994 5.25637 6.21354 5.25637C6.62742 5.25637 6.9636 5.59256 6.9636 6.0067V6.44674C8.41892 4.94195 10.4588 4.00592 12.7152 4.00592C17.1317 4.00592 20.7175 7.59178 20.7175 12.0082C20.7175 12.4224 20.3814 12.7586 19.9672 12.7586C19.5531 12.7586 19.2169 12.4224 19.2169 12.0082C19.2169 8.4198 16.3037 5.50657 12.7152 5.50657C10.161 5.50657 7.94884 6.98287 6.88564 9.12765C6.73076 9.44 6.38163 9.60447 6.04234 9.52495C5.70305 9.44544 5.46321 9.14293 5.46321 8.79457V6.0067ZM19.9672 18.0098C19.9672 18.4239 19.631 18.7601 19.2169 18.7601C18.803 18.7601 18.4668 18.4239 18.4668 18.0098V17.5698C17.0115 19.0745 14.9716 20.0106 12.7152 20.0106C8.29875 20.0106 4.71289 16.4247 4.71289 12.0082C4.71289 11.5941 5.04907 11.2579 5.46321 11.2579C5.87735 11.2579 6.21354 11.5941 6.21354 12.0082C6.21354 15.5967 9.12677 18.5099 12.7152 18.5099C15.2695 18.5099 17.4816 17.0336 18.5448 14.8888C18.6997 14.5765 19.0488 14.412 19.3881 14.4915C19.7274 14.571 19.9672 14.8736 19.9672 15.2219V18.0098ZM14.6691 7.74692L15.3599 9.61353L17.2267 10.3043C17.5212 10.4133 17.7165 10.6941 17.7165 11.008C17.7165 11.3219 17.5212 11.6026 17.2267 11.7114L15.3599 12.4024L14.6691 14.2691C14.5603 14.5635 14.2796 14.7591 13.9657 14.7591C13.6518 14.7591 13.371 14.5635 13.262 14.2691L12.5712 12.4024L10.7043 11.7114C10.4099 11.6026 10.2146 11.3219 10.2146 11.008C10.2146 10.6941 10.4099 10.4133 10.7043 10.3043L12.5712 9.61353L13.262 7.74692C13.371 7.45243 13.6518 7.25689 13.9657 7.25689C14.2796 7.25689 14.5603 7.45243 14.6691 7.74692ZM13.9657 10.1688L13.8587 10.4579C13.7826 10.6633 13.6207 10.8251 13.4153 10.901L13.1265 11.008L13.4153 11.115C13.6207 11.1908 13.7826 11.3527 13.8587 11.5581L13.9657 11.8471L14.0724 11.5581C14.1485 11.3527 14.3104 11.1908 14.5158 11.115L14.8046 11.008L14.5158 10.901C14.3104 10.8251 14.1485 10.6633 14.0724 10.4579L13.9657 10.1688Z" fill="white"/>
</g>
</g>
<defs>
<linearGradient id="paint0_linear_142_30365" x1="12.7129" y1="-0.000244141" x2="12.7129" y2="23.9998" gradientUnits="userSpaceOnUse">
<stop stop-color="#3FDDFC"/>
<stop offset="1" stop-color="#BF53FD"/>
</linearGradient>
<clipPath id="clip0_142_30365">
<rect x="0.712891" y="-0.000244141" width="24" height="24" rx="4" fill="white"/>
</clipPath>
<clipPath id="clip1_142_30365">
<rect width="16" height="16" fill="white" transform="translate(4.71289 3.99976)"/>
</clipPath>
</defs>
</svg>
