<svg width="16" height="17" viewBox="0 0 16 17" fill="none" xmlns="http://www.w3.org/2000/svg">
<rect x="0.25" y="0.875" width="15.5" height="15.5" rx="3.75" stroke="currentcolor" stroke-width="0.5"/>
<path d="M5.996 11.125H5.156L3.254 8.251V11.125H2.414V6.931H3.254L5.156 9.811V6.931H5.996V11.125ZM7.84611 10.459H9.22611V11.125H7.00611V6.937H7.84611V10.459ZM12.994 8.233C12.994 8.457 12.94 8.667 12.832 8.863C12.728 9.059 12.562 9.217 12.334 9.337C12.11 9.457 11.826 9.517 11.482 9.517H10.78V11.125H9.94002V6.937H11.482C11.806 6.937 12.082 6.993 12.31 7.105C12.538 7.217 12.708 7.371 12.82 7.567C12.936 7.763 12.994 7.985 12.994 8.233ZM11.446 8.839C11.678 8.839 11.85 8.787 11.962 8.683C12.074 8.575 12.13 8.425 12.13 8.233C12.13 7.825 11.902 7.621 11.446 7.621H10.78V8.839H11.446Z" fill="currentcolor"/>
</svg>
