<svg width="16" height="16" viewBox="0 0 16 16" fill="none" xmlns="http://www.w3.org/2000/svg">
<path d="M13.6483 2.35282C12.4042 1.10288 10.7824 0.299891 9.03527 0.0688652C7.28812 -0.16216 5.51372 0.191745 3.98832 1.07548C2.46292 1.95921 1.27213 3.32318 0.601357 4.95502C-0.0694201 6.58686 -0.182542 8.395 0.279602 10.0979C0.741747 11.8008 1.75322 13.3029 3.15655 14.3704C4.55988 15.4378 6.2763 16.0107 8.03858 15.9998C9.80085 15.989 11.5101 15.3949 12.9002 14.3102C14.2902 13.2255 15.2831 11.7111 15.7243 10.0026H13.6483C13.2813 11.0382 12.6372 11.953 11.7862 12.6469C10.9352 13.3408 9.91013 13.7871 8.82296 13.9372C7.73579 14.0872 6.62836 13.9351 5.62165 13.4976C4.61494 13.0601 3.74769 12.3539 3.11465 11.4562C2.48161 10.5586 2.10714 9.50398 2.03214 8.40764C1.95715 7.3113 2.18451 6.21541 2.6894 5.2397C3.19429 4.264 3.95728 3.44601 4.89501 2.87511C5.83273 2.30422 6.90912 2.00238 8.00656 2.00257C8.79185 2.00381 9.569 2.16189 10.2925 2.46754C11.0161 2.77319 11.6715 3.22027 12.2203 3.78264L9.00446 7.00695H16V0.00205947L13.6483 2.35282Z" fill="currentColor"/>
</svg>
