<svg width="16" height="16" viewBox="0 0 16 16" fill="none" xmlns="http://www.w3.org/2000/svg">
<path d="M11.1109 11.8255H14.2563V12.8255H11.1109V11.8255ZM16 12.3255C16 14.154 14.5121 15.6415 12.6832 15.6415C10.8548 15.6415 9.36725 14.154 9.36725 12.3255C9.36725 11.5373 9.64364 10.8127 10.1043 10.243C9.10949 9.43355 7.8797 8.99252 6.59158 8.99252C3.50838 8.99252 1 11.501 1 14.5843V15.0843H0V14.5843C0 12.8305 0.687531 11.177 1.93596 9.92856C2.6152 9.24929 3.41449 8.73652 4.28443 8.40973C2.99944 7.66086 2.13387 6.26788 2.13387 4.67637C2.13387 2.29547 4.0708 0.358459 6.45163 0.358459C8.83246 0.358459 10.7694 2.29547 10.7694 4.67637C10.7694 6.22462 9.95017 7.58493 8.72261 8.34719C9.49487 8.61239 10.2156 9.02228 10.8502 9.5628C11.3756 9.21284 12.006 9.00856 12.6832 9.00856C14.5121 9.00856 16 10.4965 16 12.3255ZM6.4494 7.99427C6.47883 7.99364 6.50832 7.99342 6.53781 7.99318C8.32757 7.94731 9.76939 6.47706 9.76939 4.67637C9.76939 2.84688 8.28105 1.35846 6.45162 1.35846C4.6222 1.35846 3.13387 2.84688 3.13387 4.67637C3.13387 6.50513 4.621 7.99305 6.4494 7.99427ZM15 12.3255C15 11.0479 13.9607 10.0086 12.6832 10.0086C11.4062 10.0086 10.3672 11.0479 10.3672 12.3255C10.3672 13.6026 11.4062 14.6415 12.6832 14.6415C13.9607 14.6415 15 13.6026 15 12.3255Z" fill="currentColor"/>
</svg>
