<svg width="17" height="16" viewBox="0 0 17 16" fill="none" xmlns="http://www.w3.org/2000/svg">
    <g clip-path="url(#clip0_1017_453)">
        <path
            d="M11.419 6.47133L9.8903 8L11.419 9.52867C11.6796 9.78933 11.6796 10.2107 11.419 10.4713C11.289 10.6013 11.1183 10.6667 10.9476 10.6667C10.777 10.6667 10.6063 10.6013 10.4763 10.4713L8.94763 8.94267L7.41897 10.4713C7.28897 10.6013 7.1183 10.6667 6.94763 10.6667C6.77697 10.6667 6.6063 10.6013 6.4763 10.4713C6.21563 10.2107 6.21563 9.78933 6.4763 9.52867L8.00497 8L6.4763 6.47133C6.21563 6.21067 6.21563 5.78933 6.4763 5.52867C6.73697 5.268 7.1583 5.268 7.41897 5.52867L8.94763 7.05733L10.4763 5.52867C10.737 5.268 11.1583 5.268 11.419 5.52867C11.6796 5.78933 11.6796 6.21067 11.419 6.47133ZM16.9476 8C16.9476 12.4113 13.359 16 8.94763 16C4.5363 16 0.947632 12.4113 0.947632 8C0.947632 3.58867 4.5363 0 8.94763 0C13.359 0 16.9476 3.58867 16.9476 8ZM15.6143 8C15.6143 4.324 12.6236 1.33333 8.94763 1.33333C5.27163 1.33333 2.28097 4.324 2.28097 8C2.28097 11.676 5.27163 14.6667 8.94763 14.6667C12.6236 14.6667 15.6143 11.676 15.6143 8Z"
            fill="currentColor" />
    </g>
    <defs>
        <clipPath id="clip0_1017_453">
            <rect width="16" height="16" fill="currentColor" transform="translate(0.947632)" />
        </clipPath>
    </defs>
</svg>