<svg width="16" height="16" viewBox="0 0 16 16" fill="none" xmlns="http://www.w3.org/2000/svg">
<path d="M10.2278 16C10.027 16 9.84105 15.8884 9.74435 15.7172C9.64765 15.5386 9.64765 15.3302 9.75179 15.1516L10.5328 13.8492C10.689 13.5812 11.0386 13.4994 11.299 13.6557C11.5667 13.8119 11.6486 14.1543 11.4924 14.4222L11.2915 14.7571C13.3445 14.2734 14.8842 12.4277 14.8842 10.2247C14.8842 9.91955 15.1371 9.6665 15.4421 9.6665C15.7471 9.6665 16 9.91955 16 10.2247C15.9925 13.4101 13.404 16 10.2278 16Z" fill="currentColor"/>
<path d="M0.557875 6.32608C0.252903 6.32608 0 6.07304 0 5.7679C0 2.58997 2.58854 0 5.76471 0C5.96554 0 6.1515 0.111637 6.2482 0.282813C6.3449 0.461432 6.3449 0.669821 6.24076 0.848439L5.45973 2.15087C5.30353 2.41135 4.96137 2.50066 4.69359 2.33693C4.43325 2.18064 4.34399 1.83829 4.50763 1.57036L4.70846 1.23545C2.64805 1.71921 1.11575 3.56493 1.11575 5.7679C1.11575 6.07304 0.862846 6.32608 0.557875 6.32608Z" fill="currentColor"/>
<path d="M10.079 8.46888V10.657C10.079 12.4804 9.35004 13.2097 7.52765 13.2097H5.34078C3.51839 13.2097 2.78943 12.4804 2.78943 10.657V8.46888C2.78943 6.64548 3.51839 5.91614 5.34078 5.91614H7.52765C9.35004 5.91614 10.079 6.64548 10.079 8.46888Z" fill="currentColor"/>
<path d="M10.6524 2.79102H8.46551C6.67287 2.79102 5.94395 3.50549 5.92163 5.26191H7.52828C9.71515 5.26191 10.7268 6.28152 10.7268 8.46216V10.0697C12.4896 10.0474 13.1963 9.31804 13.1963 7.52441V5.34378C13.2037 3.52038 12.4748 2.79102 10.6524 2.79102Z" fill="currentColor"/>
</svg>
