<svg width="17" height="16" viewBox="0 0 17 16" fill="none" xmlns="http://www.w3.org/2000/svg">
    <g clip-path="url(#clip0_1017_456)">
        <path
            d="M5.6143 1.90409e-06H3.6143C2.14097 1.90409e-06 0.947632 1.19334 0.947632 2.66667V4.66667C0.947632 6.14 2.14097 7.33334 3.6143 7.33334H5.6143C7.08763 7.33334 8.28097 6.14 8.28097 4.66667V2.66667C8.28097 1.19334 7.08763 1.90409e-06 5.6143 1.90409e-06ZM14.281 8.66667H12.281C10.8076 8.66667 9.6143 9.86 9.6143 11.3333V13.3333C9.6143 14.8067 10.8076 16 12.281 16H14.281C15.7543 16 16.9476 14.8067 16.9476 13.3333V11.3333C16.9476 9.86 15.7543 8.66667 14.281 8.66667ZM9.6143 3.33334C9.6143 2.62667 9.90763 1.96667 10.4476 1.48L11.8276 0.180002C12.0943 -0.0733314 12.5143 -0.0599981 12.7676 0.206669C13.021 0.473335 13.0076 0.900002 12.741 1.14667L11.3543 2.44667C11.281 2.51334 11.221 2.58667 11.1676 2.66H13.6143C15.0876 2.66 16.281 3.85334 16.281 5.32667V6.66C16.281 7.02667 15.981 7.32667 15.6143 7.32667C15.2476 7.32667 14.9476 7.02667 14.9476 6.66V5.32667C14.9476 4.59334 14.3476 3.99334 13.6143 3.99334H11.1676C11.221 4.06667 11.281 4.13334 11.3476 4.2L12.741 5.50667C13.0076 5.76 13.021 6.18 12.7676 6.44667C12.6343 6.58667 12.461 6.65334 12.281 6.65334C12.1143 6.65334 11.9543 6.59334 11.821 6.47334L10.4343 5.17334C9.90763 4.68667 9.60763 4.02667 9.60763 3.32667L9.6143 3.33334ZM8.28097 12.6667C8.28097 13.3733 7.98763 14.0267 7.44763 14.52L6.06763 15.82C5.94097 15.94 5.7743 16 5.60763 16C5.42763 16 5.2543 15.9267 5.12097 15.7933C4.86763 15.5267 4.88097 15.1 5.14763 14.8533L6.5343 13.5533C6.60763 13.4867 6.66763 13.4133 6.72097 13.34H4.2743C2.80097 13.34 1.60763 12.1467 1.60763 10.6733V9.34C1.60763 8.97334 1.90763 8.67334 2.2743 8.67334C2.64097 8.67334 2.94097 8.97334 2.94097 9.34V10.6733C2.94097 11.4067 3.54097 12.0067 4.2743 12.0067H6.72097C6.66763 11.9333 6.60763 11.8667 6.54097 11.8L5.14763 10.4933C4.88097 10.24 4.86763 9.82 5.12097 9.55334C5.3743 9.28667 5.7943 9.27334 6.06097 9.52667L7.44763 10.8267C7.9743 11.3133 8.2743 11.9733 8.2743 12.6733L8.28097 12.6667Z"
            fill="currentColor" />
    </g>
    <defs>
        <clipPath id="clip0_1017_456">
            <rect width="16" height="16" fill="currentColor" transform="translate(0.947632)" />
        </clipPath>
    </defs>
</svg>