<svg width="18" height="18" viewBox="0 0 18 18" fill="none" xmlns="http://www.w3.org/2000/svg">
<path d="M6.62939 11.963H3.07383C1.92716 11.963 0.999756 11.0356 0.999756 9.88889C0.999756 8.74222 1.92716 7.81481 3.07383 7.81481C3.12124 7.81481 3.16864 7.81778 3.21309 7.82341C3.12124 7.54222 3.07383 7.2403 3.07383 6.92592C3.07383 5.29037 4.40124 3.96296 6.03679 3.96296C6.59087 3.96296 7.10939 4.11407 7.55087 4.38074C7.77902 2.63822 9.26939 1.2963 11.0738 1.2963C13.0383 1.2963 14.6294 2.88741 14.6294 4.85185C14.6294 5.09215 14.6057 5.32592 14.5612 5.55081C15.9627 5.91259 16.9998 7.18667 16.9998 8.7037C16.9998 10.5052 15.539 11.963 13.7405 11.963H12.8516" stroke="currentColor" stroke-miterlimit="10" stroke-linejoin="round"/>
<path d="M7.51829 10.1852V6.03706C6.37281 6.03706 5.44421 6.96565 5.44421 8.11113V10.1852" stroke="currentColor" stroke-miterlimit="10" stroke-linecap="round" stroke-linejoin="round"/>
<path d="M5.44421 8.40732H7.51829" stroke="currentColor" stroke-miterlimit="10" stroke-linejoin="round"/>
<path d="M10.7776 7.22224C10.7776 7.87676 10.2469 8.40743 9.59238 8.40743H8.70349V6.03706H9.59238C10.2469 6.03706 10.7776 6.56772 10.7776 7.22224Z" stroke="currentColor" stroke-miterlimit="10" stroke-linejoin="round"/>
<path d="M8.70337 8.40736V10.1851" stroke="currentColor" stroke-miterlimit="10" stroke-linecap="round" stroke-linejoin="round"/>
<path d="M11.6664 6.03709H12.8516" stroke="currentColor" stroke-miterlimit="10" stroke-linecap="round" stroke-linejoin="round"/>
<path d="M11.6664 10.1852H12.8516" stroke="currentColor" stroke-miterlimit="10" stroke-linecap="round" stroke-linejoin="round"/>
<path d="M12.2589 6.03709V10.1852" stroke="currentColor" stroke-miterlimit="10" stroke-linecap="round" stroke-linejoin="round"/>
<path d="M6.92566 13.4445L8.40714 11.963L9.88862 13.4445" stroke="currentColor" stroke-miterlimit="10" stroke-linecap="round" stroke-linejoin="round"/>
<path d="M8.4071 11.963V16.7037" stroke="currentColor" stroke-miterlimit="10" stroke-linecap="round" stroke-linejoin="round"/>
<path d="M12.8515 15.2222L11.37 16.7036L9.88855 15.2222" stroke="currentColor" stroke-miterlimit="10" stroke-linecap="round" stroke-linejoin="round"/>
<path d="M11.3701 16.7037V11.963" stroke="currentColor" stroke-miterlimit="10" stroke-linecap="round" stroke-linejoin="round"/>
</svg>
