<svg width="16" height="16" viewBox="0 0 16 16" fill="none" xmlns="http://www.w3.org/2000/svg">
<path fill-rule="evenodd" clip-rule="evenodd" d="M5.58135 0.55814C5.58135 0.249888 5.33146 0 5.02321 0C4.71496 0 4.46507 0.249888 4.46507 0.55814V1.13879C3.32207 1.23392 2.41573 1.63002 1.777 2.31789C1.04452 3.10671 0.744141 4.19351 0.744141 5.39535V11.7209C0.744141 12.9228 1.04452 14.0096 1.777 14.7984C2.51643 15.5947 3.6145 16 5.02321 16H9.01949C9.32774 16 9.57763 15.7501 9.57763 15.4419C9.57763 15.1336 9.32774 14.8837 9.01949 14.8837H5.02321C3.82727 14.8837 3.06487 14.5448 2.595 14.0388C2.11818 13.5253 1.86042 12.7516 1.86042 11.7209V6.39253H14.1395V9.48837C14.1395 9.79662 14.3894 10.0465 14.6976 10.0465C15.0059 10.0465 15.2558 9.79662 15.2558 9.48837V5.39535C15.2558 4.19351 14.9554 3.10671 14.2229 2.31789C13.5842 1.63002 12.6778 1.23392 11.5348 1.13879V0.55814C11.5348 0.249888 11.285 0 10.9767 0C10.6684 0 10.4186 0.249888 10.4186 0.55814V1.11628H5.58135V0.55814ZM4.46507 2.25956V2.7907C4.46507 3.09895 4.71496 3.34884 5.02321 3.34884C5.33146 3.34884 5.58135 3.09895 5.58135 2.7907V2.23256H10.4186V2.7907C10.4186 3.09895 10.6684 3.34884 10.9767 3.34884C11.285 3.34884 11.5348 3.09895 11.5348 2.7907V2.25956C12.4167 2.34916 13.0127 2.65509 13.4049 3.07746C13.8632 3.57099 14.1191 4.30484 14.1383 5.27625H1.86159C1.8808 4.30484 2.13673 3.57099 2.595 3.07746C2.98721 2.65509 3.58322 2.34916 4.46507 2.25956ZM7.25241 9.26508C7.25241 8.85408 7.58559 8.52089 7.99659 8.52089H8.00328C8.41428 8.52089 8.74746 8.85408 8.74746 9.26508C8.74746 9.67608 8.41428 10.0093 8.00328 10.0093H7.99659C7.58559 10.0093 7.25241 9.67608 7.25241 9.26508ZM5.24223 8.52089C4.83123 8.52089 4.49805 8.85408 4.49805 9.26508C4.49805 9.67608 4.83123 10.0093 5.24223 10.0093H5.24892C5.65992 10.0093 5.9931 9.67608 5.9931 9.26508C5.9931 8.85408 5.65992 8.52089 5.24892 8.52089H5.24223ZM4.49805 11.4976C4.49805 11.0866 4.83123 10.7535 5.24223 10.7535H5.24892C5.65992 10.7535 5.9931 11.0866 5.9931 11.4976C5.9931 11.9086 5.65992 12.2418 5.24892 12.2418H5.24223C4.83123 12.2418 4.49805 11.9086 4.49805 11.4976ZM10.5322 12.5071C10.4676 12.4425 10.3839 12.4087 10.2992 12.4057C10.6379 11.4127 11.6528 10.7796 12.723 10.9535C13.917 11.1475 14.7277 12.2726 14.5337 13.4667C14.3615 14.527 13.4456 15.3059 12.3715 15.3057L12.3684 15.3058C11.6941 15.318 11.0562 14.9999 10.6601 14.454C10.5489 14.2986 10.3326 14.2621 10.1766 14.3732C10.0207 14.4843 9.98392 14.7009 10.0952 14.8571L10.0958 14.858C10.6228 15.5877 11.473 16.0139 12.3728 15.9996C13.9651 15.9989 15.2556 14.7079 15.2556 13.1154C15.2556 11.5225 13.9644 10.2312 12.3714 10.2312C11.0669 10.2312 9.93902 11.1039 9.59427 12.3366C9.49258 12.2983 9.3745 12.3082 9.2775 12.3737C9.11879 12.4808 9.07697 12.6966 9.18394 12.8556L9.54564 13.3982C9.60269 13.4846 9.69546 13.5411 9.7986 13.552L9.8073 13.553L9.8348 13.553C9.92657 13.5526 10.0148 13.5157 10.0796 13.4505L10.5322 12.9979C10.6677 12.8624 10.6677 12.6426 10.5322 12.5071ZM11.9338 13.206C11.9338 13.3099 11.977 13.4141 12.0599 13.4809L13.0052 14.1595C13.1584 14.273 13.3747 14.2417 13.4892 14.0889C13.6042 13.9356 13.5732 13.7181 13.4199 13.6032L12.6277 13.0307V12.0886C12.6277 11.8969 12.4724 11.7416 12.2808 11.7416C12.0891 11.7416 11.9338 11.8969 11.9338 12.0886V13.206Z" fill="#71347B"/>
</svg>
