<svg width="241" height="184" viewBox="0 0 241 184" fill="none" xmlns="http://www.w3.org/2000/svg">
<path d="M17.4029 174.064C17.4029 174.064 -4.83513 158.438 5.38918 138.799C15.6156 119.16 36.0664 89.0081 25.8321 73.6334C15.6156 58.2637 14.5738 9.02069 73.3714 1.47198C120.268 -4.54477 134.521 20.2232 141.79 37.1269C151.377 59.4251 142.809 100.132 187.647 105.502C232.497 110.871 258.114 133.046 225.99 169.189C211.95 184.984 17.4029 174.064 17.4029 174.064Z" fill="#C9D6F2"/>
<path d="M97.6992 161.774C64.6053 169.007 37.6519 158.964 46.8499 141.876C56.0423 124.789 50.4089 122.634 43.3178 117.259C36.2267 111.886 20.2947 96.9188 35.8151 80.4797C51.3546 64.0498 39.5509 59.2828 34.6997 49.6137C20.5289 21.407 78.001 9.8262 62.4495 35.7859C50.7753 55.2691 51.3906 70.1889 65.8982 80.102C80.4177 90.0173 83.314 95.2461 82.6725 107.5C82.0289 119.753 77.0172 145.797 91.8119 144.713C106.595 143.628 114.672 158.062 97.6992 161.774Z" fill="#EBF2FF"/>
<path d="M37.584 45.7683C36.0471 42.8487 35.6864 28.5321 49.5765 29.2741C58.0298 29.7267 53.6404 41.2715 51.723 50.1548C49.8113 59.0388 51.1176 72.9862 54.6504 78.7307C61.1764 89.3256 59.7817 93.7842 51.7018 102.874C51.7018 102.874 47.5063 109.625 55.2459 116.87C62.9835 124.113 59.9938 144.064 68.9833 147.297C77.9727 150.528 83.0509 157.421 76.8906 158.062C70.7444 158.708 45.2494 161.185 51.96 144.399C61.7415 119.961 42.6721 112.716 37.9213 107.294C33.5653 102.323 29.8394 91.2161 42.4733 77.2871C52.2478 66.5055 42.2965 54.762 37.584 45.7683Z" fill="#CBDBF4"/>
<path d="M71.9711 172.934L71.464 175.174C70.983 175.052 59.4574 172.153 47.0363 164.184C30.5017 153.568 20.4521 138.995 17.9922 122.01L20.1338 121.642C25.8514 161.085 71.51 172.817 71.9711 172.934Z" fill="#7585F8"/>
<path d="M19.548 124.277C19.548 124.277 7.53851 117.906 12.5142 103.231C12.5142 103.231 23.1713 111.889 19.548 124.277Z" fill="#7585F8"/>
<path d="M23.3954 136.274C23.3954 136.274 7.02278 141.745 0.365234 123.262C0.365234 123.262 9.09791 120.055 23.3954 136.274Z" fill="#7585F8"/>
<path d="M22.8359 136.348C22.8359 136.348 38.038 127.869 30.461 109.802C30.461 109.802 22.1612 114.103 22.8359 136.348Z" fill="#7585F8"/>
<path d="M31.9157 150.03C31.9157 150.03 16.1322 157.248 7.71289 139.605C7.71289 139.605 16.0891 135.463 31.9157 150.03Z" fill="#7585F8"/>
<path d="M31.3598 150.157C31.3598 150.157 45.6686 140.082 36.3616 122.939C36.3616 122.939 28.5144 128.125 31.3598 150.157Z" fill="#7585F8"/>
<path d="M45.5045 161.982C45.5045 161.982 31.0974 171.931 19.9395 156.1C19.9395 156.1 27.5263 150.5 45.5045 161.982Z" fill="#7585F8"/>
<path d="M44.9707 162.207C44.9707 162.207 57.4491 149.698 45.5019 134.515C45.5019 134.515 38.6017 141.039 44.9707 162.207Z" fill="#7585F8"/>
<path d="M59.4705 169.481C59.4705 169.481 48.007 183.036 33.293 170.852C33.293 170.852 39.2595 163.373 59.4705 169.481Z" fill="#7585F8"/>
<path d="M59.0262 169.844C59.0262 169.844 68.0248 154.362 52.7152 143.028C52.7152 143.028 47.6512 151.206 59.0262 169.844Z" fill="#7585F8"/>
<path d="M157.283 172.984C188.974 181.634 215.568 173.243 207.512 156.236C199.454 139.235 205.016 137.43 212.153 132.574C219.292 127.721 235.453 114.019 221.238 97.3334C207.012 80.6453 218.674 76.6174 223.851 67.4943C238.964 40.879 183.888 26.8135 197.661 52.7279C208.003 72.1757 206.67 86.5878 192.119 95.469C177.575 104.355 174.516 109.276 174.526 121.173C174.538 133.072 178.104 158.538 163.831 156.758C149.564 154.972 141.03 168.547 157.283 172.984Z" fill="#7585F8"/>
<path opacity="0.2" d="M221.242 63.6269C222.879 60.8721 223.936 47.0294 210.448 47.0563C202.244 47.0754 205.925 58.4744 207.337 67.1739C208.746 75.8705 206.793 89.3115 203.086 94.7009C196.241 104.635 197.373 109.022 204.747 118.224C204.747 118.224 208.468 124.976 200.611 131.605C192.764 138.236 194.672 157.706 185.809 160.391C176.94 163.071 171.679 169.497 177.609 170.423C183.538 171.352 208.109 175.019 202.43 158.429C194.173 134.278 212.995 128.207 217.869 123.19C222.334 118.593 226.489 108.022 214.949 93.9066C206.018 82.9814 216.243 72.1014 221.242 63.6269Z" fill="#F6F5F7"/>
<path d="M152.67 172.426L152.189 169.49C198.829 161.868 219.004 125.344 219.208 124.966L221.829 126.382C221.622 126.754 200.801 164.564 152.67 172.426Z" fill="#EBF2FF"/>
<path d="M219.014 127.464C219.014 127.464 225.105 111.714 233.048 116.743C236.425 118.875 234.601 126.519 219.014 127.464Z" fill="#EBF2FF"/>
<path d="M215.479 132.615C215.479 132.615 231.003 123.642 232.623 132.71C233.306 136.581 226.501 141.647 215.479 132.615Z" fill="#EBF2FF"/>
<path d="M215.509 134.287C215.509 134.287 225.013 119.789 215.229 118.392C211.06 117.786 205.659 124.147 215.509 134.287Z" fill="#EBF2FF"/>
<path d="M205.169 144.796C205.169 144.796 215.401 130.652 205.734 128.809C201.618 128.02 195.927 134.149 205.169 144.796Z" fill="#EBF2FF"/>
<path d="M196.103 152.804C196.103 152.804 206.26 138.645 196.591 136.822C192.47 136.035 186.798 142.19 196.103 152.804Z" fill="#EBF2FF"/>
<path d="M183.436 160.685C183.436 160.685 195.974 148.178 187.006 144.741C183.18 143.279 176.527 148.501 183.436 160.685Z" fill="#EBF2FF"/>
<path d="M172.461 165.685C172.461 165.685 184.643 152.874 175.527 149.697C171.662 148.357 165.14 153.735 172.461 165.685Z" fill="#EBF2FF"/>
<path d="M157.437 169.995C157.437 169.995 172.617 160.432 165.097 154.936C161.888 152.591 154.208 156.246 157.437 169.995Z" fill="#EBF2FF"/>
<path d="M207.891 142.102C207.891 142.102 223.442 133.124 225.045 142.207C225.729 146.067 218.94 151.122 207.891 142.102Z" fill="#EBF2FF"/>
<path d="M198.613 150.469C198.613 150.469 214.163 141.51 215.765 150.583C216.458 154.441 209.653 159.503 198.613 150.469Z" fill="#EBF2FF"/>
<path d="M188.424 157.277C188.424 157.277 205.38 151.627 204.662 161.027C204.373 165.029 196.659 168.645 188.424 157.277Z" fill="#EBF2FF"/>
<path d="M176.383 163.658C176.383 163.658 193.7 159.63 191.924 169.016C191.166 173.011 183.197 175.894 176.383 163.658Z" fill="#EBF2FF"/>
<path d="M163.617 168.133C163.617 168.133 181.095 166.4 177.905 175.619C176.524 179.534 168.318 181.363 163.617 168.133Z" fill="#EBF2FF"/>
<path d="M225.21 176.741C225.21 180.446 177.484 183.45 118.605 183.45C59.7302 183.45 12 180.446 12 176.741C12 173.037 59.7309 170.035 118.605 170.035C177.484 170.036 225.21 173.037 225.21 176.741Z" fill="#ACBFE2"/>
<path d="M199.24 101.232C199.24 142.492 165.792 175.937 124.533 175.937C83.2704 175.937 49.8242 142.492 49.8242 101.232C49.8242 59.9696 83.2704 26.5213 124.533 26.5213C165.792 26.5213 199.24 59.9696 199.24 101.232Z" fill="#D086E5"/>
<path d="M131.197 128.999C133.365 132.531 131.178 137.825 126.3 140.819C121.43 143.811 115.715 143.372 113.547 139.838L88.6042 99.2147C86.4336 95.6798 88.6212 90.3908 93.5006 87.3969C98.3709 84.403 104.086 84.8437 106.254 88.3758L131.197 128.999Z" fill="#F6F5F7"/>
<path d="M130.288 137.866C127.296 142.736 120.918 144.265 116.048 141.273C111.168 138.282 109.646 131.904 112.638 127.026L147.012 71.0045C150.003 66.1293 156.381 64.6023 161.258 67.594C166.131 70.5858 167.661 76.9611 164.669 81.8363L130.288 137.866Z" fill="#F6F5F7"/>
<path d="M69.7022 90.8759C70.7384 90.3971 74.1418 90.1318 75.9177 92.8195C78.3133 96.4166 79.1387 105.178 84.4807 107.818C89.8397 110.45 93.178 108.203 95.6096 106.98C98.0383 105.77 98.4408 104.135 99.9459 103.585C101.435 103.037 102.016 104.844 98.5836 107.73C96.9272 109.109 89.6423 116.908 82.6927 114.96C73.5717 112.39 63.573 93.6738 69.7022 90.8759Z" fill="#E28C71"/>
<path d="M77.6377 147.427C76.1419 156.562 74.9353 175.937 78.9448 175.785C82.9656 175.629 85.1143 174.152 82.757 173.588C80.3855 173.021 80.302 172.753 80.3254 172.028C80.5093 167.457 84.04 158.757 85.3725 152.099C86.9235 144.373 78.9589 139.441 77.6377 147.427Z" fill="#F27851"/>
<path d="M77.1172 173.948C77.1172 173.948 80.7144 175.251 82.7556 173.587C82.7556 173.587 86.7311 173.92 84.3186 175.131C81.9203 176.347 77.1985 177.522 77.1172 173.948Z" fill="#6E86CC"/>
<path d="M62.9202 109.864C62.9202 109.864 83.6001 124.384 86.5777 131.808C89.2483 138.487 83.0477 165.39 83.0477 165.39C83.0477 165.39 78.6895 167.128 74.6878 164.674L75.2119 143.752L57.7578 127.789L62.9202 109.864Z" fill="#C92F3B"/>
<path d="M49.5789 148.561C41.9397 154.868 27.3239 169.626 30.6721 172.329C34.0175 175.021 36.7964 175.349 35.2835 173.246C33.7806 171.116 33.893 170.826 34.4292 170.271C37.7986 166.722 46.7519 162.189 52.5028 157.771C59.1971 152.648 56.2534 143.056 49.5789 148.561Z" fill="#F27851"/>
<path d="M30.4847 169.566C30.4847 169.566 32.4714 173.142 35.2828 173.245C35.2828 173.245 38.2455 176.299 35.4603 175.58C32.6744 174.863 28.0531 172.499 30.4847 169.566Z" fill="#6E86CC"/>
<path d="M59.8557 109.762C59.8557 109.762 70.5871 134.206 67.7559 142.276C65.2168 149.542 41.2962 166.845 41.2962 166.845C41.2962 166.845 36.5575 165.175 35.0566 160.381L50.2036 143.896C50.2036 143.896 44.1486 124.841 47.1213 117.776C47.2267 117.539 46.7075 119.458 46.7075 119.458L59.8557 109.762Z" fill="#E03D51"/>
<path d="M72.7633 120.579C76.7269 115.35 78.9668 107.244 79.1224 100.952C79.3403 92.2262 71.6289 89.9742 66.7303 89.5117C61.8289 89.0399 53.8184 88.0901 54.1466 98.9651C54.3644 106.554 51.6096 110.518 47.7613 116.934C47.6581 117.104 47.5534 117.242 47.4501 117.403C47.4331 117.4 47.4261 117.381 47.4261 117.381C47.431 117.393 47.4331 117.4 47.4501 117.403C42.0239 124.066 68.2616 126.51 72.7633 120.579Z" fill="#FCDCDA"/>
<path d="M47.7607 116.934C47.6575 117.104 47.5528 117.242 47.4495 117.403C47.4325 117.4 47.4255 117.381 47.4255 117.381C47.4304 117.393 47.4325 117.4 47.4495 117.403C43.249 122.555 57.9893 125.174 66.9638 123.369C68.3564 121.284 61.6126 120.729 59.116 118.704C53.3602 114.038 73.8852 113.64 70.3495 111.924C66.5324 110.086 60.8509 110.819 63.3518 105.231C65.8435 99.6327 63.6991 92.9461 61.3318 90.6821C58.8642 88.3156 54.7337 91.0895 54.2839 96.2392C54.1714 97.0603 54.1042 97.9508 54.1453 98.965C54.3638 106.555 51.609 110.518 47.7607 116.934Z" fill="#EFBEBD"/>
<path d="M67.4269 83.1151C67.4269 83.1151 68.5083 87.2526 65.455 88.7796C62.3246 90.3349 71.9286 97.9861 72.0793 95.7172C72.2759 92.7905 71.1195 90.8187 73.1366 87.7908L67.4269 83.1151Z" fill="#E67052"/>
<path d="M74.8126 77.0411C76.8297 79.791 77.5696 90.3838 74.5969 92.1378C73.2948 92.8889 68.9083 90.946 66.8311 85.9612C65.9668 83.92 65.1343 80.2245 67.6161 77.1323C68.7414 75.7249 72.468 73.8336 74.8126 77.0411Z" fill="#EE9D7F"/>
<path d="M66.0799 76.9859C63.4594 80.2789 64.6059 83.4595 64.7919 84.0437C65.4745 86.1783 67.2094 88.1671 67.7384 87.5497C68.3679 86.8127 65.9844 86.0418 67.0778 83.9284C68.1762 81.8102 66.7787 81.064 67.5065 79.1706C68.2144 77.2843 69.6099 77.9308 74.0254 78.0694C75.8346 78.1267 76.2893 77.5114 76.225 76.7603C73.9851 73.5493 68.8368 73.5203 66.0799 76.9859Z" fill="#062440"/>
<path d="M76.5855 79.334C77.662 76.7779 81.4989 77.3904 80.2761 75.5834C79.4578 74.3725 79.4479 75.2842 70.3085 73.4198C66.0415 72.5513 65.2013 74.3725 64.3872 76.7772C63.6333 78.9981 63.8681 84.4547 66.7905 87.6692C69.7031 90.876 66.6993 85.5318 67.8168 83.1151C68.9343 80.7005 69.672 81.7225 71.2796 82.1221C72.8879 82.5167 74.8499 83.4503 76.5855 79.334Z" fill="#353A66"/>
<path d="M46.4688 124.173L54.2112 135.273L116.524 91.7691L124.53 77.9236L108.77 80.6714L46.4688 124.173Z" fill="#494C7F"/>
<path d="M113.078 86.8229L50.7617 130.323L54.2138 135.268L116.53 91.7682L113.078 86.8229Z" fill="#373C66"/>
<path d="M124.528 77.9235L122.363 81.6742L120.273 78.6704L124.528 77.9235Z" fill="#1F1440"/>
<path d="M59.5348 90.0145C60.6955 90.1079 62.7183 91.8598 62.9785 95.1147C63.3449 99.4707 60.8772 107.306 64.3167 112.26C67.7703 117.224 71.8314 116.87 74.5742 116.985C77.334 117.104 78.4876 115.857 80.074 116.097C81.6682 116.339 81.2947 118.232 76.8361 119.103C74.7037 119.518 64.4221 122.846 59.2243 117.701C52.4126 110.96 52.7429 89.4763 59.5348 90.0145Z" fill="#E28C71"/>
</svg>
