<svg width="24" height="25" viewBox="0 0 24 25" fill="none" xmlns="http://www.w3.org/2000/svg">
<g clip-path="url(#clip0_264_41208)">
<path d="M21.2 1.30292H2.8C2.05765 1.30376 1.34595 1.59904 0.821036 2.12395C0.296118 2.64887 0.000846945 3.36057 0 4.10292L0 16.5029C0.000846945 17.2453 0.296118 17.957 0.821036 18.4819C1.34595 19.0068 2.05765 19.3021 2.8 19.3029H9.6164C9.63127 19.6895 9.55135 20.0738 9.38361 20.4225C9.21586 20.7711 8.96537 21.0733 8.654 21.3029H7.6C7.28174 21.3029 6.97652 21.4293 6.75147 21.6544C6.52643 21.8794 6.4 22.1847 6.4 22.5029C6.4 22.8212 6.52643 23.1264 6.75147 23.3514C6.97652 23.5765 7.28174 23.7029 7.6 23.7029H16.4C16.7183 23.7029 17.0235 23.5765 17.2485 23.3514C17.4736 23.1264 17.6 22.8212 17.6 22.5029C17.6 22.1847 17.4736 21.8794 17.2485 21.6544C17.0235 21.4293 16.7183 21.3029 16.4 21.3029H15.346C15.0346 21.0733 14.7841 20.7711 14.6164 20.4225C14.4486 20.0738 14.3687 19.6895 14.3836 19.3029H21.2C21.9423 19.3021 22.654 19.0068 23.179 18.4819C23.7039 17.957 23.9992 17.2453 24 16.5029V4.10292C23.9992 3.36057 23.7039 2.64887 23.179 2.12395C22.654 1.59904 21.9423 1.30376 21.2 1.30292ZM18.8 18.5029H16.4V9.70292C16.4 9.38466 16.2736 9.07943 16.0485 8.85439C15.8235 8.62935 15.5183 8.50292 15.2 8.50292H0.8V6.10292H18.4C18.5061 6.10292 18.6078 6.14506 18.6828 6.22008C18.7579 6.29509 18.8 6.39683 18.8 6.50292V18.5029ZM12 11.7029H0.8V9.30292H15.2C15.3061 9.30292 15.4078 9.34506 15.4828 9.42008C15.5579 9.49509 15.6 9.59683 15.6 9.70292V18.5029H13.2V12.9029C13.2 12.5847 13.0736 12.2794 12.8485 12.0544C12.6235 11.8293 12.3183 11.7029 12 11.7029ZM0.8 16.5029V12.5029H12C12.1061 12.5029 12.2078 12.5451 12.2828 12.6201C12.3579 12.6951 12.4 12.7968 12.4 12.9029V18.5029H2.8C2.26976 18.5023 1.76142 18.2914 1.38649 17.9164C1.01155 17.5415 0.800635 17.0332 0.8 16.5029ZM16.8 22.5029C16.8 22.609 16.7579 22.7107 16.6828 22.7858C16.6078 22.8608 16.5061 22.9029 16.4 22.9029H7.6C7.49391 22.9029 7.39217 22.8608 7.31716 22.7858C7.24214 22.7107 7.2 22.609 7.2 22.5029C7.2 22.3968 7.24214 22.2951 7.31716 22.2201C7.39217 22.1451 7.49391 22.1029 7.6 22.1029H16.4C16.5061 22.1029 16.6078 22.1451 16.6828 22.2201C16.7579 22.2951 16.8 22.3968 16.8 22.5029ZM14.2072 21.3029H9.7928C10.2131 20.7221 10.4317 20.0197 10.4152 19.3029H13.5848C13.5683 20.0197 13.7869 20.7221 14.2072 21.3029ZM23.2 16.5029C23.1994 17.0332 22.9884 17.5415 22.6135 17.9164C22.2386 18.2914 21.7302 18.5023 21.2 18.5029H19.6V6.50292C19.6 6.18466 19.4736 5.87943 19.2485 5.65439C19.0235 5.42935 18.7183 5.30292 18.4 5.30292H0.8V4.10292C0.800635 3.57268 1.01155 3.06434 1.38649 2.68941C1.76142 2.31447 2.26976 2.10355 2.8 2.10292H21.2C21.7302 2.10355 22.2386 2.31447 22.6135 2.68941C22.9884 3.06434 23.1994 3.57268 23.2 4.10292V16.5029Z" fill="currentColor"/>
</g>
<defs>
<clipPath id="clip0_264_41208">
<rect width="24" height="24" fill="white" transform="translate(0 0.50293)"/>
</clipPath>
</defs>
</svg>
