<svg width="16" height="16" viewBox="0 0 16 16" fill="none" xmlns="http://www.w3.org/2000/svg">
<path d="M4.8311 10.3701C4.93658 10.3697 5.04092 10.3483 5.13808 10.3073C5.23524 10.2662 5.32329 10.2063 5.39712 10.131C5.5456 9.98161 5.62894 9.77955 5.62894 9.56894C5.62894 9.35833 5.5456 9.15628 5.39712 9.00691L2.74241 6.38409H10.8181C11.7696 6.38409 12.6821 6.76205 13.3548 7.43483C14.0276 8.1076 14.4056 9.02008 14.4056 9.97153C14.4056 10.923 14.0276 11.8355 13.3548 12.5082C12.6821 13.181 11.7696 13.559 10.8181 13.559H8.81715C8.60571 13.559 8.40294 13.643 8.25343 13.7925C8.10393 13.942 8.01994 14.1447 8.01994 14.3562C8.01994 14.5676 8.10393 14.7704 8.25343 14.9199C8.40294 15.0694 8.60571 15.1534 8.81715 15.1534H10.8181C12.1925 15.1534 13.5105 14.6074 14.4823 13.6357C15.4541 12.6639 16 11.3458 16 9.97153C16 8.59722 15.4541 7.27919 14.4823 6.3074C13.5105 5.33562 12.1925 4.78967 10.8181 4.78967H2.73444L5.38915 2.16686C5.52091 2.01529 5.59061 1.81957 5.58431 1.61884C5.57802 1.4181 5.49619 1.22714 5.35519 1.08413C5.21419 0.941115 5.02441 0.856588 4.82378 0.847446C4.62316 0.838304 4.42648 0.905221 4.27305 1.03482L0.231204 5.02086C0.157318 5.09536 0.098862 5.1837 0.0591892 5.28083C0.0195164 5.37796 -0.000593266 5.48196 1.33248e-05 5.58688C0.000451192 5.69236 0.0218159 5.7967 0.0628694 5.89386C0.103923 5.99102 0.163849 6.07907 0.239176 6.1529L4.27305 10.1389C4.42154 10.2862 4.62196 10.3693 4.8311 10.3701Z" fill="currentColor"/>
</svg>
