<svg width="24" height="24" viewBox="0 0 24 24" fill="none"
    xmlns="http://www.w3.org/2000/svg">
    <rect width="24" height="24" rx="12" fill="currentColor"/>
    <path d="M17.8082 11.5331L13.4746 7.19942C13.3509 7.07571 13.186 7.00781 13.0102 7.00781C12.8342 7.00781 12.6694 7.07581 12.5457 7.19942L12.1522 7.59298C12.0286 7.71649 11.9605 7.88146 11.9605 8.05736C11.9605 8.23317 12.0286 8.4037 12.1522 8.52721L14.6804 11.061H6.64829C6.28614 11.061 6 11.3445 6 11.7067V12.2631C6 12.6253 6.28614 12.9374 6.64829 12.9374H14.7091L12.1523 15.4853C12.0287 15.609 11.9606 15.7695 11.9606 15.9454C11.9606 16.1211 12.0287 16.2839 12.1523 16.4075L12.5458 16.7998C12.6695 16.9235 12.8343 16.991 13.0103 16.991C13.1861 16.991 13.351 16.9227 13.4747 16.799L17.8083 12.4653C17.9323 12.3412 18.0005 12.1756 18 11.9995C18.0004 11.8228 17.9323 11.657 17.8082 11.5331Z" fill="white"/>
</svg>
