<svg width="17" height="17" viewBox="0 0 17 17" fill="none" xmlns="http://www.w3.org/2000/svg">
<path d="M7.3131 12.4719L5.79435 11.1844L4.51935 9.65314C4.51935 9.65314 2.7631 10.475 2.04435 11.5844C1.55685 12.3375 1.37248 12.725 1.30373 12.8969C1.28498 12.9469 1.32873 12.9938 1.37873 12.9813L2.59748 12.6625C2.59748 12.6625 1.67873 13.4344 1.07248 15.7781C1.05998 15.825 1.10373 15.8688 1.1506 15.8563C3.5006 15.275 4.28185 14.3625 4.28185 14.3625L3.9506 15.5781C3.9381 15.6281 3.98498 15.6719 4.03498 15.6531C4.20685 15.5875 4.59748 15.4063 5.35373 14.925C6.4756 14.2219 7.3131 12.4719 7.3131 12.4719Z" fill="#FFB743"/>
<path d="M7.31328 12.4719L6.81953 12.0532L5.96641 11.3282L3.66016 13.2532C3.66016 13.2532 3.78828 13.7907 3.98516 13.8282C4.13516 13.8563 5.46016 13.1344 6.09766 12.7813C5.78828 13.4032 5.36328 14.1969 5.05391 14.5282C4.51328 15.1125 4.28203 14.3563 4.28203 14.3563L3.91953 15.6875C3.92266 15.6844 5.07578 15.2688 5.85391 14.525C6.46328 13.9594 6.92891 13.2094 7.31328 12.4719Z" fill="#F4A637"/>
<path d="M6.7192 6.26875C6.7192 6.26875 4.69107 6.15313 3.18795 7.33438C2.58795 7.80625 2.10045 9.65313 1.8692 10.6719C1.81607 10.9 2.0817 11.0656 2.26295 10.9156L3.7192 9.72813C4.54107 9.05625 5.36295 9.0125 5.46295 8.98438C5.46295 8.98438 7.34107 8.04063 6.7192 6.26875Z" fill="#ED1B25"/>
<path d="M5.4627 8.9844C5.4627 8.9844 5.6127 8.9094 5.8127 8.76253L6.84082 7.10628L6.7002 6.26878C6.60957 6.26565 6.23145 6.25628 5.71895 6.32815C5.59395 6.80315 5.36582 7.46565 5.00957 7.70003C4.27832 8.1844 2.2127 9.91253 2.04395 10.9625C2.26895 11.0313 2.30957 10.8313 3.72207 9.72815C4.1752 9.3594 4.71582 9.11253 5.29082 9.01565L5.4627 8.9844Z" fill="#D61834"/>
<path d="M10.7193 10.3032C10.7193 10.3032 10.8162 12.3344 9.61935 13.825C9.14122 14.4188 7.29122 14.8907 6.26935 15.1125C6.04122 15.1625 5.87872 14.8938 6.02872 14.7157L7.22872 13.2719C7.90685 12.4563 7.95997 11.6344 7.9881 11.5375C7.9881 11.5344 8.95372 9.66566 10.7193 10.3032Z" fill="#ED1B25"/>
<path d="M10.7195 10.3031C10.5289 10.2344 10.3477 10.1938 10.1758 10.1781L8.31641 11.0594C8.10078 11.3188 7.99141 11.5344 7.99141 11.5344C7.81016 12.5719 7.85391 12.3188 7.84766 12.3594C7.84766 12.3594 9.56953 11.4781 9.55703 12.1156C9.53203 13.5313 6.69141 14.4219 5.98828 14.9563C6.02891 15.0625 6.13828 15.1406 6.26953 15.1125C7.29141 14.8906 9.14141 14.4188 9.61953 13.825C10.8164 12.3344 10.7195 10.3031 10.7195 10.3031Z" fill="#D61834"/>
<path d="M6.69714 12.5031C6.91277 12.7219 7.25339 12.7531 7.50652 12.5844C10.1096 10.8375 11.6628 10.2969 12.9346 9.03438C15.369 6.62188 15.8628 2.27501 15.944 1.30938C15.9534 1.20626 15.8659 1.11876 15.7628 1.12813C14.794 1.20001 10.444 1.65313 8.00964 4.06563C6.73464 5.32813 6.18152 6.87501 4.40964 9.45938C4.23777 9.71251 4.26589 10.0531 4.48152 10.2719L6.69714 12.5031Z" fill="#E1EFFB"/>
<path d="M15.9436 1.30627C15.9529 1.20314 15.8654 1.11564 15.7623 1.12502C15.1342 1.17189 13.0717 1.38127 11.0404 2.18439C11.9123 3.45939 13.0779 4.96877 12.8154 6.65939C12.7748 6.91564 12.8092 8.10002 12.1404 8.76877C10.3217 10.5875 9.88418 9.55627 8.72168 10.225C7.98105 10.6531 7.42793 10.8094 6.41543 11.4906C6.1873 11.6438 5.89043 11.6313 5.6748 11.4719L6.69668 12.5031C6.9123 12.7219 7.25293 12.7531 7.50605 12.5844C10.1092 10.8375 11.6623 10.2969 12.9342 9.03439C15.3717 6.61877 15.8623 2.27502 15.9436 1.30627Z" fill="#CCDFED"/>
<path d="M14.8127 6.09377C15.6596 4.04377 15.8908 1.94377 15.9439 1.30627C15.9533 1.20314 15.8658 1.11564 15.7627 1.12502C15.1314 1.17189 13.0658 1.38127 11.0283 2.18752C11.3002 3.88752 13.0908 5.73752 14.8127 6.09377Z" fill="#ED1B25"/>
<path d="M9.90625 9.48441C11.2179 9.48441 12.2812 8.42108 12.2812 7.10941C12.2812 5.79773 11.2179 4.73441 9.90625 4.73441C8.59457 4.73441 7.53125 5.79773 7.53125 7.10941C7.53125 8.42108 8.59457 9.48441 9.90625 9.48441Z" fill="#4FAFAF"/>
<path d="M9.90684 9.27501C11.1029 9.27501 12.0725 8.30542 12.0725 7.10938C12.0725 5.91334 11.1029 4.94376 9.90684 4.94376C8.71079 4.94376 7.74121 5.91334 7.74121 7.10938C7.74121 8.30542 8.71079 9.27501 9.90684 9.27501Z" fill="#439B99"/>
<path d="M9.90645 9.06564C10.9869 9.06564 11.8627 8.18979 11.8627 7.10939C11.8627 6.02898 10.9869 5.15314 9.90645 5.15314C8.82604 5.15314 7.9502 6.02898 7.9502 7.10939C7.9502 8.18979 8.82604 9.06564 9.90645 9.06564Z" fill="#91F9EC"/>
<path d="M10.0075 7.06335C10.6133 7.047 11.0944 6.66577 11.0822 6.21186C11.0699 5.75795 10.5689 5.40325 9.96309 5.4196C9.3573 5.43596 8.87615 5.81718 8.8884 6.27109C8.90066 6.725 9.40168 7.07971 10.0075 7.06335Z" fill="#BDFFF5"/>
<path d="M11.5533 6.04691C11.8189 8.09691 9.1002 9.11566 7.96582 7.35941C8.17207 8.94378 10.1252 9.64691 11.2846 8.49691C11.9533 7.83441 12.0439 6.80941 11.5533 6.04691Z" fill="#7DEADA"/>
<path d="M7.44098 9.71565C7.45035 9.6219 7.37223 9.54065 7.27848 9.55002C6.83785 9.59065 5.69723 9.7469 5.19723 10.3188C4.78473 10.7906 3.85035 12.3313 3.25973 13.325C3.11598 13.5656 3.38785 13.8375 3.62848 13.6969C4.62848 13.1156 6.17848 12.1938 6.65348 11.7875C7.22848 11.2969 7.39723 10.1563 7.44098 9.71565Z" fill="#ED1B25"/>
<path d="M11.626 3.68752C12.3229 4.80627 13.5635 5.83439 14.8135 6.09377C15.6604 4.04377 15.8916 1.94377 15.9447 1.30627C15.9479 1.25314 15.9291 1.20314 15.8916 1.16877C15.8541 1.13439 14.8354 3.97502 13.3885 4.54689C12.7385 4.80314 12.1166 4.30939 11.626 3.68752Z" fill="#D61834"/>
<path d="M15.4537 1.37189C15.4537 1.37189 12.3568 1.86251 11.8506 2.20626C11.3443 2.55001 11.9099 3.45001 12.2318 3.78751C12.6631 4.23751 15.6537 1.79376 15.4537 1.37189Z" fill="#F94153"/>
<path d="M4.92285 9.32503C4.92285 9.32503 7.3541 5.14691 8.04785 4.52191C8.7416 3.89691 10.5416 2.66878 10.7885 2.70628C11.0353 2.74378 10.9103 3.38753 11.3385 3.88128C11.7666 4.37503 11.8041 4.61253 11.5072 4.56878C11.2103 4.52503 9.89472 4.14691 9.07597 4.61878C7.4666 5.54378 7.13847 6.22816 7.06347 7.18441C6.98847 8.14066 7.58847 8.30316 7.13847 8.81878C6.68847 9.33441 5.87597 9.17503 5.45097 9.56878C5.0291 9.96566 4.61347 9.85628 4.92285 9.32503Z" fill="#F0F7FC"/>
<path d="M8.02891 12.5313C8.02891 12.5313 8.93516 12.0219 9.04453 12.2719C9.15391 12.525 8.47891 13.0781 8.05078 13.4625C7.62266 13.8469 6.42578 14.4844 6.42578 14.4844C6.42578 14.4844 7.48516 13.4031 7.67266 13.0625C7.86016 12.725 7.88828 12.6063 8.02891 12.5313Z" fill="#F94153"/>
<path d="M5.32891 6.65001C5.32891 6.65001 5.09453 7.33751 4.82266 7.52188C4.55078 7.70626 3.38203 8.65001 2.97891 9.16251C2.57578 9.67501 2.31641 9.94063 2.31641 9.94063C2.31641 9.94063 2.66016 8.44063 3.30703 7.77813C3.95391 7.11563 5.05703 6.57188 5.32891 6.65001Z" fill="#F94153"/>
<path d="M7.35723 9.56564C6.66973 10.8188 6.4166 10.85 3.25098 13.5906C3.3166 13.7156 3.4791 13.7844 3.62598 13.7C4.62598 13.1188 6.17598 12.1969 6.65098 11.7906C7.23848 11.2875 7.45723 9.88439 7.43848 9.68752C7.43535 9.63127 7.40098 9.58752 7.35723 9.56564Z" fill="#D61834"/>
<path d="M5.49766 10.3C5.49766 10.3 6.53516 9.7594 6.73516 9.95315C6.95078 10.1594 4.93203 11.9063 3.59766 13.075C3.60078 13.0782 4.97266 10.6657 5.49766 10.3Z" fill="#F94153"/>
<path d="M4.07573 10.0813C4.07573 10.0813 2.89136 10.9313 2.47261 11.4344C2.05386 11.9375 1.62261 12.5031 1.77573 12.5406C1.92886 12.5781 2.87261 11.925 3.26323 11.4938C3.65073 11.0625 4.07573 10.0813 4.07573 10.0813Z" fill="#FFCD85"/>
<path d="M2.78848 12.725C2.78848 12.725 2.12285 13.6031 1.83848 14.2688C1.5541 14.9344 1.28223 15.6344 1.28223 15.6344C1.28223 15.6344 1.79785 15.1281 1.99473 14.7563C2.19473 14.3813 2.82598 13.0938 2.78848 12.725Z" fill="#FFCD85"/>
<path d="M4.28828 14.3625C4.28828 14.3625 3.19453 14.6125 2.72266 14.8656C2.25078 15.1188 1.16016 15.8594 1.16016 15.8594C3.49453 15.2781 4.25703 14.3844 4.28828 14.3625Z" fill="#F4A637"/>
<path d="M15.7819 1.07501C15.7788 1.07501 15.7413 1.07814 15.7444 1.07814C15.7413 1.07814 15.6413 1.08751 15.6475 1.08439C12.9257 1.30939 10.5975 2.16564 9.45379 2.88439C7.89129 3.87189 7.29129 4.63751 6.33504 6.21564C5.95692 6.17814 4.32879 6.37189 3.25067 7.18751L3.18192 7.23751C3.16004 7.25314 3.10379 7.30001 3.07879 7.31876C3.06942 7.32501 3.02254 7.37501 3.01629 7.38126L2.98817 7.41564C2.26317 8.25626 1.73817 10.9 1.79754 10.6375C1.77254 10.7281 1.78504 10.8156 1.83192 10.8938C1.92254 11.0469 2.13817 11.1094 2.30067 10.9875C2.30379 10.9844 2.32254 10.9719 2.31942 10.9719C2.32254 10.9688 2.36942 10.9313 2.36629 10.9313C3.95692 9.62189 3.97567 9.58751 4.33504 9.40001C4.32879 9.41251 4.22879 9.53439 4.20379 9.74689C3.42567 10.1625 2.47254 10.8063 1.99129 11.5375C1.75379 11.9 1.40067 12.4656 1.23504 12.8656C1.19129 12.9719 1.28817 13.0813 1.39129 13.0594C1.39442 13.0594 1.41317 13.0563 1.40692 13.0563C1.62567 13 2.11942 12.8719 2.34129 12.8156C1.86629 13.4719 1.61004 13.8406 1.17254 15.175C1.17254 15.1781 1.11942 15.3469 1.12254 15.3344C1.12254 15.3375 1.04442 15.6219 1.04754 15.6063C1.04754 15.6125 1.00692 15.75 1.01004 15.7406C0.978794 15.8719 1.07254 15.9406 1.16317 15.925C1.16629 15.925 1.17567 15.9219 1.17254 15.9219C1.17567 15.9219 1.21629 15.9094 1.21317 15.9094C1.64754 15.7906 1.65067 15.7906 1.64754 15.7906C2.46004 15.5375 3.52567 15.1281 4.16317 14.5563C3.89129 15.5156 3.88817 15.5281 3.88817 15.525C3.88817 15.5281 3.87879 15.5563 3.88192 15.5531C3.85692 15.6938 3.98817 15.7594 4.06942 15.7219C4.30379 15.6313 4.56004 15.4938 4.78504 15.3656C5.46629 14.975 6.29129 14.55 7.23192 12.7594C7.44754 12.7313 7.56629 12.625 7.58504 12.6156C7.31317 13.1469 7.08817 13.3094 5.98192 14.6688C5.79442 14.8938 5.99754 15.225 6.28192 15.1656C7.33504 14.9375 9.17879 14.4625 9.66629 13.8563C10.5757 12.725 10.7444 11.2719 10.7757 10.6625C12.8538 9.43751 13.2319 8.86564 13.9975 7.82189C14.36 7.23751 14.4007 7.14689 14.3975 7.15001C15.1663 5.75626 15.4757 4.35001 15.4757 4.36251C15.9788 2.09376 15.9975 1.30314 15.9975 1.30626V1.28439C15.9944 1.17189 15.9007 1.07501 15.7819 1.07501ZM1.36317 12.9063C1.36629 12.9063 1.36629 12.9063 1.36317 12.9063V12.9063ZM2.24129 10.8406C2.12567 10.9344 2.01317 10.8969 1.96629 10.8125C1.92254 10.7375 1.96317 10.6281 1.96317 10.6313C2.63504 7.81876 3.17567 7.46564 3.17254 7.46876C3.52879 7.11876 4.28192 6.79376 4.19442 6.83751L4.34442 6.77189L4.49754 6.71564C4.50067 6.71564 4.66004 6.65626 4.65067 6.65939C5.54754 6.36251 6.21942 6.34689 6.26942 6.33751C4.56942 9.16564 4.74442 8.78439 4.48192 9.19689C3.87567 9.45626 2.23817 10.8406 2.24129 10.8406ZM4.03504 15.575C4.53192 13.6531 4.37254 14.2688 4.40379 14.1438C4.39754 14.1531 4.22879 14.3344 4.23817 14.325C4.14129 14.4344 3.90692 14.6094 3.91004 14.6063C3.01629 15.3063 1.42879 15.6938 1.15067 15.7844C1.27567 15.4125 1.34442 14.8469 2.00692 13.5969C2.49129 12.7531 2.82879 12.6 2.92567 12.4906C2.92254 12.4906 1.28504 12.925 1.38817 12.9C1.97567 11.7938 2.25692 10.9625 4.19754 9.89064C4.21942 10.2063 4.39129 10.3438 4.63817 10.5969C4.68817 10.6469 4.73817 10.6906 4.79754 10.7313C4.16317 11.65 3.14754 13.3906 3.21317 13.275C3.21004 13.2781 3.18504 13.3281 3.18817 13.325C3.05692 13.5938 3.33817 13.8844 3.60692 13.775C3.69442 13.7344 3.64442 13.7563 3.74442 13.7C4.15692 13.4563 5.38504 12.7531 6.24442 12.1719C6.51317 12.3625 6.64129 12.7281 7.08192 12.7656C5.81942 14.9563 4.85067 15.0844 4.03504 15.575ZM5.66629 10.05C5.99442 9.87189 6.40067 9.76251 6.76942 9.70001C7.04442 9.65001 7.28192 9.63126 7.27879 9.63126C7.28192 9.63126 7.29129 9.63126 7.28817 9.63126C7.34129 9.63439 7.36629 9.67189 7.36317 9.70939C7.30379 10.2969 7.14442 11.0656 6.79129 11.5375C6.37567 12.075 3.60067 13.6469 3.60379 13.6438C3.39442 13.7531 3.22567 13.5438 3.30692 13.3781C3.31004 13.375 3.32879 13.3375 3.32879 13.3406C3.33192 13.3375 3.41004 13.2063 3.40379 13.2125C5.04754 10.4844 5.25379 10.2688 5.66629 10.05ZM9.57254 13.7844C9.37254 14.0313 8.67879 14.525 6.26004 15.05C6.08817 15.0875 5.96629 14.8875 6.07879 14.75C7.11629 13.4531 7.47254 13.2 7.78504 12.4875C8.20379 12.2313 7.75379 12.4344 10.6507 10.7375C10.6069 11.3781 10.4194 12.7281 9.57254 13.7844ZM12.3507 9.47189L12.1475 9.63126L11.9382 9.78126C11.885 9.82189 11.6132 10.0063 11.51 10.0688C10.3475 10.8156 9.62567 11.1125 7.46629 12.5156C7.25379 12.6438 7.04754 12.6344 6.87254 12.5344C6.78817 12.4844 6.79129 12.4813 6.39129 12.0719C6.78504 11.7938 7.12567 11.5438 7.38192 10.5125C7.44442 10.2531 7.49129 9.98751 7.51942 9.72189C7.52567 9.67189 7.51317 9.61876 7.48504 9.57814C7.44442 9.50939 7.36942 9.46564 7.27567 9.46876C7.27254 9.46876 7.25692 9.46876 7.26004 9.46876C7.25692 9.46876 7.12879 9.48439 7.13504 9.48126C5.53817 9.66876 5.17567 10.2 4.91629 10.5563C4.69754 10.2625 4.17567 10.0125 4.48817 9.50314C4.93192 8.83751 4.77879 9.06564 4.81317 9.01564C5.19442 8.43751 5.55379 7.84689 5.90379 7.25001C7.48192 4.58751 7.15379 5.25001 7.41317 4.84689C7.53817 4.75001 8.31942 3.35939 10.9382 2.28439C11.2788 3.98439 13.0069 5.73126 14.7007 6.12814C14.7007 6.14064 13.235 8.74689 12.3507 9.47189ZM15.8944 1.31876C15.8944 1.32189 15.885 1.42189 15.885 1.41564C15.7475 2.83126 15.4038 4.41251 14.7507 6.01876C13.0819 5.60939 11.4194 3.84064 11.1444 2.20939C13.5788 1.25626 16.1319 1.14689 15.7507 1.17814C15.7538 1.17814 15.7819 1.17501 15.7788 1.17814C15.9257 1.17814 15.8913 1.35314 15.8944 1.31876Z" fill="#2A3951"/>
<path d="M7.46582 7.09688C7.4627 9.75626 11.1346 10.5 12.1752 8.05938C12.4408 7.44063 12.4283 6.75626 12.1939 6.17501C11.1939 3.71563 7.46895 4.39376 7.46582 7.09688ZM11.5252 8.74063C10.3658 9.90313 8.3877 9.51563 7.76895 7.98438C7.00332 6.09063 8.91895 4.20938 10.7908 5.00313C12.2721 5.62813 12.6814 7.57813 11.5252 8.74063Z" fill="#2A3951"/>
<path d="M7.98536 7.89376C8.82286 9.98127 11.9604 9.37501 11.9354 7.11876C11.9322 6.58751 11.7104 6.06564 11.3385 5.69064C9.79473 4.12189 7.15411 5.80626 7.98536 7.89376ZM11.6354 7.83439C11.1104 9.03751 9.53536 9.33439 8.60411 8.40001C8.08223 7.88126 7.91661 7.08126 8.19473 6.39064C8.81973 4.83439 11.0416 4.84064 11.6604 6.39064C11.8447 6.85001 11.8385 7.36564 11.6354 7.83439Z" fill="#2A3951"/>
<path d="M12.9541 2.07813C12.9541 2.07813 14.9197 1.48125 15.0197 1.5625C15.1197 1.64375 13.2666 2.40313 13.126 2.34063C12.9854 2.28125 12.9666 2.23125 12.9541 2.07813Z" fill="white"/>
<path d="M12.6977 2.15939C12.7289 2.17502 12.8633 2.37814 12.8539 2.42189C12.8445 2.46877 12.357 2.64064 12.3383 2.48127C12.3164 2.32814 12.5602 2.10002 12.6977 2.15939Z" fill="white"/>
<path d="M9.55067 5.81563C9.55067 5.81563 10.4319 5.63438 10.4788 5.89063C10.5257 6.15 9.18817 6.55 9.55067 5.81563Z" fill="white"/>
<path d="M3.73848 7.57501C3.54473 7.68751 3.3666 7.82501 3.28223 7.98751C3.03848 8.45938 2.8916 8.77188 2.8916 8.77188C2.8916 8.77188 3.4916 8.16876 3.9291 7.87188C3.97285 7.84376 3.98223 7.78438 3.95098 7.74063C3.88223 7.64376 3.83848 7.51876 3.73848 7.57501Z" fill="white"/>
<path d="M4.54162 7.25C4.54162 7.25 4.36662 7.3 4.19474 7.35625C4.12912 7.37812 4.10412 7.45937 4.14787 7.5125C4.21349 7.59375 4.25412 7.68437 4.34787 7.6375C4.64787 7.48437 4.83224 7.36563 4.54162 7.25Z" fill="white"/>
</svg>
