<svg width="16" height="16" viewBox="0 0 16 16" fill="none" xmlns="http://www.w3.org/2000/svg">
<g clip-path="url(#clip0_4584_14070)">
<path d="M10.6519 2.47368C11.6114 2.92652 12.437 3.61884 13.0482 4.48336C13.6595 5.34787 14.0358 6.35517 14.1404 7.40732H15.0183C14.8676 5.65951 14.0639 4.03158 12.7661 2.84524C11.4683 1.65889 9.77087 1.00044 8.00915 1H7.62308L9.85681 3.24256L10.6519 2.47368ZM6.34994 3.02288L13.019 9.66362L9.66837 13L2.99933 6.35469L6.34994 3.02288ZM6.34994 1.7643C6.11717 1.76444 5.89398 1.85663 5.72945 2.02059L1.99737 5.73684C1.91524 5.81809 1.85006 5.91471 1.80558 6.02113C1.7611 6.12756 1.73821 6.2417 1.73821 6.35698C1.73821 6.47226 1.7611 6.58639 1.80558 6.69282C1.85006 6.79925 1.91524 6.89587 1.99737 6.97712L9.04789 13.9977C9.21599 14.1591 9.43948 14.2507 9.67297 14.254C9.90574 14.2539 10.1289 14.1617 10.2934 13.9977L14.0209 10.2815C14.1036 10.2005 14.1693 10.104 14.2141 9.99754C14.259 9.89107 14.282 9.77678 14.282 9.66133C14.282 9.54588 14.259 9.43158 14.2141 9.32511C14.1693 9.21864 14.1036 9.12212 14.0209 9.04119L6.97502 2.02059C6.81049 1.85663 6.5873 1.76444 6.35453 1.7643H6.34994ZM5.38015 13.5492C4.4155 13.0955 3.58564 12.4002 2.97174 11.5314C2.35784 10.6626 1.98093 9.65002 1.87787 8.59268H1C1.15074 10.3405 1.95441 11.9684 3.25218 13.1548C4.54996 14.3411 6.24743 14.9996 8.00915 15H8.39523L6.16149 12.7757L5.38015 13.5492Z" fill="currentcolor"/>
</g>
<defs>
<clipPath id="clip0_4584_14070">
<rect width="16" height="16" fill="white" transform="matrix(-1 -8.74228e-08 -8.74228e-08 1 16 0)"/>
</clipPath>
</defs>
</svg>
