<svg width="24" height="24" viewBox="0 0 24 24" fill="none" xmlns="http://www.w3.org/2000/svg">
<path d="M24 12C24 18.6274 18.6274 24 12 24C5.37258 24 0 18.6274 0 12C0 5.37258 5.37258 0 12 0C18.6274 0 24 5.37258 24 12Z" fill="url(#paint0_linear_13239_24129)"/>
<path fill-rule="evenodd" clip-rule="evenodd" d="M19.9993 12.106C19.9926 12.6149 19.5249 12.9719 19.0201 12.9067C18.5153 12.8415 18.1663 12.3781 18.1555 11.8693C18.134 10.8599 17.8645 9.86627 17.3644 8.97844C16.7128 7.82156 15.7046 6.90633 14.4903 6.36928C13.276 5.83222 11.9206 5.70212 10.6263 5.99837C9.33198 6.29462 8.16813 7.00136 7.30833 8.01316C6.44854 9.02496 5.93887 10.2876 5.85535 11.6127C5.77184 12.9379 6.11895 14.2545 6.84492 15.3663C7.57089 16.478 8.6368 17.3253 9.88367 17.7817C10.8406 18.1319 11.8647 18.2376 12.8643 18.0959C13.3682 18.0244 13.8819 18.2941 14.0277 18.7818C14.1735 19.2694 13.8966 19.7886 13.3954 19.8774C12.011 20.1226 10.5806 19.9995 9.25011 19.5125C7.62997 18.9195 6.24495 17.8186 5.30166 16.374C4.35836 14.9295 3.90733 13.2187 4.01585 11.4968C4.12436 9.77496 4.78661 8.13433 5.9038 6.81963C7.02099 5.50493 8.53326 4.58662 10.215 4.20168C11.8968 3.81674 13.658 3.98579 15.2358 4.68362C16.8137 5.38145 18.1236 6.57067 18.9703 8.07388C19.6656 9.30832 20.0179 10.7002 19.9993 12.106ZM16.2062 14.3323C16.2062 14.4492 16.2154 14.5446 16.2339 14.6184L16.6031 14.6461C16.3692 15.8277 15.8831 17.4308 15.1446 19.4554L14.8215 19.4831C14.8092 19.5692 14.8031 19.6554 14.8031 19.7415C14.8031 19.8215 14.8123 19.9077 14.8308 20C14.9662 19.9938 15.2 19.9908 15.5323 19.9908C15.8708 19.9908 16.1139 19.9938 16.2615 20C16.28 19.8954 16.2892 19.8184 16.2892 19.7692C16.2892 19.7138 16.2831 19.6184 16.2708 19.4831L15.92 19.4554L16.1785 18.3569C16.5354 18.3323 16.9169 18.32 17.3231 18.32C17.7354 18.32 18.1169 18.3292 18.4677 18.3477C18.4739 18.3784 18.5108 18.5354 18.5785 18.8184C18.6462 19.0954 18.6954 19.3077 18.7262 19.4554L18.4031 19.4831C18.3908 19.5692 18.3846 19.6554 18.3846 19.7415C18.3846 19.8215 18.3939 19.9077 18.4123 20C18.5539 19.9938 18.8062 19.9908 19.1692 19.9908C19.5323 19.9908 19.8 19.9938 19.9723 20C19.9908 19.8954 20 19.8184 20 19.7692C20 19.7138 19.9939 19.6184 19.9815 19.4831L19.64 19.4554C18.76 17.0369 18.2462 15.2492 18.0985 14.0923C17.9139 14.0308 17.6892 14 17.4246 14C17.16 14 16.7569 14.0338 16.2154 14.1015C16.2092 14.1384 16.2062 14.2154 16.2062 14.3323ZM17.2862 17.72C16.8677 17.72 16.5539 17.7169 16.3446 17.7108C16.64 16.5538 16.9692 15.5354 17.3323 14.6554H17.3877C17.7077 15.5846 18.0123 16.5969 18.3015 17.6923C18.0431 17.7108 17.7046 17.72 17.2862 17.72Z" fill="white"/>
<path d="M10.0875 15.2067C10.1248 15.2349 10.1702 15.2501 10.217 15.2501C10.2582 15.25 10.2985 15.2382 10.3334 15.2162L15.1001 12.1828C15.1308 12.1633 15.1562 12.1363 15.1737 12.1043C15.1913 12.0724 15.2005 12.0365 15.2005 12C15.2005 11.9636 15.1913 11.9277 15.1737 11.8957C15.1562 11.8638 15.1308 11.8368 15.1001 11.8172L10.3334 8.78383C10.2962 8.76021 10.2528 8.74845 10.2088 8.75009C10.1648 8.75174 10.1224 8.76672 10.0871 8.79305C10.0519 8.81938 10.0255 8.85581 10.0114 8.8975C9.99732 8.9392 9.99626 8.98419 10.0084 9.0265L10.8583 12L10.0085 14.9737C9.99651 15.016 9.99763 15.0609 10.0117 15.1025C10.0258 15.1441 10.0523 15.1805 10.0875 15.2067Z" fill="white"/>
<defs>
<linearGradient id="paint0_linear_13239_24129" x1="1.72771" y1="2.34599" x2="24" y2="24" gradientUnits="userSpaceOnUse">
<stop offset="1" stop-color="#2A6F09"/>
<stop stop-color="#44B002"/>
</linearGradient>
</defs>
</svg>
