<svg width="16" height="16" viewBox="0 0 16 16" fill="none" xmlns="http://www.w3.org/2000/svg">
<path d="M6.10873 11.1962C6.14603 11.2244 6.19148 11.2396 6.23821 11.2396C6.27942 11.2395 6.31977 11.2278 6.3546 11.2057L11.1213 8.17235C11.1521 8.15278 11.1774 8.12577 11.195 8.09381C11.2125 8.06185 11.2217 8.02599 11.2217 7.98953C11.2217 7.95307 11.2125 7.9172 11.195 7.88524C11.1774 7.85328 11.1521 7.82627 11.1213 7.8067L6.3546 4.77334C6.31747 4.74972 6.27403 4.73795 6.23006 4.73959C6.18608 4.74124 6.14364 4.75622 6.10838 4.78255C6.07312 4.80888 6.0467 4.84531 6.03263 4.88701C6.01856 4.9287 6.0175 4.97369 6.0296 5.016L6.87955 7.98953L6.02977 10.9632C6.01775 11.0055 6.01887 11.0504 6.03297 11.092C6.04707 11.1336 6.07349 11.17 6.10873 11.1962Z" fill="#10B660"/>
<path fill-rule="evenodd" clip-rule="evenodd" d="M15.8751 9.40825C15.7855 9.90928 15.2659 10.1853 14.7785 10.0387C14.2911 9.89211 14.0222 9.378 14.0945 8.87419C14.2422 7.84415 14.1271 6.7881 13.7528 5.80646C13.2685 4.53625 12.3774 3.46205 11.2185 2.7514C10.0596 2.04076 8.69815 1.73365 7.34641 1.87796C5.99468 2.02227 4.72871 2.60989 3.74598 3.54917C2.76324 4.48845 2.11901 5.72657 1.91375 7.0704C1.7085 8.41423 1.95377 9.78821 2.61131 10.978C3.26885 12.1678 4.30169 13.1066 5.54871 13.6478C6.51243 14.0661 7.5622 14.2288 8.59786 14.1277C9.10443 14.0783 9.60586 14.3701 9.73028 14.8637C9.85469 15.3572 9.55547 15.8638 9.05091 15.9307C7.61706 16.1207 6.15221 15.919 4.81487 15.3386C3.19453 14.6353 1.8525 13.4155 0.998111 11.8695C0.143724 10.3235 -0.174975 8.53824 0.091725 6.79211C0.358425 5.04598 1.19553 3.43721 2.47246 2.21674C3.74939 0.996269 5.39435 0.232729 7.15075 0.0452152C8.90715 -0.142298 10.6762 0.25676 12.182 1.18014C13.6878 2.10353 14.8457 3.49931 15.475 5.14979C15.9944 6.51198 16.1297 7.98445 15.8751 9.40825ZM14.3475 10.7439C14.3475 10.6747 14.3455 10.6238 14.3414 10.5912C13.926 10.583 13.6429 10.5729 13.4922 10.5606C13.3863 11.1064 13.0217 11.9882 12.3986 13.2061C11.645 11.8172 11.2337 10.9354 11.1644 10.5606C10.9934 10.5729 10.7408 10.583 10.4068 10.5912C10.4028 10.6238 10.4007 10.6747 10.4007 10.7439C10.4007 10.8132 10.4068 10.8763 10.4191 10.9333L10.6451 10.9516C10.6573 11.1227 10.6634 11.306 10.6634 11.5015C10.6634 12.5157 10.6207 13.3934 10.5351 14.1347L10.3213 14.1531C10.3132 14.2264 10.3091 14.2875 10.3091 14.3363C10.3091 14.3812 10.3152 14.4341 10.3274 14.4952C10.4537 14.4911 10.6023 14.4891 10.7734 14.4891C10.9445 14.4891 11.0952 14.4911 11.2255 14.4952C11.2377 14.426 11.2439 14.3689 11.2439 14.3241C11.2439 14.2753 11.2398 14.2182 11.2316 14.1531L11.0056 14.1347C10.9974 13.8985 10.9934 13.5808 10.9934 13.1816C10.9934 12.7784 11.0097 12.2876 11.0422 11.7092C11.0911 11.7988 11.2459 12.088 11.5066 12.5768C11.7713 13.0615 11.975 13.4749 12.1175 13.817C12.1501 13.8211 12.2112 13.8231 12.3008 13.8231C12.3945 13.8231 12.4821 13.8069 12.5635 13.7743C12.6979 13.4321 12.9464 12.9006 13.3089 12.1797C13.4718 11.8498 13.5736 11.642 13.6144 11.5565C13.651 12.2285 13.6694 12.754 13.6694 13.1328C13.6694 13.5075 13.6653 13.8415 13.6571 14.1347L13.4555 14.1531C13.4474 14.2264 13.4433 14.2875 13.4433 14.3363C13.4433 14.3812 13.4494 14.4341 13.4616 14.4952C13.6001 14.4911 13.763 14.4891 13.9504 14.4891C14.1378 14.4891 14.3027 14.4911 14.4453 14.4952C14.4575 14.426 14.4636 14.3689 14.4636 14.3241C14.4636 14.2753 14.4595 14.2182 14.4514 14.1531L14.2253 14.1347C14.1357 13.3486 14.0909 12.4566 14.0909 11.4587C14.0909 11.2347 14.0929 11.0657 14.097 10.9516L14.3292 10.9333C14.3414 10.8763 14.3475 10.8132 14.3475 10.7439Z" fill="currentColor"/>
</svg>
