<svg width="24" height="24" viewBox="0 0 24 24" fill="none" xmlns="http://www.w3.org/2000/svg">
<g clip-path="url(#clip0_5110_1252)">
<path d="M0 4C0 1.79086 1.79086 0 4 0H20C22.2091 0 24 1.79086 24 4V20C24 22.2091 22.2091 24 20 24H4C1.79086 24 0 22.2091 0 20V4Z" fill="#F7ECF8"/>
<path d="M0 4C0 1.79086 1.79086 0 4 0H20C22.2091 0 24 1.79086 24 4V20C24 22.2091 22.2091 24 20 24H4C1.79086 24 0 22.2091 0 20V4Z" fill="currentColor"/>
<path d="M10.1087 15.1962C10.146 15.2244 10.1915 15.2396 10.2382 15.2396C10.2794 15.2395 10.3198 15.2278 10.3546 15.2057L15.1213 12.1724C15.1521 12.1528 15.1774 12.1258 15.195 12.0938C15.2125 12.0619 15.2217 12.026 15.2217 11.9895C15.2217 11.9531 15.2125 11.9172 15.195 11.8852C15.1774 11.8533 15.1521 11.8263 15.1213 11.8067L10.3546 8.77334C10.3175 8.74972 10.274 8.73795 10.2301 8.73959C10.1861 8.74124 10.1436 8.75622 10.1084 8.78255C10.0731 8.80888 10.0467 8.84531 10.0326 8.88701C10.0186 8.9287 10.0175 8.97369 10.0296 9.016L10.8795 11.9895L10.0298 14.9632C10.0178 15.0055 10.0189 15.0504 10.033 15.092C10.0471 15.1336 10.0735 15.17 10.1087 15.1962Z" fill="#10B660"/>
<path fill-rule="evenodd" clip-rule="evenodd" d="M19.8751 13.4083C19.7855 13.9093 19.2659 14.1853 18.7785 14.0387C18.2911 13.8921 18.0222 13.378 18.0945 12.8742C18.2422 11.8442 18.1271 10.7881 17.7528 9.80646C17.2685 8.53625 16.3774 7.46205 15.2185 6.7514C14.0596 6.04076 12.6981 5.73365 11.3464 5.87796C9.99468 6.02227 8.72871 6.60989 7.74598 7.54917C6.76324 8.48845 6.11901 9.72657 5.91375 11.0704C5.7085 12.4142 5.95377 13.7882 6.61131 14.978C7.26885 16.1678 8.30169 17.1066 9.54871 17.6478C10.5124 18.0661 11.5622 18.2288 12.5979 18.1277C13.1044 18.0783 13.6059 18.3701 13.7303 18.8637C13.8547 19.3572 13.5555 19.8638 13.0509 19.9307C11.6171 20.1207 10.1522 19.919 8.81487 19.3386C7.19453 18.6353 5.8525 17.4155 4.99811 15.8695C4.14372 14.3235 3.82502 12.5382 4.09173 10.7921C4.35843 9.04598 5.19553 7.43721 6.47246 6.21674C7.74939 4.99627 9.39435 4.23273 11.1507 4.04522C12.9071 3.8577 14.6762 4.25676 16.182 5.18014C17.6878 6.10353 18.8457 7.49931 19.475 9.14979C19.9944 10.512 20.1297 11.9845 19.8751 13.4083ZM18.3475 14.7439C18.3475 14.6747 18.3455 14.6238 18.3414 14.5912C17.926 14.583 17.6429 14.5729 17.4922 14.5606C17.3863 15.1064 17.0217 15.9882 16.3986 17.2061C15.645 15.8172 15.2337 14.9354 15.1644 14.5606C14.9934 14.5729 14.7408 14.583 14.4068 14.5912C14.4028 14.6238 14.4007 14.6747 14.4007 14.7439C14.4007 14.8132 14.4068 14.8763 14.4191 14.9333L14.6451 14.9516C14.6573 15.1227 14.6634 15.306 14.6634 15.5015C14.6634 16.5157 14.6207 17.3934 14.5351 18.1347L14.3213 18.1531C14.3132 18.2264 14.3091 18.2875 14.3091 18.3363C14.3091 18.3812 14.3152 18.4341 14.3274 18.4952C14.4537 18.4911 14.6023 18.4891 14.7734 18.4891C14.9445 18.4891 15.0952 18.4911 15.2255 18.4952C15.2377 18.426 15.2439 18.3689 15.2439 18.3241C15.2439 18.2753 15.2398 18.2182 15.2316 18.1531L15.0056 18.1347C14.9974 17.8985 14.9934 17.5808 14.9934 17.1816C14.9934 16.7784 15.0097 16.2876 15.0422 15.7092C15.0911 15.7988 15.2459 16.088 15.5066 16.5768C15.7713 17.0615 15.975 17.4749 16.1175 17.817C16.1501 17.8211 16.2112 17.8231 16.3008 17.8231C16.3945 17.8231 16.4821 17.8069 16.5635 17.7743C16.6979 17.4321 16.9464 16.9006 17.3089 16.1797C17.4718 15.8498 17.5736 15.642 17.6144 15.5565C17.651 16.2285 17.6694 16.754 17.6694 17.1328C17.6694 17.5075 17.6653 17.8415 17.6571 18.1347L17.4555 18.1531C17.4474 18.2264 17.4433 18.2875 17.4433 18.3363C17.4433 18.3812 17.4494 18.4341 17.4616 18.4952C17.6001 18.4911 17.763 18.4891 17.9504 18.4891C18.1378 18.4891 18.3027 18.4911 18.4453 18.4952C18.4575 18.426 18.4636 18.3689 18.4636 18.3241C18.4636 18.2753 18.4595 18.2182 18.4514 18.1531L18.2253 18.1347C18.1357 17.3486 18.0909 16.4566 18.0909 15.4587C18.0909 15.2347 18.0929 15.0657 18.097 14.9516L18.3292 14.9333C18.3414 14.8763 18.3475 14.8132 18.3475 14.7439Z" fill="white"/>
</g>
<defs>
<clipPath id="clip0_5110_1252">
<path d="M0 4C0 1.79086 1.79086 0 4 0H20C22.2091 0 24 1.79086 24 4V20C24 22.2091 22.2091 24 20 24H4C1.79086 24 0 22.2091 0 20V4Z" fill="white"/>
</clipPath>
</defs>
</svg>
