<svg width="13" height="13" viewBox="0 0 13 13" fill="none" xmlns="http://www.w3.org/2000/svg">
<g clip-path="url(#clip0_167_6598)">
<g opacity="0.08">
<path d="M6.65258 12.6442C9.80332 12.6442 12.3575 10.09 12.3575 6.9393C12.3575 3.78856 9.80332 1.23438 6.65258 1.23438C3.50184 1.23438 0.947662 3.78856 0.947662 6.9393C0.947662 10.09 3.50184 12.6442 6.65258 12.6442Z" fill="black"/>
</g>
<path d="M6.6526 12.4477C9.91194 12.4477 12.5542 9.80544 12.5542 6.54609C12.5542 3.28675 9.91194 0.644531 6.6526 0.644531C3.39326 0.644531 0.751038 3.28675 0.751038 6.54609C0.751038 9.80544 3.39326 12.4477 6.6526 12.4477Z" fill="url(#paint0_linear_167_6598)"/>
<g opacity="0.08">
<path d="M6.65258 0.644531C3.3931 0.644531 0.750946 3.28669 0.750946 6.54616C0.750946 9.80564 3.3931 12.4478 6.65258 12.4478C9.91206 12.4478 12.5542 9.80567 12.5542 6.54619C12.5542 3.28671 9.91206 0.644531 6.65258 0.644531ZM6.65258 12.0544C3.61541 12.0544 1.14439 9.58336 1.14439 6.54619C1.14439 3.50902 3.61541 1.03798 6.65258 1.03798C9.68975 1.03798 12.1608 3.50899 12.1608 6.54616C12.1608 9.58334 9.68975 12.0544 6.65258 12.0544Z" fill="url(#paint1_linear_167_6598)"/>
</g>
<g opacity="0.16">
<path d="M6.65258 0.644531C3.3931 0.644531 0.750946 3.28669 0.750946 6.54616C0.750946 9.80564 3.3931 12.4478 6.65258 12.4478C9.91206 12.4478 12.5542 9.80567 12.5542 6.54619C12.5542 3.28671 9.91206 0.644531 6.65258 0.644531ZM6.65258 12.2511C3.5019 12.2511 0.947657 9.69687 0.947657 6.54616C0.947657 3.39546 3.5019 0.841242 6.65258 0.841242C9.80326 0.841242 12.3575 3.39546 12.3575 6.54616C12.3575 9.69687 9.80326 12.2511 6.65258 12.2511Z" fill="black"/>
</g>
<path d="M6.65259 11.8572C9.586 11.8572 11.964 9.47919 11.964 6.54578C11.964 3.61237 9.586 1.23438 6.65259 1.23438C3.71918 1.23438 1.34119 3.61237 1.34119 6.54578C1.34119 9.47919 3.71918 11.8572 6.65259 11.8572Z" fill="url(#paint2_linear_167_6598)"/>
<g opacity="0.16">
<path d="M6.6526 1.23438C3.71909 1.23438 1.34113 3.61234 1.34113 6.54585C1.34113 9.47936 3.71909 11.8573 6.6526 11.8573C9.58611 11.8573 11.9641 9.47936 11.9641 6.54585C11.9641 3.61234 9.58611 1.23438 6.6526 1.23438ZM6.6526 11.6606C3.82789 11.6606 1.53786 9.37059 1.53786 6.54587C1.53786 3.72116 3.82789 1.43111 6.6526 1.43111C9.47731 1.43111 11.7673 3.72114 11.7673 6.54585C11.7673 9.37056 9.47731 11.6606 6.6526 11.6606Z" fill="url(#paint3_linear_167_6598)"/>
</g>
<g opacity="0.36">
<path d="M6.65259 2.59548C6.60728 2.59548 6.57056 2.55876 6.57056 2.51345V1.72656C6.57056 1.68126 6.60728 1.64453 6.65259 1.64453C6.69789 1.64453 6.73462 1.68126 6.73462 1.72656V2.51345C6.73462 2.55876 6.69789 2.59548 6.65259 2.59548Z" fill="white"/>
<path d="M6.0747 2.2395C6.03415 2.2395 5.99891 2.20946 5.99347 2.16818L5.94212 1.77828C5.93621 1.73335 5.96783 1.69214 6.01273 1.68624C6.05755 1.68042 6.09887 1.71195 6.10477 1.75685L6.15612 2.14676C6.16203 2.19169 6.13041 2.23289 6.08551 2.2388C6.0819 2.23927 6.07829 2.2395 6.0747 2.2395Z" fill="white"/>
<path d="M4.95885 2.53839C4.92664 2.53839 4.89613 2.51934 4.88303 2.48774L4.73235 2.12421C4.715 2.08235 4.73485 2.03437 4.77671 2.017C4.81862 1.99968 4.86657 2.01953 4.88392 2.06137L5.0346 2.42491C5.05194 2.46677 5.03209 2.51474 4.99023 2.53211C4.97994 2.53638 4.9693 2.53839 4.95885 2.53839Z" fill="white"/>
<path d="M3.95817 3.11686C3.93354 3.11686 3.90919 3.10582 3.89304 3.08477L3.65344 2.77258C3.62585 2.73666 3.63262 2.68516 3.66858 2.65758C3.70451 2.63001 3.75602 2.63676 3.78359 2.67272L4.02319 2.98491C4.05077 3.02083 4.044 3.07233 4.00805 3.09991C3.99316 3.11135 3.97559 3.11686 3.95817 3.11686Z" fill="white"/>
<path d="M3.14105 3.93296C3.12361 3.93296 3.10605 3.92743 3.09117 3.91599L2.77896 3.67639C2.74301 3.6488 2.73623 3.59731 2.76382 3.56138C2.7914 3.52545 2.84292 3.51868 2.87883 3.54624L3.19104 3.78584C3.22699 3.81343 3.23376 3.86492 3.20618 3.90085C3.19003 3.92192 3.16568 3.93296 3.14105 3.93296Z" fill="white"/>
<path d="M2.5633 4.93395C2.55285 4.93395 2.54221 4.93194 2.53192 4.92767L2.16838 4.77699C2.12652 4.75965 2.10667 4.71165 2.12401 4.66979C2.14135 4.62795 2.18933 4.60805 2.23121 4.62542L2.59475 4.7761C2.63661 4.79344 2.65646 4.84144 2.63912 4.8833C2.62602 4.91487 2.59548 4.93395 2.5633 4.93395Z" fill="white"/>
<path d="M2.26425 6.05034C2.26069 6.05034 2.25708 6.05011 2.25344 6.04964L1.86354 5.99829C1.81861 5.99238 1.78699 5.95116 1.79292 5.90625C1.79883 5.86134 1.84003 5.82991 1.88496 5.83563L2.27487 5.88698C2.3198 5.89289 2.35141 5.93412 2.34548 5.97902C2.34005 6.0203 2.30477 6.05034 2.26425 6.05034Z" fill="white"/>
<path d="M5.60871 2.73282C5.5725 2.73282 5.53935 2.70866 5.52953 2.672L5.32593 1.91188C5.31421 1.86812 5.34018 1.82312 5.38394 1.8114C5.42767 1.7997 5.47267 1.82563 5.48442 1.86941L5.68802 2.62953C5.69974 2.67329 5.67377 2.71829 5.63001 2.73001C5.62289 2.73191 5.61574 2.73282 5.60871 2.73282Z" fill="white"/>
<path d="M4.63628 3.13555C4.60792 3.13555 4.58036 3.12085 4.56515 3.09453L4.1717 2.41309C4.14906 2.37385 4.16249 2.3237 4.20173 2.30103C4.24096 2.27842 4.29112 2.2918 4.31378 2.33106L4.70723 3.0125C4.72987 3.05174 4.71644 3.10189 4.6772 3.12456C4.66429 3.13199 4.65018 3.13555 4.63628 3.13555Z" fill="white"/>
<path d="M3.80091 3.77605C3.77991 3.77605 3.75891 3.76803 3.7429 3.75202L3.18657 3.19571C3.15453 3.16367 3.15453 3.11173 3.18657 3.07969C3.2186 3.04765 3.27054 3.04765 3.30258 3.07969L3.85892 3.63601C3.89096 3.66804 3.89096 3.71998 3.85892 3.75202C3.84289 3.76803 3.82189 3.77605 3.80091 3.77605Z" fill="white"/>
<path d="M3.15991 4.61122C3.14599 4.61122 3.1319 4.60768 3.11896 4.60022L2.43752 4.20678C2.39828 4.18411 2.38483 4.13396 2.40749 4.09472C2.43016 4.05549 2.48034 4.04208 2.51955 4.0647L3.20099 4.45814C3.24023 4.48081 3.25368 4.53097 3.23102 4.5702C3.21585 4.59652 3.18827 4.61122 3.15991 4.61122Z" fill="white"/>
<path d="M2.75733 5.5845C2.75032 5.5845 2.74317 5.58358 2.73605 5.58169L1.97592 5.37808C1.93216 5.36637 1.90619 5.32139 1.91791 5.27761C1.92963 5.23387 1.97454 5.2079 2.01839 5.2196L2.77851 5.4232C2.82227 5.43492 2.84824 5.4799 2.83652 5.52368C2.8267 5.56031 2.79356 5.5845 2.75733 5.5845Z" fill="white"/>
<path d="M2.61981 6.62793H1.83292C1.78761 6.62793 1.75089 6.5912 1.75089 6.5459C1.75089 6.50059 1.78761 6.46387 1.83292 6.46387H2.61981C2.66511 6.46387 2.70184 6.50059 2.70184 6.5459C2.70184 6.5912 2.66511 6.62793 2.61981 6.62793Z" fill="white"/>
<path d="M1.87412 7.25738C1.83357 7.25738 1.79832 7.22736 1.79288 7.18606C1.78698 7.14113 1.8186 7.09993 1.8635 7.09402L2.25341 7.04269C2.29843 7.03683 2.33954 7.06838 2.34545 7.11331C2.35135 7.15824 2.31974 7.19944 2.27483 7.20535L1.88492 7.25668C1.88129 7.25715 1.87768 7.25738 1.87412 7.25738Z" fill="white"/>
<path d="M2.19983 8.47299C2.16763 8.47299 2.13711 8.45394 2.12401 8.42234C2.10667 8.38051 2.12652 8.33251 2.16838 8.31516L2.53192 8.16448C2.57382 8.14712 2.62178 8.16701 2.63912 8.20887C2.65646 8.25071 2.63661 8.29871 2.59475 8.31605L2.23121 8.46673C2.22095 8.47097 2.21028 8.47299 2.19983 8.47299Z" fill="white"/>
<path d="M2.82895 9.56188C2.80432 9.56188 2.77997 9.55084 2.76382 9.52979C2.73623 9.49386 2.74301 9.44237 2.77896 9.41478L3.09117 9.17518C3.12712 9.14757 3.17862 9.15435 3.20618 9.19032C3.23376 9.22625 3.22699 9.27775 3.19104 9.30533L2.87883 9.54493C2.86394 9.55637 2.84639 9.56188 2.82895 9.56188Z" fill="white"/>
<path d="M3.71845 10.4518C3.70101 10.4518 3.68346 10.4463 3.66858 10.4349C3.63262 10.4073 3.62585 10.3558 3.65344 10.3199L3.89304 10.0077C3.92062 9.97175 3.97214 9.96496 4.00805 9.99254C4.044 10.0201 4.05077 10.0716 4.02319 10.1075L3.78359 10.4197C3.76741 10.4408 3.74306 10.4518 3.71845 10.4518Z" fill="white"/>
<path d="M4.8081 11.0814C4.79764 11.0814 4.787 11.0794 4.77671 11.0751C4.73485 11.0578 4.715 11.0098 4.73235 10.9679L4.88303 10.6044C4.90037 10.5625 4.94832 10.5426 4.99023 10.56C5.03209 10.5773 5.05194 10.6253 5.0346 10.6672L4.88392 11.0307C4.87082 11.0623 4.84028 11.0814 4.8081 11.0814Z" fill="white"/>
<path d="M6.02357 11.4065C6.02001 11.4065 6.0164 11.4063 6.01277 11.4058C5.96784 11.3999 5.93622 11.3587 5.94215 11.3138L5.9935 10.9239C5.99943 10.8789 6.04064 10.8474 6.08554 10.8532C6.13047 10.8592 6.16209 10.9004 6.15616 10.9453L6.10481 11.3352C6.09937 11.3765 6.06412 11.4065 6.02357 11.4065Z" fill="white"/>
<path d="M1.99711 7.87552C1.96087 7.87552 1.92773 7.85136 1.91791 7.81468C1.90619 7.77092 1.93216 7.72594 1.97592 7.71423L2.73605 7.5106C2.7799 7.49895 2.8248 7.52485 2.83652 7.56863C2.84824 7.61239 2.82227 7.65737 2.77851 7.66909L2.01839 7.87271C2.01129 7.87461 2.00414 7.87552 1.99711 7.87552Z" fill="white"/>
<path d="M2.47862 9.03803C2.45026 9.03803 2.42269 9.02331 2.40748 8.99699C2.38484 8.95775 2.39827 8.9076 2.43751 8.88493L3.11895 8.49149C3.15821 8.4688 3.20837 8.48228 3.23101 8.52151C3.25365 8.56075 3.24022 8.6109 3.20098 8.63357L2.51954 9.02701C2.50662 9.03449 2.49254 9.03803 2.47862 9.03803Z" fill="white"/>
<path d="M4.24265 10.8026C4.22873 10.8026 4.21465 10.799 4.20171 10.7916C4.16247 10.7689 4.14902 10.7187 4.17168 10.6795L4.56513 9.99806C4.58779 9.9588 4.63797 9.94539 4.67718 9.96804C4.71642 9.9907 4.72987 10.0409 4.70721 10.0801L4.31376 10.7615C4.29858 10.7879 4.27099 10.8026 4.24265 10.8026Z" fill="white"/>
<path d="M5.40522 11.2836C5.39819 11.2836 5.39107 11.2827 5.38394 11.2808C5.34018 11.2691 5.31421 11.2241 5.32593 11.1804L5.52953 10.4202C5.54125 10.3765 5.58616 10.3505 5.63001 10.3622C5.67377 10.3739 5.69974 10.4189 5.68802 10.4626L5.48442 11.2228C5.4746 11.2594 5.44146 11.2836 5.40522 11.2836Z" fill="white"/>
<path d="M6.65259 11.448C6.60728 11.448 6.57056 11.4113 6.57056 11.366V10.5791C6.57056 10.5338 6.60728 10.4971 6.65259 10.4971C6.69789 10.4971 6.73462 10.5338 6.73462 10.5791V11.366C6.73462 11.4113 6.69789 11.448 6.65259 11.448Z" fill="white"/>
<path d="M7.28157 11.4065C7.24105 11.4065 7.2058 11.3765 7.20036 11.3352L7.14903 10.9453C7.1431 10.9004 7.17474 10.8592 7.21965 10.8532C7.26467 10.8473 7.30578 10.8789 7.31169 10.9239L7.36301 11.3138C7.36894 11.3587 7.3373 11.3999 7.2924 11.4058C7.28876 11.4063 7.28513 11.4065 7.28157 11.4065Z" fill="white"/>
<path d="M8.49705 11.0814C8.46488 11.0814 8.43434 11.0623 8.42126 11.0307L8.27055 10.6672C8.25321 10.6253 8.27306 10.5773 8.31495 10.56C8.35666 10.5427 8.40478 10.5625 8.42213 10.6044L8.57283 10.9679C8.59017 11.0098 8.57032 11.0578 8.52844 11.0751C8.5182 11.0793 8.50755 11.0814 8.49705 11.0814Z" fill="white"/>
<path d="M9.58673 10.4518C9.5621 10.4518 9.53775 10.4408 9.5216 10.4198L9.28198 10.1076C9.25439 10.0716 9.26116 10.0201 9.29712 9.99256C9.333 9.96497 9.38452 9.97172 9.41213 10.0077L9.65175 10.3199C9.67934 10.3558 9.67256 10.4073 9.63661 10.4349C9.62175 10.4463 9.60417 10.4518 9.58673 10.4518Z" fill="white"/>
<path d="M10.4762 9.5619C10.4588 9.5619 10.4412 9.5564 10.4263 9.54494L10.1141 9.30533C10.0782 9.27775 10.0714 9.22626 10.099 9.19033C10.1265 9.15437 10.178 9.14755 10.214 9.17519L10.5262 9.41479C10.5621 9.44237 10.5689 9.49387 10.5413 9.52979C10.5252 9.55089 10.5008 9.5619 10.4762 9.5619Z" fill="white"/>
<path d="M11.1053 8.47299C11.0949 8.47299 11.0842 8.47097 11.074 8.46671L10.7104 8.31603C10.6686 8.29868 10.6487 8.25068 10.666 8.20885C10.6834 8.16696 10.7314 8.14716 10.7732 8.16446L11.1367 8.31514C11.1786 8.33248 11.1985 8.38048 11.1811 8.42232C11.1681 8.45393 11.1375 8.47299 11.1053 8.47299Z" fill="white"/>
<path d="M11.4311 7.2574C11.4275 7.2574 11.4239 7.25716 11.4202 7.2567L11.0303 7.20537C10.9854 7.19946 10.9538 7.15826 10.9597 7.11333C10.9656 7.06845 11.0069 7.03676 11.0517 7.04271L11.4416 7.09404C11.4866 7.09995 11.5182 7.14115 11.5123 7.18608C11.5068 7.22733 11.4716 7.2574 11.4311 7.2574Z" fill="white"/>
<path d="M7.89995 11.2836C7.86372 11.2836 7.83058 11.2595 7.82076 11.2228L7.61713 10.4626C7.60541 10.4189 7.63138 10.3739 7.67516 10.3622C7.7188 10.3505 7.7639 10.3764 7.77562 10.4202L7.97924 11.1804C7.99096 11.2241 7.96499 11.2691 7.92121 11.2808C7.91411 11.2827 7.90698 11.2836 7.89995 11.2836Z" fill="white"/>
<path d="M9.06245 10.8026C9.03412 10.8026 9.00653 10.7879 8.99135 10.7615L8.59792 10.0801C8.57526 10.0409 8.58871 9.9907 8.62795 9.96804C8.66713 9.94539 8.71734 9.9588 8.74 9.99806L9.13342 10.6795C9.15609 10.7187 9.14263 10.7689 9.1034 10.7916C9.09051 10.799 9.07638 10.8026 9.06245 10.8026Z" fill="white"/>
<path d="M10.0606 10.0358C10.0396 10.0358 10.0186 10.0278 10.0026 10.0118L9.44624 9.45545C9.4142 9.42344 9.4142 9.37147 9.44624 9.33946C9.47823 9.30742 9.53019 9.30742 9.56223 9.33946L10.1186 9.89577C10.1506 9.92779 10.1506 9.97975 10.1186 10.0118C10.1026 10.0278 10.0816 10.0358 10.0606 10.0358Z" fill="white"/>
<path d="M10.8265 9.03801C10.8126 9.03801 10.7985 9.03447 10.7856 9.027L10.1042 8.63355C10.0649 8.61089 10.0515 8.56073 10.0742 8.5215C10.0968 8.48224 10.147 8.46883 10.1862 8.49147L10.8676 8.88492C10.9069 8.90758 10.9203 8.95774 10.8976 8.99697C10.8825 9.02329 10.8549 9.03801 10.8265 9.03801Z" fill="white"/>
<path d="M11.308 7.87554C11.301 7.87554 11.2939 7.87463 11.2868 7.87273L10.5266 7.6691C10.4829 7.65738 10.4569 7.61241 10.4686 7.56865C10.4803 7.52487 10.5254 7.49892 10.5691 7.51062L11.3292 7.71424C11.373 7.72596 11.399 7.77094 11.3872 7.8147C11.3774 7.85137 11.3443 7.87554 11.308 7.87554Z" fill="white"/>
<path d="M11.4723 6.62793H10.6854C10.6401 6.62793 10.6033 6.5912 10.6033 6.5459C10.6033 6.50059 10.6401 6.46387 10.6854 6.46387H11.4723C11.5176 6.46387 11.5543 6.50059 11.5543 6.5459C11.5543 6.5912 11.5175 6.62793 11.4723 6.62793Z" fill="white"/>
<path d="M11.4723 6.62793H10.6854C10.6401 6.62793 10.6033 6.5912 10.6033 6.5459C10.6033 6.50059 10.6401 6.46387 10.6854 6.46387H11.4723C11.5176 6.46387 11.5543 6.50059 11.5543 6.5459C11.5543 6.5912 11.5175 6.62793 11.4723 6.62793Z" fill="white"/>
<path d="M11.0409 6.05035C11.0004 6.05035 10.9651 6.02031 10.9597 5.97903C10.9538 5.9341 10.9854 5.8929 11.0303 5.88699L11.4202 5.83564C11.4651 5.82988 11.5064 5.86135 11.5123 5.90626C11.5182 5.95119 11.4866 5.99239 11.4416 5.9983L11.0517 6.04965C11.0481 6.05012 11.0445 6.05035 11.0409 6.05035Z" fill="white"/>
<path d="M10.7419 4.93393C10.7097 4.93393 10.6791 4.91487 10.6661 4.88328C10.6487 4.84142 10.6686 4.79344 10.7105 4.77607L11.074 4.62539C11.1157 4.6081 11.1638 4.6279 11.1812 4.66976C11.1985 4.71162 11.1787 4.7596 11.1368 4.77696L10.7732 4.92764C10.763 4.93191 10.7523 4.93393 10.7419 4.93393Z" fill="white"/>
<path d="M10.1641 3.93296C10.1395 3.93296 10.1151 3.92193 10.099 3.90088C10.0714 3.86495 10.0782 3.81346 10.1141 3.78587L10.4263 3.54627C10.4623 3.51866 10.5137 3.52546 10.5413 3.56141C10.5689 3.59734 10.5621 3.64883 10.5262 3.67642L10.214 3.91602C10.1991 3.92746 10.1815 3.93296 10.1641 3.93296Z" fill="white"/>
<path d="M9.34701 3.1169C9.32959 3.1169 9.31204 3.11137 9.29713 3.09993C9.2612 3.07235 9.25443 3.02085 9.28199 2.98493L9.52161 2.67274C9.5492 2.63678 9.60062 2.62999 9.63662 2.6576C9.67255 2.68518 9.67933 2.73668 9.65176 2.7726L9.41214 3.08479C9.39599 3.10586 9.37164 3.1169 9.34701 3.1169Z" fill="white"/>
<path d="M8.34633 2.5384C8.33585 2.5384 8.32521 2.53638 8.31494 2.53211C8.27308 2.51477 8.25321 2.46677 8.27055 2.42491L8.42125 2.06137C8.4386 2.01951 8.48672 1.99969 8.52843 2.01701C8.57029 2.03435 8.59017 2.08235 8.57283 2.12421L8.42212 2.48775C8.40902 2.51932 8.3785 2.5384 8.34633 2.5384Z" fill="white"/>
<path d="M7.23044 2.2395C7.22688 2.2395 7.22325 2.23926 7.21962 2.2388C7.17471 2.23289 7.14307 2.19166 7.149 2.14676L7.20033 1.75685C7.20623 1.71192 7.24741 1.68044 7.29237 1.68623C7.33727 1.69214 7.36891 1.73337 7.36298 1.77827L7.31166 2.16818C7.30624 2.20945 7.27099 2.2395 7.23044 2.2395Z" fill="white"/>
<path d="M10.5478 5.58451C10.5116 5.58451 10.4784 5.56032 10.4686 5.52369C10.4569 5.47993 10.4829 5.43493 10.5266 5.42321L11.2868 5.21961C11.3305 5.20789 11.3755 5.23388 11.3872 5.27762C11.399 5.32137 11.373 5.36637 11.3292 5.37809L10.5691 5.58169C10.562 5.58357 10.5548 5.58451 10.5478 5.58451Z" fill="white"/>
<path d="M10.1453 4.61122C10.1169 4.61122 10.0893 4.59652 10.0742 4.5702C10.0515 4.53097 10.0649 4.48081 10.1042 4.45815L10.7856 4.0647C10.8248 4.04209 10.875 4.05547 10.8976 4.09473C10.9203 4.13396 10.9069 4.18412 10.8676 4.20678L10.1862 4.60023C10.1733 4.60768 10.1592 4.61122 10.1453 4.61122Z" fill="white"/>
<path d="M8.66889 3.13554C8.65497 3.13554 8.64086 3.132 8.62795 3.12455C8.58871 3.10189 8.57526 3.05173 8.59792 3.0125L8.99135 2.33105C9.01403 2.29182 9.06421 2.27841 9.1034 2.30103C9.14263 2.32369 9.15609 2.37385 9.13342 2.41308L8.74 3.09453C8.72481 3.12082 8.69723 3.13554 8.66889 3.13554Z" fill="white"/>
<path d="M7.69642 2.73282C7.68939 2.73282 7.68226 2.7319 7.67516 2.73001C7.6314 2.71829 7.60541 2.67331 7.61713 2.62953L7.82076 1.8694C7.83247 1.82567 7.87754 1.7997 7.92121 1.8114C7.96497 1.82312 7.99096 1.86809 7.97924 1.91187L7.77561 2.672C7.76579 2.70865 7.73265 2.73282 7.69642 2.73282Z" fill="white"/>
<path d="M6.65259 2.59548C6.60728 2.59548 6.57056 2.55876 6.57056 2.51345V1.72656C6.57056 1.68126 6.60728 1.64453 6.65259 1.64453C6.69789 1.64453 6.73462 1.68126 6.73462 1.72656V2.51345C6.73462 2.55876 6.69789 2.59548 6.65259 2.59548Z" fill="white"/>
</g>
<path d="M10.1133 3.08594L5.957 5.85105L6.6526 6.54665L10.1133 3.08594Z" fill="#F4413D"/>
<path d="M10.1133 3.08594L6.65259 6.54665L7.34819 7.24225L10.1133 3.08594Z" fill="#CC2B2B"/>
<path d="M5.95697 5.85059L3.19186 10.0069L6.65258 6.54619L5.95697 5.85059Z" fill="white"/>
<path d="M3.19186 10.0066L7.34818 7.2415L6.65258 6.5459L3.19186 10.0066Z" fill="#D8D8D8"/>
</g>
<defs>
<linearGradient id="paint0_linear_167_6598" x1="6.6526" y1="12.4477" x2="6.6526" y2="0.644531" gradientUnits="userSpaceOnUse">
<stop stop-color="#F2F2F2"/>
<stop offset="1" stop-color="white"/>
</linearGradient>
<linearGradient id="paint1_linear_167_6598" x1="6.65258" y1="12.4478" x2="6.65258" y2="0.644531" gradientUnits="userSpaceOnUse">
<stop/>
<stop offset="0.36" stop-opacity="0"/>
</linearGradient>
<linearGradient id="paint2_linear_167_6598" x1="6.65259" y1="11.8572" x2="6.65259" y2="1.23438" gradientUnits="userSpaceOnUse">
<stop stop-color="#3871E9"/>
<stop offset="1" stop-color="#61C5F6"/>
</linearGradient>
<linearGradient id="paint3_linear_167_6598" x1="6.6526" y1="11.8573" x2="6.6526" y2="1.23438" gradientUnits="userSpaceOnUse">
<stop/>
<stop offset="0.36" stop-opacity="0"/>
</linearGradient>
<clipPath id="clip0_167_6598">
<rect width="12" height="12" fill="white" transform="translate(0.652588 0.644531)"/>
</clipPath>
</defs>
</svg>
