<svg width="17" height="17" viewBox="0 0 17 17" fill="none" xmlns="http://www.w3.org/2000/svg">
<g clip-path="url(#clip0_290_15061)">
<path d="M4.65502 8.30378C4.57171 8.291 4.48765 8.28382 4.4034 8.28228C4.21408 8.27994 4.13355 8.34944 4.13411 8.34935C4.07827 8.38875 4.05121 8.44753 4.05121 8.52866C4.05121 8.58038 4.06061 8.62079 4.07902 8.64916C4.09108 8.66804 4.09615 8.67516 4.13252 8.70419L4.13305 8.7045C4.13246 8.70432 4.21596 8.77 4.40468 8.75863C4.53755 8.75063 4.65515 8.72532 4.65515 8.72532H4.65502V8.30378Z" fill="#00A1E2"/>
<path d="M10.2039 7.75195C10.0816 7.75195 9.99503 7.79367 9.93812 7.8807C9.88084 7.9683 9.85168 8.09295 9.85168 8.25167C9.85168 8.41042 9.88069 8.53623 9.93812 8.62442C9.99515 8.7118 10.0822 8.75436 10.2039 8.75436C10.3256 8.75436 10.4129 8.71145 10.4708 8.62383C10.5287 8.53511 10.5583 8.40998 10.5584 8.25139C10.5583 8.0928 10.5291 7.9682 10.4708 7.8807C10.4132 7.79411 10.3262 7.75195 10.2039 7.75195Z" fill="#00A1E2"/>
<path d="M6.47783 7.74512C6.35614 7.74512 6.26958 7.79271 6.21267 7.87974C6.17476 7.93674 6.15054 8.01021 6.13745 8.09834L6.79886 8.09846C6.79258 8.01318 6.77586 7.93709 6.7377 7.87974C6.68008 7.79296 6.59951 7.74512 6.47783 7.74512Z" fill="#00A1E2"/>
<path d="M12.6936 4.51382C12.2134 4.51357 11.7385 4.61476 11.3002 4.81073C10.8063 3.93473 9.88912 3.34679 8.83084 3.34679C8.03712 3.34679 7.31868 3.67954 6.80246 4.21691L6.80306 4.21998C6.23865 3.47626 5.33912 2.99707 4.33375 2.99707C2.617 2.99707 1.22359 4.3846 1.22359 6.10138C1.22315 6.52613 1.31021 6.94641 1.47934 7.33604C0.682089 7.80635 0.144714 8.67651 0.144714 9.67598C0.144714 11.1635 1.33821 12.3746 2.81393 12.3746C2.99846 12.3747 3.1825 12.3555 3.36306 12.3174C3.76871 13.4169 4.82112 14.1988 6.06165 14.1988C7.24928 14.1988 8.26934 13.4756 8.70734 12.4468C9.05159 12.6147 9.42965 12.7015 9.81265 12.7008C10.7533 12.7008 11.5794 12.1775 12.0115 11.4073C12.2338 11.4515 12.4607 11.4749 12.6935 11.4749C14.5985 11.4749 16.1447 9.91691 16.1447 7.99438C16.1447 6.07185 14.5985 4.51382 12.6936 4.51382ZM3.58387 8.55041C3.58387 8.83141 3.37987 9.00604 3.05181 9.00604C2.89071 9.00604 2.73668 8.98076 2.57325 8.89435C2.54268 8.87666 2.51215 8.86091 2.48212 8.83913C2.47887 8.83451 2.46525 8.82901 2.47531 8.80279L2.47506 8.80232L2.53975 8.62241C2.54996 8.5916 2.5735 8.60188 2.5829 8.60757C2.60071 8.61845 2.6139 8.62813 2.637 8.64163C2.82809 8.76238 3.0044 8.76335 3.05971 8.76335C3.202 8.76335 3.29078 8.68748 3.29078 8.58576V8.58023C3.29078 8.46969 3.15437 8.4276 2.99681 8.37916L2.962 8.36832C2.74565 8.30657 2.514 8.21723 2.514 7.94323V7.93763C2.514 7.67779 2.7239 7.4961 3.02431 7.4961L3.05706 7.49598C3.23343 7.49598 3.40393 7.54713 3.5274 7.62238C3.53862 7.6291 3.54956 7.64207 3.54334 7.65932C3.53746 7.67576 3.48262 7.8226 3.47631 7.83923C3.46471 7.86998 3.43287 7.84938 3.43287 7.84938C3.32528 7.78998 3.15712 7.74298 3.01603 7.74298C2.88903 7.74298 2.80671 7.8106 2.80671 7.90232V7.90779C2.80671 8.01482 2.94721 8.06079 3.11009 8.11357L3.13825 8.12269C3.35343 8.19032 3.5839 8.28495 3.5839 8.54482L3.58387 8.55041ZM4.92971 8.91198C4.92971 8.91198 4.89537 8.92132 4.86446 8.92841C4.787 8.9452 4.70918 8.96032 4.63106 8.97379C4.53934 8.98926 4.44468 8.99726 4.34943 8.99726C4.2589 8.99726 4.17659 8.98885 4.10368 8.9722C4.03018 8.95576 3.96653 8.92801 3.91496 8.89051C3.86312 8.85294 3.8215 8.80301 3.79384 8.74529C3.76562 8.6871 3.75134 8.61594 3.75134 8.53363C3.75134 8.45251 3.76809 8.38079 3.80096 8.31963C3.83353 8.25904 3.87959 8.20673 3.93559 8.16676C3.99143 8.12654 4.05671 8.09632 4.12903 8.07679C4.20075 8.05741 4.27778 8.04751 4.35715 8.04751C4.41537 8.04751 4.46415 8.04885 4.50178 8.05163L4.50265 8.05379C4.50265 8.05379 4.57615 8.06044 4.65553 8.07194V8.03273C4.65553 7.90929 4.62971 7.85054 4.57909 7.81166C4.52734 7.77198 4.44975 7.75169 4.34981 7.75169C4.34981 7.75169 4.12406 7.74876 3.9459 7.84579C3.93768 7.85066 3.93068 7.85341 3.93068 7.85341C3.93068 7.85341 3.9084 7.86126 3.90021 7.83838L3.83437 7.66201C3.82437 7.63645 3.84271 7.62513 3.84271 7.62513C3.92618 7.55973 4.12843 7.52044 4.12843 7.52044C4.19546 7.50698 4.30775 7.4976 4.37712 7.4976C4.56231 7.4976 4.70518 7.54051 4.80278 7.62579C4.90071 7.71104 4.95034 7.84919 4.95034 8.03501L4.95087 8.88163C4.9509 8.88163 4.95265 8.90613 4.92971 8.91198ZM5.55175 8.94182C5.55175 8.95735 5.54068 8.96998 5.52518 8.96998H5.27925C5.26365 8.96998 5.25262 8.95735 5.25262 8.94182V6.96238C5.25262 6.94691 5.26368 6.93438 5.27925 6.93438H5.52518C5.54071 6.93438 5.55175 6.94688 5.55175 6.96238V8.94182ZM7.08884 8.30404C7.08631 8.32794 7.06184 8.32813 7.06184 8.32813L6.1329 8.32744C6.13818 8.46857 6.17228 8.56791 6.2405 8.6361C6.30753 8.70273 6.41453 8.74523 6.558 8.74548C6.77846 8.74607 6.87253 8.70151 6.93896 8.67669C6.93896 8.67669 6.96459 8.66751 6.97396 8.69288L7.03453 8.86279C7.04668 8.89145 7.03693 8.90135 7.02671 8.90713C6.96909 8.93945 6.828 8.99913 6.5599 9.00004C6.42937 9.00044 6.3165 8.98169 6.22303 8.94554C6.12896 8.90907 6.05078 8.85735 5.98962 8.79091C5.92906 8.72507 5.88368 8.64573 5.85556 8.55516C5.82753 8.46519 5.81346 8.36582 5.81346 8.25885C5.81346 8.15419 5.82706 8.05426 5.85403 7.9631C5.88106 7.87082 5.92359 7.79026 5.97984 7.72207C6.03628 7.65385 6.10803 7.59929 6.19328 7.55919C6.27853 7.51941 6.38378 7.49982 6.49959 7.49982C6.5909 7.49966 6.68131 7.51801 6.76534 7.55376C6.82356 7.57844 6.88175 7.62373 6.94171 7.68779C6.97934 7.72838 7.03718 7.81716 7.06046 7.90473L7.06112 7.90491C7.12065 8.11354 7.08984 8.29416 7.08884 8.30404ZM7.85509 9.00557C7.694 9.00557 7.53996 8.98026 7.3765 8.89385C7.34593 8.87616 7.31531 8.86041 7.28537 8.83863C7.28203 8.83401 7.26837 8.82854 7.27843 8.80232L7.27771 8.80182L7.3424 8.62191C7.35187 8.59254 7.37956 8.60332 7.3855 8.6071C7.40303 8.61838 7.41653 8.62766 7.43965 8.64113C7.63015 8.76188 7.80693 8.76285 7.86237 8.76285C8.00465 8.76285 8.09343 8.68701 8.09343 8.58529V8.57976C8.09343 8.46923 7.95762 8.42713 7.79946 8.37866L7.76471 8.36785C7.54837 8.3061 7.31671 8.21673 7.31671 7.94276V7.93716C7.31671 7.67729 7.52659 7.4956 7.82703 7.4956L7.85984 7.49551C8.03621 7.49551 8.20671 7.54666 8.33018 7.62191C8.34134 7.6286 8.35234 7.6416 8.34606 7.65885C8.34078 7.67529 8.28584 7.82213 8.27962 7.83876C8.26796 7.86948 8.23612 7.84891 8.23612 7.84891C8.12793 7.78948 7.96037 7.74251 7.81928 7.74251C7.69228 7.74251 7.60996 7.8101 7.60996 7.90185V7.90732C7.60996 8.01432 7.75046 8.06032 7.91334 8.1131L7.9415 8.12223C8.15728 8.18982 8.38715 8.28448 8.38715 8.54435V8.54988C8.38718 8.83095 8.18315 9.00557 7.85509 9.00557ZM9.47843 7.75163C9.47309 7.77957 9.44734 7.7786 9.44734 7.7786H9.14184L8.9329 8.96088C8.91096 9.0831 8.88359 9.18801 8.8514 9.27248C8.81887 9.35776 8.7849 9.42026 8.73087 9.47991C8.6809 9.53526 8.6244 9.5761 8.5595 9.59957C8.495 9.62285 8.41721 9.63485 8.33184 9.63485C8.29109 9.63485 8.24759 9.6341 8.19596 9.62191C8.15881 9.61316 8.13853 9.60691 8.11125 9.59716C8.09962 9.59298 8.09037 9.57851 8.09696 9.56016C8.10343 9.54157 8.15806 9.39138 8.16575 9.37166C8.17521 9.34757 8.19925 9.35673 8.19925 9.35673C8.21578 9.36366 8.22725 9.3686 8.24928 9.37298C8.27134 9.37738 8.30118 9.38116 8.32365 9.38116C8.364 9.38116 8.40078 9.37623 8.43278 9.36544C8.47153 9.35244 8.49396 9.33016 8.51768 9.29988C8.54215 9.2686 8.56203 9.22551 8.58237 9.16801C8.603 9.10976 8.62165 9.03285 8.63793 8.93938L8.8459 7.7786H8.64093C8.61625 7.77873 8.60831 7.76719 8.61071 7.74873L8.64528 7.55588C8.65068 7.52785 8.67637 7.52891 8.67637 7.52891H8.8869L8.89825 7.46604C8.92971 7.27985 8.99243 7.13835 9.08462 7.04544C9.17746 6.95185 9.30968 6.90444 9.47743 6.90444C9.51965 6.90398 9.56184 6.90726 9.6035 6.91419C9.63446 6.9196 9.66506 6.92685 9.69515 6.93594C9.70175 6.93854 9.7195 6.94732 9.71221 6.96826L9.64131 7.16298C9.63537 7.17763 9.63131 7.18657 9.60109 7.17732C9.59356 7.1751 9.5824 7.17185 9.55365 7.16576C9.53278 7.16138 9.50537 7.15804 9.47746 7.15804C9.44375 7.15757 9.41015 7.16245 9.37793 7.17238C9.34853 7.18204 9.3219 7.1986 9.30028 7.22073C9.27712 7.24395 9.24978 7.27776 9.23525 7.31966C9.20121 7.41788 9.18775 7.52213 9.18628 7.52885H9.48278C9.50759 7.52873 9.51546 7.54026 9.51306 7.55873L9.47843 7.75163ZM10.8318 8.54666C10.8048 8.63779 10.763 8.71776 10.7072 8.78479C10.6513 8.85182 10.5802 8.90541 10.4967 8.94351C10.4132 8.98163 10.3144 9.00101 10.2033 9.00101C10.0922 9.00101 9.9934 8.98163 9.90934 8.94351C9.82584 8.90529 9.75478 8.85179 9.69887 8.78479C9.64303 8.71773 9.60109 8.63779 9.57421 8.54666C9.54746 8.45613 9.53387 8.35735 9.53387 8.2521C9.53387 8.14688 9.54746 8.0481 9.57421 7.95754C9.60124 7.86641 9.64312 7.78645 9.69887 7.71944C9.75471 7.65241 9.82587 7.59857 9.90934 7.55954C9.9934 7.52054 10.0916 7.50073 10.2033 7.50073C10.315 7.50073 10.4138 7.52041 10.4973 7.55954C10.5813 7.59832 10.6518 7.65244 10.7077 7.71944C10.7636 7.78648 10.8054 7.86641 10.8324 7.95754H10.8318C10.8585 8.04807 10.8721 8.14744 10.8721 8.2521C10.8721 8.35738 10.8585 8.45613 10.8318 8.54666ZM11.9685 7.57366L11.9691 7.56985C11.9603 7.59513 11.9151 7.72207 11.8992 7.76448C11.8931 7.7806 11.8832 7.79151 11.8653 7.78951C11.8653 7.78951 11.8121 7.77707 11.7636 7.77707C11.7214 7.77707 11.6794 7.78294 11.6389 7.7946C11.5957 7.80801 11.5564 7.8316 11.5242 7.86338C11.4906 7.89632 11.4632 7.94223 11.4431 7.99979C11.4227 8.05798 11.4125 8.15029 11.4125 8.24319V8.93694C11.4125 8.95248 11.3999 8.96504 11.3844 8.96507H11.141C11.1255 8.96504 11.1129 8.95248 11.1128 8.93694V7.55529C11.1128 7.53976 11.124 7.52726 11.1394 7.52726H11.3769C11.3926 7.52726 11.4036 7.53976 11.4036 7.55529L11.4037 7.66816C11.439 7.61994 11.5026 7.57826 11.5601 7.55235C11.6183 7.52623 11.6829 7.5066 11.7993 7.51391C11.8599 7.51766 11.9387 7.53429 11.9546 7.54032C11.9548 7.54041 11.9551 7.54054 11.9553 7.54063C11.9681 7.5461 11.974 7.56088 11.9685 7.57366ZM13.1402 8.92848C13.0368 8.96948 12.8927 8.99785 12.7522 8.99785C12.5147 8.99785 12.3324 8.92966 12.2113 8.79444C12.0902 8.65979 12.0291 8.47579 12.0291 8.24882C12.0291 8.1436 12.0441 8.04423 12.0737 7.95369C12.1037 7.86257 12.1484 7.7826 12.2072 7.7156C12.266 7.64854 12.3401 7.59466 12.4277 7.55566C12.5153 7.51663 12.6176 7.49694 12.7328 7.49694C12.8104 7.49694 12.8792 7.50163 12.9386 7.51069C13.0021 7.52029 13.0859 7.54301 13.1214 7.55691C13.128 7.55944 13.1458 7.56826 13.1386 7.58913C13.1127 7.66204 13.095 7.70963 13.0709 7.77607C13.0607 7.80435 13.0392 7.79498 13.0392 7.79498C12.9487 7.76666 12.8622 7.75354 12.7493 7.75354C12.6141 7.75354 12.5118 7.79941 12.4454 7.8876C12.3781 7.97694 12.3406 8.09338 12.3401 8.2486C12.3395 8.4191 12.3819 8.54488 12.4577 8.6231C12.533 8.70123 12.6388 8.74069 12.7711 8.74069C12.8246 8.74069 12.8754 8.7371 12.921 8.72991C12.9663 8.72285 13.0088 8.70876 13.0486 8.69354C13.0486 8.69354 13.0746 8.68348 13.0836 8.7101H13.0838L13.1514 8.89588C13.16 8.91894 13.1402 8.92848 13.1402 8.92848ZM14.515 8.30404C14.5124 8.32794 14.488 8.32813 14.488 8.32813L13.559 8.32744C13.5643 8.46857 13.5984 8.56791 13.6666 8.6361C13.7337 8.70273 13.8401 8.74523 13.9841 8.74548C14.2046 8.74607 14.2986 8.70151 14.3651 8.67669C14.3651 8.67669 14.3907 8.66751 14.4 8.69288L14.4606 8.86279C14.4727 8.89145 14.463 8.90135 14.4527 8.90713C14.3951 8.93945 14.254 8.99913 13.9859 9.00004C13.8559 9.00044 13.7425 8.98169 13.649 8.94554C13.5549 8.90907 13.4767 8.85735 13.4156 8.79091C13.3544 8.72507 13.3091 8.64573 13.281 8.55516C13.2531 8.46519 13.2389 8.36582 13.2389 8.25885C13.2389 8.15419 13.2526 8.05426 13.2796 7.9631C13.3067 7.87082 13.3491 7.79026 13.4054 7.72207C13.4619 7.65385 13.5336 7.59929 13.6188 7.55919C13.7041 7.51941 13.8093 7.49982 13.9252 7.49982C14.0165 7.49966 14.1069 7.51801 14.1909 7.55376C14.2491 7.57844 14.3073 7.62373 14.3673 7.68779C14.4049 7.72838 14.4627 7.81716 14.486 7.90473L14.4873 7.90491C14.5468 8.11354 14.516 8.29416 14.515 8.30404Z" fill="#00A1E2"/>
<path d="M13.9034 7.74512C13.7817 7.74512 13.6951 7.79271 13.6383 7.87974C13.6003 7.93674 13.5761 8.01021 13.563 8.09834L14.2245 8.09846C14.2182 8.01318 14.2015 7.93709 14.1633 7.87974C14.1057 7.79296 14.0251 7.74512 13.9034 7.74512Z" fill="#00A1E2"/>
</g>
<defs>
<clipPath id="clip0_290_15061">
<rect width="16" height="16" fill="white" transform="translate(0.144714 0.597656)"/>
</clipPath>
</defs>
</svg>
