<svg width="16" height="12" viewBox="0 0 16 12" fill="none" xmlns="http://www.w3.org/2000/svg">
<path d="M4.51031 6.07875C4.42699 6.06597 4.34293 6.05878 4.25868 6.05725C4.06937 6.0549 3.98884 6.1244 3.9894 6.12431C3.93356 6.16372 3.90649 6.2225 3.90649 6.30362C3.90649 6.35534 3.9159 6.39575 3.93431 6.42412C3.94637 6.443 3.95143 6.45012 3.98781 6.47915L3.98834 6.47947C3.98774 6.47928 4.07124 6.54497 4.25996 6.53359C4.39284 6.52559 4.51043 6.50028 4.51043 6.50028H4.51031V6.07875Z" fill="currentColor"/>
<path d="M10.0592 5.52728C9.93694 5.52728 9.85038 5.569 9.79347 5.65603C9.73619 5.74363 9.70703 5.86828 9.70703 6.027C9.70703 6.18575 9.73603 6.31156 9.79347 6.39975C9.8505 6.48713 9.9375 6.52969 10.0592 6.52969C10.1809 6.52969 10.2683 6.48678 10.3261 6.39916C10.3841 6.31044 10.4137 6.18531 10.4137 6.02672C10.4137 5.86813 10.3844 5.74353 10.3261 5.65603C10.2685 5.56944 10.1815 5.52728 10.0592 5.52728Z" fill="currentColor"/>
<path d="M6.33305 5.52026C6.21136 5.52026 6.1248 5.56786 6.06789 5.65489C6.02999 5.71189 6.00577 5.78536 5.99268 5.87348L6.65408 5.87361C6.6478 5.78833 6.63108 5.71223 6.59293 5.65489C6.5353 5.56811 6.45474 5.52026 6.33305 5.52026Z" fill="currentColor"/>
<path d="M12.5488 2.28872C12.0687 2.28847 11.5938 2.38966 11.1554 2.58563C10.6616 1.70963 9.74441 1.12169 8.68612 1.12169C7.89241 1.12169 7.17397 1.45444 6.65775 1.99182L6.65834 1.99488C6.09394 1.25116 5.19441 0.771973 4.18903 0.771973C2.47228 0.771973 1.07887 2.1595 1.07887 3.87629C1.07844 4.30104 1.1655 4.72132 1.33463 5.11094C0.537375 5.58125 0 6.45141 0 7.45088C0 8.93838 1.1935 10.1495 2.66922 10.1495C2.85375 10.1496 3.03778 10.1304 3.21834 10.0923C3.624 11.1918 4.67641 11.9737 5.91694 11.9737C7.10456 11.9737 8.12463 11.2505 8.56262 10.2217C8.90687 10.3896 9.28494 10.4764 9.66794 10.4757C10.6086 10.4757 11.4347 9.95244 11.8668 9.18222C12.0891 9.22644 12.316 9.24982 12.5488 9.24982C14.4538 9.24982 16 7.69182 16 5.76929C16 3.84675 14.4537 2.28872 12.5488 2.28872ZM3.43916 6.32532C3.43916 6.60632 3.23516 6.78094 2.90709 6.78094C2.746 6.78094 2.59197 6.75566 2.42853 6.66925C2.39797 6.65157 2.36744 6.63582 2.33741 6.61403C2.33416 6.60941 2.32053 6.60391 2.33059 6.57769L2.33034 6.57722L2.39503 6.39732C2.40525 6.3665 2.42878 6.37679 2.43819 6.38247C2.456 6.39335 2.46919 6.40304 2.49228 6.41654C2.68337 6.53729 2.85969 6.53825 2.915 6.53825C3.05728 6.53825 3.14606 6.46238 3.14606 6.36066V6.35513C3.14606 6.2446 3.00966 6.2025 2.85209 6.15407L2.81728 6.14322C2.60094 6.08147 2.36928 5.99213 2.36928 5.71813V5.71253C2.36928 5.45269 2.57919 5.271 2.87959 5.271L2.91234 5.27088C3.08872 5.27088 3.25922 5.32203 3.38269 5.39728C3.39391 5.404 3.40484 5.41697 3.39862 5.43422C3.39275 5.45066 3.33791 5.5975 3.33159 5.61413C3.32 5.64488 3.28816 5.62429 3.28816 5.62429C3.18056 5.56488 3.01241 5.51788 2.87131 5.51788C2.74431 5.51788 2.662 5.5855 2.662 5.67722V5.68269C2.662 5.78972 2.8025 5.83569 2.96537 5.88847L2.99353 5.8976C3.20872 5.96522 3.43919 6.05985 3.43919 6.31972L3.43916 6.32532ZM4.785 6.68688C4.785 6.68688 4.75066 6.69622 4.71975 6.70332C4.64228 6.7201 4.56447 6.73522 4.48634 6.74869C4.39463 6.76416 4.29997 6.77216 4.20472 6.77216C4.11419 6.77216 4.03187 6.76375 3.95897 6.7471C3.88547 6.73066 3.82181 6.70291 3.77025 6.66541C3.71841 6.62785 3.67678 6.57791 3.64913 6.52019C3.62091 6.462 3.60663 6.39085 3.60663 6.30854C3.60663 6.22741 3.62337 6.15569 3.65625 6.09453C3.68881 6.03394 3.73487 5.98163 3.79087 5.94166C3.84672 5.90144 3.912 5.87122 3.98431 5.85169C4.05603 5.83232 4.13306 5.82241 4.21244 5.82241C4.27066 5.82241 4.31944 5.82375 4.35706 5.82654L4.35794 5.82869C4.35794 5.82869 4.43144 5.83535 4.51081 5.84685V5.80763C4.51081 5.68419 4.485 5.62544 4.43437 5.58657C4.38262 5.54688 4.30503 5.5266 4.20509 5.5266C4.20509 5.5266 3.97934 5.52366 3.80119 5.62069C3.79297 5.62557 3.78597 5.62832 3.78597 5.62832C3.78597 5.62832 3.76369 5.63616 3.7555 5.61329L3.68966 5.43691C3.67966 5.41135 3.698 5.40003 3.698 5.40003C3.78147 5.33463 3.98372 5.29535 3.98372 5.29535C4.05075 5.28188 4.16303 5.2725 4.23241 5.2725C4.41759 5.2725 4.56047 5.31541 4.65806 5.40069C4.756 5.48594 4.80562 5.6241 4.80562 5.80991L4.80616 6.65654C4.80619 6.65654 4.80794 6.68104 4.785 6.68688ZM5.40703 6.71672C5.40703 6.73225 5.39597 6.74488 5.38047 6.74488H5.13453C5.11894 6.74488 5.10791 6.73225 5.10791 6.71672V4.73729C5.10791 4.72182 5.11897 4.70929 5.13453 4.70929H5.38047C5.396 4.70929 5.40703 4.72179 5.40703 4.73729V6.71672ZM6.94413 6.07894C6.94159 6.10285 6.91713 6.10303 6.91713 6.10303L5.98819 6.10235C5.99347 6.24347 6.02756 6.34282 6.09578 6.411C6.16281 6.47763 6.26981 6.52013 6.41328 6.52038C6.63375 6.52097 6.72781 6.47641 6.79425 6.4516C6.79425 6.4516 6.81987 6.44241 6.82925 6.46778L6.88981 6.63769C6.90197 6.66635 6.89222 6.67625 6.882 6.68204C6.82438 6.71435 6.68328 6.77403 6.41519 6.77494C6.28466 6.77535 6.17178 6.7566 6.07831 6.72044C5.98425 6.68397 5.90606 6.63225 5.84491 6.56582C5.78434 6.49997 5.73897 6.42063 5.71084 6.33007C5.68281 6.2401 5.66875 6.14072 5.66875 6.03375C5.66875 5.9291 5.68234 5.82916 5.70931 5.738C5.73634 5.64572 5.77887 5.56516 5.83512 5.49697C5.89156 5.42875 5.96331 5.37419 6.04856 5.3341C6.13381 5.29432 6.23906 5.27472 6.35488 5.27472C6.44619 5.27457 6.53659 5.29291 6.62063 5.32866C6.67884 5.35335 6.73703 5.39863 6.797 5.46269C6.83462 5.50328 6.89247 5.59207 6.91575 5.67963L6.91641 5.67982C6.97594 5.88844 6.94513 6.06907 6.94413 6.07894ZM7.71037 6.78047C7.54928 6.78047 7.39525 6.75516 7.23178 6.66875C7.20122 6.65107 7.17059 6.63532 7.14066 6.61353C7.13731 6.60891 7.12366 6.60344 7.13372 6.57722L7.133 6.57672L7.19769 6.39682C7.20716 6.36744 7.23484 6.37822 7.24078 6.382C7.25831 6.39328 7.27181 6.40257 7.29494 6.41603C7.48544 6.53678 7.66222 6.53775 7.71766 6.53775C7.85994 6.53775 7.94872 6.46191 7.94872 6.36019V6.35466C7.94872 6.24413 7.81291 6.20203 7.65475 6.15357L7.62 6.14275C7.40366 6.081 7.172 5.99163 7.172 5.71766V5.71207C7.172 5.45219 7.38188 5.2705 7.68231 5.2705L7.71513 5.27041C7.8915 5.27041 8.062 5.32157 8.18547 5.39682C8.19662 5.4035 8.20762 5.4165 8.20134 5.43375C8.19606 5.45019 8.14112 5.59703 8.13491 5.61366C8.12325 5.64438 8.09141 5.62382 8.09141 5.62382C7.98322 5.56438 7.81566 5.51741 7.67456 5.51741C7.54756 5.51741 7.46525 5.585 7.46525 5.67675V5.68222C7.46525 5.78922 7.60575 5.83522 7.76862 5.888L7.79678 5.89713C8.01256 5.96472 8.24244 6.05938 8.24244 6.31925V6.32479C8.24247 6.60585 8.03844 6.78047 7.71037 6.78047ZM9.33372 5.52654C9.32837 5.55447 9.30262 5.5535 9.30262 5.5535H8.99712L8.78819 6.73579C8.76625 6.858 8.73888 6.96291 8.70669 7.04738C8.67416 7.13266 8.64019 7.19516 8.58616 7.25482C8.53619 7.31016 8.47969 7.351 8.41478 7.37447C8.35028 7.39775 8.2725 7.40975 8.18713 7.40975C8.14638 7.40975 8.10288 7.409 8.05125 7.39682C8.01409 7.38807 7.99381 7.38182 7.96653 7.37207C7.95491 7.36788 7.94566 7.35341 7.95225 7.33507C7.95872 7.31647 8.01334 7.16629 8.02103 7.14657C8.0305 7.12247 8.05453 7.13163 8.05453 7.13163C8.07106 7.13857 8.08253 7.1435 8.10456 7.14788C8.12663 7.15229 8.15647 7.15607 8.17894 7.15607C8.21928 7.15607 8.25606 7.15113 8.28806 7.14035C8.32681 7.12735 8.34925 7.10507 8.37297 7.07479C8.39744 7.0435 8.41731 7.00041 8.43766 6.94291C8.45828 6.88466 8.47694 6.80775 8.49322 6.71428L8.70119 5.5535H8.49622C8.47153 5.55363 8.46359 5.5421 8.466 5.52363L8.50056 5.33079C8.50597 5.30275 8.53166 5.30382 8.53166 5.30382H8.74219L8.75353 5.24094C8.785 5.05475 8.84772 4.91325 8.93991 4.82035C9.03275 4.72675 9.16497 4.67935 9.33272 4.67935C9.37494 4.67888 9.41712 4.68216 9.45878 4.6891C9.48975 4.6945 9.52034 4.70175 9.55044 4.71085C9.55703 4.71344 9.57478 4.72222 9.5675 4.74316L9.49659 4.93788C9.49066 4.95253 9.48659 4.96147 9.45638 4.95222C9.44884 4.95 9.43769 4.94675 9.40894 4.94066C9.38806 4.93629 9.36066 4.93294 9.33275 4.93294C9.29903 4.93247 9.26544 4.93735 9.23322 4.94729C9.20381 4.95694 9.17719 4.9735 9.15556 4.99563C9.13241 5.01885 9.10506 5.05266 9.09053 5.09457C9.0565 5.19279 9.04303 5.29704 9.04156 5.30375H9.33806C9.36287 5.30363 9.37075 5.31516 9.36834 5.33363L9.33372 5.52654ZM10.6871 6.32157C10.6601 6.41269 10.6182 6.49266 10.5624 6.55969C10.5066 6.62672 10.4354 6.68032 10.352 6.71841C10.2685 6.75654 10.1697 6.77591 10.0586 6.77591C9.94747 6.77591 9.84869 6.75654 9.76462 6.71841C9.68112 6.68019 9.61006 6.62669 9.55416 6.55969C9.49831 6.49263 9.45637 6.41269 9.4295 6.32157C9.40275 6.23103 9.38916 6.13225 9.38916 6.027C9.38916 5.92178 9.40275 5.823 9.4295 5.73244C9.45653 5.64132 9.49841 5.56135 9.55416 5.49435C9.61 5.42732 9.68116 5.37347 9.76462 5.33444C9.84869 5.29544 9.94687 5.27563 10.0586 5.27563C10.1703 5.27563 10.2691 5.29532 10.3526 5.33444C10.4366 5.37322 10.5071 5.42735 10.563 5.49435C10.6189 5.56138 10.6607 5.64132 10.6877 5.73244H10.6871C10.7138 5.82297 10.7274 5.92235 10.7274 6.027C10.7274 6.13229 10.7138 6.23103 10.6871 6.32157ZM11.8238 5.34857L11.8244 5.34475C11.8156 5.37004 11.7704 5.49697 11.7544 5.53938C11.7484 5.5555 11.7384 5.56641 11.7206 5.56441C11.7206 5.56441 11.6673 5.55197 11.6188 5.55197C11.5767 5.55197 11.5347 5.55785 11.4942 5.5695C11.451 5.58291 11.4117 5.6065 11.3795 5.63829C11.3458 5.67122 11.3185 5.71713 11.2984 5.77469C11.278 5.83288 11.2678 5.92519 11.2678 6.0181V6.71185C11.2678 6.72738 11.2552 6.73994 11.2397 6.73997H10.9963C10.9808 6.73994 10.9682 6.72738 10.9681 6.71185V5.33019C10.9681 5.31466 10.9793 5.30216 10.9947 5.30216H11.2322C11.2478 5.30216 11.2588 5.31466 11.2588 5.33019L11.259 5.44307C11.2942 5.39485 11.3578 5.35316 11.4153 5.32725C11.4736 5.30113 11.5382 5.2815 11.6546 5.28882C11.7152 5.29257 11.794 5.30919 11.8098 5.31522C11.8101 5.31532 11.8104 5.31544 11.8106 5.31554C11.8234 5.321 11.8293 5.33579 11.8238 5.34857ZM12.9955 6.70338C12.8921 6.74438 12.748 6.77275 12.6075 6.77275C12.37 6.77275 12.1877 6.70457 12.0666 6.56935C11.9455 6.43469 11.8843 6.25069 11.8843 6.02372C11.8843 5.9185 11.8993 5.81913 11.929 5.7286C11.959 5.63747 12.0037 5.5575 12.0625 5.4905C12.1213 5.42344 12.1954 5.36957 12.283 5.33057C12.3706 5.29154 12.4729 5.27185 12.5881 5.27185C12.6657 5.27185 12.7345 5.27654 12.7939 5.2856C12.8574 5.29519 12.9412 5.31791 12.9767 5.33182C12.9833 5.33435 13.0011 5.34316 12.9938 5.36404C12.968 5.43694 12.9503 5.48453 12.9262 5.55097C12.9159 5.57925 12.8945 5.56988 12.8945 5.56988C12.8039 5.54157 12.7175 5.52844 12.6046 5.52844C12.4694 5.52844 12.3671 5.57432 12.3007 5.6625C12.2333 5.75185 12.1958 5.86829 12.1954 6.0235C12.1948 6.194 12.2372 6.31978 12.313 6.398C12.3882 6.47613 12.4941 6.5156 12.6264 6.5156C12.6799 6.5156 12.7307 6.512 12.7763 6.50482C12.8216 6.49775 12.8641 6.48366 12.9039 6.46844C12.9039 6.46844 12.9299 6.45838 12.9388 6.485H12.9391L13.0067 6.67078C13.0153 6.69385 12.9955 6.70338 12.9955 6.70338ZM14.3702 6.07894C14.3677 6.10285 14.3433 6.10303 14.3433 6.10303L13.4143 6.10235C13.4196 6.24347 13.4537 6.34282 13.5219 6.411C13.5889 6.47763 13.6953 6.52013 13.8394 6.52038C14.0598 6.52097 14.1539 6.47641 14.2203 6.4516C14.2203 6.4516 14.246 6.44241 14.2553 6.46778L14.3158 6.63769C14.328 6.66635 14.3183 6.67625 14.308 6.68204C14.2503 6.71435 14.1093 6.77403 13.8412 6.77494C13.7112 6.77535 13.5977 6.7566 13.5043 6.72044C13.4102 6.68397 13.332 6.63225 13.2709 6.56582C13.2097 6.49997 13.1644 6.42063 13.1362 6.33007C13.1084 6.2401 13.0942 6.14072 13.0942 6.03375C13.0942 5.9291 13.1079 5.82916 13.1349 5.738C13.1619 5.64572 13.2043 5.56516 13.2607 5.49697C13.3172 5.42875 13.3889 5.37419 13.4741 5.3341C13.5594 5.29432 13.6646 5.27472 13.7804 5.27472C13.8717 5.27457 13.9622 5.29291 14.0462 5.32866C14.1044 5.35335 14.1626 5.39863 14.2226 5.46269C14.2602 5.50328 14.318 5.59207 14.3413 5.67963L14.3426 5.67982C14.4021 5.88844 14.3713 6.06907 14.3702 6.07894Z" fill="currentColor"/>
<path d="M13.7587 5.52026C13.637 5.52026 13.5504 5.56786 13.4936 5.65489C13.4556 5.71189 13.4314 5.78536 13.4183 5.87348L14.0797 5.87361C14.0735 5.78833 14.0568 5.71223 14.0186 5.65489C13.961 5.56811 13.8804 5.52026 13.7587 5.52026Z" fill="currentColor"/>
</svg>
