<svg width="66" height="25" viewBox="0 0 66 25" fill="none" xmlns="http://www.w3.org/2000/svg">
<path d="M8.30815 2.94586C8.00129 3.13411 7.75562 3.25272 7.509 3.37602C6.58748 3.86737 5.7272 4.29754 4.80568 4.78795C4.74167 4.82431 4.68966 4.87863 4.6562 4.94421C4.62274 5.0098 4.60923 5.08376 4.61736 5.15693V23.7755C4.61736 24.0212 4.55624 24.2057 4.31057 24.2669C3.85464 24.4552 3.36009 24.5312 2.86866 24.4884C2.37722 24.4457 1.90328 24.2854 1.48672 24.0212C1.18046 23.8059 0.919692 23.5323 0.7194 23.216C0.519108 22.8997 0.383245 22.547 0.319539 22.1782C0.16509 21.182 0.102006 20.1737 0.131213 19.166C0.0700298 14.2497 0.00884184 9.27315 0.00884184 4.35683C-0.0391441 3.57511 0.108741 2.79379 0.439038 2.08366C0.717224 1.49016 1.19816 1.01548 1.79523 0.745067C2.39231 0.474657 3.06627 0.42627 3.69584 0.608649C4.56928 0.871444 5.39798 1.26499 6.15361 1.77586C6.82945 2.14484 7.50528 2.51287 8.11994 2.88186C8.18583 2.82255 8.24697 2.88373 8.30815 2.94586Z" fill="white"/>
<path d="M8.42562 21.8722V16.5257C8.42418 16.4535 8.44058 16.382 8.47342 16.3176C8.50627 16.2532 8.55449 16.198 8.61384 16.1568C10.7035 14.9886 12.7931 13.8214 14.8206 12.6542C15.3732 12.3464 15.9267 12.0396 16.5404 11.6706C16.1852 11.4424 15.8157 11.2371 15.4343 11.0559C14.5128 10.5025 13.5914 10.0111 12.6699 9.45577C12.6245 9.42494 12.5708 9.40843 12.5159 9.40843C12.461 9.40843 12.4075 9.42494 12.3621 9.45577C11.1949 10.1928 10.0889 10.8677 8.92074 11.6066C8.85956 11.6066 8.85957 11.6678 8.79745 11.6678V7.73511C8.7957 7.65403 8.81159 7.57356 8.8441 7.49927C8.87661 7.42498 8.92492 7.35866 8.98566 7.30494C10.0305 6.56791 11.0744 5.89301 12.058 5.1541C12.1147 5.12386 12.1778 5.10806 12.242 5.10806C12.3062 5.10806 12.3695 5.12386 12.4261 5.1541C13.838 5.95325 15.3139 6.81358 16.7277 7.61179C17.7104 8.16432 18.6941 8.71779 19.7399 9.27032C20.4878 9.65971 21.1069 10.2573 21.5226 10.991C21.7844 11.4684 21.8896 12.016 21.8234 12.5565C21.7572 13.097 21.5229 13.603 21.1536 14.0031C20.6679 14.5555 20.0846 15.0137 19.433 15.3548C18.021 16.1539 16.6675 17.0143 15.2546 17.8125C13.4728 18.8573 11.7521 19.84 9.97026 20.8848C9.40926 21.2576 8.91697 21.5607 8.42562 21.8722Z" fill="white"/>
<path d="M27.4988 4.11411V5.22235H29.7801V6.3294H27.4988V8.05733H26.0251V3.00706H30.0847V4.11411H27.4988Z" fill="white"/>
<path d="M30.7439 3.02145H32.2175V8.04298H30.7439V3.02145Z" fill="white"/>
<path d="M35.1578 6.7201H34.3501V8.04329H32.8765V3.02115H35.2398C36.6579 3.02115 37.5476 3.72286 37.5476 4.8838C37.5622 5.21576 37.4748 5.54445 37.2967 5.82812C37.1185 6.11179 36.8575 6.33764 36.5469 6.47701L37.6567 8.04269H36.1018L35.1578 6.7201ZM35.1855 4.1282H34.3778V5.58611H35.1843C35.7959 5.58611 36.1018 5.31608 36.1018 4.85685C36.074 4.42517 35.7959 4.1282 35.1843 4.1282H35.1855Z" fill="white"/>
<path d="M42.4588 6.93624V8.04329H38.316V3.02115H42.3755V4.1282H39.7619V4.96642H42.0697V6.01958H39.7619V6.93744L42.4588 6.93624Z" fill="white"/>
<path d="M44.5914 4.11406V5.22231H46.8727V6.32936H44.5914V8.05729H43.1178V3.00701H47.1773V4.11406H44.5914Z" fill="white"/>
<path d="M47.8364 3.02115H49.31V6.90929H51.7825V8.04329H47.8623V3.02115H47.8364Z" fill="white"/>
<path d="M52.4415 3.02145H53.9151V8.04298H52.4415V3.02145Z" fill="white"/>
<path d="M59.4959 3.02145V8.04298H58.3004L56.0191 5.37026V8.04298H54.5745V3.02145H55.77L58.0513 5.69417V3.02145H59.4959Z" fill="white"/>
<path d="M62.1569 6.22067L61.602 6.78766V8.05637H60.1549V3.00789H61.6008V5.08667L63.6028 3.00789H65.2151L63.1021 5.22318L65.3267 8.03122H63.6305L62.1569 6.22067Z" fill="white"/>
<path d="M28.2005 15.079V16.852H31.8502V18.6231H28.2005V21.3876H25.8429V13.3078H32.3375V15.079H28.2005Z" fill="#00A5E3"/>
<path d="M37.5793 21.5176C36.8137 21.5176 36.11 21.3398 35.4682 20.9841C34.8341 20.6284 34.3276 20.1335 33.9487 19.4994C33.5776 18.8576 33.392 18.1384 33.392 17.3419C33.392 16.5454 33.5776 15.8302 33.9487 15.1961C34.3276 14.562 34.8341 14.0671 35.4682 13.7114C36.11 13.3557 36.8137 13.1778 37.5793 13.1778C38.3448 13.1778 39.0446 13.3557 39.6787 13.7114C40.3206 14.0671 40.8232 14.562 41.1866 15.1961C41.5578 15.8302 41.7434 16.5454 41.7434 17.3419C41.7434 18.1384 41.5578 18.8576 41.1866 19.4994C40.8155 20.1335 40.3128 20.6284 39.6787 20.9841C39.0446 21.3398 38.3448 21.5176 37.5793 21.5176ZM37.5793 19.7082C38.2288 19.7082 38.7469 19.4916 39.1336 19.0586C39.5279 18.6256 39.7251 18.0533 39.7251 17.3419C39.7251 16.6228 39.5279 16.0505 39.1336 15.6252C38.7469 15.1922 38.2288 14.9757 37.5793 14.9757C36.922 14.9757 36.3962 15.1883 36.0018 15.6136C35.6151 16.0389 35.4218 16.615 35.4218 17.3419C35.4218 18.0611 35.6151 18.6372 36.0018 19.0702C36.3962 19.4955 36.922 19.7082 37.5793 19.7082Z" fill="#00A5E3"/>
<path d="M46.9504 21.419L45.2569 18.3453H44.7813V21.419H42.7979V13.2764H46.1268C46.7686 13.2764 47.3138 13.3885 47.7623 13.6128C48.2185 13.837 48.5588 14.1463 48.783 14.5407C49.0073 14.9274 49.1194 15.3604 49.1194 15.8398C49.1194 16.3811 48.9648 16.8644 48.6554 17.2897C48.3539 17.715 47.9054 18.0166 47.3099 18.1945L49.189 21.419H46.9504ZM44.7813 16.9417H46.0108C46.3743 16.9417 46.6449 16.8528 46.8228 16.675C47.0084 16.4971 47.1012 16.2458 47.1012 15.921C47.1012 15.6117 47.0084 15.3681 46.8228 15.1903C46.6449 15.0124 46.3743 14.9235 46.0108 14.9235H44.7813V16.9417Z" fill="#00A5E3"/>
<path d="M50.2434 17.3535C50.2434 16.5493 50.4174 15.834 50.7654 15.2077C51.1133 14.5736 51.5966 14.0825 52.2153 13.7346C52.8416 13.3789 53.5492 13.201 54.3379 13.201C55.3045 13.201 56.1319 13.4562 56.8202 13.9666C57.5084 14.4769 57.9685 15.1729 58.2005 16.0544H56.0198C55.8574 15.7142 55.6254 15.4551 55.3239 15.2773C55.03 15.0994 54.6936 15.0105 54.3147 15.0105C53.7038 15.0105 53.2089 15.2231 52.83 15.6484C52.4511 16.0737 52.2617 16.6421 52.2617 17.3535C52.2617 18.0649 52.4511 18.6333 52.83 19.0586C53.2089 19.4839 53.7038 19.6966 54.3147 19.6966C54.6936 19.6966 55.03 19.6076 55.3239 19.4298C55.6254 19.2519 55.8574 18.9929 56.0198 18.6526H58.2005C57.9685 19.5342 57.5084 20.2301 56.8202 20.7405C56.1319 21.2431 55.3045 21.4944 54.3379 21.4944C53.5492 21.4944 52.8416 21.3204 52.2153 20.9725C51.5966 20.6168 51.1133 20.1257 50.7654 19.4994C50.4174 18.873 50.2434 18.1577 50.2434 17.3535Z" fill="#00A5E3"/>
<path d="M61.2383 14.8655V16.5126H63.8946V18.0437H61.2383V19.83H64.2425V21.419H59.2549V13.2764H64.2425V14.8655H61.2383Z" fill="#00A5E3"/>
</svg>
