<svg width="16" height="16" viewBox="0 0 16 16" fill="none" xmlns="http://www.w3.org/2000/svg">
<path d="M1.95052 10.3182C1.66316 9.57636 1.51722 8.78726 1.52023 7.9917C1.52436 7.13661 1.69693 6.29071 2.02808 5.50233C2.35922 4.71395 2.84245 3.99854 3.45016 3.39697C4.05787 2.7954 4.77816 2.31945 5.56986 1.99633C6.36156 1.67321 7.20917 1.50924 8.06426 1.51379C8.37072 1.51497 8.67678 1.5363 8.98044 1.57766L8.24709 2.31927H8.04798C6.26244 2.31827 4.58035 3.15531 3.50337 4.57993C2.4264 6.00455 2.07976 7.85144 2.56665 9.5691H7.55457L5.43517 13.4653L10.4549 8.38192H3.60231L11.3227 0.717079C10.2852 0.242691 9.15731 -0.001912 8.01642 1.1254e-05C6.26845 0.00182586 4.56887 0.574325 3.17606 1.63048C1.78324 2.68663 0.773361 4.16868 0.299937 5.85131C-0.173487 7.53395 -0.0845626 9.32515 0.553193 10.9526C1.19095 12.5801 2.34265 13.9548 3.83323 14.8678L6.22362 10.35L1.95052 10.3182ZM12.1994 1.14712L9.80921 5.66542H14.0878C14.4651 6.64903 14.5975 7.70966 14.4735 8.75583C14.3495 9.802 13.9729 10.8023 13.3761 11.6705C12.7793 12.5386 11.9803 13.2485 11.0479 13.739C10.1156 14.2295 9.07793 14.4858 8.02443 14.4859C7.70732 14.4847 7.3906 14.4634 7.07619 14.422L7.80127 13.6889H8.02669C9.53771 13.6889 10.9866 13.0888 12.0551 12.0204C13.1236 10.9519 13.7237 9.50323 13.7237 7.99195C13.7169 7.46969 13.6446 6.95035 13.5085 6.44611H8.51834L10.5979 2.51789L5.48276 7.60899H12.3511L4.71811 15.3056C6.57721 16.1338 8.68151 16.2246 10.605 15.5597C12.5286 14.8948 14.1276 13.5239 15.0785 11.7244C16.0293 9.925 16.2609 7.83151 15.7264 5.86775C15.1919 3.90399 13.9313 2.21667 12.1996 1.14737L12.1994 1.14712Z" fill="#E1251B"/>
</svg>
