<svg width="14" height="14" viewBox="0 0 14 14" fill="none" xmlns="http://www.w3.org/2000/svg">
<path d="M8.85888 0.0622222L8.82103 0.154782C8.90163 0.187744 8.97513 0.235931 9.03749 0.296703C9.03764 0.29684 9.03778 0.296978 9.03792 0.297115L13.7034 4.96264C13.7035 4.96272 13.7036 4.96279 13.7037 4.96287C13.7664 5.02615 13.816 5.10118 13.8497 5.18366C13.8834 5.26624 13.9005 5.35467 13.9 5.44387V5.44444V11.6667C13.9 12.259 13.6647 12.827 13.2459 13.2459C12.827 13.6647 12.259 13.9 11.6667 13.9H2.33333C1.74101 13.9 1.17296 13.6647 0.754128 13.2459C0.335297 12.827 0.1 12.259 0.1 11.6667V2.33333C0.1 1.74102 0.335297 1.17296 0.754128 0.754128C1.17296 0.335297 1.74101 0.1 2.33333 0.1H8.55458C8.64607 0.101819 8.73645 0.120414 8.82123 0.154865L8.85888 0.0622222ZM8.85888 0.0622222C8.76245 0.0230354 8.65962 0.00194295 8.55555 0L9.10777 0.225556C9.0361 0.155594 8.95159 0.100133 8.85888 0.0622222ZM4.66666 1.45556H4.56666V1.55556V3.11111V3.21111H4.66666H7.77777H7.87777V3.11111V1.55556V1.45556H7.77777H4.66666ZM9.33332 12.5444H9.43332V12.4444V10.1111C9.43332 9.87831 9.34084 9.65504 9.17623 9.49043C9.01161 9.32581 8.78835 9.23333 8.55555 9.23333H5.44444C5.21164 9.23333 4.98837 9.32581 4.82376 9.49043C4.65914 9.65504 4.56666 9.87831 4.56666 10.1111V12.4444V12.5444H4.66666H9.33332ZM10.7889 12.4444V12.5444H10.8889H11.6667C11.8995 12.5444 12.1227 12.452 12.2873 12.2874C12.452 12.1227 12.5444 11.8995 12.5444 11.6667V5.76333V5.72191L12.5151 5.69262L9.40404 2.58151L9.23332 2.4108V2.65222V3.88889C9.23332 4.06865 9.16192 4.24104 9.03481 4.36815C8.9077 4.49526 8.7353 4.56667 8.55555 4.56667H3.88889C3.70913 4.56667 3.53673 4.49526 3.40962 4.36815C3.28252 4.24104 3.21111 4.06865 3.21111 3.88889V1.55556V1.45556H3.11111H2.33333C2.10053 1.45556 1.87726 1.54804 1.71265 1.71265C1.54803 1.87727 1.45555 2.10053 1.45555 2.33333V11.6667C1.45555 11.8995 1.54803 12.1227 1.71265 12.2873C1.87726 12.452 2.10053 12.5444 2.33333 12.5444H3.11111H3.21111V12.4444V10.1111C3.21111 9.51879 3.4464 8.95074 3.86524 8.53191C4.28407 8.11307 4.85212 7.87778 5.44444 7.87778H8.55555C9.14786 7.87778 9.71592 8.11307 10.1348 8.53191C10.5536 8.95074 10.7889 9.51879 10.7889 10.1111V12.4444Z" fill="#71347B" stroke="#F7EBFF" stroke-width="0.2"/>
</svg>
