<svg width="16" height="16" viewBox="0 0 16 16" fill="none" xmlns="http://www.w3.org/2000/svg">
<path fill-rule="evenodd" clip-rule="evenodd" d="M0 11.0164C0 9.89509 0.909019 8.98608 2.03034 8.98608H4.98357C6.1049 8.98608 7.01392 9.89509 7.01392 11.0164V13.9697C7.01392 15.091 6.1049 16 4.98357 16H2.03034C0.909019 16 0 15.091 0 13.9697V11.0164ZM2.03034 10.0935C1.52065 10.0935 1.10746 10.5067 1.10746 11.0164V13.9697C1.10746 14.4794 1.52065 14.8925 2.03034 14.8925H4.98357C5.49327 14.8925 5.90646 14.4794 5.90646 13.9697V11.0164C5.90646 10.5067 5.49327 10.0935 4.98357 10.0935H2.03034Z" fill="currentcolor"/>
<path fill-rule="evenodd" clip-rule="evenodd" d="M0 2.15675C0 1.03542 0.909019 0.126404 2.03034 0.126404H4.98357C6.1049 0.126404 7.01392 1.03542 7.01392 2.15675V5.10998C7.01392 6.2313 6.1049 7.14032 4.98357 7.14032H2.03034C0.909019 7.14032 0 6.2313 0 5.10998V2.15675ZM2.03034 1.23386C1.52065 1.23386 1.10746 1.64705 1.10746 2.15675V5.10998C1.10746 5.61967 1.52065 6.03286 2.03034 6.03286H4.98357C5.49327 6.03286 5.90646 5.61967 5.90646 5.10998V2.15675C5.90646 1.64705 5.49327 1.23386 4.98357 1.23386H2.03034Z" fill="currentcolor"/>
<path fill-rule="evenodd" clip-rule="evenodd" d="M8.85986 11.0164C8.85986 9.89509 9.76887 8.98608 10.8902 8.98608H13.8434C14.9648 8.98608 15.8738 9.89509 15.8738 11.0164V13.9697C15.8738 15.091 14.9648 16 13.8434 16H10.8902C9.76887 16 8.85986 15.091 8.85986 13.9697V11.0164ZM10.8902 10.0935C10.3805 10.0935 9.96732 10.5067 9.96732 11.0164V13.9697C9.96732 14.4794 10.3805 14.8925 10.8902 14.8925H13.8434C14.3532 14.8925 14.7663 14.4794 14.7663 13.9697V11.0164C14.7663 10.5067 14.3532 10.0935 13.8434 10.0935H10.8902Z" fill="currentcolor"/>
<path fill-rule="evenodd" clip-rule="evenodd" d="M8.35783 5.55426C7.56497 4.76136 7.56497 3.47582 8.35783 2.68292L10.4461 0.594676C11.239 -0.198226 12.5245 -0.198225 13.3174 0.594676L15.4057 2.68292C16.1986 3.47582 16.1986 4.76136 15.4057 5.55426L13.3174 7.64251C12.5245 8.43538 11.239 8.43538 10.4461 7.64251L8.35783 5.55426ZM9.14096 3.46601C8.78051 3.82642 8.78051 4.41076 9.14096 4.77117L11.2292 6.85939C11.5896 7.21983 12.1739 7.21983 12.5344 6.85939L14.6226 4.77117C14.983 4.41076 14.983 3.82642 14.6226 3.46601L12.5344 1.37777C12.1739 1.01736 11.5896 1.01736 11.2292 1.37777L9.14096 3.46601Z" fill="currentcolor"/>
</svg>
