<svg width="17" height="17" viewBox="0 0 17 17" fill="none" xmlns="http://www.w3.org/2000/svg">
<g clip-path="url(#clip0_369_16343)">
<path d="M10.9647 1.05344C10.5117 0.716985 9.9663 0.527632 9.40223 0.510941C7.7605 0.471404 6.11795 0.539048 4.48504 0.713441C3.3941 0.840004 2.34785 1.88625 2.22129 2.97719C1.93535 5.65375 1.93535 10.6238 2.22129 13.3003C2.34629 14.3913 3.3941 15.4375 4.48504 15.5641C7.15448 15.8501 9.84685 15.8501 12.5163 15.5641C13.6072 15.4375 14.6532 14.3913 14.78 13.3003C14.9747 11.4772 15.0369 8.59032 14.9675 6.08875V6.07844C14.9626 5.53929 14.7876 5.01544 14.4675 4.58157C13.481 3.23859 12.3006 2.04958 10.9647 1.05344Z" fill="#4193D2"/>
<path d="M12.7592 4.16C12.7595 3.57592 12.6982 2.99343 12.5764 2.42219C12.0686 1.93248 11.5303 1.47532 10.9649 1.05344C10.5118 0.716985 9.96643 0.527632 9.40236 0.510941C7.76064 0.471404 6.11808 0.539048 4.48517 0.713441C3.39423 0.840004 2.34798 1.88625 2.22142 2.97719C1.9733 5.29969 1.94017 9.34844 2.12298 12.1278C2.88173 12.3493 3.66819 12.4615 4.45861 12.4609C9.04298 12.4609 12.7592 8.74438 12.7592 4.16Z" fill="#48A4DF"/>
<path d="M14.9654 6.08953C14.7573 6.09484 14.5495 6.09828 14.3426 6.09828C13.464 6.09801 12.586 6.05118 11.7123 5.95797H11.7048C11.1839 5.89766 10.672 5.63922 10.2636 5.23078C9.85513 4.82234 9.59669 4.31016 9.53607 3.78953C9.53607 3.78703 9.53607 3.78453 9.53607 3.78203C9.42 2.69603 9.37574 1.60355 9.40357 0.511719C9.96764 0.528409 10.513 0.717763 10.9661 1.05422C12.3041 2.05292 13.4862 3.24502 14.4736 4.59141C14.7913 5.02304 14.9636 5.54451 14.9654 6.08047V6.08953Z" fill="#34344F"/>
<path d="M10.0219 11.1309H5.10938C4.99334 11.1309 4.88206 11.177 4.80002 11.259C4.71797 11.341 4.67188 11.4523 4.67188 11.5684C4.67188 11.6844 4.71797 11.7957 4.80002 11.8777C4.88206 11.9598 4.99334 12.0059 5.10938 12.0059H10.0219C10.1379 12.0059 10.2492 11.9598 10.3312 11.8777C10.4133 11.7957 10.4594 11.6844 10.4594 11.5684C10.4594 11.4523 10.4133 11.341 10.3312 11.259C10.2492 11.177 10.1379 11.1309 10.0219 11.1309Z" fill="white"/>
<path d="M5.10937 9.80859H11.8906C12.0067 9.80859 12.1179 9.7625 12.2 9.68045C12.282 9.59841 12.3281 9.48713 12.3281 9.37109C12.3281 9.25506 12.282 9.14378 12.2 9.06173C12.1179 8.97969 12.0067 8.93359 11.8906 8.93359H5.10937C4.99334 8.93359 4.88206 8.97969 4.80002 9.06173C4.71797 9.14378 4.67188 9.25506 4.67188 9.37109C4.67188 9.48713 4.71797 9.59841 4.80002 9.68045C4.88206 9.7625 4.99334 9.80859 5.10937 9.80859Z" fill="white"/>
<path d="M5.10938 7.61328H9.70312C9.81916 7.61328 9.93044 7.56719 10.0125 7.48514C10.0945 7.40309 10.1406 7.29181 10.1406 7.17578C10.1406 7.05975 10.0945 6.94847 10.0125 6.86642C9.93044 6.78438 9.81916 6.73828 9.70312 6.73828H5.10938C4.99334 6.73828 4.88206 6.78438 4.80002 6.86642C4.71797 6.94847 4.67188 7.05975 4.67188 7.17578C4.67188 7.29181 4.71797 7.40309 4.80002 7.48514C4.88206 7.56719 4.99334 7.61328 5.10938 7.61328Z" fill="white"/>
<path d="M12.878 9.25586C12.1617 9.2558 11.4614 9.46816 10.8658 9.8661C10.2701 10.264 9.80583 10.8297 9.53165 11.4915C9.25747 12.1533 9.1857 12.8815 9.32542 13.5841C9.46513 14.2867 9.81006 14.9321 10.3166 15.4387C10.8231 15.9452 11.4684 16.2902 12.171 16.43C12.8736 16.5698 13.6019 16.4981 14.2637 16.2239C14.9255 15.9498 15.4912 15.4856 15.8892 14.89C16.2872 14.2944 16.4996 13.5941 16.4996 12.8777C16.4996 11.9172 16.1181 10.996 15.4389 10.3168C14.7597 9.63757 13.8386 9.25594 12.878 9.25586Z" fill="#F9973E"/>
<path d="M14.6289 13.4721H12.8789C12.7214 13.4721 12.5704 13.4096 12.4591 13.2982C12.3477 13.1869 12.2852 13.0358 12.2852 12.8784V10.7715C12.2852 10.614 12.3477 10.463 12.4591 10.3516C12.5704 10.2403 12.7214 10.1777 12.8789 10.1777C13.0364 10.1777 13.1874 10.2403 13.2988 10.3516C13.4101 10.463 13.4727 10.614 13.4727 10.7715V12.2846H14.6289C14.7864 12.2846 14.9374 12.3472 15.0488 12.4585C15.1601 12.5699 15.2227 12.7209 15.2227 12.8784C15.2227 13.0358 15.1601 13.1869 15.0488 13.2982C14.9374 13.4096 14.7864 13.4721 14.6289 13.4721Z" fill="white"/>
</g>
<defs>
<clipPath id="clip0_369_16343">
<rect width="16" height="16" fill="white" transform="translate(0.5 0.5)"/>
</clipPath>
</defs>
</svg>
