<svg width="16" height="17" viewBox="0 0 16 17" fill="none" xmlns="http://www.w3.org/2000/svg">
<path d="M15.2515 6.55017C15.5276 6.55017 15.7515 6.77403 15.7515 7.05017V10.6761C15.7514 12.5379 15.3824 13.9718 14.4272 14.9271C13.4718 15.8824 12.0374 16.2523 10.1753 16.2523H5.82471C3.9627 16.2523 2.52918 15.8823 1.57373 14.9271C0.618379 13.9718 0.248613 12.5381 0.248535 10.6761V9.25427C0.248745 8.97831 0.472522 8.75427 0.748535 8.75427C1.02455 8.75427 1.24833 8.97831 1.24854 9.25427V10.6761C1.24857 11.5141 1.32986 12.2029 1.48682 12.7679L4.53076 10.725H4.53174L4.67627 10.6361C5.36931 10.2541 6.27357 10.2982 6.9165 10.7572L7.05029 10.8617L7.0542 10.8656L7.29346 11.0756C7.6722 11.3969 8.30626 11.3963 8.68311 11.0726L11.6997 8.48376L11.8452 8.36951C12.5992 7.83906 13.6901 7.87743 14.396 8.48376L14.7515 8.78845V7.05017C14.7515 6.77413 14.9755 6.55033 15.2515 6.55017ZM13.7446 9.24255C13.3902 8.93811 12.8083 8.91883 12.4253 9.18494L12.3511 9.24255L9.33447 11.8314L9.3335 11.8304C8.58057 12.4769 7.39111 12.4769 6.63818 11.8304L6.6333 11.8275L6.39893 11.6205L6.33154 11.5687C6.00925 11.3415 5.52451 11.3123 5.16357 11.5092L5.08838 11.5551L1.88232 13.7074C1.9998 13.9003 2.13186 14.0712 2.28076 14.2201C2.95695 14.896 4.06139 15.2523 5.82471 15.2523H10.1753C11.9387 15.2523 13.044 14.8961 13.7202 14.2201C14.3961 13.544 14.7514 12.4392 14.7515 10.6761V10.1068L13.7446 9.24255ZM5.82471 3.6488C6.10071 3.64889 6.32459 3.87281 6.32471 4.1488C6.32471 4.42489 6.10078 4.64872 5.82471 4.6488C5.30334 4.64887 4.8747 5.07766 4.87451 5.599C4.87451 6.12049 5.30323 6.54912 5.82471 6.54919C6.34617 6.54911 6.7749 6.12048 6.7749 5.599C6.77509 5.3231 6.99899 5.09914 7.2749 5.099C7.55086 5.09908 7.77472 5.32307 7.7749 5.599C7.7749 6.67277 6.89846 7.54911 5.82471 7.54919C4.75095 7.54913 3.87451 6.67278 3.87451 5.599C3.8747 4.52538 4.75106 3.64887 5.82471 3.6488ZM8.82568 0.758179C9.05375 0.804627 9.2251 1.00663 9.2251 1.24841C9.2251 1.4902 9.05375 1.6922 8.82568 1.73865L8.7251 1.74841H5.82471C4.06112 1.74841 2.95692 2.10448 2.28076 2.78064C1.6046 3.4568 1.24854 4.561 1.24854 6.32458C1.24851 6.60071 1.02466 6.82458 0.748535 6.82458C0.472408 6.82458 0.248559 6.60071 0.248535 6.32458C0.248535 4.46237 0.618278 3.02906 1.57373 2.07361C2.52918 1.11816 3.96249 0.748413 5.82471 0.748413H8.7251L8.82568 0.758179ZM12.3511 0.748413C12.6272 0.748413 12.8511 0.972271 12.8511 1.24841V4.39197L13.4478 3.79529C13.643 3.60016 13.9595 3.60025 14.1548 3.79529C14.35 3.99053 14.35 4.30705 14.1548 4.50232L12.7046 5.95251C12.6852 5.97191 12.6639 5.98862 12.6421 6.00427C12.6313 6.01205 12.6201 6.01894 12.6089 6.02576C12.598 6.03235 12.587 6.0386 12.5757 6.04431C12.5619 6.05128 12.5479 6.05725 12.5337 6.06287C12.5249 6.06631 12.5162 6.06969 12.5073 6.07263C12.4909 6.07807 12.4744 6.08262 12.4575 6.0863C12.4485 6.08828 12.4393 6.08971 12.4302 6.09119C12.4142 6.09376 12.3984 6.09602 12.3823 6.09705C12.3706 6.09778 12.3589 6.09713 12.3472 6.09705C12.3341 6.09696 12.3211 6.09814 12.3081 6.09705C12.2943 6.09586 12.2808 6.09256 12.2671 6.09021C12.2 6.07887 12.1345 6.05583 12.0757 6.01697L12.0571 6.00134C12.0402 5.98896 12.0244 5.97559 12.0093 5.9613L11.9976 5.95251L10.5474 4.50232L10.4829 4.42419C10.3548 4.23013 10.3765 3.96612 10.5474 3.79529C10.7182 3.62458 10.9823 3.60274 11.1763 3.73083L11.2544 3.79529L11.8511 4.39197V1.24841C11.8511 0.972277 12.0749 0.748424 12.3511 0.748413Z" fill="#71347B"/>
</svg>
