<svg width="16" height="16" viewBox="0 0 16 16" fill="none" xmlns="http://www.w3.org/2000/svg">
<g clip-path="url(#clip0_886_18387)">
<path d="M14.0437 0H12.0493C11.7904 0 11.5806 0.209875 11.5806 0.46875C11.5806 0.727625 11.7904 0.9375 12.0493 0.9375H14.0437C14.6056 0.9375 15.0627 1.39462 15.0627 1.95653V3.95091C15.0627 4.20978 15.2726 4.41966 15.5315 4.41966C15.7903 4.41966 16.0002 4.20978 16.0002 3.95091V1.95653C16.0002 0.877688 15.1225 0 14.0437 0Z" fill="currentColor"/>
<path d="M0.46875 4.41966C0.727625 4.41966 0.9375 4.20978 0.9375 3.95091V1.95653C0.9375 1.39462 1.39462 0.9375 1.95653 0.9375H3.95091C4.20978 0.9375 4.41966 0.727625 4.41966 0.46875C4.41966 0.209875 4.20978 0 3.95091 0H1.95653C0.877688 0 0 0.877688 0 1.95653V3.95091C0 4.20978 0.209875 4.41966 0.46875 4.41966Z" fill="currentColor"/>
<path d="M3.95091 15.0625H1.95653C1.39462 15.0625 0.9375 14.6054 0.9375 14.0434V12.0491C0.9375 11.7902 0.727625 11.5803 0.46875 11.5803C0.209875 11.5803 0 11.7902 0 12.0491V14.0434C0 15.1223 0.877688 16 1.95653 16H3.95091C4.20978 16 4.41966 15.7901 4.41966 15.5312C4.41966 15.2724 4.20978 15.0625 3.95091 15.0625Z" fill="currentColor"/>
<path d="M15.5315 11.5803C15.2726 11.5803 15.0627 11.7902 15.0627 12.0491V14.0434C15.0627 14.6054 14.6056 15.0625 14.0437 15.0625H12.0493C11.7904 15.0625 11.5806 15.2724 11.5806 15.5312C11.5806 15.7901 11.7904 16 12.0493 16H14.0437C15.1225 16 16.0002 15.1223 16.0002 14.0434V12.0491C16.0002 11.7902 15.7903 11.5803 15.5315 11.5803Z" fill="currentColor"/>
<path d="M2.04883 2.51758V13.4824C2.04883 13.7412 2.2587 13.9511 2.51758 13.9511H13.4824C13.7412 13.9511 13.9511 13.7412 13.9511 13.4824V2.51758C13.9511 2.2587 13.7412 2.04883 13.4824 2.04883H2.51758C2.2587 2.04883 2.04883 2.2587 2.04883 2.51758ZM2.98633 13.0136V11.5346H3.95089C4.0752 11.5346 4.19442 11.4853 4.28233 11.3973L6.09892 9.58073L7.23392 10.7157C7.41695 10.8988 7.71377 10.8988 7.89683 10.7157L10.1416 8.47092L11.7716 10.1008C11.8595 10.1887 11.9787 10.2381 12.103 10.2381H13.0136V13.0136H2.98633V13.0136ZM13.0136 2.98633V9.30064H12.2972L10.4731 7.47655C10.2901 7.29348 9.99327 7.29348 9.8102 7.47655L7.56539 9.72133L6.43039 8.58636C6.24736 8.4033 5.95055 8.4033 5.76748 8.58636L3.75673 10.5971H2.98633V2.98633H13.0136Z" fill="currentColor"/>
<path d="M7.99983 6.58193C8.79345 6.58193 9.43911 5.93628 9.43911 5.14265C9.43911 4.34903 8.79345 3.70337 7.99983 3.70337C7.2062 3.70337 6.56055 4.34903 6.56055 5.14265C6.56055 5.93628 7.2062 6.58193 7.99983 6.58193ZM7.99983 4.64087C8.27652 4.64087 8.50161 4.86596 8.50161 5.14265C8.50161 5.41934 8.27652 5.64443 7.99983 5.64443C7.72314 5.64443 7.49805 5.41934 7.49805 5.14265C7.49805 4.86596 7.72314 4.64087 7.99983 4.64087Z" fill="currentColor"/>
</g>
<defs>
<clipPath id="clip0_886_18387">
<rect width="16" height="16" fill="white"/>
</clipPath>
</defs>
</svg>
