<svg width="18" height="17" viewBox="0 0 18 17" fill="none" xmlns="http://www.w3.org/2000/svg">
<path d="M4.68714 13.1255C3.48645 13.1255 2.41842 12.3567 2.03059 11.2122L2.00436 11.1259C1.91289 10.8228 1.87458 10.5679 1.87458 10.3129V5.19922L0.0550636 11.2729C-0.178951 12.1662 0.354311 13.0924 1.24903 13.3392L12.8466 16.4451C12.9914 16.4826 13.1361 16.5006 13.2787 16.5006C14.0256 16.5006 14.7081 16.0048 14.8994 15.2742L15.5751 13.1255H4.68714Z" fill="#ECEFF1"/>
<path d="M17.9999 1.68754V10.3128C17.9999 11.2428 17.2424 12.0004 16.3124 12.0004H4.68705C4.61207 12.0004 4.53708 11.9928 4.46952 11.9853C3.68205 11.8879 3.06708 11.2428 3.00706 10.4478C2.99951 10.4028 2.99951 10.3577 2.99951 10.3128V1.68754C2.99951 0.757525 3.75704 0 4.68705 0H16.3124C17.2424 0 17.9999 0.757525 17.9999 1.68754Z" fill="#ECEFF1"/>
<path d="M8.24978 3.75008C8.24978 4.57847 7.57822 5.25016 6.74984 5.25016C5.92131 5.25016 5.24976 4.57847 5.24976 3.75008C5.24976 2.92169 5.92131 2.25 6.74984 2.25C7.57822 2.25 8.24978 2.92169 8.24978 3.75008Z" fill="#FFC107"/>
<path d="M18.0001 8.20645V10.3141C18.0001 11.2441 17.2426 12.0016 16.3126 12.0016H4.68726C4.61228 12.0016 4.53729 11.9941 4.46973 11.9865L12.1949 4.26145C12.705 3.75139 13.5449 3.75139 14.055 4.26145L18.0001 8.20645Z" fill="#388E3C"/>
<path d="M13.5447 12.0016H4.68707C4.61208 12.0016 4.5371 11.994 4.46953 11.9865C3.68207 11.8891 3.06709 11.244 3.00708 10.449L6.56962 6.88634C7.07967 6.37643 7.91959 6.37643 8.42965 6.88634L13.5447 12.0016Z" fill="#4CAF50"/>
</svg>
