<svg width="16" height="17" viewBox="0 0 16 17" fill="none" xmlns="http://www.w3.org/2000/svg">
<path d="M0.499512 10.2505C0.775654 10.2505 0.999512 10.4743 0.999512 10.7505V12.6255C0.99973 14.2167 2.28327 15.5004 3.87451 15.5005H5.74951L5.85107 15.5112C6.07852 15.5581 6.24936 15.7592 6.24951 16.0005C6.24932 16.2418 6.07857 16.444 5.85107 16.4907L5.74951 16.5005H3.87451C1.73099 16.5004 -0.000270065 14.769 -0.000488281 12.6255V10.7505C-0.000488281 10.4743 0.223369 10.2505 0.499512 10.2505ZM15.5005 11.0005C15.7765 11.0007 16.0005 11.2244 16.0005 11.5005V12.6255C16.0003 14.769 14.269 16.5003 12.1255 16.5005H11.0005C10.7245 16.5005 10.5007 16.2765 10.5005 16.0005C10.5006 15.7245 10.7244 15.5005 11.0005 15.5005H12.1255C13.7167 15.5003 15.0003 14.2167 15.0005 12.6255V11.5005C15.0005 11.2244 15.2245 11.0006 15.5005 11.0005ZM5.85107 0.509277C6.07872 0.556049 6.24951 0.758023 6.24951 0.999512C6.24951 1.241 6.07872 1.44297 5.85107 1.48975L5.74951 1.49951H3.87451C2.2832 1.49962 0.99962 2.7832 0.999512 4.37451V6.24951C0.999512 6.52565 0.775654 6.74951 0.499512 6.74951C0.223369 6.74951 -0.000488281 6.52565 -0.000488281 6.24951V4.37451C-0.000379972 2.23092 1.73092 0.49962 3.87451 0.499512H5.74951L5.85107 0.509277ZM12.1255 0.499512C14.269 0.499697 16.0004 2.23097 16.0005 4.37451V6.24951C16.0005 6.52554 15.7765 6.74933 15.5005 6.74951C15.2245 6.74934 15.0005 6.52555 15.0005 6.24951V4.37451C15.0004 2.78325 13.7167 1.4997 12.1255 1.49951H10.2505C9.97435 1.49951 9.75049 1.27565 9.75049 0.999512C9.75049 0.723369 9.97435 0.499512 10.2505 0.499512H12.1255Z" fill="#71347B"/>
</svg>
