<svg width="24" height="24" viewBox="0 0 24 24" fill="none" xmlns="http://www.w3.org/2000/svg">
<g clip-path="url(#clip0_15613_5818)">
<path d="M0 4C0 1.79086 1.79086 0 4 0H20C22.2091 0 24 1.79086 24 4V20C24 22.2091 22.2091 24 20 24H4C1.79086 24 0 22.2091 0 20V4Z" fill="#F7ECF8"/>
<path d="M12.1008 18C11.284 18 10.5455 17.8601 9.88537 17.5804C9.23642 17.3007 8.72174 16.8979 8.34132 16.372C7.9609 15.8462 7.7651 15.2252 7.75391 14.5091H10.2714C10.305 14.9902 10.4728 15.3706 10.7749 15.6503C11.0882 15.9301 11.5133 16.0699 12.0504 16.0699C12.5987 16.0699 13.0294 15.9413 13.3427 15.6839C13.656 15.4154 13.8126 15.0685 13.8126 14.6434C13.8126 14.2965 13.7064 14.0112 13.4938 13.7874C13.2812 13.5636 13.0126 13.3902 12.6882 13.2671C12.3749 13.1329 11.9385 12.9874 11.3791 12.8308C10.6182 12.607 9.99726 12.3888 9.51614 12.1762C9.04621 11.9524 8.63782 11.6224 8.29097 11.186C7.9553 10.7385 7.78747 10.1455 7.78747 9.40699C7.78747 8.71329 7.9609 8.10909 8.30775 7.59441C8.65461 7.07972 9.14132 6.68811 9.76789 6.41958C10.3945 6.13986 11.1105 6 11.9161 6C13.1245 6 14.1036 6.2965 14.8532 6.88951C15.614 7.47133 16.0336 8.28811 16.1119 9.33986H13.5273C13.505 8.93706 13.3315 8.60699 13.0071 8.34965C12.6938 8.08112 12.2742 7.94685 11.7483 7.94685C11.2896 7.94685 10.9203 8.06434 10.6406 8.2993C10.3721 8.53427 10.2378 8.87552 10.2378 9.32308C10.2378 9.63636 10.3385 9.8993 10.5399 10.1119C10.7525 10.3133 11.0099 10.4811 11.3119 10.6154C11.6252 10.7385 12.0616 10.8839 12.621 11.0517C13.3819 11.2755 14.0029 11.4993 14.484 11.7231C14.9651 11.9469 15.3791 12.2825 15.7259 12.7301C16.0728 13.1776 16.2462 13.765 16.2462 14.4923C16.2462 15.1189 16.084 15.7007 15.7595 16.2378C15.435 16.7748 14.9595 17.2056 14.3329 17.5301C13.7064 17.8434 12.9623 18 12.1008 18Z" fill="#71347B"/>
</g>
<defs>
<clipPath id="clip0_15613_5818">
<path d="M0 4C0 1.79086 1.79086 0 4 0H20C22.2091 0 24 1.79086 24 4V20C24 22.2091 22.2091 24 20 24H4C1.79086 24 0 22.2091 0 20V4Z" fill="white"/>
</clipPath>
</defs>
</svg>
