<svg width="16" height="16" viewBox="0 0 16 16" fill="none" xmlns="http://www.w3.org/2000/svg">
<path fill-rule="evenodd" clip-rule="evenodd" d="M7.38067 1.54839C4.1596 1.54839 1.54839 4.1596 1.54839 7.38067C1.54839 10.6017 4.15959 13.2129 7.38067 13.2129C10.6017 13.2129 13.2129 10.6017 13.2129 7.38067C13.2129 4.15959 10.6017 1.54839 7.38067 1.54839ZM0 7.38067C0 3.30445 3.30445 0 7.38067 0C11.4569 0 14.7613 3.30446 14.7613 7.38067C14.7613 11.4569 11.4569 14.7613 7.38067 14.7613C3.30446 14.7613 0 11.4569 0 7.38067ZM12.6139 12.6139C12.9162 12.3115 13.4064 12.3115 13.7087 12.6139L15.7732 14.6784C16.0756 14.9807 16.0756 15.4709 15.7732 15.7732C15.4709 16.0756 14.9807 16.0756 14.6784 15.7732L12.6139 13.7087C12.3115 13.4064 12.3115 12.9162 12.6139 12.6139Z" fill="currentColor"/>
</svg>
