<svg width="8" height="8" viewBox="0 0 8 8" fill="none" xmlns="http://www.w3.org/2000/svg">
<path d="M7.85401 7.14867L6.30549 5.59951C7.46416 4.05112 7.14823 1.8566 5.59984 0.697929C4.05145 -0.460742 1.85694 -0.14481 0.698265 1.40358C-0.460407 2.95197 -0.144475 5.14648 1.40391 6.30516C2.64771 7.2359 4.35603 7.2359 5.59984 6.30516L7.14901 7.85432C7.34369 8.049 7.65933 8.049 7.85399 7.85432C8.04867 7.65964 8.04867 7.34401 7.85399 7.14934L7.85401 7.14867ZM3.51479 6.00615C2.13865 6.00615 1.02309 4.89059 1.02309 3.51445C1.02309 2.13832 2.13865 1.02275 3.51479 1.02275C4.89092 1.02275 6.00649 2.13832 6.00649 3.51445C6.00502 4.88996 4.89032 6.00469 3.51479 6.00615Z" fill="currentColor"/>
</svg>
