<svg width="16" height="16" viewBox="0 0 16 16" fill="none" xmlns="http://www.w3.org/2000/svg">
<mask id="mask0_3847_16968" style="mask-type:alpha" maskUnits="userSpaceOnUse" x="0" y="0" width="16" height="16">
<path d="M15.9856 0.0156569C15.9652 -0.0183038 16.0265 0.0131903 15.9856 0.0156569L10.5776 5.54131C10.5472 5.57399 10.5037 5.5927 10.4579 5.5927C10.4122 5.5927 10.3686 5.57399 10.3383 5.54131L8.8786 3.98861C8.84295 3.95329 8.79242 3.93533 8.74125 3.93976C8.69007 3.9442 8.64377 3.97057 8.61538 4.01144L7.85368 4.93471C7.77156 5.03425 7.67198 5.16762 7.75392 5.26731L10.3861 7.87037C10.4165 7.90305 10.46 7.92176 10.5058 7.92176C10.5515 7.92176 10.5951 7.90305 10.6254 7.87037L15.7941 2.32173C15.8247 2.29043 15.872 2.2798 15.9139 2.29481C15.9558 2.30982 15.9842 2.3475 15.9856 2.39023V15.8851C15.9876 15.9159 15.9756 15.946 15.9527 15.9679C15.9298 15.9897 15.8982 16.0011 15.8659 15.9992H0.120502C0.0882034 16.0011 0.0566067 15.9897 0.0337253 15.9679C0.0108438 15.946 -0.00112441 15.9159 0.000855852 15.8851V1.01705C-2.20104e-05 1.00339 -0.000102646 0.805042 7.96329e-05 0.58844C0.00034617 0.271713 0.261414 0.00971529 0.578088 0.0155035C0.58101 0.0155569 0.579558 0.0155037 0.582481 0.0155038L15.9856 0.0156569ZM10.5536 9.12623C9.84124 9.11427 9.15466 9.38063 8.65311 9.86354C8.15155 10.3465 7.87858 11.004 7.8975 11.6836C7.8975 13.2592 9.09396 14.2639 10.6494 14.2639C11.3694 14.281 12.0754 14.0724 12.6594 13.6702C12.7136 13.6233 12.7237 13.5457 12.6833 13.4875L12.2526 12.871C12.2042 12.818 12.1218 12.8082 12.0612 12.8482C11.6868 13.0921 11.2462 13.227 10.7929 13.2363C9.98897 13.2363 9.47166 12.7734 9.34683 12.2112C9.33643 12.1644 9.33325 12.0977 9.38111 12.0946H12.9944C13.0715 12.0897 13.1328 12.0311 13.138 11.9576V11.8206C13.138 10.2223 12.0851 9.12623 10.5536 9.12623ZM6.98819 8.25854C6.26138 7.69164 5.34173 7.39913 4.40383 7.43653C2.77665 7.43653 1.77162 8.34987 1.77162 9.4459C1.77162 11.9348 5.74387 11.1356 5.74387 12.3001C5.74387 12.6655 5.361 13.0308 4.54741 13.0308C3.7747 13.0369 3.02919 12.7589 2.46557 12.2545C2.43192 12.2245 2.38633 12.2097 2.34049 12.2141C2.29466 12.2185 2.25303 12.2415 2.22627 12.2773L1.60411 13.0993C1.56374 13.1575 1.57391 13.2351 1.62804 13.282C2.27413 13.8528 3.18344 14.241 4.45169 14.241C6.31817 14.241 7.22748 13.3277 7.27534 12.1403C7.27534 9.67424 3.30309 10.3821 3.30309 9.33173C3.30309 8.94356 3.66203 8.66955 4.28419 8.66955C4.97003 8.66058 5.63797 8.87842 6.17459 9.28606C6.20614 9.31073 6.24678 9.32221 6.28731 9.31791C6.32785 9.31361 6.36485 9.2939 6.38996 9.26323L7.01212 8.46404C7.03796 8.43394 7.04999 8.39516 7.04549 8.35648C7.04099 8.31781 7.02033 8.28249 6.98819 8.25854ZM10.5776 10.1309C11.2031 10.0975 11.7464 10.526 11.8371 11.1096C11.8444 11.1571 11.8459 11.2239 11.798 11.2269H9.35718C9.30928 11.2239 9.31176 11.1571 9.32097 11.11C9.43268 10.5386 9.96126 10.1214 10.5776 10.1309Z" fill="currentColor"/>
</mask>
<g mask="url(#mask0_3847_16968)">
<path d="M0 0H12C14.2091 0 16 1.79086 16 4V16H4C1.79086 16 0 14.2091 0 12V0Z" fill="#2CB134"/>
</g>
</svg>
