<svg width="16" height="16" viewBox="0 0 16 16" fill="none" xmlns="http://www.w3.org/2000/svg">
<path d="M14.5778 3H3.55556C2.77333 3 2.13333 3.62308 2.13333 4.38462V4.90385C2.13333 5.09423 2.29333 5.25 2.48889 5.25C2.68444 5.25 2.84444 5.09423 2.84444 4.90385V4.38462C2.84444 4.31538 2.86222 4.24615 2.88 4.17692L6.86222 7.5L2.88 10.8231C2.86222 10.7538 2.84444 10.6846 2.84444 10.6154V10.0962C2.84444 9.90577 2.68444 9.75 2.48889 9.75C2.29333 9.75 2.13333 9.90577 2.13333 10.0962V10.6154C2.13333 11.3769 2.77333 12 3.55556 12H14.5778C15.36 12 16 11.3769 16 10.6154V4.38462C16 3.62308 15.36 3 14.5778 3ZM3.41333 3.70962C3.44889 3.69231 3.50222 3.69231 3.55556 3.69231H14.5778C14.6311 3.69231 14.6844 3.69231 14.72 3.70962L9.29778 8.22692C9.15556 8.33077 8.97778 8.33077 8.83556 8.22692L3.41333 3.70962ZM14.5778 11.3077H3.55556C3.50222 11.3077 3.44889 11.3077 3.41333 11.2904L7.41333 7.95L8.37333 8.76346C8.56889 8.93654 8.81778 9.02308 9.06667 9.02308C9.31556 9.02308 9.56444 8.93654 9.76 8.76346L10.72 7.95L14.72 11.2904C14.6844 11.3077 14.6311 11.3077 14.5778 11.3077ZM15.2889 10.6154C15.2889 10.6846 15.2711 10.7538 15.2533 10.8231L11.2711 7.5L15.2533 4.17692C15.2711 4.24615 15.2889 4.31538 15.2889 4.38462V10.6154ZM1.06667 6.63462C1.06667 6.44423 1.22667 6.28846 1.42222 6.28846H3.55556C3.75111 6.28846 3.91111 6.44423 3.91111 6.63462C3.91111 6.825 3.75111 6.98077 3.55556 6.98077H1.42222C1.22667 6.98077 1.06667 6.825 1.06667 6.63462ZM3.55556 8.71154H0.355556C0.16 8.71154 0 8.55577 0 8.36538C0 8.175 0.16 8.01923 0.355556 8.01923H3.55556C3.75111 8.01923 3.91111 8.175 3.91111 8.36538C3.91111 8.55577 3.75111 8.71154 3.55556 8.71154Z" fill="#71347B"/>
</svg>
