<svg width="62" height="12" viewBox="0 0 62 12" fill="none" xmlns="http://www.w3.org/2000/svg">
<rect opacity="0.8" x="8.30078" width="12" height="4" rx="2" fill="#7232F8"/>
<path d="M0.466667 2C0.466667 2.29455 0.705448 2.53333 1 2.53333C1.29455 2.53333 1.53333 2.29455 1.53333 2C1.53333 1.70545 1.29455 1.46667 1 1.46667C0.705448 1.46667 0.466667 1.70545 0.466667 2ZM8.30078 2L7.30078 1.42265L7.30078 2.57735L8.30078 2ZM1 2.1L7.40078 2.1L7.40078 1.9L1 1.9L1 2.1Z" fill="white"/>
<path d="M19.7674 2C19.7674 2.29455 20.0062 2.53333 20.3008 2.53333C20.5953 2.53333 20.8341 2.29455 20.8341 2C20.8341 1.70545 20.5953 1.46667 20.3008 1.46667C20.0062 1.46667 19.7674 1.70545 19.7674 2ZM27.6016 2L26.6016 1.42265L26.6016 2.57735L27.6016 2ZM20.3008 2.1L26.7016 2.1L26.7016 1.9L20.3008 1.9L20.3008 2.1Z" fill="white"/>
<rect opacity="0.8" x="27.6016" width="12" height="4" rx="2" fill="#F85632"/>
<rect opacity="0.8" x="46.9023" width="12" height="4" rx="2" fill="#C532F8"/>
<rect opacity="0.8" x="46.9023" y="8" width="12" height="4" rx="2" fill="#32B1F8"/>
<path d="M58.3592 1.87646C58.3592 2.17102 58.598 2.4098 58.8926 2.4098C59.1871 2.4098 59.4259 2.17102 59.4259 1.87646C59.4259 1.58191 59.1871 1.34313 58.8926 1.34313C58.598 1.34313 58.3592 1.58191 58.3592 1.87646ZM58.8926 10.166L59.8926 10.7434V9.5887L58.8926 10.166ZM58.8926 1.97646H59.6558V1.77646H58.8926V1.97646ZM61.5558 3.87646V8.16605H61.7558V3.87646H61.5558ZM61.5558 8.16605C61.5558 9.21539 60.7051 10.066 59.6558 10.066V10.266C60.8156 10.266 61.7558 9.32585 61.7558 8.16605H61.5558ZM59.6558 1.97646C60.7051 1.97646 61.5558 2.82712 61.5558 3.87646H61.7558C61.7558 2.71667 60.8156 1.77646 59.6558 1.77646V1.97646Z" fill="white"/>
<path d="M39.0682 2C39.0682 2.29455 39.307 2.53333 39.6016 2.53333C39.8961 2.53333 40.1349 2.29455 40.1349 2C40.1349 1.70545 39.8961 1.46667 39.6016 1.46667C39.307 1.46667 39.0682 1.70545 39.0682 2ZM46.9023 2L45.9023 1.42265L45.9023 2.57735L46.9023 2ZM39.6016 2.1L46.0023 2.1L46.0023 1.9L39.6016 1.9L39.6016 2.1Z" fill="currentColor"/>
</svg>
