<svg width="24" height="25" viewBox="0 0 24 25" fill="none" xmlns="http://www.w3.org/2000/svg">
<g clip-path="url(#clip0_264_41212)">
<path d="M14.8 14.5029H14.36C14.1945 14.5032 14.0464 14.4 13.9896 14.2445C13.9408 14.1165 13.8884 13.9913 13.832 13.8673C13.7619 13.7165 13.7939 13.538 13.912 13.4209L14.2256 13.1069C14.6911 12.6373 14.6903 11.8799 14.2236 11.4113L13.0932 10.2809C12.6241 9.81453 11.8664 9.81453 11.3972 10.2809L11.0836 10.5941C10.9663 10.7118 10.7881 10.7437 10.6372 10.6741C10.5132 10.6177 10.388 10.5653 10.2596 10.5141C10.1034 10.4577 9.9994 10.3091 10 10.1429V9.70293C10 9.04018 9.46275 8.50293 8.8 8.50293H7.2C6.53725 8.50293 6 9.04018 6 9.70293V10.1429C6.0003 10.3084 5.89705 10.4565 5.7416 10.5133C5.6136 10.5621 5.4884 10.6145 5.3644 10.6709C5.21355 10.7407 5.03525 10.7087 4.918 10.5909L4.604 10.2773C4.1349 9.81123 3.3775 9.81123 2.9084 10.2773L1.778 11.4113C1.3116 11.8805 1.3116 12.6382 1.778 13.1073L2.0912 13.4209C2.2093 13.538 2.2413 13.7165 2.1712 13.8673C2.1148 13.9913 2.0624 14.1165 2.0132 14.2449C1.95595 14.4013 1.8065 14.5046 1.64 14.5029H1.2C0.53725 14.5029 0 15.0402 0 15.7029V17.3029C0 17.9657 0.53725 18.5029 1.2 18.5029H1.64C1.8055 18.5026 1.95355 18.6059 2.0104 18.7613C2.0592 18.8893 2.1116 19.0145 2.168 19.1385C2.2381 19.2893 2.2061 19.4679 2.088 19.5849L1.7744 19.8989C1.3083 20.368 1.3083 21.1254 1.7744 21.5945L2.9048 22.7249C3.37395 23.1913 4.13165 23.1913 4.6008 22.7249L4.9144 22.4117C5.0317 22.2941 5.20995 22.2621 5.3608 22.3317C5.4848 22.3881 5.61 22.4405 5.7384 22.4917C5.89545 22.5475 6.0003 22.6963 6 22.8629V23.3029C6 23.9657 6.53725 24.5029 7.2 24.5029H8.8C9.46275 24.5029 10 23.9657 10 23.3029V22.8629C9.9997 22.6974 10.103 22.5494 10.2584 22.4925C10.3864 22.4437 10.5116 22.3913 10.6356 22.3349C10.7865 22.2652 10.9648 22.2971 11.082 22.4149L11.396 22.7285C11.8658 23.1939 12.623 23.193 13.0916 22.7265L14.222 21.5961C14.6884 21.127 14.6884 20.3693 14.222 19.9001L13.9088 19.5865C13.7907 19.4695 13.7587 19.2909 13.8288 19.1401C13.8852 19.0161 13.9376 18.8909 13.9888 18.7625C14.0452 18.6063 14.1939 18.5023 14.36 18.5029H14.8C15.4628 18.5029 16 17.9657 16 17.3029V15.7029C16 15.0402 15.4628 14.5029 14.8 14.5029ZM15.2 17.3029C15.2 17.5238 15.0209 17.7029 14.8 17.7029H14.36C13.8628 17.7048 13.4177 18.0121 13.24 18.4765C13.1976 18.5885 13.1518 18.6988 13.1024 18.8073C12.8968 19.2613 12.9921 19.7951 13.3424 20.1497L13.6552 20.4629C13.8115 20.619 13.8116 20.8723 13.6555 21.0286C13.6554 21.0287 13.6553 21.0288 13.6552 21.0289L12.5248 22.1593C12.3686 22.3155 12.1154 22.3155 11.9592 22.1593L11.6456 21.8461C11.2912 21.4956 10.7571 21.4001 10.3032 21.6061C10.1948 21.6553 10.0844 21.7013 9.9732 21.7437C9.50915 21.9214 9.202 22.366 9.2 22.8629V23.3029C9.2 23.5238 9.0209 23.7029 8.8 23.7029H7.2C6.9791 23.7029 6.8 23.5238 6.8 23.3029V22.8629C6.79815 22.3657 6.4908 21.9207 6.0264 21.7429C5.9144 21.7005 5.80415 21.6547 5.6956 21.6053C5.2416 21.3998 4.70785 21.4952 4.3532 21.8453L4.04 22.1581C3.8839 22.3144 3.6306 22.3146 3.4743 22.1584C3.4742 22.1583 3.4741 22.1582 3.474 22.1581L2.3436 21.0289C2.18745 20.8727 2.18745 20.6195 2.3436 20.4633L2.6568 20.1497C3.00705 19.7951 3.10245 19.2613 2.8968 18.8073C2.8476 18.6989 2.8016 18.5885 2.7592 18.4773C2.5819 18.0128 2.1372 17.7051 1.64 17.7029H1.2C0.9791 17.7029 0.8 17.5238 0.8 17.3029V15.7029C0.8 15.482 0.9791 15.3029 1.2 15.3029H1.64C2.13725 15.3011 2.58225 14.9937 2.76 14.5293C2.8024 14.4173 2.84825 14.3071 2.8976 14.1985C3.10325 13.7445 3.0078 13.2107 2.6576 12.8561L2.3432 12.5429C2.1869 12.3868 2.18675 12.1335 2.3429 11.9772C2.343 11.9771 2.3431 11.977 2.3432 11.9769L3.4736 10.8465C3.6298 10.6904 3.883 10.6904 4.0392 10.8465L4.3528 11.1597C4.70725 11.5103 5.24125 11.6057 5.6952 11.3997C5.8036 11.3505 5.914 11.3045 6.0252 11.2621C6.4899 11.085 6.79775 10.6402 6.8 10.1429V9.70293C6.8 9.48203 6.9791 9.30293 7.2 9.30293H8.8C9.0209 9.30293 9.2 9.48203 9.2 9.70293V10.1429C9.20185 10.6402 9.5092 11.0852 9.9736 11.2629C10.0856 11.3053 10.1959 11.3512 10.3044 11.4005C10.7584 11.6065 11.2924 11.5111 11.6468 11.1605L11.96 10.8477C12.1168 10.6926 12.3692 10.6926 12.526 10.8477L13.6564 11.9781C13.8125 12.1343 13.8125 12.3875 13.6564 12.5437L13.3432 12.8573C12.993 13.2119 12.8975 13.7457 13.1032 14.1997C13.1524 14.3081 13.1984 14.4185 13.2408 14.5297C13.4185 14.9938 13.8631 15.3009 14.36 15.3029H14.8C15.0209 15.3029 15.2 15.482 15.2 15.7029V17.3029Z" fill="currentColor"/>
<path d="M11.5925 16.3429C11.5885 16.2469 11.5817 16.1513 11.5701 16.0561C11.5573 15.9537 11.5421 15.8521 11.5209 15.7525C11.5069 15.6873 11.4885 15.6229 11.4709 15.5581C11.4485 15.4757 11.4233 15.3945 11.3953 15.3145C11.3757 15.2589 11.3553 15.2037 11.3345 15.1489C11.283 15.0208 11.2241 14.8958 11.1581 14.7745C11.1529 14.7653 11.1497 14.7553 11.1445 14.7461C11.0405 14.5609 10.92 14.3854 10.7845 14.2217C10.7729 14.2073 10.7597 14.1937 10.7477 14.1797C10.6925 14.1145 10.6357 14.0513 10.5761 13.9909C10.5449 13.9585 10.5121 13.9281 10.4793 13.8969C10.4393 13.8597 10.3993 13.8229 10.3593 13.7877C10.3108 13.7456 10.2613 13.7048 10.2109 13.6653L10.1453 13.6165C9.52636 13.1529 8.77381 12.9025 8.00051 12.9029C7.96051 12.9029 7.92051 12.9089 7.88051 12.9105C7.79531 12.9129 7.70971 12.9177 7.62371 12.9265C7.57851 12.9313 7.53291 12.9365 7.48771 12.9429C7.35731 12.9601 7.22791 12.9843 7.10011 13.0153C5.17406 13.513 4.01616 15.4779 4.51386 17.404C4.84186 18.6732 5.83346 19.664 7.10291 19.9909C7.10931 19.9909 7.11611 19.9929 7.12291 19.9945C7.26106 20.029 7.40101 20.0557 7.54211 20.0745C7.63531 20.0861 7.72851 20.0885 7.82211 20.0929C7.88451 20.0961 7.94211 20.1053 8.00731 20.1053C8.12131 20.1053 8.23971 20.0977 8.36051 20.0857C8.37331 20.0857 8.38611 20.0821 8.40051 20.0805C8.49771 20.0697 8.59611 20.0553 8.69651 20.0353C8.73651 20.0277 8.77371 20.0177 8.81211 20.0089C8.88251 19.9925 8.95251 19.9753 9.02451 19.9541C9.08051 19.9373 9.13491 19.9177 9.18971 19.8985C9.24451 19.8793 9.30131 19.8585 9.35811 19.8369C9.41491 19.8153 9.46251 19.7905 9.51411 19.7665C9.58131 19.7357 9.64811 19.7053 9.71411 19.6693H9.71651C10.0898 19.4695 10.4346 19.2205 10.7417 18.9289C10.8247 18.8515 10.8968 18.7632 10.9561 18.6665C11.2683 18.166 11.4734 17.6063 11.5585 17.0225C11.5697 16.9453 11.5797 16.8681 11.5857 16.7893C11.5913 16.7169 11.5953 16.6449 11.5969 16.5729C11.5969 16.5501 11.6001 16.5285 11.6001 16.5057C11.6005 16.4493 11.5949 16.3973 11.5925 16.3429ZM10.7953 16.6049C10.7953 16.6381 10.7925 16.6713 10.7905 16.7041C10.7833 16.8009 10.7709 16.8977 10.7545 16.9949C10.605 17.8266 10.0887 18.5466 9.34891 18.9549C9.29931 18.9809 9.25051 19.0053 9.20171 19.0277L9.16851 19.0437C8.93611 19.1492 8.69081 19.2235 8.43891 19.2645C8.42131 19.2673 8.40331 19.2705 8.38531 19.2729C8.33531 19.2801 8.28611 19.2861 8.23731 19.2905C8.17291 19.2961 8.10811 19.2993 8.04211 19.3005C8.01411 19.3005 7.98651 19.3005 7.95851 19.3005C7.86386 19.2994 7.76936 19.2936 7.67531 19.2829L7.62731 19.2773C7.51731 19.2629 7.40821 19.2424 7.30051 19.2157C5.80241 18.8323 4.89881 17.307 5.28221 15.8089C5.53556 14.819 6.30806 14.0457 7.29771 13.7913V13.7909C7.52751 13.733 7.76351 13.7034 8.00051 13.7029C8.11486 13.7036 8.22911 13.7113 8.34251 13.7261C8.37291 13.7297 8.40291 13.7353 8.43291 13.7397C8.51931 13.7533 8.60491 13.7705 8.68931 13.7921C8.71691 13.7993 8.74451 13.8057 8.77171 13.8133C8.98441 13.8747 9.18916 13.9609 9.38171 14.0701C9.41251 14.0881 9.44251 14.1069 9.47291 14.1257C9.53611 14.1657 9.59731 14.2057 9.65771 14.2513C9.69011 14.2749 9.72291 14.2981 9.75411 14.3233C9.83261 14.386 9.90776 14.4528 9.97931 14.5233C10.0077 14.5521 10.0337 14.5837 10.0613 14.6137C10.1073 14.6637 10.1521 14.7149 10.1949 14.7689C10.2245 14.8061 10.2529 14.8445 10.2809 14.8833C10.3209 14.9409 10.3609 15.0009 10.3969 15.0617C10.4169 15.0949 10.4369 15.1273 10.4573 15.1613C10.5089 15.2563 10.5549 15.3542 10.5949 15.4545C10.6109 15.4945 10.6245 15.5345 10.6389 15.5745C10.6649 15.6481 10.6873 15.7225 10.7069 15.7977C10.7169 15.8377 10.7281 15.8733 10.7365 15.9121C10.7599 16.0202 10.7768 16.1296 10.7873 16.2397C10.7897 16.2689 10.7897 16.2985 10.7917 16.3277C10.7973 16.4197 10.7989 16.5121 10.7953 16.6049Z" fill="currentColor"/>
<path d="M22.8002 8.90293H21.5422C21.3745 8.90463 21.2244 8.79898 21.1694 8.64053C21.0454 8.26898 20.8953 7.90658 20.7202 7.55613C20.6459 7.40478 20.6769 7.22283 20.797 7.10453L21.689 6.21133C22.1572 5.74278 22.1572 4.98348 21.689 4.51493L19.9882 2.81693C19.5197 2.34873 18.7604 2.34873 18.2918 2.81693L17.4002 3.70813C17.2821 3.82823 17.1004 3.85933 16.949 3.78533C16.5985 3.60938 16.236 3.45848 15.8642 3.33373C15.7051 3.27928 15.5987 3.12908 15.6002 2.96093V1.70293C15.6002 1.04018 15.063 0.50293 14.4002 0.50293H12.0002C11.3375 0.50293 10.8002 1.04018 10.8002 1.70293V2.96093C10.8019 3.12868 10.6963 3.27873 10.5378 3.33373C10.1662 3.45843 9.80382 3.60923 9.45342 3.78493C9.30207 3.85948 9.12002 3.82853 9.00182 3.70813L8.10862 2.81613C7.63952 2.34928 6.88132 2.34928 6.41222 2.81613L4.71462 4.51373C4.24617 4.98233 4.24617 5.74193 4.71462 6.21053L6.02622 7.52453C6.18487 7.67823 6.43812 7.67423 6.59182 7.51553C6.74177 7.36073 6.74212 7.11493 6.59262 6.95973L5.28022 5.64613C5.12407 5.48993 5.12407 5.23673 5.28022 5.08053L6.97782 3.38293C7.13402 3.22678 7.38722 3.22678 7.54342 3.38293L8.43702 4.27493C8.79857 4.63863 9.35257 4.72953 9.81142 4.50053C10.1283 4.34188 10.4559 4.20568 10.7918 4.09293C11.2767 3.92878 11.6023 3.47288 11.6002 2.96093V1.70293C11.6002 1.48203 11.7793 1.30293 12.0002 1.30293H14.4002C14.6211 1.30293 14.8002 1.48203 14.8002 1.70293V2.96093C14.7982 3.47278 15.1238 3.92853 15.6086 4.09253C15.9447 4.20533 16.2725 4.34163 16.5894 4.50053C17.0484 4.72833 17.6016 4.63733 17.9634 4.27453L18.857 3.38293C19.0132 3.22678 19.2664 3.22678 19.4226 3.38293L21.1202 5.08093C21.2761 5.23708 21.2761 5.48998 21.1202 5.64613L20.2282 6.53973C19.8649 6.90148 19.774 7.45523 20.0026 7.91413C20.1613 8.23098 20.2975 8.55858 20.4102 8.89453C20.5743 9.37953 21.0302 9.70513 21.5422 9.70293H22.8002C23.0211 9.70293 23.2002 9.88203 23.2002 10.1029V12.5029C23.2002 12.7238 23.0211 12.9029 22.8002 12.9029H21.5422C21.0304 12.9009 20.5746 13.2265 20.4106 13.7113C20.2979 14.0474 20.1615 14.3752 20.0026 14.6921C19.7744 15.151 19.8655 15.7045 20.2286 16.0661L21.1206 16.9597C21.2768 17.1159 21.2768 17.3691 21.1206 17.5253L19.4222 19.2229C19.2661 19.3788 19.0132 19.3788 18.857 19.2229L17.5426 17.9113C17.3889 17.7526 17.1357 17.7486 16.977 17.9023C16.8183 18.056 16.8143 18.3093 16.968 18.4679C16.9712 18.4712 16.9745 18.4745 16.9778 18.4777L18.2918 19.7893C18.7604 20.2575 19.5197 20.2575 19.9882 19.7893L21.6858 18.0921C22.1543 17.6235 22.1543 16.8639 21.6858 16.3953L20.795 15.5029C20.675 15.3847 20.644 15.2031 20.7178 15.0517C20.8938 14.7012 21.0447 14.3387 21.1694 13.9669C21.2239 13.8078 21.3741 13.7014 21.5422 13.7029H22.8002C23.463 13.7029 24.0002 13.1657 24.0002 12.5029V10.1029C24.0002 9.44018 23.463 8.90293 22.8002 8.90293Z" fill="currentColor"/>
<path d="M16.876 7.62615C14.8441 5.5985 11.5543 5.5985 9.52242 7.62615C9.36897 7.78505 9.37337 8.0383 9.53227 8.19175C9.68727 8.34144 9.93302 8.34144 10.088 8.19175C11.7948 6.46194 14.5806 6.4433 16.3104 8.15005C18.0402 9.8568 18.0589 12.6426 16.3521 14.3724C16.3383 14.3864 16.3244 14.4003 16.3104 14.4141C16.1515 14.5676 16.1471 14.8208 16.3006 14.9797C16.4541 15.1386 16.7073 15.143 16.8662 14.9895C16.8695 14.9863 16.8728 14.983 16.876 14.9797C18.9037 12.9478 18.9037 9.65805 16.876 7.62615Z" fill="currentColor"/>
</g>
<defs>
<clipPath id="clip0_264_41212">
<rect width="24" height="24" fill="white" transform="translate(0 0.50293)"/>
</clipPath>
</defs>
</svg>
