<svg width="15" height="15" viewBox="0 0 15 15" fill="none" xmlns="http://www.w3.org/2000/svg">
<path d="M5.31255 4.21386C5.54028 4.21386 5.7629 4.28139 5.95225 4.40791C6.1416 4.53443 6.28918 4.71426 6.37633 4.92465C6.46348 5.13505 6.48628 5.36656 6.44185 5.58992C6.39743 5.81327 6.28776 6.01844 6.12673 6.17947C5.9657 6.3405 5.76054 6.45016 5.53718 6.49459C5.31383 6.53902 5.08231 6.51621 4.87192 6.42907C4.66152 6.34192 4.48169 6.19434 4.35517 6.00498C4.22865 5.81563 4.16112 5.59302 4.16112 5.36528C4.1615 5.06002 4.28293 4.76737 4.49878 4.55152C4.71464 4.33567 5.00729 4.21423 5.31255 4.21386ZM6.41398 7.40386C5.92406 7.66867 5.3552 7.74831 4.8114 7.6282C4.2676 7.50808 3.7852 7.19625 3.4524 6.74972C3.11961 6.30318 2.95865 5.75178 2.99897 5.19633C3.03929 4.64089 3.27819 4.11851 3.67198 3.72472C4.06577 3.33092 4.58815 3.09203 5.1436 3.05171C5.69904 3.01139 6.25045 3.17234 6.69698 3.50513C7.14352 3.83793 7.45535 4.32033 7.57546 4.86413C7.69557 5.40793 7.61594 5.9768 7.35112 6.46671C7.56408 6.35703 7.80269 6.30684 8.04179 6.32142C8.2809 6.336 8.51164 6.41482 8.70969 6.54957C8.76759 6.24456 8.93015 5.96933 9.16931 5.77137C9.40847 5.57342 9.70923 5.46516 10.0197 5.46528H10.3683V5.03671C10.3677 4.90016 10.3191 4.76814 10.2312 4.66371C10.1432 4.55927 10.0213 4.48905 9.88684 4.46528L9.12969 4.33243C9.04081 4.00244 8.90922 3.68548 8.73826 3.38957L9.17969 2.75957C9.25541 2.64822 9.29023 2.51409 9.27825 2.37997C9.26628 2.24586 9.20823 2.12002 9.11398 2.02386L8.65969 1.56243C8.56272 1.46588 8.43486 1.40652 8.29852 1.39477C8.16218 1.38302 8.02605 1.41961 7.91398 1.49814L7.28398 1.93957C6.98809 1.76857 6.67112 1.63698 6.34112 1.54814L6.20826 0.790999C6.1845 0.656524 6.11428 0.534661 6.00984 0.446675C5.90541 0.358688 5.77339 0.310165 5.63684 0.30957H4.99398C4.85742 0.310165 4.72541 0.358688 4.62097 0.446675C4.51654 0.534661 4.44631 0.656524 4.42255 0.790999L4.28969 1.54814C3.95969 1.63696 3.64272 1.76855 3.34684 1.93957L2.71112 1.49814C2.59955 1.42112 2.46462 1.38541 2.32955 1.39714C2.19449 1.40887 2.06774 1.46732 1.97112 1.56243L1.50969 2.02386C1.41278 2.12092 1.3532 2.24906 1.34144 2.38572C1.32968 2.52238 1.3665 2.65881 1.44541 2.771L1.88684 3.401C1.71594 3.69694 1.58435 4.01389 1.49541 4.34386L0.738264 4.47671C0.603789 4.50048 0.481927 4.5707 0.39394 4.67514C0.305954 4.77957 0.25743 4.91158 0.256836 5.04814V5.691C0.25743 5.82756 0.305954 5.95957 0.39394 6.064C0.481927 6.16844 0.603789 6.23866 0.738264 6.26243L1.49541 6.39528C1.58427 6.72527 1.71586 7.04224 1.88684 7.33814L1.44541 7.96528C1.3665 8.07748 1.32968 8.21391 1.34144 8.35057C1.3532 8.48723 1.41278 8.61536 1.50969 8.71243L1.97112 9.16671C2.06801 9.26385 2.19605 9.32369 2.33272 9.33571C2.46938 9.34773 2.60591 9.31116 2.71826 9.23243L3.34826 8.791C3.64419 8.96193 3.96115 9.09352 4.29112 9.18243L4.42398 9.93957C4.44774 10.074 4.51797 10.1959 4.6224 10.2839C4.72684 10.3719 4.85885 10.4204 4.99541 10.421H5.42398V10.0724C5.42386 9.76197 5.53211 9.46121 5.73007 9.22204C5.92802 8.98288 6.20325 8.82032 6.50826 8.76243C6.37171 8.56543 6.29087 8.33523 6.27428 8.09611C6.25768 7.85699 6.30595 7.61783 6.41398 7.40386ZM14.2568 10.0724V10.5781C14.2554 10.6851 14.2167 10.7882 14.1473 10.8696C14.0779 10.951 13.9822 11.0055 13.8768 11.0239L13.2797 11.1281C13.2105 11.3916 13.1067 11.6447 12.9711 11.881L13.3197 12.3781C13.3819 12.4666 13.4108 12.5741 13.4014 12.6818C13.392 12.7895 13.3448 12.8904 13.2683 12.9667L12.9097 13.3253C12.8334 13.4019 12.7325 13.449 12.6248 13.4584C12.5171 13.4678 12.4095 13.4389 12.3211 13.3767L11.8283 13.0239C11.5951 13.1586 11.3454 13.2623 11.0854 13.3324L10.9711 13.9296C10.9528 14.0349 10.8982 14.1306 10.8168 14.2C10.7354 14.2694 10.6324 14.3082 10.5254 14.3096H10.0197C9.91151 14.3098 9.80673 14.2718 9.72386 14.2023C9.64099 14.1327 9.58537 14.0361 9.56684 13.9296L9.46255 13.3324C9.20256 13.2623 8.95283 13.1586 8.71969 13.0239L8.22255 13.3724C8.13412 13.4346 8.02657 13.4635 7.91888 13.4541C7.81119 13.4447 7.71028 13.3976 7.63398 13.321L7.27541 12.9624C7.19884 12.8861 7.15169 12.7852 7.14228 12.6775C7.13287 12.5698 7.1618 12.4623 7.22398 12.3739L7.57398 11.881C7.43922 11.6479 7.33549 11.3981 7.26541 11.1381L6.66826 11.0239C6.56168 11.0053 6.46509 10.9497 6.39555 10.8668C6.32601 10.784 6.28801 10.6792 6.28826 10.571V10.0724C6.28801 9.96425 6.32601 9.85946 6.39555 9.77659C6.46509 9.69372 6.56168 9.63811 6.66826 9.61957L7.26541 9.51528C7.33553 9.2553 7.43927 9.00558 7.57398 8.77243L7.22541 8.27671C7.16323 8.18828 7.13429 8.08073 7.1437 7.97304C7.15311 7.86535 7.20027 7.76445 7.27684 7.68814L7.63541 7.32957C7.71171 7.253 7.81262 7.20585 7.92031 7.19644C8.028 7.18703 8.13555 7.21597 8.22398 7.27814L8.71969 7.62671C8.95282 7.49194 9.20255 7.38821 9.46255 7.31814L9.56684 6.721C9.58537 6.61442 9.64099 6.51782 9.72386 6.44829C9.80673 6.37875 9.91151 6.34075 10.0197 6.341H10.5254C10.6324 6.34242 10.7354 6.38118 10.8168 6.45057C10.8982 6.51996 10.9528 6.61562 10.9711 6.721L11.0754 7.31814C11.3389 7.38738 11.592 7.49114 11.8283 7.62671L12.324 7.27814C12.4124 7.21597 12.52 7.18703 12.6277 7.19644C12.7353 7.20585 12.8362 7.253 12.9125 7.32957L13.2711 7.68814C13.3477 7.76445 13.3948 7.86535 13.4043 7.97304C13.4137 8.08073 13.3847 8.18828 13.3225 8.27671L12.9711 8.77243C13.1059 9.00556 13.2096 9.25529 13.2797 9.51528L13.8768 9.61957C13.9834 9.63811 14.08 9.69372 14.1495 9.77659C14.2191 9.85946 14.2571 9.96425 14.2568 10.0724ZM11.6397 10.3253C11.6397 10.0549 11.5595 9.79057 11.4093 9.56574C11.2591 9.34091 11.0455 9.16568 10.7957 9.06221C10.5459 8.95873 10.271 8.93166 10.0058 8.98441C9.74063 9.03716 9.49703 9.16737 9.30583 9.35857C9.11464 9.54977 8.98443 9.79337 8.93168 10.0586C8.87892 10.3238 8.906 10.5987 9.00947 10.8485C9.11295 11.0983 9.28818 11.3118 9.51301 11.462C9.73783 11.6122 10.0022 11.6924 10.2725 11.6924C10.6351 11.6924 10.9829 11.5484 11.2393 11.292C11.4957 11.0356 11.6397 10.6879 11.6397 10.3253Z" fill="currentColor"/>
</svg>
