<svg width="24" height="24" viewBox="0 0 24 24" fill="none" xmlns="http://www.w3.org/2000/svg">
<g clip-path="url(#clip0_2947_13136)">
<path fill-rule="evenodd" clip-rule="evenodd" d="M4.74884 5.2077C4.33463 5.2077 3.99884 5.54349 3.99884 5.9577C3.99884 6.37192 4.33463 6.7077 4.74884 6.7077H19.2512C19.6654 6.7077 20.0012 6.37192 20.0012 5.9577C20.0012 5.54349 19.6654 5.2077 19.2512 5.2077H4.74884ZM4.74884 9.23586C4.33463 9.23586 3.99884 9.57165 3.99884 9.98586C3.99884 10.4001 4.33463 10.7359 4.74884 10.7359H19.2512C19.6654 10.7359 20.0012 10.4001 20.0012 9.98586C20.0012 9.57165 19.6654 9.23586 19.2512 9.23586H4.74884ZM3.99884 14.0141C3.99884 13.5999 4.33463 13.2641 4.74884 13.2641H19.2504C19.6646 13.2641 20.0004 13.5999 20.0004 14.0141C20.0004 14.4284 19.6646 14.7641 19.2504 14.7641H4.74884C4.33463 14.7641 3.99884 14.4284 3.99884 14.0141ZM4.74884 17.2924C4.33463 17.2924 3.99884 17.6282 3.99884 18.0424C3.99884 18.4566 4.33463 18.7924 4.74884 18.7924H19.2504C19.6646 18.7924 20.0004 18.4566 20.0004 18.0424C20.0004 17.6282 19.6646 17.2924 19.2504 17.2924H4.74884Z" fill="currentColor"/>
</g>
<defs>
<clipPath id="clip0_2947_13136">
<path d="M0 4C0 1.79086 1.79086 0 4 0H20C22.2091 0 24 1.79086 24 4V20C24 22.2091 22.2091 24 20 24H4C1.79086 24 0 22.2091 0 20V4Z" fill="white"/>
</clipPath>
</defs>
</svg>
