<svg width="16" height="14" viewBox="0 0 16 14" fill="none" xmlns="http://www.w3.org/2000/svg">
<path fill-rule="evenodd" clip-rule="evenodd" d="M0.74884 0.207703C0.334627 0.207703 -0.00115967 0.543489 -0.00115967 0.957703C-0.00115967 1.37192 0.334627 1.7077 0.74884 1.7077H15.2512C15.6654 1.7077 16.0012 1.37192 16.0012 0.957703C16.0012 0.543489 15.6654 0.207703 15.2512 0.207703H0.74884ZM0.74884 4.23586C0.334627 4.23586 -0.00115967 4.57165 -0.00115967 4.98586C-0.00115967 5.40007 0.334627 5.73586 0.74884 5.73586H15.2512C15.6654 5.73586 16.0012 5.40007 16.0012 4.98586C16.0012 4.57165 15.6654 4.23586 15.2512 4.23586H0.74884ZM-0.00115967 9.01414C-0.00115967 8.59993 0.334627 8.26414 0.74884 8.26414H15.2504C15.6646 8.26414 16.0004 8.59993 16.0004 9.01414C16.0004 9.42835 15.6646 9.76414 15.2504 9.76414H0.74884C0.334627 9.76414 -0.00115967 9.42835 -0.00115967 9.01414ZM0.74884 12.2924C0.334627 12.2924 -0.00115967 12.6282 -0.00115967 13.0424C-0.00115967 13.4566 0.334627 13.7924 0.74884 13.7924H15.2504C15.6646 13.7924 16.0004 13.4566 16.0004 13.0424C16.0004 12.6282 15.6646 12.2924 15.2504 12.2924H0.74884Z" fill="currentColor"/>
</svg>
