<svg width="17" height="12" viewBox="0 0 17 12" fill="none" xmlns="http://www.w3.org/2000/svg">
<path fill-rule="evenodd" clip-rule="evenodd" d="M16.4093 9.40743L14.3569 11.4683C14.1969 11.6272 13.9804 11.7159 13.755 11.7151C13.5296 11.7143 13.3137 11.624 13.1549 11.4641C12.996 11.3041 12.9072 11.0876 12.908 10.8622C12.9088 10.6368 12.9991 10.4209 13.1591 10.2621L14.362 9.05914H9.25869C9.0334 9.05914 8.81733 8.96965 8.65802 8.81034C8.49871 8.65103 8.40921 8.43496 8.40921 8.20966C8.40921 7.98437 8.49871 7.7683 8.65802 7.60899C8.81733 7.44968 9.0334 7.36018 9.25869 7.36018H14.362L13.1591 6.15727C13.0795 6.0783 13.0163 5.98434 12.9732 5.88083C12.93 5.77731 12.9078 5.66628 12.9078 5.55414C12.9078 5.44199 12.93 5.33096 12.9732 5.22744C13.0163 5.12393 13.0795 5.02997 13.1591 4.951C13.3183 4.79279 13.5336 4.70398 13.758 4.70398C13.9824 4.70398 14.1977 4.79279 14.3569 4.951L16.4093 7.01189C16.7257 7.33021 16.9033 7.76082 16.9033 8.20966C16.9033 8.6585 16.7257 9.08911 16.4093 9.40743ZM1.39737 5.40353L3.44976 7.46441C3.60972 7.62325 3.82623 7.71204 4.05165 7.71124C4.27707 7.71044 4.49294 7.62013 4.65178 7.46017C4.81061 7.30021 4.8994 7.0837 4.8986 6.85828C4.8978 6.63286 4.80749 6.41699 4.64753 6.25815L3.44462 5.05524H8.54795C8.77324 5.05524 8.98931 4.96574 9.14862 4.80643C9.30793 4.64712 9.39743 4.43105 9.39743 4.20576C9.39743 3.98046 9.30793 3.76439 9.14862 3.60508C8.98931 3.44577 8.77324 3.35627 8.54795 3.35627H3.44462L4.64753 2.15336C4.72715 2.07439 4.79035 1.98044 4.83348 1.87692C4.8766 1.7734 4.89881 1.66237 4.89881 1.55023C4.89881 1.43809 4.8766 1.32706 4.83348 1.22354C4.79035 1.12002 4.72715 1.02607 4.64753 0.947096C4.48837 0.788879 4.27307 0.700073 4.04865 0.700073C3.82423 0.700073 3.60892 0.788879 3.44976 0.947096L1.39737 3.00799C1.08093 3.32631 0.90332 3.75691 0.90332 4.20576C0.90332 4.6546 1.08093 5.0852 1.39737 5.40353Z" fill="#71347B"/>
</svg>
