<svg width="24" height="24" viewBox="0 0 24 24" fill="none" xmlns="http://www.w3.org/2000/svg">
<g clip-path="url(#clip0_2947_13123)">
<path d="M14.3999 19.1999V16.7999H11.1999V8.8H9.59994V11.2H4V4.80005H9.59994V7.20002H14.3999V4.80005H19.9998V11.2H14.3999V8.8H12.7999V15.1999H14.3999V12.8H19.9998V19.1999H14.3999ZM15.9999 9.59999H18.3998V6.40003H15.9999V9.59999ZM15.9999 17.5999H18.3998V14.3999H15.9999V17.5999ZM5.59998 9.59999H7.99995V6.40003H5.59998V9.59999Z" fill="currentColor"/>
</g>
<defs>
<clipPath id="clip0_2947_13123">
<path d="M0 4C0 1.79086 1.79086 0 4 0H20C22.2091 0 24 1.79086 24 4V20C24 22.2091 22.2091 24 20 24H4C1.79086 24 0 22.2091 0 20V4Z" fill="white"/>
</clipPath>
</defs>
</svg>
