<svg width="24" height="24" viewBox="0 0 24 24" fill="none" xmlns="http://www.w3.org/2000/svg">
<g clip-path="url(#clip0_2947_13153)">
<path fill-rule="evenodd" clip-rule="evenodd" d="M11.3998 17.7447V20.1447H16.9998V13.7448H11.3998V16.1448H9.79984V9.74483H11.3998V12.1448H16.9998V5.74487H11.3998V8.14485H6.59988V5.74487H0.999939V12.1448H6.59988V9.74483H8.19986V17.7447H11.3998ZM15.3998 10.5448H12.9998V7.34485H15.3998V10.5448ZM15.3998 18.5447H12.9998V15.3448H15.3998V18.5447ZM4.99989 10.5448H2.59992V7.34485H4.99989V10.5448ZM20.4999 7.47264C20.7761 7.47264 20.9999 7.69649 20.9999 7.97264V16.465L22.1059 15.0493C22.276 14.8317 22.5902 14.7931 22.8078 14.9631C23.0254 15.1332 23.064 15.4474 22.894 15.665L20.894 18.225C20.8531 18.2773 20.8028 18.3203 20.7465 18.3522C20.7006 18.3782 20.6503 18.3972 20.5969 18.4077C20.5653 18.4139 20.5328 18.4172 20.5 18.4172C20.4693 18.4172 20.439 18.4143 20.4093 18.4089C20.3453 18.3972 20.2856 18.3733 20.2326 18.3397C20.1847 18.3093 20.1417 18.2707 20.1059 18.225L18.1059 15.665C17.9359 15.4474 17.9745 15.1332 18.1921 14.9631C18.4097 14.7931 18.724 14.8317 18.894 15.0493L19.9999 16.465V7.97264C19.9999 7.69649 20.2238 7.47264 20.4999 7.47264Z" fill="currentColor"/>
</g>
<defs>
<clipPath id="clip0_2947_13153">
<path d="M0 4C0 1.79086 1.79086 0 4 0H20C22.2091 0 24 1.79086 24 4V20C24 22.2091 22.2091 24 20 24H4C1.79086 24 0 22.2091 0 20V4Z" fill="white"/>
</clipPath>
</defs>
</svg>
