<svg width="16" height="16" viewBox="0 0 16 16" fill="none" xmlns="http://www.w3.org/2000/svg">
<g clip-path="url(#clip0_9582_16045)">
<rect width="16" height="16" rx="8" fill="currentColor"/>
<path fill-rule="evenodd" clip-rule="evenodd" d="M10.2222 5.22222C10.2222 6.44952 9.22729 7.44444 7.99999 7.44444C6.77269 7.44444 5.77777 6.44952 5.77777 5.22222C5.77777 3.99492 6.77269 3 7.99999 3C9.22729 3 10.2222 3.99492 10.2222 5.22222ZM11.3334 11.3333V10.7778C11.3334 10.0411 11.0407 9.33453 10.5198 8.81359C9.99883 8.29266 9.29229 8 8.55558 8H7.44446C6.70775 8 6.00121 8.29266 5.48028 8.81359C4.95934 9.33453 4.66669 10.0411 4.66669 10.7778V11.3333C4.66801 11.775 4.84402 12.1981 5.1563 12.5104C5.46857 12.8227 5.89173 12.9987 6.33335 13H9.66669C10.1083 12.9987 10.5315 12.8227 10.8437 12.5104C11.156 12.1981 11.332 11.775 11.3334 11.3333Z" fill="white"/>
</g>
<rect x="0.5" y="0.5" width="15" height="15" rx="7.5" stroke="white"/>
<defs>
<clipPath id="clip0_9582_16045">
<rect width="16" height="16" rx="8" fill="white"/>
</clipPath>
</defs>
</svg>
