<svg width="20" height="20" viewBox="0 0 20 20" fill="none" xmlns="http://www.w3.org/2000/svg">
<g clip-path="url(#clip0_5540_15039)">
<path d="M16.6261 16.6281C20.2867 12.9675 20.2867 7.03249 16.6261 3.37187C12.9655 -0.288738 7.03044 -0.288737 3.36982 3.37187C-0.290788 7.03249 -0.290788 12.9675 3.36982 16.6281C7.03044 20.2887 12.9655 20.2887 16.6261 16.6281Z" fill="#E071FF"/>
<path fill-rule="evenodd" clip-rule="evenodd" d="M19.2399 11.5904C18.5728 15.4935 15.4933 18.5729 11.5903 19.24L6.54334 14.1931C5.33564 13.1964 4.56592 11.6881 4.56592 9.99999C4.56592 6.99885 6.99873 4.56604 9.99986 4.56604C11.688 4.56604 13.1963 5.33581 14.193 6.54346L19.2399 11.5904Z" fill="#A83FC4"/>
<path fill-rule="evenodd" clip-rule="evenodd" d="M15.2169 9.99999C15.2169 6.99885 12.8326 4.56604 9.8914 4.56604C6.95017 4.56604 4.56592 6.99885 4.56592 9.99999C4.56592 13.0011 6.95017 15.4339 9.8914 15.4339C12.8326 15.4339 15.2169 13.0011 15.2169 9.99999ZM7.39471 11.9004L7.48132 11.0344V11.0344H8.39046L8.47706 11.9004C8.51499 12.2107 8.24839 12.5052 7.9359 12.4984C7.62336 12.5052 7.35684 12.2107 7.39471 11.9004ZM12.3244 10.3265L11.913 9.55955L11.073 9.90746L11.3244 10.7407C11.3687 10.8875 11.4736 11.0094 11.6122 11.0751C12.0769 11.3017 12.5738 10.7792 12.3244 10.3265ZM11.5626 8.75389L11.7867 9.29491L10.9752 9.63107L10.7511 9.09004L11.0216 8.978L10.8121 8.47226C10.7236 8.25853 10.5024 8.13638 10.2744 8.17518C10.0369 8.2156 9.8645 8.41981 9.8645 8.66074C9.8645 9.12489 10.0564 9.57767 10.391 9.90298C10.583 10.0897 10.6895 10.3504 10.6832 10.6184C10.6773 10.8663 10.5768 11.1002 10.3999 11.277C10.2231 11.4538 9.9892 11.5544 9.74129 11.5603L9.71782 11.5605C9.46414 11.5606 9.22553 11.4635 9.04361 11.2858C8.85603 11.1026 8.75273 10.8573 8.75273 10.5952V8.12929C8.75273 7.94445 8.60236 7.79406 8.41751 7.79406C8.23267 7.79406 8.08229 7.94445 8.08229 8.12929V10.156H8.37509V10.7416H7.49669V10.156H7.78949V8.12929C7.78949 7.783 8.0712 7.50126 8.41749 7.50126C8.76379 7.50126 9.04552 7.783 9.04552 8.12929V10.5952C9.04552 10.7778 9.11749 10.9487 9.24818 11.0764C9.37882 11.204 9.55176 11.2718 9.73439 11.2676C9.90672 11.2635 10.0695 11.1933 10.1929 11.07C10.3162 10.9466 10.3864 10.7838 10.3905 10.6115C10.3949 10.422 10.3226 10.2449 10.1869 10.1129C9.99141 9.92286 9.83843 9.69955 9.7322 9.44922C9.6257 9.1982 9.5717 8.93293 9.5717 8.66074C9.5717 8.27658 9.84657 7.95097 10.2253 7.88653C10.4 7.85679 10.5817 7.88762 10.7368 7.97334C10.892 8.05906 11.0148 8.19645 11.0826 8.3602L11.2921 8.86594L11.5626 8.75389Z" fill="white"/>
</g>
<defs>
<clipPath id="clip0_5540_15039">
<rect width="20" height="20" fill="white"/>
</clipPath>
</defs>
</svg>
