<svg width="840" height="164" viewBox="0 0 840 164" fill="none" xmlns="http://www.w3.org/2000/svg">
<rect x="160" width="120" height="26" rx="4" fill="#71347B"/>
<path d="M214.492 17H212.812L209.008 11.252V17H207.328V8.612H209.008L212.812 14.372V8.612H214.492V17ZM222.332 13.532C222.332 13.772 222.316 13.988 222.284 14.18H217.424C217.464 14.66 217.632 15.036 217.928 15.308C218.224 15.58 218.588 15.716 219.02 15.716C219.644 15.716 220.088 15.448 220.352 14.912H222.164C221.972 15.552 221.604 16.08 221.06 16.496C220.516 16.904 219.848 17.108 219.056 17.108C218.416 17.108 217.84 16.968 217.328 16.688C216.824 16.4 216.428 15.996 216.14 15.476C215.86 14.956 215.72 14.356 215.72 13.676C215.72 12.988 215.86 12.384 216.14 11.864C216.42 11.344 216.812 10.944 217.316 10.664C217.82 10.384 218.4 10.244 219.056 10.244C219.688 10.244 220.252 10.38 220.748 10.652C221.252 10.924 221.64 11.312 221.912 11.816C222.192 12.312 222.332 12.884 222.332 13.532ZM220.592 13.052C220.584 12.62 220.428 12.276 220.124 12.02C219.82 11.756 219.448 11.624 219.008 11.624C218.592 11.624 218.24 11.752 217.952 12.008C217.672 12.256 217.5 12.604 217.436 13.052H220.592ZM232.774 10.352L230.83 17H229.018L227.806 12.356L226.594 17H224.77L222.814 10.352H224.518L225.694 15.416L226.966 10.352H228.742L229.99 15.404L231.166 10.352H232.774Z" fill="white"/>
<path d="M219.646 46.3536C219.842 46.5488 220.158 46.5488 220.354 46.3536L223.536 43.1716C223.731 42.9763 223.731 42.6597 223.536 42.4645C223.34 42.2692 223.024 42.2692 222.828 42.4645L220 45.2929L217.172 42.4645C216.976 42.2692 216.66 42.2692 216.464 42.4645C216.269 42.6597 216.269 42.9763 216.464 43.1716L219.646 46.3536ZM219.5 26V46H220.5V26H219.5Z" fill="#A3A3A3"/>
<rect x="160" y="46" width="120" height="26" rx="4" fill="#71347B"/>
<path d="M197.464 61.404H194.128L193.576 63H191.812L194.824 54.612H196.78L199.792 63H198.016L197.464 61.404ZM197.008 60.06L195.796 56.556L194.584 60.06H197.008ZM203.462 63.108C202.918 63.108 202.43 63.012 201.998 62.82C201.566 62.62 201.222 62.352 200.966 62.016C200.718 61.68 200.582 61.308 200.558 60.9H202.25C202.282 61.156 202.406 61.368 202.622 61.536C202.846 61.704 203.122 61.788 203.45 61.788C203.77 61.788 204.018 61.724 204.194 61.596C204.378 61.468 204.47 61.304 204.47 61.104C204.47 60.888 204.358 60.728 204.134 60.624C203.918 60.512 203.57 60.392 203.09 60.264C202.594 60.144 202.186 60.02 201.866 59.892C201.554 59.764 201.282 59.568 201.05 59.304C200.826 59.04 200.714 58.684 200.714 58.236C200.714 57.868 200.818 57.532 201.026 57.228C201.242 56.924 201.546 56.684 201.938 56.508C202.338 56.332 202.806 56.244 203.342 56.244C204.134 56.244 204.766 56.444 205.238 56.844C205.71 57.236 205.97 57.768 206.018 58.44H204.41C204.386 58.176 204.274 57.968 204.074 57.816C203.882 57.656 203.622 57.576 203.294 57.576C202.99 57.576 202.754 57.632 202.586 57.744C202.426 57.856 202.346 58.012 202.346 58.212C202.346 58.436 202.458 58.608 202.682 58.728C202.906 58.84 203.254 58.956 203.726 59.076C204.206 59.196 204.602 59.32 204.914 59.448C205.226 59.576 205.494 59.776 205.718 60.048C205.95 60.312 206.07 60.664 206.078 61.104C206.078 61.488 205.97 61.832 205.754 62.136C205.546 62.44 205.242 62.68 204.842 62.856C204.45 63.024 203.99 63.108 203.462 63.108ZM210.001 63.108C209.457 63.108 208.969 63.012 208.537 62.82C208.105 62.62 207.761 62.352 207.505 62.016C207.257 61.68 207.121 61.308 207.097 60.9H208.789C208.821 61.156 208.945 61.368 209.161 61.536C209.385 61.704 209.661 61.788 209.989 61.788C210.309 61.788 210.557 61.724 210.733 61.596C210.917 61.468 211.009 61.304 211.009 61.104C211.009 60.888 210.897 60.728 210.673 60.624C210.457 60.512 210.109 60.392 209.629 60.264C209.133 60.144 208.725 60.02 208.405 59.892C208.093 59.764 207.821 59.568 207.589 59.304C207.365 59.04 207.253 58.684 207.253 58.236C207.253 57.868 207.357 57.532 207.565 57.228C207.781 56.924 208.085 56.684 208.477 56.508C208.877 56.332 209.345 56.244 209.881 56.244C210.673 56.244 211.305 56.444 211.777 56.844C212.249 57.236 212.509 57.768 212.557 58.44H210.949C210.925 58.176 210.813 57.968 210.613 57.816C210.421 57.656 210.161 57.576 209.833 57.576C209.529 57.576 209.293 57.632 209.125 57.744C208.965 57.856 208.885 58.012 208.885 58.212C208.885 58.436 208.997 58.608 209.221 58.728C209.445 58.84 209.793 58.956 210.265 59.076C210.745 59.196 211.141 59.32 211.453 59.448C211.765 59.576 212.033 59.776 212.257 60.048C212.489 60.312 212.609 60.664 212.617 61.104C212.617 61.488 212.509 61.832 212.293 62.136C212.085 62.44 211.781 62.68 211.381 62.856C210.989 63.024 210.529 63.108 210.001 63.108ZM214.848 55.56C214.552 55.56 214.304 55.468 214.104 55.284C213.912 55.092 213.816 54.856 213.816 54.576C213.816 54.296 213.912 54.064 214.104 53.88C214.304 53.688 214.552 53.592 214.848 53.592C215.144 53.592 215.388 53.688 215.58 53.88C215.78 54.064 215.88 54.296 215.88 54.576C215.88 54.856 215.78 55.092 215.58 55.284C215.388 55.468 215.144 55.56 214.848 55.56ZM215.676 56.352V63H213.996V56.352H215.676ZM219.94 56.244C220.436 56.244 220.872 56.344 221.248 56.544C221.624 56.736 221.92 56.988 222.136 57.3V56.352H223.828V63.048C223.828 63.664 223.704 64.212 223.456 64.692C223.208 65.18 222.836 65.564 222.34 65.844C221.844 66.132 221.244 66.276 220.54 66.276C219.596 66.276 218.82 66.056 218.212 65.616C217.612 65.176 217.272 64.576 217.192 63.816H218.86C218.948 64.12 219.136 64.36 219.424 64.536C219.72 64.72 220.076 64.812 220.492 64.812C220.98 64.812 221.376 64.664 221.68 64.368C221.984 64.08 222.136 63.64 222.136 63.048V62.016C221.92 62.328 221.62 62.588 221.236 62.796C220.86 63.004 220.428 63.108 219.94 63.108C219.38 63.108 218.868 62.964 218.404 62.676C217.94 62.388 217.572 61.984 217.3 61.464C217.036 60.936 216.904 60.332 216.904 59.652C216.904 58.98 217.036 58.384 217.3 57.864C217.572 57.344 217.936 56.944 218.392 56.664C218.856 56.384 219.372 56.244 219.94 56.244ZM222.136 59.676C222.136 59.268 222.056 58.92 221.896 58.632C221.736 58.336 221.52 58.112 221.248 57.96C220.976 57.8 220.684 57.72 220.372 57.72C220.06 57.72 219.772 57.796 219.508 57.948C219.244 58.1 219.028 58.324 218.86 58.62C218.7 58.908 218.62 59.252 218.62 59.652C218.62 60.052 218.7 60.404 218.86 60.708C219.028 61.004 219.244 61.232 219.508 61.392C219.78 61.552 220.068 61.632 220.372 61.632C220.684 61.632 220.976 61.556 221.248 61.404C221.52 61.244 221.736 61.02 221.896 60.732C222.056 60.436 222.136 60.084 222.136 59.676ZM229.153 56.256C229.945 56.256 230.585 56.508 231.073 57.012C231.561 57.508 231.805 58.204 231.805 59.1V63H230.125V59.328C230.125 58.8 229.993 58.396 229.729 58.116C229.465 57.828 229.105 57.684 228.649 57.684C228.185 57.684 227.817 57.828 227.545 58.116C227.281 58.396 227.149 58.8 227.149 59.328V63H225.469V56.352H227.149V57.18C227.373 56.892 227.657 56.668 228.001 56.508C228.353 56.34 228.737 56.256 229.153 56.256ZM239.582 59.532C239.582 59.772 239.566 59.988 239.534 60.18H234.674C234.714 60.66 234.882 61.036 235.178 61.308C235.474 61.58 235.838 61.716 236.27 61.716C236.894 61.716 237.338 61.448 237.602 60.912H239.414C239.222 61.552 238.854 62.08 238.31 62.496C237.766 62.904 237.098 63.108 236.306 63.108C235.666 63.108 235.09 62.968 234.578 62.688C234.074 62.4 233.678 61.996 233.39 61.476C233.11 60.956 232.97 60.356 232.97 59.676C232.97 58.988 233.11 58.384 233.39 57.864C233.67 57.344 234.062 56.944 234.566 56.664C235.07 56.384 235.65 56.244 236.306 56.244C236.938 56.244 237.502 56.38 237.998 56.652C238.502 56.924 238.89 57.312 239.162 57.816C239.442 58.312 239.582 58.884 239.582 59.532ZM237.842 59.052C237.834 58.62 237.678 58.276 237.374 58.02C237.07 57.756 236.698 57.624 236.258 57.624C235.842 57.624 235.49 57.752 235.202 58.008C234.922 58.256 234.75 58.604 234.686 59.052H237.842ZM240.376 59.652C240.376 58.98 240.508 58.384 240.772 57.864C241.044 57.344 241.412 56.944 241.876 56.664C242.34 56.384 242.856 56.244 243.424 56.244C243.856 56.244 244.268 56.34 244.66 56.532C245.052 56.716 245.364 56.964 245.596 57.276V54.12H247.3V63H245.596V62.016C245.388 62.344 245.096 62.608 244.72 62.808C244.344 63.008 243.908 63.108 243.412 63.108C242.852 63.108 242.34 62.964 241.876 62.676C241.412 62.388 241.044 61.984 240.772 61.464C240.508 60.936 240.376 60.332 240.376 59.652ZM245.608 59.676C245.608 59.268 245.528 58.92 245.368 58.632C245.208 58.336 244.992 58.112 244.72 57.96C244.448 57.8 244.156 57.72 243.844 57.72C243.532 57.72 243.244 57.796 242.98 57.948C242.716 58.1 242.5 58.324 242.332 58.62C242.172 58.908 242.092 59.252 242.092 59.652C242.092 60.052 242.172 60.404 242.332 60.708C242.5 61.004 242.716 61.232 242.98 61.392C243.252 61.552 243.54 61.632 243.844 61.632C244.156 61.632 244.448 61.556 244.72 61.404C244.992 61.244 245.208 61.02 245.368 60.732C245.528 60.436 245.608 60.084 245.608 59.676Z" fill="white"/>
<path d="M219.646 92.3536C219.842 92.5488 220.158 92.5488 220.354 92.3536L223.536 89.1716C223.731 88.9763 223.731 88.6597 223.536 88.4645C223.34 88.2692 223.024 88.2692 222.828 88.4645L220 91.2929L217.172 88.4645C216.976 88.2692 216.66 88.2692 216.464 88.4645C216.269 88.6597 216.269 88.9763 216.464 89.1716L219.646 92.3536ZM219.5 72V92H220.5V72H219.5Z" fill="#A3A3A3"/>
<rect x="160" y="92" width="120" height="26" rx="4" fill="#71347B"/>
<path d="M210 100.624V101.98H206.508V104.128H209.184V105.46H206.508V109H204.828V100.624H210ZM212.043 101.56C211.747 101.56 211.499 101.468 211.299 101.284C211.107 101.092 211.011 100.856 211.011 100.576C211.011 100.296 211.107 100.064 211.299 99.88C211.499 99.688 211.747 99.592 212.043 99.592C212.339 99.592 212.583 99.688 212.775 99.88C212.975 100.064 213.075 100.296 213.075 100.576C213.075 100.856 212.975 101.092 212.775 101.284C212.583 101.468 212.339 101.56 212.043 101.56ZM212.871 102.352V109H211.191V102.352H212.871ZM218.203 109L216.835 106.936L215.623 109H213.823L215.995 105.664L213.799 102.352H215.695L217.051 104.404L218.275 102.352H220.075L217.891 105.664L220.099 109H218.203ZM227.192 105.532C227.192 105.772 227.176 105.988 227.144 106.18H222.284C222.324 106.66 222.492 107.036 222.788 107.308C223.084 107.58 223.448 107.716 223.88 107.716C224.504 107.716 224.948 107.448 225.212 106.912H227.024C226.832 107.552 226.464 108.08 225.92 108.496C225.376 108.904 224.708 109.108 223.916 109.108C223.276 109.108 222.7 108.968 222.188 108.688C221.684 108.4 221.288 107.996 221 107.476C220.72 106.956 220.58 106.356 220.58 105.676C220.58 104.988 220.72 104.384 221 103.864C221.28 103.344 221.672 102.944 222.176 102.664C222.68 102.384 223.26 102.244 223.916 102.244C224.548 102.244 225.112 102.38 225.608 102.652C226.112 102.924 226.5 103.312 226.772 103.816C227.052 104.312 227.192 104.884 227.192 105.532ZM225.452 105.052C225.444 104.62 225.288 104.276 224.984 104.02C224.68 103.756 224.308 103.624 223.868 103.624C223.452 103.624 223.1 103.752 222.812 104.008C222.532 104.256 222.36 104.604 222.296 105.052H225.452ZM227.986 105.652C227.986 104.98 228.118 104.384 228.382 103.864C228.654 103.344 229.022 102.944 229.486 102.664C229.95 102.384 230.466 102.244 231.034 102.244C231.466 102.244 231.878 102.34 232.27 102.532C232.662 102.716 232.974 102.964 233.206 103.276V100.12H234.91V109H233.206V108.016C232.998 108.344 232.706 108.608 232.33 108.808C231.954 109.008 231.518 109.108 231.022 109.108C230.462 109.108 229.95 108.964 229.486 108.676C229.022 108.388 228.654 107.984 228.382 107.464C228.118 106.936 227.986 106.332 227.986 105.652ZM233.218 105.676C233.218 105.268 233.138 104.92 232.978 104.632C232.818 104.336 232.602 104.112 232.33 103.96C232.058 103.8 231.766 103.72 231.454 103.72C231.142 103.72 230.854 103.796 230.59 103.948C230.326 104.1 230.11 104.324 229.942 104.62C229.782 104.908 229.702 105.252 229.702 105.652C229.702 106.052 229.782 106.404 229.942 106.708C230.11 107.004 230.326 107.232 230.59 107.392C230.862 107.552 231.15 107.632 231.454 107.632C231.766 107.632 232.058 107.556 232.33 107.404C232.602 107.244 232.818 107.02 232.978 106.732C233.138 106.436 233.218 106.084 233.218 105.676Z" fill="white"/>
<path d="M219.646 138.354C219.842 138.549 220.158 138.549 220.354 138.354L223.536 135.172C223.731 134.976 223.731 134.66 223.536 134.464C223.34 134.269 223.024 134.269 222.828 134.464L220 137.293L217.172 134.464C216.976 134.269 216.66 134.269 216.464 134.464C216.269 134.66 216.269 134.976 216.464 135.172L219.646 138.354ZM219.5 118V138H220.5V118H219.5Z" fill="#A3A3A3"/>
<rect x="160" y="138" width="120" height="26" rx="4" fill="#71347B"/>
<path d="M198.92 150.8C198.92 149.976 199.104 149.24 199.472 148.592C199.848 147.936 200.356 147.428 200.996 147.068C201.644 146.7 202.368 146.516 203.168 146.516C204.104 146.516 204.924 146.756 205.628 147.236C206.332 147.716 206.824 148.38 207.104 149.228H205.172C204.98 148.828 204.708 148.528 204.356 148.328C204.012 148.128 203.612 148.028 203.156 148.028C202.668 148.028 202.232 148.144 201.848 148.376C201.472 148.6 201.176 148.92 200.96 149.336C200.752 149.752 200.648 150.24 200.648 150.8C200.648 151.352 200.752 151.84 200.96 152.264C201.176 152.68 201.472 153.004 201.848 153.236C202.232 153.46 202.668 153.572 203.156 153.572C203.612 153.572 204.012 153.472 204.356 153.272C204.708 153.064 204.98 152.76 205.172 152.36H207.104C206.824 153.216 206.332 153.884 205.628 154.364C204.932 154.836 204.112 155.072 203.168 155.072C202.368 155.072 201.644 154.892 200.996 154.532C200.356 154.164 199.848 153.656 199.472 153.008C199.104 152.36 198.92 151.624 198.92 150.8ZM210.219 146.12V155H208.539V146.12H210.219ZM214.831 155.108C214.191 155.108 213.615 154.968 213.103 154.688C212.591 154.4 212.187 153.996 211.891 153.476C211.603 152.956 211.459 152.356 211.459 151.676C211.459 150.996 211.607 150.396 211.903 149.876C212.207 149.356 212.619 148.956 213.139 148.676C213.659 148.388 214.239 148.244 214.879 148.244C215.519 148.244 216.099 148.388 216.619 148.676C217.139 148.956 217.547 149.356 217.843 149.876C218.147 150.396 218.299 150.996 218.299 151.676C218.299 152.356 218.143 152.956 217.831 153.476C217.527 153.996 217.111 154.4 216.583 154.688C216.063 154.968 215.479 155.108 214.831 155.108ZM214.831 153.644C215.135 153.644 215.419 153.572 215.683 153.428C215.955 153.276 216.171 153.052 216.331 152.756C216.491 152.46 216.571 152.1 216.571 151.676C216.571 151.044 216.403 150.56 216.067 150.224C215.739 149.88 215.335 149.708 214.855 149.708C214.375 149.708 213.971 149.88 213.643 150.224C213.323 150.56 213.163 151.044 213.163 151.676C213.163 152.308 213.319 152.796 213.631 153.14C213.951 153.476 214.351 153.644 214.831 153.644ZM222.075 155.108C221.531 155.108 221.043 155.012 220.611 154.82C220.179 154.62 219.835 154.352 219.579 154.016C219.331 153.68 219.195 153.308 219.171 152.9H220.863C220.895 153.156 221.019 153.368 221.235 153.536C221.459 153.704 221.735 153.788 222.063 153.788C222.383 153.788 222.631 153.724 222.807 153.596C222.991 153.468 223.083 153.304 223.083 153.104C223.083 152.888 222.971 152.728 222.747 152.624C222.531 152.512 222.183 152.392 221.703 152.264C221.207 152.144 220.799 152.02 220.479 151.892C220.167 151.764 219.895 151.568 219.663 151.304C219.439 151.04 219.327 150.684 219.327 150.236C219.327 149.868 219.431 149.532 219.639 149.228C219.855 148.924 220.159 148.684 220.551 148.508C220.951 148.332 221.419 148.244 221.955 148.244C222.747 148.244 223.379 148.444 223.851 148.844C224.323 149.236 224.583 149.768 224.631 150.44H223.023C222.999 150.176 222.887 149.968 222.687 149.816C222.495 149.656 222.235 149.576 221.907 149.576C221.603 149.576 221.367 149.632 221.199 149.744C221.039 149.856 220.959 150.012 220.959 150.212C220.959 150.436 221.071 150.608 221.295 150.728C221.519 150.84 221.867 150.956 222.339 151.076C222.819 151.196 223.215 151.32 223.527 151.448C223.839 151.576 224.107 151.776 224.331 152.048C224.563 152.312 224.683 152.664 224.691 153.104C224.691 153.488 224.583 153.832 224.367 154.136C224.159 154.44 223.855 154.68 223.455 154.856C223.063 155.024 222.603 155.108 222.075 155.108ZM232.25 151.532C232.25 151.772 232.234 151.988 232.202 152.18H227.342C227.382 152.66 227.55 153.036 227.846 153.308C228.142 153.58 228.506 153.716 228.938 153.716C229.562 153.716 230.006 153.448 230.27 152.912H232.082C231.89 153.552 231.522 154.08 230.978 154.496C230.434 154.904 229.766 155.108 228.974 155.108C228.334 155.108 227.758 154.968 227.246 154.688C226.742 154.4 226.346 153.996 226.058 153.476C225.778 152.956 225.638 152.356 225.638 151.676C225.638 150.988 225.778 150.384 226.058 149.864C226.338 149.344 226.73 148.944 227.234 148.664C227.738 148.384 228.318 148.244 228.974 148.244C229.606 148.244 230.17 148.38 230.666 148.652C231.17 148.924 231.558 149.312 231.83 149.816C232.11 150.312 232.25 150.884 232.25 151.532ZM230.51 151.052C230.502 150.62 230.346 150.276 230.042 150.02C229.738 149.756 229.366 149.624 228.926 149.624C228.51 149.624 228.158 149.752 227.87 150.008C227.59 150.256 227.418 150.604 227.354 151.052H230.51ZM233.044 151.652C233.044 150.98 233.176 150.384 233.44 149.864C233.712 149.344 234.08 148.944 234.544 148.664C235.008 148.384 235.524 148.244 236.092 148.244C236.524 148.244 236.936 148.34 237.328 148.532C237.72 148.716 238.032 148.964 238.264 149.276V146.12H239.968V155H238.264V154.016C238.056 154.344 237.764 154.608 237.388 154.808C237.012 155.008 236.576 155.108 236.08 155.108C235.52 155.108 235.008 154.964 234.544 154.676C234.08 154.388 233.712 153.984 233.44 153.464C233.176 152.936 233.044 152.332 233.044 151.652ZM238.276 151.676C238.276 151.268 238.196 150.92 238.036 150.632C237.876 150.336 237.66 150.112 237.388 149.96C237.116 149.8 236.824 149.72 236.512 149.72C236.2 149.72 235.912 149.796 235.648 149.948C235.384 150.1 235.168 150.324 235 150.62C234.84 150.908 234.76 151.252 234.76 151.652C234.76 152.052 234.84 152.404 235 152.708C235.168 153.004 235.384 153.232 235.648 153.392C235.92 153.552 236.208 153.632 236.512 153.632C236.824 153.632 237.116 153.556 237.388 153.404C237.66 153.244 237.876 153.02 238.036 152.732C238.196 152.436 238.276 152.084 238.276 151.676Z" fill="white"/>
<path d="M359.646 46.3536C359.842 46.5488 360.158 46.5488 360.354 46.3536L363.536 43.1716C363.731 42.9763 363.731 42.6597 363.536 42.4645C363.34 42.2692 363.024 42.2692 362.828 42.4645L360 45.2929L357.172 42.4645C356.976 42.2692 356.66 42.2692 356.464 42.4645C356.269 42.6597 356.269 42.9763 356.464 43.1716L359.646 46.3536ZM359.5 34V46H360.5V34H359.5Z" fill="#A3A3A3"/>
<rect x="300" y="46" width="120" height="26" rx="4" fill="#71347B"/>
<path d="M334.256 54.624C335.136 54.624 335.908 54.796 336.572 55.14C337.244 55.484 337.76 55.976 338.12 56.616C338.488 57.248 338.672 57.984 338.672 58.824C338.672 59.664 338.488 60.4 338.12 61.032C337.76 61.656 337.244 62.14 336.572 62.484C335.908 62.828 335.136 63 334.256 63H331.328V54.624H334.256ZM334.196 61.572C335.076 61.572 335.756 61.332 336.236 60.852C336.716 60.372 336.956 59.696 336.956 58.824C336.956 57.952 336.716 57.272 336.236 56.784C335.756 56.288 335.076 56.04 334.196 56.04H333.008V61.572H334.196ZM346.206 56.352V63H344.514V62.16C344.298 62.448 344.014 62.676 343.662 62.844C343.318 63.004 342.942 63.084 342.534 63.084C342.014 63.084 341.554 62.976 341.154 62.76C340.754 62.536 340.438 62.212 340.206 61.788C339.982 61.356 339.87 60.844 339.87 60.252V56.352H341.55V60.012C341.55 60.54 341.682 60.948 341.946 61.236C342.21 61.516 342.57 61.656 343.026 61.656C343.49 61.656 343.854 61.516 344.118 61.236C344.382 60.948 344.514 60.54 344.514 60.012V56.352H346.206ZM349.543 57.312C349.759 57.008 350.055 56.756 350.431 56.556C350.815 56.348 351.251 56.244 351.739 56.244C352.307 56.244 352.819 56.384 353.275 56.664C353.739 56.944 354.103 57.344 354.367 57.864C354.639 58.376 354.775 58.972 354.775 59.652C354.775 60.332 354.639 60.936 354.367 61.464C354.103 61.984 353.739 62.388 353.275 62.676C352.819 62.964 352.307 63.108 351.739 63.108C351.251 63.108 350.819 63.008 350.443 62.808C350.075 62.608 349.775 62.356 349.543 62.052V66.168H347.863V56.352H349.543V57.312ZM353.059 59.652C353.059 59.252 352.975 58.908 352.807 58.62C352.647 58.324 352.431 58.1 352.159 57.948C351.895 57.796 351.607 57.72 351.295 57.72C350.991 57.72 350.703 57.8 350.431 57.96C350.167 58.112 349.951 58.336 349.783 58.632C349.623 58.928 349.543 59.276 349.543 59.676C349.543 60.076 349.623 60.424 349.783 60.72C349.951 61.016 350.167 61.244 350.431 61.404C350.703 61.556 350.991 61.632 351.295 61.632C351.607 61.632 351.895 61.552 352.159 61.392C352.431 61.232 352.647 61.004 352.807 60.708C352.975 60.412 353.059 60.06 353.059 59.652ZM357.676 54.12V63H355.996V54.12H357.676ZM360.188 55.56C359.892 55.56 359.644 55.468 359.444 55.284C359.252 55.092 359.156 54.856 359.156 54.576C359.156 54.296 359.252 54.064 359.444 53.88C359.644 53.688 359.892 53.592 360.188 53.592C360.484 53.592 360.728 53.688 360.92 53.88C361.12 54.064 361.22 54.296 361.22 54.576C361.22 54.856 361.12 55.092 360.92 55.284C360.728 55.468 360.484 55.56 360.188 55.56ZM361.016 56.352V63H359.336V56.352H361.016ZM362.244 59.676C362.244 58.988 362.384 58.388 362.664 57.876C362.944 57.356 363.332 56.956 363.828 56.676C364.324 56.388 364.892 56.244 365.532 56.244C366.356 56.244 367.036 56.452 367.572 56.868C368.116 57.276 368.48 57.852 368.664 58.596H366.852C366.756 58.308 366.592 58.084 366.36 57.924C366.136 57.756 365.856 57.672 365.52 57.672C365.04 57.672 364.66 57.848 364.38 58.2C364.1 58.544 363.96 59.036 363.96 59.676C363.96 60.308 364.1 60.8 364.38 61.152C364.66 61.496 365.04 61.668 365.52 61.668C366.2 61.668 366.644 61.364 366.852 60.756H368.664C368.48 61.476 368.116 62.048 367.572 62.472C367.028 62.896 366.348 63.108 365.532 63.108C364.892 63.108 364.324 62.968 363.828 62.688C363.332 62.4 362.944 62 362.664 61.488C362.384 60.968 362.244 60.364 362.244 59.676ZM369.462 59.652C369.462 58.98 369.594 58.384 369.858 57.864C370.13 57.344 370.494 56.944 370.95 56.664C371.414 56.384 371.93 56.244 372.498 56.244C372.994 56.244 373.426 56.344 373.794 56.544C374.17 56.744 374.47 56.996 374.694 57.3V56.352H376.386V63H374.694V62.028C374.478 62.34 374.178 62.6 373.794 62.808C373.418 63.008 372.982 63.108 372.486 63.108C371.926 63.108 371.414 62.964 370.95 62.676C370.494 62.388 370.13 61.984 369.858 61.464C369.594 60.936 369.462 60.332 369.462 59.652ZM374.694 59.676C374.694 59.268 374.614 58.92 374.454 58.632C374.294 58.336 374.078 58.112 373.806 57.96C373.534 57.8 373.242 57.72 372.93 57.72C372.618 57.72 372.33 57.796 372.066 57.948C371.802 58.1 371.586 58.324 371.418 58.62C371.258 58.908 371.178 59.252 371.178 59.652C371.178 60.052 371.258 60.404 371.418 60.708C371.586 61.004 371.802 61.232 372.066 61.392C372.338 61.552 372.626 61.632 372.93 61.632C373.242 61.632 373.534 61.556 373.806 61.404C374.078 61.244 374.294 61.02 374.454 60.732C374.614 60.436 374.694 60.084 374.694 59.676ZM379.983 57.732V60.948C379.983 61.172 380.035 61.336 380.139 61.44C380.251 61.536 380.435 61.584 380.691 61.584H381.471V63H380.415C378.999 63 378.291 62.312 378.291 60.936V57.732H377.499V56.352H378.291V54.708H379.983V56.352H381.471V57.732H379.983ZM388.86 59.532C388.86 59.772 388.844 59.988 388.812 60.18H383.952C383.992 60.66 384.16 61.036 384.456 61.308C384.752 61.58 385.116 61.716 385.548 61.716C386.172 61.716 386.616 61.448 386.88 60.912H388.692C388.5 61.552 388.132 62.08 387.588 62.496C387.044 62.904 386.376 63.108 385.584 63.108C384.944 63.108 384.368 62.968 383.856 62.688C383.352 62.4 382.956 61.996 382.668 61.476C382.388 60.956 382.248 60.356 382.248 59.676C382.248 58.988 382.388 58.384 382.668 57.864C382.948 57.344 383.34 56.944 383.844 56.664C384.348 56.384 384.928 56.244 385.584 56.244C386.216 56.244 386.78 56.38 387.276 56.652C387.78 56.924 388.168 57.312 388.44 57.816C388.72 58.312 388.86 58.884 388.86 59.532ZM387.12 59.052C387.112 58.62 386.956 58.276 386.652 58.02C386.348 57.756 385.976 57.624 385.536 57.624C385.12 57.624 384.768 57.752 384.48 58.008C384.2 58.256 384.028 58.604 383.964 59.052H387.12Z" fill="white"/>
<path d="M499.646 46.3536C499.842 46.5488 500.158 46.5488 500.354 46.3536L503.536 43.1716C503.731 42.9763 503.731 42.6597 503.536 42.4645C503.34 42.2692 503.024 42.2692 502.828 42.4645L500 45.2929L497.172 42.4645C496.976 42.2692 496.66 42.2692 496.464 42.4645C496.269 42.6597 496.269 42.9763 496.464 43.1716L499.646 46.3536ZM499.5 34V46H500.5V34H499.5Z" fill="#A3A3A3"/>
<rect x="440" y="46" width="120" height="26" rx="4" fill="#71347B"/>
<path d="M478.148 63L476.3 59.736H475.508V63H473.828V54.624H476.972C477.62 54.624 478.172 54.74 478.628 54.972C479.084 55.196 479.424 55.504 479.648 55.896C479.88 56.28 479.996 56.712 479.996 57.192C479.996 57.744 479.836 58.244 479.516 58.692C479.196 59.132 478.72 59.436 478.088 59.604L480.092 63H478.148ZM475.508 58.476H476.912C477.368 58.476 477.708 58.368 477.932 58.152C478.156 57.928 478.268 57.62 478.268 57.228C478.268 56.844 478.156 56.548 477.932 56.34C477.708 56.124 477.368 56.016 476.912 56.016H475.508V58.476ZM487.696 59.532C487.696 59.772 487.68 59.988 487.648 60.18H482.788C482.828 60.66 482.996 61.036 483.292 61.308C483.588 61.58 483.952 61.716 484.384 61.716C485.008 61.716 485.452 61.448 485.716 60.912H487.528C487.336 61.552 486.968 62.08 486.424 62.496C485.88 62.904 485.212 63.108 484.42 63.108C483.78 63.108 483.204 62.968 482.692 62.688C482.188 62.4 481.792 61.996 481.504 61.476C481.224 60.956 481.083 60.356 481.083 59.676C481.083 58.988 481.224 58.384 481.504 57.864C481.784 57.344 482.176 56.944 482.68 56.664C483.184 56.384 483.764 56.244 484.42 56.244C485.052 56.244 485.616 56.38 486.112 56.652C486.616 56.924 487.004 57.312 487.276 57.816C487.556 58.312 487.696 58.884 487.696 59.532ZM485.956 59.052C485.948 58.62 485.792 58.276 485.488 58.02C485.184 57.756 484.812 57.624 484.372 57.624C483.956 57.624 483.604 57.752 483.316 58.008C483.036 58.256 482.864 58.604 482.8 59.052H485.956ZM489.774 55.56C489.47 55.56 489.218 55.468 489.018 55.284C488.826 55.092 488.73 54.856 488.73 54.576C488.73 54.296 488.826 54.064 489.018 53.88C489.218 53.688 489.47 53.592 489.774 53.592C490.07 53.592 490.314 53.688 490.506 53.88C490.698 54.064 490.794 54.296 490.794 54.576C490.794 54.856 490.698 55.092 490.506 55.284C490.314 55.468 490.07 55.56 489.774 55.56ZM490.602 64.092C490.602 64.828 490.418 65.356 490.05 65.676C489.69 66.004 489.17 66.168 488.49 66.168H487.746V64.74H488.226C488.482 64.74 488.662 64.688 488.766 64.584C488.87 64.488 488.922 64.328 488.922 64.104V56.352H490.602V64.092ZM498.442 59.532C498.442 59.772 498.426 59.988 498.394 60.18H493.534C493.574 60.66 493.742 61.036 494.038 61.308C494.334 61.58 494.698 61.716 495.13 61.716C495.754 61.716 496.198 61.448 496.462 60.912H498.274C498.082 61.552 497.714 62.08 497.17 62.496C496.626 62.904 495.958 63.108 495.166 63.108C494.526 63.108 493.95 62.968 493.438 62.688C492.934 62.4 492.538 61.996 492.25 61.476C491.97 60.956 491.83 60.356 491.83 59.676C491.83 58.988 491.97 58.384 492.25 57.864C492.53 57.344 492.922 56.944 493.426 56.664C493.93 56.384 494.51 56.244 495.166 56.244C495.798 56.244 496.362 56.38 496.858 56.652C497.362 56.924 497.75 57.312 498.022 57.816C498.302 58.312 498.442 58.884 498.442 59.532ZM496.702 59.052C496.694 58.62 496.538 58.276 496.234 58.02C495.93 57.756 495.558 57.624 495.118 57.624C494.702 57.624 494.35 57.752 494.062 58.008C493.782 58.256 493.61 58.604 493.546 59.052H496.702ZM499.236 59.676C499.236 58.988 499.376 58.388 499.656 57.876C499.936 57.356 500.324 56.956 500.82 56.676C501.316 56.388 501.884 56.244 502.524 56.244C503.348 56.244 504.028 56.452 504.564 56.868C505.108 57.276 505.472 57.852 505.656 58.596H503.844C503.748 58.308 503.584 58.084 503.352 57.924C503.128 57.756 502.848 57.672 502.512 57.672C502.032 57.672 501.652 57.848 501.372 58.2C501.092 58.544 500.952 59.036 500.952 59.676C500.952 60.308 501.092 60.8 501.372 61.152C501.652 61.496 502.032 61.668 502.512 61.668C503.192 61.668 503.636 61.364 503.844 60.756H505.656C505.472 61.476 505.108 62.048 504.564 62.472C504.02 62.896 503.34 63.108 502.524 63.108C501.884 63.108 501.316 62.968 500.82 62.688C500.324 62.4 499.936 62 499.656 61.488C499.376 60.968 499.236 60.364 499.236 59.676ZM508.843 57.732V60.948C508.843 61.172 508.895 61.336 508.999 61.44C509.111 61.536 509.295 61.584 509.551 61.584H510.331V63H509.275C507.859 63 507.151 62.312 507.151 60.936V57.732H506.359V56.352H507.151V54.708H508.843V56.352H510.331V57.732H508.843ZM517.719 59.532C517.719 59.772 517.703 59.988 517.671 60.18H512.811C512.851 60.66 513.019 61.036 513.315 61.308C513.611 61.58 513.975 61.716 514.407 61.716C515.031 61.716 515.475 61.448 515.739 60.912H517.551C517.359 61.552 516.991 62.08 516.447 62.496C515.903 62.904 515.235 63.108 514.443 63.108C513.803 63.108 513.227 62.968 512.715 62.688C512.211 62.4 511.815 61.996 511.527 61.476C511.247 60.956 511.107 60.356 511.107 59.676C511.107 58.988 511.247 58.384 511.527 57.864C511.807 57.344 512.199 56.944 512.703 56.664C513.207 56.384 513.787 56.244 514.443 56.244C515.075 56.244 515.639 56.38 516.135 56.652C516.639 56.924 517.027 57.312 517.299 57.816C517.579 58.312 517.719 58.884 517.719 59.532ZM515.979 59.052C515.971 58.62 515.815 58.276 515.511 58.02C515.207 57.756 514.835 57.624 514.395 57.624C513.979 57.624 513.627 57.752 513.339 58.008C513.059 58.256 512.887 58.604 512.823 59.052H515.979ZM518.513 59.652C518.513 58.98 518.645 58.384 518.909 57.864C519.181 57.344 519.549 56.944 520.013 56.664C520.477 56.384 520.993 56.244 521.561 56.244C521.993 56.244 522.405 56.34 522.797 56.532C523.189 56.716 523.501 56.964 523.733 57.276V54.12H525.437V63H523.733V62.016C523.525 62.344 523.233 62.608 522.857 62.808C522.481 63.008 522.045 63.108 521.549 63.108C520.989 63.108 520.477 62.964 520.013 62.676C519.549 62.388 519.181 61.984 518.909 61.464C518.645 60.936 518.513 60.332 518.513 59.652ZM523.745 59.676C523.745 59.268 523.665 58.92 523.505 58.632C523.345 58.336 523.129 58.112 522.857 57.96C522.585 57.8 522.293 57.72 521.981 57.72C521.669 57.72 521.381 57.796 521.117 57.948C520.853 58.1 520.637 58.324 520.469 58.62C520.309 58.908 520.229 59.252 520.229 59.652C520.229 60.052 520.309 60.404 520.469 60.708C520.637 61.004 520.853 61.232 521.117 61.392C521.389 61.552 521.677 61.632 521.981 61.632C522.293 61.632 522.585 61.556 522.857 61.404C523.129 61.244 523.345 61.02 523.505 60.732C523.665 60.436 523.745 60.084 523.745 59.676Z" fill="white"/>
<path d="M639.646 46.3536C639.842 46.5488 640.158 46.5488 640.354 46.3536L643.536 43.1716C643.731 42.9763 643.731 42.6597 643.536 42.4645C643.34 42.2692 643.024 42.2692 642.828 42.4645L640 45.2929L637.172 42.4645C636.976 42.2692 636.66 42.2692 636.464 42.4645C636.269 42.6597 636.269 42.9763 636.464 43.1716L639.646 46.3536ZM639.5 34V46H640.5V34H639.5Z" fill="#A3A3A3"/>
<rect x="580" y="46" width="120" height="26" rx="4" fill="#71347B"/>
<path d="M617.256 54.624C618.136 54.624 618.908 54.796 619.572 55.14C620.244 55.484 620.76 55.976 621.12 56.616C621.488 57.248 621.672 57.984 621.672 58.824C621.672 59.664 621.488 60.4 621.12 61.032C620.76 61.656 620.244 62.14 619.572 62.484C618.908 62.828 618.136 63 617.256 63H614.328V54.624H617.256ZM617.196 61.572C618.076 61.572 618.756 61.332 619.236 60.852C619.716 60.372 619.956 59.696 619.956 58.824C619.956 57.952 619.716 57.272 619.236 56.784C618.756 56.288 618.076 56.04 617.196 56.04H616.008V61.572H617.196ZM629.11 59.532C629.11 59.772 629.094 59.988 629.062 60.18H624.202C624.242 60.66 624.41 61.036 624.706 61.308C625.002 61.58 625.366 61.716 625.798 61.716C626.422 61.716 626.866 61.448 627.13 60.912H628.942C628.75 61.552 628.382 62.08 627.838 62.496C627.294 62.904 626.626 63.108 625.834 63.108C625.194 63.108 624.618 62.968 624.106 62.688C623.602 62.4 623.206 61.996 622.918 61.476C622.638 60.956 622.498 60.356 622.498 59.676C622.498 58.988 622.638 58.384 622.918 57.864C623.198 57.344 623.59 56.944 624.094 56.664C624.598 56.384 625.178 56.244 625.834 56.244C626.466 56.244 627.03 56.38 627.526 56.652C628.03 56.924 628.418 57.312 628.69 57.816C628.97 58.312 629.11 58.884 629.11 59.532ZM627.37 59.052C627.362 58.62 627.206 58.276 626.902 58.02C626.598 57.756 626.226 57.624 625.786 57.624C625.37 57.624 625.018 57.752 624.73 58.008C624.45 58.256 624.278 58.604 624.214 59.052H627.37ZM633.384 57.732H632.22V63H630.516V57.732H629.76V56.352H630.516V56.016C630.516 55.2 630.748 54.6 631.212 54.216C631.676 53.832 632.376 53.652 633.312 53.676V55.092C632.904 55.084 632.62 55.152 632.46 55.296C632.3 55.44 632.22 55.7 632.22 56.076V56.352H633.384V57.732ZM640.653 59.532C640.653 59.772 640.637 59.988 640.605 60.18H635.745C635.785 60.66 635.953 61.036 636.249 61.308C636.545 61.58 636.909 61.716 637.341 61.716C637.965 61.716 638.409 61.448 638.673 60.912H640.485C640.293 61.552 639.925 62.08 639.381 62.496C638.837 62.904 638.169 63.108 637.377 63.108C636.737 63.108 636.161 62.968 635.649 62.688C635.145 62.4 634.749 61.996 634.461 61.476C634.181 60.956 634.041 60.356 634.041 59.676C634.041 58.988 634.181 58.384 634.461 57.864C634.741 57.344 635.133 56.944 635.637 56.664C636.141 56.384 636.721 56.244 637.377 56.244C638.009 56.244 638.573 56.38 639.069 56.652C639.573 56.924 639.961 57.312 640.233 57.816C640.513 58.312 640.653 58.884 640.653 59.532ZM638.913 59.052C638.905 58.62 638.749 58.276 638.445 58.02C638.141 57.756 637.769 57.624 637.329 57.624C636.913 57.624 636.561 57.752 636.273 58.008C635.993 58.256 635.821 58.604 635.757 59.052H638.913ZM643.559 57.384C643.775 57.032 644.055 56.756 644.399 56.556C644.751 56.356 645.151 56.256 645.599 56.256V58.02H645.155C644.627 58.02 644.227 58.144 643.955 58.392C643.691 58.64 643.559 59.072 643.559 59.688V63H641.879V56.352H643.559V57.384ZM648.41 57.384C648.626 57.032 648.906 56.756 649.25 56.556C649.602 56.356 650.002 56.256 650.45 56.256V58.02H650.006C649.478 58.02 649.078 58.144 648.806 58.392C648.542 58.64 648.41 59.072 648.41 59.688V63H646.73V56.352H648.41V57.384ZM657.762 59.532C657.762 59.772 657.746 59.988 657.714 60.18H652.854C652.894 60.66 653.062 61.036 653.358 61.308C653.654 61.58 654.018 61.716 654.45 61.716C655.074 61.716 655.518 61.448 655.782 60.912H657.594C657.402 61.552 657.034 62.08 656.49 62.496C655.946 62.904 655.278 63.108 654.486 63.108C653.846 63.108 653.27 62.968 652.758 62.688C652.254 62.4 651.858 61.996 651.57 61.476C651.29 60.956 651.15 60.356 651.15 59.676C651.15 58.988 651.29 58.384 651.57 57.864C651.85 57.344 652.242 56.944 652.746 56.664C653.25 56.384 653.83 56.244 654.486 56.244C655.118 56.244 655.682 56.38 656.178 56.652C656.682 56.924 657.07 57.312 657.342 57.816C657.622 58.312 657.762 58.884 657.762 59.532ZM656.022 59.052C656.014 58.62 655.858 58.276 655.554 58.02C655.25 57.756 654.878 57.624 654.438 57.624C654.022 57.624 653.67 57.752 653.382 58.008C653.102 58.256 652.93 58.604 652.866 59.052H656.022ZM658.556 59.652C658.556 58.98 658.688 58.384 658.952 57.864C659.224 57.344 659.592 56.944 660.056 56.664C660.52 56.384 661.036 56.244 661.604 56.244C662.036 56.244 662.448 56.34 662.84 56.532C663.232 56.716 663.544 56.964 663.776 57.276V54.12H665.48V63H663.776V62.016C663.568 62.344 663.276 62.608 662.9 62.808C662.524 63.008 662.088 63.108 661.592 63.108C661.032 63.108 660.52 62.964 660.056 62.676C659.592 62.388 659.224 61.984 658.952 61.464C658.688 60.936 658.556 60.332 658.556 59.652ZM663.788 59.676C663.788 59.268 663.708 58.92 663.548 58.632C663.388 58.336 663.172 58.112 662.9 57.96C662.628 57.8 662.336 57.72 662.024 57.72C661.712 57.72 661.424 57.796 661.16 57.948C660.896 58.1 660.68 58.324 660.512 58.62C660.352 58.908 660.272 59.252 660.272 59.652C660.272 60.052 660.352 60.404 660.512 60.708C660.68 61.004 660.896 61.232 661.16 61.392C661.432 61.552 661.72 61.632 662.024 61.632C662.336 61.632 662.628 61.556 662.9 61.404C663.172 61.244 663.388 61.02 663.548 60.732C663.708 60.436 663.788 60.084 663.788 59.676Z" fill="white"/>
<path d="M779.646 46.3536C779.842 46.5488 780.158 46.5488 780.354 46.3536L783.536 43.1716C783.731 42.9763 783.731 42.6597 783.536 42.4645C783.34 42.2692 783.024 42.2692 782.828 42.4645L780 45.2929L777.172 42.4645C776.976 42.2692 776.66 42.2692 776.464 42.4645C776.269 42.6597 776.269 42.9763 776.464 43.1716L779.646 46.3536ZM779.5 34V46H780.5V34H779.5Z" fill="#A3A3A3"/>
<rect x="720" y="46" width="120" height="26" rx="4" fill="#71347B"/>
<path d="M750.492 63H748.812L745.008 57.252V63H743.328V54.612H745.008L748.812 60.372V54.612H750.492V63ZM755.104 63.108C754.464 63.108 753.888 62.968 753.376 62.688C752.864 62.4 752.46 61.996 752.164 61.476C751.876 60.956 751.732 60.356 751.732 59.676C751.732 58.996 751.88 58.396 752.176 57.876C752.48 57.356 752.892 56.956 753.412 56.676C753.932 56.388 754.512 56.244 755.152 56.244C755.792 56.244 756.372 56.388 756.892 56.676C757.412 56.956 757.82 57.356 758.116 57.876C758.42 58.396 758.572 58.996 758.572 59.676C758.572 60.356 758.416 60.956 758.104 61.476C757.8 61.996 757.384 62.4 756.856 62.688C756.336 62.968 755.752 63.108 755.104 63.108ZM755.104 61.644C755.408 61.644 755.692 61.572 755.956 61.428C756.228 61.276 756.444 61.052 756.604 60.756C756.764 60.46 756.844 60.1 756.844 59.676C756.844 59.044 756.676 58.56 756.34 58.224C756.012 57.88 755.608 57.708 755.128 57.708C754.648 57.708 754.244 57.88 753.916 58.224C753.596 58.56 753.436 59.044 753.436 59.676C753.436 60.308 753.592 60.796 753.904 61.14C754.224 61.476 754.624 61.644 755.104 61.644ZM761.761 57.732V60.948C761.761 61.172 761.813 61.336 761.917 61.44C762.029 61.536 762.213 61.584 762.469 61.584H763.249V63H762.193C760.777 63 760.069 62.312 760.069 60.936V57.732H759.277V56.352H760.069V54.708H761.761V56.352H763.249V57.732H761.761ZM766.884 59.652C766.884 58.98 767.016 58.384 767.28 57.864C767.552 57.344 767.916 56.944 768.372 56.664C768.836 56.384 769.352 56.244 769.92 56.244C770.416 56.244 770.848 56.344 771.216 56.544C771.592 56.744 771.892 56.996 772.116 57.3V56.352H773.808V63H772.116V62.028C771.9 62.34 771.6 62.6 771.216 62.808C770.84 63.008 770.404 63.108 769.908 63.108C769.348 63.108 768.836 62.964 768.372 62.676C767.916 62.388 767.552 61.984 767.28 61.464C767.016 60.936 766.884 60.332 766.884 59.652ZM772.116 59.676C772.116 59.268 772.036 58.92 771.876 58.632C771.716 58.336 771.5 58.112 771.228 57.96C770.956 57.8 770.664 57.72 770.352 57.72C770.04 57.72 769.752 57.796 769.488 57.948C769.224 58.1 769.008 58.324 768.84 58.62C768.68 58.908 768.6 59.252 768.6 59.652C768.6 60.052 768.68 60.404 768.84 60.708C769.008 61.004 769.224 61.232 769.488 61.392C769.76 61.552 770.048 61.632 770.352 61.632C770.664 61.632 770.956 61.556 771.228 61.404C771.5 61.244 771.716 61.02 771.876 60.732C772.036 60.436 772.116 60.084 772.116 59.676ZM781.236 54.624C782.116 54.624 782.888 54.796 783.552 55.14C784.224 55.484 784.74 55.976 785.1 56.616C785.468 57.248 785.652 57.984 785.652 58.824C785.652 59.664 785.468 60.4 785.1 61.032C784.74 61.656 784.224 62.14 783.552 62.484C782.888 62.828 782.116 63 781.236 63H778.308V54.624H781.236ZM781.176 61.572C782.056 61.572 782.736 61.332 783.216 60.852C783.696 60.372 783.936 59.696 783.936 58.824C783.936 57.952 783.696 57.272 783.216 56.784C782.736 56.288 782.056 56.04 781.176 56.04H779.988V61.572H781.176ZM793.09 59.532C793.09 59.772 793.074 59.988 793.042 60.18H788.182C788.222 60.66 788.39 61.036 788.686 61.308C788.982 61.58 789.346 61.716 789.778 61.716C790.402 61.716 790.846 61.448 791.11 60.912H792.922C792.73 61.552 792.362 62.08 791.818 62.496C791.274 62.904 790.606 63.108 789.814 63.108C789.174 63.108 788.598 62.968 788.086 62.688C787.582 62.4 787.186 61.996 786.898 61.476C786.618 60.956 786.478 60.356 786.478 59.676C786.478 58.988 786.618 58.384 786.898 57.864C787.178 57.344 787.57 56.944 788.074 56.664C788.578 56.384 789.158 56.244 789.814 56.244C790.446 56.244 791.01 56.38 791.506 56.652C792.01 56.924 792.398 57.312 792.67 57.816C792.95 58.312 793.09 58.884 793.09 59.532ZM791.35 59.052C791.342 58.62 791.186 58.276 790.882 58.02C790.578 57.756 790.206 57.624 789.766 57.624C789.35 57.624 788.998 57.752 788.71 58.008C788.43 58.256 788.258 58.604 788.194 59.052H791.35ZM797.364 57.732H796.2V63H794.496V57.732H793.74V56.352H794.496V56.016C794.496 55.2 794.728 54.6 795.192 54.216C795.656 53.832 796.356 53.652 797.292 53.676V55.092C796.884 55.084 796.6 55.152 796.44 55.296C796.28 55.44 796.2 55.7 796.2 56.076V56.352H797.364V57.732ZM804.633 59.532C804.633 59.772 804.617 59.988 804.585 60.18H799.725C799.765 60.66 799.933 61.036 800.229 61.308C800.525 61.58 800.889 61.716 801.321 61.716C801.945 61.716 802.389 61.448 802.653 60.912H804.465C804.273 61.552 803.905 62.08 803.361 62.496C802.817 62.904 802.149 63.108 801.357 63.108C800.717 63.108 800.141 62.968 799.629 62.688C799.125 62.4 798.729 61.996 798.441 61.476C798.161 60.956 798.021 60.356 798.021 59.676C798.021 58.988 798.161 58.384 798.441 57.864C798.721 57.344 799.113 56.944 799.617 56.664C800.121 56.384 800.701 56.244 801.357 56.244C801.989 56.244 802.553 56.38 803.049 56.652C803.553 56.924 803.941 57.312 804.213 57.816C804.493 58.312 804.633 58.884 804.633 59.532ZM802.893 59.052C802.885 58.62 802.729 58.276 802.425 58.02C802.121 57.756 801.749 57.624 801.309 57.624C800.893 57.624 800.541 57.752 800.253 58.008C799.973 58.256 799.801 58.604 799.737 59.052H802.893ZM805.427 59.676C805.427 58.988 805.567 58.388 805.847 57.876C806.127 57.356 806.515 56.956 807.011 56.676C807.507 56.388 808.075 56.244 808.715 56.244C809.539 56.244 810.219 56.452 810.755 56.868C811.299 57.276 811.663 57.852 811.847 58.596H810.035C809.939 58.308 809.775 58.084 809.543 57.924C809.319 57.756 809.039 57.672 808.703 57.672C808.223 57.672 807.843 57.848 807.563 58.2C807.283 58.544 807.143 59.036 807.143 59.676C807.143 60.308 807.283 60.8 807.563 61.152C807.843 61.496 808.223 61.668 808.703 61.668C809.383 61.668 809.827 61.364 810.035 60.756H811.847C811.663 61.476 811.299 62.048 810.755 62.472C810.211 62.896 809.531 63.108 808.715 63.108C808.075 63.108 807.507 62.968 807.011 62.688C806.515 62.4 806.127 62 805.847 61.488C805.567 60.968 805.427 60.364 805.427 59.676ZM815.034 57.732V60.948C815.034 61.172 815.086 61.336 815.19 61.44C815.302 61.536 815.486 61.584 815.742 61.584H816.522V63H815.466C814.05 63 813.342 62.312 813.342 60.936V57.732H812.55V56.352H813.342V54.708H815.034V56.352H816.522V57.732H815.034Z" fill="white"/>
<rect x="20" y="92" width="120" height="26" rx="4" fill="#71347B"/>
<path d="M61.648 109L59.8 105.736H59.008V109H57.328V100.624H60.472C61.12 100.624 61.672 100.74 62.128 100.972C62.584 101.196 62.924 101.504 63.148 101.896C63.38 102.28 63.496 102.712 63.496 103.192C63.496 103.744 63.336 104.244 63.016 104.692C62.696 105.132 62.22 105.436 61.588 105.604L63.592 109H61.648ZM59.008 104.476H60.412C60.868 104.476 61.208 104.368 61.432 104.152C61.656 103.928 61.768 103.62 61.768 103.228C61.768 102.844 61.656 102.548 61.432 102.34C61.208 102.124 60.868 102.016 60.412 102.016H59.008V104.476ZM71.1955 105.532C71.1955 105.772 71.1795 105.988 71.1475 106.18H66.2875C66.3275 106.66 66.4955 107.036 66.7915 107.308C67.0875 107.58 67.4515 107.716 67.8835 107.716C68.5075 107.716 68.9515 107.448 69.2155 106.912H71.0275C70.8355 107.552 70.4675 108.08 69.9235 108.496C69.3795 108.904 68.7115 109.108 67.9195 109.108C67.2795 109.108 66.7035 108.968 66.1915 108.688C65.6875 108.4 65.2915 107.996 65.0035 107.476C64.7235 106.956 64.5835 106.356 64.5835 105.676C64.5835 104.988 64.7235 104.384 65.0035 103.864C65.2835 103.344 65.6755 102.944 66.1795 102.664C66.6835 102.384 67.2635 102.244 67.9195 102.244C68.5515 102.244 69.1155 102.38 69.6115 102.652C70.1155 102.924 70.5035 103.312 70.7755 103.816C71.0555 104.312 71.1955 104.884 71.1955 105.532ZM69.4555 105.052C69.4475 104.62 69.2915 104.276 68.9875 104.02C68.6835 103.756 68.3115 103.624 67.8715 103.624C67.4555 103.624 67.1035 103.752 66.8155 104.008C66.5355 104.256 66.3635 104.604 66.2995 105.052H69.4555ZM75.3738 109.108C74.7338 109.108 74.1578 108.968 73.6458 108.688C73.1338 108.4 72.7298 107.996 72.4338 107.476C72.1458 106.956 72.0018 106.356 72.0018 105.676C72.0018 104.996 72.1498 104.396 72.4458 103.876C72.7498 103.356 73.1618 102.956 73.6818 102.676C74.2018 102.388 74.7818 102.244 75.4218 102.244C76.0618 102.244 76.6418 102.388 77.1618 102.676C77.6818 102.956 78.0898 103.356 78.3858 103.876C78.6898 104.396 78.8418 104.996 78.8418 105.676C78.8418 106.356 78.6858 106.956 78.3737 107.476C78.0698 107.996 77.6538 108.4 77.1258 108.688C76.6058 108.968 76.0218 109.108 75.3738 109.108ZM75.3738 107.644C75.6778 107.644 75.9618 107.572 76.2258 107.428C76.4978 107.276 76.7138 107.052 76.8738 106.756C77.0338 106.46 77.1138 106.1 77.1138 105.676C77.1138 105.044 76.9458 104.56 76.6098 104.224C76.2818 103.88 75.8778 103.708 75.3978 103.708C74.9178 103.708 74.5138 103.88 74.1858 104.224C73.8658 104.56 73.7058 105.044 73.7058 105.676C73.7058 106.308 73.8618 106.796 74.1738 107.14C74.4938 107.476 74.8938 107.644 75.3738 107.644ZM81.7541 103.312C81.9701 103.008 82.2661 102.756 82.6421 102.556C83.0261 102.348 83.4621 102.244 83.9501 102.244C84.5181 102.244 85.0301 102.384 85.4861 102.664C85.9501 102.944 86.3141 103.344 86.5781 103.864C86.8501 104.376 86.9861 104.972 86.9861 105.652C86.9861 106.332 86.8501 106.936 86.5781 107.464C86.3141 107.984 85.9501 108.388 85.4861 108.676C85.0301 108.964 84.5181 109.108 83.9501 109.108C83.4621 109.108 83.0301 109.008 82.6541 108.808C82.2861 108.608 81.9861 108.356 81.7541 108.052V112.168H80.0741V102.352H81.7541V103.312ZM85.2701 105.652C85.2701 105.252 85.1861 104.908 85.0181 104.62C84.8581 104.324 84.6421 104.1 84.3701 103.948C84.1061 103.796 83.8181 103.72 83.5061 103.72C83.2021 103.72 82.9141 103.8 82.6421 103.96C82.3781 104.112 82.1621 104.336 81.9941 104.632C81.8341 104.928 81.7541 105.276 81.7541 105.676C81.7541 106.076 81.8341 106.424 81.9941 106.72C82.1621 107.016 82.3781 107.244 82.6421 107.404C82.9141 107.556 83.2021 107.632 83.5061 107.632C83.8181 107.632 84.1061 107.552 84.3701 107.392C84.6421 107.232 84.8581 107.004 85.0181 106.708C85.1861 106.412 85.2701 106.06 85.2701 105.652ZM94.3869 105.532C94.3869 105.772 94.3709 105.988 94.3389 106.18H89.4789C89.5189 106.66 89.6869 107.036 89.9829 107.308C90.2789 107.58 90.6429 107.716 91.0749 107.716C91.6989 107.716 92.1429 107.448 92.4069 106.912H94.2189C94.0269 107.552 93.6589 108.08 93.1149 108.496C92.5709 108.904 91.9029 109.108 91.1109 109.108C90.4709 109.108 89.8949 108.968 89.3829 108.688C88.8789 108.4 88.4829 107.996 88.1949 107.476C87.9149 106.956 87.7749 106.356 87.7749 105.676C87.7749 104.988 87.9149 104.384 88.1949 103.864C88.4749 103.344 88.8669 102.944 89.3709 102.664C89.8749 102.384 90.4549 102.244 91.1109 102.244C91.7429 102.244 92.3069 102.38 92.8029 102.652C93.3069 102.924 93.6949 103.312 93.9669 103.816C94.2469 104.312 94.3869 104.884 94.3869 105.532ZM92.6469 105.052C92.6389 104.62 92.4829 104.276 92.1789 104.02C91.8749 103.756 91.5029 103.624 91.0629 103.624C90.6469 103.624 90.2949 103.752 90.0069 104.008C89.7269 104.256 89.5549 104.604 89.4909 105.052H92.6469ZM99.2972 102.256C100.089 102.256 100.729 102.508 101.217 103.012C101.705 103.508 101.949 104.204 101.949 105.1V109H100.269V105.328C100.269 104.8 100.137 104.396 99.8732 104.116C99.6092 103.828 99.2492 103.684 98.7932 103.684C98.3292 103.684 97.9612 103.828 97.6892 104.116C97.4252 104.396 97.2932 104.8 97.2932 105.328V109H95.6132V102.352H97.2932V103.18C97.5172 102.892 97.8012 102.668 98.1452 102.508C98.4972 102.34 98.8812 102.256 99.2972 102.256Z" fill="white"/>
<path d="M139.646 104.646C139.451 104.842 139.451 105.158 139.646 105.354L142.828 108.536C143.024 108.731 143.34 108.731 143.536 108.536C143.731 108.34 143.731 108.024 143.536 107.828L140.707 105L143.536 102.172C143.731 101.976 143.731 101.66 143.536 101.464C143.34 101.269 143.024 101.269 142.828 101.464L139.646 104.646ZM140 105.5H160V104.5H140V105.5Z" fill="#A3A3A3"/>
<path d="M160.354 60.3536C160.549 60.1583 160.549 59.8417 160.354 59.6464L157.172 56.4645C156.976 56.2692 156.66 56.2692 156.464 56.4645C156.269 56.6597 156.269 56.9763 156.464 57.1716L159.293 60L156.464 62.8284C156.269 63.0237 156.269 63.3403 156.464 63.5355C156.66 63.7308 156.976 63.7308 157.172 63.5355L160.354 60.3536ZM80 60V59.5H79.5V60H80ZM80.5 92V60H79.5V92H80.5ZM80 60.5H160V59.5L80 59.5V60.5Z" fill="#A3A3A3"/>
<path d="M249 46V34L780.5 34" stroke="#A3A3A3"/>
</svg>
