<svg width="17" height="17" viewBox="0 0 17 17" fill="none" xmlns="http://www.w3.org/2000/svg">
<g clip-path="url(#clip0_384_17397)">
<path d="M8.5 16.5C12.9183 16.5 16.5 12.9183 16.5 8.5C16.5 4.08172 12.9183 0.5 8.5 0.5C4.08172 0.5 0.5 4.08172 0.5 8.5C0.5 12.9183 4.08172 16.5 8.5 16.5Z" fill="#06E25E"/>
<path d="M11.9331 8.10981L6.78716 5.30294C6.49101 5.14141 6.12988 5.35575 6.12988 5.69313V11.3069C6.12988 11.6443 6.49098 11.8586 6.78716 11.6971L11.9331 8.89019C12.2419 8.72172 12.2419 8.27828 11.9331 8.10981Z" fill="white"/>
<path d="M10.5746 2.37691C10.5373 2.37691 10.4994 2.37113 10.462 2.35925C10.2789 2.30081 10.0902 2.24988 9.90126 2.20791C9.70161 2.1635 9.57573 1.96572 9.6203 1.76591C9.66426 1.56625 9.86073 1.43938 10.0621 1.48481C10.2725 1.53153 10.4829 1.58841 10.6871 1.6535C10.8819 1.71572 10.9895 1.92403 10.9273 2.11894C10.8772 2.27638 10.7314 2.37691 10.5746 2.37691Z" fill="#6EFFD6"/>
<path d="M14.388 5.43671C14.2607 5.43671 14.1368 5.37102 14.068 5.25327C13.5043 4.28902 12.6962 3.48302 11.7303 2.92239C11.5535 2.81968 11.4933 2.59296 11.596 2.41618C11.699 2.23924 11.9248 2.17861 12.1024 2.28177C13.1785 2.90661 14.0793 3.80493 14.7074 4.87943C14.8108 5.05608 14.7511 5.28293 14.5746 5.38608C14.5159 5.42052 14.4517 5.43671 14.388 5.43671Z" fill="#6EFFD6"/>
<path d="M9.90035 14.3985C6.04179 14.0822 2.9181 10.9585 2.60176 7.09993C2.53932 6.3383 2.58388 5.59693 2.72191 4.88896C2.85176 4.22296 1.93591 3.87749 1.59279 4.46286C0.800631 5.81436 0.393913 7.41905 0.523881 9.12646C0.82035 13.0217 3.97854 16.1799 7.87379 16.4764C9.58122 16.6063 11.1859 16.1996 12.5374 15.4075C13.1228 15.0643 12.7773 14.1485 12.1113 14.2783C11.4034 14.4164 10.662 14.461 9.90035 14.3985Z" fill="#3CD25D"/>
<path d="M7.3027 9.14994V5.58416L6.78713 5.30294C6.49098 5.14141 6.12988 5.35575 6.12988 5.69313V11.3069C6.12988 11.6442 6.49098 11.8586 6.78713 11.6971L11.9331 8.89016C12.088 8.80562 12.1651 8.65184 12.1645 8.49831L8.06426 9.71794C7.68432 9.83094 7.3027 9.54631 7.3027 9.14994Z" fill="#E4EAF8"/>
</g>
<defs>
<clipPath id="clip0_384_17397">
<rect width="16" height="16" fill="white" transform="translate(0.5 0.5)"/>
</clipPath>
</defs>
</svg>
