<svg width="18" height="18" viewBox="0 0 18 18" fill="none" xmlns="http://www.w3.org/2000/svg">
<path d="M12.6871 0.646463L12.5406 0.5H12.3335H3.11475C2.40704 0.5 1.8335 1.07355 1.8335 1.78125V16.2188C1.8335 16.9265 2.40704 17.5 3.11475 17.5H14.8854C15.5931 17.5 16.1666 16.9265 16.1666 16.2188V4.33344V4.12634L16.0202 3.9799L12.6871 0.646463Z" fill="white" stroke="currentColor"/>
<path d="M12.3335 1L15.6669 4.33344H13.1147C12.6832 4.33344 12.3335 3.98375 12.3335 3.55219V1Z" fill="currentColor"/>
<path d="M16.2188 8.26343H1.78125C1.07364 8.26343 0.5 8.83706 0.5 9.54468V13.9822C0.5 14.6898 1.07364 15.2634 1.78125 15.2634H16.2188C16.9264 15.2634 17.5 14.6898 17.5 13.9822V9.54468C17.5 8.83706 16.9264 8.26343 16.2188 8.26343Z" fill="white" stroke="currentColor"/>
<path d="M8.00338 4.22314H3.979C3.80641 4.22314 3.6665 4.36306 3.6665 4.53564V4.57721C3.6665 4.7498 3.80641 4.88971 3.979 4.88971H8.00338C8.17597 4.88971 8.31588 4.7498 8.31588 4.57721V4.53564C8.31588 4.36306 8.17597 4.22314 8.00338 4.22314Z" fill="currentColor"/>
<path d="M11.0206 5.49316H3.979C3.80641 5.49316 3.6665 5.63308 3.6665 5.80566V5.84723C3.6665 6.01982 3.80641 6.15973 3.979 6.15973H11.0206C11.1932 6.15973 11.3331 6.01982 11.3331 5.84723V5.80566C11.3331 5.63308 11.1932 5.49316 11.0206 5.49316Z" fill="currentColor"/>
<path d="M11.0206 6.76343H3.979C3.80641 6.76343 3.6665 6.90334 3.6665 7.07593V7.11749C3.6665 7.29008 3.80641 7.42999 3.979 7.42999H11.0206C11.1932 7.42999 11.3331 7.29008 11.3331 7.11749V7.07593C11.3331 6.90334 11.1932 6.76343 11.0206 6.76343Z" fill="currentColor"/>
<path d="M11.7289 10.8835C11.6529 10.7435 11.5429 10.6375 11.3989 10.5655C11.2589 10.4895 11.0929 10.4515 10.9009 10.4515C10.5689 10.4515 10.3029 10.5615 10.1029 10.7815C9.90291 10.9975 9.80291 11.2875 9.80291 11.6515C9.80291 12.0395 9.90691 12.3435 10.1149 12.5635C10.3269 12.7795 10.6169 12.8875 10.9849 12.8875C11.2369 12.8875 11.4489 12.8235 11.6209 12.6955C11.7969 12.5675 11.9249 12.3835 12.0049 12.1435H10.7029V11.3875H12.9349V12.3415C12.8589 12.5975 12.7289 12.8355 12.5449 13.0555C12.3649 13.2755 12.1349 13.4535 11.8549 13.5895C11.5749 13.7255 11.2589 13.7935 10.9069 13.7935C10.4909 13.7935 10.1189 13.7035 9.79091 13.5235C9.46691 13.3395 9.21291 13.0855 9.02891 12.7615C8.84891 12.4375 8.75891 12.0675 8.75891 11.6515C8.75891 11.2355 8.84891 10.8655 9.02891 10.5415C9.21291 10.2135 9.46691 9.95948 9.79091 9.77948C10.1149 9.59548 10.4849 9.50348 10.9009 9.50348C11.4049 9.50348 11.8289 9.62548 12.1729 9.86948C12.5209 10.1135 12.7509 10.4515 12.8629 10.8835H11.7289Z" fill="currentColor"/>
<path d="M6.76546 13.8055C6.45746 13.8055 6.18146 13.7555 5.93746 13.6555C5.69346 13.5555 5.49746 13.4075 5.34946 13.2115C5.20546 13.0155 5.12946 12.7795 5.12146 12.5035H6.21346C6.22946 12.6595 6.28346 12.7795 6.37546 12.8635C6.46746 12.9435 6.58746 12.9835 6.73546 12.9835C6.88746 12.9835 7.00746 12.9495 7.09546 12.8815C7.18346 12.8095 7.22746 12.7115 7.22746 12.5875C7.22746 12.4835 7.19146 12.3975 7.11946 12.3295C7.05146 12.2615 6.96546 12.2055 6.86146 12.1615C6.76146 12.1175 6.61746 12.0675 6.42946 12.0115C6.15746 11.9275 5.93546 11.8435 5.76346 11.7595C5.59146 11.6755 5.44346 11.5515 5.31946 11.3875C5.19546 11.2235 5.13346 11.0095 5.13346 10.7455C5.13346 10.3535 5.27546 10.0475 5.55946 9.82746C5.84346 9.60346 6.21346 9.49146 6.66946 9.49146C7.13346 9.49146 7.50746 9.60346 7.79146 9.82746C8.07546 10.0475 8.22746 10.3555 8.24746 10.7515H7.13746C7.12946 10.6155 7.07946 10.5095 6.98746 10.4335C6.89546 10.3535 6.77746 10.3135 6.63346 10.3135C6.50946 10.3135 6.40946 10.3475 6.33346 10.4155C6.25746 10.4795 6.21946 10.5735 6.21946 10.6975C6.21946 10.8335 6.28346 10.9395 6.41146 11.0155C6.53946 11.0915 6.73946 11.1735 7.01146 11.2615C7.28346 11.3535 7.50346 11.4415 7.67146 11.5255C7.84346 11.6095 7.99146 11.7315 8.11546 11.8915C8.23946 12.0515 8.30146 12.2575 8.30146 12.5095C8.30146 12.7495 8.23946 12.9675 8.11546 13.1635C7.99546 13.3595 7.81946 13.5155 7.58746 13.6315C7.35546 13.7475 7.08146 13.8055 6.76546 13.8055Z" fill="currentColor"/>
</svg>
