<svg width="25" height="16" viewBox="0 0 25 16" fill="none" xmlns="http://www.w3.org/2000/svg">
    <rect width="25" height="16" rx="4" fill="#DED1E5" />
    <path
        d="M6.59719 11.056C6.20785 11.056 5.85585 10.9893 5.54119 10.856C5.23185 10.7227 4.98652 10.5307 4.80519 10.28C4.62385 10.0293 4.53052 9.73333 4.52519 9.392H5.72519C5.74119 9.62133 5.82119 9.80267 5.96519 9.936C6.11452 10.0693 6.31719 10.136 6.57319 10.136C6.83452 10.136 7.03985 10.0747 7.18919 9.952C7.33852 9.824 7.41319 9.65867 7.41319 9.456C7.41319 9.29067 7.36252 9.15467 7.26119 9.048C7.15985 8.94133 7.03185 8.85867 6.87719 8.8C6.72785 8.736 6.51985 8.66667 6.25319 8.592C5.89052 8.48533 5.59452 8.38133 5.36519 8.28C5.14119 8.17333 4.94652 8.016 4.78119 7.808C4.62119 7.59467 4.54119 7.312 4.54119 6.96C4.54119 6.62933 4.62385 6.34133 4.78919 6.096C4.95452 5.85067 5.18652 5.664 5.48519 5.536C5.78385 5.40267 6.12519 5.336 6.50919 5.336C7.08519 5.336 7.55185 5.47733 7.90919 5.76C8.27185 6.03733 8.47185 6.42667 8.50919 6.928H7.27719C7.26652 6.736 7.18385 6.57867 7.02919 6.456C6.87985 6.328 6.67985 6.264 6.42919 6.264C6.21052 6.264 6.03452 6.32 5.90119 6.432C5.77319 6.544 5.70919 6.70667 5.70919 6.92C5.70919 7.06933 5.75719 7.19467 5.85319 7.296C5.95452 7.392 6.07719 7.472 6.22119 7.536C6.37052 7.59467 6.57852 7.664 6.84519 7.744C7.20785 7.85067 7.50385 7.95733 7.73319 8.064C7.96252 8.17067 8.15985 8.33067 8.32519 8.544C8.49052 8.75733 8.57319 9.03733 8.57319 9.384C8.57319 9.68267 8.49585 9.96 8.34119 10.216C8.18652 10.472 7.95985 10.6773 7.66119 10.832C7.36252 10.9813 7.00785 11.056 6.59719 11.056ZM13.4322 7.096C13.3042 6.86133 13.1282 6.68267 12.9042 6.56C12.6802 6.43733 12.4189 6.376 12.1202 6.376C11.7895 6.376 11.4962 6.45067 11.2402 6.6C10.9842 6.74933 10.7842 6.96267 10.6402 7.24C10.4962 7.51733 10.4242 7.83733 10.4242 8.2C10.4242 8.57333 10.4962 8.89867 10.6402 9.176C10.7895 9.45333 10.9949 9.66667 11.2562 9.816C11.5175 9.96533 11.8215 10.04 12.1682 10.04C12.5949 10.04 12.9442 9.928 13.2162 9.704C13.4882 9.47467 13.6669 9.15733 13.7522 8.752H11.8322V7.896H14.8562V8.872C14.7815 9.26133 14.6215 9.62133 14.3762 9.952C14.1309 10.2827 13.8135 10.5493 13.4242 10.752C13.0402 10.9493 12.6082 11.048 12.1282 11.048C11.5895 11.048 11.1015 10.928 10.6642 10.688C10.2322 10.4427 9.89085 10.104 9.64019 9.672C9.39485 9.24 9.27219 8.74933 9.27219 8.2C9.27219 7.65067 9.39485 7.16 9.64019 6.728C9.89085 6.29067 10.2322 5.952 10.6642 5.712C11.1015 5.46667 11.5869 5.344 12.1202 5.344C12.7495 5.344 13.2962 5.49867 13.7602 5.808C14.2242 6.112 14.5442 6.54133 14.7202 7.096H13.4322ZM19.7568 7.144C19.7568 7.44267 19.6848 7.72267 19.5408 7.984C19.4021 8.24533 19.1808 8.456 18.8768 8.616C18.5781 8.776 18.1995 8.856 17.7408 8.856H16.8048V11H15.6848V5.416H17.7408C18.1728 5.416 18.5408 5.49067 18.8448 5.64C19.1488 5.78933 19.3755 5.99467 19.5248 6.256C19.6795 6.51733 19.7568 6.81333 19.7568 7.144ZM17.6928 7.952C18.0021 7.952 18.2315 7.88267 18.3808 7.744C18.5301 7.6 18.6048 7.4 18.6048 7.144C18.6048 6.6 18.3008 6.328 17.6928 6.328H16.8048V7.952H17.6928Z"
        fill="currentColor" />
</svg>