<svg width="25" height="16" viewBox="0 0 25 16" fill="none" xmlns="http://www.w3.org/2000/svg">
    <rect width="25" height="16" rx="4" fill="#DED1E5" />
    <path
        d="M6.48 11.056C6.09067 11.056 5.73867 10.9893 5.424 10.856C5.11467 10.7227 4.86933 10.5307 4.688 10.28C4.50667 10.0293 4.41333 9.73333 4.408 9.392H5.608C5.624 9.62133 5.704 9.80267 5.848 9.936C5.99733 10.0693 6.2 10.136 6.456 10.136C6.71733 10.136 6.92267 10.0747 7.072 9.952C7.22133 9.824 7.296 9.65867 7.296 9.456C7.296 9.29067 7.24533 9.15467 7.144 9.048C7.04267 8.94133 6.91467 8.85867 6.76 8.8C6.61067 8.736 6.40267 8.66667 6.136 8.592C5.77333 8.48533 5.47733 8.38133 5.248 8.28C5.024 8.17333 4.82933 8.016 4.664 7.808C4.504 7.59467 4.424 7.312 4.424 6.96C4.424 6.62933 4.50667 6.34133 4.672 6.096C4.83733 5.85067 5.06933 5.664 5.368 5.536C5.66667 5.40267 6.008 5.336 6.392 5.336C6.968 5.336 7.43467 5.47733 7.792 5.76C8.15467 6.03733 8.35467 6.42667 8.392 6.928H7.16C7.14933 6.736 7.06667 6.57867 6.912 6.456C6.76267 6.328 6.56267 6.264 6.312 6.264C6.09333 6.264 5.91733 6.32 5.784 6.432C5.656 6.544 5.592 6.70667 5.592 6.92C5.592 7.06933 5.64 7.19467 5.736 7.296C5.83733 7.392 5.96 7.472 6.104 7.536C6.25333 7.59467 6.46133 7.664 6.728 7.744C7.09067 7.85067 7.38667 7.95733 7.616 8.064C7.84533 8.17067 8.04267 8.33067 8.208 8.544C8.37333 8.75733 8.456 9.03733 8.456 9.384C8.456 9.68267 8.37867 9.96 8.224 10.216C8.06933 10.472 7.84267 10.6773 7.544 10.832C7.24533 10.9813 6.89067 11.056 6.48 11.056ZM13.315 7.096C13.187 6.86133 13.011 6.68267 12.787 6.56C12.563 6.43733 12.3017 6.376 12.003 6.376C11.6723 6.376 11.379 6.45067 11.123 6.6C10.867 6.74933 10.667 6.96267 10.523 7.24C10.379 7.51733 10.307 7.83733 10.307 8.2C10.307 8.57333 10.379 8.89867 10.523 9.176C10.6723 9.45333 10.8777 9.66667 11.139 9.816C11.4003 9.96533 11.7043 10.04 12.051 10.04C12.4777 10.04 12.827 9.928 13.099 9.704C13.371 9.47467 13.5497 9.15733 13.635 8.752H11.715V7.896H14.739V8.872C14.6643 9.26133 14.5043 9.62133 14.259 9.952C14.0137 10.2827 13.6963 10.5493 13.307 10.752C12.923 10.9493 12.491 11.048 12.011 11.048C11.4723 11.048 10.9843 10.928 10.547 10.688C10.115 10.4427 9.77367 10.104 9.523 9.672C9.27767 9.24 9.155 8.74933 9.155 8.2C9.155 7.65067 9.27767 7.16 9.523 6.728C9.77367 6.29067 10.115 5.952 10.547 5.712C10.9843 5.46667 11.4697 5.344 12.003 5.344C12.6323 5.344 13.179 5.49867 13.643 5.808C14.107 6.112 14.427 6.54133 14.603 7.096H13.315ZM20.5836 5.416L18.5356 11H17.1756L15.1276 5.416H16.3276L17.8636 9.856L19.3916 5.416H20.5836Z"
        fill="currentColor" />
</svg>