<svg width="14" height="16" viewBox="0 0 14 16" fill="none" xmlns="http://www.w3.org/2000/svg">
<path d="M6.58881 6.00047H13.9846V7.99607H10.0733C10.3988 8.20068 10.6794 8.38777 10.8762 8.54174C11.3946 8.94907 11.8 9.43237 12.0904 9.99167C12.3788 10.5529 12.525 11.1376 12.525 11.7476C12.525 12.8896 12.0748 13.8855 11.1744 14.7313C10.276 15.5771 9.11839 16 7.70354 16C7.267 16 6.84798 15.9668 6.44849 15.8986C6.22436 15.8694 5.73911 15.733 4.99856 15.4933C4.25604 15.2516 3.79222 15.1308 3.6032 15.1308C3.42973 15.1308 3.27969 15.1873 3.153 15.3004C3.0458 15.4134 2.96784 15.6472 2.91524 16H1.99929V10.7498H2.91524C3.01268 11.2915 3.12572 11.769 3.25434 12.1841C3.38103 12.5972 3.53304 12.9441 3.70453 13.2228C4.03584 13.7724 4.5406 14.2265 5.21879 14.5831C5.89699 14.9417 6.64534 15.1191 7.46581 15.1191C8.39152 15.1191 9.13208 14.8696 9.68555 14.3687C10.2371 13.8698 10.5138 13.2852 10.5138 12.6148C10.5138 12.2465 10.4125 11.8703 10.2098 11.4864C10.0071 11.1025 9.68361 10.742 9.23925 10.4029C8.96055 10.1924 8.15763 9.71491 6.83242 8.97046C6.2088 8.6177 5.65923 8.29226 5.18175 7.99604H0.0153809V6.00044H2.94253C2.89186 5.92052 2.82363 5.84646 2.77882 5.76461C2.49429 5.23843 2.35008 4.65961 2.35008 4.02819C2.35008 2.93684 2.77103 1.99361 3.61489 1.19652C4.45872 0.397562 5.53057 0 6.83239 0C7.66066 0 8.52398 0.196848 9.41851 0.590512C9.60756 0.672362 9.78296 0.738623 9.94469 0.791257C10.1065 0.843891 10.2292 0.86921 10.3111 0.86921C10.5001 0.86921 10.658 0.812678 10.7866 0.701611C10.9133 0.590512 11.0146 0.356652 11.0906 3.11809e-05H12.0066V5.28333H11.0906C11.0224 4.78053 10.9288 4.3284 10.808 3.92694C10.6872 3.52548 10.5371 3.1708 10.3559 2.86288C10.0168 2.27044 9.52178 1.79492 8.87087 1.43827C8.21996 1.08162 7.54956 0.902325 6.85578 0.902325C6.07235 0.902325 5.42534 1.14205 4.91474 1.61949C4.40218 2.09697 4.14494 2.64068 4.14494 3.25068C4.14494 3.70867 4.30671 4.13352 4.63215 4.52522C4.94982 4.91692 5.61439 5.41385 6.58881 6.00047Z" fill="currentColor"/>
</svg>
