<svg width="40" height="40" viewBox="0 0 40 40" fill="none" xmlns="http://www.w3.org/2000/svg">
<path d="M25.1196 3.29319L25.1195 3.2931L24.7593 2.98601C24.7592 2.98598 24.7592 2.98596 24.7592 2.98593C24.0526 2.38383 23.4791 1.89552 22.9797 1.5313L25.1196 3.29319ZM25.1196 3.29319C25.7312 3.81428 25.9446 3.99094 26.1717 4.12041L26.1718 4.12049M25.1196 3.29319L26.1718 4.12049M26.1718 4.12049C26.3897 4.24464 26.6223 4.34103 26.8644 4.40733C27.1167 4.47646 27.3924 4.50242 28.1934 4.56633L28.6654 4.604L28.6654 4.604M26.1718 4.12049L28.6654 4.604M28.6654 4.604C29.5908 4.67782 30.3417 4.73805 30.9524 4.83368L28.6654 4.604ZM35.1662 9.04761L35.1662 9.04754C35.0668 8.41221 34.9193 7.85544 34.6338 7.3366C34.177 6.50644 33.4935 5.82309 32.6634 5.3662C32.1446 5.0807 31.5878 4.93321 30.9524 4.83369L35.1662 9.04761ZM35.1662 9.04761C35.2619 9.65835 35.3221 10.4092 35.3959 11.3346L35.3959 11.3348M35.1662 9.04761L35.3959 11.3348M35.3959 11.3348L35.4337 11.8066L35.3959 11.3348ZM39.7821 18.4674C39.5947 17.8209 39.2692 17.2693 38.8727 16.7258L39.7821 18.4674ZM39.7821 18.4674C40.0726 19.4685 40.0726 20.5314 39.7821 21.5325V18.4674ZM35.8795 13.8284L35.8793 13.828C35.7552 13.61 35.6589 13.3774 35.5927 13.1356M35.8795 13.8284L35.9321 11.7668L35.4337 11.8068C35.4975 12.6066 35.5234 12.8831 35.5927 13.1356M35.8795 13.8284C36.0091 14.0555 36.1857 14.2688 36.7069 14.8804L37.0139 15.2407L37.014 15.2409M35.8795 13.8284L37.014 15.2409M35.5927 13.1356L36.0749 13.0035L35.5928 13.136C35.5928 13.1359 35.5927 13.1357 35.5927 13.1356ZM37.014 15.2409C37.6161 15.9473 38.1044 16.5209 38.4687 17.0204L38.4688 17.0204M37.014 15.2409L38.4688 17.0204M38.4688 17.0204C38.8477 17.5399 39.137 18.0379 39.3019 18.6067L39.3019 18.6068M38.4688 17.0204L39.3019 18.6068M39.3019 18.6068C39.566 19.5168 39.566 20.4831 39.3019 21.3931L39.3019 21.3932M39.3019 18.6068L39.3019 21.3932M39.3019 21.3932C39.137 21.9621 38.8477 22.4601 38.4687 22.9797C38.1044 23.4792 37.6162 24.0525 37.0141 24.7592L36.7069 25.1196C36.1857 25.7311 36.0091 25.9444 35.8795 26.1717L35.8793 26.172M39.3019 21.3932L35.8793 26.172M35.8793 26.172C35.7553 26.3898 35.6591 26.6222 35.5928 26.864M35.8793 26.172L35.3959 28.6653M35.3959 28.6653L35.3959 28.6651L35.4337 28.1933C35.4337 28.1933 35.4337 28.1932 35.4337 28.1932C35.4976 27.3929 35.5234 27.1165 35.5928 26.864M35.3959 28.6653C35.3221 29.5907 35.2619 30.3416 35.1662 30.9523L35.1662 30.9523M35.3959 28.6653L35.1662 30.9523M35.5928 26.864L36.0749 26.9966M35.5928 26.864C35.5928 26.8641 35.5927 26.8643 35.5927 26.8645L36.0749 26.9966M36.0749 26.9966C36.0211 27.1922 35.9977 27.4111 35.9321 28.2331L36.0749 26.9966ZM35.1662 30.9523C35.0668 31.5877 34.9193 32.1445 34.6338 32.6633C34.177 33.4935 33.4935 34.1768 32.6634 34.6337L32.6633 34.6337M35.1662 30.9523L32.6633 34.6337M32.6633 34.6337C32.1446 34.9193 31.5879 35.0667 30.9523 35.1663C30.3416 35.262 29.5908 35.3222 28.6654 35.3959L28.1935 35.4336C27.3923 35.4975 27.1168 35.5235 26.8645 35.5926L26.8644 35.5926M32.6633 34.6337L26.8644 35.5926M26.8644 35.5926C26.6222 35.6589 26.3896 35.7554 26.1719 35.8794L26.1718 35.8795M26.8644 35.5926L26.1718 35.8795M26.1718 35.8795C25.9446 36.0089 25.731 36.1859 25.1196 36.7067L25.1195 36.7068M26.1718 35.8795L25.1195 36.7068M25.1195 36.7068L24.759 37.014C24.0526 37.6161 23.4791 38.1045 22.9797 38.4685L22.9797 38.4686M25.1195 36.7068L22.9797 38.4686M22.9797 38.4686C22.46 38.8475 21.9619 39.1369 21.3932 39.302C20.4832 39.5659 19.5168 39.5659 18.6068 39.302C18.038 39.1369 17.54 38.8475 17.0203 38.4686L17.0202 38.4685M22.9797 38.4686L17.0202 38.4685M17.0202 38.4685C16.5208 38.1045 15.9474 37.6161 15.2409 37.0141L17.0202 38.4685ZM7.3366 34.6337L7.33668 34.6337C7.85539 34.9193 8.41206 35.0667 9.04761 35.1663C9.04763 35.1663 9.04766 35.1663 9.04769 35.1663L8.97024 35.6603C9.60384 35.7595 10.376 35.8211 11.2949 35.8944L7.3366 34.6337ZM7.3366 34.6337C6.5064 34.1768 5.82308 33.4935 5.36622 32.6633L4.92817 32.9044M7.3366 34.6337L4.92817 32.9044M4.92817 32.9044L5.36621 32.6633C5.08068 32.1445 4.93319 31.5877 4.83369 30.9523C4.73804 30.3416 4.67782 29.5909 4.604 28.6655L4.10558 28.7052L4.92817 32.9044ZM2.98593 24.7591L2.98597 24.7591L3.29311 25.1196C3.29312 25.1196 3.29314 25.1196 3.29315 25.1196C3.81423 25.731 3.99096 25.9445 4.12051 26.1719M2.98593 24.7591L3.9251 26.9966L4.40733 26.8645C4.34104 26.6224 4.24465 26.3898 4.12051 26.1719M2.98593 24.7591C2.38384 24.0527 1.89549 23.4792 1.5313 22.9798C1.15235 22.46 0.862961 21.962 0.697979 21.3932L0.217769 21.5325L0.697978 21.3932C0.434007 20.4831 0.434007 19.5168 0.697978 18.6067L0.217769 18.4674L0.697979 18.6067C0.862961 18.0379 1.15235 17.5399 1.53125 17.0204L1.53129 17.0204M2.98593 24.7591L1.53129 17.0204M4.12051 26.1719L3.68605 26.4194L4.12049 26.1719C4.1205 26.1719 4.1205 26.1719 4.12051 26.1719ZM1.53129 17.0204C1.89552 16.5209 2.38387 15.9473 2.98597 15.2408L2.98598 15.2408M1.53129 17.0204L2.98598 15.2408M2.98598 15.2408L3.29313 14.8803C3.29314 14.8803 3.29314 14.8803 3.29315 14.8803C3.81423 14.2689 3.99094 14.0554 4.12046 13.8282L4.12048 13.8281M2.98598 15.2408L4.12048 13.8281M4.12048 13.8281C4.24464 13.6102 4.34102 13.3776 4.40731 13.1356L4.12048 13.8281ZM4.10558 11.2947L4.604 11.3345L4.56633 11.8066L4.06791 11.7668L4.56633 11.8066C4.50243 12.6074 4.47647 12.8833 4.40733 13.1356L4.10558 11.2947ZM4.10558 11.2947L4.604 11.3345C4.67782 10.4092 4.73804 9.65832 4.83369 9.04761L4.83369 9.0476M4.10558 11.2947L4.83369 9.0476M4.83369 9.0476C4.9332 8.41218 5.08068 7.85542 5.36621 7.33662L5.36622 7.3366M4.83369 9.0476L5.36622 7.3366M5.36622 7.3366C5.82308 6.50641 6.50641 5.8231 7.33661 5.36621C7.85542 5.0807 8.41218 4.93321 9.04762 4.83368C9.65834 4.73805 10.4092 4.67782 11.3345 4.604L11.8066 4.56633L11.7668 4.06791M5.36622 7.3366L11.7668 4.06791M11.7668 4.06791L11.8066 4.56633C12.6074 4.50243 12.8833 4.47647 13.1356 4.40733L11.7668 4.06791ZM15.2408 2.98599L15.2408 2.98599L14.8803 3.29316L14.556 2.9126L14.8803 3.29316C14.2689 3.8142 14.0554 3.99097 13.8281 4.12048C13.6102 4.24464 13.3776 4.34102 13.1356 4.40731L15.2408 2.98599ZM15.2408 2.98599C15.9473 2.38388 16.5208 1.89553 17.0203 1.5313L15.2408 2.98599ZM21.3933 0.697978C20.4832 0.434007 19.5167 0.434007 18.6066 0.697978C18.038 0.862958 17.54 1.15235 17.0203 1.53129L21.3933 0.697978ZM21.3933 0.697978C21.9619 0.862958 22.46 1.15235 22.9797 1.53129L21.3933 0.697978ZM28.4163 16.7468L28.4163 16.7468C29.1975 15.9656 29.1976 14.699 28.4163 13.9178C27.6351 13.1366 26.3687 13.1366 25.5874 13.9178L17.6659 21.8392L14.4126 18.5858C13.6314 17.8046 12.3648 17.8046 11.5836 18.5858C10.8023 19.3669 10.8024 20.6335 11.5836 21.4147L11.9371 21.0611L11.5836 21.4147L16.2515 26.0826C17.0327 26.8638 18.2994 26.8638 19.0806 26.0826L28.4163 16.7468Z" fill="url(#paint0_linear_12_1111)" stroke="url(#paint1_linear_12_1111)"/>
<defs>
<linearGradient id="paint0_linear_12_1111" x1="15.7976" y1="7.59887e-07" x2="23.9907" y2="39.9999" gradientUnits="userSpaceOnUse">
<stop stop-color="#079455"/>
<stop offset="1" stop-color="#00693A"/>
</linearGradient>
<linearGradient id="paint1_linear_12_1111" x1="24.9011" y1="39.9999" x2="24.9011" y2="-1.05052e-07" gradientUnits="userSpaceOnUse">
<stop stop-color="#079455"/>
<stop offset="1" stop-color="#00693A"/>
</linearGradient>
</defs>
</svg>
