<svg width="17" height="16" viewBox="0 0 17 16" fill="none" xmlns="http://www.w3.org/2000/svg">
<path d="M16.8784 4.23891C16.8091 2.26289 15.1931 0.630861 13.201 0.526859C12.1077 0.468192 11.0783 0.846864 10.2943 1.59088C9.68632 2.16688 9.29698 2.90289 9.15565 3.70557H2.08888C1.4222 3.70557 0.880859 4.24691 0.880859 4.91359V12.0524C0.880859 12.719 1.4222 13.2604 2.08888 13.2604H2.84356C3.03556 13.2604 3.20889 13.3751 3.28623 13.5511L3.86224 14.8924C3.98491 15.1804 4.24358 15.3911 4.55025 15.4577C4.61692 15.4711 4.68358 15.4791 4.75025 15.4791C4.99292 15.4791 5.22759 15.3884 5.40893 15.2204L7.38229 13.3857C7.47029 13.3031 7.58763 13.2577 7.71029 13.2577H12.025C12.6917 13.2577 13.233 12.7164 13.233 12.0497V10.9883C13.9397 10.871 14.4811 10.2577 14.4811 9.51899V9.31899H14.9317C15.0651 9.31899 15.1744 9.20966 15.1744 9.07632C15.1744 8.94299 15.0651 8.83365 14.9317 8.83365H14.4997C14.5664 8.29764 14.8544 7.8043 15.2997 7.48163C16.3318 6.72695 16.9238 5.5136 16.8784 4.23891ZM12.241 4.67625H11.7637C11.5024 4.67625 11.2863 4.46292 11.2863 4.19891V4.06291C11.2863 3.80157 11.4997 3.58557 11.7637 3.58557C12.025 3.58557 12.241 3.79891 12.241 4.06291V4.67625ZM13.249 8.83632H12.7237V5.1616H13.249V8.83632ZM13.7344 8.83632V5.1616H14.2117C14.7424 5.1616 15.1717 4.72959 15.1717 4.20158V4.06558C15.1717 3.5349 14.7397 3.10556 14.2117 3.10556C13.6811 3.10556 13.2517 3.53757 13.2517 4.06558V4.67892H12.7264V4.06558C12.7264 3.5349 12.2944 3.10556 11.7664 3.10556C11.2357 3.10556 10.8063 3.53757 10.8063 4.06558V4.20158C10.8063 4.73226 11.2383 5.1616 11.7664 5.1616H12.2437V8.83365H11.969C11.8997 8.14831 11.5317 7.50563 10.9557 7.08162C10.081 6.43895 9.58232 5.45227 9.58232 4.37492C9.58232 3.4469 9.95566 2.58289 10.633 1.94021C11.321 1.28954 12.2224 0.956199 13.1824 1.00953C14.9264 1.10287 16.3398 2.52689 16.4011 4.25491C16.4411 5.3696 15.9237 6.42828 15.0171 7.09229C14.4491 7.5083 14.0837 8.14831 14.0144 8.83632H13.7344ZM13.7344 4.67625V4.06291C13.7344 3.80157 13.9477 3.58557 14.2117 3.58557C14.4731 3.58557 14.6891 3.79891 14.6891 4.06291V4.19891C14.6891 4.46025 14.4757 4.67625 14.2117 4.67625H13.7344ZM12.0224 12.775H7.70763C7.46229 12.775 7.23029 12.8657 7.04895 13.0337L5.07559 14.8684C4.95825 14.9751 4.80358 15.0177 4.64892 14.9857C4.49425 14.9537 4.36891 14.8497 4.30758 14.7057L3.73157 13.3617C3.57957 13.007 3.23023 12.775 2.84356 12.775H2.08888C1.69154 12.775 1.3662 12.4497 1.3662 12.0524V4.91092C1.3662 4.51359 1.69154 4.18825 2.08888 4.18825H9.10232C9.09965 4.24958 9.09165 4.31358 9.09165 4.37492C9.09165 5.60694 9.66499 6.73495 10.6623 7.47096C11.113 7.8043 11.4063 8.30031 11.4757 8.83365H11.0437C10.9103 8.83365 10.801 8.94299 10.801 9.07632C10.801 9.20966 10.9103 9.31899 11.0437 9.31899H11.4917V9.51899C11.4917 10.2603 12.0357 10.8737 12.7424 10.991V12.0497C12.745 12.4497 12.4197 12.775 12.0224 12.775ZM13.9931 9.52166C13.9931 10.0763 13.5424 10.5297 12.985 10.5297C12.4304 10.5297 11.977 10.079 11.977 9.52166V9.32166H12.481H13.4917H13.9931V9.52166Z" fill="currentColor"/>
<path d="M2.6809 5.97228H7.89698C8.03032 5.97228 8.13965 5.86294 8.13965 5.72961C8.13965 5.59627 8.03032 5.48694 7.89698 5.48694H2.6809C2.54757 5.48694 2.43823 5.59627 2.43823 5.72961C2.4409 5.86294 2.54757 5.97228 2.6809 5.97228Z" fill="currentColor"/>
<path d="M2.6809 7.77495H9.33434C9.46767 7.77495 9.57701 7.66562 9.57701 7.53228C9.57701 7.39895 9.46767 7.28961 9.33434 7.28961H2.6809C2.54757 7.28961 2.43823 7.39895 2.43823 7.53228C2.4409 7.66562 2.54757 7.77495 2.6809 7.77495Z" fill="currentColor"/>
<path d="M2.6809 9.57769H9.33434C9.46767 9.57769 9.57701 9.46835 9.57701 9.33502C9.57701 9.20168 9.46767 9.09235 9.33434 9.09235H2.6809C2.54757 9.09235 2.43823 9.20168 2.43823 9.33502C2.4409 9.46835 2.54757 9.57769 2.6809 9.57769Z" fill="currentColor"/>
<path d="M10.6037 10.895H2.6809C2.54757 10.895 2.43823 11.0044 2.43823 11.1377C2.43823 11.271 2.54757 11.3804 2.6809 11.3804H10.601C10.7344 11.3804 10.8437 11.271 10.8437 11.1377C10.8437 11.0017 10.737 10.895 10.6037 10.895Z" fill="currentColor"/>
</svg>
