<svg width="16" height="14" viewBox="0 0 16 14" fill="none" xmlns="http://www.w3.org/2000/svg">
<path d="M13.376 2.2H11.1467C11.0237 1.59767 10.6964 1.05632 10.2202 0.667569C9.74399 0.278817 9.14808 0.0665402 8.53333 0.0666657H7.46667C6.85192 0.0665402 6.25601 0.278817 5.77979 0.667569C5.30356 1.05632 4.97628 1.59767 4.85333 2.2H2.624C1.92851 2.20141 1.2619 2.47832 0.770109 2.97011C0.278318 3.4619 0.00140932 4.1285 0 4.824V11.3093C0.00140932 12.0048 0.278318 12.6714 0.770109 13.1632C1.2619 13.655 1.92851 13.9319 2.624 13.9333H13.376C14.0715 13.9319 14.7381 13.655 15.2299 13.1632C15.7217 12.6714 15.9986 12.0048 16 11.3093V4.824C15.9986 4.1285 15.7217 3.4619 15.2299 2.97011C14.7381 2.47832 14.0715 2.20141 13.376 2.2ZM7.46667 1.13333H8.53333C8.86252 1.13536 9.18308 1.23887 9.45128 1.42976C9.71948 1.62065 9.92227 1.88963 10.032 2.2H5.96267C6.0727 1.88877 6.2763 1.6192 6.54557 1.42823C6.81483 1.23727 7.13656 1.13426 7.46667 1.13333ZM2.624 3.26667H13.376C13.789 3.26667 14.1851 3.43074 14.4772 3.7228C14.7693 4.01485 14.9333 4.41097 14.9333 4.824V6.06667L9.424 7.64C8.4934 7.90674 7.5066 7.90674 6.576 7.64L1.06667 6.06667V4.824C1.06667 4.41097 1.23074 4.01485 1.5228 3.7228C1.81486 3.43074 2.21097 3.26667 2.624 3.26667ZM13.376 12.8667H2.624C2.41949 12.8667 2.21698 12.8264 2.02803 12.7481C1.83909 12.6699 1.66741 12.5551 1.5228 12.4105C1.37819 12.2659 1.26347 12.0942 1.18521 11.9053C1.10695 11.7164 1.06667 11.5138 1.06667 11.3093V7.176L6.28267 8.664C7.40521 8.98387 8.59479 8.98387 9.71733 8.664L14.9333 7.176V11.3093C14.9333 11.5138 14.8931 11.7164 14.8148 11.9053C14.7365 12.0942 14.6218 12.2659 14.4772 12.4105C14.3326 12.5551 14.1609 12.6699 13.972 12.7481C13.783 12.8264 13.5805 12.8667 13.376 12.8667Z" fill="currentColor"/>
</svg>
