<svg width="8" height="9" viewBox="0 0 8 9" fill="none" xmlns="http://www.w3.org/2000/svg">
<g clip-path="url(#clip0_783_9887)">
<path d="M4 6.16667C3.08 6.16667 2.33333 5.42 2.33333 4.5C2.33333 3.58 3.08 2.83333 4 2.83333C4.92 2.83333 5.66667 3.58 5.66667 4.5C5.66667 5.42 4.92 6.16667 4 6.16667ZM4 3.5C3.45 3.5 3 3.95 3 4.5C3 5.05 3.45 5.5 4 5.5C4.55 5.5 5 5.05 5 4.5C5 3.95 4.55 3.5 4 3.5ZM4.33333 1.83333V0.833333C4.33333 0.65 4.18333 0.5 4 0.5C3.81667 0.5 3.66667 0.65 3.66667 0.833333V1.83333C3.66667 2.01667 3.81667 2.16667 4 2.16667C4.18333 2.16667 4.33333 2.01667 4.33333 1.83333ZM4.33333 8.16667V7.16667C4.33333 6.98333 4.18333 6.83333 4 6.83333C3.81667 6.83333 3.66667 6.98333 3.66667 7.16667V8.16667C3.66667 8.35 3.81667 8.5 4 8.5C4.18333 8.5 4.33333 8.35 4.33333 8.16667ZM1.66667 4.5C1.66667 4.31667 1.51667 4.16667 1.33333 4.16667H0.333333C0.15 4.16667 0 4.31667 0 4.5C0 4.68333 0.15 4.83333 0.333333 4.83333H1.33333C1.51667 4.83333 1.66667 4.68333 1.66667 4.5ZM8 4.5C8 4.31667 7.85 4.16667 7.66667 4.16667H6.66667C6.48333 4.16667 6.33333 4.31667 6.33333 4.5C6.33333 4.68333 6.48333 4.83333 6.66667 4.83333H7.66667C7.85 4.83333 8 4.68333 8 4.5ZM2.23667 2.73667C2.36667 2.60667 2.36667 2.39667 2.23667 2.26667L1.57 1.6C1.44 1.47 1.23 1.47 1.1 1.6C0.97 1.73 0.97 1.94 1.1 2.07L1.76667 2.73667C1.83333 2.80333 1.91667 2.83333 2.00333 2.83333C2.09 2.83333 2.17333 2.8 2.24 2.73667H2.23667ZM6.90333 7.40333C7.03333 7.27333 7.03333 7.06333 6.90333 6.93333L6.23667 6.26667C6.10667 6.13667 5.89667 6.13667 5.76667 6.26667C5.63667 6.39667 5.63667 6.60667 5.76667 6.73667L6.43333 7.40333C6.5 7.47 6.58333 7.5 6.67 7.5C6.75667 7.5 6.84 7.46667 6.90667 7.40333H6.90333ZM1.57 7.40333L2.23667 6.73667C2.36667 6.60667 2.36667 6.39667 2.23667 6.26667C2.10667 6.13667 1.89667 6.13667 1.76667 6.26667L1.1 6.93333C0.97 7.06333 0.97 7.27333 1.1 7.40333C1.16667 7.47 1.25 7.5 1.33667 7.5C1.42333 7.5 1.50667 7.46667 1.57333 7.40333H1.57ZM6.23667 2.73667L6.90333 2.07C7.03333 1.94 7.03333 1.73 6.90333 1.6C6.77333 1.47 6.56333 1.47 6.43333 1.6L5.76667 2.26667C5.63667 2.39667 5.63667 2.60667 5.76667 2.73667C5.83333 2.80333 5.91667 2.83333 6.00333 2.83333C6.09 2.83333 6.17333 2.8 6.24 2.73667H6.23667Z" fill="currentColor"/>
</g>
<defs>
<clipPath id="clip0_783_9887">
<rect width="8" height="8" fill="white" transform="translate(0 0.5)"/>
</clipPath>
</defs>
</svg>
