<svg width="16" height="17" viewBox="0 0 16 17" fill="none" xmlns="http://www.w3.org/2000/svg">
<path d="M15.4269 4.752L10.7931 0.117627C10.7462 0.070752 10.6828 0.0441895 10.6165 0.0441895H5.36779C4.14623 0.0441895 3.15248 1.03825 3.15248 2.25981V6.6445H1.20811C0.83248 6.6445 0.526855 6.95013 0.526855 7.32575V11.242C0.526855 11.6176 0.83248 11.9233 1.20811 11.9233H3.15248V13.8286C3.15248 15.0501 4.14623 16.0442 5.36779 16.0442H13.2847C14.5062 16.0442 15.5 15.0501 15.5 13.8286V4.92888C15.5 4.86263 15.4737 4.79888 15.4269 4.752ZM15.0003 13.8286C15.0003 14.7748 14.2306 15.5445 13.2847 15.5445H5.36779C4.42186 15.5445 3.65217 14.7748 3.65217 13.8286V11.9233H11.8831C12.2587 11.9233 12.5644 11.6176 12.5644 11.242V7.32575C12.5644 6.95013 12.2587 6.6445 11.8831 6.6445H3.65217V2.25981C3.65217 1.31356 4.42186 0.543877 5.36779 0.543877H10.3665V4.42825C10.3665 4.842 10.7028 5.17856 11.1159 5.17856H15.0003V13.8286Z" fill="currentColor"/>
<path fill-rule="evenodd" clip-rule="evenodd" d="M3.18378 10.6146C3.34111 10.6813 3.51711 10.7146 3.71178 10.7146C3.91711 10.7146 4.09445 10.6773 4.24378 10.6026C4.39311 10.5253 4.50645 10.4226 4.58378 10.2946C4.66111 10.1666 4.69978 10.0279 4.69978 9.87861C4.69978 9.70528 4.65845 9.56528 4.57578 9.45861C4.49311 9.35195 4.39445 9.27195 4.27978 9.21861C4.16511 9.16528 4.01711 9.11195 3.83578 9.05861C3.70245 9.01861 3.59845 8.98395 3.52378 8.95461C3.45178 8.92261 3.39045 8.88261 3.33978 8.83461C3.29178 8.78395 3.26778 8.72128 3.26778 8.64661C3.26778 8.53995 3.29978 8.45861 3.36378 8.40261C3.43045 8.34661 3.51845 8.31861 3.62778 8.31861C3.75311 8.31861 3.85311 8.35061 3.92778 8.41461C4.00511 8.47595 4.04645 8.55461 4.05178 8.65061H4.66778C4.64911 8.39995 4.54911 8.20528 4.36778 8.06661C4.18911 7.92528 3.95578 7.85461 3.66778 7.85461C3.47578 7.85461 3.30511 7.88795 3.15578 7.95461C3.00645 8.01861 2.89045 8.11195 2.80778 8.23461C2.72511 8.35728 2.68378 8.50128 2.68378 8.66661C2.68378 8.84261 2.72378 8.98395 2.80378 9.09061C2.88645 9.19461 2.98378 9.27328 3.09578 9.32661C3.21045 9.37728 3.35845 9.42928 3.53978 9.48261C3.67311 9.51995 3.77711 9.55461 3.85178 9.58661C3.92911 9.61595 3.99311 9.65728 4.04378 9.71061C4.09445 9.76395 4.11978 9.83195 4.11978 9.91461C4.11978 10.0159 4.08245 10.0986 4.00778 10.1626C3.93311 10.2239 3.83045 10.2546 3.69978 10.2546C3.57178 10.2546 3.47045 10.2213 3.39578 10.1546C3.32378 10.0879 3.28378 9.99728 3.27578 9.88261H2.67578C2.67845 10.0533 2.72511 10.2013 2.81578 10.3266C2.90645 10.4519 3.02911 10.5479 3.18378 10.6146ZM6.66928 10.6866L7.69328 7.89461H7.09728L6.33328 10.1146L5.56528 7.89461H4.96528L5.98928 10.6866H6.66928ZM9.70903 8.46661C9.82103 8.52795 9.90903 8.61728 9.97303 8.73461H10.617C10.529 8.45728 10.369 8.24261 10.137 8.09061C9.90503 7.93595 9.6317 7.85861 9.31703 7.85861C9.05036 7.85861 8.8077 7.91995 8.58903 8.04261C8.37303 8.16261 8.20236 8.33195 8.07703 8.55061C7.95436 8.76661 7.89303 9.01195 7.89303 9.28661C7.89303 9.56128 7.95436 9.80661 8.07703 10.0226C8.20236 10.2386 8.37303 10.4079 8.58903 10.5306C8.8077 10.6506 9.0517 10.7106 9.32103 10.7106C9.56103 10.7106 9.77703 10.6613 9.96903 10.5626C10.1637 10.4613 10.3224 10.3279 10.445 10.1626C10.5677 9.99728 10.6477 9.81728 10.685 9.62261V9.13461H9.17303V9.56261H10.133C10.0904 9.76528 10.001 9.92395 9.86503 10.0386C9.72903 10.1506 9.55436 10.2066 9.34103 10.2066C9.1677 10.2066 9.0157 10.1693 8.88503 10.0946C8.75436 10.0199 8.6517 9.91328 8.57703 9.77461C8.50503 9.63595 8.46903 9.47328 8.46903 9.28661C8.46903 9.10528 8.50503 8.94528 8.57703 8.80661C8.64903 8.66795 8.74903 8.56128 8.87703 8.48661C9.00503 8.41195 9.1517 8.37461 9.31703 8.37461C9.46636 8.37461 9.59703 8.40528 9.70903 8.46661Z" fill="white"/>
</svg>
