<svg width="16" height="16" viewBox="0 0 15 18" fill="none" xmlns="http://www.w3.org/2000/svg">
<path d="M13.5739 9.27756V14.1579C13.5739 15.7274 12.3683 16.9998 10.8829 16.9998H7.97215C7.12796 16.9998 6.31301 16.6363 5.74713 15.9741C5.49034 15.6738 5.24124 15.3119 5.05826 14.8899L2.58107 9.9154C2.3397 9.42873 2.51921 8.8338 2.97317 8.58129C3.6436 8.20962 4.47241 8.48066 4.82454 9.18992L5.60875 10.7642V3.66524C5.60875 3.0696 6.07005 2.5535 6.63437 2.56971C7.16572 2.58611 7.60002 3.04444 7.60002 3.61978V7.92719C7.60002 7.34617 8.04594 6.87711 8.59643 6.87711C9.14374 6.87711 9.59129 7.34373 9.59129 7.92719V8.50175C9.59129 7.9207 10.0372 7.45165 10.5877 7.45165C11.1361 7.45165 11.5826 7.91952 11.5826 8.50175V9.27753C11.5826 8.69649 12.0285 8.22746 12.579 8.22746C13.1274 8.22746 13.5739 8.69533 13.5739 9.27756Z" fill="#ffffff" stroke="currentcolor" stroke-linejoin="round"/>
<mask id="path-2-outside-1_8001_33053" maskUnits="userSpaceOnUse" x="-0.573853" y="0" width="6" height="9" fill="currentcolor">
<rect fill="white" x="-0.573853" width="6" height="9"/>
<path fill-rule="evenodd" clip-rule="evenodd" d="M2.49785 1.00001C2.57712 0.999346 2.65342 1.0302 2.70996 1.08578L4.51888 2.86463C4.57382 2.92056 4.60459 2.99583 4.60456 3.07423C4.60454 3.15263 4.57372 3.22788 4.51875 3.28378C4.46378 3.33968 4.38906 3.37175 4.31067 3.37309C4.23229 3.37443 4.15651 3.34492 4.09967 3.29093L2.81729 2.02988L2.87005 7.1985L4.14046 5.90189C4.19629 5.84686 4.2715 5.81595 4.3499 5.81583C4.4283 5.81571 4.50361 5.84639 4.55961 5.90126C4.6156 5.95612 4.64781 6.03079 4.64929 6.10917C4.65078 6.18756 4.62141 6.26339 4.56753 6.32033L2.79198 8.1325C2.73649 8.18912 2.66077 8.22139 2.5815 8.2222C2.50222 8.22301 2.42587 8.1923 2.36923 8.13682L0.557056 6.36127C0.50202 6.30544 0.471113 6.23022 0.470994 6.15183C0.470875 6.07343 0.501553 5.99812 0.55642 5.94212C0.611287 5.88612 0.685953 5.85392 0.764337 5.85243C0.84272 5.85095 0.91855 5.88032 0.975494 5.9342L2.25067 7.18361L2.20742 2.02318L0.934648 3.31746C0.878716 3.37239 0.803445 3.40316 0.725047 3.40314C0.64665 3.40311 0.571398 3.3723 0.5155 3.31733C0.459601 3.26236 0.427529 3.18764 0.426191 3.10925C0.424853 3.03086 0.454356 2.95509 0.508345 2.89824L2.2872 1.08932C2.3428 1.0328 2.41857 1.00067 2.49785 1.00001Z"/>
</mask>
<path fill-rule="evenodd" clip-rule="evenodd" d="M2.49785 1.00001C2.57712 0.999346 2.65342 1.0302 2.70996 1.08578L4.51888 2.86463C4.57382 2.92056 4.60459 2.99583 4.60456 3.07423C4.60454 3.15263 4.57372 3.22788 4.51875 3.28378C4.46378 3.33968 4.38906 3.37175 4.31067 3.37309C4.23229 3.37443 4.15651 3.34492 4.09967 3.29093L2.81729 2.02988L2.87005 7.1985L4.14046 5.90189C4.19629 5.84686 4.2715 5.81595 4.3499 5.81583C4.4283 5.81571 4.50361 5.84639 4.55961 5.90126C4.6156 5.95612 4.64781 6.03079 4.64929 6.10917C4.65078 6.18756 4.62141 6.26339 4.56753 6.32033L2.79198 8.1325C2.73649 8.18912 2.66077 8.22139 2.5815 8.2222C2.50222 8.22301 2.42587 8.1923 2.36923 8.13682L0.557056 6.36127C0.50202 6.30544 0.471113 6.23022 0.470994 6.15183C0.470875 6.07343 0.501553 5.99812 0.55642 5.94212C0.611287 5.88612 0.685953 5.85392 0.764337 5.85243C0.84272 5.85095 0.91855 5.88032 0.975494 5.9342L2.25067 7.18361L2.20742 2.02318L0.934648 3.31746C0.878716 3.37239 0.803445 3.40316 0.725047 3.40314C0.64665 3.40311 0.571398 3.3723 0.5155 3.31733C0.459601 3.26236 0.427529 3.18764 0.426191 3.10925C0.424853 3.03086 0.454356 2.95509 0.508345 2.89824L2.2872 1.08932C2.3428 1.0328 2.41857 1.00067 2.49785 1.00001Z" fill="currentcolor"/>
<path d="M2.70996 1.08578L2.85019 0.943175L2.85017 0.943154L2.70996 1.08578ZM2.49785 1.00001L2.49952 1.2L2.49785 1.00001ZM4.51888 2.86463L4.66159 2.72447L4.65911 2.72203L4.51888 2.86463ZM4.60456 3.07423L4.40456 3.07417V3.07417L4.60456 3.07423ZM4.31067 3.37309L4.31409 3.57306H4.31409L4.31067 3.37309ZM4.09967 3.29093L3.95941 3.43356L3.96193 3.43595L4.09967 3.29093ZM2.81729 2.02988L2.95752 1.88728L2.61236 1.54785L2.6173 2.03192L2.81729 2.02988ZM2.87005 7.1985L2.67006 7.20054L2.67499 7.68336L3.01291 7.33847L2.87005 7.1985ZM4.14046 5.90189L4.00003 5.75944L3.9976 5.76192L4.14046 5.90189ZM4.3499 5.81583L4.3502 6.01583H4.35021L4.3499 5.81583ZM4.55961 5.90126L4.69958 5.7584L4.69958 5.7584L4.55961 5.90126ZM4.64929 6.10917L4.84926 6.10539L4.64929 6.10917ZM4.56753 6.32033L4.71041 6.46032L4.7128 6.4578L4.56753 6.32033ZM2.79198 8.1325L2.93482 8.27249L2.93484 8.27247L2.79198 8.1325ZM2.5815 8.2222L2.57946 8.02221L2.5815 8.2222ZM2.36923 8.13682L2.22926 8.27968L2.22928 8.2797L2.36923 8.13682ZM0.557056 6.36127L0.414603 6.5017L0.417086 6.50413L0.557056 6.36127ZM0.470994 6.15183L0.670994 6.15152L0.470994 6.15183ZM0.55642 5.94212L0.699277 6.08209L0.699278 6.08209L0.55642 5.94212ZM0.764337 5.85243L0.768115 6.0524H0.768116L0.764337 5.85243ZM0.975494 5.9342L1.11549 5.79132L1.11296 5.78893L0.975494 5.9342ZM2.25067 7.18361L2.1107 7.32646L2.4547 7.66351L2.45066 7.18193L2.25067 7.18361ZM2.20742 2.02318L2.40741 2.0215L2.40336 1.53867L2.06482 1.88294L2.20742 2.02318ZM0.934648 3.31746L1.07481 3.46017L1.07725 3.45769L0.934648 3.31746ZM0.725047 3.40314L0.725109 3.20314H0.725109L0.725047 3.40314ZM0.5155 3.31733L0.375268 3.45993L0.375269 3.45993L0.5155 3.31733ZM0.426191 3.10925L0.22622 3.11266L0.426191 3.10925ZM0.508345 2.89824L0.365722 2.75799L0.363328 2.76051L0.508345 2.89824ZM2.2872 1.08932L2.14462 0.949067L2.1446 0.949088L2.2872 1.08932ZM2.85017 0.943154C2.75581 0.850394 2.62848 0.798909 2.49617 0.800018L2.49952 1.2C2.52577 1.19978 2.55103 1.21 2.56975 1.2284L2.85017 0.943154ZM4.65911 2.72203L2.85019 0.943175L2.56973 1.22838L4.37865 3.00723L4.65911 2.72203ZM4.80456 3.07429C4.8046 2.94345 4.75325 2.81783 4.66157 2.72449L4.37619 3.00477C4.39438 3.02329 4.40457 3.04821 4.40456 3.07417L4.80456 3.07429ZM4.66136 3.42401C4.75309 3.33072 4.80452 3.20513 4.80456 3.07429L4.40456 3.07417C4.40455 3.10013 4.39435 3.12504 4.37615 3.14355L4.66136 3.42401ZM4.31409 3.57306C4.44491 3.57083 4.56962 3.5173 4.66136 3.42401L4.37615 3.14355C4.35795 3.16206 4.33321 3.17267 4.30726 3.17312L4.31409 3.57306ZM3.96193 3.43595C4.0568 3.52605 4.18327 3.57529 4.31409 3.57306L4.30726 3.17312C4.28131 3.17356 4.25622 3.16379 4.2374 3.14592L3.96193 3.43595ZM2.67706 2.17248L3.95943 3.43354L4.2399 3.14833L2.95752 1.88728L2.67706 2.17248ZM3.07004 7.19646L3.01728 2.02784L2.6173 2.03192L2.67006 7.20054L3.07004 7.19646ZM3.9976 5.76192L2.7272 7.05853L3.01291 7.33847L4.28332 6.04186L3.9976 5.76192ZM4.3496 5.61583C4.21876 5.61603 4.09323 5.66761 4.00005 5.75946L4.28086 6.04433C4.29935 6.0261 4.32425 6.01587 4.3502 6.01583L4.3496 5.61583ZM4.69958 5.7584C4.60612 5.66683 4.48044 5.61563 4.3496 5.61583L4.35021 6.01583C4.37616 6.01579 4.4011 6.02595 4.41964 6.04412L4.69958 5.7584ZM4.84926 6.10539C4.84679 5.97458 4.79303 5.84997 4.69958 5.7584L4.41964 6.04412C4.43818 6.06228 4.44884 6.087 4.44933 6.11295L4.84926 6.10539ZM4.7128 6.4578C4.80272 6.36276 4.85173 6.23621 4.84926 6.10539L4.44933 6.11295C4.44982 6.13891 4.4401 6.16401 4.42226 6.18287L4.7128 6.4578ZM2.93484 8.27247L4.71038 6.4603L4.42467 6.18036L2.64912 7.99253L2.93484 8.27247ZM2.58354 8.42219C2.71585 8.42084 2.8422 8.36699 2.93482 8.27249L2.64914 7.99251C2.63077 8.01126 2.6057 8.02194 2.57946 8.02221L2.58354 8.42219ZM2.22928 8.2797C2.3238 8.37228 2.45123 8.42354 2.58354 8.42219L2.57946 8.02221C2.55321 8.02247 2.52793 8.01231 2.50918 7.99394L2.22928 8.2797ZM0.417086 6.50413L2.22926 8.27968L2.5092 7.99396L0.697027 6.21841L0.417086 6.50413ZM0.270995 6.15213C0.271193 6.28297 0.322773 6.4085 0.414625 6.50167L0.699488 6.22087C0.681266 6.20238 0.671034 6.17748 0.670994 6.15152L0.270995 6.15213ZM0.413563 5.80215C0.321995 5.89561 0.270796 6.02129 0.270995 6.15213L0.670994 6.15152C0.670955 6.12557 0.681112 6.10063 0.699277 6.08209L0.413563 5.80215ZM0.760558 5.65247C0.629742 5.65494 0.50513 5.7087 0.413562 5.80215L0.699278 6.08209C0.717443 6.06355 0.742164 6.05289 0.768115 6.0524L0.760558 5.65247ZM1.11296 5.78893C1.01793 5.699 0.891373 5.65 0.760557 5.65247L0.768116 6.0524C0.794068 6.05191 0.819174 6.06163 0.838027 6.07947L1.11296 5.78893ZM2.39064 7.04075L1.11546 5.79135L0.835523 6.07706L2.1107 7.32646L2.39064 7.04075ZM2.00743 2.02485L2.05068 7.18528L2.45066 7.18193L2.40741 2.0215L2.00743 2.02485ZM1.07725 3.45769L2.35002 2.16341L2.06482 1.88294L0.792046 3.17723L1.07725 3.45769ZM0.724985 3.60314C0.855824 3.60318 0.981445 3.55183 1.07479 3.46015L0.794505 3.17477C0.775986 3.19296 0.751065 3.20315 0.725109 3.20314L0.724985 3.60314ZM0.375269 3.45993C0.468558 3.55167 0.594146 3.6031 0.724986 3.60314L0.725109 3.20314C0.699153 3.20313 0.674238 3.19293 0.655731 3.17473L0.375269 3.45993ZM0.22622 3.11266C0.228454 3.24348 0.281979 3.36819 0.375268 3.45993L0.655731 3.17473C0.637224 3.15653 0.626605 3.13179 0.626162 3.10584L0.22622 3.11266ZM0.363328 2.76051C0.273225 2.85538 0.223987 2.98184 0.22622 3.11266L0.626162 3.10584C0.625719 3.07988 0.635487 3.0548 0.653362 3.03598L0.363328 2.76051ZM2.1446 0.949088L0.365743 2.75801L0.650947 3.03847L2.4298 1.22955L2.1446 0.949088ZM2.49617 0.800018C2.36386 0.801126 2.23741 0.854739 2.14462 0.949067L2.42978 1.22957C2.44819 1.21086 2.47327 1.20022 2.49952 1.2L2.49617 0.800018Z" fill="currentcolor" mask="url(#path-2-outside-1_8001_33053)"/>
</svg>
