<svg width="159" height="159" viewBox="0 0 159 159" fill="none" xmlns="http://www.w3.org/2000/svg">
<g clip-path="url(#clip0_464_6772)">
<path d="M159 121.603H0V121.682H159V121.603Z" fill="#EBEBEB"/>
<path d="M143.068 124.63H114.162V124.71H143.068V124.63Z" fill="#EBEBEB"/>
<path d="M105.328 123.769H97.413V123.848H105.328V123.769Z" fill="#EBEBEB"/>
<path d="M123.419 127.584H111.147V127.664H123.419V127.584Z" fill="#EBEBEB"/>
<path d="M23.8818 127.05H16.6823V127.13H23.8818V127.05Z" fill="#EBEBEB"/>
<path d="M35.263 127.05H26.712V127.13H35.263V127.05Z" fill="#EBEBEB"/>
<path d="M71.5977 125.708H56.7026V125.788H71.5977V125.708Z" fill="#EBEBEB"/>
<path d="M75.366 107.42H13.9634C13.4823 107.419 13.0213 107.228 12.6815 106.887C12.3416 106.547 12.1508 106.085 12.1508 105.604V19.2896C12.1549 18.8114 12.3477 18.3541 12.687 18.0171C13.0264 17.6801 13.4851 17.4906 13.9634 17.4897H75.366C75.8476 17.4897 76.3094 17.6811 76.6499 18.0216C76.9905 18.3621 77.1818 18.824 77.1818 19.3055V105.604C77.1818 106.086 76.9905 106.548 76.6499 106.888C76.3094 107.229 75.8476 107.42 75.366 107.42ZM13.9634 17.5533C13.5034 17.5542 13.0626 17.7375 12.7377 18.063C12.4127 18.3885 12.2303 18.8297 12.2303 19.2896V105.604C12.2303 106.064 12.4127 106.505 12.7377 106.831C13.0626 107.156 13.5034 107.34 13.9634 107.341H75.366C75.8262 107.34 76.2674 107.157 76.5928 106.831C76.9182 106.506 77.1014 106.065 77.1023 105.604V19.2896C77.1014 18.8294 76.9182 18.3883 76.5928 18.0628C76.2674 17.7374 75.8262 17.5542 75.366 17.5533H13.9634Z" fill="#EBEBEB"/>
<path d="M144.153 107.42H82.7468C82.2655 107.419 81.8041 107.228 81.4638 106.887C81.1235 106.547 80.9319 106.086 80.931 105.604V19.2896C80.936 18.8111 81.1295 18.3538 81.4694 18.0169C81.8093 17.6799 82.2682 17.4906 82.7468 17.4897H144.153C144.63 17.4914 145.088 17.6813 145.427 18.0182C145.766 18.3551 145.958 18.8119 145.962 19.2896V105.604C145.962 106.085 145.772 106.546 145.432 106.886C145.093 107.226 144.633 107.418 144.153 107.42ZM82.7468 17.5533C82.2866 17.5542 81.8454 17.7374 81.52 18.0628C81.1946 18.3883 81.0114 18.8294 81.0105 19.2896V105.604C81.0114 106.065 81.1946 106.506 81.52 106.831C81.8454 107.157 82.2866 107.34 82.7468 107.341H144.153C144.613 107.34 145.054 107.157 145.379 106.831C145.705 106.506 145.888 106.065 145.889 105.604V19.2896C145.888 18.8294 145.705 18.3883 145.379 18.0628C145.054 17.7374 144.613 17.5542 144.153 17.5533H82.7468Z" fill="#EBEBEB"/>
<path d="M16.679 121.6H54.6991L54.6991 37.5175H16.679L16.679 121.6Z" fill="#F0F0F0"/>
<path d="M16.6823 121.6H52.8994L52.8994 37.5175H16.6823L16.6823 121.6Z" fill="#F5F5F5"/>
<path d="M50.9913 119.695L50.9913 39.4287H18.5903L18.5903 119.695H50.9913Z" fill="#F0F0F0"/>
<path d="M29.0588 77.2738H22.454C22.2291 77.273 22.0136 77.1832 21.8545 77.0242C21.6955 76.8651 21.6058 76.6497 21.6049 76.4247C21.6058 76.1998 21.6955 75.9843 21.8545 75.8253C22.0136 75.6662 22.2291 75.5765 22.454 75.5757H29.0588C29.2838 75.5765 29.4992 75.6662 29.6583 75.8253C29.8173 75.9843 29.9071 76.1998 29.9079 76.4247C29.9071 76.6497 29.8173 76.8651 29.6583 77.0242C29.4992 77.1832 29.2838 77.273 29.0588 77.2738Z" fill="white"/>
<path d="M19.0864 119.695L19.0864 39.4287H18.5903L18.5903 119.695H19.0864Z" fill="#F0F0F0"/>
<path d="M72.5135 120.007H78.174V95.457H72.5135V120.007Z" fill="#F0F0F0"/>
<path d="M49.1724 121.565H77.0864V120.01H49.1724V121.565Z" fill="#F0F0F0"/>
<path d="M72.5135 95.4602H48.0848V120.01H72.5135V95.4602Z" fill="#F5F5F5"/>
<path d="M70.2844 98.4812H50.3077V106.533H70.2844V98.4812Z" fill="#F0F0F0"/>
<path d="M70.2844 108.934H50.3077V116.986H70.2844V108.934Z" fill="#F0F0F0"/>
<path d="M58.0541 99.1585H62.5411C62.6867 99.1577 62.8262 99.0994 62.9292 98.9965C63.0322 98.8935 63.0904 98.754 63.0912 98.6084C63.0912 98.4622 63.0334 98.3219 62.9303 98.2182C62.8272 98.1146 62.6873 98.0559 62.5411 98.0551H58.0541C57.9079 98.0559 57.768 98.1146 57.6649 98.2182C57.5618 98.3219 57.504 98.4622 57.504 98.6084C57.5048 98.754 57.563 98.8935 57.666 98.9965C57.769 99.0994 57.9085 99.1577 58.0541 99.1585Z" fill="#F5F5F5"/>
<path d="M58.0541 109.614H62.5411C62.6851 109.614 62.8231 109.557 62.9259 109.456C63.0286 109.355 63.0879 109.218 63.0912 109.074C63.0904 108.928 63.0322 108.789 62.9292 108.686C62.8262 108.583 62.6867 108.525 62.5411 108.524H58.0541C57.9085 108.525 57.769 108.583 57.666 108.686C57.563 108.789 57.5048 108.928 57.504 109.074C57.5073 109.218 57.5666 109.355 57.6693 109.456C57.772 109.557 57.9101 109.614 58.0541 109.614Z" fill="#F5F5F5"/>
<path d="M62.1594 94.9768C62.0484 94.976 61.9421 94.9315 61.8635 94.853C61.785 94.7744 61.7405 94.6681 61.7397 94.5571V81.8021C61.7397 81.6908 61.7839 81.584 61.8626 81.5053C61.9414 81.4265 62.0481 81.3823 62.1594 81.3823C62.2705 81.3832 62.3768 81.4276 62.4553 81.5062C62.5339 81.5847 62.5784 81.691 62.5792 81.8021V94.5571C62.5784 94.6681 62.5339 94.7744 62.4553 94.853C62.3768 94.9315 62.2705 94.976 62.1594 94.9768Z" fill="#F5F5F5"/>
<path d="M66.0868 94.4807H58.2322V95.4697H66.0868V94.4807Z" fill="#F0F0F0"/>
<path d="M64.3346 87.3447C64.2795 87.3447 64.2266 87.323 64.1873 87.2844C64.148 87.2457 64.1255 87.1931 64.1247 87.138V80.7716C64.1255 80.7162 64.1479 80.6633 64.1871 80.6241C64.2263 80.585 64.2792 80.5626 64.3346 80.5618C64.39 80.5626 64.4429 80.585 64.4821 80.6241C64.5213 80.6633 64.5436 80.7162 64.5445 80.7716V87.1316C64.5449 87.1595 64.5398 87.1871 64.5294 87.2129C64.519 87.2388 64.5037 87.2623 64.4841 87.2821C64.4646 87.3019 64.4413 87.3177 64.4156 87.3284C64.39 87.3392 64.3624 87.3447 64.3346 87.3447Z" fill="#F0F0F0"/>
<path d="M56.0506 82.966C56.0506 82.966 56.2064 76.9558 62.1594 76.9558C68.1123 76.9558 68.265 82.9597 68.265 82.9597L56.0506 82.966Z" fill="#F0F0F0"/>
<path d="M107.583 91.4565C107.751 91.4565 107.923 91.4565 108.095 91.4724C109.853 91.5995 111.507 92.3579 112.751 93.6078C113.995 94.8577 114.746 96.515 114.865 98.2745C114.915 99.0738 114.836 99.876 114.629 100.65C113.832 103.754 113.447 106.95 113.485 110.155V119.485C113.485 119.647 113.454 119.807 113.392 119.956C113.33 120.105 113.239 120.241 113.125 120.355C113.011 120.469 112.875 120.56 112.725 120.621C112.576 120.682 112.416 120.713 112.254 120.713H82.6387V91.4565H107.583Z" fill="#F0F0F0"/>
<path d="M75.3405 98.7546C75.3436 97.7172 75.568 96.6924 75.9986 95.7486C76.4292 94.8049 77.0561 93.9638 77.8376 93.2815C78.619 92.5992 79.537 92.0914 80.5302 91.7921C81.5234 91.4927 82.5691 91.4086 83.5974 91.5454C84.6257 91.6822 85.6131 92.0368 86.4935 92.5854C87.3739 93.134 88.1272 93.8641 88.7031 94.727C89.2789 95.5898 89.6642 96.5656 89.833 97.5891C90.0019 98.6127 89.9505 99.6605 89.6823 100.663C88.8877 103.767 88.5039 106.963 88.5407 110.168V119.498C88.5407 119.659 88.5089 119.818 88.4472 119.967C88.3855 120.116 88.295 120.251 88.181 120.365C88.067 120.478 87.9316 120.568 87.7827 120.63C87.6338 120.691 87.4743 120.722 87.3132 120.722H77.9608C77.8001 120.722 77.6409 120.69 77.4923 120.629C77.3438 120.567 77.2088 120.477 77.0951 120.363C76.9814 120.25 76.8913 120.115 76.8297 119.966C76.7682 119.818 76.7365 119.658 76.7365 119.498V109.608C76.7635 106.602 76.3827 103.607 75.6045 100.704C75.4291 100.069 75.3403 99.4133 75.3405 98.7546Z" fill="#F5F5F5"/>
<path d="M92.6939 120.713H119.282V102.949H92.6939V120.713Z" fill="#F0F0F0"/>
<path d="M141.256 106.969H105.668V79.7254C105.668 78.2613 106.25 76.8572 107.285 75.8219C108.32 74.7866 109.725 74.205 111.189 74.205H135.735C137.199 74.205 138.603 74.7866 139.639 75.8219C140.674 76.8572 141.256 78.2613 141.256 79.7254V106.969Z" fill="#E0E0E0"/>
<path d="M134.301 106.969H98.7136V79.4583C98.7136 78.0642 99.2674 76.7272 100.253 75.7414C101.239 74.7556 102.576 74.2018 103.97 74.2018H129.032C130.426 74.2018 131.763 74.7556 132.749 75.7414C133.734 76.7272 134.288 78.0642 134.288 79.4583V106.969H134.301Z" fill="#F5F5F5"/>
<path d="M117.545 108.562H93.0372C92.6155 108.562 92.2111 108.394 91.9129 108.096C91.6147 107.798 91.4472 107.393 91.4472 106.972V102.943C91.4472 102.521 91.6147 102.117 91.9129 101.818C92.2111 101.52 92.6155 101.353 93.0372 101.353H117.545C117.673 101.353 117.795 101.403 117.885 101.493C117.975 101.583 118.026 101.706 118.026 101.833V108.085C118.025 108.212 117.974 108.333 117.884 108.422C117.794 108.512 117.672 108.562 117.545 108.562Z" fill="#E0E0E0"/>
<path d="M143.879 91.4565C144.048 91.4565 144.216 91.4565 144.391 91.4724C146.149 91.6003 147.802 92.3589 149.046 93.6088C150.289 94.8586 151.039 96.5155 151.158 98.2745C151.212 99.0738 151.132 99.8766 150.923 100.65C150.125 103.755 149.74 106.952 149.778 110.158V119.488C149.778 119.649 149.746 119.809 149.685 119.957C149.623 120.106 149.532 120.241 149.418 120.355C149.304 120.469 149.169 120.559 149.02 120.62C148.871 120.682 148.712 120.713 148.551 120.713H118.932V91.4565H143.879Z" fill="#F0F0F0"/>
<path d="M111.637 98.7547C111.624 96.8528 112.355 95.0211 113.673 93.6499C114.991 92.2788 116.792 91.4766 118.693 91.4144C120.594 91.3522 122.444 92.0349 123.849 93.3169C125.254 94.599 126.103 96.379 126.214 98.2777C126.264 99.077 126.185 99.8792 125.979 100.653C125.182 103.757 124.797 106.953 124.834 110.158V119.488C124.834 119.813 124.705 120.124 124.476 120.354C124.246 120.584 123.935 120.713 123.61 120.713H114.254C114.093 120.713 113.934 120.681 113.786 120.619C113.637 120.558 113.502 120.468 113.389 120.354C113.275 120.24 113.185 120.105 113.123 119.957C113.062 119.808 113.03 119.649 113.03 119.488V109.608C113.056 106.603 112.677 103.608 111.901 100.704C111.726 100.069 111.637 99.4134 111.637 98.7547Z" fill="#F5F5F5"/>
<path d="M83.157 121.603H143.358C143.474 121.603 143.59 121.58 143.698 121.535C143.806 121.49 143.904 121.425 143.986 121.342C144.068 121.259 144.134 121.161 144.178 121.053C144.223 120.945 144.245 120.829 144.245 120.713H82.2698C82.2694 120.829 82.292 120.945 82.3364 121.053C82.3808 121.161 82.4461 121.259 82.5285 121.342C82.6109 121.425 82.7089 121.49 82.8167 121.535C82.9246 121.58 83.0402 121.603 83.157 121.603Z" fill="#E0E0E0"/>
<path d="M118.811 53.3824H138.174V32.2641H118.811V53.3824Z" fill="#E0E0E0"/>
<path d="M117.657 53.3824H137.522V32.2641H117.657V53.3824Z" fill="#F5F5F5"/>
<path d="M135.856 51.7192V33.9271H119.317V51.7192H135.856Z" fill="white"/>
<path d="M127.588 38.3251L132.11 46.1606H123.066L127.588 38.3251Z" fill="#F5F5F5"/>
<path d="M91.6475 65.7113H111.011V44.5929H91.6475V65.7113Z" fill="#E0E0E0"/>
<path d="M90.4933 65.7113H110.359V44.5929H90.4933V65.7113Z" fill="#F5F5F5"/>
<path d="M108.692 64.0481V46.256H92.1531V64.0481H108.692Z" fill="white"/>
<path d="M98.402 58.3242L96.4399 54.9248C96.2358 54.5699 96.1286 54.1677 96.129 53.7583C96.1295 53.349 96.2376 52.9469 96.4425 52.5926C96.6474 52.2382 96.9419 51.9439 97.2964 51.7393C97.6509 51.5347 98.053 51.4269 98.4624 51.4268H102.396C102.805 51.4273 103.207 51.5353 103.562 51.7399C103.916 51.9445 104.211 52.2386 104.416 52.5928C104.621 52.9469 104.729 53.3487 104.73 53.7579C104.731 54.1672 104.625 54.5695 104.422 54.9248L102.46 58.3242C102.255 58.6817 101.96 58.9788 101.604 59.1855C101.247 59.3921 100.843 59.501 100.431 59.501C100.019 59.501 99.6144 59.3921 99.2581 59.1855C98.9018 58.9788 98.6065 58.6817 98.402 58.3242Z" fill="#F5F5F5"/>
<path d="M79.5 135.964C113.552 135.964 141.157 134.352 141.157 132.364C141.157 130.376 113.552 128.765 79.5 128.765C45.4477 128.765 17.843 130.376 17.843 132.364C17.843 134.352 45.4477 135.964 79.5 135.964Z" fill="#F5F5F5"/>
<path d="M100.647 31.5774H27.3414L32.1655 131.41H105.471L100.647 31.5774Z" fill="#BA68C8"/>
<path opacity="0.2" d="M100.647 31.5774H27.3414L32.1655 131.41H105.471L100.647 31.5774Z" fill="black"/>
<path d="M101.324 31.5774H28.0187L32.846 131.41H106.151L101.324 31.5774Z" fill="#BA68C8"/>
<path opacity="0.2" d="M97.4541 34.9354H31.3705L35.9878 126.898L93.4504 126.822L103 118.356L97.4541 34.9354Z" fill="black"/>
<path d="M97.9597 34.9324C98.6644 62.4732 100.888 89.9541 104.622 117.25C99.3854 120.854 94.1755 124.458 88.9921 128.062H39.5685C34.9036 97.2192 32.1656 66.1157 31.3705 34.9324H97.9597Z" fill="white"/>
<path d="M104.622 117.25C99.3854 120.854 94.1755 124.458 88.9921 128.062C90.1242 123.292 91.304 118.522 92.5315 113.752L104.622 117.25Z" fill="#EBEBEB"/>
<path d="M49.2898 43.3465C49.4148 46.7131 49.5611 50.0818 49.7286 53.4526H39.6257C39.4561 50.0818 39.3099 46.7131 39.1869 43.3465H49.2898ZM50.3201 42.2812H38.0834C38.2255 46.358 38.4025 50.4369 38.6145 54.5179H50.8543C50.6423 50.439 50.4653 46.3601 50.3233 42.2812H50.3201Z" fill="#BA68C8"/>
<path d="M90.5726 47.1403H55.9679C55.9361 46.3803 55.9075 45.6171 55.8788 44.8571H90.4804C90.509 45.6171 90.5408 46.3803 90.5726 47.1403Z" fill="#E0E0E0"/>
<path d="M83.2617 51.9421H56.1808C56.1458 51.1789 56.1077 50.4188 56.0759 49.6588H83.1536C83.1896 50.4199 83.2256 51.181 83.2617 51.9421Z" fill="#E0E0E0"/>
<path d="M50.2819 63.1388C50.4939 66.5096 50.7303 69.8804 50.991 73.2512H40.885C40.6242 69.8804 40.3878 66.5096 40.1758 63.1388H50.2819ZM51.2804 62.0735H39.0438C39.2939 66.1545 39.5791 70.2355 39.8992 74.3165H52.1517C51.8337 70.2376 51.5475 66.1566 51.2931 62.0735H51.2804Z" fill="#BA68C8"/>
<path d="M69.769 66.9357H57.049C56.9981 66.1725 56.9441 65.4125 56.8964 64.6493H69.6164C69.6641 65.4125 69.7149 66.1725 69.769 66.9357Z" fill="#E0E0E0"/>
<path d="M81.8117 66.9357H72.4593C72.4084 66.1725 72.3543 65.4125 72.3066 64.6493H81.659C81.7067 65.4125 81.7576 66.1725 81.8117 66.9357Z" fill="#E0E0E0"/>
<path d="M87.682 71.7406H57.3989C57.3416 70.9774 57.2876 70.2174 57.2303 69.4542H87.5135C87.5707 70.2174 87.6248 70.9774 87.682 71.7406Z" fill="#E0E0E0"/>
<path d="M51.7988 82.9407C52.102 86.3115 52.4285 89.6823 52.7783 93.0531H42.6722C42.3224 89.6823 41.996 86.3115 41.6928 82.9407H51.7988ZM52.7719 81.8754H40.5321C40.8925 85.9585 41.2868 90.0406 41.7151 94.1215H53.9549C53.5309 90.0384 53.1366 85.9564 52.7719 81.8754Z" fill="#BA68C8"/>
<path d="M93.5237 89.2594H58.9157L59.1447 91.5426H93.7526L93.5237 89.2594Z" fill="#E0E0E0"/>
<path d="M85.5418 84.4545H58.4609C58.5308 85.2145 58.6008 85.9777 58.6739 86.7377H85.7516C85.6817 85.9777 85.6085 85.224 85.5418 84.4545Z" fill="#E0E0E0"/>
<path d="M53.8435 102.743C54.2378 106.113 54.6544 109.483 55.0933 112.852H44.9872C44.5484 109.485 44.1318 106.115 43.7375 102.743H53.8435ZM54.7975 101.677H42.5482C43.0146 105.76 43.5181 109.84 44.0587 113.917H56.2858C55.7494 109.84 55.2459 105.76 54.7753 101.677H54.7975Z" fill="#BA68C8"/>
<path d="M95.4284 106.53H60.8205C60.7283 105.767 60.636 105.007 60.547 104.244H95.1518C95.244 105.016 95.333 105.776 95.4284 106.53Z" fill="#E0E0E0"/>
<path d="M77.1752 111.341H61.4215C61.3229 110.581 61.2275 109.818 61.1321 109.058H76.8858C76.9812 109.818 77.0766 110.581 77.1752 111.341Z" fill="#E0E0E0"/>
<path d="M86.5816 111.341H79.7796C79.681 110.581 79.5856 109.818 79.4902 109.058H86.2922C86.3876 109.818 86.4957 110.581 86.5816 111.341Z" fill="#E0E0E0"/>
<path d="M44.8378 52.0088L44.3894 51.2965C43.41 49.7383 41.413 48.3486 40.7229 47.9416L41.2381 47.0289C42.5919 47.851 43.8015 48.8899 44.8187 50.104C46.3579 48.0084 48.6347 45.8428 51.7511 43.515L52.4094 44.3736C49.0831 46.8636 46.7554 49.1436 45.2862 51.3378L44.8378 52.0088Z" fill="#BA68C8"/>
<path d="M46.0462 71.8076L45.5787 71.0953C44.5611 69.5371 42.5259 68.1443 41.8263 67.7372L42.3128 66.8246C43.6925 67.647 44.9305 68.6864 45.9794 69.9028C47.4613 67.804 49.6777 65.6384 52.7337 63.3075C52.9595 63.5937 53.1884 63.8799 53.4142 64.1693C50.1547 66.6624 47.8874 68.9393 46.4786 71.1367C46.3324 71.3593 46.1893 71.585 46.0462 71.8076Z" fill="#BA68C8"/>
<path d="M47.8016 91.6603L47.3151 90.948C46.253 89.3898 44.1796 87.9969 43.4705 87.5931C43.6231 87.2751 43.7885 86.9825 43.9347 86.6804C45.3359 87.5042 46.5998 88.5417 47.6808 89.7555C49.1086 87.6567 51.2678 85.4943 54.257 83.1602L54.963 84.0219C51.783 86.5151 49.557 88.7919 48.2118 90.9893L47.8016 91.6603Z" fill="#BA68C8"/>
<path d="M79.8592 122.576C77.983 122.576 76.9018 121.883 75.9478 121.272C74.9938 120.662 74.1733 120.134 72.5897 120.134C71.006 120.134 70.3001 120.687 69.5528 121.272C68.8055 121.858 67.8896 122.576 66.0134 122.576C64.1372 122.576 63.056 121.883 62.1052 121.272C61.1544 120.662 60.334 120.134 58.7471 120.134C57.1603 120.134 56.4575 120.687 55.7102 121.272C54.9629 121.858 54.0471 122.576 52.1741 122.576C50.3011 122.576 49.2167 121.883 48.2627 121.272C47.3087 120.662 46.4914 120.134 44.9046 120.134C44.8633 119.816 44.8187 119.523 44.7774 119.218C46.6536 119.218 47.7316 119.911 48.6856 120.522C49.6396 121.133 50.4569 121.66 52.0405 121.66C53.6242 121.66 54.3301 121.107 55.0774 120.522C55.8247 119.937 56.7437 119.218 58.6199 119.218C60.4961 119.218 61.571 119.911 62.525 120.522C63.479 121.133 64.2994 121.66 65.8831 121.66C67.4667 121.66 68.1727 121.107 68.92 120.522C69.6673 119.937 70.5863 119.218 72.4625 119.218C74.3387 119.218 75.4167 119.911 76.3707 120.522C77.3247 121.133 78.142 121.66 79.7288 121.66C79.7701 121.966 79.8178 122.271 79.8592 122.576Z" fill="#EBEBEB"/>
<path d="M82.5495 34.0482C81.4746 31.1862 78.991 29.3068 76.3198 29.3068H70.8757C70.4704 29.3033 70.0751 29.1809 69.7388 28.9548C69.4024 28.7287 69.1398 28.4088 68.9836 28.0348C68.5987 27.1208 67.9552 26.3392 67.132 25.7861C66.3088 25.233 65.342 24.9325 64.3503 24.9216C63.391 24.9119 62.4536 25.2086 61.6746 25.7685C60.8956 26.3285 60.3157 27.1224 60.0192 28.0348C59.8984 28.4082 59.6613 28.733 59.3425 28.9619C59.0238 29.1908 58.6402 29.3116 58.2479 29.3068H52.8069C50.1325 29.3068 47.8302 31.1958 47.0352 34.0482L46.7172 35.1835H82.9692L82.5495 34.0482Z" fill="#263238"/>
<path d="M82.7434 36.3028H47.0638C46.7629 36.2993 46.4745 36.1819 46.2568 35.9742C46.039 35.7664 45.9081 35.4839 45.8904 35.1835C45.8826 35.0391 45.9044 34.8947 45.9545 34.7591C46.0046 34.6235 46.082 34.4997 46.1818 34.3951C46.2816 34.2905 46.4017 34.2075 46.5348 34.1511C46.6679 34.0947 46.8112 34.0662 46.9557 34.0673H82.6353C82.9357 34.0707 83.2237 34.1877 83.4413 34.3948C83.659 34.6019 83.7903 34.8836 83.8087 35.1835C83.817 35.3281 83.7955 35.4728 83.7456 35.6088C83.6957 35.7448 83.6184 35.869 83.5186 35.974C83.4187 36.0789 83.2984 36.1622 83.1651 36.2188C83.0318 36.2753 82.8883 36.3039 82.7434 36.3028Z" fill="#BA68C8"/>
<path opacity="0.2" d="M82.7434 36.3028H47.0638C46.7629 36.2993 46.4745 36.1819 46.2568 35.9742C46.039 35.7664 45.9081 35.4839 45.8904 35.1835C45.8826 35.0391 45.9044 34.8947 45.9545 34.7591C46.0046 34.6235 46.082 34.4997 46.1818 34.3951C46.2816 34.2905 46.4017 34.2075 46.5348 34.1511C46.6679 34.0947 46.8112 34.0662 46.9557 34.0673H82.6353C82.9357 34.0707 83.2237 34.1877 83.4413 34.3948C83.659 34.6019 83.7903 34.8836 83.8087 35.1835C83.817 35.3281 83.7955 35.4728 83.7456 35.6088C83.6957 35.7448 83.6184 35.869 83.5186 35.974C83.4187 36.0789 83.2984 36.1622 83.1651 36.2188C83.0318 36.2753 82.8883 36.3039 82.7434 36.3028Z" fill="black"/>
<path d="M114.773 130.453H112.442L112.21 125.057H114.541L114.773 130.453Z" fill="#FFC3BD"/>
<path d="M128.761 130.453H126.431L125.26 125.057H127.588L128.761 130.453Z" fill="#FFC3BD"/>
<path d="M126.265 130.183H128.882C128.929 130.183 128.973 130.198 129.009 130.227C129.045 130.256 129.07 130.297 129.08 130.342L129.541 132.415C129.551 132.466 129.55 132.518 129.538 132.567C129.526 132.617 129.502 132.664 129.47 132.703C129.437 132.743 129.396 132.775 129.349 132.797C129.303 132.818 129.252 132.829 129.2 132.829C128.288 132.813 127.843 132.759 126.691 132.759C125.982 132.759 124.523 132.832 123.546 132.832C122.57 132.832 122.44 131.878 122.84 131.779C124.637 131.385 125.311 130.844 125.887 130.326C125.991 130.234 126.126 130.183 126.265 130.183Z" fill="#263238"/>
<path d="M112.458 130.183H115.002C115.048 130.183 115.093 130.198 115.129 130.227C115.164 130.256 115.189 130.297 115.199 130.342L115.66 132.415C115.671 132.464 115.672 132.514 115.661 132.563C115.651 132.612 115.629 132.658 115.599 132.697C115.568 132.737 115.53 132.769 115.485 132.792C115.441 132.815 115.392 132.827 115.342 132.829C114.423 132.813 113.097 132.759 111.943 132.759C110.594 132.759 109.43 132.832 107.847 132.832C106.893 132.832 106.626 131.878 107.026 131.779C108.848 131.379 110.337 131.337 111.911 130.364C112.074 130.256 112.262 130.193 112.458 130.183Z" fill="#263238"/>
<path d="M117.024 45.4485C116.706 47.153 116.522 49.2645 117.714 50.4029C117.714 50.4029 117.03 52.1328 113.863 52.1328C110.969 52.1328 112.419 50.4029 112.419 50.4029C114.327 49.9482 114.219 47.5982 113.889 46.2689L117.024 45.4485Z" fill="#FFC3BD"/>
<path d="M111.51 50.6415C111.574 50.2186 112.318 49.7257 113.164 49.5412C114.01 49.3568 117.26 48.9466 118.252 49.3568C119.244 49.767 118.08 50.9818 118.08 50.9818L111.51 50.6415Z" fill="#BA68C8"/>
<path opacity="0.4" d="M111.51 50.6415C111.574 50.2186 112.318 49.7257 113.164 49.5412C114.01 49.3568 117.26 48.9466 118.252 49.3568C119.244 49.767 118.08 50.9818 118.08 50.9818L111.51 50.6415Z" fill="white"/>
<path opacity="0.2" d="M112.21 125.06L112.331 127.839H114.662L114.541 125.06H112.21Z" fill="black"/>
<path opacity="0.2" d="M127.591 125.06H125.26L125.865 127.839H128.195L127.591 125.06Z" fill="black"/>
<path d="M122.541 52.5018L119.734 54.378C119.734 54.378 123.766 61.5489 123.429 62.6969C122.968 64.2615 122.325 67.68 121.451 69.4162C121.565 69.7915 122.147 70.6469 122.472 70.7932C124.698 69.1014 126.946 63.7972 126.863 62.3121C126.669 58.9445 122.541 52.5018 122.541 52.5018Z" fill="#FFC3BD"/>
<path d="M121.451 69.4226L119.225 69.2509L120.392 71.7026C120.392 71.7026 122.335 71.7885 122.659 70.3034L121.451 69.4226Z" fill="#B55B52"/>
<path d="M132.454 81.3794L132.266 81.7323L131.007 84.1142L86.3022 60.4772L87.7459 57.7424L132.454 81.3794Z" fill="#BA68C8"/>
<path d="M135.344 75.9194L134.422 77.6621L133.9 78.6479L89.1927 55.0109L90.6365 52.2761L135.344 75.9194Z" fill="#BA68C8"/>
<path d="M89.2076 55.0028L87.7608 57.7343L132.45 81.406L133.897 78.6746L89.2076 55.0028Z" fill="#BA68C8"/>
<path opacity="0.2" d="M89.2076 55.0028L87.7608 57.7343L132.45 81.406L133.897 78.6746L89.2076 55.0028Z" fill="black"/>
<path d="M84.3751 52.6385L83.0745 55.0998L86.3022 60.4772L90.6366 52.2792L84.3751 52.6385Z" fill="#BA68C8"/>
<path opacity="0.8" d="M84.3751 52.6385L83.0745 55.0998L86.3022 60.4772L90.6366 52.2792L84.3751 52.6385Z" fill="white"/>
<path d="M81.6912 52.7945L83.0745 55.1L84.3751 52.6387L81.6912 52.7945Z" fill="#BA68C8"/>
<path d="M117.434 70.367L118.598 72.5358L120.401 71.7026L119.234 69.2509L117.434 70.367Z" fill="#B55B52"/>
<path d="M121.874 50.9309C124.077 51.2489 126.602 58.8809 126.602 58.8809L121.972 61.4948C121.972 61.4948 119.934 57.876 118.932 55.173C117.876 52.3459 119.511 50.5874 121.874 50.9309Z" fill="#263238"/>
<path opacity="0.2" d="M120.592 53.5482C119.59 52.6323 120.204 56.5532 120.681 59.0623C120.926 59.552 121.158 59.9972 121.355 60.3692C122.471 58.3976 121.972 54.8106 120.592 53.5482Z" fill="black"/>
<path d="M108.823 51.0518C108.823 51.0518 106.072 58.0859 108.683 71.1875H121.158C121.244 69.2795 120.042 59.943 121.886 50.9309C120.509 50.6649 119.115 50.4886 117.714 50.403C115.951 50.3012 114.183 50.3012 112.42 50.403C111.205 50.5244 110.003 50.7413 108.823 51.0518Z" fill="#263238"/>
<path d="M110.74 54.3208L107.599 53.0774C107.599 53.0774 103.98 60.4645 102.829 60.8366C101.28 61.3454 98.1 62.7446 96.1729 63.0181C95.9312 63.3361 95.556 64.2901 95.6164 64.6399C98.2717 65.508 103.923 64.3569 105.093 63.4474C107.777 61.374 110.74 54.3208 110.74 54.3208Z" fill="#FFC3BD"/>
<path opacity="0.2" d="M111.094 53.4811C110.575 52.2855 109.583 51.7862 108.55 51.9611C108.149 53.4271 107.471 56.6484 107.596 61.5011L108.336 61.8573C108.336 61.8573 111.981 55.5259 111.094 53.4811Z" fill="black"/>
<path d="M111.59 52.6449C112.372 54.731 108.41 60.8684 108.41 60.8684L103.748 58.3244C104.448 56.4155 105.351 54.5872 106.441 52.8707C108.079 50.4253 110.728 50.3585 111.59 52.6449Z" fill="#263238"/>
<path d="M96.2874 63.0117L93.5145 63.6L94.92 66.1663C95.6951 65.7807 96.3993 65.2668 97.0029 64.6462L96.2874 63.0117Z" fill="#FFC3BD"/>
<path d="M92.2043 64.182L93.3109 65.7148L94.92 66.1791L93.5144 63.6128L92.2043 64.182Z" fill="#FFC3BD"/>
<path d="M111.739 42.9968C111.739 43.1844 111.621 43.3148 111.497 43.3148C111.373 43.3148 111.284 43.1494 111.297 42.9618C111.31 42.7742 111.415 42.6438 111.539 42.6438C111.663 42.6438 111.752 42.8092 111.739 42.9968Z" fill="#263238"/>
<path d="M111.904 43.0128C111.648 43.5731 111.315 44.0953 110.915 44.5647C111.038 44.664 111.181 44.7351 111.335 44.773C111.488 44.811 111.648 44.8147 111.803 44.7841L111.904 43.0128Z" fill="#ED847E"/>
<path d="M111.501 42.3481C111.484 42.3446 111.468 42.3381 111.453 42.3291C111.441 42.3213 111.43 42.3112 111.422 42.2992C111.413 42.2873 111.407 42.2738 111.404 42.2595C111.401 42.2453 111.401 42.2306 111.404 42.2163C111.407 42.202 111.413 42.1884 111.421 42.1764C111.513 42.0275 111.639 41.9026 111.789 41.8119C111.939 41.7213 112.108 41.6675 112.283 41.6549C112.312 41.6564 112.339 41.6687 112.36 41.6892C112.38 41.7098 112.393 41.7372 112.394 41.7662C112.394 41.7957 112.382 41.824 112.362 41.8449C112.341 41.8658 112.312 41.8775 112.283 41.8775C112.147 41.8902 112.016 41.9344 111.901 42.0068C111.786 42.0791 111.689 42.1775 111.618 42.2941C111.607 42.3142 111.589 42.3303 111.568 42.34C111.547 42.3497 111.523 42.3525 111.501 42.3481Z" fill="#263238"/>
<path d="M118.061 42.8345C117.787 45.1305 117.743 46.4852 116.512 47.6045C114.658 49.2836 111.876 48.0656 111.456 45.7315C111.081 43.6327 111.593 40.2333 113.901 39.4446C114.409 39.2689 114.954 39.2258 115.483 39.3196C116.012 39.4134 116.509 39.6409 116.926 39.9805C117.342 40.3201 117.665 40.7605 117.864 41.26C118.063 41.7595 118.13 42.3015 118.061 42.8345Z" fill="#FFC3BD"/>
<path d="M113.434 43.2829C112.629 43.4419 111.345 41.6548 112.394 40.1379C111.863 39.874 110.13 40.917 109.478 39.9439C108.826 38.9709 110.636 38.4525 110.289 37.6289C111.516 37.8801 109.494 39.4129 110.661 39.2634C111.828 39.114 113.173 36.9579 114.477 37.842C116.783 39.3906 119.924 36.8085 118.643 40.0425C120.214 39.7245 121.289 41.5816 119.791 42.8695C116.805 45.4294 118.643 45.7665 116.751 45.8969C115.803 45.9669 113.599 44.838 113.434 43.2829Z" fill="#263238"/>
<path d="M114.626 43.884C114.516 44.1135 114.361 44.3187 114.171 44.4875C113.98 44.6562 113.758 44.7851 113.517 44.8666C112.881 45.086 112.515 44.5168 112.664 43.8903C112.798 43.3243 113.3 42.5293 113.959 42.5865C114.103 42.6007 114.242 42.6508 114.362 42.7323C114.482 42.8138 114.58 42.9242 114.646 43.0533C114.713 43.1823 114.746 43.326 114.742 43.4711C114.739 43.6163 114.699 43.7582 114.626 43.884Z" fill="#FFC3BD"/>
<path d="M113.103 71.1874C113.103 71.1874 115.749 88.9954 117.199 95.6734C118.789 102.987 124.777 127.311 124.777 127.311H129.044C129.044 127.311 125.098 103.569 124.189 96.3348C123.206 88.4866 121.145 71.1969 121.145 71.1969L113.103 71.1874Z" fill="#BA68C8"/>
<path opacity="0.2" d="M113.103 71.1874C113.103 71.1874 115.749 88.9954 117.199 95.6734C118.789 102.987 124.777 127.311 124.777 127.311H129.044C129.044 127.311 125.098 103.569 124.189 96.3348C123.206 88.4866 121.145 71.1969 121.145 71.1969L113.103 71.1874Z" fill="white"/>
<path opacity="0.2" d="M116.245 77.414C116.048 77.1341 115.87 77.0387 115.705 77.096H115.67C115.632 77.1124 115.597 77.1338 115.565 77.1596C115.531 77.1871 115.5 77.218 115.472 77.2518L115.421 77.3154L115.355 77.4203C115.299 77.5129 115.252 77.6096 115.212 77.7097C115.186 77.7701 115.161 77.8337 115.138 77.8973C115.116 77.9609 115.081 78.0595 115.056 78.1486C115.03 78.2376 114.983 78.3902 114.948 78.5206C114.948 78.5556 114.932 78.5874 114.922 78.6224C114.913 78.6574 114.887 78.7687 114.871 78.8418C114.855 78.9149 114.843 78.969 114.83 79.0326C114.801 79.1566 114.776 79.287 114.751 79.4206C114.725 79.5541 114.696 79.7099 114.671 79.8594C114.671 79.9103 114.655 79.9612 114.646 80.0152C114.614 80.206 114.585 80.4 114.557 80.6003C115.262 85.0333 116.102 90.1149 116.783 93.6606C116.814 93.5461 116.849 93.4253 116.878 93.2949C117.017 92.7034 117.123 92.1046 117.196 91.5014C117.797 86.9317 117.52 79.2361 116.245 77.414Z" fill="black"/>
<path d="M108.683 71.1874C108.683 71.1874 108.365 88.6074 108.616 95.7147C108.88 103.105 111.462 127.302 111.462 127.302H115.409C115.409 127.302 115.552 103.534 115.727 96.2776C115.918 88.3657 116.872 71.1874 116.872 71.1874H108.683Z" fill="#BA68C8"/>
<path opacity="0.2" d="M108.683 71.1874C108.683 71.1874 108.365 88.6074 108.616 95.7147C108.88 103.105 111.462 127.302 111.462 127.302H115.409C115.409 127.302 115.552 103.534 115.727 96.2776C115.918 88.3657 116.872 71.1874 116.872 71.1874H108.683Z" fill="white"/>
<path d="M115.669 126.093C115.685 126.093 115.669 127.381 115.669 127.381H111.119L110.928 125.934L115.669 126.093Z" fill="#263238"/>
<path d="M129.045 126.189C129.064 126.189 129.258 127.381 129.258 127.381H124.567L124.154 126.014L129.045 126.189Z" fill="#263238"/>
<path d="M125.496 130.59C125.337 130.603 125.179 130.561 125.047 130.472C125.005 130.438 124.972 130.392 124.951 130.341C124.931 130.29 124.925 130.234 124.933 130.18C124.933 130.148 124.942 130.117 124.958 130.089C124.974 130.062 124.997 130.039 125.025 130.024C125.283 129.894 126.036 130.342 126.122 130.405C126.131 130.412 126.138 130.421 126.142 130.431C126.146 130.441 126.147 130.452 126.144 130.463C126.143 130.473 126.138 130.483 126.131 130.491C126.123 130.499 126.114 130.505 126.103 130.507C125.904 130.557 125.701 130.585 125.496 130.59ZM125.149 130.11C125.125 130.104 125.1 130.104 125.076 130.11C125.065 130.116 125.056 130.125 125.05 130.137C125.043 130.148 125.04 130.161 125.041 130.173C125.036 130.21 125.041 130.248 125.054 130.283C125.067 130.318 125.089 130.349 125.117 130.374C125.377 130.494 125.673 130.51 125.944 130.418C125.701 130.265 125.431 130.16 125.149 130.11Z" fill="#BA68C8"/>
<path d="M126.09 130.51C126.082 130.513 126.073 130.513 126.065 130.51C125.823 130.38 125.359 129.874 125.407 129.611C125.415 129.57 125.437 129.534 125.469 129.508C125.5 129.482 125.54 129.467 125.582 129.467C125.624 129.461 125.666 129.464 125.707 129.476C125.748 129.488 125.785 129.509 125.817 129.537C126.087 129.757 126.135 130.431 126.135 130.46C126.135 130.469 126.132 130.479 126.128 130.488C126.124 130.497 126.117 130.504 126.11 130.51C126.103 130.512 126.097 130.512 126.09 130.51ZM125.62 129.556H125.61C125.537 129.556 125.531 129.598 125.528 129.614C125.499 129.766 125.795 130.151 126.036 130.332C126.02 130.067 125.923 129.813 125.76 129.604C125.739 129.587 125.715 129.574 125.69 129.567C125.664 129.56 125.637 129.558 125.61 129.563L125.62 129.556Z" fill="#BA68C8"/>
<path d="M111.488 130.59C111.288 130.608 111.088 130.558 110.922 130.447C110.885 130.413 110.857 130.372 110.839 130.325C110.821 130.279 110.815 130.229 110.82 130.18C110.82 130.149 110.828 130.12 110.844 130.094C110.86 130.068 110.882 130.047 110.909 130.033C111.192 129.874 112.13 130.351 112.235 130.405C112.246 130.41 112.254 130.419 112.259 130.429C112.265 130.439 112.266 130.451 112.264 130.463C112.262 130.474 112.257 130.485 112.249 130.493C112.241 130.501 112.231 130.506 112.219 130.507C111.979 130.559 111.734 130.586 111.488 130.59ZM111.065 130.11C111.03 130.108 110.995 130.115 110.963 130.129C110.952 130.135 110.944 130.144 110.937 130.154C110.931 130.165 110.928 130.177 110.928 130.189C110.924 130.222 110.927 130.255 110.939 130.285C110.951 130.316 110.97 130.343 110.995 130.364C111.138 130.491 111.523 130.514 112.038 130.428C111.734 130.268 111.405 130.16 111.065 130.11Z" fill="#BA68C8"/>
<path d="M112.21 130.51H112.187C111.904 130.383 111.348 129.874 111.392 129.617C111.392 129.556 111.446 129.477 111.596 129.464C111.652 129.456 111.71 129.46 111.765 129.476C111.82 129.491 111.871 129.519 111.914 129.556C112.21 129.801 112.27 130.428 112.273 130.456C112.275 130.466 112.273 130.475 112.269 130.484C112.265 130.492 112.259 130.499 112.251 130.504C112.239 130.511 112.224 130.514 112.21 130.51ZM111.64 129.556H111.618C111.52 129.556 111.513 129.604 111.51 129.62C111.485 129.776 111.863 130.173 112.146 130.345C112.119 130.078 112.007 129.826 111.828 129.626C111.774 129.586 111.708 129.563 111.64 129.563V129.556Z" fill="#BA68C8"/>
</g>
<defs>
<clipPath id="clip0_464_6772">
<rect width="159" height="159" fill="white"/>
</clipPath>
</defs>
</svg>
