<svg width="241" height="241" viewBox="0 0 241 241" fill="none" xmlns="http://www.w3.org/2000/svg">
<path d="M219.097 118.42C219.071 118.551 219.051 118.687 219.021 118.819C217.997 124.444 216.312 129.599 214.077 134.326C211.681 139.397 208.649 143.977 205.102 148.109C201.697 152.079 197.817 155.641 193.57 158.839C189.508 161.902 185.114 164.626 180.483 167.058C176.271 169.272 171.857 171.245 167.316 172.995C166.569 173.288 165.817 173.57 165.066 173.848C161.368 175.21 157.614 176.38 153.821 177.359C149.416 178.504 144.962 179.397 140.472 180.053C135.901 180.728 131.295 181.158 126.674 181.359C122.074 181.556 117.457 181.536 112.851 181.303C107.958 181.051 103.074 180.567 98.2209 179.866C93.1406 179.13 88.1006 178.151 83.1215 176.95C81.6282 176.597 80.1398 176.218 78.657 175.82C74.6562 174.745 70.535 173.621 66.4334 172.329C60.4046 170.432 54.4065 168.182 48.8922 165.216C45.1439 163.198 41.6126 160.857 38.4441 158.067C36.7943 156.609 35.2358 155.05 33.7775 153.396C33.6062 153.204 33.4396 153.012 33.2783 152.815C28.8638 147.67 25.4332 141.671 23.2742 135.254C21.9172 131.223 21.0542 127.036 20.7666 122.788C20.6001 120.377 20.6202 117.965 20.817 115.564C21.357 108.773 23.289 102.104 26.3817 96.0296C28.677 91.5041 31.6233 87.3118 35.1143 83.6393C36.2898 82.4033 37.5206 81.2581 38.7921 80.1987C44.1143 75.739 50.1834 72.6565 56.3534 69.6953C61.2215 67.3597 66.1506 65.1046 70.8273 62.3096C72.2802 61.447 73.703 60.5288 75.0954 59.5448C77.3457 57.9507 79.449 56.1848 81.4823 54.3281C84.6302 51.4577 87.6119 48.38 90.6892 45.4189C92.7225 43.4566 94.8009 41.5443 96.9954 39.7736C98.3625 38.6686 99.7751 37.6294 101.228 36.6608C105.093 34.0525 109.234 31.8982 113.563 30.1981C118.078 28.4072 122.8 27.1107 127.613 26.2985C132.446 25.4763 137.38 25.1432 142.298 25.2949C149.921 25.532 157.514 26.9293 164.687 29.4771C165.858 29.8957 167.018 30.3397 168.163 30.8192C171.755 32.3125 175.246 34.1134 178.616 36.1769C183.156 38.9619 187.47 42.236 191.476 45.9037C195.376 49.4653 198.988 53.4003 202.232 57.6281C205.455 61.8205 208.321 66.295 210.763 70.9717C213.315 75.8552 215.404 80.9504 216.947 86.1718C218.501 91.4134 219.51 96.776 219.898 102.169C220.287 107.589 220.045 113.043 219.097 118.42Z" fill="#BA68C8"/>
<path opacity="0.5" d="M219.097 118.42C219.071 118.551 219.051 118.687 219.021 118.819C217.997 124.444 216.312 129.599 214.077 134.326C211.681 139.397 208.649 143.977 205.102 148.109C201.697 152.079 197.817 155.641 193.57 158.839C189.508 161.902 185.114 164.626 180.483 167.058C176.271 169.272 171.857 171.245 167.316 172.995C166.569 173.288 165.817 173.57 165.066 173.848C161.368 175.21 157.614 176.38 153.821 177.359C149.416 178.504 144.962 179.397 140.472 180.053C135.901 180.728 131.295 181.158 126.674 181.359C122.074 181.556 117.457 181.536 112.851 181.303C107.958 181.051 103.074 180.567 98.2209 179.866C93.1406 179.13 88.1006 178.151 83.1215 176.95C81.6282 176.597 80.1398 176.218 78.657 175.82C74.6562 174.745 70.535 173.621 66.4334 172.329C60.4046 170.432 54.4065 168.182 48.8922 165.216C45.1439 163.198 41.6126 160.857 38.4441 158.067C36.7943 156.609 35.2358 155.05 33.7775 153.396C33.6062 153.204 33.4396 153.012 33.2783 152.815C28.8638 147.67 25.4332 141.671 23.2742 135.254C21.9172 131.223 21.0542 127.036 20.7666 122.788C20.6001 120.377 20.6202 117.965 20.817 115.564C21.357 108.773 23.289 102.104 26.3817 96.0296C28.677 91.5041 31.6233 87.3118 35.1143 83.6393C36.2898 82.4033 37.5206 81.2581 38.7921 80.1987C44.1143 75.739 50.1834 72.6565 56.3534 69.6953C61.2215 67.3597 66.1506 65.1046 70.8273 62.3096C72.2802 61.447 73.703 60.5288 75.0954 59.5448C77.3457 57.9507 79.449 56.1848 81.4823 54.3281C84.6302 51.4577 87.6119 48.38 90.6892 45.4189C92.7225 43.4566 94.8009 41.5443 96.9954 39.7736C98.3625 38.6686 99.7751 37.6294 101.228 36.6608C105.093 34.0525 109.234 31.8982 113.563 30.1981C118.078 28.4072 122.8 27.1107 127.613 26.2985C132.446 25.4763 137.38 25.1432 142.298 25.2949C149.921 25.532 157.514 26.9293 164.687 29.4771C165.858 29.8957 167.018 30.3397 168.163 30.8192C171.755 32.3125 175.246 34.1134 178.616 36.1769C183.156 38.9619 187.47 42.236 191.476 45.9037C195.376 49.4653 198.988 53.4003 202.232 57.6281C205.455 61.8205 208.321 66.295 210.763 70.9717C213.315 75.8552 215.404 80.9504 216.947 86.1718C218.501 91.4134 219.51 96.776 219.898 102.169C220.287 107.589 220.045 113.043 219.097 118.42Z" fill="white"/>
<g opacity="0.6">
<path d="M202.232 57.6291L128.445 105.117L191.477 45.9046C195.377 49.4667 198.989 53.4017 202.232 57.6291Z" fill="white"/>
<path d="M216.948 86.1733L128.445 105.117L210.763 70.9731C213.316 75.8566 215.405 80.9518 216.948 86.1733Z" fill="white"/>
<path d="M219.098 118.42C219.072 118.551 219.052 118.687 219.022 118.819L128.445 105.116L219.899 102.17C220.288 107.589 220.046 113.043 219.098 118.42Z" fill="white"/>
<path d="M214.078 134.327C211.682 139.397 208.649 143.978 205.103 148.11L128.445 105.117L214.078 134.327Z" fill="white"/>
<path d="M193.57 158.84C189.509 161.902 185.115 164.626 180.484 167.058L128.445 105.117L193.57 158.84Z" fill="white"/>
<path d="M167.316 172.996C166.569 173.289 165.818 173.571 165.066 173.849C161.368 175.211 157.614 176.381 153.821 177.36L128.445 105.116L167.316 172.996Z" fill="white"/>
<path d="M140.473 180.054C135.903 180.73 131.297 181.159 126.676 181.361L128.446 105.117L140.473 180.054Z" fill="white"/>
<path d="M128.445 105.117L112.851 181.305C107.958 181.053 103.074 180.569 98.2207 179.867L128.445 105.117Z" fill="white"/>
<path d="M128.445 105.117L83.1218 176.951C81.6285 176.598 80.14 176.22 78.6573 175.821C74.6565 174.747 70.5352 173.622 66.4336 172.33L128.445 105.117Z" fill="white"/>
<path d="M128.447 105.117L48.8932 165.217C45.1449 163.199 41.6135 160.858 38.4451 158.068C36.7953 156.61 35.2367 155.051 33.7785 153.397C33.6071 153.205 33.4406 153.013 33.2793 152.816L128.447 105.117Z" fill="white"/>
<path d="M128.446 105.117L23.2742 135.255C21.9172 131.224 21.0542 127.037 20.7666 122.789C20.6001 120.378 20.6202 117.966 20.817 115.565L128.446 105.117Z" fill="white"/>
<path d="M128.445 105.117L26.3809 96.031C28.6762 91.5056 31.6225 87.3133 35.1135 83.6408C36.289 82.4048 37.5197 81.2595 38.7913 80.2001L128.445 105.117Z" fill="white"/>
<path d="M128.446 105.117L56.3535 69.6968C61.2217 67.3611 66.1508 65.106 70.8274 62.311L128.446 105.117Z" fill="white"/>
<path d="M128.446 105.117L81.4824 54.3301C84.6303 51.4597 87.612 48.3819 90.6893 45.4208L128.446 105.117Z" fill="white"/>
<path d="M128.446 105.117L101.229 36.6627C105.093 34.0544 109.235 31.9001 113.563 30.2L128.446 105.117Z" fill="white"/>
<path d="M142.299 25.2963L128.446 105.117L127.613 26.3005C132.446 25.4777 137.38 25.1451 142.299 25.2963Z" fill="white"/>
<path d="M178.617 36.1784L128.445 105.117L164.688 29.4785C165.858 29.8971 167.019 30.3411 168.163 30.8206C171.756 32.3139 175.247 34.1149 178.617 36.1784Z" fill="white"/>
</g>
<path d="M180.132 136.88V61.9179C180.132 59.4171 178.105 57.39 175.604 57.39H68.9458C66.445 57.39 64.418 59.4171 64.418 61.9179V136.88H180.132Z" fill="#263238"/>
<path d="M172.971 64.22H71.8125V129.703H172.971V64.22Z" fill="white"/>
<path d="M64.4173 136.88L47.4824 171.581H197.58L180.132 136.88H64.4173Z" fill="white" stroke="#263238" stroke-width="1.051" stroke-miterlimit="10"/>
<path d="M197.971 171.831H47.0723V173.953H197.971V171.831Z" fill="#263238"/>
<path d="M79.1465 138.943L77.6532 142.525H85.2761L86.6532 138.943H79.1465ZM69.8388 143.029L67.962 147.272H75.1255L76.8962 143.029H69.8388ZM67.735 147.777L65.8582 152.015H73.1431L74.9138 147.777H67.735ZM92.4146 147.777L91.1532 152.015H97.3433L98.2716 147.777H92.4146ZM105.849 143.029L105.289 147.272H111.136L111.524 143.029H105.849ZM98.7866 147.777L97.8535 152.015H104.16L104.72 147.777H98.7866ZM105.224 147.777L104.669 152.015H110.703L111.091 147.777H105.224ZM112.034 143.029L111.646 147.272H117.372L117.583 143.029H112.034ZM112.408 138.943L112.08 142.525H117.609L117.79 138.943H112.408ZM123.764 143.029H118.093L117.882 147.272H123.81L123.764 143.029ZM111.595 147.777L111.212 152.015H117.14L117.347 147.777H111.595ZM123.814 147.777H117.856L117.644 152.015H123.855L123.814 147.777ZM129.908 147.777H124.319L124.359 152.015H130.141L129.908 147.777ZM135.397 138.943H129.939L130.13 142.525H135.771L135.397 138.943ZM135.826 143.029H130.161L130.388 147.272H136.275L135.826 143.029ZM141.29 138.943H135.902L136.28 142.525H141.839L141.29 138.943ZM141.915 143.029H136.336L136.78 147.272H142.566L141.915 143.029ZM136.326 147.777H130.418L130.645 152.015H136.774L136.326 147.777ZM142.642 147.777H136.835L137.279 152.015H143.293L142.642 147.777ZM172.341 143.029H166.762L168.245 147.272H173.986L172.341 143.029ZM157.181 152.519H150.572L151.385 156.898H158.301L157.181 152.519ZM167.886 147.777H163.205L164.537 152.015H169.37L167.886 147.777ZM174.183 147.777H168.421L169.899 152.015H175.827L174.183 147.777ZM73.4762 152.519L71.6498 156.898H79.7522L81.437 152.519H73.4762ZM184.061 157.402H178.461L180.503 162.654H179.961L177.921 157.402H63.4721L61.1465 162.654H186.301L184.061 157.402ZM65.6364 152.519L63.6943 156.898H71.105L72.9314 152.519H65.6364ZM176.024 152.519H170.076L171.605 156.898H177.724L176.024 152.519ZM181.977 152.519H176.564L178.269 156.898H183.848L181.977 152.519ZM179.959 147.777H174.722L176.372 152.015H181.765L179.959 147.777ZM169.546 152.519H164.698L166.075 156.898H171.075L169.546 152.519ZM164.164 152.519H157.696L158.821 156.898H165.546L164.164 152.519ZM150.063 152.519H143.883L144.554 156.898H150.875L150.063 152.519ZM143.369 152.519H137.335L137.794 156.898H144.04L143.369 152.519ZM136.83 152.519H130.675L130.907 156.898H137.289L136.83 152.519ZM130.166 152.519H124.364L124.41 156.898H130.403L130.166 152.519ZM123.859 152.519H117.619L117.402 156.898H123.905L123.859 152.519ZM111.162 152.519L110.763 156.898H116.893L117.114 152.519H111.162ZM104.603 152.519L104.023 156.898H110.253L110.657 152.519H104.603ZM97.7474 152.519L96.7841 156.898H103.519L104.094 152.519H97.7474ZM91.0073 152.519L89.7055 156.898H96.2738L97.2324 152.519H91.0073ZM81.9766 152.519L80.2918 156.898H89.1756L90.4774 152.519H81.9766ZM162.67 147.777H156.48L157.565 152.015H164.008L162.67 147.777ZM177.936 143.029H172.881L174.531 147.272H179.742L177.936 143.029ZM176.256 139.094L176.19 138.943H171.292L172.685 142.525H177.719L176.256 139.094ZM170.752 138.943H165.334L166.585 142.525H172.145L170.752 138.943ZM164.799 138.943H160.42L161.55 142.525H166.05L164.799 138.943ZM166.227 143.029H161.706L163.043 147.272H167.71L166.227 143.029ZM161.177 143.029H155.264L156.354 147.272H162.514L161.177 143.029ZM159.89 138.943H154.219L155.138 142.525H161.015L159.89 138.943ZM155.965 147.777H149.694L150.482 152.015H157.05L155.965 147.777ZM149.185 147.777H143.152L143.802 152.015H149.967L149.185 147.777ZM154.75 143.029H148.812L149.599 147.272H155.835L154.75 143.029ZM153.7 138.943H148.055L148.721 142.525H154.618L153.7 138.943ZM148.302 143.029H142.425L143.076 147.272H149.089L148.302 143.029ZM147.546 138.943H141.799L142.35 142.525H148.212L147.546 138.943ZM129.651 143.029H124.268L124.314 147.272H129.883L129.651 143.029ZM129.434 138.943H124.228L124.264 142.525H129.626L129.434 138.943ZM123.724 138.943H118.295L118.119 142.525H123.759L123.724 138.943ZM106.389 138.943L105.915 142.525H111.575L111.903 138.943H106.389ZM100.723 138.943L99.9367 142.525H105.411L105.88 138.943H100.723ZM99.8258 143.029L98.8975 147.272H104.785L105.34 143.029H99.8258ZM95.0378 138.943L93.9732 142.525H99.4217L100.204 138.943H95.0378ZM93.822 143.029L92.5658 147.272H98.3777L99.3108 143.029H93.822ZM87.1985 138.943L85.8214 142.525H93.449L94.5137 138.943H87.1985ZM85.6241 143.029L83.9945 147.272H92.0412L93.3026 143.029H85.6241ZM83.7982 147.777L82.1686 152.015H90.629L91.8905 147.777H83.7982ZM75.4586 147.777L73.6879 152.015H81.6286L83.2582 147.777H75.4586ZM77.4415 143.029L75.6708 147.272H83.4502L85.0846 143.029H77.4415ZM71.6498 138.943L70.0606 142.525H77.1084L78.6017 138.943H71.6498ZM166.227 143.029H161.706L163.043 147.272H167.71L166.227 143.029Z" fill="#263238"/>
<path d="M80.0943 157.402L79.9983 157.654L79.5293 157.473L79.5547 157.402H80.0943Z" fill="#263238"/>
<path d="M71.4389 157.402L71.388 157.523L71.0957 157.402H71.4389Z" fill="#263238"/>
<path d="M150.692 108.76H94.8186C91.9189 108.76 89.5684 106.41 89.5684 103.51V83.3038C89.5684 80.4041 91.9189 78.0536 94.8186 78.0536H150.692C153.591 78.0536 155.942 80.4041 155.942 83.3038V103.51C155.942 106.41 153.592 108.76 150.692 108.76Z" fill="#BA68C8" stroke="#2E353A" stroke-width="1.5776" stroke-miterlimit="10"/>
<path d="M97.3101 122.687H148.289C151.529 122.687 153.572 119.2 151.987 116.374L126.498 70.9078C124.878 68.0192 120.721 68.0192 119.102 70.9078L93.6122 116.374C92.0277 119.2 94.0701 122.687 97.3101 122.687Z" fill="#263238"/>
<path d="M99.8497 119.988H145.748C147.508 119.988 148.618 117.994 147.758 116.378L124.808 73.3001C123.928 71.6485 121.67 71.6485 120.79 73.3001L97.8404 116.378C96.9798 117.994 98.0896 119.988 99.8497 119.988Z" stroke="white" stroke-width="0.7883" stroke-miterlimit="10"/>
<path d="M122.01 105.921H123.297C124.286 105.921 125.118 104.993 125.231 103.763L126.498 89.8467C126.629 88.4033 125.726 87.139 124.564 87.139H120.536C119.36 87.139 118.452 88.4331 118.607 89.8908L120.081 103.807C120.209 105.018 121.034 105.921 122.01 105.921Z" fill="white"/>
<path d="M125.141 110.853C125.141 112.296 123.972 113.466 122.529 113.466C121.086 113.466 119.916 112.296 119.916 110.853C119.916 109.41 121.086 108.24 122.529 108.24C123.972 108.24 125.141 109.41 125.141 110.853Z" fill="white"/>
<path d="M189.276 192.693C185.29 186.589 186.148 185.675 185.396 183.082C184.65 180.494 180.665 174.834 179.337 172.458C178.011 170.082 177.42 157.878 177.42 157.878C177.773 155.452 176.421 153.751 176.421 153.751C176.421 153.751 176.734 151.36 176.855 148.101C176.981 144.842 175.74 143.823 175.054 142.834C174.373 141.84 172.295 135.877 171.7 135.403C171.104 134.928 169.929 137.153 169.929 137.153C169.359 139.741 171.972 144.73 171.972 144.73L170.958 150.714L167.82 146.214C167.82 146.214 165.802 136.598 164.526 135.347C163.244 134.095 158.422 136.815 158.422 136.815C158.422 136.815 157.831 136.023 156.414 134.913C155.001 133.808 146.112 138.151 146.112 138.151C144.76 136.89 141.395 134.877 139.549 135.942C137.702 137.007 133.414 145.517 135.059 146.567C136.703 147.616 140.495 144.802 140.495 144.802C140.495 144.802 145.305 147.707 146.112 149.882C146.924 152.056 148.988 160.738 149.225 162.57C149.462 164.401 147.994 169.007 147.994 169.007C145.835 162.529 138.343 156.859 135.684 156.97C133.031 157.076 133.49 158.862 133.828 159.977C134.161 161.096 137.531 163.922 137.531 163.922L139.66 168.295C139.66 168.295 146.435 183.082 147.383 184.661C148.326 186.235 149.593 186.311 149.593 186.311L164.173 191.855C167.997 195.72 178.909 219.814 178.909 219.814C204.764 225.656 206.858 210.153 206.858 210.153C206.858 210.153 193.266 198.798 189.276 192.693ZM150.306 142.462L152.493 141.891L153.316 142.199L156.196 148.919L150.306 142.462Z" fill="white"/>
<path d="M179.337 220.771C179.337 220.771 167.002 193.27 164.171 191.854C161.34 190.439 150.219 187.204 147.994 185.384C145.77 183.563 138.895 165.567 137.277 163.545C135.66 161.523 132.424 160.107 133.84 157.681C135.255 155.254 143.546 158.894 147.994 169.004C147.994 169.004 149.41 164.556 149.208 162.129C149.057 160.321 147.447 154.247 146.636 151.268C146.31 150.069 145.707 148.969 144.88 148.042C144.189 147.268 143.341 146.406 142.652 145.975C141.228 145.086 139.924 144.671 139.272 142.832" stroke="#263238" stroke-width="1.051" stroke-miterlimit="10" stroke-linecap="round" stroke-linejoin="round"/>
<path d="M140.451 144.582C140.451 144.582 138.095 146.708 136.567 146.784C135.04 146.861 134.658 146.632 134.658 145.181C134.658 143.73 138.171 136.628 139.545 135.941C140.919 135.254 144.432 136.781 146.112 138.385C147.792 139.988 156.413 149.151 156.413 149.151L153.214 141.974C153.214 141.974 151.839 141.821 151.61 140.217" stroke="#263238" stroke-width="1.051" stroke-miterlimit="10" stroke-linecap="round" stroke-linejoin="round"/>
<path d="M158.424 136.818C158.424 136.818 162.836 133.979 164.525 135.346C166.214 136.714 166.68 145.561 168.78 147.974C170.879 150.387 172.166 152.157 172.649 154.489" stroke="#263238" stroke-width="1.051" stroke-miterlimit="10" stroke-linecap="round" stroke-linejoin="round"/>
<path d="M171.082 150.894C171.082 150.894 171.737 147.983 171.969 144.732C171.969 144.732 169.701 141.459 169.928 137.152C169.928 137.152 170.7 135.806 171.699 135.403C172.698 134.999 173.697 141.478 175.74 143.824C177.783 146.169 176.421 153.751 176.421 153.751C176.421 153.751 177.92 155.904 177.42 157.878C177.42 157.878 178.684 170.595 179.337 172.458C179.99 174.321 184.445 179.91 185.498 183.392C186.551 186.875 186.794 189.224 189.953 193.679C193.112 198.134 207.286 210.526 207.286 210.526" stroke="#263238" stroke-width="1.051" stroke-miterlimit="10" stroke-linecap="round" stroke-linejoin="round"/>
<path d="M146.113 138.385C146.113 138.385 154.304 134.293 156.414 134.915C158.524 135.536 160.932 141.674 162.486 144.627C164.04 147.579 164.273 148.745 166.215 150.764C168.158 152.784 168.468 153.406 168.779 155.115" stroke="#263238" stroke-width="1.051" stroke-miterlimit="10" stroke-linecap="round" stroke-linejoin="round"/>
<path d="M158.844 151.749C159.891 152.78 160.496 154.245 160.481 155.714" stroke="#263238" stroke-width="1.051" stroke-miterlimit="10" stroke-linecap="round" stroke-linejoin="round"/>
<g opacity="0.5">
<path d="M162.546 189.665C160.056 188.502 156.497 186.704 153.851 185.963C150.786 185.106 147.64 183.354 146.964 180.035C146.595 178.22 147.339 176.303 148.956 175.399C152.144 173.619 154.671 177.839 158.019 175.247C159.595 174.026 160.382 172.059 160.293 170.067C160.164 167.183 158.623 164.592 157.483 161.942C156.339 159.283 155.738 156.358 157.04 153.632C157.191 153.317 157.371 153.002 157.648 152.79C158.849 151.87 160.326 154.027 161.287 154.489C162.951 155.288 164.764 152.291 166.589 152.564C168.414 152.837 169.208 154.489 169.517 158.086C171.119 155.243 173.995 155.348 174.344 157.517C174.943 161.235 176.626 166.768 176.87 168.951C177.677 176.179 182.422 176.025 184.13 183.094C186.279 191.992 190.224 196.606 195.235 200.59C197.242 202.185 198.729 204.311 200.609 206.054C200.818 206.247 201.018 206.461 201.21 206.692C202.843 208.659 200.634 211.455 198.282 210.453C196.805 209.825 195.243 209.393 193.651 209.184C186.387 208.231 178.578 212.507 173.871 205.617C169.776 199.623 169.907 193.103 162.546 189.665Z" fill="#BA68C8"/>
<path opacity="0.2" d="M162.546 189.665C160.056 188.502 156.497 186.704 153.851 185.963C150.786 185.106 147.64 183.354 146.964 180.035C146.595 178.22 147.339 176.303 148.956 175.399C152.144 173.619 154.671 177.839 158.019 175.247C159.595 174.026 160.382 172.059 160.293 170.067C160.164 167.183 158.623 164.592 157.483 161.942C156.339 159.283 155.738 156.358 157.04 153.632C157.191 153.317 157.371 153.002 157.648 152.79C158.849 151.87 160.326 154.027 161.287 154.489C162.951 155.288 164.764 152.291 166.589 152.564C168.414 152.837 169.208 154.489 169.517 158.086C171.119 155.243 173.995 155.348 174.344 157.517C174.943 161.235 176.626 166.768 176.87 168.951C177.677 176.179 182.422 176.025 184.13 183.094C186.279 191.992 190.224 196.606 195.235 200.59C197.242 202.185 198.729 204.311 200.609 206.054C200.818 206.247 201.018 206.461 201.21 206.692C202.843 208.659 200.634 211.455 198.282 210.453C196.805 209.825 195.243 209.393 193.651 209.184C186.387 208.231 178.578 212.507 173.871 205.617C169.776 199.623 169.907 193.103 162.546 189.665Z" fill="white"/>
</g>
<path d="M34.0215 214.383C34.0215 214.383 41.6852 230.31 62.0156 223.964L74.6324 196.919C74.6324 196.919 85.1204 189.46 89.9079 186.889C94.6954 184.318 100.273 181.653 101.156 180.254C102.038 178.855 105.76 168.956 106.104 166.506C106.448 164.054 106.847 162.396 107.258 160.538C107.67 158.68 107.601 155.885 105.271 157.427C102.941 158.97 101.273 160.27 100.451 164.176C99.6298 168.081 95.4048 170.161 95.4048 170.161C95.4048 170.161 96.829 158.545 99.2775 155.714C101.726 152.883 107.672 146.572 107.672 146.572C107.672 146.572 111.042 149.329 113.361 147.98C115.679 146.631 108.755 139.039 106.422 139.813C106.422 139.813 105.097 139.826 104.089 140.587L99.913 137.352C99.913 137.352 97.4832 134.821 96.2012 135.482C94.9191 136.142 92.8848 139.07 92.8848 139.07C92.8848 139.07 90.1344 135.557 87.8357 135.762C85.537 135.967 82.286 139.154 81.2074 140.759C80.1288 142.363 77.2661 147.248 76.5629 148.205C76.5629 148.205 77.6352 141.328 77.6093 139.809C77.5834 138.291 77.9588 132.986 76.3868 132.991C74.8148 132.996 73.982 137.765 73.164 141.417C72.3461 145.069 71.8968 146.854 70.8207 149.016C69.7445 151.178 65.8656 165.177 65.8656 165.177C65.8656 165.177 61.1919 178.777 59.976 181.257C58.7597 183.738 56.3127 187.808 54.818 189.631C53.3232 191.454 34.0215 214.383 34.0215 214.383Z" fill="white"/>
<path d="M104.09 140.586C104.09 140.586 100.788 137.977 97.8129 135.772C94.8374 133.567 90.2299 144.51 86.4864 147.582C82.7429 150.653 81.5909 151.325 80.6309 153.629" stroke="#263238" stroke-width="1.051" stroke-miterlimit="10" stroke-linecap="round" stroke-linejoin="round"/>
<path d="M89.8566 141.688C89.4683 142.841 88.7305 144.811 87.8008 146.245" stroke="#263238" stroke-width="1.051" stroke-miterlimit="10" stroke-linecap="round" stroke-linejoin="round"/>
<path d="M97.2168 146.17C97.6483 144.524 97.7962 142.803 97.6517 141.107" stroke="#263238" stroke-width="1.051" stroke-miterlimit="10" stroke-linecap="round" stroke-linejoin="round"/>
<path d="M76.388 148.451C76.388 148.451 79.1389 133.159 76.388 132.99C73.6372 132.821 73.6372 142.953 71.6106 147.091C69.584 151.229 65.4469 167.947 62.576 175.124C59.7052 182.301 58.1855 185.172 56.0744 188.043C53.9634 190.914 33.4453 215.062 33.4453 215.062" stroke="#263238" stroke-width="1.051" stroke-miterlimit="10" stroke-linecap="round" stroke-linejoin="round"/>
<path d="M92.8863 139.07C92.8863 139.07 89.5244 135.357 87.1162 135.772C84.708 136.187 81.7224 139.341 78.8324 144.555C75.9428 149.768 73.4381 152.095 71.3194 153.629C69.2002 155.162 69.5856 158.052 68.7188 159.304" stroke="#263238" stroke-width="1.051" stroke-miterlimit="10" stroke-linecap="round" stroke-linejoin="round"/>
<path d="M79.171 156.205C78.942 156.981 78.8268 157.792 78.8301 158.601" stroke="#263238" stroke-width="1.051" stroke-miterlimit="10" stroke-linecap="round" stroke-linejoin="round"/>
<path d="M61.6055 224.851C61.6055 224.851 73.2239 199.735 74.6322 196.919C74.6322 196.919 81.0867 191.873 85.3117 189.408C89.5367 186.943 99.3949 182.131 101.155 180.254C102.915 178.376 105.145 169.574 105.849 167.462C106.554 165.349 106.202 163.354 107.258 160.538C108.314 157.721 107.258 156.398 105.145 157.353C103.033 158.308 100.92 162.181 100.451 164.176C99.9824 166.171 95.4051 170.161 95.4051 170.161C95.4051 170.161 96.344 161.453 99.2778 155.714C99.2778 155.714 105.857 147.979 107.673 146.572C107.673 146.572 111.366 149.036 113.361 147.98C115.356 146.923 112.657 144.337 111.014 142.462C109.371 140.587 106.437 138.709 104.09 140.587C101.743 142.464 93.645 149.534 90.0066 151.75C86.3687 153.966 86.3687 154.317 85.6645 156.313" stroke="#263238" stroke-width="1.051" stroke-miterlimit="10" stroke-linecap="round" stroke-linejoin="round"/>
<g opacity="0.5">
<path d="M85.1663 187.825C88.2964 186.391 91.593 184.393 94.5124 182.568C97.4318 180.743 101.482 177.454 99.3153 174.025C97.8273 171.231 91.9972 176.323 89.5382 173.714C89.0361 173.181 88.7524 172.475 88.6737 171.747C88.3247 168.532 91.3972 165.547 91.7601 162.332C92.0106 160.112 91.8167 154.917 88.2849 153.832C86.1134 153.164 85.0386 156.205 85.0386 159.419C83.8362 156.916 82.9766 154.337 80.8031 154.704C78.8318 154.816 77.8583 156.438 77.9404 159.801C75.3753 159.304 75.3897 157.17 75.0441 155.096C74.7316 153.221 72.153 153.099 70.8182 153.874C69.537 154.617 67.9132 160.457 67.534 161.888C63.3734 177.587 59.362 186.478 50.2113 197.08C48.4828 199.083 46.9281 200.605 45.2769 202.481C44.123 203.791 45.2999 205.8 47.015 205.472C53.3567 204.26 60.1814 199.102 65.8569 202.416C66.6134 202.858 67.4471 203.171 68.3188 203.257C72.766 203.695 71.8478 198.407 73.9266 195.944C76.6698 192.695 81.335 189.58 85.1663 187.825Z" fill="#BA68C8"/>
<path opacity="0.2" d="M85.1663 187.825C88.2964 186.391 91.593 184.393 94.5124 182.568C97.4318 180.743 101.482 177.454 99.3153 174.025C97.8273 171.231 91.9972 176.323 89.5382 173.714C89.0361 173.181 88.7524 172.475 88.6737 171.747C88.3247 168.532 91.3972 165.547 91.7601 162.332C92.0106 160.112 91.8167 154.917 88.2849 153.832C86.1134 153.164 85.0386 156.205 85.0386 159.419C83.8362 156.916 82.9766 154.337 80.8031 154.704C78.8318 154.816 77.8583 156.438 77.9404 159.801C75.3753 159.304 75.3897 157.17 75.0441 155.096C74.7316 153.221 72.153 153.099 70.8182 153.874C69.537 154.617 67.9132 160.457 67.534 161.888C63.3734 177.587 59.362 186.478 50.2113 197.08C48.4828 199.083 46.9281 200.605 45.2769 202.481C44.123 203.791 45.2999 205.8 47.015 205.472C53.3567 204.26 60.1814 199.102 65.8569 202.416C66.6134 202.858 67.4471 203.171 68.3188 203.257C72.766 203.695 71.8478 198.407 73.9266 195.944C76.6698 192.695 81.335 189.58 85.1663 187.825Z" fill="white"/>
</g>
<path d="M174.064 156.842C174.501 157.717 174.69 158.715 174.604 159.689" stroke="#263238" stroke-width="1.051" stroke-miterlimit="10" stroke-linecap="round" stroke-linejoin="round"/>
<path d="M152.743 141.828L150.307 142.462" stroke="#263238" stroke-width="1.051" stroke-miterlimit="10" stroke-linecap="round" stroke-linejoin="round"/>
<path d="M168.43 157.352C168.838 158.155 168.951 159.103 168.743 159.978" stroke="#263238" stroke-width="1.051" stroke-miterlimit="10" stroke-linecap="round" stroke-linejoin="round"/>
</svg>
