<svg width="16" height="16" viewBox="0 0 16 16" fill="none" xmlns="http://www.w3.org/2000/svg">
<path fill-rule="evenodd" clip-rule="evenodd" d="M0.59298 8.32095L7.85998 15.438C8.62798 16.19 9.87198 16.184 10.633 15.425L15.425 10.633C16.185 9.87295 16.191 8.62895 15.439 7.86095L8.32198 0.593953C7.95298 0.216953 7.43998 0.00195312 6.91398 0.00195312L6.90798 0.00195312L1.32998 0.0159531C0.60698 0.0179531 0.0179795 0.606953 0.0149795 1.33095L0.000980019 6.90895C-1.99806e-05 7.43695 0.21598 7.95195 0.59298 8.32095ZM6.91198 1.33395H6.91398C7.08398 1.33395 7.24898 1.40295 7.36798 1.52495L14.485 8.79195C14.728 9.03995 14.726 9.44195 14.481 9.68795L9.68898 14.48C9.44298 14.726 9.03998 14.728 8.79298 14.485L1.52598 7.36795C1.40498 7.24795 1.33498 7.08195 1.33498 6.91095L1.33398 1.34695L6.91198 1.33395ZM8.5591 5.15061C8.67519 5.03453 8.86339 5.03453 8.97947 5.15061C9.09555 5.26669 9.09555 5.45489 8.97947 5.57097L5.59343 8.95701C5.47735 9.07309 5.28915 9.07309 5.17307 8.95701C5.05699 8.84093 5.05699 8.65273 5.17307 8.53664L8.5591 5.15061ZM8.7919 6.97164C8.90798 6.85556 9.09618 6.85556 9.21226 6.97164C9.32834 7.08772 9.32834 7.27592 9.21226 7.392L6.62034 9.98392C6.50426 10.1 6.31606 10.1 6.19998 9.98392C6.0839 9.86784 6.0839 9.67964 6.19998 9.56355L8.7919 6.97164ZM7.22707 10.5906C7.11099 10.7067 7.11099 10.8949 7.22707 11.011C7.34314 11.1271 7.53135 11.1271 7.64743 11.011L11.0335 7.62497C11.1495 7.50889 11.1495 7.32068 11.0335 7.20461C10.9174 7.08853 10.7292 7.08853 10.6131 7.20461L7.22707 10.5906ZM10.8461 9.0258C10.9621 8.90972 11.1503 8.90972 11.2664 9.0258C11.3825 9.14188 11.3825 9.33008 11.2664 9.44616L8.67451 12.0381C8.55843 12.1542 8.37023 12.1542 8.25415 12.0381C8.13807 11.922 8.13807 11.7338 8.25415 11.6177L10.8461 9.0258ZM2.01905 3.33398C2.01905 4.06898 2.61705 4.66698 3.35205 4.66698C4.08705 4.66698 4.68505 4.06898 4.68505 3.33398C4.68505 2.59898 4.08705 2.00098 3.35205 2.00098C2.61705 2.00098 2.01905 2.59898 2.01905 3.33398Z" fill="currentColor"/>
</svg>
