<svg width="16" height="16" viewBox="0 0 12 17" fill="none" xmlns="http://www.w3.org/2000/svg">
<rect x="2.63159" width="4.01569" height="4.01569" rx="2.00784" fill="currentcolor"/>
<path d="M11.0197 9.0159V13.4297C11.0197 14.8491 9.92939 15.9999 8.58599 15.9999H5.95346C5.18997 15.9999 4.45292 15.6711 3.94115 15.0723C3.7089 14.8007 3.48361 14.4734 3.31812 14.0917L1.07774 9.59277C0.859449 9.15263 1.0218 8.61456 1.43236 8.38619C2.0387 8.05005 2.78828 8.29518 3.10674 8.93664L3.81599 10.3605V4.88128C3.81599 4.34258 4.23319 3.87581 4.74357 3.89047C5.22412 3.90531 5.6169 4.31983 5.6169 4.84016V7.79462C5.6169 7.26915 6.02019 6.84493 6.51806 6.84493C7.01305 6.84493 7.41782 7.26694 7.41782 7.79462V8.31425C7.41782 7.78876 7.82111 7.36454 8.31897 7.36454C8.81491 7.36454 9.21875 7.78769 9.21875 8.31425V9.01588C9.21875 8.49038 9.62204 8.06619 10.1199 8.06619C10.6159 8.06619 11.0197 8.48933 11.0197 9.0159Z" stroke="currentcolor" stroke-linejoin="round"/>
</svg>