<svg width="15" height="16" viewBox="0 0 15 16" fill="none" xmlns="http://www.w3.org/2000/svg">
<path d="M14.9 4.70781L10.2663 0.0734375C10.2194 0.0265625 10.1559 0 10.0897 0H4.84094C3.61938 0 2.62562 0.994063 2.62562 2.21563V6.60031H0.68125C0.305625 6.60031 0 6.90594 0 7.28156V11.1978C0 11.5734 0.305625 11.8791 0.68125 11.8791H2.62562V13.7844C2.62562 15.0059 3.61938 16 4.84094 16H12.7578C13.9794 16 14.9731 15.0059 14.9731 13.7844V4.88469C14.9731 4.81844 14.9469 4.75469 14.9 4.70781ZM14.4734 13.7844C14.4734 14.7306 13.7037 15.5003 12.7578 15.5003H4.84094C3.895 15.5003 3.12531 14.7306 3.12531 13.7844V11.8791H11.3562C11.7319 11.8791 12.0375 11.5734 12.0375 11.1978V7.28156C12.0375 6.90594 11.7319 6.60031 11.3562 6.60031H3.12531V2.21563C3.12531 1.26938 3.895 0.499687 4.84094 0.499687H9.83969V4.38406C9.83969 4.79781 10.1759 5.13438 10.5891 5.13438H14.4734V13.7844Z" fill="currentColor"/>
<path d="M4.30859 8.30272H3.56445V10.6426H3.00488V8.30272H2.26074V7.85057H4.30859V8.30272ZM7.20508 10.6426H6.61328L6.42969 10.1103H5.31738L5.13379 10.6426H4.54492L5.5498 7.84666H6.20117L7.20508 10.6426ZM8.62891 7.85057C8.84481 7.8506 9.02872 7.88947 9.18066 7.96678C9.33256 8.04142 9.44586 8.14382 9.52051 8.2744C9.59778 8.40229 9.63665 8.5462 9.63672 8.70604C9.63672 8.88995 9.58313 9.05676 9.47656 9.20604C9.36993 9.35266 9.21154 9.45472 9.00098 9.51073L9.66895 10.6426H9.02051L8.4043 9.55467H8.14062V10.6426H7.58105V7.85057H8.62891ZM5.46973 9.66209H6.27734L5.87305 8.49413L5.46973 9.66209ZM8.14062 9.13475H8.6084C8.76027 9.13475 8.87357 9.09823 8.94824 9.02635C9.02285 8.95174 9.06049 8.84926 9.06055 8.71873C9.06055 8.59073 9.02291 8.49217 8.94824 8.42284C8.87358 8.35086 8.76038 8.31444 8.6084 8.31444H8.14062V9.13475Z" fill="white"/>
</svg>
