<svg width="16" height="16" viewBox="0 0 16 16" fill="none" xmlns="http://www.w3.org/2000/svg">
<path d="M10.1132 5.69077H5.88769C5.78652 5.69077 5.70346 5.7701 5.70346 5.87286V10.1441C5.70346 10.2448 5.78599 10.3273 5.88769 10.3273H10.1132C10.2143 10.3273 10.2963 10.2453 10.2963 10.1441V5.87286C10.2958 5.77063 10.2143 5.69077 10.1132 5.69077Z" fill="#A91224"/>
<path d="M8.00098 0C3.58327 0 0.000976562 3.58123 0.000976562 8C0.000976562 12.4188 3.58327 16 8.00098 16C12.4192 16 15.9999 12.4188 15.9999 8C15.9999 3.58123 12.4192 0 8.00098 0ZM8.00098 14.6636C4.32071 14.6636 1.33688 11.6797 1.33688 8C1.33688 4.31867 4.32071 1.33537 8.00098 1.33537C11.6818 1.33537 14.664 4.31867 14.664 8C14.664 11.6797 11.6818 14.6636 8.00098 14.6636Z" fill="#A91224"/>
</svg>
