<svg width="16" height="16" viewBox="0 0 16 16" fill="none" xmlns="http://www.w3.org/2000/svg">
<path fill-rule="evenodd" clip-rule="evenodd" d="M0.800003 1.6H15.2C15.4122 1.6 15.6157 1.51571 15.7657 1.36569C15.9157 1.21566 16 1.01217 16 0.8C16 0.587827 15.9157 0.384344 15.7657 0.234315C15.6157 0.0842854 15.4122 0 15.2 0H0.800003C0.58783 0 0.384346 0.0842854 0.234317 0.234315C0.0842886 0.384344 3.8147e-06 0.587827 3.8147e-06 0.8C3.8147e-06 1.01217 0.0842886 1.21566 0.234317 1.36569C0.384346 1.51571 0.58783 1.6 0.800003 1.6ZM5.6 6.4H15.2C15.4122 6.4 15.6157 6.31571 15.7657 6.16568C15.9157 6.01566 16 5.81217 16 5.6C16 5.38783 15.9157 5.18434 15.7657 5.03431C15.6157 4.88428 15.4122 4.8 15.2 4.8H5.6C5.38783 4.8 5.18435 4.88428 5.03432 5.03431C4.88429 5.18434 4.8 5.38783 4.8 5.6C4.8 5.81217 4.88429 6.01566 5.03432 6.16568C5.18435 6.31571 5.38783 6.4 5.6 6.4ZM15.2 11.2H0.800003C0.58783 11.2 0.384346 11.1157 0.234317 10.9657C0.0842886 10.8157 3.8147e-06 10.6122 3.8147e-06 10.4C3.8147e-06 10.1878 0.0842886 9.98434 0.234317 9.83431C0.384346 9.68428 0.58783 9.6 0.800003 9.6H15.2C15.4122 9.6 15.6157 9.68428 15.7657 9.83431C15.9157 9.98434 16 10.1878 16 10.4C16 10.6122 15.9157 10.8157 15.7657 10.9657C15.6157 11.1157 15.4122 11.2 15.2 11.2ZM5.6 16H15.2C15.4122 16 15.6157 15.9157 15.7657 15.7657C15.9157 15.6157 16 15.4122 16 15.2C16 14.9878 15.9157 14.7843 15.7657 14.6343C15.6157 14.4843 15.4122 14.4 15.2 14.4H5.6C5.38783 14.4 5.18435 14.4843 5.03432 14.6343C4.88429 14.7843 4.8 14.9878 4.8 15.2C4.8 15.4122 4.88429 15.6157 5.03432 15.7657C5.18435 15.9157 5.38783 16 5.6 16Z" fill="currentColor"/>
</svg>
