<svg width="16" height="16" viewBox="0 0 16 16" fill="none" xmlns="http://www.w3.org/2000/svg">
<path fill-rule="evenodd" clip-rule="evenodd" d="M15.2 1.6H0.8C0.587827 1.6 0.384344 1.51571 0.234314 1.36569C0.0842854 1.21566 0 1.01217 0 0.8C0 0.587827 0.0842854 0.384344 0.234314 0.234315C0.384344 0.0842854 0.587827 0 0.8 0H15.2C15.4122 0 15.6157 0.0842854 15.7657 0.234315C15.9157 0.384344 16 0.587827 16 0.8C16 1.01217 15.9157 1.21566 15.7657 1.36569C15.6157 1.51571 15.4122 1.6 15.2 1.6ZM12.8 6.4H3.2C2.98783 6.4 2.78434 6.31571 2.63431 6.16568C2.48428 6.01566 2.4 5.81217 2.4 5.6C2.4 5.38783 2.48428 5.18434 2.63431 5.03431C2.78434 4.88428 2.98783 4.8 3.2 4.8H12.8C13.0122 4.8 13.2157 4.88428 13.3657 5.03431C13.5157 5.18434 13.6 5.38783 13.6 5.6C13.6 5.81217 13.5157 6.01566 13.3657 6.16568C13.2157 6.31571 13.0122 6.4 12.8 6.4ZM0.8 11.2H15.2C15.4122 11.2 15.6157 11.1157 15.7657 10.9657C15.9157 10.8157 16 10.6122 16 10.4C16 10.1878 15.9157 9.98434 15.7657 9.83431C15.6157 9.68428 15.4122 9.6 15.2 9.6H0.8C0.587827 9.6 0.384344 9.68428 0.234314 9.83431C0.0842854 9.98434 0 10.1878 0 10.4C0 10.6122 0.0842854 10.8157 0.234314 10.9657C0.384344 11.1157 0.587827 11.2 0.8 11.2ZM12.8 16H3.2C2.98783 16 2.78434 15.9157 2.63431 15.7657C2.48428 15.6157 2.4 15.4122 2.4 15.2C2.4 14.9878 2.48428 14.7843 2.63431 14.6343C2.78434 14.4843 2.98783 14.4 3.2 14.4H12.8C13.0122 14.4 13.2157 14.4843 13.3657 14.6343C13.5157 14.7843 13.6 14.9878 13.6 15.2C13.6 15.4122 13.5157 15.6157 13.3657 15.7657C13.2157 15.9157 13.0122 16 12.8 16Z" fill="currentColor"/>
</svg>
