<svg width="16" height="16" viewBox="0 0 16 16" fill="none" xmlns="http://www.w3.org/2000/svg">
<path fill-rule="evenodd" clip-rule="evenodd" d="M15.2 1.6H0.8C0.587827 1.6 0.384344 1.51571 0.234314 1.36569C0.0842854 1.21566 0 1.01217 0 0.8C0 0.587827 0.0842854 0.384344 0.234314 0.234315C0.384344 0.0842854 0.587827 0 0.8 0H15.2C15.4122 0 15.6157 0.0842854 15.7657 0.234315C15.9157 0.384344 16 0.587827 16 0.8C16 1.01217 15.9157 1.21566 15.7657 1.36569C15.6157 1.51571 15.4122 1.6 15.2 1.6ZM10.4 6.4H0.8C0.587827 6.4 0.384344 6.31571 0.234315 6.16568C0.0842854 6.01566 0 5.81217 0 5.6C0 5.38783 0.0842854 5.18434 0.234315 5.03431C0.384344 4.88428 0.587827 4.8 0.8 4.8H10.4C10.6122 4.8 10.8157 4.88428 10.9657 5.03431C11.1157 5.18434 11.2 5.38783 11.2 5.6C11.2 5.81217 11.1157 6.01566 10.9657 6.16568C10.8157 6.31571 10.6122 6.4 10.4 6.4ZM0.8 11.2H15.2C15.4122 11.2 15.6157 11.1157 15.7657 10.9657C15.9157 10.8157 16 10.6122 16 10.4C16 10.1878 15.9157 9.98434 15.7657 9.83431C15.6157 9.68428 15.4122 9.6 15.2 9.6H0.8C0.587827 9.6 0.384344 9.68428 0.234314 9.83431C0.0842854 9.98434 0 10.1878 0 10.4C0 10.6122 0.0842854 10.8157 0.234314 10.9657C0.384344 11.1157 0.587827 11.2 0.8 11.2ZM10.4 16H0.8C0.587827 16 0.384344 15.9157 0.234315 15.7657C0.0842854 15.6157 0 15.4122 0 15.2C0 14.9878 0.0842854 14.7843 0.234315 14.6343C0.384344 14.4843 0.587827 14.4 0.8 14.4H10.4C10.6122 14.4 10.8157 14.4843 10.9657 14.6343C11.1157 14.7843 11.2 14.9878 11.2 15.2C11.2 15.4122 11.1157 15.6157 10.9657 15.7657C10.8157 15.9157 10.6122 16 10.4 16Z" fill="currentColor"/>
</svg>
