<svg width="17" height="17" viewBox="0 0 17 17" fill="none" xmlns="http://www.w3.org/2000/svg">
<g clip-path="url(#clip0_369_16272)">
<path fill-rule="evenodd" clip-rule="evenodd" d="M9.40625 4.03125C9.03125 4.03125 8.21875 4.03125 7.59375 4.03125C7.46875 4.03125 7.375 3.9375 7.375 3.8125V2.5625C7.375 2.4375 7.46875 2.34375 7.59375 2.34375C7.6875 2.34375 8.9375 2.4375 9.15625 2.53125C9.1875 2.4375 9.3125 2.34375 9.40625 2.34375C9.53125 2.34375 9.625 2.4375 9.625 2.5625V3.8125C9.625 3.9375 9.53125 4.03125 9.40625 4.03125Z" fill="#0C2A44"/>
<path fill-rule="evenodd" clip-rule="evenodd" d="M14.7188 5.75C14.5938 5.75 14.5312 5.71875 14.4375 5.6875L13.6875 6.4375C13.625 6.46875 13.5938 6.5 13.5312 6.5C13.4688 6.5 13.4062 6.46875 13.375 6.4375C13.2812 6.34375 13.2812 6.21875 13.375 6.125C13.3125 6.1875 12.2812 5.21875 12.25 5.21875C12.1875 5.21875 12.125 5.1875 12.0938 5.15625C12 5.0625 12 4.90625 12.0938 4.84375L12.8438 4.09375C12.8125 4 12.7812 3.90625 12.7812 3.8125C12.7812 3.625 12.8438 3.46875 12.9688 3.34375L13.2188 3.09375C13.4688 2.84375 13.875 2.84375 14.125 3.09375L15.4062 4.375C15.6562 4.625 15.6562 5.03125 15.4062 5.28125L15.1562 5.53125C15.0312 5.65625 14.875 5.75 14.7188 5.75Z" fill="#0E3454"/>
<path fill-rule="evenodd" clip-rule="evenodd" d="M2.28125 5.75C2.40625 5.75 2.46875 5.71875 2.5625 5.6875L3.3125 6.4375C3.375 6.46875 3.40625 6.5 3.46875 6.5C3.53125 6.5 3.59375 6.46875 3.625 6.4375C3.71875 6.34375 3.71875 6.21875 3.625 6.125C3.6875 6.1875 4.71875 5.21875 4.75 5.21875C4.8125 5.21875 4.875 5.1875 4.90625 5.15625C5 5.0625 5 4.90625 4.90625 4.84375L4.15625 4.09375C4.1875 4 4.21875 3.90625 4.21875 3.8125C4.21875 3.625 4.15625 3.46875 4.03125 3.34375L3.78125 3.09375C3.53125 2.84375 3.125 2.84375 2.875 3.09375L1.59375 4.375C1.34375 4.625 1.34375 5.03125 1.59375 5.28125L1.84375 5.53125C1.96875 5.65625 2.125 5.75 2.28125 5.75Z" fill="#0E3454"/>
<path fill-rule="evenodd" clip-rule="evenodd" d="M8.5 16.5C4.9375 16.5 2.03125 13.5938 2.03125 10C2.03125 8.28125 2.6875 6.65625 3.90625 5.4375C5.15625 4.21875 6.78125 3.53125 8.5 3.53125C10.2188 3.53125 11.8438 4.21875 13.0938 5.4375C14.3125 6.65625 14.9688 8.28125 14.9688 10C14.9688 11.75 14.3125 13.375 13.0938 14.5938C11.8438 15.8125 10.2188 16.5 8.5 16.5Z" fill="#55ACEE"/>
<path fill-rule="evenodd" clip-rule="evenodd" d="M9.5625 2.78125H7.4375C6.96875 2.78125 6.5625 2.40625 6.5625 1.9375V1.375C6.5625 0.90625 6.96875 0.5 7.4375 0.5H9.5625C10.0312 0.5 10.4375 0.90625 10.4375 1.375V1.9375C10.4375 2.40625 10.0312 2.78125 9.5625 2.78125Z" fill="#0E3454"/>
<path fill-rule="evenodd" clip-rule="evenodd" d="M8.5 15.2812C5.59375 15.2812 3.25 12.9062 3.25 10.0312C3.25 7.125 5.59375 4.75 8.5 4.75C11.4062 4.75 13.75 7.125 13.75 10.0312C13.75 12.9062 11.4062 15.2812 8.5 15.2812Z" fill="#E5E5E5"/>
<path fill-rule="evenodd" clip-rule="evenodd" d="M8.5 6.4375C8.375 6.4375 8.28125 6.34375 8.28125 6.21875V5.46875C8.28125 5.34375 8.375 5.25 8.5 5.25C8.625 5.25 8.71875 5.34375 8.71875 5.46875V6.21875C8.71875 6.34375 8.625 6.4375 8.5 6.4375Z" fill="#3C4E76"/>
<path fill-rule="evenodd" clip-rule="evenodd" d="M11.782 8.34306C11.7195 8.34306 11.657 8.28056 11.5945 8.21806C11.532 8.12431 11.5945 7.96806 11.6882 7.90556L12.3445 7.56181C12.4382 7.49931 12.5632 7.53056 12.6257 7.62431C12.6882 7.74931 12.657 7.87431 12.5632 7.93681L11.907 8.31181C11.8757 8.31181 11.8445 8.34306 11.782 8.34306Z" fill="#3C4E76"/>
<path fill-rule="evenodd" clip-rule="evenodd" d="M12.4382 12.5C12.407 12.5 12.3757 12.5 12.3445 12.4688L11.6882 12.0938C11.5945 12.0312 11.532 11.9062 11.5945 11.8125C11.657 11.6875 11.782 11.6562 11.907 11.7188L12.5632 12.0938C12.657 12.1562 12.6882 12.2812 12.6257 12.4062C12.5945 12.4688 12.5007 12.5 12.4382 12.5Z" fill="#3C4E76"/>
<path fill-rule="evenodd" clip-rule="evenodd" d="M8.5 14.7812C8.375 14.7812 8.28125 14.6875 8.28125 14.5625V13.8125C8.28125 13.6875 8.375 13.5938 8.5 13.5938C8.625 13.5938 8.71875 13.6875 8.71875 13.8125V14.5625C8.71875 14.6875 8.625 14.7812 8.5 14.7812Z" fill="#3C4E76"/>
<path fill-rule="evenodd" clip-rule="evenodd" d="M4.56279 12.5C4.46904 12.5 4.40654 12.4688 4.37529 12.4062C4.31279 12.2812 4.34404 12.1562 4.43779 12.0938L5.09404 11.7188C5.18779 11.6562 5.34404 11.6875 5.40654 11.8125C5.46904 11.9062 5.40654 12.0312 5.31279 12.0938L4.65654 12.4688C4.62529 12.5 4.59404 12.5 4.56279 12.5Z" fill="#3C4E76"/>
<path fill-rule="evenodd" clip-rule="evenodd" d="M5.21904 8.34306C5.15654 8.34306 5.12529 8.31181 5.09404 8.31181L4.43779 7.93681C4.34404 7.87431 4.31279 7.74931 4.37529 7.62431C4.43779 7.53056 4.56279 7.49931 4.65654 7.56181L5.31279 7.90556C5.43779 7.96806 5.46904 8.12431 5.40654 8.21806C5.34404 8.28056 5.28154 8.34306 5.21904 8.34306Z" fill="#3C4E76"/>
<path fill-rule="evenodd" clip-rule="evenodd" d="M8.5 12C8.375 12 8.28125 11.9062 8.28125 11.7812V10.4062C8.28125 10.2812 8.375 10.1875 8.5 10.1875C8.625 10.1875 8.71875 10.2812 8.71875 10.4062V11.7812C8.71875 11.9062 8.625 12 8.5 12ZM8.75 9.93747C8.6875 9.93747 8.65625 9.90622 8.59375 9.87497C8.5 9.81247 8.5 9.65622 8.5625 9.56247L10 7.81247C10.0625 7.71872 10.2188 7.68747 10.3125 7.78122C10.4062 7.84372 10.4062 7.96872 10.3438 8.06247L8.90625 9.84372C8.875 9.90622 8.8125 9.93747 8.75 9.93747Z" fill="#0E3454"/>
<path fill-rule="evenodd" clip-rule="evenodd" d="M8.5 10.625C8.15625 10.625 7.90625 10.3438 7.90625 10.0312C7.90625 9.6875 8.15625 9.40625 8.5 9.40625C8.84375 9.40625 9.09375 9.6875 9.09375 10.0312C9.09375 10.3438 8.84375 10.625 8.5 10.625Z" fill="#FF4141"/>
</g>
<defs>
<clipPath id="clip0_369_16272">
<rect width="16" height="16" fill="white" transform="translate(0.5 0.5)"/>
</clipPath>
</defs>
</svg>
