<svg width="16" height="16" viewBox="0 0 16 16" fill="none" xmlns="http://www.w3.org/2000/svg">
<path d="M14.9827 3.53063L13.3034 1.85125C13.0593 1.60716 12.6635 1.60716 12.4195 1.85125C12.1754 2.09534 12.1754 2.49106 12.4195 2.73513L12.8172 3.13287L12.0015 3.94856C10.9397 3.06275 9.64867 2.528 8.27148 2.40353V1.25H8.83398C9.17917 1.25 9.45898 0.970187 9.45898 0.625C9.45898 0.279813 9.17917 0 8.83398 0H6.45898C6.1138 0 5.83398 0.279813 5.83398 0.625C5.83398 0.970187 6.1138 1.25 6.45898 1.25H7.02148V2.40353C3.59261 2.71341 0.833984 5.59275 0.833984 9.1875C0.833984 12.9526 3.88089 16 7.64648 16C11.4115 16 14.459 12.9531 14.459 9.1875C14.459 7.57778 13.9041 6.05356 12.8854 4.83244L13.7011 4.01675L14.0989 4.4145C14.3429 4.65856 14.7386 4.65859 14.9827 4.4145C15.2268 4.17044 15.2268 3.77472 14.9827 3.53063ZM7.64648 14.75C4.57933 14.75 2.08398 12.2547 2.08398 9.1875C2.08398 6.12034 4.57933 3.625 7.64648 3.625C10.7136 3.625 13.209 6.12034 13.209 9.1875C13.209 12.2547 10.7137 14.75 7.64648 14.75ZM10.8941 9.1875C10.8941 9.53269 10.6143 9.8125 10.2691 9.8125H7.64652C7.30133 9.8125 7.02152 9.53269 7.02152 9.1875V5.51016C7.02152 5.16497 7.30133 4.88516 7.64652 4.88516C7.9917 4.88516 8.27152 5.16497 8.27152 5.51016V8.5625H10.2691C10.6143 8.5625 10.8941 8.84231 10.8941 9.1875Z" fill="white"/>
</svg>
