<svg width="16" height="16" viewBox="0 0 16 16" fill="none" xmlns="http://www.w3.org/2000/svg">
<path fill-rule="evenodd" clip-rule="evenodd" d="M15.6259 2.18022C16.1247 1.68147 16.1247 0.872824 15.6259 0.374067C15.1272 -0.124689 14.3185 -0.124689 13.8198 0.374067L8 6.19384L2.18022 0.374067C1.68147 -0.124689 0.872824 -0.124689 0.374067 0.374067C-0.124689 0.872824 -0.124689 1.68147 0.374067 2.18022L6.19384 8L0.374067 13.8198C-0.124689 14.3185 -0.124689 15.1272 0.374067 15.6259C0.872824 16.1247 1.68147 16.1247 2.18022 15.6259L8 9.80616L13.8198 15.6259C14.3185 16.1247 15.1272 16.1247 15.6259 15.6259C16.1247 15.1272 16.1247 14.3185 15.6259 13.8198L9.80616 8L15.6259 2.18022Z" fill="currentColor"/>
</svg>
