<svg width="20" height="20" viewBox="0 0 20 20" fill="none" xmlns="http://www.w3.org/2000/svg">
<g clip-path="url(#clip0_1919_99688)">
<path d="M16.6256 16.6281C20.2862 12.9675 20.2862 7.03249 16.6256 3.37187C12.965 -0.288739 7.02995 -0.288739 3.36934 3.37187C-0.291277 7.03249 -0.291277 12.9675 3.36934 16.6281C7.02995 20.2887 12.965 20.2887 16.6256 16.6281Z" fill="#C459D5"/>
<path fill-rule="evenodd" clip-rule="evenodd" d="M19.2394 11.5903C18.5723 15.4934 15.4928 18.5728 11.5898 19.2399L6.54285 14.193C5.33516 13.1963 4.56543 11.688 4.56543 9.99986C4.56543 6.99873 6.99824 4.56592 9.99938 4.56592C11.6875 4.56592 13.1958 5.33568 14.1925 6.54334L19.2394 11.5903Z" fill="#71347B"/>
<path fill-rule="evenodd" clip-rule="evenodd" d="M10.0004 4.56592C6.99876 4.56592 4.56543 6.99925 4.56543 10.0009C4.56543 13.0026 6.99876 15.4359 10.0004 15.4359C13.0021 15.4359 15.4354 13.0026 15.4354 10.0009C15.4354 6.99925 13.0021 4.56592 10.0004 4.56592ZM7.11706 12.0256L8.26556 10.8774C8.35265 10.7904 8.43875 10.723 8.54478 10.659L8.97598 10.3992C8.74138 10.0444 8.61535 9.62877 8.61535 9.19368C8.61535 8.60807 8.84346 8.05746 9.25763 7.64329C9.67165 7.22909 10.2222 7.00098 10.8079 7.00098C11.3936 7.00098 11.9442 7.22909 12.3582 7.64329C12.7724 8.05746 13.0005 8.60811 13.0005 9.19368C13.0005 9.77925 12.7724 10.3298 12.3582 10.7438C11.9442 11.158 11.3936 11.3861 10.8079 11.3861C10.3728 11.3861 9.95706 11.2601 9.6023 11.0255L9.34247 11.457C9.2788 11.5627 9.21144 11.6489 9.12403 11.7363L7.97587 12.8844C7.90068 12.9596 7.80045 13.001 7.69362 13.001C7.58679 13.001 7.48656 12.9596 7.41136 12.8844L7.11707 12.5901C6.96165 12.4347 6.9616 12.1815 7.11707 12.0256L7.11706 12.0256ZM12.2185 10.6041C12.5954 10.2274 12.803 9.72651 12.803 9.19367C12.803 8.66083 12.5954 8.15981 12.2185 7.78293C11.8418 7.40605 11.3409 7.1985 10.8079 7.1985C10.275 7.1985 9.77406 7.40605 9.39734 7.78293C9.02047 8.15981 8.8129 8.66081 8.8129 9.19367C8.8129 9.72652 9.02045 10.2274 9.39736 10.6041C9.77406 10.981 10.275 11.1886 10.8079 11.1886C11.3409 11.1886 11.8418 10.981 12.2185 10.6041ZM9.44204 10.9087C9.37805 10.8575 9.31644 10.8026 9.25766 10.7438C9.19886 10.685 9.14395 10.6234 9.09277 10.5594L8.6577 10.8216L8.65772 10.8216L9.09262 10.5596C9.14381 10.6236 9.19872 10.6852 9.25751 10.744H9.25752C9.31629 10.8027 9.37791 10.8577 9.44189 10.9088L9.17995 11.3438L9.18 11.3439L9.44205 10.9087H9.44204ZM7.25673 12.4504L7.55101 12.7447C7.58889 12.7826 7.63953 12.8035 7.69361 12.8035C7.74768 12.8035 7.7983 12.7826 7.83617 12.7448L8.98434 11.5966C9.01391 11.567 9.04044 11.5381 9.06513 11.5084L8.49325 10.9365C8.46357 10.9612 8.43468 10.9877 8.40523 11.0171L7.25683 12.1652C7.17827 12.244 7.17822 12.3719 7.25673 12.4504ZM9.56602 9.22099C9.5817 9.16874 9.63672 9.13909 9.689 9.15474L9.81521 9.19258L9.99721 9.05622C10.0143 9.04342 10.0351 9.03649 10.0564 9.03649H10.2016V8.98067H10.1464C10.0918 8.98067 10.0476 8.93644 10.0476 8.8819V8.65395L9.93062 8.56773C9.88671 8.53536 9.87736 8.47353 9.90973 8.42961C9.94209 8.38571 10.0039 8.37635 10.0478 8.40873L10.205 8.52455C10.2302 8.54317 10.2451 8.57268 10.2451 8.60405V8.78313H10.4238C10.4204 8.76244 10.4185 8.74144 10.4185 8.72023C10.4185 8.60785 10.4664 8.5065 10.5428 8.43533C10.4464 8.29297 10.329 8.18129 10.1857 8.09569C10.1388 8.06772 10.1235 8.00708 10.1515 7.96025C10.1795 7.91343 10.2401 7.89814 10.2869 7.92609C10.4588 8.02876 10.6034 8.16827 10.7175 8.3414C10.7466 8.33445 10.7769 8.33066 10.8081 8.33066C10.8393 8.33066 10.8694 8.33443 10.8984 8.34135C11.0126 8.16825 11.1571 8.02876 11.3289 7.92611C11.3758 7.89815 11.4364 7.91344 11.4644 7.96027C11.4923 8.00709 11.477 8.06774 11.4302 8.0957C11.2869 8.18129 11.1695 8.29296 11.0731 8.43528C11.1495 8.50645 11.1973 8.60784 11.1973 8.72025C11.1973 8.7415 11.1955 8.76251 11.1922 8.78315H11.3708V8.60406C11.3708 8.57269 11.3857 8.54318 11.4109 8.52457L11.568 8.40874C11.6119 8.37637 11.6738 8.38573 11.7061 8.42963C11.7385 8.47353 11.7292 8.53536 11.6853 8.56774L11.5683 8.65396V8.88193C11.5683 8.93647 11.5241 8.98069 11.4695 8.98069H11.4143V9.03652H11.5595C11.5808 9.03652 11.6016 9.04344 11.6187 9.05625L11.8007 9.19261L11.9269 9.15477C11.9791 9.13911 12.0342 9.16877 12.0499 9.22101C12.0655 9.27326 12.0359 9.32831 11.9836 9.34398L11.8097 9.39613C11.8004 9.39892 11.7908 9.40029 11.7813 9.40029C11.7602 9.40029 11.7394 9.39352 11.7221 9.38056L11.5266 9.23405H11.4143V9.31108L11.6142 9.41725C11.6464 9.43439 11.6666 9.46793 11.6666 9.50447V9.84172L11.8246 9.98807C11.8647 10.0251 11.8671 10.0876 11.83 10.1276C11.8105 10.1486 11.784 10.1593 11.7575 10.1593C11.7335 10.1593 11.7094 10.1506 11.6904 10.133L11.5008 9.95731C11.4806 9.93862 11.4691 9.91236 11.4691 9.88486V9.56384L11.4143 9.53474V9.6343C11.4143 9.96875 11.1424 10.2408 10.8081 10.2408C10.4739 10.2408 10.2016 9.96875 10.2016 9.6343V9.53474L10.1468 9.56384V9.88486C10.1468 9.91236 10.1353 9.93862 10.1152 9.95731L9.9255 10.133C9.90648 10.1506 9.88242 10.1593 9.8584 10.1593C9.83185 10.1593 9.80537 10.1486 9.78591 10.1276C9.74884 10.0876 9.75124 10.0251 9.79127 9.98807L9.94929 9.84172V9.50447C9.94929 9.46794 9.96946 9.43439 10.0017 9.41725L10.2016 9.31108V9.23404H10.0893L9.89379 9.38055C9.8765 9.39351 9.85567 9.40027 9.83456 9.40027C9.82506 9.40027 9.81552 9.3989 9.8062 9.39611L9.63227 9.34397C9.58004 9.3283 9.55037 9.27324 9.56604 9.221L9.56602 9.22099ZM10.9998 8.72023C10.9998 8.61434 10.9138 8.52819 10.8081 8.52819C10.7024 8.52819 10.6161 8.61434 10.6161 8.72023C10.6161 8.74184 10.6198 8.76301 10.6268 8.78313H10.9892C10.9961 8.76316 10.9998 8.74199 10.9998 8.72023ZM10.7093 10.0312V9.36098C10.7093 9.30643 10.7536 9.26221 10.8081 9.26221C10.8626 9.26221 10.9069 9.30643 10.9069 9.36098V10.0311C11.0846 9.98681 11.2168 9.82573 11.2168 9.63429V8.98068H10.3991V9.63429C10.3991 9.82576 10.5314 9.98686 10.7093 10.0312ZM9.5376 7.92323C9.87682 7.58383 10.328 7.39693 10.808 7.39693C11.288 7.39693 11.7392 7.58383 12.0786 7.92322C12.7788 8.62378 12.7788 9.76363 12.0786 10.4642C11.7392 10.8036 11.288 10.9905 10.808 10.9905C10.328 10.9905 9.8768 10.8036 9.53762 10.4642C9.19824 10.1248 9.01133 9.67361 9.01133 9.19371C9.01133 8.7138 9.19824 8.26259 9.5376 7.92323ZM9.67731 10.3245C9.97921 10.6266 10.3808 10.7929 10.808 10.7929C11.2352 10.7929 11.6369 10.6266 11.9389 10.3245C12.5621 9.70099 12.5621 8.68641 11.9389 8.06287C11.6368 7.76085 11.2352 7.59446 10.808 7.59446C10.3808 7.59446 9.97921 7.76081 9.6773 8.06288C9.37521 8.36496 9.20886 8.76655 9.20886 9.19371C9.20886 9.62086 9.37522 10.0225 9.67731 10.3245Z" fill="white"/>
</g>
<defs>
<clipPath id="clip0_1919_99688">
<rect width="20" height="20" fill="white" transform="translate(-0.000488281)"/>
</clipPath>
</defs>
</svg>

