<svg width="16" height="17" viewBox="0 0 16 17" fill="none" xmlns="http://www.w3.org/2000/svg">
<g clip-path="url(#clip0_383_17348)">
<path d="M12.3104 5.16594H11.632C11.5224 4.77875 11.3677 4.41075 11.1736 4.06728L11.6502 3.59397C11.8443 3.40156 11.8443 3.08784 11.6505 2.89509L10.3879 1.64075C10.1958 1.44966 9.88579 1.44966 9.69366 1.64044L9.21245 2.11875C8.86698 1.92597 8.49632 1.77228 8.10713 1.66331V0.992531C8.10713 0.720594 7.88654 0.5 7.6146 0.5H5.82601C5.55407 0.5 5.33348 0.720594 5.33348 0.992531V1.66325C4.9436 1.77222 4.57363 1.92591 4.22754 2.11869L3.74691 1.64075C3.55482 1.44997 3.24479 1.44997 3.05266 1.64075L1.79004 2.89509C1.59626 3.08787 1.59626 3.40153 1.79004 3.59397L2.26666 4.06728C2.07288 4.41075 1.91788 4.77875 1.80791 5.16594H1.13023C0.858289 5.16594 0.637695 5.38622 0.637695 5.65847V7.42853C0.637695 7.70047 0.858289 7.92106 1.13023 7.92106H1.80791C1.91788 8.30794 2.07291 8.67625 2.26666 9.01941L1.79004 9.49272C1.59626 9.6855 1.59626 9.99916 1.79004 10.1916L3.05266 11.4459C3.24476 11.6367 3.55479 11.6367 3.74691 11.4456L4.22754 10.968C4.57366 11.1608 4.94366 11.3145 5.33348 11.4241V12.0945C5.33348 12.2402 5.39673 12.3711 5.49745 12.4608C5.58457 12.5397 5.69982 12.587 5.82601 12.587H7.6146C7.88654 12.587 8.10713 12.3664 8.10713 12.0945V11.4241C8.49632 11.3144 8.86698 11.1608 9.21245 10.968L9.69138 11.4436L9.6937 11.4459C9.88579 11.6367 10.1958 11.6367 10.3879 11.4459L11.0285 10.8097L11.6503 10.1916C11.8444 9.99913 11.8444 9.68547 11.6503 9.49272L11.1736 9.01941C11.3677 8.67625 11.5224 8.30794 11.632 7.92106H12.3104C12.529 7.92106 12.7145 7.77863 12.7787 7.58122C12.7943 7.53319 12.8029 7.48184 12.8029 7.42853V5.65847C12.8029 5.38619 12.5823 5.16594 12.3104 5.16594ZM6.72032 8.80409C6.63454 8.80409 6.54973 8.79947 6.46629 8.78988C5.33316 8.664 4.45213 7.70612 4.45213 6.5435C4.45213 5.29478 5.46763 4.28259 6.72035 4.28259C7.97307 4.28259 8.98791 5.29481 8.98791 6.5435C8.98791 6.92806 8.89154 7.29041 8.72129 7.60772C8.33966 8.31984 7.58679 8.80409 6.72032 8.80409Z" fill="#3C6EAA"/>
<path d="M12.573 7.73665L12.5077 7.80159C12.4657 7.78337 12.4233 7.76615 12.3805 7.74927V7.6658C12.3805 7.13021 11.945 6.69434 11.4091 6.69434H10.0464C9.51085 6.69434 9.07495 7.13024 9.07495 7.6658V7.74927C9.03254 7.76615 8.98982 7.78337 8.94776 7.80159L8.88251 7.73699C8.83282 7.68765 8.77848 7.64424 8.72085 7.60749C8.33929 8.31962 7.58641 8.80387 6.71995 8.80387C6.63416 8.80387 6.54935 8.79924 6.46591 8.78965C6.33507 8.95855 6.26454 9.16493 6.26454 9.38187C6.26454 9.64252 6.36657 9.88731 6.55138 10.0708L6.6097 10.1287C6.59248 10.1688 6.57557 10.2089 6.55935 10.2493H6.46854C5.93298 10.2493 5.49707 10.6852 5.49707 11.2208V12.4606C5.5842 12.5394 5.69945 12.5867 5.82563 12.5867H7.61423C7.88616 12.5867 8.10676 12.3661 8.10676 12.0942V11.4238C8.49595 11.3142 8.8666 11.1605 9.21207 10.9677L9.69101 11.4434C9.86623 11.0466 10.265 10.769 10.7277 10.769C10.8317 10.769 10.9324 10.7829 11.0282 10.8094L11.6499 10.1914C11.844 9.9989 11.844 9.68524 11.6499 9.49249L11.1733 9.01918C11.3674 8.67602 11.522 8.30771 11.6317 7.92084H12.31C12.5286 7.92084 12.7141 7.7784 12.7784 7.58099C12.7041 7.62271 12.6352 7.67505 12.573 7.73665Z" fill="#365889"/>
<path d="M6.72023 3.0166C4.7723 3.0166 3.19336 4.59554 3.19336 6.54348C3.19336 8.43279 4.6792 9.97495 6.5463 10.0654C6.60392 10.0684 6.66189 10.0697 6.72017 10.0697C8.61708 10.0697 10.1645 8.57188 10.2434 6.69454C10.2457 6.64451 10.2467 6.5942 10.2467 6.54348C10.2468 4.59554 8.6678 3.0166 6.72023 3.0166ZM8.71286 7.62226C8.3293 8.32641 7.58073 8.80404 6.7202 8.80404C6.63442 8.80404 6.54961 8.79941 6.46648 8.78982H6.46617C5.33305 8.66395 4.45202 7.70607 4.45202 6.54345C4.45202 5.29473 5.46752 4.28254 6.72023 4.28254C7.97295 4.28254 8.9878 5.29476 8.9878 6.54345C8.9878 6.92801 8.89142 7.29035 8.72117 7.60766C8.71852 7.61263 8.71552 7.61763 8.71286 7.62226Z" fill="#FFCB39"/>
<path d="M10.0466 6.69434C9.51099 6.69434 9.07509 7.13024 9.07509 7.6658V7.74927C9.03268 7.76615 8.98996 7.78337 8.9479 7.80159L8.88265 7.73699C8.83296 7.68765 8.77862 7.64424 8.72099 7.60749C8.71837 7.61246 8.71537 7.61743 8.71271 7.62209C8.32915 8.32624 7.58059 8.80387 6.72005 8.80387C6.63427 8.80387 6.54946 8.79924 6.46634 8.78965H6.46602C6.33518 8.95855 6.26465 9.16493 6.26465 9.38187C6.26465 9.6399 6.36468 9.88234 6.54618 10.0652C6.6038 10.0681 6.66177 10.0695 6.72005 10.0695C8.61696 10.0695 10.1644 8.57168 10.2433 6.69434H10.0466Z" fill="#EFB82E"/>
<path d="M15.3627 12.5699V11.2212C15.3627 11.014 15.1947 10.8459 14.9874 10.8459H14.4707C14.3872 10.551 14.2692 10.2705 14.1214 10.009L14.4846 9.6483C14.6323 9.50155 14.6323 9.26261 14.4846 9.11586L13.5226 8.16002C13.3763 8.01461 13.14 8.01461 12.9937 8.15998L12.627 8.5242C12.3637 8.37745 12.0815 8.2602 11.7848 8.17739V7.6663C11.7848 7.45905 11.6168 7.29102 11.4096 7.29102H10.0468C9.83959 7.29102 9.67156 7.45905 9.67156 7.6663V8.17739C9.37456 8.26023 9.09269 8.37748 8.82906 8.5242L8.46275 8.16014C8.31641 8.0147 8.08006 8.01467 7.93372 8.16011L6.97181 9.11589C6.82409 9.26267 6.82416 9.50161 6.97184 9.64833L7.33503 10.0091C7.18722 10.2706 7.06931 10.5511 6.98541 10.846H6.46903C6.26178 10.846 6.09375 11.014 6.09375 11.2212V12.5699C6.09375 12.7772 6.26178 12.9452 6.46903 12.9452H6.98541C7.06931 13.2401 7.18725 13.5206 7.33503 13.7821L6.97188 14.1428C6.82413 14.2895 6.82413 14.5285 6.97188 14.6753L7.93372 15.6308C8.08009 15.7762 8.31641 15.7761 8.46272 15.6307L8.82906 15.2666C9.09269 15.4137 9.37459 15.5306 9.67156 15.6141V16.1249C9.67156 16.3321 9.83959 16.5002 10.0468 16.5002H11.4096C11.6168 16.5002 11.7849 16.3321 11.7849 16.1249V15.6141C12.0815 15.5306 12.3638 15.4137 12.627 15.2666L12.9937 15.6309C13.1401 15.7762 13.3763 15.7762 13.5227 15.6309L14.4846 14.6753C14.6323 14.5285 14.6323 14.2896 14.4846 14.1428L14.1214 13.7821C14.2692 13.5206 14.3871 13.2401 14.4707 12.9452H14.9874C15.1947 12.9452 15.3627 12.7772 15.3627 12.5699ZM10.7283 13.6181C9.77378 13.6181 9.00006 12.8469 9.00006 11.8956C9.00006 10.9443 9.77378 10.173 10.7283 10.173C11.6827 10.173 12.4561 10.9443 12.4561 11.8956C12.4561 12.8469 11.6827 13.6181 10.7283 13.6181Z" fill="#4E8AD1"/>
<path d="M10.7282 9.20801C9.24405 9.20801 8.04102 10.411 8.04102 11.8952C8.04102 13.379 9.24402 14.5821 10.7282 14.5821C12.2121 14.5821 13.4151 13.3791 13.4151 11.8952C13.4151 10.411 12.2121 9.20801 10.7282 9.20801ZM10.7282 13.6177C9.77377 13.6177 9.00005 12.8465 9.00005 11.8952C9.00005 10.9439 9.77377 10.1727 10.7282 10.1727C11.6827 10.1727 12.456 10.9439 12.456 11.8952C12.456 12.8465 11.6827 13.6177 10.7282 13.6177Z" fill="#EFEADD"/>
</g>
<defs>
<clipPath id="clip0_383_17348">
<rect width="16" height="16" fill="white" transform="translate(0 0.5)"/>
</clipPath>
</defs>
</svg>
