<svg width="16" height="17" viewBox="0 0 16 17" fill="none" xmlns="http://www.w3.org/2000/svg">
<path d="M15.4273 4.75176L10.7936 0.117383C10.7467 0.0705078 10.6833 0.0439453 10.617 0.0439453H5.36828C4.14672 0.0439453 3.15297 1.03801 3.15297 2.25957V6.64426H1.20859C0.832969 6.64426 0.527344 6.94988 0.527344 7.32551V11.2418C0.527344 11.6174 0.832969 11.923 1.20859 11.923H3.15297V13.8283C3.15297 15.0499 4.14672 16.0439 5.36828 16.0439H13.2852C14.5067 16.0439 15.5005 15.0499 15.5005 13.8283V4.92863C15.5005 4.86238 15.4742 4.79863 15.4273 4.75176ZM15.0008 13.8283C15.0008 14.7746 14.2311 15.5443 13.2852 15.5443H5.36828C4.42234 15.5443 3.65266 14.7746 3.65266 13.8283V11.923H11.8836C12.2592 11.923 12.5648 11.6174 12.5648 11.2418V7.32551C12.5648 6.94988 12.2592 6.64426 11.8836 6.64426H3.65266V2.25957C3.65266 1.31332 4.42234 0.543633 5.36828 0.543633H10.367V4.42801C10.367 4.84176 10.7033 5.17832 11.1164 5.17832H15.0008V13.8283Z" fill="currentColor"/>
<path fill-rule="evenodd" clip-rule="evenodd" d="M4.64789 8.16949V7.60449H2.08789V8.16949H3.01789V11.0945H3.71789V8.16949H4.64789ZM6.49363 9.91949L7.24863 11.0945H8.05363L6.93863 9.35949L8.03363 7.60449H7.24363L6.56363 8.77449L5.80863 7.60449H5.00363L6.11863 9.33449L5.01863 11.0945H5.80863L6.49363 9.91949ZM10.9614 8.16949V7.60449H8.40137V8.16949H9.33137V11.0945H10.0314V8.16949H10.9614Z" fill="white"/>
</svg>
