<svg width="16" height="16" viewBox="0 0 16 16" fill="currentColor" xmlns="http://www.w3.org/2000/svg">
    <path fill-rule="evenodd" clip-rule="evenodd"
        d="M15.1663 8.33337V3.33337C15.1663 1.95271 14.047 0.833374 12.6663 0.833374C10.149 0.833374 5.85034 0.833374 3.33301 0.833374C1.95234 0.833374 0.833008 1.95271 0.833008 3.33337V12.6667C0.833008 14.0474 1.95234 15.1667 3.33301 15.1667H8.33301C8.60901 15.1667 8.83301 14.9427 8.83301 14.6667C8.83301 14.3907 8.60901 14.1667 8.33301 14.1667H3.33301C2.50434 14.1667 1.83301 13.4954 1.83301 12.6667V3.33337C1.83301 2.50471 2.50434 1.83337 3.33301 1.83337H12.6663C13.495 1.83337 14.1663 2.50471 14.1663 3.33337V8.33337C14.1663 8.60937 14.3903 8.83337 14.6663 8.83337C14.9423 8.83337 15.1663 8.60937 15.1663 8.33337Z"
        fill="currentColor" />
    <path fill-rule="evenodd" clip-rule="evenodd"
        d="M14.6663 4.16675H1.33301C1.05701 4.16675 0.833008 4.39075 0.833008 4.66675C0.833008 4.94275 1.05701 5.16675 1.33301 5.16675H14.6663C14.9423 5.16675 15.1663 4.94275 15.1663 4.66675C15.1663 4.39075 14.9423 4.16675 14.6663 4.16675Z"
        fill="currentColor" />
    <path
        d="M8.5 3.5C8.77614 3.5 9 3.27614 9 3C9 2.72386 8.77614 2.5 8.5 2.5C8.22386 2.5 8 2.72386 8 3C8 3.27614 8.22386 3.5 8.5 3.5Z"
        fill="currentColor" />
    <path
        d="M10.333 3.5C10.6092 3.5 10.833 3.27614 10.833 3C10.833 2.72386 10.6092 2.5 10.333 2.5C10.0569 2.5 9.83301 2.72386 9.83301 3C9.83301 3.27614 10.0569 3.5 10.333 3.5Z"
        fill="currentColor" />
    <path
        d="M12.166 3.5C12.4422 3.5 12.666 3.27614 12.666 3C12.666 2.72386 12.4422 2.5 12.166 2.5C11.8899 2.5 11.666 2.72386 11.666 3C11.666 3.27614 11.8899 3.5 12.166 3.5Z"
        fill="currentColor" />
    <path fill-rule="evenodd" clip-rule="evenodd"
        d="M10.666 7.16675C8.73402 7.16675 7.16602 8.73475 7.16602 10.6667C7.16602 12.5987 8.73402 14.1667 10.666 14.1667C12.598 14.1667 14.166 12.5987 14.166 10.6667C14.166 8.73475 12.598 7.16675 10.666 7.16675ZM10.666 8.16675C12.046 8.16675 13.166 9.28675 13.166 10.6667C13.166 12.0467 12.046 13.1667 10.666 13.1667C9.28602 13.1667 8.16602 12.0467 8.16602 10.6667C8.16602 9.28675 9.28602 8.16675 10.666 8.16675Z"
        fill="currentColor" />
    <path fill-rule="evenodd" clip-rule="evenodd"
        d="M12.6465 13.3534L14.3132 15.0201C14.5078 15.2154 14.8252 15.2154 15.0198 15.0201C15.2152 14.8254 15.2152 14.5081 15.0198 14.3134L13.3532 12.6467C13.1585 12.4514 12.8412 12.4514 12.6465 12.6467C12.4512 12.8414 12.4512 13.1587 12.6465 13.3534Z"
        fill="currentColor" />
</svg>