<svg width="16" height="16" viewBox="0 0 16 16" fill="none" xmlns="http://www.w3.org/2000/svg">
<path fill-rule="evenodd" clip-rule="evenodd" d="M0 8C0 3.58853 3.58916 0 8 0C12.4108 0 16 3.58853 16 8C16 12.4115 12.4115 16 8 16C3.58916 16 0 12.4115 0 8ZM1.23934 8C1.23934 11.728 4.27203 14.7607 8 14.7607C11.728 14.7607 14.7607 11.728 14.7607 8C14.7607 4.27203 11.728 1.23934 8 1.23934C4.27203 1.23934 1.23934 4.27203 1.23934 8ZM4.90161 7.32455H11.0984C11.4404 7.32455 11.718 7.60218 11.718 7.94424C11.718 8.2863 11.4404 8.56393 11.0984 8.56393H4.90161C4.55955 8.56393 4.28192 8.2863 4.28192 7.94424C4.28192 7.60218 4.55955 7.32455 4.90161 7.32455Z" fill="currentColor"/>
</svg>
