<svg width="16" height="10" viewBox="0 0 16 10" fill="none" xmlns="http://www.w3.org/2000/svg">
<path fill-rule="evenodd" clip-rule="evenodd" d="M7.71572 9.02032C7.87816 9.18275 8.04059 9.26397 8.28425 9.26397C8.5279 9.26397 8.77156 9.18275 8.85277 9.02032L15.7563 2.11676C16.0812 1.79189 16.0812 1.30458 15.7563 0.979708C15.4315 0.654835 14.9441 0.654835 14.6193 0.979708L8.28425 7.31473L5.44161 4.47209C5.11673 4.14722 4.62943 4.14722 4.30455 4.47209C3.97968 4.79697 3.97968 5.28428 4.30455 5.60915L7.71572 9.02032ZM3.65482 9.02033C3.81726 9.18277 3.9797 9.26399 4.22335 9.26399C4.46701 9.26399 4.71066 9.18277 4.79188 9.02033C5.11675 8.69546 5.11675 8.20815 4.79188 7.88328L1.38071 4.47211C1.05584 4.14724 0.568528 4.14724 0.243655 4.47211C-0.0812183 4.79698 -0.0812183 5.28429 0.243655 5.60917L3.65482 9.02033ZM7.95939 4.79698C8.12183 4.95942 8.28426 5.04064 8.52792 5.04064C8.77157 5.04064 8.93401 4.95942 9.09645 4.79698L11.6954 2.11678C12.0203 1.79191 12.0203 1.3046 11.6954 0.979724C11.3706 0.65485 10.8832 0.65485 10.5584 0.979724L7.95939 3.65993C7.63452 3.9848 7.63452 4.47211 7.95939 4.79698Z" fill="currentColor"/>
</svg>
