<svg width="16" height="15" viewBox="0 0 16 15" fill="none" xmlns="http://www.w3.org/2000/svg">
<path fill-rule="evenodd" clip-rule="evenodd" d="M7.94751 8.39233e-05C4.08139 8.39233e-05 0.947266 3.13421 0.947266 7.00033C0.947266 10.8664 4.08139 14.0006 7.94751 14.0006C11.8136 14.0006 14.9478 10.8664 14.9478 7.00033C14.9478 3.13421 11.8136 8.39233e-05 7.94751 8.39233e-05ZM1.89727 7.00033C1.89727 3.65888 4.60606 0.950084 7.94751 0.950084C11.2889 0.950084 13.9978 3.65888 13.9978 7.00033C13.9978 10.3418 11.2889 13.0506 7.94751 13.0506C4.60606 13.0506 1.89727 10.3418 1.89727 7.00033ZM10.7444 4.89968C10.9033 4.67385 10.8491 4.36195 10.6232 4.20303C10.3974 4.04412 10.0855 4.09836 9.92658 4.32419L6.91082 8.60974L5.65066 7.32626C5.45719 7.12922 5.14062 7.12631 4.94358 7.31978C4.74654 7.51324 4.74363 7.82981 4.9371 8.02685L6.61763 9.73849C6.72159 9.84438 6.86722 9.89862 7.01512 9.88653C7.16302 9.87445 7.29792 9.7973 7.38332 9.67594L10.7444 4.89968Z" fill="#71347B"/>
</svg>
