<svg width="24" height="24" viewBox="0 0 24 24" fill="none" xmlns="http://www.w3.org/2000/svg">
<g clip-path="url(#clip0_14759_41555)">
<path d="M17.0875 7.69067L14.8577 5.36667C14.011 4.48533 12.8859 4 11.6897 4H8.8001C7.03562 4 5.6001 5.49533 5.6001 7.33333V16.6667C5.6001 18.5047 7.03562 20 8.8001 20H15.2001C16.9646 20 18.4001 18.5047 18.4001 16.6667V10.99C18.4001 9.74267 17.9335 8.572 17.0875 7.69067ZM16.1825 8.634C16.386 8.84533 16.5582 9.08067 16.6977 9.334H13.9195C13.5662 9.334 13.2795 9.03467 13.2795 8.66733V5.77267C13.5227 5.918 13.7486 6.09733 13.9521 6.30933L16.1825 8.634ZM17.1201 16.6673C17.1201 17.77 16.2587 18.6673 15.2001 18.6673H8.8001C7.74154 18.6673 6.8801 17.77 6.8801 16.6673V7.33333C6.8801 6.23067 7.74154 5.33333 8.8001 5.33333H11.6897C11.794 5.33333 11.8977 5.33867 12.0001 5.34867V8.66667C12.0001 9.76933 12.8615 10.6667 13.9201 10.6667H17.1054C17.115 10.7733 17.1201 10.8813 17.1201 10.99V16.6673ZM14.3726 14.5967C14.6228 14.3367 14.6228 13.9147 14.3726 13.654L13.3403 12.578C12.971 12.1933 12.4852 12.0007 12.0001 12.0007C11.515 12.0007 11.0292 12.1933 10.6599 12.578L9.62762 13.654C9.37738 13.9147 9.37738 14.3367 9.62762 14.5967C9.87786 14.8573 10.2823 14.8573 10.5326 14.5967L11.3601 13.7347V16.6667C11.3601 17.0347 11.6462 17.3333 12.0001 17.3333C12.354 17.3333 12.6401 17.0347 12.6401 16.6667V13.7347L13.4676 14.5967C13.7179 14.8573 14.1223 14.8573 14.3726 14.5967Z" fill="CurrentColor"/>
</g>
<defs>
<clipPath id="clip0_14759_41555">
<path d="M0 4C0 1.79086 1.79086 0 4 0H20C22.2091 0 24 1.79086 24 4V20C24 22.2091 22.2091 24 20 24H4C1.79086 24 0 22.2091 0 20V4Z" fill="white"/>
</clipPath>
</defs>
</svg>
