<svg width="40" height="40" viewBox="0 0 40 40" fill="none" xmlns="http://www.w3.org/2000/svg">
<circle cx="20" cy="20" r="19.5" fill="#F0E7F4" stroke="white"/>
<path d="M15.2079 25.4426C13.8738 25.4426 12.6871 24.5884 12.2562 23.3167L12.2271 23.2209C12.1254 22.8841 12.0829 22.6009 12.0829 22.3176V16.6357L10.0612 23.3842C9.80117 24.3768 10.3937 25.4059 11.3878 25.6801L24.274 29.1311C24.4349 29.1727 24.5957 29.1927 24.7541 29.1927C25.584 29.1927 26.3424 28.6419 26.555 27.8301L27.3057 25.4426H15.2079Z" fill="#71347B"/>
<path d="M17.4997 16.6924C18.4189 16.6924 19.1663 15.9449 19.1663 15.0257C19.1663 14.1065 18.4189 13.3589 17.4997 13.3589C16.5805 13.3589 15.833 14.1065 15.833 15.0257C15.833 15.9449 16.5805 16.6924 17.4997 16.6924Z" fill="#71347B"/>
<path d="M27.9165 10.8588H15.4162C14.268 10.8588 13.3329 11.7939 13.3329 12.9423V22.1091C13.3329 23.2575 14.268 24.1926 15.4162 24.1926H27.9165C29.0649 24.1926 30 23.2575 30 22.1091V12.9423C30 11.7939 29.0649 10.8588 27.9165 10.8588ZM15.4162 12.5256H27.9165C28.1467 12.5256 28.3333 12.7122 28.3333 12.9423V18.8583L25.7008 15.7865C25.4215 15.459 25.0173 15.284 24.5832 15.2741C24.1515 15.2765 23.7465 15.4682 23.4699 15.7999L20.3747 19.5149L19.3664 18.509C18.7964 17.9391 17.8688 17.9391 17.2997 18.509L14.9997 20.8083V12.9423C14.9997 12.7122 15.1863 12.5256 15.4162 12.5256Z" fill="#71347B"/>
</svg>
