<svg width="14" height="16" viewBox="0 0 14 16" fill="none" xmlns="http://www.w3.org/2000/svg">
<path d="M12.0875 3.69067L9.8577 1.36667C9.01098 0.485333 7.88586 0 6.6897 0H3.8001C2.03562 0 0.600098 1.49533 0.600098 3.33333V12.6667C0.600098 14.5047 2.03562 16 3.8001 16H10.2001C11.9646 16 13.4001 14.5047 13.4001 12.6667V6.99C13.4001 5.74267 12.9335 4.572 12.0875 3.69067ZM11.1825 4.634C11.386 4.84533 11.5582 5.08067 11.6977 5.334H8.91946C8.56618 5.334 8.27946 5.03467 8.27946 4.66733V1.77267C8.52266 1.918 8.74858 2.09733 8.9521 2.30933L11.1825 4.634ZM12.1201 12.6673C12.1201 13.77 11.2587 14.6673 10.2001 14.6673H3.8001C2.74154 14.6673 1.8801 13.77 1.8801 12.6673V3.33333C1.8801 2.23067 2.74154 1.33333 3.8001 1.33333H6.6897C6.79402 1.33333 6.8977 1.33867 7.0001 1.34867V4.66667C7.0001 5.76933 7.86154 6.66667 8.9201 6.66667H12.1054C12.115 6.77333 12.1201 6.88133 12.1201 6.99V12.6673ZM9.37258 10.5967C9.62282 10.3367 9.62282 9.91467 9.37258 9.654L8.34026 8.578C7.97098 8.19333 7.48522 8.00067 7.0001 8.00067C6.51498 8.00067 6.02922 8.19333 5.65994 8.578L4.62762 9.654C4.37738 9.91467 4.37738 10.3367 4.62762 10.5967C4.87786 10.8573 5.28234 10.8573 5.53258 10.5967L6.3601 9.73467V12.6667C6.3601 13.0347 6.64618 13.3333 7.0001 13.3333C7.35402 13.3333 7.6401 13.0347 7.6401 12.6667V9.73467L8.46762 10.5967C8.71786 10.8573 9.12234 10.8573 9.37258 10.5967Z" fill="CurrentColor"/>
</svg>
