<svg width="241" height="240" viewBox="0 0 241 240" fill="none" xmlns="http://www.w3.org/2000/svg">
<path d="M54.9487 182.634C54.9487 182.634 73.0485 200.176 101.456 200.413C129.863 200.651 137.197 175.926 147.123 171.463C157.05 167 168.272 177.553 189.568 175.206C210.864 172.859 224.526 140.362 209.511 121.469C194.495 102.575 172.772 94.5278 174.756 83.1931C176.74 71.8584 189.408 59.6822 176.057 49.3641C162.705 39.0461 144.604 31.2725 108.179 43.0349C71.754 54.7977 70.589 76.8216 42.9036 79.8729C15.2181 82.9248 9.75718 105.085 26.9148 127.111C44.0724 149.136 38.5985 167.93 54.9487 182.634Z" fill="#B14CC2"/>
<path opacity="0.7" d="M54.9487 182.634C54.9487 182.634 73.0485 200.176 101.456 200.413C129.863 200.651 137.197 175.926 147.123 171.463C157.05 167 168.272 177.553 189.568 175.206C210.864 172.859 224.526 140.362 209.511 121.469C194.495 102.575 172.772 94.5278 174.756 83.1931C176.74 71.8584 189.408 59.6822 176.057 49.3641C162.705 39.0461 144.604 31.2725 108.179 43.0349C71.754 54.7977 70.589 76.8216 42.9036 79.8729C15.2181 82.9248 9.75718 105.085 26.9148 127.111C44.0724 149.136 38.5985 167.93 54.9487 182.634Z" fill="white"/>
<g opacity="0.5">
<path d="M21.0507 117.931L115.079 76.4121L17.3182 100.005C16.6318 105.439 17.8711 111.575 21.0507 117.931Z" fill="white"/>
<path d="M48.7494 175.497L118.289 80.4L40.3096 154.576C42.6285 162.143 44.5024 169.135 48.7494 175.497Z" fill="white"/>
<path d="M76.4216 195.559L120.554 81.6389L57.4971 184.812C60.8422 187.472 67.375 192.047 76.4216 195.559Z" fill="white"/>
<path d="M42.9033 79.8734C34.0069 80.8541 27.4098 83.8099 23.1162 88.0982L114.354 73.9349L62.5482 72.6398C57.2946 76.2581 51.3273 78.9446 42.9033 79.8734Z" fill="white"/>
<path d="M101.455 200.414C104.687 200.441 107.643 200.142 110.364 199.59L123.062 82.2499L88.5996 199.101C92.5985 199.887 96.8916 200.375 101.455 200.414Z" fill="white"/>
<path d="M36.2753 143.111L116.421 78.6172L27.0449 127.282C31.2891 132.764 34.1379 138.045 36.2753 143.111Z" fill="white"/>
<path d="M189.568 175.206C194.293 174.685 198.64 172.679 202.383 169.668L130.325 80.1221L182.278 175.538C184.573 175.582 186.995 175.489 189.568 175.206Z" fill="white"/>
<path d="M215.836 139.481L132.107 78.2549L210.28 160.436C213.974 154.235 216.048 146.788 215.836 139.481Z" fill="white"/>
<path d="M209.511 121.469C199.45 108.81 186.379 101.02 179.444 93.8481L133.347 75.9902L210.91 123.395C210.474 122.739 210.009 122.096 209.511 121.469Z" fill="white"/>
<path d="M174.756 83.1931C175.053 81.4973 175.59 79.7822 176.242 78.0576L133.957 73.4817L174.677 85.4913C174.599 84.7373 174.619 83.9731 174.756 83.1931Z" fill="white"/>
<path d="M140.393 177.213L125.642 82.1894L122.833 194.577C130.745 189.574 135.864 182.381 140.393 177.213Z" fill="white"/>
<path d="M70.1562 66.5779L114.294 71.3544L77.1945 60.4128C74.7066 62.5233 72.4146 64.6037 70.1562 66.5779Z" fill="white"/>
<path d="M168.87 173.753L128.12 81.4637L149.644 170.651C155.048 169.513 161.024 171.923 168.87 173.753Z" fill="white"/>
<path d="M110.79 42.2179L120.131 63.372L114.748 41.0678C113.455 41.4235 112.134 41.8085 110.79 42.2179Z" fill="white"/>
<path d="M176.156 49.4438L133.172 68.4235L181.582 56.7403C180.826 54.2337 179.161 51.791 176.156 49.4438Z" fill="white"/>
<path d="M181.767 63.4699L133.897 70.9013L178.791 72.0235C180.041 69.1569 181.217 66.2918 181.767 63.4699Z" fill="white"/>
<path d="M162.718 41.3625L131.83 66.2184L170.248 45.3C167.917 43.8465 165.424 42.5126 162.718 41.3625Z" fill="white"/>
<path d="M133.898 70.9013L127.901 70.751L133.172 68.4235L127.341 69.8309L131.83 66.2184L126.562 69.0869L129.963 64.4357L125.617 68.5699L127.698 63.1973L124.57 68.3155L125.19 62.5867L123.493 68.3405L122.609 62.6462L122.459 68.6429L120.132 63.372L121.539 69.203L117.927 64.7136L120.795 69.9821L116.144 66.5808L120.278 70.9272L114.905 68.8459L120.023 71.9741L114.295 71.3539L120.048 73.0507L114.354 73.9349L120.351 74.0846L115.08 76.4121L120.911 75.0048L116.422 78.6173L121.69 75.7488L122.518 74.6174L123.352 74.4158L123.142 74.9587L123.895 74.5483L123.833 75.1267L122.635 76.2657L120.554 81.6389L123.682 76.5206L123.062 82.2494L124.759 76.4957L125.643 82.1894L125.793 76.1928L128.12 81.4641L126.713 75.6326L130.325 80.1221L127.457 74.8536L132.108 78.2549L127.974 73.9085L133.347 75.9902L128.229 72.8621L133.957 73.4817L128.204 71.7849L133.898 70.9013Z" fill="white"/>
<path d="M149.494 37.727L129.963 64.4357L156.509 39.1843C154.309 38.5689 151.976 38.076 149.494 37.727Z" fill="white"/>
<path d="M121.689 75.7488L118.288 80.4L122.634 76.2657L123.141 74.9587L121.689 75.7488Z" fill="white"/>
<path d="M119.086 39.9523L122.609 62.6462L123.199 39.0422C121.858 39.3139 120.488 39.6168 119.086 39.9523Z" fill="white"/>
<path d="M92.8232 49.5283L116.143 66.5808L97.6348 47.123C95.9399 47.9035 94.3415 48.707 92.8232 49.5283Z" fill="white"/>
<path d="M102.203 45.1752L117.926 64.7136L106.438 43.6142C104.967 44.1182 103.56 44.64 102.203 45.1752Z" fill="white"/>
<path d="M82.3828 56.2469L114.905 68.8459L87.9638 52.38C85.9641 53.6491 84.1147 54.9437 82.3828 56.2469Z" fill="white"/>
<path d="M137.77 37.1976L127.697 63.1973L143.589 37.1952C141.729 37.1165 139.791 37.115 137.77 37.1976Z" fill="white"/>
<path d="M127.828 38.2061L125.189 62.5867L132.564 37.5811C131.031 37.7429 129.452 37.9502 127.828 38.2061Z" fill="white"/>
</g>
<path d="M122.126 212.842C175.076 212.842 218 200.955 218 186.292C218 171.629 175.076 159.742 122.126 159.742C69.1755 159.742 26.251 171.629 26.251 186.292C26.251 200.955 69.1755 212.842 122.126 212.842Z" fill="#B14CC2"/>
<path opacity="0.5" d="M122.126 212.842C175.076 212.842 218 200.955 218 186.292C218 171.629 175.076 159.742 122.126 159.742C69.1755 159.742 26.251 171.629 26.251 186.292C26.251 200.955 69.1755 212.842 122.126 212.842Z" fill="white"/>
<path d="M196.324 95.4801C196.324 95.4801 210.619 112.004 210.696 132.473C210.774 152.942 196.604 169.606 196.604 169.606C196.604 169.606 182.31 153.083 182.232 132.613C182.154 112.144 196.324 95.4801 196.324 95.4801Z" fill="#B14CC2"/>
<path d="M227.733 142.302C227.733 142.302 227.822 155.754 220.598 164.305C213.374 172.857 201.572 173.269 201.572 173.269C201.572 173.269 201.483 159.817 208.707 151.266C215.931 142.715 227.733 142.302 227.733 142.302Z" fill="#B14CC2"/>
<path d="M165.643 141.058C165.643 141.058 165.049 154.494 171.947 163.388C178.844 172.283 190.619 173.269 190.619 173.269C190.619 173.269 191.213 159.833 184.316 150.939C177.419 142.043 165.643 141.058 165.643 141.058Z" fill="#B14CC2"/>
<g opacity="0.5">
<path d="M196.324 95.4801C196.324 95.4801 210.619 112.004 210.696 132.473C210.774 152.942 196.604 169.606 196.604 169.606C196.604 169.606 182.31 153.083 182.232 132.613C182.154 112.144 196.324 95.4801 196.324 95.4801Z" fill="white"/>
<path d="M227.733 142.302C227.733 142.302 227.822 155.754 220.598 164.305C213.374 172.857 201.572 173.269 201.572 173.269C201.572 173.269 201.483 159.817 208.707 151.266C215.931 142.715 227.733 142.302 227.733 142.302Z" fill="white"/>
<path d="M165.643 141.058C165.643 141.058 165.049 154.494 171.947 163.388C178.844 172.283 190.619 173.269 190.619 173.269C190.619 173.269 191.213 159.833 184.316 150.939C177.419 142.043 165.643 141.058 165.643 141.058Z" fill="white"/>
</g>
<path d="M187.552 150.694L187.552 150.693C187.679 150.509 187.912 150.477 188.074 150.621L195.584 157.335C195.828 157.553 196.186 157.354 196.185 157L196.126 141.518C196.126 141.398 196.08 141.283 196.001 141.203L184.721 129.833C184.567 129.678 184.553 129.41 184.689 129.235C184.825 129.06 185.06 129.044 185.213 129.199L195.5 139.569C195.741 139.811 196.119 139.615 196.118 139.25L196.054 122.215C196.053 122.093 196.007 121.977 195.926 121.897L188.463 114.539C188.308 114.386 188.291 114.119 188.425 113.942L188.426 113.942C188.56 113.765 188.794 113.746 188.95 113.899L195.431 120.289C195.672 120.527 196.047 120.331 196.045 119.967L195.954 95.9054C195.953 95.6716 196.119 95.4816 196.324 95.4806C196.529 95.4796 196.696 95.6683 196.697 95.9021L196.832 131.568C196.833 131.983 197.304 132.148 197.51 131.805L205.884 117.855C206 117.662 206.231 117.613 206.401 117.745L206.402 117.746C206.571 117.878 206.614 118.141 206.499 118.334L196.904 134.317L196.842 134.269L196.898 148.887C196.899 149.253 197.279 149.445 197.517 149.2L207.726 138.743C207.879 138.587 208.113 138.601 208.25 138.775L208.251 138.776C208.388 138.949 208.375 139.217 208.223 139.374L196.907 150.964L196.905 150.961L196.973 169.182C196.974 169.416 196.809 169.606 196.604 169.607C196.399 169.608 196.231 169.419 196.23 169.186L196.192 159.161C196.192 159.032 196.14 158.91 196.05 158.83L187.615 151.289C187.454 151.144 187.426 150.878 187.552 150.694Z" fill="white"/>
<path d="M166.066 141.945C166.22 141.789 166.455 141.804 166.592 141.978L177.921 156.408C178.164 156.718 178.612 156.485 178.566 156.073L177.633 147.66C177.607 147.428 177.751 147.216 177.955 147.187C178.158 147.158 178.344 147.322 178.37 147.554L179.585 158.516L179.576 158.518L184.001 164.153C184.214 164.425 184.61 164.281 184.647 163.919L185.448 155.872C185.471 155.64 185.655 155.473 185.859 155.499H185.859C186.063 155.526 186.21 155.735 186.187 155.967L185.236 165.513C185.224 165.633 185.258 165.753 185.328 165.843L191.247 173.381C191.384 173.555 191.371 173.822 191.218 173.978L191.217 173.979C191.064 174.135 190.829 174.12 190.692 173.946L187.495 169.874C187.419 169.778 187.309 169.726 187.196 169.734L181.297 170.14C181.093 170.154 180.917 169.976 180.904 169.743C180.892 169.51 181.048 169.309 181.253 169.295L185.977 168.97C186.287 168.948 186.439 168.529 186.232 168.265L181.502 162.241C181.432 162.151 181.331 162.1 181.225 162.1L172.788 162.111C172.583 162.111 172.416 161.922 172.416 161.688V161.688C172.415 161.454 172.582 161.264 172.787 161.264L179.898 161.255C180.218 161.254 180.388 160.822 180.174 160.549L174.954 153.901C174.883 153.81 174.78 153.758 174.673 153.76L169.249 153.834C169.044 153.837 168.876 153.65 168.873 153.416V153.416C168.87 153.182 169.035 152.99 169.24 152.987L173.366 152.931C173.685 152.927 173.851 152.496 173.638 152.226L166.036 142.544C165.9 142.369 165.913 142.101 166.066 141.945Z" fill="white"/>
<path d="M204.511 161.235H204.512C204.715 161.204 204.902 161.366 204.93 161.598L205.566 166.942C205.608 167.292 205.987 167.433 206.202 167.178L211.12 161.356C211.194 161.269 211.231 161.151 211.223 161.031L210.584 151.445C210.568 151.212 210.722 151.009 210.926 150.991H210.927C211.132 150.973 211.31 151.148 211.325 151.381L211.864 159.459C211.888 159.823 212.28 159.983 212.502 159.72L217.932 153.293C218.006 153.205 218.044 153.084 218.034 152.963L217.564 146.806C217.547 146.573 217.698 146.368 217.902 146.347C218.107 146.327 218.287 146.499 218.305 146.732L218.662 151.416C218.69 151.778 219.078 151.935 219.299 151.673L227.207 142.313C227.349 142.145 227.584 142.139 227.732 142.302C227.88 142.464 227.884 142.732 227.742 142.9L215.958 156.85C215.705 157.149 215.942 157.64 216.299 157.558L223.594 155.87C223.795 155.823 223.991 155.971 224.032 156.2V156.201C224.073 156.43 223.943 156.654 223.742 156.7L214.238 158.899L214.236 158.887L209.634 164.335C209.412 164.598 209.567 165.037 209.887 165.051L216.99 165.361C217.195 165.37 217.355 165.567 217.347 165.8V165.802C217.339 166.035 217.167 166.217 216.962 166.208L208.535 165.84C208.429 165.836 208.326 165.883 208.253 165.97L202.097 173.256C201.955 173.425 201.72 173.43 201.572 173.267C201.424 173.105 201.42 172.837 201.562 172.669L204.887 168.734C204.965 168.641 205.002 168.512 204.987 168.383L204.192 161.711C204.165 161.48 204.308 161.267 204.511 161.235Z" fill="white"/>
<path d="M131.868 75.4709H115.708V79.6358H131.868V75.4709Z" fill="white" stroke="#263238" stroke-miterlimit="10" stroke-linecap="round" stroke-linejoin="round"/>
<path d="M121.436 75.4709H118.876V79.6358H121.436V75.4709Z" fill="#263238" stroke="#263238" stroke-miterlimit="10" stroke-linecap="round" stroke-linejoin="round"/>
<path d="M134.062 79.4438H113.515V83.6088H134.062V79.4438Z" fill="white" stroke="#263238" stroke-miterlimit="10" stroke-linecap="round" stroke-linejoin="round"/>
<path d="M120.156 79.4438H117.276V83.6088H120.156V79.4438Z" fill="#263238" stroke="#263238" stroke-miterlimit="10" stroke-linecap="round" stroke-linejoin="round"/>
<path d="M123.788 63.5524C119.326 63.5524 115.708 67.1697 115.708 71.6323V75.6633H131.867V71.6323C131.868 67.1697 128.25 63.5524 123.788 63.5524Z" fill="#B14CC2" stroke="#263238" stroke-miterlimit="10" stroke-linecap="round" stroke-linejoin="round"/>
<path d="M128.137 67.5801C128.137 66.6739 127.403 65.9395 126.497 65.9395C125.591 65.9395 124.857 66.6739 124.857 67.5801C124.857 67.5921 124.86 67.6032 124.86 67.6152C124.541 67.5115 124.201 67.4539 123.847 67.4539C122.035 67.4539 120.566 68.9227 120.566 70.7347C120.566 72.5467 122.035 74.0155 123.847 74.0155C125.659 74.0155 127.128 72.5467 127.128 70.7347C127.128 70.1784 126.988 69.6547 126.744 69.1953C127.532 69.0758 128.137 68.4014 128.137 67.5801Z" fill="white"/>
<path d="M118.998 67.0353C118.909 67.1318 118.823 67.2316 118.739 67.3348C117.562 68.7888 117.285 70.1736 117.216 70.5892C117.147 71.0044 117.216 73.6358 117.216 73.6358" stroke="#263238" stroke-miterlimit="10" stroke-linecap="round" stroke-linejoin="round"/>
<path d="M121.717 65.05C121.717 65.05 121.121 65.3251 120.391 65.8358" stroke="#263238" stroke-miterlimit="10" stroke-linecap="round" stroke-linejoin="round"/>
<path d="M123.622 56.0174V60.538" stroke="#263238" stroke-miterlimit="10" stroke-linecap="round" stroke-linejoin="round"/>
<path d="M130.087 63.4301L132.689 61.1237" stroke="#263238" stroke-miterlimit="10" stroke-linecap="round" stroke-linejoin="round"/>
<path d="M133.012 70.9709H137.069" stroke="#263238" stroke-miterlimit="10" stroke-linecap="round" stroke-linejoin="round"/>
<path d="M117.396 63.4301L114.793 61.1237" stroke="#263238" stroke-miterlimit="10" stroke-linecap="round" stroke-linejoin="round"/>
<path d="M114.471 70.9709H110.414" stroke="#263238" stroke-miterlimit="10" stroke-linecap="round" stroke-linejoin="round"/>
<path d="M180.043 160.565H67.373V87.191C67.373 85.078 69.0862 83.3649 71.1991 83.3649H176.217C178.33 83.3649 180.043 85.078 180.043 87.191L180.043 160.565Z" fill="#263238" stroke="#263238" stroke-miterlimit="10" stroke-linecap="round" stroke-linejoin="round"/>
<path d="M196.943 194.692H50.4727L67.373 160.565H180.043L196.943 194.692Z" fill="white" stroke="#263238" stroke-miterlimit="10" stroke-linecap="round" stroke-linejoin="round"/>
<path d="M173.218 89.4777H74.1973V154.452H173.218V89.4777Z" fill="#B14CC2" stroke="#263238" stroke-miterlimit="10" stroke-linecap="round" stroke-linejoin="round"/>
<path d="M171.153 91.0972H76.3916V94.475H171.153V91.0972Z" fill="white" stroke="#263238" stroke-miterlimit="10" stroke-linecap="round" stroke-linejoin="round"/>
<path d="M171.153 91.0972H163.178V94.475H171.153V91.0972Z" fill="#263238" stroke="#263238" stroke-miterlimit="10" stroke-linecap="round" stroke-linejoin="round"/>
<path d="M119.009 171.368L119.204 167.209H113.251L112.856 171.368H119.009Z" fill="#263238" stroke="white" stroke-miterlimit="10" stroke-linecap="round" stroke-linejoin="round"/>
<path d="M131.313 171.368L131.11 167.209H125.156L125.16 171.368H131.313Z" fill="#263238" stroke="white" stroke-miterlimit="10" stroke-linecap="round" stroke-linejoin="round"/>
<path d="M163.356 175.814H169.722L168.227 171.368H162.075L163.356 175.814Z" fill="#263238" stroke="white" stroke-miterlimit="10" stroke-linecap="round" stroke-linejoin="round"/>
<path d="M112.856 171.368L113.25 167.209H107.297L106.703 171.368H112.856Z" fill="#263238" stroke="white" stroke-miterlimit="10" stroke-linecap="round" stroke-linejoin="round"/>
<path d="M100.551 171.368L101.344 167.209H95.3901L94.3984 171.368H100.551Z" fill="#263238" stroke="white" stroke-miterlimit="10" stroke-linecap="round" stroke-linejoin="round"/>
<path d="M155.922 171.368L154.923 167.209H148.97L149.77 171.368H155.922Z" fill="#263238" stroke="white" stroke-miterlimit="10" stroke-linecap="round" stroke-linejoin="round"/>
<path d="M162.075 171.368L160.876 167.209H154.923L155.922 171.368H162.075Z" fill="#263238" stroke="white" stroke-miterlimit="10" stroke-linecap="round" stroke-linejoin="round"/>
<path d="M94.3983 171.368L95.3899 167.209H89.437L88.2461 171.368H94.3983Z" fill="#263238" stroke="white" stroke-miterlimit="10" stroke-linecap="round" stroke-linejoin="round"/>
<path d="M137.466 171.368L137.064 167.209H131.11L131.313 171.368H137.466Z" fill="#263238" stroke="white" stroke-miterlimit="10" stroke-linecap="round" stroke-linejoin="round"/>
<path d="M168.227 171.368L166.829 167.209H160.876L162.075 171.368H168.227Z" fill="#263238" stroke="white" stroke-miterlimit="10" stroke-linecap="round" stroke-linejoin="round"/>
<path d="M149.77 171.368L148.97 167.209H143.017L143.618 171.368H149.77Z" fill="#263238" stroke="white" stroke-miterlimit="10" stroke-linecap="round" stroke-linejoin="round"/>
<path d="M143.618 171.368L143.016 167.209H137.063L137.465 171.368H143.618Z" fill="#263238" stroke="white" stroke-miterlimit="10" stroke-linecap="round" stroke-linejoin="round"/>
<path d="M125.16 171.368L125.156 167.209H119.203L119.008 171.368H125.16Z" fill="#263238" stroke="white" stroke-miterlimit="10" stroke-linecap="round" stroke-linejoin="round"/>
<path d="M82.094 171.368H75.9419L74.2432 175.814H80.608L82.094 171.368Z" fill="#263238" stroke="white" stroke-miterlimit="10" stroke-linecap="round" stroke-linejoin="round"/>
<path d="M83.4841 167.209H77.5312L75.9424 171.368H82.0945L83.4841 167.209Z" fill="#263238" stroke="white" stroke-miterlimit="10" stroke-linecap="round" stroke-linejoin="round"/>
<path d="M88.2469 171.368L89.4378 167.209H83.4843L82.0947 171.368H88.2469Z" fill="#263238" stroke="white" stroke-miterlimit="10" stroke-linecap="round" stroke-linejoin="round"/>
<path d="M72.4228 180.579L70.4668 185.698H77.3054L79.0161 180.579H72.4228Z" fill="#263238" stroke="white" stroke-miterlimit="10" stroke-linecap="round" stroke-linejoin="round"/>
<path d="M80.6083 175.814H74.2435L72.4229 180.579H79.0161L80.6083 175.814Z" fill="#263238" stroke="white" stroke-miterlimit="10" stroke-linecap="round" stroke-linejoin="round"/>
<path d="M79.0164 180.579L77.3057 185.698H84.1437L85.6097 180.579H79.0164Z" fill="#263238" stroke="white" stroke-miterlimit="10" stroke-linecap="round" stroke-linejoin="round"/>
<path d="M106.703 171.368L107.297 167.209H101.343L100.551 171.368H106.703Z" fill="#263238" stroke="white" stroke-miterlimit="10" stroke-linecap="round" stroke-linejoin="round"/>
<path d="M106.069 175.814L106.703 171.368H100.551L99.7041 175.814H106.069Z" fill="#263238" stroke="white" stroke-miterlimit="10" stroke-linecap="round" stroke-linejoin="round"/>
<path d="M99.7041 175.814L100.551 171.368H94.3987L93.3389 175.814H99.7041Z" fill="#263238" stroke="white" stroke-miterlimit="10" stroke-linecap="round" stroke-linejoin="round"/>
<path d="M112.435 175.814L112.857 171.368H106.704L106.069 175.814H112.435Z" fill="#263238" stroke="white" stroke-miterlimit="10" stroke-linecap="round" stroke-linejoin="round"/>
<path d="M88.2466 171.368H82.0945L80.6084 175.814H86.9737L88.2466 171.368Z" fill="#263238" stroke="white" stroke-miterlimit="10" stroke-linecap="round" stroke-linejoin="round"/>
<path d="M164.729 180.579H171.322L169.721 175.814H163.355L164.729 180.579Z" fill="#263238" stroke="white" stroke-miterlimit="10" stroke-linecap="round" stroke-linejoin="round"/>
<path d="M93.3389 175.814L94.3987 171.368H88.2466L86.9736 175.814H93.3389Z" fill="#263238" stroke="white" stroke-miterlimit="10" stroke-linecap="round" stroke-linejoin="round"/>
<path d="M80.6078 175.814L79.0156 180.579H85.6089L86.9731 175.814H80.6078Z" fill="#263238" stroke="white" stroke-miterlimit="10" stroke-linecap="round" stroke-linejoin="round"/>
<path d="M150.626 175.814L149.77 171.368H143.618L144.26 175.814H150.626Z" fill="#263238" stroke="white" stroke-miterlimit="10" stroke-linecap="round" stroke-linejoin="round"/>
<path d="M144.26 175.814L143.617 171.368H137.465L137.895 175.814H144.26Z" fill="#263238" stroke="white" stroke-miterlimit="10" stroke-linecap="round" stroke-linejoin="round"/>
<path d="M163.356 175.814L162.075 171.368H155.922L156.99 175.814H163.356Z" fill="#263238" stroke="white" stroke-miterlimit="10" stroke-linecap="round" stroke-linejoin="round"/>
<path d="M125.165 175.814L125.161 171.368H119.009L118.8 175.814H125.165Z" fill="#263238" stroke="white" stroke-miterlimit="10" stroke-linecap="round" stroke-linejoin="round"/>
<path d="M137.896 175.814L137.466 171.368H131.313L131.53 175.814H137.896Z" fill="#263238" stroke="white" stroke-miterlimit="10" stroke-linecap="round" stroke-linejoin="round"/>
<path d="M131.53 175.814L131.313 171.368H125.16L125.164 175.814H131.53Z" fill="#263238" stroke="white" stroke-miterlimit="10" stroke-linecap="round" stroke-linejoin="round"/>
<path d="M118.8 175.814L119.009 171.368H112.856L112.435 175.814H118.8Z" fill="#263238" stroke="white" stroke-miterlimit="10" stroke-linecap="round" stroke-linejoin="round"/>
<path d="M137.896 175.814L138.356 180.579H144.949L144.26 175.814H137.896Z" fill="#263238" stroke="white" stroke-miterlimit="10" stroke-linecap="round" stroke-linejoin="round"/>
<path d="M144.26 175.814L144.949 180.579H151.542L150.625 175.814H144.26Z" fill="#263238" stroke="white" stroke-miterlimit="10" stroke-linecap="round" stroke-linejoin="round"/>
<path d="M86.9735 175.814L85.6094 180.579H92.2027L93.3388 175.814H86.9735Z" fill="#263238" stroke="white" stroke-miterlimit="10" stroke-linecap="round" stroke-linejoin="round"/>
<path d="M150.625 175.814L151.542 180.579H158.135L156.99 175.814H150.625Z" fill="#263238" stroke="white" stroke-miterlimit="10" stroke-linecap="round" stroke-linejoin="round"/>
<path d="M125.165 175.814L125.169 180.579H131.763L131.53 175.814H125.165Z" fill="#263238" stroke="white" stroke-miterlimit="10" stroke-linecap="round" stroke-linejoin="round"/>
<path d="M156.99 175.814L158.135 180.579H164.729L163.356 175.814H156.99Z" fill="#263238" stroke="white" stroke-miterlimit="10" stroke-linecap="round" stroke-linejoin="round"/>
<path d="M131.53 175.814L131.763 180.579H138.356L137.896 175.814H131.53Z" fill="#263238" stroke="white" stroke-miterlimit="10" stroke-linecap="round" stroke-linejoin="round"/>
<path d="M99.7041 175.814L98.7959 180.579H105.389L106.069 175.814H99.7041Z" fill="#263238" stroke="white" stroke-miterlimit="10" stroke-linecap="round" stroke-linejoin="round"/>
<path d="M93.3383 175.814L92.2021 180.579H98.7954L99.7036 175.814H93.3383Z" fill="#263238" stroke="white" stroke-miterlimit="10" stroke-linecap="round" stroke-linejoin="round"/>
<path d="M118.8 175.814L118.576 180.579H125.169L125.165 175.814H118.8Z" fill="#263238" stroke="white" stroke-miterlimit="10" stroke-linecap="round" stroke-linejoin="round"/>
<path d="M112.434 175.814L111.982 180.579H118.576L118.799 175.814H112.434Z" fill="#263238" stroke="white" stroke-miterlimit="10" stroke-linecap="round" stroke-linejoin="round"/>
<path d="M106.069 175.814L105.39 180.579H111.983L112.435 175.814H106.069Z" fill="#263238" stroke="white" stroke-miterlimit="10" stroke-linecap="round" stroke-linejoin="round"/>
<path d="M156.99 175.814L155.922 171.368H149.77L150.625 175.814H156.99Z" fill="#263238" stroke="white" stroke-miterlimit="10" stroke-linecap="round" stroke-linejoin="round"/>
<path d="M83.4842 167.209L84.9069 162.953H79.1575L77.5312 167.209H83.4842Z" fill="#263238" stroke="white" stroke-miterlimit="10" stroke-linecap="round" stroke-linejoin="round"/>
<path d="M77.5309 167.209H72.0353L70.2627 171.368H75.9421L77.5309 167.209Z" fill="#263238" stroke="white" stroke-miterlimit="10" stroke-linecap="round" stroke-linejoin="round"/>
<path d="M79.1569 162.953H73.8496L72.0352 167.209H77.5307L79.1569 162.953Z" fill="#263238" stroke="white" stroke-miterlimit="10" stroke-linecap="round" stroke-linejoin="round"/>
<path d="M75.9426 171.368H70.2632L68.3682 175.814H74.2438L75.9426 171.368Z" fill="#263238" stroke="white" stroke-miterlimit="10" stroke-linecap="round" stroke-linejoin="round"/>
<path d="M74.243 175.814H68.3673L66.3359 180.579H72.4223L74.243 175.814Z" fill="#263238" stroke="white" stroke-miterlimit="10" stroke-linecap="round" stroke-linejoin="round"/>
<path d="M72.4228 180.579H66.3364L64.1543 185.698H70.4668L72.4228 180.579Z" fill="#263238" stroke="white" stroke-miterlimit="10" stroke-linecap="round" stroke-linejoin="round"/>
<path d="M174.379 171.368L176.086 175.814H181.717L179.822 171.368H174.379Z" fill="#263238" stroke="white" stroke-miterlimit="10" stroke-linecap="round" stroke-linejoin="round"/>
<path d="M177.915 180.579H183.748L181.717 175.814H176.086L177.915 180.579Z" fill="#263238" stroke="white" stroke-miterlimit="10" stroke-linecap="round" stroke-linejoin="round"/>
<path d="M179.881 185.698H185.93L183.748 180.579H177.915L179.881 185.698Z" fill="#263238" stroke="white" stroke-miterlimit="10" stroke-linecap="round" stroke-linejoin="round"/>
<path d="M131.11 167.209L130.902 162.953H125.152L125.156 167.209H131.11Z" fill="#263238" stroke="white" stroke-miterlimit="10" stroke-linecap="round" stroke-linejoin="round"/>
<path d="M174.379 171.368H179.821L178.049 167.209H172.782L174.379 171.368Z" fill="#263238" stroke="white" stroke-miterlimit="10" stroke-linecap="round" stroke-linejoin="round"/>
<path d="M171.322 180.579H177.915L176.085 175.814H169.721L171.322 180.579Z" fill="#263238" stroke="white" stroke-miterlimit="10" stroke-linecap="round" stroke-linejoin="round"/>
<path d="M89.4378 167.209L90.6565 162.953H84.9071L83.4844 167.209H89.4378Z" fill="#263238" stroke="white" stroke-miterlimit="10" stroke-linecap="round" stroke-linejoin="round"/>
<path d="M166.83 167.209L168.227 171.368H174.38L172.783 167.209H166.83Z" fill="#263238" stroke="white" stroke-miterlimit="10" stroke-linecap="round" stroke-linejoin="round"/>
<path d="M178.049 167.209L176.235 162.953H171.148L172.782 167.209H178.049Z" fill="#263238" stroke="white" stroke-miterlimit="10" stroke-linecap="round" stroke-linejoin="round"/>
<path d="M172.783 167.209L171.149 162.953H165.399L166.83 167.209H172.783Z" fill="#263238" stroke="white" stroke-miterlimit="10" stroke-linecap="round" stroke-linejoin="round"/>
<path d="M151.542 180.579L152.527 185.698H159.366L158.135 180.579H151.542Z" fill="#263238" stroke="white" stroke-miterlimit="10" stroke-linecap="round" stroke-linejoin="round"/>
<path d="M173.042 185.698H179.881L177.915 180.579H171.322L173.042 185.698Z" fill="#263238" stroke="white" stroke-miterlimit="10" stroke-linecap="round" stroke-linejoin="round"/>
<path d="M166.829 167.209L165.399 162.953H159.649L160.876 167.209H166.829Z" fill="#263238" stroke="white" stroke-miterlimit="10" stroke-linecap="round" stroke-linejoin="round"/>
<path d="M164.729 180.579L166.205 185.698H173.043L171.323 180.579H164.729Z" fill="#263238" stroke="white" stroke-miterlimit="10" stroke-linecap="round" stroke-linejoin="round"/>
<path d="M158.136 180.579L159.366 185.698H166.205L164.73 180.579H158.136Z" fill="#263238" stroke="white" stroke-miterlimit="10" stroke-linecap="round" stroke-linejoin="round"/>
<path d="M169.721 175.814H176.086L174.379 171.368H168.227L169.721 175.814Z" fill="#263238" stroke="white" stroke-miterlimit="10" stroke-linecap="round" stroke-linejoin="round"/>
<path d="M113.25 167.209L113.654 162.953H107.904L107.297 167.209H113.25Z" fill="#263238" stroke="white" stroke-miterlimit="10" stroke-linecap="round" stroke-linejoin="round"/>
<path d="M160.876 167.209L159.65 162.953H153.9L154.923 167.209H160.876Z" fill="#263238" stroke="white" stroke-miterlimit="10" stroke-linecap="round" stroke-linejoin="round"/>
<path d="M107.297 167.209L107.904 162.953H102.155L101.344 167.209H107.297Z" fill="#263238" stroke="white" stroke-miterlimit="10" stroke-linecap="round" stroke-linejoin="round"/>
<path d="M125.156 167.209L125.152 162.953H119.403L119.203 167.209H125.156Z" fill="#263238" stroke="white" stroke-miterlimit="10" stroke-linecap="round" stroke-linejoin="round"/>
<path d="M101.344 167.209L102.155 162.953H96.4058L95.3906 167.209H101.344Z" fill="#263238" stroke="white" stroke-miterlimit="10" stroke-linecap="round" stroke-linejoin="round"/>
<path d="M95.3905 167.209L96.4057 162.953H90.6562L89.4375 167.209H95.3905Z" fill="#263238" stroke="white" stroke-miterlimit="10" stroke-linecap="round" stroke-linejoin="round"/>
<path d="M119.203 167.209L119.403 162.953H113.654L113.25 167.209H119.203Z" fill="#263238" stroke="white" stroke-miterlimit="10" stroke-linecap="round" stroke-linejoin="round"/>
<path d="M154.923 167.209L153.901 162.953H148.151L148.97 167.209H154.923Z" fill="#263238" stroke="white" stroke-miterlimit="10" stroke-linecap="round" stroke-linejoin="round"/>
<path d="M148.97 167.209L148.151 162.953H142.401L143.017 167.209H148.97Z" fill="#263238" stroke="white" stroke-miterlimit="10" stroke-linecap="round" stroke-linejoin="round"/>
<path d="M137.063 167.209L136.651 162.953H130.902L131.11 167.209H137.063Z" fill="#263238" stroke="white" stroke-miterlimit="10" stroke-linecap="round" stroke-linejoin="round"/>
<path d="M151.542 180.579H144.949H138.356H131.762H125.169H118.576H111.983H105.389H98.796H92.2028H85.6095L84.1436 185.699H90.9821H97.8202H104.659H111.497H118.335H125.174H132.013H138.851H145.689H152.527L151.542 180.579Z" fill="#263238" stroke="white" stroke-miterlimit="10" stroke-linecap="round" stroke-linejoin="round"/>
<path d="M143.016 167.209L142.401 162.953H136.651L137.063 167.209H143.016Z" fill="#263238" stroke="white" stroke-miterlimit="10" stroke-linecap="round" stroke-linejoin="round"/>
<path d="M197.01 194.692H50.4727V196.772H197.01V194.692Z" fill="#263238" stroke="#263238" stroke-miterlimit="10" stroke-linecap="round" stroke-linejoin="round"/>
<path d="M126.044 101.051L148.652 140.208C149.675 141.981 148.396 144.197 146.349 144.197H101.134C99.0877 144.197 97.8085 141.981 98.8319 140.208L121.439 101.051C122.462 99.2789 125.021 99.2789 126.044 101.051Z" fill="#263238" stroke="#263238" stroke-miterlimit="10" stroke-linecap="round" stroke-linejoin="round"/>
<path d="M125.668 104.489L144.589 138.113C145.446 139.635 144.375 141.538 142.662 141.538H104.819C103.106 141.538 102.036 139.635 102.892 138.113L121.814 104.489C122.67 102.967 124.811 102.967 125.668 104.489Z" stroke="white" stroke-miterlimit="10" stroke-linecap="round" stroke-linejoin="round"/>
<path d="M120.186 114.331C120.011 112.896 120.56 111.877 121.833 111.272C123.106 110.666 124.378 110.666 125.651 111.272C126.924 111.877 127.473 112.896 127.298 114.331L125.558 128.2C125.495 128.774 125.283 129.223 124.921 129.548C124.559 129.873 124.169 130.034 123.751 130.034C123.333 130.034 122.944 129.873 122.582 129.548C122.22 129.223 122.008 128.774 121.945 128.2L120.186 114.331ZM121.561 138.503C120.944 137.886 120.635 137.127 120.635 136.229C120.635 135.356 120.934 134.603 121.533 133.974C122.132 133.344 122.887 133.029 123.798 133.029C124.646 133.029 125.383 133.328 126.007 133.927C126.631 134.526 126.943 135.293 126.943 136.229C126.943 137.102 126.64 137.854 126.035 138.484C125.43 139.115 124.684 139.43 123.798 139.43C122.924 139.43 122.179 139.121 121.561 138.503Z" fill="white"/>
<path d="M51.908 146.897L52.2301 149.476C52.2301 149.476 57.238 166.495 57.3128 168.164C57.3877 169.834 39.5807 191.734 39.5807 191.734L36.1669 190.213L48.488 166.5C48.488 166.5 35.6221 154.581 35.0586 150.617C34.4951 146.653 36.6829 141.158 36.6829 141.158C36.6829 141.158 51.9061 145.718 51.908 146.897Z" fill="#263238" stroke="#263238" stroke-miterlimit="10" stroke-linecap="round" stroke-linejoin="round"/>
<path d="M62.3926 122.483L60.2926 142.49L75.6075 149.143L74.6844 151.403L58.1369 147.122C56.2568 146.636 54.8854 145.02 54.7107 143.086L53.9883 135.093L62.3926 122.483Z" fill="white"/>
<mask id="mask0_434_12502" style="mask-type:luminance" maskUnits="userSpaceOnUse" x="53" y="122" width="23" height="30">
<path d="M62.3926 122.483L60.2926 142.49L75.6075 149.143L74.6844 151.403L58.1369 147.122C56.2568 146.636 54.8854 145.02 54.7107 143.086L53.9883 135.093L62.3926 122.483Z" fill="white"/>
</mask>
<g mask="url(#mask0_434_12502)">
<path d="M55.8079 132.364L56.5783 131.208L58.0452 133.499L56.2231 141.497L58.349 142.104C58.349 142.104 56.3244 143.218 56.7295 143.623C57.1342 144.028 58.6529 143.724 58.6529 143.724L75.2004 150.143L74.6858 151.403L58.1383 147.122C56.2582 146.636 54.8868 145.02 54.7121 143.086L54.0986 136.301C54.5681 135.062 55.289 133.494 55.8079 132.364Z" fill="#B14CC2"/>
<path opacity="0.3" d="M55.8079 132.364L56.5783 131.208L58.0452 133.499L56.2231 141.497L58.349 142.104C58.349 142.104 56.3244 143.218 56.7295 143.623C57.1342 144.028 58.6529 143.724 58.6529 143.724L75.2004 150.143L74.6858 151.403L58.1383 147.122C56.2582 146.636 54.8868 145.02 54.7121 143.086L54.0986 136.301C54.5681 135.062 55.289 133.494 55.8079 132.364Z" fill="black"/>
</g>
<path d="M62.3926 122.483L60.2926 142.49L75.6075 149.143L74.6844 151.403L58.1369 147.122C56.2568 146.636 54.8854 145.02 54.7107 143.086L53.9883 135.093L62.3926 122.483Z" stroke="#263238" stroke-miterlimit="10" stroke-linecap="round" stroke-linejoin="round"/>
<path d="M57.805 143.387C59.0083 142.527 60.2928 142.49 60.2928 142.49C60.2928 142.49 58.4928 141.753 56.8594 142.44" stroke="#263238" stroke-miterlimit="10" stroke-linecap="round" stroke-linejoin="round"/>
<path d="M53.8335 117.07L62.3924 122.483L52.1334 148.078C52.1334 148.078 50.6636 149.026 44.5374 147.284C38.4111 145.542 36.3447 141.602 36.3447 141.602L40.911 115.505L49.0796 115.014L53.8335 117.07Z" fill="white"/>
<mask id="mask1_434_12502" style="mask-type:luminance" maskUnits="userSpaceOnUse" x="36" y="115" width="27" height="34">
<path d="M53.8335 117.07L62.3924 122.483L52.1334 148.078C52.1334 148.078 50.6636 149.026 44.5374 147.284C38.4111 145.542 36.3447 141.602 36.3447 141.602L40.911 115.505L49.0796 115.014L53.8335 117.07Z" fill="white"/>
</mask>
<g mask="url(#mask1_434_12502)">
<path d="M36.3447 141.602L40.911 115.506L49.0796 115.014L53.7764 117.045L51.6678 122.668L48.9956 121.571L42.5569 125.705L46.9095 126.92L43.3666 128.641L40.2284 138.562C40.2284 138.562 50.3516 137.245 49.0354 137.549C47.7193 137.853 38.7102 141.295 38.7102 141.902C38.7102 142.51 43.1641 145.749 45.4926 146.863C47.821 147.976 50.3516 148.179 50.3516 148.179C50.3516 148.179 49.0388 148.093 47.3401 147.97C46.5361 147.811 45.6097 147.589 44.5378 147.285C38.4111 145.542 36.3447 141.602 36.3447 141.602Z" fill="#B14CC2"/>
<path opacity="0.3" d="M36.3447 141.602L40.911 115.506L49.0796 115.014L53.7764 117.045L51.6678 122.668L48.9956 121.571L42.5569 125.705L46.9095 126.92L43.3666 128.641L40.2284 138.562C40.2284 138.562 50.3516 137.245 49.0354 137.549C47.7193 137.853 38.7102 141.295 38.7102 141.902C38.7102 142.51 43.1641 145.749 45.4926 146.863C47.821 147.976 50.3516 148.179 50.3516 148.179C50.3516 148.179 49.0388 148.093 47.3401 147.97C46.5361 147.811 45.6097 147.589 44.5378 147.285C38.4111 145.542 36.3447 141.602 36.3447 141.602Z" fill="black"/>
</g>
<path d="M53.8335 117.07L62.3924 122.483L52.1334 148.078C52.1334 148.078 50.6636 149.026 44.5374 147.284C38.4111 145.542 36.3447 141.602 36.3447 141.602L40.911 115.505L49.0796 115.014L53.8335 117.07Z" stroke="#263238" stroke-miterlimit="10" stroke-linecap="round" stroke-linejoin="round"/>
<path d="M47.3249 145.108L46.9678 146.77" stroke="#263238" stroke-miterlimit="10" stroke-linecap="round" stroke-linejoin="round"/>
<path d="M51.9024 123.794L47.6895 143.411" stroke="#263238" stroke-miterlimit="10" stroke-linecap="round" stroke-linejoin="round"/>
<path d="M47.4022 125.762L42.0723 124.559" stroke="#263238" stroke-miterlimit="10" stroke-linecap="round" stroke-linejoin="round"/>
<path d="M54.9431 116.516L56.2358 122.885L53.3174 119.613L54.9431 116.516Z" fill="white" stroke="#263238" stroke-miterlimit="10" stroke-linecap="round" stroke-linejoin="round"/>
<path d="M56.161 115.34L51.8372 123.216L51.7297 118.322L49.8174 115.401L49.8956 112.169C49.8956 112.169 48.2554 110.349 48.0846 109.021C47.9137 107.692 48.2089 104.339 50.3967 103.462C52.5846 102.584 55.5898 102.561 55.5898 102.561C55.5898 102.561 53.9746 101.297 55.4242 101.344C56.8738 101.39 57.625 103.249 57.625 103.249C57.625 103.249 58.106 101.558 58.6153 102.983C59.1246 104.407 58.275 105.336 57.5074 105.593C56.7394 105.85 56.3084 108.653 56.1654 110.441C56.0218 112.229 56.161 115.34 56.161 115.34Z" fill="white"/>
<mask id="mask2_434_12502" style="mask-type:luminance" maskUnits="userSpaceOnUse" x="48" y="101" width="11" height="23">
<path d="M56.161 115.34L51.8372 123.216L51.7297 118.322L49.8174 115.401L49.8956 112.169C49.8956 112.169 48.2554 110.349 48.0846 109.021C47.9137 107.692 48.2089 104.339 50.3967 103.462C52.5846 102.584 55.5898 102.561 55.5898 102.561C55.5898 102.561 53.9746 101.297 55.4242 101.344C56.8738 101.39 57.625 103.249 57.625 103.249C57.625 103.249 58.106 101.558 58.6153 102.983C59.1246 104.407 58.275 105.336 57.5074 105.593C56.7394 105.85 56.3084 108.653 56.1654 110.441C56.0218 112.229 56.161 115.34 56.161 115.34Z" fill="white"/>
</mask>
<g mask="url(#mask2_434_12502)">
<path d="M49.8956 112.169C49.8956 112.169 48.2554 110.349 48.0846 109.021C47.9137 107.692 48.2089 104.339 50.3967 103.462C52.5846 102.584 55.5898 102.561 55.5898 102.561C55.5898 102.561 53.9746 101.297 55.4242 101.344C56.8738 101.39 57.625 103.249 57.625 103.249C57.625 103.249 58.106 101.558 58.6153 102.983C59.1246 104.407 58.2754 105.336 57.5074 105.593C56.7394 105.851 56.3084 108.653 56.1654 110.441C56.0228 112.229 56.162 115.341 56.162 115.341L55.6921 116.197L53.3895 116.797L51.8046 121.69L51.7306 118.322L49.8183 115.401L49.8956 112.169Z" fill="#B14CC2"/>
<path opacity="0.3" d="M49.8956 112.169C49.8956 112.169 48.2554 110.349 48.0846 109.021C47.9137 107.692 48.2089 104.339 50.3967 103.462C52.5846 102.584 55.5898 102.561 55.5898 102.561C55.5898 102.561 53.9746 101.297 55.4242 101.344C56.8738 101.39 57.625 103.249 57.625 103.249C57.625 103.249 58.106 101.558 58.6153 102.983C59.1246 104.407 58.2754 105.336 57.5074 105.593C56.7394 105.851 56.3084 108.653 56.1654 110.441C56.0228 112.229 56.162 115.341 56.162 115.341L55.6921 116.197L53.3895 116.797L51.8046 121.69L51.7306 118.322L49.8183 115.401L49.8956 112.169Z" fill="black"/>
</g>
<path d="M56.161 115.34L51.8372 123.216L51.7297 118.322L49.8174 115.401L49.8956 112.169C49.8956 112.169 48.2554 110.349 48.0846 109.021C47.9137 107.692 48.2089 104.339 50.3967 103.462C52.5846 102.584 55.5898 102.561 55.5898 102.561C55.5898 102.561 53.9746 101.297 55.4242 101.344C56.8738 101.39 57.625 103.249 57.625 103.249C57.625 103.249 58.106 101.558 58.6153 102.983C59.1246 104.407 58.275 105.336 57.5074 105.593C56.7394 105.85 56.3084 108.653 56.1654 110.441C56.0218 112.229 56.161 115.34 56.161 115.34Z" stroke="#263238" stroke-miterlimit="10" stroke-linecap="round" stroke-linejoin="round"/>
<path d="M50.3963 103.461C52.5841 102.584 55.5894 102.561 55.5894 102.561C55.5894 102.561 53.9742 101.297 55.4238 101.343C56.8734 101.39 57.6246 103.249 57.6246 103.249C57.6246 103.249 58.1055 101.557 58.6148 102.982C59.1241 104.407 58.2745 105.335 57.507 105.593C56.785 105.834 56.3607 108.326 56.1937 110.11L51.8094 112.64L49.8884 112.462L49.8956 112.169C49.8956 112.169 48.2554 110.35 48.0846 109.021C47.9137 107.692 48.2089 104.339 50.3963 103.461Z" fill="#263238" stroke="#263238" stroke-miterlimit="10" stroke-linecap="round" stroke-linejoin="round"/>
<path d="M55.4833 105.387C55.4833 105.387 54.7095 105.645 52.1305 105.301C49.5514 104.958 48.1758 106.935 48.0898 108.311" stroke="white" stroke-width="0.5" stroke-miterlimit="10" stroke-linecap="round" stroke-linejoin="round"/>
<path d="M55.054 108.139C55.054 108.139 51.7871 108.311 50.5837 108.139C49.3804 107.967 48.2624 108.912 48.8644 110.116" stroke="white" stroke-width="0.5" stroke-miterlimit="10" stroke-linecap="round" stroke-linejoin="round"/>
<path d="M57.3556 104.709C57.3556 104.709 58.5412 106.326 58.5811 107.215C58.6209 108.104 58.2062 108.791 58.2062 108.791L59.8761 111.277L58.6684 111.665L58.4376 116.463L57.9979 116.594L52.8067 115.044L51.8083 112.64C51.8083 112.64 50.6572 111.8 50.4052 111.143C50.2833 110.825 50.2051 110.323 50.1571 109.889C50.0961 109.34 50.5301 108.866 51.0825 108.875C51.4358 108.881 51.7948 108.978 51.9926 109.291C52.4721 110.049 52.8451 110.923 52.8451 110.923L53.5118 110.893L53.7753 109.322C53.7753 109.322 55.5432 109.02 55.5235 108.576C55.5038 108.131 54.8486 105.934 54.8486 105.934L57.3556 104.709Z" fill="white"/>
<mask id="mask3_434_12502" style="mask-type:luminance" maskUnits="userSpaceOnUse" x="50" y="104" width="10" height="13">
<path d="M57.3556 104.709C57.3556 104.709 58.5412 106.326 58.5811 107.215C58.6209 108.104 58.2062 108.791 58.2062 108.791L59.8761 111.277L58.6684 111.665L58.4376 116.463L57.9979 116.594L52.8067 115.044L51.8083 112.64C51.8083 112.64 50.6572 111.8 50.4052 111.143C50.2833 110.825 50.2051 110.323 50.1571 109.889C50.0961 109.34 50.5301 108.866 51.0825 108.875C51.4358 108.881 51.7948 108.978 51.9926 109.291C52.4721 110.049 52.8451 110.923 52.8451 110.923L53.5118 110.893L53.7753 109.322C53.7753 109.322 55.5432 109.02 55.5235 108.576C55.5038 108.131 54.8486 105.934 54.8486 105.934L57.3556 104.709Z" fill="white"/>
</mask>
<g mask="url(#mask3_434_12502)">
<path d="M51.0835 108.875C51.4368 108.882 51.7958 108.979 51.9936 109.291C52.4731 110.049 52.8461 110.923 52.8461 110.923L53.5128 110.893L53.7763 109.323C53.7763 109.323 55.5441 109.021 55.5245 108.576C55.5048 108.132 54.8496 105.935 54.8496 105.935L55.7203 105.509C56.3808 106.408 57.0494 107.536 56.8305 108.193C56.4254 109.408 55.1097 111.23 55.5144 112.242C55.7875 112.925 56.1518 114.894 56.3606 116.106L52.8077 115.045L51.8093 112.641C51.8093 112.641 50.6582 111.801 50.4062 111.144C50.2843 110.826 50.2061 110.324 50.1581 109.89C50.0971 109.34 50.531 108.866 51.0835 108.875Z" fill="#B14CC2"/>
<path opacity="0.3" d="M51.0835 108.875C51.4368 108.882 51.7958 108.979 51.9936 109.291C52.4731 110.049 52.8461 110.923 52.8461 110.923L53.5128 110.893L53.7763 109.323C53.7763 109.323 55.5441 109.021 55.5245 108.576C55.5048 108.132 54.8496 105.935 54.8496 105.935L55.7203 105.509C56.3808 106.408 57.0494 107.536 56.8305 108.193C56.4254 109.408 55.1097 111.23 55.5144 112.242C55.7875 112.925 56.1518 114.894 56.3606 116.106L52.8077 115.045L51.8093 112.641C51.8093 112.641 50.6582 111.801 50.4062 111.144C50.2843 110.826 50.2061 110.324 50.1581 109.89C50.0971 109.34 50.531 108.866 51.0835 108.875Z" fill="black"/>
</g>
<path d="M57.3556 104.709C57.3556 104.709 58.5412 106.326 58.5811 107.215C58.6209 108.104 58.2062 108.791 58.2062 108.791L59.8761 111.277L58.6684 111.665L58.4376 116.463L57.9979 116.594L52.8067 115.044L51.8083 112.64C51.8083 112.64 50.6572 111.8 50.4052 111.143C50.2833 110.825 50.2051 110.323 50.1571 109.889C50.0961 109.34 50.5301 108.866 51.0825 108.875C51.4358 108.881 51.7948 108.978 51.9926 109.291C52.4721 110.049 52.8451 110.923 52.8451 110.923L53.5118 110.893L53.7753 109.322C53.7753 109.322 55.5432 109.02 55.5235 108.576C55.5038 108.131 54.8486 105.934 54.8486 105.934L57.3556 104.709Z" stroke="#263238" stroke-miterlimit="10" stroke-linecap="round" stroke-linejoin="round"/>
<path d="M56.9717 109.197C56.9717 109.585 57.0864 109.9 57.2275 109.9C57.3686 109.9 57.4834 109.585 57.4834 109.197C57.4834 108.808 57.3686 108.493 57.2275 108.493C57.0864 108.493 56.9717 108.808 56.9717 109.197Z" fill="#263238"/>
<path d="M57.7639 107.295C57.7639 107.295 57.3348 106.437 56.4766 107.867" stroke="#263238" stroke-miterlimit="10" stroke-linecap="round" stroke-linejoin="round"/>
<path d="M57.0488 113.196C57.0488 113.453 57.1928 113.661 57.3704 113.661C57.548 113.661 57.6925 113.452 57.6925 113.196C57.6925 112.939 57.5485 112.731 57.3704 112.731C57.1924 112.731 57.0488 112.939 57.0488 113.196Z" fill="#263238"/>
<path d="M52.1246 118.281L48.9955 121.571L48.3369 115.3L49.8067 114.352L52.1246 118.281Z" fill="#B14CC2"/>
<mask id="mask4_434_12502" style="mask-type:luminance" maskUnits="userSpaceOnUse" x="48" y="114" width="5" height="8">
<path d="M52.1246 118.281L48.9955 121.571L48.3369 115.3L49.8067 114.352L52.1246 118.281Z" fill="white"/>
</mask>
<g mask="url(#mask4_434_12502)">
<path opacity="0.3" d="M52.1246 118.281L48.9955 121.571L48.3369 115.3L49.8067 114.352L52.1246 118.281Z" fill="black"/>
</g>
<path d="M52.1246 118.281L48.9955 121.571L48.3369 115.3L49.8067 114.352L52.1246 118.281Z" stroke="#263238" stroke-miterlimit="10" stroke-linecap="round" stroke-linejoin="round"/>
<path d="M46.2533 149.092C46.2533 149.092 57.1709 162.123 60.1742 165.977C63.1776 169.832 63.9058 171.73 63.672 172.255C63.4382 172.78 58.8408 197.761 58.8408 197.761L55.0824 197.674C55.0824 197.674 55.5225 188.439 55.1237 183.337C54.72 178.177 56.3237 172.021 56.3237 172.021C56.3237 172.021 42.4574 163.426 37.1376 155.131C34.5686 151.126 34.3315 149.625 35.496 145.136" fill="#263238"/>
<path d="M46.2533 149.092C46.2533 149.092 57.1709 162.123 60.1742 165.977C63.1776 169.832 63.9058 171.73 63.672 172.255C63.4382 172.78 58.8408 197.761 58.8408 197.761L55.0824 197.674C55.0824 197.674 55.5225 188.439 55.1237 183.337C54.72 178.177 56.3237 172.021 56.3237 172.021C56.3237 172.021 42.4574 163.426 37.1376 155.131C34.5686 151.126 34.3315 149.625 35.496 145.136" stroke="#263238" stroke-miterlimit="10" stroke-linecap="round" stroke-linejoin="round"/>
<path d="M56.6813 192.61C56.5858 194.29 56.5205 195.377 56.5205 195.377" stroke="white" stroke-width="0.5" stroke-miterlimit="10" stroke-linecap="round" stroke-linejoin="round"/>
<path d="M41.4053 155.574C42.8083 157.382 44.4821 159.35 46.1827 160.914C50.4907 164.878 59.9678 172.631 58.9339 172.631C57.9 172.631 57.0384 173.493 57.383 174.355C57.6072 174.916 57.1742 183.657 56.845 189.69" stroke="white" stroke-width="0.5" stroke-miterlimit="10" stroke-linecap="round" stroke-linejoin="round"/>
<path d="M37.5666 145.234C37.5666 145.234 35.4987 147.301 36.705 147.646C37.9112 147.991 40.6683 148.68 39.6344 149.025C38.6005 149.369 37.7389 150.403 37.7389 150.403C37.7389 150.403 38.4622 151.548 39.619 153.171" stroke="white" stroke-width="0.5" stroke-miterlimit="10" stroke-linecap="round" stroke-linejoin="round"/>
<path d="M53.937 158.674C53.937 158.674 44.2876 148.508 40.3242 146.957" stroke="white" stroke-width="0.5" stroke-miterlimit="10" stroke-linecap="round" stroke-linejoin="round"/>
<path d="M58.8406 197.761L66.5359 201.939C66.5359 201.939 66.559 202.45 65.5371 202.496C64.5151 202.542 54.6372 202.983 54.1188 202.836C53.6004 202.689 55.0822 197.674 55.0822 197.674L58.8406 197.761Z" fill="white" stroke="#263238" stroke-miterlimit="10" stroke-linecap="round" stroke-linejoin="round"/>
<path d="M40.911 115.506L23.1827 129.13C22.1992 129.885 21.8286 131.196 22.2702 132.355L28.0154 147.429L31.0658 146.951L29.2149 134.03C29.0502 132.879 29.6118 131.746 30.6275 131.18L38.9315 126.552C38.9306 126.552 41.2259 116.821 40.911 115.506Z" fill="white"/>
<mask id="mask5_434_12502" style="mask-type:luminance" maskUnits="userSpaceOnUse" x="22" y="115" width="19" height="33">
<path d="M40.911 115.506L23.1827 129.13C22.1992 129.885 21.8286 131.196 22.2702 132.355L28.0154 147.429L31.0658 146.951L29.2149 134.03C29.0502 132.879 29.6118 131.746 30.6275 131.18L38.9315 126.552C38.9306 126.552 41.2259 116.821 40.911 115.506Z" fill="white"/>
</mask>
<g mask="url(#mask5_434_12502)">
<path d="M23.1831 129.13L40.9114 115.506C41.2263 116.821 38.9309 126.552 38.9309 126.552L34.622 128.953C33.4551 128.055 31.7074 126.808 30.409 126.313C28.2831 125.504 22.6143 129.856 22.7156 131.071C22.8025 132.113 28.0215 143.865 29.5085 147.195L28.0153 147.429L22.2701 132.355C21.8285 131.196 22.1996 129.885 23.1831 129.13Z" fill="#B14CC2"/>
<path opacity="0.3" d="M23.1831 129.13L40.9114 115.506C41.2263 116.821 38.9309 126.552 38.9309 126.552L34.622 128.953C33.4551 128.055 31.7074 126.808 30.409 126.313C28.2831 125.504 22.6143 129.856 22.7156 131.071C22.8025 132.113 28.0215 143.865 29.5085 147.195L28.0153 147.429L22.2701 132.355C21.8285 131.196 22.1996 129.885 23.1831 129.13Z" fill="black"/>
</g>
<path d="M40.911 115.506L23.1827 129.13C22.1992 129.885 21.8286 131.196 22.2702 132.355L28.0154 147.429L31.0658 146.951L29.2149 134.03C29.0502 132.879 29.6118 131.746 30.6275 131.18L38.9315 126.552C38.9306 126.552 41.2259 116.821 40.911 115.506Z" stroke="#263238" stroke-miterlimit="10" stroke-linecap="round" stroke-linejoin="round"/>
<path d="M25.3936 130.233C27.4571 131.093 29.1764 132.21 29.1764 132.21C29.1764 132.21 28.059 129.889 26.4256 129.287" stroke="#263238" stroke-miterlimit="10" stroke-linecap="round" stroke-linejoin="round"/>
<path d="M31.0655 146.951L32.6606 148.259L33.9518 150.779L33.4603 151.317L32.2151 149.826L31.8105 150.654L32.0438 155.873L31.1683 156.059L30.6484 154.315L29.8233 153.984L29.0798 152.176C29.0798 152.176 28.379 151.323 28.2187 151.036C28.0583 150.748 28.0156 147.429 28.0156 147.429L31.0655 146.951Z" fill="white" stroke="#263238" stroke-miterlimit="10" stroke-linecap="round" stroke-linejoin="round"/>
<path d="M30.6482 154.314L30.4629 151.819" stroke="#263238" stroke-miterlimit="10" stroke-linecap="round" stroke-linejoin="round"/>
<path d="M29.8228 153.983L29.4268 151.717" stroke="#263238" stroke-miterlimit="10" stroke-linecap="round" stroke-linejoin="round"/>
<path d="M29.0795 152.175L28.877 150.932" stroke="#263238" stroke-miterlimit="10" stroke-linecap="round" stroke-linejoin="round"/>
<path d="M75.6076 149.143L78.0796 148.946L79.6823 150.2L78.7915 153.333L75.9628 152.398L74.6846 151.403L75.6076 149.143Z" fill="white" stroke="#263238" stroke-miterlimit="10" stroke-linecap="round" stroke-linejoin="round"/>
<path d="M78.6568 150.961L81.0488 152.098L81.5227 151.102L79.1307 149.964L78.6568 150.961Z" fill="white" stroke="#263238" stroke-miterlimit="10" stroke-linecap="round" stroke-linejoin="round"/>
<path d="M78.1148 151.942L80.5068 153.08L80.9807 152.083L78.5887 150.946L78.1148 151.942Z" fill="white" stroke="#263238" stroke-miterlimit="10" stroke-linecap="round" stroke-linejoin="round"/>
<path d="M77.1861 152.647L79.5781 153.784L80.052 152.788L77.66 151.65L77.1861 152.647Z" fill="white" stroke="#263238" stroke-miterlimit="10" stroke-linecap="round" stroke-linejoin="round"/>
<path d="M77.1067 153.484L78.9053 154.339L79.2765 153.559L77.4779 152.704L77.1067 153.484Z" fill="white" stroke="#263238" stroke-miterlimit="10" stroke-linecap="round" stroke-linejoin="round"/>
<path d="M78.0802 148.946L80.1241 150.18L79.1401 152.876L78.5991 152.311L78.6903 151.055C78.6903 151.055 77.3871 151.555 76.4756 150.933" fill="white"/>
<path d="M78.0802 148.946L80.1241 150.18L79.1401 152.876L78.5991 152.311L78.6903 151.055C78.6903 151.055 77.3871 151.555 76.4756 150.933" stroke="#263238" stroke-miterlimit="10" stroke-linecap="round" stroke-linejoin="round"/>
<path d="M39.5807 191.734L41.3179 193.586L44.4921 195.503C44.4921 195.503 44.8118 196.077 43.7846 196.122C42.7574 196.168 39.3551 195.732 38.7681 195.758C38.1811 195.785 37.4011 194.79 36.5207 194.83C36.0268 194.852 35.1427 194.429 34.4615 194.053C33.958 193.775 33.8303 193.108 34.1918 192.661L36.167 190.213L39.5807 191.734Z" fill="white" stroke="#263238" stroke-miterlimit="10" stroke-linecap="round" stroke-linejoin="round"/>
<path d="M44.4273 195.464L44.4921 195.503C44.4921 195.503 44.8118 196.077 43.7846 196.122C42.7574 196.168 39.3551 195.732 38.7681 195.758C38.1811 195.785 37.4011 194.79 36.5207 194.83C36.0268 194.852 35.1427 194.429 34.4615 194.052C33.958 193.775 33.8303 193.108 34.1918 192.66L34.2407 192.6C35.2958 193.287 36.8716 193.739 38.2689 194.457C39.8467 195.268 42.9614 195.432 44.4273 195.464Z" fill="#263238" stroke="#263238" stroke-miterlimit="10" stroke-linecap="round" stroke-linejoin="round"/>
<path d="M54.1103 201.587C57.0671 202.103 62.5631 201.724 65.627 201.446L66.5361 201.94C66.5361 201.94 66.5591 202.451 65.5372 202.497C64.5153 202.543 54.6374 202.984 54.119 202.837C53.9577 202.79 53.9898 202.275 54.1103 201.587Z" fill="#263238" stroke="#263238" stroke-miterlimit="10" stroke-linecap="round" stroke-linejoin="round"/>
</svg>
