<svg width="16" height="17" viewBox="0 0 16 17" fill="none" xmlns="http://www.w3.org/2000/svg">
<g clip-path="url(#clip0_369_16128)">
<path d="M11.7396 4.35339C11.7396 5.41235 11.3599 6.32898 10.6107 7.07825C9.86157 7.82739 8.94482 8.20715 7.88586 8.20715H7.88403C6.82642 8.20679 5.91028 7.82703 5.16113 7.07825C4.41187 6.32898 4.03223 5.41235 4.03223 4.35339C4.03223 3.2948 4.41187 2.37805 5.16113 1.62891C5.90991 0.880005 6.82605 0.500366 7.88403 0.5H7.88586C8.94446 0.5 9.86121 0.879761 10.6107 1.62891C11.3599 2.37805 11.7396 3.2948 11.7396 4.35339Z" fill="#FFBB85"/>
<path d="M14.6615 13.748C14.6615 14.5835 14.3958 15.2599 13.8723 15.7581C13.355 16.2504 12.6708 16.4998 11.8389 16.4998H4.13477C3.30286 16.4998 2.61865 16.2504 2.10168 15.7581C1.57788 15.2595 1.3125 14.5833 1.3125 13.748C1.3125 13.4268 1.32312 13.1089 1.34436 12.8032C1.36597 12.4907 1.40967 12.1506 1.47412 11.7919C1.53906 11.4302 1.62256 11.0883 1.72253 10.7758C1.82629 10.4523 1.96667 10.1332 2.14038 9.82751C2.3208 9.51025 2.53271 9.23389 2.77026 9.00635C3.01929 8.76819 3.32373 8.5769 3.67566 8.4375C4.02637 8.29883 4.41516 8.22852 4.83118 8.22852C4.99438 8.22852 5.15247 8.29529 5.45715 8.49377C5.64783 8.61816 5.86755 8.75977 6.11011 8.91479C6.31958 9.04834 6.60327 9.17358 6.95398 9.28674C7.26221 9.38647 7.57507 9.44214 7.88416 9.45178C7.91821 9.453 7.95227 9.45361 7.98633 9.45361C8.32959 9.45361 8.67676 9.39734 9.01904 9.28674C9.36975 9.17358 9.65381 9.04834 9.86316 8.91479C10.1083 8.75818 10.328 8.6167 10.5159 8.49414C10.8208 8.29529 10.9786 8.22852 11.1422 8.22852C11.5579 8.22852 11.9467 8.29883 12.2976 8.4375C12.6495 8.5769 12.954 8.76855 13.2028 9.00635C13.4407 9.23389 13.6526 9.51025 13.8329 9.82751C14.0067 10.1334 14.1473 10.4523 14.2507 10.7754C14.3508 11.0883 14.4346 11.4302 14.4995 11.7921C14.5636 12.1512 14.6074 12.4913 14.6289 12.803C14.6505 13.1077 14.6611 13.4255 14.6615 13.748Z" fill="#6AA9FF"/>
<path d="M7.88562 8.20715H7.88379V0.5H7.88562C8.94421 0.5 9.86096 0.879761 10.6105 1.62891C11.3596 2.37805 11.7394 3.2948 11.7394 4.35339C11.7394 5.41235 11.3596 6.32898 10.6105 7.07825C9.86133 7.82739 8.94458 8.20715 7.88562 8.20715Z" fill="#F5A86C"/>
<path d="M14.6611 13.748C14.6611 14.5835 14.3954 15.2599 13.8719 15.7581C13.3546 16.2504 12.6704 16.4998 11.8385 16.4998H7.88379V9.45178C7.91785 9.453 7.9519 9.45361 7.98596 9.45361C8.32922 9.45361 8.67639 9.39734 9.01868 9.28674C9.36938 9.17358 9.65344 9.04834 9.86279 8.91479C10.1079 8.75818 10.3276 8.6167 10.5155 8.49414C10.8204 8.29529 10.9783 8.22852 11.1418 8.22852C11.5575 8.22852 11.9463 8.29883 12.2972 8.4375C12.6492 8.5769 12.9536 8.76855 13.2024 9.00635C13.4403 9.23389 13.6522 9.51025 13.8325 9.82751C14.0063 10.1334 14.147 10.4523 14.2504 10.7754C14.3505 11.0883 14.4342 11.4302 14.4991 11.7921C14.5632 12.1512 14.6071 12.4913 14.6285 12.803C14.6501 13.1077 14.6608 13.4255 14.6611 13.748Z" fill="#2682FF"/>
</g>
<defs>
<clipPath id="clip0_369_16128">
<rect width="16" height="16" fill="white" transform="translate(0 0.5)"/>
</clipPath>
</defs>
</svg>
