<svg width="241" height="240" viewBox="0 0 241 240" fill="none" xmlns="http://www.w3.org/2000/svg">
<g clip-path="url(#clip0_434_9692)">
<path d="M192.365 183.552H0.36499V183.672H192.365V183.552Z" fill="#EBEBEB"/>
<path d="M46.2771 187.627H25.5459V187.747H46.2771V187.627Z" fill="#EBEBEB"/>
<path d="M53.5921 187.627H50.5537V187.747H53.5921V187.627Z" fill="#EBEBEB"/>
<path d="M108.437 189.653H63.4707V189.773H108.437V189.653Z" fill="#EBEBEB"/>
<path d="M114.125 162.144H21.4418C20.7157 162.143 20.0198 161.853 19.5069 161.34C18.9939 160.826 18.7058 160.129 18.7058 159.403V29.1168C18.7121 28.3949 19.003 27.7046 19.5153 27.1959C20.0276 26.6873 20.7199 26.4012 21.4418 26.4H114.125C114.852 26.4 115.549 26.6888 116.063 27.2028C116.577 27.7168 116.866 28.4139 116.866 29.1408V159.403C116.866 160.13 116.577 160.827 116.063 161.341C115.549 161.855 114.852 162.144 114.125 162.144ZM21.4418 26.496C20.7476 26.4973 20.0822 26.7739 19.5917 27.2653C19.1013 27.7567 18.8258 28.4225 18.8258 29.1168V159.403C18.8258 160.097 19.1013 160.763 19.5917 161.255C20.0822 161.746 20.7476 162.023 21.4418 162.024H114.125C114.82 162.023 115.486 161.746 115.977 161.255C116.468 160.764 116.745 160.098 116.746 159.403V29.1168C116.745 28.4221 116.468 27.7562 115.977 27.265C115.486 26.7738 114.82 26.4973 114.125 26.496H21.4418Z" fill="#EBEBEB"/>
<path d="M119.818 49.2816H38.4482V140.443H119.818V49.2816Z" fill="#EBEBEB"/>
<path d="M119.818 50.7552H40.0466V138.83H119.818V50.7552Z" fill="#FAFAFA"/>
<path d="M42.9938 97.5024V91.3152H44.7602V87.1872H47.117V81H47.7074V87.1872H50.0642V91.3152H51.8306V97.5024H55.0754V99.2688H56.549V106.046H56.8418V96.3216H57.725V102.509H58.6082V87.7776H59.1986V93.9648H61.5554V91.9056H62.4386V83.3568H64.2098V74.8128H64.8002V75.9888H76.8818V72.456H78.941V58.9008H79.829V72.456H82.7762V75.9888H83.9522V93.672H90.1394V88.368H88.0802V87.4848H90.1394V86.0112H96.0338V72.456H97.5074V70.392H104.578V72.456H105.466V91.3152H108.706V99.8592H110.472V93.0816H111.946V91.3152H115.191V85.1232H116.957V81H119.016V74.8128H119.818V138.83H40.0466V97.5024H42.9938Z" fill="#F0F0F0"/>
<path d="M72.3699 76.9152H71.5347V77.7504H72.3699V76.9152Z" fill="#FAFAFA"/>
<path d="M72.3699 78.312H71.5347V79.1472H72.3699V78.312Z" fill="#FAFAFA"/>
<path d="M72.3699 83.9136H71.5347V84.7488H72.3699V83.9136Z" fill="#FAFAFA"/>
<path d="M72.3699 85.3104H71.5347V86.1456H72.3699V85.3104Z" fill="#FAFAFA"/>
<path d="M72.3699 86.712H71.5347V87.5472H72.3699V86.712Z" fill="#FAFAFA"/>
<path d="M72.3699 90.912H71.5347V91.7472H72.3699V90.912Z" fill="#FAFAFA"/>
<path d="M72.3699 92.3088H71.5347V93.144H72.3699V92.3088Z" fill="#FAFAFA"/>
<path d="M73.6946 82.512H72.8594V83.3472H73.6946V82.512Z" fill="#FAFAFA"/>
<path d="M73.6946 83.9136H72.8594V84.7488H73.6946V83.9136Z" fill="#FAFAFA"/>
<path d="M73.6946 85.3104H72.8594V86.1456H73.6946V85.3104Z" fill="#FAFAFA"/>
<path d="M73.6946 86.712H72.8594V87.5472H73.6946V86.712Z" fill="#FAFAFA"/>
<path d="M73.6946 88.1136H72.8594V88.9488H73.6946V88.1136Z" fill="#FAFAFA"/>
<path d="M73.6946 90.912H72.8594V91.7472H73.6946V90.912Z" fill="#FAFAFA"/>
<path d="M73.6946 92.3088H72.8594V93.144H73.6946V92.3088Z" fill="#FAFAFA"/>
<path d="M75.0193 76.9152H74.1841V77.7504H75.0193V76.9152Z" fill="#FAFAFA"/>
<path d="M75.0193 78.312H74.1841V79.1472H75.0193V78.312Z" fill="#FAFAFA"/>
<path d="M75.0193 79.7136H74.1841V80.5488H75.0193V79.7136Z" fill="#FAFAFA"/>
<path d="M75.0193 81.1152H74.1841V81.9504H75.0193V81.1152Z" fill="#FAFAFA"/>
<path d="M75.0193 82.512H74.1841V83.3472H75.0193V82.512Z" fill="#FAFAFA"/>
<path d="M75.0193 83.9136H74.1841V84.7488H75.0193V83.9136Z" fill="#FAFAFA"/>
<path d="M75.0193 85.3104H74.1841V86.1456H75.0193V85.3104Z" fill="#FAFAFA"/>
<path d="M75.0193 86.712H74.1841V87.5472H75.0193V86.712Z" fill="#FAFAFA"/>
<path d="M75.0193 88.1136H74.1841V88.9488H75.0193V88.1136Z" fill="#FAFAFA"/>
<path d="M75.0193 89.5104H74.1841V90.3456H75.0193V89.5104Z" fill="#FAFAFA"/>
<path d="M75.0193 92.3088H74.1841V93.144H75.0193V92.3088Z" fill="#FAFAFA"/>
<path d="M76.3489 76.9152H75.5137V77.7504H76.3489V76.9152Z" fill="#FAFAFA"/>
<path d="M76.3489 78.312H75.5137V79.1472H76.3489V78.312Z" fill="#FAFAFA"/>
<path d="M76.3489 79.7136H75.5137V80.5488H76.3489V79.7136Z" fill="#FAFAFA"/>
<path d="M76.3489 81.1152H75.5137V81.9504H76.3489V81.1152Z" fill="#FAFAFA"/>
<path d="M76.3489 82.512H75.5137V83.3472H76.3489V82.512Z" fill="#FAFAFA"/>
<path d="M76.3489 83.9136H75.5137V84.7488H76.3489V83.9136Z" fill="#FAFAFA"/>
<path d="M76.3489 85.3104H75.5137V86.1456H76.3489V85.3104Z" fill="#FAFAFA"/>
<path d="M76.3489 97.9104H75.5137V98.7456H76.3489V97.9104Z" fill="#FAFAFA"/>
<path d="M77.6738 76.9152H76.8386V77.7504H77.6738V76.9152Z" fill="#FAFAFA"/>
<path d="M77.6738 78.312H76.8386V79.1472H77.6738V78.312Z" fill="#FAFAFA"/>
<path d="M77.6738 79.7136H76.8386V80.5488H77.6738V79.7136Z" fill="#FAFAFA"/>
<path d="M77.6738 81.1152H76.8386V81.9504H77.6738V81.1152Z" fill="#FAFAFA"/>
<path d="M77.6738 82.512H76.8386V83.3472H77.6738V82.512Z" fill="#FAFAFA"/>
<path d="M77.6738 83.9136H76.8386V84.7488H77.6738V83.9136Z" fill="#FAFAFA"/>
<path d="M77.6738 85.3104H76.8386V86.1456H77.6738V85.3104Z" fill="#FAFAFA"/>
<path d="M77.6738 86.712H76.8386V87.5472H77.6738V86.712Z" fill="#FAFAFA"/>
<path d="M77.6738 95.112H76.8386V95.9472H77.6738V95.112Z" fill="#FAFAFA"/>
<path d="M77.6738 96.5088H76.8386V97.344H77.6738V96.5088Z" fill="#FAFAFA"/>
<path d="M77.6738 97.9104H76.8386V98.7456H77.6738V97.9104Z" fill="#FAFAFA"/>
<path d="M77.6738 99.312H76.8386V100.147H77.6738V99.312Z" fill="#FAFAFA"/>
<path d="M77.6738 104.909H76.8386V105.744H77.6738V104.909Z" fill="#FAFAFA"/>
<path d="M78.9985 76.9152H78.1633V77.7504H78.9985V76.9152Z" fill="#FAFAFA"/>
<path d="M78.9985 78.312H78.1633V79.1472H78.9985V78.312Z" fill="#FAFAFA"/>
<path d="M78.9985 79.7136H78.1633V80.5488H78.9985V79.7136Z" fill="#FAFAFA"/>
<path d="M78.9985 81.1152H78.1633V81.9504H78.9985V81.1152Z" fill="#FAFAFA"/>
<path d="M78.9985 82.512H78.1633V83.3472H78.9985V82.512Z" fill="#FAFAFA"/>
<path d="M78.9985 83.9136H78.1633V84.7488H78.9985V83.9136Z" fill="#FAFAFA"/>
<path d="M78.9985 85.3104H78.1633V86.1456H78.9985V85.3104Z" fill="#FAFAFA"/>
<path d="M78.9985 86.712H78.1633V87.5472H78.9985V86.712Z" fill="#FAFAFA"/>
<path d="M78.9985 88.1136H78.1633V88.9488H78.9985V88.1136Z" fill="#FAFAFA"/>
<path d="M78.9985 89.5104H78.1633V90.3456H78.9985V89.5104Z" fill="#FAFAFA"/>
<path d="M78.9985 93.7104H78.1633V94.5456H78.9985V93.7104Z" fill="#FAFAFA"/>
<path d="M78.9985 95.112H78.1633V95.9472H78.9985V95.112Z" fill="#FAFAFA"/>
<path d="M78.9985 96.5088H78.1633V97.344H78.9985V96.5088Z" fill="#FAFAFA"/>
<path d="M78.9985 97.9104H78.1633V98.7456H78.9985V97.9104Z" fill="#FAFAFA"/>
<path d="M78.9985 99.312H78.1633V100.147H78.9985V99.312Z" fill="#FAFAFA"/>
<path d="M78.9985 104.909H78.1633V105.744H78.9985V104.909Z" fill="#FAFAFA"/>
<path d="M80.3235 76.9152H79.4883V77.7504H80.3235V76.9152Z" fill="#FAFAFA"/>
<path d="M80.3235 78.312H79.4883V79.1472H80.3235V78.312Z" fill="#FAFAFA"/>
<path d="M80.3235 79.7136H79.4883V80.5488H80.3235V79.7136Z" fill="#FAFAFA"/>
<path d="M80.3235 81.1152H79.4883V81.9504H80.3235V81.1152Z" fill="#FAFAFA"/>
<path d="M80.3235 82.512H79.4883V83.3472H80.3235V82.512Z" fill="#FAFAFA"/>
<path d="M80.3235 83.9136H79.4883V84.7488H80.3235V83.9136Z" fill="#FAFAFA"/>
<path d="M80.3235 85.3104H79.4883V86.1456H80.3235V85.3104Z" fill="#FAFAFA"/>
<path d="M80.3235 86.712H79.4883V87.5472H80.3235V86.712Z" fill="#FAFAFA"/>
<path d="M80.3235 88.1136H79.4883V88.9488H80.3235V88.1136Z" fill="#FAFAFA"/>
<path d="M80.3235 89.5104H79.4883V90.3456H80.3235V89.5104Z" fill="#FAFAFA"/>
<path d="M80.3235 90.912H79.4883V91.7472H80.3235V90.912Z" fill="#FAFAFA"/>
<path d="M80.3235 92.3088H79.4883V93.144H80.3235V92.3088Z" fill="#FAFAFA"/>
<path d="M80.3235 93.7104H79.4883V94.5456H80.3235V93.7104Z" fill="#FAFAFA"/>
<path d="M80.3235 95.112H79.4883V95.9472H80.3235V95.112Z" fill="#FAFAFA"/>
<path d="M80.3235 96.5088H79.4883V97.344H80.3235V96.5088Z" fill="#FAFAFA"/>
<path d="M80.3235 97.9104H79.4883V98.7456H80.3235V97.9104Z" fill="#FAFAFA"/>
<path d="M80.3235 99.312H79.4883V100.147H80.3235V99.312Z" fill="#FAFAFA"/>
<path d="M80.3235 100.709H79.4883V101.544H80.3235V100.709Z" fill="#FAFAFA"/>
<path d="M81.6531 76.9152H80.8179V77.7504H81.6531V76.9152Z" fill="#FAFAFA"/>
<path d="M81.6531 78.312H80.8179V79.1472H81.6531V78.312Z" fill="#FAFAFA"/>
<path d="M81.6531 79.7136H80.8179V80.5488H81.6531V79.7136Z" fill="#FAFAFA"/>
<path d="M81.6531 81.1152H80.8179V81.9504H81.6531V81.1152Z" fill="#FAFAFA"/>
<path d="M81.6531 82.512H80.8179V83.3472H81.6531V82.512Z" fill="#FAFAFA"/>
<path d="M81.6531 83.9136H80.8179V84.7488H81.6531V83.9136Z" fill="#FAFAFA"/>
<path d="M81.6531 85.3104H80.8179V86.1456H81.6531V85.3104Z" fill="#FAFAFA"/>
<path d="M81.6531 86.712H80.8179V87.5472H81.6531V86.712Z" fill="#FAFAFA"/>
<path d="M81.6531 88.1136H80.8179V88.9488H81.6531V88.1136Z" fill="#FAFAFA"/>
<path d="M81.6531 89.5104H80.8179V90.3456H81.6531V89.5104Z" fill="#FAFAFA"/>
<path d="M81.6531 93.7104H80.8179V94.5456H81.6531V93.7104Z" fill="#FAFAFA"/>
<path d="M81.6531 95.112H80.8179V95.9472H81.6531V95.112Z" fill="#FAFAFA"/>
<path d="M81.6531 96.5088H80.8179V97.344H81.6531V96.5088Z" fill="#FAFAFA"/>
<path d="M81.6531 97.9104H80.8179V98.7456H81.6531V97.9104Z" fill="#FAFAFA"/>
<path d="M82.9778 76.9152H82.1426V77.7504H82.9778V76.9152Z" fill="#FAFAFA"/>
<path d="M82.9778 78.312H82.1426V79.1472H82.9778V78.312Z" fill="#FAFAFA"/>
<path d="M82.9778 79.7136H82.1426V80.5488H82.9778V79.7136Z" fill="#FAFAFA"/>
<path d="M82.9778 81.1152H82.1426V81.9504H82.9778V81.1152Z" fill="#FAFAFA"/>
<path d="M82.9778 82.512H82.1426V83.3472H82.9778V82.512Z" fill="#FAFAFA"/>
<path d="M82.9778 83.9136H82.1426V84.7488H82.9778V83.9136Z" fill="#FAFAFA"/>
<path d="M82.9778 85.3104H82.1426V86.1456H82.9778V85.3104Z" fill="#FAFAFA"/>
<path d="M82.9778 86.712H82.1426V87.5472H82.9778V86.712Z" fill="#FAFAFA"/>
<path d="M82.9778 88.1136H82.1426V88.9488H82.9778V88.1136Z" fill="#FAFAFA"/>
<path d="M82.9778 89.5104H82.1426V90.3456H82.9778V89.5104Z" fill="#FAFAFA"/>
<path d="M82.9778 93.7104H82.1426V94.5456H82.9778V93.7104Z" fill="#FAFAFA"/>
<path d="M82.9778 95.112H82.1426V95.9472H82.9778V95.112Z" fill="#FAFAFA"/>
<path d="M82.9778 96.5088H82.1426V97.344H82.9778V96.5088Z" fill="#FAFAFA"/>
<path d="M97.9058 73.2816H97.0706V74.1168H97.9058V73.2816Z" fill="#FAFAFA"/>
<path d="M97.9058 74.6784H97.0706V75.5136H97.9058V74.6784Z" fill="#FAFAFA"/>
<path d="M97.9058 76.08H97.0706V76.9152H97.9058V76.08Z" fill="#FAFAFA"/>
<path d="M97.9058 77.4768H97.0706V78.312H97.9058V77.4768Z" fill="#FAFAFA"/>
<path d="M97.9058 78.8784H97.0706V79.7136H97.9058V78.8784Z" fill="#FAFAFA"/>
<path d="M97.9058 80.28H97.0706V81.1152H97.9058V80.28Z" fill="#FAFAFA"/>
<path d="M97.9058 81.6768H97.0706V82.512H97.9058V81.6768Z" fill="#FAFAFA"/>
<path d="M97.9058 83.0784H97.0706V83.9136H97.9058V83.0784Z" fill="#FAFAFA"/>
<path d="M97.9058 87.2784H97.0706V88.1136H97.9058V87.2784Z" fill="#FAFAFA"/>
<path d="M97.9058 88.6752H97.0706V89.5104H97.9058V88.6752Z" fill="#FAFAFA"/>
<path d="M99.2353 73.2816H98.4001V74.1168H99.2353V73.2816Z" fill="#FAFAFA"/>
<path d="M99.2353 74.6784H98.4001V75.5136H99.2353V74.6784Z" fill="#FAFAFA"/>
<path d="M99.2353 76.08H98.4001V76.9152H99.2353V76.08Z" fill="#FAFAFA"/>
<path d="M99.2353 77.4768H98.4001V78.312H99.2353V77.4768Z" fill="#FAFAFA"/>
<path d="M99.2353 78.8784H98.4001V79.7136H99.2353V78.8784Z" fill="#FAFAFA"/>
<path d="M99.2353 80.28H98.4001V81.1152H99.2353V80.28Z" fill="#FAFAFA"/>
<path d="M99.2353 81.6768H98.4001V82.512H99.2353V81.6768Z" fill="#FAFAFA"/>
<path d="M99.2353 83.0784H98.4001V83.9136H99.2353V83.0784Z" fill="#FAFAFA"/>
<path d="M99.2353 88.6752H98.4001V89.5104H99.2353V88.6752Z" fill="#FAFAFA"/>
<path d="M100.56 73.2816H99.7251V74.1168H100.56V73.2816Z" fill="#FAFAFA"/>
<path d="M100.56 74.6784H99.7251V75.5136H100.56V74.6784Z" fill="#FAFAFA"/>
<path d="M100.56 76.08H99.7251V76.9152H100.56V76.08Z" fill="#FAFAFA"/>
<path d="M100.56 77.4768H99.7251V78.312H100.56V77.4768Z" fill="#FAFAFA"/>
<path d="M100.56 78.8784H99.7251V79.7136H100.56V78.8784Z" fill="#FAFAFA"/>
<path d="M100.56 80.28H99.7251V81.1152H100.56V80.28Z" fill="#FAFAFA"/>
<path d="M100.56 81.6768H99.7251V82.512H100.56V81.6768Z" fill="#FAFAFA"/>
<path d="M100.56 83.0784H99.7251V83.9136H100.56V83.0784Z" fill="#FAFAFA"/>
<path d="M101.885 73.2816H101.05V74.1168H101.885V73.2816Z" fill="#FAFAFA"/>
<path d="M101.885 74.6784H101.05V75.5136H101.885V74.6784Z" fill="#FAFAFA"/>
<path d="M101.885 76.08H101.05V76.9152H101.885V76.08Z" fill="#FAFAFA"/>
<path d="M101.885 77.4768H101.05V78.312H101.885V77.4768Z" fill="#FAFAFA"/>
<path d="M101.885 78.8784H101.05V79.7136H101.885V78.8784Z" fill="#FAFAFA"/>
<path d="M101.885 80.28H101.05V81.1152H101.885V80.28Z" fill="#FAFAFA"/>
<path d="M101.885 83.0784H101.05V83.9136H101.885V83.0784Z" fill="#FAFAFA"/>
<path d="M101.885 84.48H101.05V85.3152H101.885V84.48Z" fill="#FAFAFA"/>
<path d="M101.885 88.6752H101.05V89.5104H101.885V88.6752Z" fill="#FAFAFA"/>
<path d="M101.885 90.0768H101.05V90.912H101.885V90.0768Z" fill="#FAFAFA"/>
<path d="M101.885 91.4784H101.05V92.3136H101.885V91.4784Z" fill="#FAFAFA"/>
<path d="M101.885 92.8752H101.05V93.7104H101.885V92.8752Z" fill="#FAFAFA"/>
<path d="M101.885 94.2768H101.05V95.112H101.885V94.2768Z" fill="#FAFAFA"/>
<path d="M101.885 95.6736H101.05V96.5088H101.885V95.6736Z" fill="#FAFAFA"/>
<path d="M101.885 97.0752H101.05V97.9104H101.885V97.0752Z" fill="#FAFAFA"/>
<path d="M103.21 73.2816H102.375V74.1168H103.21V73.2816Z" fill="#FAFAFA"/>
<path d="M103.21 74.6784H102.375V75.5136H103.21V74.6784Z" fill="#FAFAFA"/>
<path d="M103.21 76.08H102.375V76.9152H103.21V76.08Z" fill="#FAFAFA"/>
<path d="M103.21 77.4768H102.375V78.312H103.21V77.4768Z" fill="#FAFAFA"/>
<path d="M103.21 78.8784H102.375V79.7136H103.21V78.8784Z" fill="#FAFAFA"/>
<path d="M103.21 80.28H102.375V81.1152H103.21V80.28Z" fill="#FAFAFA"/>
<path d="M103.21 84.48H102.375V85.3152H103.21V84.48Z" fill="#FAFAFA"/>
<path d="M103.21 85.8768H102.375V86.712H103.21V85.8768Z" fill="#FAFAFA"/>
<path d="M103.21 87.2784H102.375V88.1136H103.21V87.2784Z" fill="#FAFAFA"/>
<path d="M103.21 88.6752H102.375V89.5104H103.21V88.6752Z" fill="#FAFAFA"/>
<path d="M103.21 90.0768H102.375V90.912H103.21V90.0768Z" fill="#FAFAFA"/>
<path d="M103.21 91.4784H102.375V92.3136H103.21V91.4784Z" fill="#FAFAFA"/>
<path d="M103.21 92.8752H102.375V93.7104H103.21V92.8752Z" fill="#FAFAFA"/>
<path d="M103.21 94.2768H102.375V95.112H103.21V94.2768Z" fill="#FAFAFA"/>
<path d="M103.21 95.6736H102.375V96.5088H103.21V95.6736Z" fill="#FAFAFA"/>
<path d="M103.21 97.0752H102.375V97.9104H103.21V97.0752Z" fill="#FAFAFA"/>
<path d="M103.21 98.4768H102.375V99.312H103.21V98.4768Z" fill="#FAFAFA"/>
<path d="M103.21 101.275H102.375V102.11H103.21V101.275Z" fill="#FAFAFA"/>
<path d="M104.539 73.2816H103.704V74.1168H104.539V73.2816Z" fill="#FAFAFA"/>
<path d="M104.539 74.6784H103.704V75.5136H104.539V74.6784Z" fill="#FAFAFA"/>
<path d="M104.539 76.08H103.704V76.9152H104.539V76.08Z" fill="#FAFAFA"/>
<path d="M104.539 77.4768H103.704V78.312H104.539V77.4768Z" fill="#FAFAFA"/>
<path d="M104.539 78.8784H103.704V79.7136H104.539V78.8784Z" fill="#FAFAFA"/>
<path d="M104.539 80.28H103.704V81.1152H104.539V80.28Z" fill="#FAFAFA"/>
<path d="M104.539 84.48H103.704V85.3152H104.539V84.48Z" fill="#FAFAFA"/>
<path d="M104.539 85.8768H103.704V86.712H104.539V85.8768Z" fill="#FAFAFA"/>
<path d="M104.539 87.2784H103.704V88.1136H104.539V87.2784Z" fill="#FAFAFA"/>
<path d="M104.539 88.6752H103.704V89.5104H104.539V88.6752Z" fill="#FAFAFA"/>
<path d="M104.539 92.8752H103.704V93.7104H104.539V92.8752Z" fill="#FAFAFA"/>
<path d="M104.539 94.2768H103.704V95.112H104.539V94.2768Z" fill="#FAFAFA"/>
<path d="M104.539 95.6736H103.704V96.5088H104.539V95.6736Z" fill="#FAFAFA"/>
<path d="M104.539 97.0752H103.704V97.9104H104.539V97.0752Z" fill="#FAFAFA"/>
<path d="M104.539 98.4768H103.704V99.312H104.539V98.4768Z" fill="#FAFAFA"/>
<path d="M104.539 101.275H103.704V102.11H104.539V101.275Z" fill="#FAFAFA"/>
<path d="M104.539 102.672H103.704V103.507H104.539V102.672Z" fill="#FAFAFA"/>
<path d="M116.568 86.2944H115.733V87.1296H116.568V86.2944Z" fill="#FAFAFA"/>
<path d="M116.568 87.696H115.733V88.5312H116.568V87.696Z" fill="#FAFAFA"/>
<path d="M116.568 89.0928H115.733V89.928H116.568V89.0928Z" fill="#FAFAFA"/>
<path d="M116.568 90.4944H115.733V91.3296H116.568V90.4944Z" fill="#FAFAFA"/>
<path d="M116.568 91.896H115.733V92.7312H116.568V91.896Z" fill="#FAFAFA"/>
<path d="M116.568 93.2928H115.733V94.128H116.568V93.2928Z" fill="#FAFAFA"/>
<path d="M116.568 94.6944H115.733V95.5296H116.568V94.6944Z" fill="#FAFAFA"/>
<path d="M116.568 98.8944H115.733V99.7296H116.568V98.8944Z" fill="#FAFAFA"/>
<path d="M116.568 100.291H115.733V101.126H116.568V100.291Z" fill="#FAFAFA"/>
<path d="M116.568 101.693H115.733V102.528H116.568V101.693Z" fill="#FAFAFA"/>
<path d="M117.898 86.2944H117.062V87.1296H117.898V86.2944Z" fill="#FAFAFA"/>
<path d="M117.898 87.696H117.062V88.5312H117.898V87.696Z" fill="#FAFAFA"/>
<path d="M117.898 89.0928H117.062V89.928H117.898V89.0928Z" fill="#FAFAFA"/>
<path d="M117.898 90.4944H117.062V91.3296H117.898V90.4944Z" fill="#FAFAFA"/>
<path d="M117.898 91.896H117.062V92.7312H117.898V91.896Z" fill="#FAFAFA"/>
<path d="M117.898 93.2928H117.062V94.128H117.898V93.2928Z" fill="#FAFAFA"/>
<path d="M117.898 94.6944H117.062V95.5296H117.898V94.6944Z" fill="#FAFAFA"/>
<path d="M119.587 86.2944H118.387V87.1296H119.587V86.2944Z" fill="#FAFAFA"/>
<path d="M119.587 87.696H118.387V88.5312H119.587V87.696Z" fill="#FAFAFA"/>
<path d="M119.587 89.0928H118.387V89.928H119.587V89.0928Z" fill="#FAFAFA"/>
<path d="M119.587 90.4944H118.387V91.3296H119.587V90.4944Z" fill="#FAFAFA"/>
<path d="M119.587 91.896H118.387V92.7312H119.587V91.896Z" fill="#FAFAFA"/>
<path d="M119.587 93.2928H118.387V94.128H119.587V93.2928Z" fill="#FAFAFA"/>
<path d="M119.587 94.6944H118.387V95.5296H119.587V94.6944Z" fill="#FAFAFA"/>
<path d="M46.2915 88.1136H45.4563V88.9488H46.2915V88.1136Z" fill="#FAFAFA"/>
<path d="M46.2915 89.5104H45.4563V90.3456H46.2915V89.5104Z" fill="#FAFAFA"/>
<path d="M46.2915 90.912H45.4563V91.7472H46.2915V90.912Z" fill="#FAFAFA"/>
<path d="M46.2915 92.3088H45.4563V93.144H46.2915V92.3088Z" fill="#FAFAFA"/>
<path d="M46.2915 93.7104H45.4563V94.5456H46.2915V93.7104Z" fill="#FAFAFA"/>
<path d="M46.2915 95.112H45.4563V95.9472H46.2915V95.112Z" fill="#FAFAFA"/>
<path d="M46.2915 96.5088H45.4563V97.344H46.2915V96.5088Z" fill="#FAFAFA"/>
<path d="M46.2915 97.9104H45.4563V98.7456H46.2915V97.9104Z" fill="#FAFAFA"/>
<path d="M46.2915 99.312H45.4563V100.147H46.2915V99.312Z" fill="#FAFAFA"/>
<path d="M46.2915 100.709H45.4563V101.544H46.2915V100.709Z" fill="#FAFAFA"/>
<path d="M46.2915 102.11H45.4563V102.946H46.2915V102.11Z" fill="#FAFAFA"/>
<path d="M46.2915 103.507H45.4563V104.342H46.2915V103.507Z" fill="#FAFAFA"/>
<path d="M46.2915 104.909H45.4563V105.744H46.2915V104.909Z" fill="#FAFAFA"/>
<path d="M46.2915 106.31H45.4563V107.146H46.2915V106.31Z" fill="#FAFAFA"/>
<path d="M46.2915 107.707H45.4563V108.542H46.2915V107.707Z" fill="#FAFAFA"/>
<path d="M46.2915 109.109H45.4563V109.944H46.2915V109.109Z" fill="#FAFAFA"/>
<path d="M46.2915 110.506H45.4563V111.341H46.2915V110.506Z" fill="#FAFAFA"/>
<path d="M46.2915 111.907H45.4563V112.742H46.2915V111.907Z" fill="#FAFAFA"/>
<path d="M46.2915 113.309H45.4563V114.144H46.2915V113.309Z" fill="#FAFAFA"/>
<path d="M46.2915 114.706H45.4563V115.541H46.2915V114.706Z" fill="#FAFAFA"/>
<path d="M47.6162 88.1136H46.781V88.9488H47.6162V88.1136Z" fill="#FAFAFA"/>
<path d="M47.6162 89.5104H46.781V90.3456H47.6162V89.5104Z" fill="#FAFAFA"/>
<path d="M47.6162 90.912H46.781V91.7472H47.6162V90.912Z" fill="#FAFAFA"/>
<path d="M47.6162 92.3088H46.781V93.144H47.6162V92.3088Z" fill="#FAFAFA"/>
<path d="M47.6162 93.7104H46.781V94.5456H47.6162V93.7104Z" fill="#FAFAFA"/>
<path d="M47.6162 95.112H46.781V95.9472H47.6162V95.112Z" fill="#FAFAFA"/>
<path d="M47.6162 96.5088H46.781V97.344H47.6162V96.5088Z" fill="#FAFAFA"/>
<path d="M47.6162 97.9104H46.781V98.7456H47.6162V97.9104Z" fill="#FAFAFA"/>
<path d="M47.6162 99.312H46.781V100.147H47.6162V99.312Z" fill="#FAFAFA"/>
<path d="M47.6162 100.709H46.781V101.544H47.6162V100.709Z" fill="#FAFAFA"/>
<path d="M47.6162 102.11H46.781V102.946H47.6162V102.11Z" fill="#FAFAFA"/>
<path d="M47.6162 103.507H46.781V104.342H47.6162V103.507Z" fill="#FAFAFA"/>
<path d="M47.6162 104.909H46.781V105.744H47.6162V104.909Z" fill="#FAFAFA"/>
<path d="M47.6162 106.31H46.781V107.146H47.6162V106.31Z" fill="#FAFAFA"/>
<path d="M47.6162 107.707H46.781V108.542H47.6162V107.707Z" fill="#FAFAFA"/>
<path d="M47.6162 109.109H46.781V109.944H47.6162V109.109Z" fill="#FAFAFA"/>
<path d="M47.6162 110.506H46.781V111.341H47.6162V110.506Z" fill="#FAFAFA"/>
<path d="M47.6162 111.907H46.781V112.742H47.6162V111.907Z" fill="#FAFAFA"/>
<path d="M48.9409 88.1136H48.1057V88.9488H48.9409V88.1136Z" fill="#FAFAFA"/>
<path d="M48.9409 89.5104H48.1057V90.3456H48.9409V89.5104Z" fill="#FAFAFA"/>
<path d="M48.9409 90.912H48.1057V91.7472H48.9409V90.912Z" fill="#FAFAFA"/>
<path d="M48.9409 92.3088H48.1057V93.144H48.9409V92.3088Z" fill="#FAFAFA"/>
<path d="M48.9409 93.7104H48.1057V94.5456H48.9409V93.7104Z" fill="#FAFAFA"/>
<path d="M48.9409 95.112H48.1057V95.9472H48.9409V95.112Z" fill="#FAFAFA"/>
<path d="M48.9409 96.5088H48.1057V97.344H48.9409V96.5088Z" fill="#FAFAFA"/>
<path d="M48.9409 97.9104H48.1057V98.7456H48.9409V97.9104Z" fill="#FAFAFA"/>
<path d="M48.9409 99.312H48.1057V100.147H48.9409V99.312Z" fill="#FAFAFA"/>
<path d="M48.9409 100.709H48.1057V101.544H48.9409V100.709Z" fill="#FAFAFA"/>
<path d="M48.9409 102.11H48.1057V102.946H48.9409V102.11Z" fill="#FAFAFA"/>
<path d="M48.9409 103.507H48.1057V104.342H48.9409V103.507Z" fill="#FAFAFA"/>
<path d="M48.9409 104.909H48.1057V105.744H48.9409V104.909Z" fill="#FAFAFA"/>
<path d="M48.9409 106.31H48.1057V107.146H48.9409V106.31Z" fill="#FAFAFA"/>
<path d="M48.9409 107.707H48.1057V108.542H48.9409V107.707Z" fill="#FAFAFA"/>
<path d="M48.9409 109.109H48.1057V109.944H48.9409V109.109Z" fill="#FAFAFA"/>
<path d="M48.9409 110.506H48.1057V111.341H48.9409V110.506Z" fill="#FAFAFA"/>
<path d="M48.9409 111.907H48.1057V112.742H48.9409V111.907Z" fill="#FAFAFA"/>
<path d="M41.3281 98.328H40.4929V99.1632H41.3281V98.328Z" fill="#FAFAFA"/>
<path d="M41.3281 99.7296H40.4929V100.565H41.3281V99.7296Z" fill="#FAFAFA"/>
<path d="M41.3281 101.126H40.4929V101.962H41.3281V101.126Z" fill="#FAFAFA"/>
<path d="M41.3281 102.528H40.4929V103.363H41.3281V102.528Z" fill="#FAFAFA"/>
<path d="M41.3281 103.925H40.4929V104.76H41.3281V103.925Z" fill="#FAFAFA"/>
<path d="M41.3281 105.326H40.4929V106.162H41.3281V105.326Z" fill="#FAFAFA"/>
<path d="M41.3281 106.728H40.4929V107.563H41.3281V106.728Z" fill="#FAFAFA"/>
<path d="M41.3281 108.125H40.4929V108.96H41.3281V108.125Z" fill="#FAFAFA"/>
<path d="M41.3281 109.526H40.4929V110.362H41.3281V109.526Z" fill="#FAFAFA"/>
<path d="M41.3281 110.923H40.4929V111.758H41.3281V110.923Z" fill="#FAFAFA"/>
<path d="M41.3281 112.325H40.4929V113.16H41.3281V112.325Z" fill="#FAFAFA"/>
<path d="M41.3281 113.726H40.4929V114.562H41.3281V113.726Z" fill="#FAFAFA"/>
<path d="M41.3281 115.123H40.4929V115.958H41.3281V115.123Z" fill="#FAFAFA"/>
<path d="M42.6531 98.328H41.8179V99.1632H42.6531V98.328Z" fill="#FAFAFA"/>
<path d="M42.6531 99.7296H41.8179V100.565H42.6531V99.7296Z" fill="#FAFAFA"/>
<path d="M42.6531 101.126H41.8179V101.962H42.6531V101.126Z" fill="#FAFAFA"/>
<path d="M42.6531 102.528H41.8179V103.363H42.6531V102.528Z" fill="#FAFAFA"/>
<path d="M42.6531 103.925H41.8179V104.76H42.6531V103.925Z" fill="#FAFAFA"/>
<path d="M42.6531 105.326H41.8179V106.162H42.6531V105.326Z" fill="#FAFAFA"/>
<path d="M42.6531 106.728H41.8179V107.563H42.6531V106.728Z" fill="#FAFAFA"/>
<path d="M42.6531 108.125H41.8179V108.96H42.6531V108.125Z" fill="#FAFAFA"/>
<path d="M42.6531 109.526H41.8179V110.362H42.6531V109.526Z" fill="#FAFAFA"/>
<path d="M42.6531 110.923H41.8179V111.758H42.6531V110.923Z" fill="#FAFAFA"/>
<path d="M42.6531 112.325H41.8179V113.16H42.6531V112.325Z" fill="#FAFAFA"/>
<path d="M42.6531 113.726H41.8179V114.562H42.6531V113.726Z" fill="#FAFAFA"/>
<path d="M42.6531 115.123H41.8179V115.958H42.6531V115.123Z" fill="#FAFAFA"/>
<path d="M43.9827 98.328H43.1475V99.1632H43.9827V98.328Z" fill="#FAFAFA"/>
<path d="M43.9827 99.7296H43.1475V100.565H43.9827V99.7296Z" fill="#FAFAFA"/>
<path d="M43.9827 101.126H43.1475V101.962H43.9827V101.126Z" fill="#FAFAFA"/>
<path d="M43.9827 102.528H43.1475V103.363H43.9827V102.528Z" fill="#FAFAFA"/>
<path d="M43.9827 103.925H43.1475V104.76H43.9827V103.925Z" fill="#FAFAFA"/>
<path d="M43.9827 105.326H43.1475V106.162H43.9827V105.326Z" fill="#FAFAFA"/>
<path d="M43.9827 106.728H43.1475V107.563H43.9827V106.728Z" fill="#FAFAFA"/>
<path d="M43.9827 108.125H43.1475V108.96H43.9827V108.125Z" fill="#FAFAFA"/>
<path d="M43.9827 109.526H43.1475V110.362H43.9827V109.526Z" fill="#FAFAFA"/>
<path d="M43.9827 110.923H43.1475V111.758H43.9827V110.923Z" fill="#FAFAFA"/>
<path d="M43.9827 112.325H43.1475V113.16H43.9827V112.325Z" fill="#FAFAFA"/>
<path d="M43.9827 113.726H43.1475V114.562H43.9827V113.726Z" fill="#FAFAFA"/>
<path d="M43.9827 115.123H43.1475V115.958H43.9827V115.123Z" fill="#FAFAFA"/>
<path d="M43.9827 116.525H43.1475V117.36H43.9827V116.525Z" fill="#FAFAFA"/>
<path d="M51.3506 98.7456H50.5154V99.5808H51.3506V98.7456Z" fill="#FAFAFA"/>
<path d="M51.3506 100.142H50.5154V100.978H51.3506V100.142Z" fill="#FAFAFA"/>
<path d="M51.3506 101.544H50.5154V102.379H51.3506V101.544Z" fill="#FAFAFA"/>
<path d="M51.3506 102.946H50.5154V103.781H51.3506V102.946Z" fill="#FAFAFA"/>
<path d="M51.3506 104.342H50.5154V105.178H51.3506V104.342Z" fill="#FAFAFA"/>
<path d="M51.3506 105.744H50.5154V106.579H51.3506V105.744Z" fill="#FAFAFA"/>
<path d="M51.3506 107.146H50.5154V107.981H51.3506V107.146Z" fill="#FAFAFA"/>
<path d="M51.3506 108.542H50.5154V109.378H51.3506V108.542Z" fill="#FAFAFA"/>
<path d="M51.3506 109.944H50.5154V110.779H51.3506V109.944Z" fill="#FAFAFA"/>
<path d="M51.3506 111.341H50.5154V112.176H51.3506V111.341Z" fill="#FAFAFA"/>
<path d="M51.3506 115.541H50.5154V116.376H51.3506V115.541Z" fill="#FAFAFA"/>
<path d="M52.6753 98.7456H51.8401V99.5808H52.6753V98.7456Z" fill="#FAFAFA"/>
<path d="M52.6753 100.142H51.8401V100.978H52.6753V100.142Z" fill="#FAFAFA"/>
<path d="M52.6753 101.544H51.8401V102.379H52.6753V101.544Z" fill="#FAFAFA"/>
<path d="M52.6753 102.946H51.8401V103.781H52.6753V102.946Z" fill="#FAFAFA"/>
<path d="M52.6753 104.342H51.8401V105.178H52.6753V104.342Z" fill="#FAFAFA"/>
<path d="M52.6753 105.744H51.8401V106.579H52.6753V105.744Z" fill="#FAFAFA"/>
<path d="M52.6753 107.146H51.8401V107.981H52.6753V107.146Z" fill="#FAFAFA"/>
<path d="M52.6753 108.542H51.8401V109.378H52.6753V108.542Z" fill="#FAFAFA"/>
<path d="M52.6753 109.944H51.8401V110.779H52.6753V109.944Z" fill="#FAFAFA"/>
<path d="M52.6753 114.144H51.8401V114.979H52.6753V114.144Z" fill="#FAFAFA"/>
<path d="M52.6753 115.541H51.8401V116.376H52.6753V115.541Z" fill="#FAFAFA"/>
<path d="M54.0002 98.7456H53.165V99.5808H54.0002V98.7456Z" fill="#FAFAFA"/>
<path d="M54.0002 100.142H53.165V100.978H54.0002V100.142Z" fill="#FAFAFA"/>
<path d="M54.0002 101.544H53.165V102.379H54.0002V101.544Z" fill="#FAFAFA"/>
<path d="M54.0002 102.946H53.165V103.781H54.0002V102.946Z" fill="#FAFAFA"/>
<path d="M54.0002 104.342H53.165V105.178H54.0002V104.342Z" fill="#FAFAFA"/>
<path d="M54.0002 105.744H53.165V106.579H54.0002V105.744Z" fill="#FAFAFA"/>
<path d="M54.0002 107.146H53.165V107.981H54.0002V107.146Z" fill="#FAFAFA"/>
<path d="M54.0002 108.542H53.165V109.378H54.0002V108.542Z" fill="#FAFAFA"/>
<path d="M54.0002 112.742H53.165V113.578H54.0002V112.742Z" fill="#FAFAFA"/>
<path d="M54.0002 114.144H53.165V114.979H54.0002V114.144Z" fill="#FAFAFA"/>
<path d="M54.0002 115.541H53.165V116.376H54.0002V115.541Z" fill="#FAFAFA"/>
<path d="M66.3267 77.4768H65.4915V78.312H66.3267V77.4768Z" fill="#FAFAFA"/>
<path d="M66.3267 78.8784H65.4915V79.7136H66.3267V78.8784Z" fill="#FAFAFA"/>
<path d="M66.3267 80.28H65.4915V81.1152H66.3267V80.28Z" fill="#FAFAFA"/>
<path d="M66.3267 81.6768H65.4915V82.512H66.3267V81.6768Z" fill="#FAFAFA"/>
<path d="M66.3267 83.0784H65.4915V83.9136H66.3267V83.0784Z" fill="#FAFAFA"/>
<path d="M66.3267 84.48H65.4915V85.3152H66.3267V84.48Z" fill="#FAFAFA"/>
<path d="M66.3267 85.8768H65.4915V86.712H66.3267V85.8768Z" fill="#FAFAFA"/>
<path d="M66.3267 87.2784H65.4915V88.1136H66.3267V87.2784Z" fill="#FAFAFA"/>
<path d="M66.3267 88.6752H65.4915V89.5104H66.3267V88.6752Z" fill="#FAFAFA"/>
<path d="M66.3267 90.0768H65.4915V90.912H66.3267V90.0768Z" fill="#FAFAFA"/>
<path d="M66.3267 91.4784H65.4915V92.3136H66.3267V91.4784Z" fill="#FAFAFA"/>
<path d="M66.3267 92.8752H65.4915V93.7104H66.3267V92.8752Z" fill="#FAFAFA"/>
<path d="M66.3267 94.2768H65.4915V95.112H66.3267V94.2768Z" fill="#FAFAFA"/>
<path d="M66.3267 95.6736H65.4915V96.5088H66.3267V95.6736Z" fill="#FAFAFA"/>
<path d="M66.3267 97.0752H65.4915V97.9104H66.3267V97.0752Z" fill="#FAFAFA"/>
<path d="M66.3267 98.4768H65.4915V99.312H66.3267V98.4768Z" fill="#FAFAFA"/>
<path d="M66.3267 99.8736H65.4915V100.709H66.3267V99.8736Z" fill="#FAFAFA"/>
<path d="M66.3267 102.672H65.4915V103.507H66.3267V102.672Z" fill="#FAFAFA"/>
<path d="M66.3267 104.074H65.4915V104.909H66.3267V104.074Z" fill="#FAFAFA"/>
<path d="M66.3267 105.475H65.4915V106.31H66.3267V105.475Z" fill="#FAFAFA"/>
<path d="M66.3267 106.872H65.4915V107.707H66.3267V106.872Z" fill="#FAFAFA"/>
<path d="M66.3267 108.274H65.4915V109.109H66.3267V108.274Z" fill="#FAFAFA"/>
<path d="M67.6514 77.4768H66.8162V78.312H67.6514V77.4768Z" fill="#FAFAFA"/>
<path d="M67.6514 78.8784H66.8162V79.7136H67.6514V78.8784Z" fill="#FAFAFA"/>
<path d="M67.6514 80.28H66.8162V81.1152H67.6514V80.28Z" fill="#FAFAFA"/>
<path d="M67.6514 81.6768H66.8162V82.512H67.6514V81.6768Z" fill="#FAFAFA"/>
<path d="M67.6514 83.0784H66.8162V83.9136H67.6514V83.0784Z" fill="#FAFAFA"/>
<path d="M67.6514 84.48H66.8162V85.3152H67.6514V84.48Z" fill="#FAFAFA"/>
<path d="M67.6514 85.8768H66.8162V86.712H67.6514V85.8768Z" fill="#FAFAFA"/>
<path d="M67.6514 87.2784H66.8162V88.1136H67.6514V87.2784Z" fill="#FAFAFA"/>
<path d="M67.6514 88.6752H66.8162V89.5104H67.6514V88.6752Z" fill="#FAFAFA"/>
<path d="M67.6514 90.0768H66.8162V90.912H67.6514V90.0768Z" fill="#FAFAFA"/>
<path d="M67.6514 91.4784H66.8162V92.3136H67.6514V91.4784Z" fill="#FAFAFA"/>
<path d="M67.6514 92.8752H66.8162V93.7104H67.6514V92.8752Z" fill="#FAFAFA"/>
<path d="M67.6514 94.2768H66.8162V95.112H67.6514V94.2768Z" fill="#FAFAFA"/>
<path d="M67.6514 95.6736H66.8162V96.5088H67.6514V95.6736Z" fill="#FAFAFA"/>
<path d="M67.6514 97.0752H66.8162V97.9104H67.6514V97.0752Z" fill="#FAFAFA"/>
<path d="M67.6514 98.4768H66.8162V99.312H67.6514V98.4768Z" fill="#FAFAFA"/>
<path d="M67.6514 106.872H66.8162V107.707H67.6514V106.872Z" fill="#FAFAFA"/>
<path d="M67.6514 108.274H66.8162V109.109H67.6514V108.274Z" fill="#FAFAFA"/>
<path d="M68.9809 77.4768H68.1458V78.312H68.9809V77.4768Z" fill="#FAFAFA"/>
<path d="M68.9809 78.8784H68.1458V79.7136H68.9809V78.8784Z" fill="#FAFAFA"/>
<path d="M68.9809 80.28H68.1458V81.1152H68.9809V80.28Z" fill="#FAFAFA"/>
<path d="M68.9809 81.6768H68.1458V82.512H68.9809V81.6768Z" fill="#FAFAFA"/>
<path d="M68.9809 83.0784H68.1458V83.9136H68.9809V83.0784Z" fill="#FAFAFA"/>
<path d="M68.9809 84.48H68.1458V85.3152H68.9809V84.48Z" fill="#FAFAFA"/>
<path d="M68.9809 85.8768H68.1458V86.712H68.9809V85.8768Z" fill="#FAFAFA"/>
<path d="M68.9809 87.2784H68.1458V88.1136H68.9809V87.2784Z" fill="#FAFAFA"/>
<path d="M68.9809 88.6752H68.1458V89.5104H68.9809V88.6752Z" fill="#FAFAFA"/>
<path d="M68.9809 90.0768H68.1458V90.912H68.9809V90.0768Z" fill="#FAFAFA"/>
<path d="M68.9809 91.4784H68.1458V92.3136H68.9809V91.4784Z" fill="#FAFAFA"/>
<path d="M68.9809 92.8752H68.1458V93.7104H68.9809V92.8752Z" fill="#FAFAFA"/>
<path d="M68.9809 94.2768H68.1458V95.112H68.9809V94.2768Z" fill="#FAFAFA"/>
<path d="M68.9809 95.6736H68.1458V96.5088H68.9809V95.6736Z" fill="#FAFAFA"/>
<path d="M68.9809 97.0752H68.1458V97.9104H68.9809V97.0752Z" fill="#FAFAFA"/>
<path d="M68.9809 98.4768H68.1458V99.312H68.9809V98.4768Z" fill="#FAFAFA"/>
<path d="M68.9809 101.275H68.1458V102.11H68.9809V101.275Z" fill="#FAFAFA"/>
<path d="M68.9809 102.672H68.1458V103.507H68.9809V102.672Z" fill="#FAFAFA"/>
<path d="M68.9809 104.074H68.1458V104.909H68.9809V104.074Z" fill="#FAFAFA"/>
<path d="M68.9809 105.475H68.1458V106.31H68.9809V105.475Z" fill="#FAFAFA"/>
<path d="M68.9809 108.274H68.1458V109.109H68.9809V108.274Z" fill="#FAFAFA"/>
<path d="M61.5122 95.112H60.677V95.9472H61.5122V95.112Z" fill="#FAFAFA"/>
<path d="M61.5122 96.5088H60.677V97.344H61.5122V96.5088Z" fill="#FAFAFA"/>
<path d="M61.5122 97.9104H60.677V98.7456H61.5122V97.9104Z" fill="#FAFAFA"/>
<path d="M61.5122 99.312H60.677V100.147H61.5122V99.312Z" fill="#FAFAFA"/>
<path d="M61.5122 100.709H60.677V101.544H61.5122V100.709Z" fill="#FAFAFA"/>
<path d="M61.5122 102.11H60.677V102.946H61.5122V102.11Z" fill="#FAFAFA"/>
<path d="M61.5122 103.507H60.677V104.342H61.5122V103.507Z" fill="#FAFAFA"/>
<path d="M61.5122 106.31H60.677V107.146H61.5122V106.31Z" fill="#FAFAFA"/>
<path d="M61.5122 107.707H60.677V108.542H61.5122V107.707Z" fill="#FAFAFA"/>
<path d="M61.5122 109.109H60.677V109.944H61.5122V109.109Z" fill="#FAFAFA"/>
<path d="M61.5122 110.506H60.677V111.341H61.5122V110.506Z" fill="#FAFAFA"/>
<path d="M61.5122 111.907H60.677V112.742H61.5122V111.907Z" fill="#FAFAFA"/>
<path d="M61.5122 113.309H60.677V114.144H61.5122V113.309Z" fill="#FAFAFA"/>
<path d="M61.5122 114.706H60.677V115.541H61.5122V114.706Z" fill="#FAFAFA"/>
<path d="M61.5122 116.107H60.677V116.942H61.5122V116.107Z" fill="#FAFAFA"/>
<path d="M62.8418 95.112H62.0066V95.9472H62.8418V95.112Z" fill="#FAFAFA"/>
<path d="M62.8418 96.5088H62.0066V97.344H62.8418V96.5088Z" fill="#FAFAFA"/>
<path d="M62.8418 97.9104H62.0066V98.7456H62.8418V97.9104Z" fill="#FAFAFA"/>
<path d="M62.8418 99.312H62.0066V100.147H62.8418V99.312Z" fill="#FAFAFA"/>
<path d="M62.8418 100.709H62.0066V101.544H62.8418V100.709Z" fill="#FAFAFA"/>
<path d="M62.8418 102.11H62.0066V102.946H62.8418V102.11Z" fill="#FAFAFA"/>
<path d="M62.8418 106.31H62.0066V107.146H62.8418V106.31Z" fill="#FAFAFA"/>
<path d="M62.8418 107.707H62.0066V108.542H62.8418V107.707Z" fill="#FAFAFA"/>
<path d="M62.8418 109.109H62.0066V109.944H62.8418V109.109Z" fill="#FAFAFA"/>
<path d="M62.8418 110.506H62.0066V111.341H62.8418V110.506Z" fill="#FAFAFA"/>
<path d="M62.8418 111.907H62.0066V112.742H62.8418V111.907Z" fill="#FAFAFA"/>
<path d="M62.8418 113.309H62.0066V114.144H62.8418V113.309Z" fill="#FAFAFA"/>
<path d="M62.8418 114.706H62.0066V115.541H62.8418V114.706Z" fill="#FAFAFA"/>
<path d="M62.8418 116.107H62.0066V116.942H62.8418V116.107Z" fill="#FAFAFA"/>
<path d="M64.1665 95.112H63.3313V95.9472H64.1665V95.112Z" fill="#FAFAFA"/>
<path d="M64.1665 96.5088H63.3313V97.344H64.1665V96.5088Z" fill="#FAFAFA"/>
<path d="M64.1665 97.9104H63.3313V98.7456H64.1665V97.9104Z" fill="#FAFAFA"/>
<path d="M64.1665 99.312H63.3313V100.147H64.1665V99.312Z" fill="#FAFAFA"/>
<path d="M64.1665 100.709H63.3313V101.544H64.1665V100.709Z" fill="#FAFAFA"/>
<path d="M64.1665 102.11H63.3313V102.946H64.1665V102.11Z" fill="#FAFAFA"/>
<path d="M64.1665 104.909H63.3313V105.744H64.1665V104.909Z" fill="#FAFAFA"/>
<path d="M64.1665 106.31H63.3313V107.146H64.1665V106.31Z" fill="#FAFAFA"/>
<path d="M64.1665 107.707H63.3313V108.542H64.1665V107.707Z" fill="#FAFAFA"/>
<path d="M64.1665 109.109H63.3313V109.944H64.1665V109.109Z" fill="#FAFAFA"/>
<path d="M64.1665 110.506H63.3313V111.341H64.1665V110.506Z" fill="#FAFAFA"/>
<path d="M64.1665 111.907H63.3313V112.742H64.1665V111.907Z" fill="#FAFAFA"/>
<path d="M64.1665 113.309H63.3313V114.144H64.1665V113.309Z" fill="#FAFAFA"/>
<path d="M64.1665 114.706H63.3313V115.541H64.1665V114.706Z" fill="#FAFAFA"/>
<path d="M64.1665 116.107H63.3313V116.942H64.1665V116.107Z" fill="#FAFAFA"/>
<path d="M92.1123 87.2784H91.2771V88.1136H92.1123V87.2784Z" fill="#FAFAFA"/>
<path d="M92.1123 88.6752H91.2771V89.5104H92.1123V88.6752Z" fill="#FAFAFA"/>
<path d="M92.1123 90.0768H91.2771V90.912H92.1123V90.0768Z" fill="#FAFAFA"/>
<path d="M92.1123 91.4784H91.2771V92.3136H92.1123V91.4784Z" fill="#FAFAFA"/>
<path d="M92.1123 92.8752H91.2771V93.7104H92.1123V92.8752Z" fill="#FAFAFA"/>
<path d="M92.1123 94.2768H91.2771V95.112H92.1123V94.2768Z" fill="#FAFAFA"/>
<path d="M92.1123 95.6736H91.2771V96.5088H92.1123V95.6736Z" fill="#FAFAFA"/>
<path d="M92.1123 97.0752H91.2771V97.9104H92.1123V97.0752Z" fill="#FAFAFA"/>
<path d="M92.1123 98.4768H91.2771V99.312H92.1123V98.4768Z" fill="#FAFAFA"/>
<path d="M92.1123 99.8736H91.2771V100.709H92.1123V99.8736Z" fill="#FAFAFA"/>
<path d="M92.1123 101.275H91.2771V102.11H92.1123V101.275Z" fill="#FAFAFA"/>
<path d="M92.1123 102.672H91.2771V103.507H92.1123V102.672Z" fill="#FAFAFA"/>
<path d="M92.1123 104.074H91.2771V104.909H92.1123V104.074Z" fill="#FAFAFA"/>
<path d="M92.1123 106.872H91.2771V107.707H92.1123V106.872Z" fill="#FAFAFA"/>
<path d="M92.1123 108.274H91.2771V109.109H92.1123V108.274Z" fill="#FAFAFA"/>
<path d="M92.1123 109.67H91.2771V110.506H92.1123V109.67Z" fill="#FAFAFA"/>
<path d="M92.1123 111.072H91.2771V111.907H92.1123V111.072Z" fill="#FAFAFA"/>
<path d="M92.1123 113.87H91.2771V114.706H92.1123V113.87Z" fill="#FAFAFA"/>
<path d="M92.1123 115.272H91.2771V116.107H92.1123V115.272Z" fill="#FAFAFA"/>
<path d="M92.1123 116.669H91.2771V117.504H92.1123V116.669Z" fill="#FAFAFA"/>
<path d="M93.437 87.2784H92.6018V88.1136H93.437V87.2784Z" fill="#FAFAFA"/>
<path d="M93.437 88.6752H92.6018V89.5104H93.437V88.6752Z" fill="#FAFAFA"/>
<path d="M93.437 90.0768H92.6018V90.912H93.437V90.0768Z" fill="#FAFAFA"/>
<path d="M93.437 91.4784H92.6018V92.3136H93.437V91.4784Z" fill="#FAFAFA"/>
<path d="M93.437 92.8752H92.6018V93.7104H93.437V92.8752Z" fill="#FAFAFA"/>
<path d="M93.437 94.2768H92.6018V95.112H93.437V94.2768Z" fill="#FAFAFA"/>
<path d="M93.437 95.6736H92.6018V96.5088H93.437V95.6736Z" fill="#FAFAFA"/>
<path d="M93.437 97.0752H92.6018V97.9104H93.437V97.0752Z" fill="#FAFAFA"/>
<path d="M93.437 98.4768H92.6018V99.312H93.437V98.4768Z" fill="#FAFAFA"/>
<path d="M93.437 99.8736H92.6018V100.709H93.437V99.8736Z" fill="#FAFAFA"/>
<path d="M93.437 101.275H92.6018V102.11H93.437V101.275Z" fill="#FAFAFA"/>
<path d="M93.437 102.672H92.6018V103.507H93.437V102.672Z" fill="#FAFAFA"/>
<path d="M93.437 104.074H92.6018V104.909H93.437V104.074Z" fill="#FAFAFA"/>
<path d="M93.437 108.274H92.6018V109.109H93.437V108.274Z" fill="#FAFAFA"/>
<path d="M93.437 109.67H92.6018V110.506H93.437V109.67Z" fill="#FAFAFA"/>
<path d="M93.437 112.474H92.6018V113.309H93.437V112.474Z" fill="#FAFAFA"/>
<path d="M93.437 113.87H92.6018V114.706H93.437V113.87Z" fill="#FAFAFA"/>
<path d="M93.437 115.272H92.6018V116.107H93.437V115.272Z" fill="#FAFAFA"/>
<path d="M93.437 116.669H92.6018V117.504H93.437V116.669Z" fill="#FAFAFA"/>
<path d="M94.7617 87.2784H93.9265V88.1136H94.7617V87.2784Z" fill="#FAFAFA"/>
<path d="M94.7617 88.6752H93.9265V89.5104H94.7617V88.6752Z" fill="#FAFAFA"/>
<path d="M94.7617 90.0768H93.9265V90.912H94.7617V90.0768Z" fill="#FAFAFA"/>
<path d="M94.7617 91.4784H93.9265V92.3136H94.7617V91.4784Z" fill="#FAFAFA"/>
<path d="M94.7617 92.8752H93.9265V93.7104H94.7617V92.8752Z" fill="#FAFAFA"/>
<path d="M94.7617 94.2768H93.9265V95.112H94.7617V94.2768Z" fill="#FAFAFA"/>
<path d="M94.7617 95.6736H93.9265V96.5088H94.7617V95.6736Z" fill="#FAFAFA"/>
<path d="M94.7617 97.0752H93.9265V97.9104H94.7617V97.0752Z" fill="#FAFAFA"/>
<path d="M94.7617 98.4768H93.9265V99.312H94.7617V98.4768Z" fill="#FAFAFA"/>
<path d="M94.7617 99.8736H93.9265V100.709H94.7617V99.8736Z" fill="#FAFAFA"/>
<path d="M94.7617 101.275H93.9265V102.11H94.7617V101.275Z" fill="#FAFAFA"/>
<path d="M94.7617 102.672H93.9265V103.507H94.7617V102.672Z" fill="#FAFAFA"/>
<path d="M94.7617 104.074H93.9265V104.909H94.7617V104.074Z" fill="#FAFAFA"/>
<path d="M94.7617 105.475H93.9265V106.31H94.7617V105.475Z" fill="#FAFAFA"/>
<path d="M94.7617 108.274H93.9265V109.109H94.7617V108.274Z" fill="#FAFAFA"/>
<path d="M94.7617 111.072H93.9265V111.907H94.7617V111.072Z" fill="#FAFAFA"/>
<path d="M94.7617 112.474H93.9265V113.309H94.7617V112.474Z" fill="#FAFAFA"/>
<path d="M94.7617 113.87H93.9265V114.706H94.7617V113.87Z" fill="#FAFAFA"/>
<path d="M94.7617 115.272H93.9265V116.107H94.7617V115.272Z" fill="#FAFAFA"/>
<path d="M94.7617 116.669H93.9265V117.504H94.7617V116.669Z" fill="#FAFAFA"/>
<path d="M86.7073 95.256H85.8721V96.0912H86.7073V95.256Z" fill="#FAFAFA"/>
<path d="M86.7073 96.6576H85.8721V97.4928H86.7073V96.6576Z" fill="#FAFAFA"/>
<path d="M86.7073 98.0592H85.8721V98.8944H86.7073V98.0592Z" fill="#FAFAFA"/>
<path d="M86.7073 99.456H85.8721V100.291H86.7073V99.456Z" fill="#FAFAFA"/>
<path d="M86.7073 100.858H85.8721V101.693H86.7073V100.858Z" fill="#FAFAFA"/>
<path d="M86.7073 102.254H85.8721V103.09H86.7073V102.254Z" fill="#FAFAFA"/>
<path d="M86.7073 106.454H85.8721V107.29H86.7073V106.454Z" fill="#FAFAFA"/>
<path d="M86.7073 107.856H85.8721V108.691H86.7073V107.856Z" fill="#FAFAFA"/>
<path d="M86.7073 109.253H85.8721V110.088H86.7073V109.253Z" fill="#FAFAFA"/>
<path d="M86.7073 110.654H85.8721V111.49H86.7073V110.654Z" fill="#FAFAFA"/>
<path d="M86.7073 112.056H85.8721V112.891H86.7073V112.056Z" fill="#FAFAFA"/>
<path d="M86.7073 113.453H85.8721V114.288H86.7073V113.453Z" fill="#FAFAFA"/>
<path d="M86.7073 114.854H85.8721V115.69H86.7073V114.854Z" fill="#FAFAFA"/>
<path d="M88.0371 95.256H87.2019V96.0912H88.0371V95.256Z" fill="#FAFAFA"/>
<path d="M88.0371 96.6576H87.2019V97.4928H88.0371V96.6576Z" fill="#FAFAFA"/>
<path d="M88.0371 98.0592H87.2019V98.8944H88.0371V98.0592Z" fill="#FAFAFA"/>
<path d="M88.0371 99.456H87.2019V100.291H88.0371V99.456Z" fill="#FAFAFA"/>
<path d="M88.0371 100.858H87.2019V101.693H88.0371V100.858Z" fill="#FAFAFA"/>
<path d="M88.0371 102.254H87.2019V103.09H88.0371V102.254Z" fill="#FAFAFA"/>
<path d="M88.0371 106.454H87.2019V107.29H88.0371V106.454Z" fill="#FAFAFA"/>
<path d="M88.0371 107.856H87.2019V108.691H88.0371V107.856Z" fill="#FAFAFA"/>
<path d="M88.0371 109.253H87.2019V110.088H88.0371V109.253Z" fill="#FAFAFA"/>
<path d="M88.0371 110.654H87.2019V111.49H88.0371V110.654Z" fill="#FAFAFA"/>
<path d="M88.0371 112.056H87.2019V112.891H88.0371V112.056Z" fill="#FAFAFA"/>
<path d="M88.0371 113.453H87.2019V114.288H88.0371V113.453Z" fill="#FAFAFA"/>
<path d="M88.0371 116.256H87.2019V117.091H88.0371V116.256Z" fill="#FAFAFA"/>
<path d="M119.813 49.488H118.157V140.443H119.813V49.488Z" fill="#EBEBEB"/>
<path d="M93.197 49.488H91.7954V140.443H93.197V49.488Z" fill="#EBEBEB"/>
<path d="M66.8354 49.488H65.4338V140.443H66.8354V49.488Z" fill="#EBEBEB"/>
<path d="M98.5987 205.229C137.977 205.229 169.9 202.796 169.9 199.795C169.9 196.794 137.977 194.362 98.5987 194.362C59.2202 194.362 27.2976 196.794 27.2976 199.795C27.2976 202.796 59.2202 205.229 98.5987 205.229Z" fill="#F5F5F5"/>
<path d="M138.641 19.9745H92.2628C88.4738 19.9745 84.84 21.4904 82.1607 24.1886C79.4815 26.8868 77.9763 30.5464 77.9763 34.3622V75.0054C77.9763 78.8212 79.4815 82.4808 82.1607 85.179C84.84 87.8772 88.4738 89.3931 92.2628 89.3931H105.791L94.4905 111.974L115.476 89.3931H138.706C140.581 89.3931 142.438 89.0208 144.171 88.2975C145.903 87.5743 147.477 86.5143 148.802 85.178C150.128 83.8418 151.178 82.2556 151.895 80.5101C152.611 78.7646 152.978 76.894 152.976 75.0054V34.3622C152.978 32.4681 152.609 30.5922 151.889 28.8425C151.168 27.0927 150.112 25.5036 148.78 24.1665C147.447 22.8294 145.866 21.7707 144.126 21.0513C142.386 20.3319 140.522 19.966 138.641 19.9745Z" fill="#BA68C8"/>
<path opacity="0.7" d="M138.641 19.9745H92.2628C88.4738 19.9745 84.84 21.4904 82.1607 24.1886C79.4815 26.8868 77.9763 30.5464 77.9763 34.3622V75.0054C77.9763 78.8212 79.4815 82.4808 82.1607 85.179C84.84 87.8772 88.4738 89.3931 92.2628 89.3931H105.791L94.4905 111.974L115.476 89.3931H138.706C140.581 89.3931 142.438 89.0208 144.171 88.2975C145.903 87.5743 147.477 86.5143 148.802 85.178C150.128 83.8418 151.178 82.2556 151.895 80.5101C152.611 78.7646 152.978 76.894 152.976 75.0054V34.3622C152.978 32.4681 152.609 30.5922 151.889 28.8425C151.168 27.0927 150.112 25.5036 148.78 24.1665C147.447 22.8294 145.866 21.7707 144.126 21.0513C142.386 20.3319 140.522 19.966 138.641 19.9745Z" fill="white"/>
<path d="M131.718 70.9C140.707 61.8465 140.707 47.168 131.718 38.1145C122.728 29.061 108.153 29.061 99.1627 38.1145C90.1729 47.168 90.1729 61.8465 99.1627 70.9C108.152 79.9535 122.728 79.9535 131.718 70.9Z" fill="#BA68C8"/>
<path d="M113.039 64.8609C112.732 64.8616 112.428 64.7951 112.15 64.666C111.871 64.5369 111.623 64.3482 111.424 64.1131L102.384 53.3995C102.204 53.186 102.067 52.9389 101.982 52.6722C101.897 52.4055 101.864 52.1245 101.887 51.8452C101.909 51.5659 101.986 51.2938 102.113 51.0445C102.24 50.7951 102.414 50.5734 102.626 50.3919C103.055 50.0254 103.61 49.8452 104.17 49.891C104.447 49.9136 104.717 49.991 104.965 50.1188C105.212 50.2466 105.433 50.4223 105.613 50.6358L113.039 59.4472L125.275 44.897C125.455 44.6835 125.675 44.5078 125.923 44.38C126.17 44.2522 126.441 44.1748 126.718 44.1522C126.995 44.1295 127.274 44.1621 127.539 44.2481C127.804 44.334 128.049 44.4717 128.261 44.6531C128.473 44.8346 128.648 45.0563 128.775 45.3057C128.902 45.555 128.978 45.8271 129.001 46.1064C129.023 46.3857 128.991 46.6667 128.906 46.9334C128.82 47.2001 128.684 47.4472 128.503 47.6607L114.637 64.1131C114.441 64.3478 114.196 64.5364 113.92 64.6656C113.644 64.7948 113.343 64.8615 113.039 64.8609Z" fill="white"/>
<path d="M98.765 200.218H126.701C126.847 200.218 126.988 200.159 127.091 200.056C127.195 199.952 127.253 199.812 127.253 199.666V197.885C127.252 197.739 127.193 197.6 127.09 197.498C126.986 197.395 126.847 197.338 126.701 197.338H100.205V140.304H126.25C126.515 140.304 126.769 140.199 126.957 140.012C127.145 139.825 127.252 139.571 127.253 139.306V137.424H98.765C98.383 137.424 98.0168 137.576 97.7467 137.846C97.4767 138.116 97.325 138.482 97.325 138.864V198.778C97.325 199.16 97.4767 199.526 97.7467 199.796C98.0168 200.066 98.383 200.218 98.765 200.218Z" fill="#263238"/>
<g opacity="0.3">
<path d="M97.325 138.864V198.773C97.325 199.155 97.4767 199.521 97.7467 199.791C98.0168 200.061 98.383 200.213 98.765 200.213H126.701C126.846 200.213 126.985 200.155 127.088 200.053C127.191 199.95 127.248 199.811 127.248 199.666V197.885C127.248 197.739 127.191 197.6 127.088 197.496C126.986 197.393 126.847 197.334 126.701 197.333H100.205V140.304H126.25C126.515 140.303 126.769 140.196 126.956 140.008C127.143 139.82 127.248 139.566 127.248 139.301V137.424H98.765C98.383 137.424 98.0168 137.576 97.7467 137.846C97.4767 138.116 97.325 138.482 97.325 138.864Z" fill="white"/>
</g>
<path opacity="0.2" d="M97.325 138.864V154.142C98.285 154.386 99.245 154.621 100.205 154.848V140.304H126.25C126.515 140.303 126.769 140.196 126.956 140.008C127.143 139.82 127.248 139.566 127.248 139.301V137.424H98.765C98.383 137.424 98.0168 137.576 97.7467 137.846C97.4767 138.116 97.325 138.482 97.325 138.864Z" fill="black"/>
<path d="M46.8051 192.178L58.2579 191.179V176.16H62.2851V191.198L73.8051 192.178C74.294 192.225 74.7477 192.453 75.0777 192.817C75.4078 193.181 75.5907 193.654 75.5907 194.146V195.672H45.0051V194.146C45.0055 193.652 45.1904 193.177 45.5235 192.813C45.8565 192.448 46.3137 192.222 46.8051 192.178Z" fill="#263238"/>
<path opacity="0.1" d="M46.8051 192.178L58.2579 191.179V176.16H62.2851V191.198L73.8051 192.178C74.294 192.225 74.7477 192.453 75.0777 192.817C75.4078 193.181 75.5907 193.654 75.5907 194.146V195.672H45.0051V194.146C45.0055 193.652 45.1904 193.177 45.5235 192.813C45.8565 192.448 46.3137 192.222 46.8051 192.178Z" fill="white"/>
<path d="M71.8562 197.568C71.8562 198.089 72.0108 198.599 72.3003 199.032C72.5899 199.465 73.0014 199.803 73.483 200.003C73.9645 200.202 74.4943 200.254 75.0055 200.153C75.5167 200.051 75.9862 199.8 76.3548 199.431C76.7233 199.063 76.9743 198.593 77.076 198.082C77.1777 197.571 77.1255 197.041 76.926 196.56C76.7266 196.078 76.3888 195.666 75.9554 195.377C75.5221 195.087 75.0126 194.933 74.4914 194.933C74.1452 194.932 73.8022 195 73.4822 195.132C73.1622 195.264 72.8715 195.458 72.6266 195.703C72.3818 195.948 72.1877 196.239 72.0555 196.559C71.9233 196.879 71.8556 197.222 71.8562 197.568Z" fill="#263238"/>
<path d="M48.725 197.568C48.725 198.089 48.5703 198.599 48.2805 199.033C47.9908 199.466 47.5789 199.804 47.0971 200.003C46.6153 200.202 46.0852 200.254 45.5739 200.152C45.0626 200.05 44.5931 199.799 44.2247 199.43C43.8564 199.061 43.6058 198.591 43.5046 198.079C43.4035 197.568 43.4564 197.038 43.6566 196.556C43.8568 196.075 44.1953 195.664 44.6292 195.375C45.0632 195.086 45.5732 194.932 46.0946 194.933C46.4404 194.933 46.7829 195.001 47.1023 195.133C47.4218 195.266 47.7119 195.46 47.9563 195.705C48.2006 195.95 48.3942 196.24 48.5261 196.56C48.658 196.88 48.7256 197.222 48.725 197.568Z" fill="#263238"/>
<path d="M61.1955 179.208H59.3475C58.8752 179.208 58.4223 179.02 58.0883 178.686C57.7543 178.352 57.5667 177.9 57.5667 177.427V164.467H62.9763V177.427C62.9763 177.9 62.7887 178.352 62.4547 178.686C62.1208 179.02 61.6678 179.208 61.1955 179.208Z" fill="#263238"/>
<path opacity="0.2" d="M61.1955 179.208H59.3475C58.8752 179.208 58.4223 179.02 58.0883 178.686C57.7543 178.352 57.5667 177.9 57.5667 177.427V164.467H62.9763V177.427C62.9763 177.9 62.7887 178.352 62.4547 178.686C62.1208 179.02 61.6678 179.208 61.1955 179.208Z" fill="white"/>
<path d="M48.3939 134.717C48.3939 134.717 49.6323 159.595 54.9891 163.877H49.2579C49.2579 163.877 44.1507 155.4 43.7715 134.717H48.3939Z" fill="#263238"/>
<path opacity="0.1" d="M48.3939 134.717C48.3939 134.717 49.6323 159.595 54.9891 163.877H49.2579C49.2579 163.877 44.1507 155.4 43.7715 134.717H48.3939Z" fill="white"/>
<path d="M47.9283 161.813H73.3251C73.8967 161.813 74.4449 162.04 74.8491 162.444C75.2532 162.848 75.4803 163.396 75.4803 163.968V165.936H45.7683V163.968C45.7683 163.685 45.8242 163.404 45.9328 163.142C46.0414 162.88 46.2006 162.643 46.4013 162.442C46.6019 162.242 46.84 162.084 47.1021 161.975C47.3641 161.867 47.6449 161.812 47.9283 161.813Z" fill="#BA68C8"/>
<path d="M75.7489 163.877H45.5089C45.0291 163.877 44.6401 164.266 44.6401 164.746V165.067C44.6401 165.547 45.0291 165.936 45.5089 165.936H75.7489C76.2288 165.936 76.6177 165.547 76.6177 165.067V164.746C76.6177 164.266 76.2288 163.877 75.7489 163.877Z" fill="#263238"/>
<path opacity="0.6" d="M75.7489 163.877H45.5089C45.0291 163.877 44.6401 164.266 44.6401 164.746V165.067C44.6401 165.547 45.0291 165.936 45.5089 165.936H75.7489C76.2288 165.936 76.6177 165.547 76.6177 165.067V164.746C76.6177 164.266 76.2288 163.877 75.7489 163.877Z" fill="white"/>
<path d="M42.7634 140.16H51.9458C54.6338 140.16 56.573 137.76 56.2658 134.76L55.877 130.786C55.5794 127.805 53.165 125.386 50.477 125.386H41.309C38.621 125.386 36.6818 127.786 36.989 130.786L37.3778 134.76C37.6562 137.76 40.0754 140.16 42.7634 140.16Z" fill="#BA68C8"/>
<path d="M73.066 118.699C73.6372 120.509 74.3092 122.395 75.0484 124.123C75.6724 125.563 76.5604 127.397 77.5732 128.362C78.4948 129.182 80.6884 129.494 82.114 129.682C84.034 129.926 86.0788 130.018 88.0708 130.099L88.426 132.787C86.3143 133.354 84.1487 133.697 81.9652 133.81C79.5268 133.896 76.6852 133.81 74.5732 132.312C71.506 129.912 70.1716 126.715 68.8132 123.341C68.4292 122.27 68.0836 121.291 67.7908 120.168L73.0708 118.699H73.066Z" fill="#B65B52"/>
<path d="M70.7091 116.16C72.2211 116.678 73.5891 118.853 77.3955 127.574C77.3955 127.574 78.0147 128.64 81.1011 129.307L80.8179 134.203C80.8179 134.203 76.4115 134.011 75.3891 133.306C74.3667 132.6 68.2371 122.515 68.2371 122.515L70.7091 116.16Z" fill="#263238"/>
<path opacity="0.2" d="M81.1012 129.317L80.818 134.213C80.818 134.213 77.2852 134.059 75.8116 133.517C75.6631 133.467 75.5213 133.399 75.3892 133.315C74.7988 132.902 72.5092 129.355 70.6612 126.437C69.322 124.315 68.2612 122.525 68.2612 122.525L70.7092 116.16C72.2212 116.678 73.5892 118.853 77.4004 127.57C77.4004 127.579 78.0148 128.64 81.1012 129.317Z" fill="white"/>
<path opacity="0.2" d="M75.8115 133.517C75.663 133.467 75.5212 133.399 75.3891 133.315C74.7987 132.902 72.5091 129.355 70.6611 126.437C71.1422 124.782 71.711 123.154 72.3651 121.56C72.3651 121.56 75.8787 128.602 75.8115 133.517Z" fill="black"/>
<path d="M87.0243 130.344L90.4659 129.106L90.0435 133.714C90.0435 133.714 86.8851 134.117 86.4963 132.456L87.0243 130.344Z" fill="#B55B52"/>
<path d="M93.3171 130.037L92.7891 133.834L90.0435 133.714L90.4659 129.106L93.3171 130.037Z" fill="#B55B52"/>
<path d="M81.1251 129.106L82.8819 129.634L82.2387 134.395L80.4819 134.698L81.1251 129.106Z" fill="#263238"/>
<path d="M73.2004 146.443C73.2004 146.443 96.4276 155.606 101.828 159.437C107.228 163.267 120.845 189.091 120.845 189.091L115.215 193.411C115.215 193.411 98.9716 169.824 96.9748 168.226C94.978 166.627 69.1348 158.693 69.1348 158.693L73.2004 146.443Z" fill="#BA68C8"/>
<path opacity="0.4" d="M120.845 189.091L115.215 193.411C115.215 193.411 111.423 187.906 107.28 182.035C102.85 175.752 98.0164 169.075 96.9892 168.226C95.5492 167.054 81.3172 162.494 73.7764 160.133C71.002 159.259 69.1348 158.693 69.1348 158.693L73.1956 146.429C73.1956 146.429 96.418 155.592 101.823 159.422C107.228 163.253 120.845 189.091 120.845 189.091Z" fill="white"/>
<path d="M121.877 198.331L124.589 195.605L120.154 188.746L117.447 191.472L121.877 198.331Z" fill="#B55B52"/>
<path opacity="0.2" d="M117.447 191.472L120.154 188.75L122.688 192.672L119.885 195.254L117.447 191.472Z" fill="black"/>
<path d="M125.059 195.307C125.059 195.307 125.059 195.307 125.093 195.307C125.412 195.19 125.718 195.039 126.005 194.856C126.229 194.736 126.4 194.538 126.485 194.299C126.503 194.21 126.494 194.117 126.461 194.032C126.428 193.947 126.371 193.873 126.298 193.819C126.258 193.778 126.209 193.748 126.154 193.731C126.1 193.714 126.042 193.711 125.986 193.723C125.722 193.786 125.463 194.16 125.266 194.52C125.307 194.184 125.229 193.844 125.045 193.56C124.991 193.506 124.921 193.471 124.845 193.463C124.769 193.454 124.692 193.471 124.627 193.512C124.567 193.54 124.514 193.582 124.474 193.635C124.433 193.688 124.405 193.749 124.392 193.814C124.282 194.333 124.978 195.168 125.011 195.216L125.059 195.168L125.016 195.221C125.016 195.221 124.983 195.274 124.983 195.278C124.99 195.292 125.002 195.302 125.016 195.307C125.03 195.312 125.045 195.312 125.059 195.307ZM125.083 194.952C125.083 194.981 125.059 195.01 125.05 195.034C124.839 194.736 124.527 194.213 124.594 193.906C124.599 193.87 124.613 193.835 124.632 193.804C124.652 193.774 124.678 193.748 124.709 193.728H124.743C124.858 193.67 124.92 193.704 124.959 193.728C125.142 194.109 125.186 194.542 125.083 194.952ZM125.247 195.067C125.458 194.587 125.808 193.963 126.072 193.906C126.1 193.899 126.129 193.899 126.156 193.908C126.183 193.916 126.207 193.932 126.226 193.954C126.271 193.988 126.306 194.034 126.328 194.086C126.349 194.138 126.357 194.195 126.351 194.251C126.298 194.501 125.89 194.798 125.247 195.067Z" fill="#BA68C8"/>
<path d="M124.536 195.062L120.956 197.462C120.925 197.481 120.898 197.505 120.876 197.534C120.855 197.563 120.839 197.595 120.831 197.63C120.822 197.665 120.821 197.701 120.827 197.737C120.832 197.772 120.845 197.806 120.864 197.837L122.592 200.789C122.691 200.938 122.845 201.042 123.021 201.078C123.196 201.114 123.379 201.079 123.528 200.981C124.762 200.122 125.309 199.651 126.888 198.581C128.326 197.697 129.701 196.713 131.002 195.638C132.183 194.539 131.064 193.402 130.469 193.762C129.029 194.611 126.591 194.976 125.218 194.875C124.976 194.856 124.735 194.922 124.536 195.062Z" fill="#263238"/>
<path d="M115.479 195.317L122.511 190.637L120.888 187.33L113.271 192.614L115.479 195.317Z" fill="#BA68C8"/>
<path opacity="0.2" d="M115.479 195.317L122.511 190.637L120.888 187.33L113.271 192.614L115.479 195.317Z" fill="white"/>
<path opacity="0.2" d="M107.29 182.054C102.859 175.771 98.0259 169.094 96.9987 168.245C95.5587 167.074 81.3267 162.514 73.7859 160.152L72.9075 151.032L75.6627 150.552L75.9747 151.253C75.9747 151.253 93.1875 155.155 98.0547 157.594C101.189 159.134 105.399 174.533 107.29 182.054Z" fill="black"/>
<path d="M106.258 196.219C106.263 196.221 106.269 196.223 106.275 196.223C106.281 196.223 106.286 196.221 106.292 196.219C106.632 196.215 106.972 196.175 107.304 196.099C107.559 196.063 107.79 195.933 107.952 195.734C108 195.658 108.025 195.57 108.025 195.48C108.025 195.39 108 195.302 107.952 195.226C107.929 195.173 107.892 195.128 107.846 195.093C107.8 195.059 107.745 195.037 107.688 195.029C107.42 194.995 107.05 195.269 106.728 195.542C106.875 195.245 106.911 194.904 106.829 194.582C106.797 194.513 106.743 194.457 106.675 194.423C106.607 194.389 106.529 194.379 106.455 194.395C106.389 194.405 106.326 194.429 106.27 194.464C106.214 194.5 106.166 194.546 106.128 194.602C105.855 195.058 106.234 196.075 106.253 196.133L106.311 196.099L106.253 196.138C106.253 196.138 106.2 196.176 106.205 196.181L106.258 196.219ZM106.402 195.888L106.34 195.955C106.191 195.565 106.17 195.138 106.282 194.736C106.3 194.705 106.324 194.678 106.353 194.656C106.382 194.635 106.415 194.619 106.45 194.611H106.493C106.618 194.611 106.666 194.65 106.685 194.698C106.734 195.115 106.633 195.537 106.402 195.888ZM106.512 196.051C106.872 195.667 107.41 195.197 107.679 195.23C107.707 195.233 107.734 195.244 107.757 195.261C107.78 195.278 107.797 195.3 107.808 195.326C107.835 195.376 107.849 195.431 107.849 195.487C107.849 195.543 107.835 195.599 107.808 195.648C107.693 195.864 107.213 196.013 106.512 196.051Z" fill="#BA68C8"/>
<path d="M102.255 198.014L105.715 196.339L103.656 188.093L100.2 189.768L102.255 198.014Z" fill="#B55B52"/>
<path opacity="0.2" d="M100.2 189.768L103.656 188.098L104.832 192.811L101.328 194.314L100.2 189.768Z" fill="black"/>
<path d="M105.845 195.811L101.669 196.891C101.634 196.898 101.6 196.912 101.571 196.932C101.541 196.952 101.515 196.978 101.496 197.008C101.476 197.037 101.463 197.071 101.456 197.106C101.45 197.142 101.45 197.178 101.458 197.213L102.111 200.573C102.158 200.744 102.27 200.89 102.424 200.98C102.577 201.069 102.759 201.095 102.932 201.053C104.372 200.65 105.053 200.386 106.887 199.896C108.53 199.545 110.147 199.078 111.725 198.499C113.204 197.856 112.527 196.411 111.845 196.555C110.223 196.886 107.78 196.411 106.522 195.859C106.307 195.771 106.07 195.754 105.845 195.811Z" fill="#263238"/>
<path d="M105.341 189.658C105.341 189.658 99.4851 160.277 98.2851 158.53C96.3363 155.65 72.9027 151.008 72.9027 151.008L75.6531 150.528L72.4755 142.08L51.6099 142.901C51.6099 142.901 52.0467 156.686 54.1683 160.382C56.2899 164.078 87.6771 165.778 89.7171 166.622C91.7571 167.467 97.9827 190.512 97.9827 190.512L105.341 189.658Z" fill="#BA68C8"/>
<path opacity="0.4" d="M105.341 189.658C105.341 189.658 99.4851 160.277 98.2851 158.53C96.3363 155.65 72.9027 151.008 72.9027 151.008L75.6531 150.528L72.4755 142.08L51.6099 142.901C51.6099 142.901 52.0467 156.686 54.1683 160.382C56.2899 164.078 87.6771 165.778 89.7171 166.622C91.7571 167.467 97.9827 190.512 97.9827 190.512L105.341 189.658Z" fill="white"/>
<path d="M98.1075 193.114L106.296 191.03L105.859 187.373L96.9219 189.835L98.1075 193.114Z" fill="#BA68C8"/>
<path opacity="0.2" d="M98.1075 193.114L106.296 191.03L105.859 187.373L96.9219 189.835L98.1075 193.114Z" fill="white"/>
<path d="M58.2147 143.222L52.1667 143.122L52.0371 144.95L58.4739 145.104L58.2147 143.222Z" fill="#263238"/>
<path d="M59.146 143.189L59.41 145.09L72.9076 144.898L72.4708 143.165L59.146 143.189Z" fill="#263238"/>
<path d="M65.645 143.52L65.8178 144.773C65.843 144.926 65.9223 145.065 66.0412 145.164C66.1601 145.264 66.3108 145.317 66.4658 145.315L68.6258 145.248C68.6973 145.249 68.7682 145.235 68.8333 145.205C68.8984 145.175 68.956 145.132 69.002 145.077C69.048 145.022 69.0812 144.958 69.0992 144.889C69.1171 144.819 69.1194 144.747 69.1058 144.677L68.9282 143.419C68.9028 143.267 68.8234 143.128 68.7044 143.03C68.5854 142.931 68.4348 142.878 68.2802 142.882L66.125 142.949C66.0535 142.947 65.9826 142.962 65.9175 142.992C65.8524 143.021 65.7948 143.065 65.7488 143.12C65.7027 143.175 65.6696 143.239 65.6516 143.308C65.6337 143.377 65.6314 143.45 65.645 143.52Z" fill="white"/>
<path d="M52.138 142.853H71.962C72.1993 142.854 72.4288 142.768 72.6061 142.61C72.7833 142.452 72.8959 142.234 72.922 141.998C75.37 122.798 70.6948 116.17 70.6948 116.17C68.9147 115.661 67.0981 115.291 65.2612 115.061C62.5771 114.85 59.8831 114.792 57.1924 114.888C55.3593 114.937 53.5322 115.119 51.7252 115.43C50.7652 115.848 49.7716 120.125 50.7652 133.45C51.0244 136.939 51.0628 139.954 51.0388 141.72C51.0349 142.016 51.1484 142.301 51.3545 142.513C51.5605 142.726 51.8422 142.848 52.138 142.853Z" fill="#263238"/>
<path d="M67.9299 122.962H71.7507L72.0387 127.522L69.9891 128.851L67.9299 127.834V122.962Z" fill="#263238"/>
<path opacity="0.2" d="M72.9362 141.998C72.9101 142.234 72.7976 142.452 72.6203 142.61C72.443 142.768 72.2136 142.854 71.9762 142.853H52.1522C52.0037 142.853 51.8566 142.825 51.7194 142.768C51.5822 142.711 51.4577 142.627 51.3532 142.522C51.2486 142.416 51.1661 142.291 51.1104 142.154C51.0548 142.016 51.0271 141.868 51.029 141.72C51.029 139.954 51.029 136.92 50.7602 133.45C50.6226 131.53 50.5218 129.795 50.4578 128.246C50.3013 125.413 50.3173 122.572 50.5058 119.741C50.7458 116.861 51.2402 115.646 51.7394 115.421C53.5528 115.108 55.3864 114.927 57.2258 114.878C59.9149 114.782 62.6073 114.84 65.2898 115.051C67.1219 115.282 68.9336 115.652 70.709 116.16C70.709 116.16 75.3842 122.818 72.9362 141.998Z" fill="white"/>
<path d="M57.3892 114.691L63.7924 116.875L64.0516 115.042C63.4276 113.947 63.2692 113.256 63.7972 111.984L59.5252 107.074C59.6356 109.589 59.1796 113.026 57.3892 114.691Z" fill="#B55B52"/>
<path d="M61.4404 117.826L62.698 118.349L63.7924 119.035C63.7924 119.035 65.2564 127.416 64.8484 134.491L66.0772 135.499L67.3732 134.458C67.3732 134.458 65.7604 121.464 65.1796 118.934L65.434 118.325L66.0244 117.067L64.9348 116.496L63.202 116.875H61.9924L61.4404 117.826Z" fill="white"/>
<path opacity="0.2" d="M61.2627 109.075L63.7923 111.984C63.6024 112.43 63.4499 112.891 63.3363 113.362C62.2659 113.04 60.9363 111.614 60.9987 110.453C61.0022 109.981 61.0917 109.515 61.2627 109.075Z" fill="black"/>
<path d="M57.7876 113.53C59.5947 114.733 61.5258 115.739 63.5476 116.53C63.7684 115.636 63.7684 114.702 63.5476 113.808L66.3748 115.219C66.3748 115.219 66.61 117.413 65.962 118.579L63.8836 117.058L61.5508 118.978C61.5508 118.978 57.1348 117.274 56.4436 114.96L57.7876 113.53Z" fill="#263238"/>
<path opacity="0.2" d="M72.1924 130.56L65.6452 135.84C56.2468 137.933 52.114 132.072 50.4532 128.232C50.2966 125.398 50.3127 122.558 50.5012 119.726C52.7572 119.621 55.5652 119.621 56.3236 120.206C57.6436 121.219 62.242 128.318 62.9284 128.846C63.6148 129.374 72.1924 130.56 72.1924 130.56Z" fill="black"/>
<path d="M75.9172 130.31L79.3588 129.067L78.9364 133.675C78.9364 133.675 75.778 134.078 75.3892 132.418L75.9172 130.31Z" fill="#B55B52"/>
<path d="M82.2051 129.998L81.6819 133.795L78.9363 133.675L79.3587 129.067L82.2051 129.998Z" fill="#B55B52"/>
<path d="M55.8964 121.013C56.9116 123.018 58.0332 124.968 59.2564 126.854C60.0088 128.088 60.9517 129.194 62.05 130.133C62.1329 130.205 62.2291 130.26 62.3332 130.296C63.5353 130.614 64.7765 130.759 66.0196 130.728C69.5044 130.762 73.0516 130.44 76.5508 130.142L77.122 132.792C74.7778 133.556 72.3874 134.17 69.9652 134.63C67.3396 135.11 64.9444 135.47 62.1508 135.202C61.2496 135.107 60.3747 134.842 59.5732 134.419C56.4628 132.6 54.5572 129.658 52.7524 126.739C52.1044 125.606 51.514 124.55 50.9668 123.341L55.9108 121.003L55.8964 121.013Z" fill="#B65B52"/>
<path d="M51.7251 115.43C45.5331 117.662 53.5635 133.09 56.9427 134.818C60.3219 136.546 66.0243 135.84 66.0243 135.84L66.4275 130.478C66.4275 130.478 63.4707 130.118 62.5875 129.907C61.1811 129.571 58.3395 123.36 56.4243 119.986C55.3673 118.017 53.7253 116.426 51.7251 115.43Z" fill="#263238"/>
<path opacity="0.2" d="M51.7251 115.43C45.5331 117.662 53.5635 133.09 56.9427 134.818C60.3219 136.546 66.0243 135.84 66.0243 135.84L66.4275 130.478C66.4275 130.478 63.4707 130.118 62.5875 129.907C61.1811 129.571 58.3395 123.36 56.4243 119.986C55.3673 118.017 53.7253 116.426 51.7251 115.43Z" fill="white"/>
<path d="M65.6308 130.075L65.1316 136.301L66.9076 135.97L67.3732 130.406L65.6308 130.075Z" fill="#263238"/>
<path d="M70.5315 102.014C70.7763 103.454 70.1571 106.248 68.3571 105.067C66.5571 103.886 70.1043 99.5472 70.5315 102.014Z" fill="#263238"/>
<path d="M60.365 102.528C59.6738 106.042 59.0882 108.062 60.365 110.28C62.285 113.611 67.0034 113.102 68.7362 109.862C70.2962 106.939 71.165 101.702 68.1266 99.4608C67.4537 98.9702 66.6676 98.6578 65.8416 98.5525C65.0155 98.4472 64.1762 98.5524 63.4017 98.8585C62.6273 99.1646 61.9428 99.6615 61.4118 100.303C60.8809 100.945 60.5208 101.71 60.365 102.528Z" fill="#B55B52"/>
<path d="M58.6755 98.6544L62.6547 98.472L62.7603 100.757L62.5251 100.627C62.5251 100.627 62.2755 103.987 60.3699 105.106C57.7923 103.138 57.0339 99.9168 58.6755 98.6544Z" fill="#263238"/>
<path d="M58.2628 105.062C58.2877 105.506 58.4002 105.94 58.5938 106.339C58.7874 106.739 59.0583 107.096 59.3908 107.39C60.2884 108.173 61.258 107.496 61.4452 106.382C61.6132 105.379 61.3492 103.762 60.2404 103.406C59.9956 103.335 59.7368 103.324 59.4871 103.376C59.2373 103.429 59.0043 103.542 58.8087 103.705C58.6131 103.869 58.4609 104.079 58.3657 104.316C58.2705 104.552 58.2351 104.809 58.2628 105.062Z" fill="#B55B52"/>
<path d="M65.3667 104.818C65.2899 105.101 65.3667 105.365 65.5683 105.413C65.7699 105.461 65.9619 105.269 66.0483 104.986C66.1347 104.702 66.0483 104.438 65.8467 104.395C65.6451 104.352 65.4387 104.539 65.3667 104.818Z" fill="#263238"/>
<path d="M68.5587 105.624C68.4867 105.902 68.5587 106.171 68.7603 106.214C68.9619 106.258 69.1587 106.07 69.2403 105.792C69.3219 105.514 69.2403 105.245 69.0387 105.197C68.8371 105.149 68.6355 105.341 68.5587 105.624Z" fill="#263238"/>
<path d="M67.5075 105.509C67.6377 106.428 67.8962 107.325 68.2755 108.173C68.0465 108.254 67.8029 108.286 67.5606 108.267C67.3183 108.248 67.0827 108.178 66.8691 108.062L67.5075 105.509Z" fill="#A02724"/>
<path d="M65.074 108.758C65.1907 108.808 65.311 108.848 65.434 108.878C65.4562 108.883 65.4793 108.879 65.4988 108.868C65.5183 108.856 65.5329 108.838 65.5396 108.816C65.5424 108.805 65.5431 108.793 65.5415 108.782C65.54 108.771 65.5362 108.76 65.5304 108.75C65.5246 108.74 65.5169 108.732 65.5077 108.725C65.4986 108.718 65.4882 108.713 65.4772 108.71C65.1248 108.632 64.7964 108.47 64.5192 108.239C64.242 108.008 64.024 107.713 63.8836 107.381C63.875 107.36 63.8589 107.343 63.8385 107.333C63.8181 107.323 63.7948 107.322 63.7732 107.328C63.762 107.331 63.7517 107.337 63.7429 107.344C63.734 107.352 63.7268 107.361 63.7219 107.371C63.7169 107.382 63.7141 107.393 63.7139 107.405C63.7136 107.416 63.7158 107.428 63.7204 107.438C63.8424 107.74 64.0257 108.013 64.2587 108.24C64.4917 108.468 64.7693 108.644 65.074 108.758Z" fill="#263238"/>
<path d="M64.6515 103.546C64.6795 103.556 64.7099 103.559 64.7394 103.554C64.7689 103.549 64.7966 103.536 64.8195 103.517C64.9852 103.379 65.1808 103.281 65.3908 103.232C65.6008 103.183 65.8193 103.184 66.0291 103.234C66.0505 103.241 66.0732 103.244 66.0958 103.242C66.1184 103.241 66.1405 103.235 66.1606 103.224C66.1808 103.214 66.1987 103.2 66.2132 103.182C66.2277 103.165 66.2386 103.145 66.2451 103.123C66.2526 103.102 66.2557 103.08 66.2544 103.058C66.2531 103.036 66.2473 103.015 66.2375 102.995C66.2276 102.975 66.2138 102.958 66.197 102.943C66.1801 102.929 66.1606 102.918 66.1395 102.912C65.8757 102.842 65.5987 102.836 65.3322 102.895C65.0657 102.954 64.8173 103.077 64.6083 103.253C64.5903 103.266 64.5753 103.284 64.564 103.303C64.5528 103.323 64.5456 103.344 64.5429 103.367C64.5403 103.389 64.5421 103.412 64.5484 103.433C64.5547 103.455 64.5652 103.475 64.5795 103.493C64.5992 103.516 64.6238 103.534 64.6515 103.546Z" fill="#263238"/>
<path d="M70.2242 104.875C70.2534 104.886 70.2848 104.888 70.3154 104.883C70.3459 104.878 70.3745 104.864 70.3983 104.844C70.4221 104.824 70.4402 104.799 70.451 104.769C70.4617 104.74 70.4646 104.709 70.4594 104.678C70.4087 104.412 70.2952 104.161 70.1282 103.948C69.9612 103.734 69.7457 103.563 69.4994 103.45C69.4567 103.434 69.4094 103.435 69.3674 103.452C69.3254 103.47 69.2919 103.504 69.2738 103.546C69.2579 103.588 69.2591 103.634 69.277 103.675C69.2949 103.717 69.3282 103.749 69.3698 103.766C69.561 103.855 69.7279 103.989 69.8565 104.156C69.9852 104.323 70.0718 104.519 70.109 104.726C70.1129 104.759 70.1256 104.791 70.1459 104.817C70.1662 104.843 70.1933 104.863 70.2242 104.875Z" fill="#263238"/>
<path d="M61.2964 101.482C61.3728 101.546 61.4547 101.604 61.5412 101.654C61.7717 101.792 62.033 101.87 62.3013 101.881C62.5696 101.892 62.8363 101.835 63.0772 101.717C64.066 101.237 64.378 98.4144 67.1908 99.8496C67.4998 99.7751 67.8238 99.7917 68.1237 99.8973C68.4235 100.003 68.6863 100.193 68.8804 100.445C69.6052 101.333 69.106 104.573 70.6516 104.126C72.1972 103.68 71.9284 103.2 71.9284 103.2C71.9284 103.2 71.4964 103.474 71.242 103.258C71.4712 103.065 71.6345 102.805 71.7094 102.516C71.7842 102.226 71.7668 101.92 71.6596 101.64C71.6596 101.64 71.2852 102.086 71.0356 102C71.2934 100.689 71.1443 99.3309 70.6084 98.1072C69.7108 95.8704 64.2196 96.3696 64.2196 96.3696C64.2196 96.3696 63.5284 95.2128 61.0468 96.0192C58.5652 96.8256 57.4324 99.816 57.826 101.117" fill="#263238"/>
<path d="M94.0609 133.315L93.7057 131.976H79.1473L72.4465 132.643L72.1921 133.315H94.0609Z" fill="#263238"/>
<path opacity="0.5" d="M94.0609 133.315L93.7057 131.976H79.1473L72.4465 132.643L72.1921 133.315H94.0609Z" fill="white"/>
<path opacity="0.2" d="M79.1475 131.976V133.315H94.0611L93.7059 131.976H79.1475Z" fill="black"/>
<path d="M84.0721 125.563C84.053 125.726 84.0687 125.89 84.1183 126.046C84.1679 126.202 84.2503 126.345 84.3598 126.466C84.4694 126.588 84.6036 126.684 84.7535 126.75C84.9034 126.815 85.0655 126.847 85.2289 126.845H107.53C107.878 126.836 108.212 126.702 108.469 126.466C108.726 126.231 108.888 125.91 108.927 125.563L110.251 111.288C110.264 111.15 110.254 111.01 110.223 110.875C110.161 110.624 110.016 110.4 109.811 110.243C109.606 110.085 109.353 110.001 109.095 110.006H86.7937C86.4452 110.015 86.1116 110.149 85.8547 110.385C85.5978 110.621 85.4352 110.941 85.3969 111.288L84.0721 125.563Z" fill="#263238"/>
<path opacity="0.5" d="M84.0721 125.563C84.053 125.726 84.0687 125.89 84.1183 126.046C84.1679 126.202 84.2503 126.345 84.3598 126.466C84.4694 126.588 84.6036 126.684 84.7535 126.75C84.9034 126.815 85.0655 126.847 85.2289 126.845H107.53C107.878 126.836 108.212 126.702 108.469 126.466C108.726 126.231 108.888 125.91 108.927 125.563L110.251 111.288C110.264 111.15 110.254 111.01 110.223 110.875C110.161 110.624 110.016 110.4 109.811 110.243C109.606 110.085 109.353 110.001 109.095 110.006H86.7937C86.4452 110.015 86.1116 110.149 85.8547 110.385C85.5978 110.621 85.4352 110.941 85.3969 111.288L84.0721 125.563Z" fill="white"/>
<path opacity="0.1" d="M85.325 126.845H107.544C107.893 126.836 108.226 126.702 108.483 126.466C108.74 126.231 108.903 125.91 108.941 125.563L110.266 111.288C110.278 111.15 110.269 111.01 110.237 110.875H88.013C87.6653 110.885 87.3328 111.02 87.0769 111.255C86.8211 111.491 86.6591 111.811 86.621 112.157L85.2962 126.432C85.2811 126.57 85.2909 126.71 85.325 126.845Z" fill="black"/>
<path d="M100.627 118.09H96.0146L97.2434 131.299L89.9521 132.394V133.315H105.317V132.394L102.168 131.299L100.627 118.09Z" fill="#263238"/>
<path opacity="0.5" d="M100.627 118.09H96.0146L97.2434 131.299L89.9521 132.394V133.315H105.317V132.394L102.168 131.299L100.627 118.09Z" fill="white"/>
<path opacity="0.2" d="M96.0146 118.09L99.4322 133.104L102.168 133.022L100.627 118.09H96.0146Z" fill="white"/>
<path d="M57.9363 200.218H85.8723C85.9446 200.218 86.0162 200.203 86.0829 200.175C86.1496 200.148 86.2101 200.107 86.261 200.056C86.3118 200.004 86.3521 199.943 86.3793 199.876C86.4065 199.81 86.4202 199.738 86.4195 199.666V197.885C86.4195 197.74 86.3619 197.6 86.2593 197.498C86.1566 197.395 86.0175 197.338 85.8723 197.338H59.3763V140.304H85.4211C85.6859 140.304 85.9399 140.199 86.1271 140.012C86.3143 139.824 86.4195 139.57 86.4195 139.306V137.424H57.9363C57.5544 137.424 57.1882 137.576 56.9181 137.846C56.6481 138.116 56.4963 138.482 56.4963 138.864V198.778C56.4963 199.16 56.6481 199.526 56.9181 199.796C57.1882 200.066 57.5544 200.218 57.9363 200.218Z" fill="#263238"/>
<g opacity="0.4">
<path d="M57.9363 200.218H85.8723C85.9446 200.218 86.0162 200.203 86.0829 200.175C86.1496 200.148 86.2101 200.107 86.261 200.056C86.3118 200.004 86.3521 199.943 86.3793 199.876C86.4065 199.81 86.4202 199.738 86.4195 199.666V197.885C86.4195 197.74 86.3619 197.6 86.2593 197.498C86.1566 197.395 86.0175 197.338 85.8723 197.338H59.3763V140.304H85.4211C85.6859 140.304 85.9399 140.199 86.1271 140.012C86.3143 139.824 86.4195 139.57 86.4195 139.306V137.424H57.9363C57.5544 137.424 57.1882 137.576 56.9181 137.846C56.6481 138.116 56.4963 138.482 56.4963 138.864V198.778C56.4963 199.16 56.6481 199.526 56.9181 199.796C57.1882 200.066 57.5544 200.218 57.9363 200.218Z" fill="white"/>
</g>
<path d="M127.997 137.904H54.3554C54.1085 137.904 53.8716 137.806 53.697 137.631C53.5223 137.457 53.4242 137.22 53.4242 136.973V134.707H128.928V136.978C128.927 137.224 128.828 137.459 128.654 137.633C128.479 137.807 128.243 137.904 127.997 137.904Z" fill="#BA68C8"/>
<path opacity="0.2" d="M53.4242 136.301H128.928V134.702H53.4242V136.301Z" fill="black"/>
<path d="M51.845 135.115H130.517C130.756 135.115 130.984 135.021 131.153 134.853C131.323 134.684 131.418 134.456 131.419 134.218C131.419 133.978 131.324 133.749 131.155 133.58C130.986 133.41 130.756 133.315 130.517 133.315H51.845C51.6057 133.315 51.3762 133.41 51.2069 133.58C51.0377 133.749 50.9426 133.978 50.9426 134.218C50.9439 134.456 51.0395 134.684 51.2086 134.853C51.3777 135.021 51.6065 135.115 51.845 135.115Z" fill="#BA68C8"/>
</g>
<defs>
<clipPath id="clip0_434_9692">
<rect width="240" height="240" fill="white" transform="translate(0.36499)"/>
</clipPath>
</defs>
</svg>
