<svg width="241" height="240" viewBox="0 0 241 240" fill="none" xmlns="http://www.w3.org/2000/svg">
<path d="M193.36 192.642H210.235V187.27H193.36V192.642Z" fill="#EBEBEB"/>
<path d="M90.7921 106.064H107.668V100.693H90.7921V106.064Z" fill="#EBEBEB"/>
<path d="M202.773 199.414C205.576 199.367 212.763 199.247 215.468 199.216L219.649 199.195L219.43 199.414L219.409 194.043L219.649 194.282C216.847 194.274 209.7 194.248 206.992 194.209L202.773 194.157L202.887 194.043L202.773 199.414ZM202.773 199.414L202.66 194.043L202.657 193.93L202.773 193.929C204.879 193.901 209.106 193.853 211.211 193.836L219.649 193.803L219.89 193.802L219.889 194.043L219.868 199.414L219.867 199.634L219.649 199.633L215.393 199.612C212.704 199.582 205.55 199.462 202.773 199.414Z" fill="#EBEBEB"/>
<path d="M122.525 159.374C125.328 159.327 132.515 159.207 135.22 159.176L139.401 159.155L139.182 159.374L139.161 154.003L139.401 154.243C136.598 154.234 129.451 154.208 126.744 154.169L122.525 154.117L122.639 154.003L122.525 159.374ZM122.525 159.374L122.412 154.003L122.409 153.891L122.525 153.889C124.631 153.862 128.859 153.813 130.963 153.796L139.401 153.764L139.642 153.763L139.641 154.003L139.62 159.374L139.619 159.594L139.401 159.593L135.144 159.573C132.456 159.543 125.302 159.422 122.525 159.374Z" fill="#EBEBEB"/>
<path d="M131.939 166.147C134.742 166.1 141.929 165.98 144.634 165.949L148.815 165.928L148.596 166.147L148.575 160.776L148.815 161.015C146.013 161.007 138.865 160.981 136.158 160.942L131.939 160.89L132.053 160.776L131.939 166.147ZM131.939 166.147L131.826 160.776L131.823 160.664L131.939 160.662C134.045 160.634 138.273 160.586 140.377 160.569L148.815 160.536L149.056 160.535L149.055 160.776L149.034 166.147L149.033 166.367L148.815 166.366L144.558 166.345C141.87 166.316 134.716 166.195 131.939 166.147Z" fill="#EBEBEB"/>
<path d="M141.316 159.374H158.191V154.003H141.316V159.374Z" fill="#EBEBEB"/>
<path d="M21.0822 199.414H37.958V194.043H21.0822V199.414Z" fill="#EBEBEB"/>
<path d="M30.4962 26.9392L47.3721 26.9392V21.568H30.4962V26.9392Z" fill="#EBEBEB"/>
<path d="M21.082 33.7118L29.578 33.5711L33.7765 33.5135L37.9578 33.4929L37.7389 33.7118L37.7178 28.3406L37.9573 28.5801L29.5194 28.5474L25.3007 28.5066L21.0825 28.4543L21.1962 28.3406L21.082 33.7118ZM21.082 33.7118L20.9682 28.3406L20.9658 28.2278L21.0825 28.2263L25.3012 28.174L29.5199 28.1332L37.9578 28.1006L38.1983 28.0996L38.1973 28.3406L38.1762 33.7118L38.1753 33.9316L37.9573 33.9307L33.7007 33.91L29.4613 33.8524L21.082 33.7118Z" fill="#EBEBEB"/>
<path d="M193.359 26.939L201.855 26.7983L206.054 26.7407L210.235 26.7201L210.016 26.939L209.995 21.5678L210.235 21.8073L201.797 21.7747L197.578 21.7339L193.359 21.6815L193.473 21.5678L193.359 26.939ZM193.359 26.939L193.246 21.5678L193.243 21.455L193.359 21.4535L197.578 21.4012L201.797 21.3604L210.235 21.3278L210.476 21.3268L210.475 21.5673L210.454 26.9385L210.453 27.1583L210.235 27.1574L205.978 27.1367L201.739 27.0791L193.359 26.939Z" fill="#EBEBEB"/>
<path d="M159.743 211.888H215.791L217.593 176.325H157.94L159.743 211.888Z" fill="#EBEBEB"/>
<path d="M161.874 180.477H212.242L211.477 192.385H162.529L161.874 180.477Z" stroke="#DBDBDB" stroke-miterlimit="10"/>
<path d="M163.417 195.882L163.95 206.59H210.808L211.477 195.882H163.417Z" stroke="#DBDBDB" stroke-miterlimit="10"/>
<path d="M192.487 187.551H182.408L182.08 185.011H192.815L192.487 187.551Z" stroke="#DBDBDB" stroke-miterlimit="10"/>
<path d="M192.487 202.506H182.408L182.08 199.966H192.815L192.487 202.506Z" stroke="#DBDBDB" stroke-miterlimit="10"/>
<path d="M167.516 211.888L166.972 215.762L165.877 223.547H163.736V211.888H167.516Z" fill="#EBEBEB"/>
<path d="M167.516 211.888L166.972 215.762H163.736V211.888H167.516Z" fill="#DBDBDB"/>
<path d="M208.018 211.888L208.561 215.762L209.656 223.547H211.797V211.888H208.018Z" fill="#EBEBEB"/>
<path d="M208.018 211.888L208.561 215.762H211.797V211.888H208.018Z" fill="#DBDBDB"/>
<path d="M220.556 18.5255H140.368V87.4727H220.556V18.5255Z" stroke="#EBEBEB" stroke-miterlimit="10"/>
<path d="M144.151 20.9419C144.151 21.4838 143.712 21.923 143.17 21.923C142.628 21.923 142.188 21.4838 142.188 20.9419C142.188 20.4 142.628 19.9608 143.17 19.9608C143.712 19.9603 144.151 20.3995 144.151 20.9419Z" fill="#A6A6A6"/>
<path d="M148.158 20.9419C148.158 21.4838 147.718 21.923 147.176 21.923C146.635 21.923 146.195 21.4838 146.195 20.9419C146.195 20.4 146.635 19.9608 147.176 19.9608C147.718 19.9603 148.158 20.3995 148.158 20.9419Z" fill="#EBEBEB"/>
<path d="M152.164 20.9419C152.164 21.4838 151.725 21.923 151.183 21.923C150.641 21.923 150.202 21.4838 150.202 20.9419C150.202 20.4 150.641 19.9608 151.183 19.9608C151.725 19.9603 152.164 20.3995 152.164 20.9419Z" fill="#BA68C8"/>
<path d="M140.368 23.3347H220.556" stroke="#EBEBEB" stroke-miterlimit="10"/>
<path d="M193.247 170.273C193.639 172.962 193.493 175.735 192.837 178.366C192.53 179.599 192.107 180.787 191.597 181.944C190.954 183.425 190.281 184.871 190.443 186.491C190.599 186.596 190.063 186.578 190.046 186.421C185.716 183.956 180.164 183.504 176.832 179.474C175.253 177.565 174.458 175.146 174.08 172.727C173.67 170.093 173.556 167.176 174.236 164.579C174.808 162.383 176.092 160.265 178.155 159.189C180.286 158.081 183.075 158.173 185.318 158.869C190.156 160.372 192.562 165.593 193.247 170.273Z" fill="#BA68C8"/>
<path d="M195.469 202.324C194.878 200.354 194.288 198.385 193.681 196.42C192.493 192.572 191.258 188.738 189.891 184.95C189.072 182.68 188.209 180.433 187.3 178.207C187.455 176.809 187.516 175.415 187.817 174.022C188.178 172.343 188.705 170.722 189.194 169.079C189.224 168.979 189.061 168.925 189.019 169.021C188.047 171.285 186.779 174.18 186.747 176.861C185.69 174.342 184.56 171.858 183.344 169.412C183.276 167.327 183.199 165.307 183.535 163.209C183.55 163.114 183.406 163.086 183.389 163.18C183.064 164.942 182.835 166.831 182.965 168.657C182.034 166.819 181.054 165.004 180.011 163.217C179.917 163.056 179.694 163.221 179.777 163.379C181.404 166.512 182.913 169.711 184.329 172.952C182.368 171.212 179.993 169.895 177.541 169.02C177.433 168.982 177.352 169.138 177.462 169.184C180.252 170.351 182.595 171.999 184.804 174.045C185.822 176.418 186.791 178.812 187.714 181.222C185.005 178.566 181.298 176.819 177.712 175.882C177.589 175.85 177.557 176.037 177.675 176.073C181.825 177.322 185.048 179.675 188.204 182.501C188.571 183.476 188.931 184.453 189.284 185.431C190.621 189.142 191.888 192.877 193.104 196.629C193.686 198.428 194.26 200.229 194.823 202.034C195.428 203.975 195.902 206.026 196.69 207.9C196.765 208.079 197.087 208.039 197.046 207.824C196.69 205.964 196.013 204.136 195.469 202.324Z" fill="#263238"/>
<path d="M188.288 166.484C187.512 167.673 186.994 168.979 186.728 170.371C186.721 170.406 186.777 170.427 186.79 170.391C187.272 169.082 187.84 167.817 188.481 166.578C188.546 166.451 188.361 166.371 188.288 166.484Z" fill="#263238"/>
<path d="M180.564 175.504C179.443 174.867 177.955 174.364 176.678 174.196C176.643 174.191 176.621 174.243 176.657 174.258C177.282 174.517 177.939 174.698 178.571 174.941C179.206 175.185 179.824 175.481 180.466 175.704C180.6 175.751 180.691 175.577 180.564 175.504Z" fill="#263238"/>
<path d="M178.387 164.653C177.994 164.392 177.575 164.058 177.137 163.881C177.069 163.853 177.009 163.938 177.065 163.991C177.412 164.31 177.895 164.547 178.298 164.79C178.377 164.838 178.466 164.704 178.387 164.653Z" fill="#263238"/>
<path d="M207.841 184.979C204.723 185.904 201.589 186.76 198.471 187.675C198.201 187.756 192.929 177.655 194.834 172.451C196.595 167.635 200.626 164.03 205.433 162.394C207.66 161.638 210.397 161.003 212.749 161.521C214.84 161.984 216.317 163.695 216.997 165.662C217.923 168.335 217.614 171.524 217.111 174.253C216.643 176.784 215.716 179.277 214.043 181.265C212.386 183.234 210.273 184.258 207.841 184.979Z" fill="#BA68C8"/>
<path d="M212.363 175.378C210.377 176.38 208.366 177.105 206.249 177.785C204.923 178.211 203.439 178.596 202.168 179.263C203.484 176.327 204.929 173.452 206.464 170.604C208.478 170.021 210.596 169.112 212.116 167.686C212.199 167.608 212.092 167.492 212.002 167.555C210.34 168.729 208.508 169.434 206.67 170.228C207.085 169.462 207.503 168.696 207.93 167.932C208.049 167.72 207.756 167.508 207.613 167.715C205.979 170.074 204.508 172.573 203.182 175.157C202.853 172.878 202.735 170.657 202.862 168.339C202.865 168.28 202.78 168.275 202.771 168.332C202.385 170.784 202.404 173.379 202.848 175.823C201.754 178.006 200.758 180.242 199.863 182.506C199.507 181.146 199.045 179.807 198.736 178.436C198.292 176.462 198.084 174.452 198.289 172.433C198.294 172.374 198.208 172.37 198.198 172.426C197.593 176.005 198.145 180.046 199.506 183.445C198.985 184.808 198.488 186.177 198.033 187.547C195.704 194.563 194.269 201.797 193.894 209.182C193.885 209.353 194.138 209.37 194.157 209.202C195.004 201.957 196.501 194.746 198.804 187.821C199.708 185.102 200.75 182.462 201.892 179.872C203.733 179.328 205.568 178.59 207.377 177.963C209.142 177.351 210.951 176.644 212.433 175.484C212.49 175.439 212.427 175.346 212.363 175.378Z" fill="#263238"/>
<path d="M215.27 172.444C213.363 173.122 211.555 174.072 209.65 174.76C209.561 174.792 209.612 174.934 209.702 174.915C211.718 174.499 213.717 173.876 215.342 172.554C215.405 172.503 215.336 172.421 215.27 172.444Z" fill="#263238"/>
<path d="M199.698 168.33C199.721 168.229 199.573 168.17 199.542 168.274C199.019 170.032 198.658 171.898 199.167 173.695C199.188 173.765 199.298 173.767 199.302 173.686C199.393 171.876 199.292 170.114 199.698 168.33Z" fill="#263238"/>
<path d="M207.578 164.269C206.939 165.085 206.709 166.243 206.751 167.258C206.754 167.326 206.861 167.364 206.879 167.285C207.111 166.28 207.5 165.363 207.808 164.386C207.854 164.242 207.669 164.153 207.578 164.269Z" fill="#263238"/>
<path d="M170.751 189.434C171.665 192.335 173.837 196.346 177.278 196.378C179.508 196.399 181.754 196.135 183.989 196.103C186.383 196.066 188.782 196.071 191.171 196.214C191.366 196.224 190.884 189.046 185.13 185.55C183.519 184.571 181.548 184.26 179.719 183.864C177.626 183.409 175.47 183.103 173.324 183.198C172.003 183.251 170.904 183.531 170.434 184.884C169.943 186.3 170.312 188.055 170.751 189.434Z" fill="#BA68C8"/>
<path d="M173.227 185.803C174.625 186.163 176.036 186.576 177.439 187.021C177.064 186.633 176.698 186.239 176.279 185.891C175.677 185.389 175.014 184.99 174.368 184.551C174.313 184.514 174.346 184.41 174.415 184.438C175.691 184.939 177.018 185.986 177.808 187.136C179.557 187.701 181.289 188.325 182.956 189.009C184.139 189.494 185.23 190.073 186.252 190.744C185.885 190.034 185.55 189.305 185.059 188.669C184.296 187.679 183.263 187.128 182.263 186.426C182.169 186.359 182.249 186.226 182.353 186.273C184.61 187.276 185.984 188.904 186.84 191.138C188.02 191.98 189.101 192.962 190.103 194.101C193.91 198.425 196.908 204.178 196.919 210.048C196.919 210.188 196.695 210.227 196.667 210.082C195.587 204.251 193.284 199.015 189.408 194.489C189.136 194.171 188.856 193.868 188.571 193.575C187.524 193.465 186.487 193.326 185.426 193.342C184.201 193.361 182.986 193.522 181.766 193.621C179.758 193.784 177.537 193.808 175.725 192.797C175.645 192.753 175.699 192.614 175.789 192.646C179.828 194.115 184.064 192.252 188.112 193.128C186.385 191.471 184.423 190.223 182.142 189.277C182.019 189.226 181.895 189.179 181.771 189.129C179.179 189.44 176.442 190.115 173.918 189.273C173.843 189.248 173.873 189.134 173.951 189.154C176.39 189.763 178.729 188.997 181.137 188.875C178.516 187.854 175.845 187.043 173.215 186.029C172.993 185.944 172.988 185.742 173.227 185.803Z" fill="#263238"/>
<path d="M172.083 188.355C173.349 188.563 174.584 188.57 175.856 188.64C175.885 188.642 175.894 188.686 175.863 188.693C174.623 188.972 173.266 188.8 172.057 188.45C171.995 188.433 172.021 188.345 172.083 188.355Z" fill="#263238"/>
<path d="M180.604 185.866C181.292 186.105 181.933 186.688 182.471 187.165C182.537 187.223 182.449 187.341 182.376 187.288C182.06 187.057 181.734 186.84 181.405 186.628C181.105 186.434 180.77 186.28 180.496 186.052C180.41 185.982 180.502 185.831 180.604 185.866Z" fill="#263238"/>
<path d="M200.918 195.208C200.876 195.303 201.013 195.393 201.066 195.293C201.071 195.293 201.071 195.293 201.071 195.287C201.092 195.314 201.119 195.34 201.161 195.346C203.486 195.848 205.822 196.36 208.19 196.571C210.092 196.74 212.285 196.846 213.95 195.742C216.206 194.246 217.691 190.246 216.47 187.704C215.028 184.687 210.678 186.324 208.496 187.397C205.141 189.036 202.445 191.805 200.918 195.208Z" fill="#BA68C8"/>
<path d="M199.231 196.603C200.511 195.351 201.927 194.308 203.428 193.409C204.457 191.662 206.036 190.211 207.684 189.071C207.766 189.014 207.837 189.145 207.761 189.203C206.34 190.297 205.231 191.58 204.175 192.976C205.854 192.039 207.629 191.267 209.44 190.581C210.071 189.425 211.097 188.343 212.268 187.747C212.292 187.735 212.321 187.768 212.298 187.786C211.277 188.585 210.458 189.415 209.744 190.467C210.814 190.067 211.894 189.695 212.974 189.337C213.071 189.305 213.108 189.453 213.015 189.489C211.093 190.24 209.128 191.032 207.223 191.946C209.627 192.268 211.792 192.343 214.238 191.925C214.302 191.914 214.33 192.006 214.265 192.025C211.906 192.698 209.2 192.823 206.822 192.136C205.607 192.733 204.421 193.384 203.292 194.113C204.237 193.99 205.187 194.156 206.145 194.346C207.815 194.678 209.449 194.973 211.159 194.914C211.223 194.912 211.239 195.016 211.174 195.028C208.265 195.528 205.515 194.206 202.632 194.55C201.565 195.284 200.555 196.094 199.629 197.002C197.817 198.781 196.368 200.907 195.25 203.181C194.037 205.651 193.378 208.27 192.398 210.821C192.354 210.933 192.199 210.89 192.219 210.772C193.059 205.74 195.565 200.19 199.231 196.603Z" fill="#263238"/>
<path d="M208.004 189.702C208.173 189.355 208.471 189.059 208.749 188.798C208.993 188.57 209.29 188.275 209.608 188.156C209.637 188.145 209.653 188.184 209.636 188.204C209.398 188.475 209.065 188.673 208.809 188.932C208.549 189.193 208.335 189.499 208.072 189.755C208.035 189.79 207.982 189.746 208.004 189.702Z" fill="#263238"/>
<path d="M212.802 191.265C213.233 191.157 213.69 191.164 214.128 191.074C214.572 190.984 214.985 190.825 215.414 190.69C215.471 190.672 215.504 190.754 215.454 190.784C214.746 191.205 213.629 191.562 212.802 191.4C212.733 191.386 212.737 191.281 212.802 191.265Z" fill="#263238"/>
<path d="M187.246 204.571L187.628 208.907L188.924 223.547H200.389L202.008 208.907L202.486 204.571H187.246Z" fill="#37474F"/>
<path d="M187.246 204.571L187.628 208.907H202.008L202.486 204.571H187.246Z" fill="#263238"/>
<path d="M186.111 206.906H203.621V203.389H186.111V206.906Z" fill="#37474F"/>
<path d="M23.1377 223.547L47.4444 223.43L71.7511 223.388L120.365 223.307L168.979 223.388L193.286 223.43L217.592 223.547L193.286 223.665L168.979 223.707L120.365 223.786L71.7511 223.706L47.4444 223.664L23.1377 223.547Z" fill="#263238"/>
<path d="M208.751 27.1799H31.9805V139.011H208.751V27.1799Z" fill="white"/>
<path d="M208.75 139.011C208.721 139.039 31.942 139.064 31.9069 139.084C31.8685 139.058 31.8877 27.2236 31.8604 27.1799V27.0604H31.9799C31.9996 27.0431 208.773 27.1458 208.796 27.1334C208.836 27.1593 208.722 138.977 208.75 139.011ZM208.75 139.011C208.76 139.034 208.641 26.975 208.75 27.2265L31.9804 27.2994L32.0999 27.1799C32.0869 27.1434 32.1503 139.332 31.9808 138.938C31.9804 138.938 208.75 139.011 208.75 139.011Z" fill="#263238"/>
<path d="M208.751 27.1799H31.9805V31.4831H208.751V27.1799Z" fill="#263238"/>
<path d="M36.1302 29.3318C36.1302 29.8108 35.7419 30.1987 35.2634 30.1987C34.7848 30.1987 34.3965 29.8103 34.3965 29.3318C34.3965 28.8532 34.7848 28.4649 35.2634 28.4649C35.7424 28.4649 36.1302 28.8527 36.1302 29.3318Z" fill="#BA68C8"/>
<path d="M39.6703 29.3318C39.6703 29.8108 39.282 30.1987 38.8034 30.1987C38.3244 30.1987 37.9365 29.8103 37.9365 29.3318C37.9365 28.8532 38.3244 28.4649 38.8034 28.4649C39.282 28.4649 39.6703 28.8527 39.6703 29.3318Z" fill="white"/>
<path d="M43.2103 29.3318C43.2103 29.8108 42.822 30.1987 42.3434 30.1987C41.8649 30.1987 41.4766 29.8103 41.4766 29.3318C41.4766 28.8532 41.8649 28.4649 42.3434 28.4649C42.822 28.4649 43.2103 28.8527 43.2103 29.3318Z" fill="#455A64"/>
<path d="M85.4944 85.605H67.2256V109.561H85.4944V85.605Z" fill="#EBEBEB"/>
<path d="M107.497 85.605H89.2285V109.561H107.497V85.605Z" fill="#EBEBEB"/>
<path d="M129.5 85.605H111.231V109.561H129.5V85.605Z" fill="#EBEBEB"/>
<path d="M151.502 85.605H133.233V109.561H151.502V85.605Z" fill="#EBEBEB"/>
<path d="M173.505 85.605H155.236V109.561H173.505V85.605Z" fill="#EBEBEB"/>
<path d="M79 96.3484C79.8765 97.2067 80.3056 98.3515 80.3056 99.4958C80.3056 100.623 79.8587 101.767 79 102.625C78.1418 103.502 76.9975 103.931 75.8704 103.931C75.8344 103.931 75.8344 103.931 75.8344 103.931C74.7256 103.931 73.5635 103.502 72.7226 102.625C72.3112 102.25 72.3112 101.606 72.7226 101.194C73.0984 100.801 73.7599 100.801 74.1535 101.194C74.6181 101.678 75.2263 101.91 75.8704 101.91C76.4781 101.91 77.1045 101.677 77.5691 101.194C78.0343 100.729 78.2843 100.104 78.2843 99.4958C78.2843 98.8521 78.052 98.2444 77.5691 97.7793C77.104 97.2959 76.4959 97.0814 75.8704 97.0814C75.2623 97.0814 74.6181 97.2959 74.1535 97.7793C73.7599 98.1724 73.1162 98.1724 72.7226 97.7793C72.6511 97.7078 72.5973 97.618 72.5258 97.5465C72.5258 97.511 72.5258 97.4927 72.508 97.4927C72.508 97.4567 72.4903 97.4212 72.472 97.4035C72.472 97.3497 72.4543 97.3142 72.4543 97.2782C72.4543 97.2604 72.4365 97.2604 72.4365 97.2422C72.4187 97.1351 72.4187 97.0276 72.4365 96.9383L72.9727 92.3068C73.0264 92.003 73.1872 91.7524 73.4195 91.5911C73.4555 91.5734 73.4733 91.5734 73.4911 91.5551C73.5088 91.5374 73.5271 91.5374 73.5448 91.5191C73.6879 91.4481 73.8309 91.4121 74.0099 91.4121H79.2856C79.8578 91.4121 80.3047 91.859 80.3047 92.4316C80.3047 92.9683 79.8578 93.4334 79.2856 93.4334H74.8859L74.6714 95.2036C75.065 95.0966 75.4763 95.0428 75.8699 95.0428C76.9975 95.0428 78.1418 95.4719 79 96.3484Z" fill="#C7C7C7"/>
<path d="M100.997 96.3306C101.873 97.1889 102.302 98.3332 102.302 99.4602C102.302 100.586 101.873 101.731 100.997 102.608C100.138 103.466 98.9936 103.913 97.8492 103.913C96.7227 103.913 95.5779 103.466 94.7196 102.608C94.3265 102.214 94.3265 101.57 94.7196 101.177C95.1132 100.784 95.7569 100.784 96.1505 101.177C96.6156 101.642 97.2238 101.874 97.8492 101.874C98.4752 101.874 99.0828 101.641 99.5662 101.177C100.049 100.694 100.281 100.086 100.281 99.4602C100.281 98.8343 100.049 98.2257 99.5662 97.761C99.1011 97.2782 98.4934 97.0636 97.8675 97.0463C97.5814 97.0641 97.3131 96.9388 97.134 96.7242C97.1163 96.7242 97.1163 96.7242 97.1163 96.7065C96.7049 96.3129 96.7049 95.687 97.0803 95.2756L98.9043 93.4156H96.007C95.4526 93.4156 95.0057 92.9687 95.0057 92.3961C95.0057 91.8417 95.4526 91.3948 96.007 91.3948H101.283C101.855 91.3948 102.302 91.8417 102.302 92.3961C102.302 92.5746 102.249 92.7359 102.177 92.8794C102.124 92.9687 102.07 93.058 101.998 93.1295L99.7452 95.4546C100.209 95.6687 100.639 95.9553 100.997 96.3306Z" fill="#C7C7C7"/>
<path d="M122.999 96.3306C123.875 97.1889 124.304 98.3332 124.304 99.4602C124.304 100.586 123.875 101.731 122.999 102.608C122.14 103.466 120.996 103.913 119.851 103.913C118.725 103.913 117.58 103.466 116.722 102.608C116.328 102.214 116.328 101.57 116.722 101.177C117.115 100.784 117.759 100.784 118.152 101.177C118.618 101.642 119.226 101.874 119.851 101.874C120.477 101.874 121.085 101.641 121.568 101.177C122.051 100.694 122.283 100.086 122.283 99.4602C122.283 98.8343 122.051 98.2257 121.568 97.761C121.103 97.2782 120.495 97.0636 119.869 97.0463C119.583 97.0641 119.315 96.9388 119.136 96.7242C119.118 96.7242 119.118 96.7242 119.118 96.7065C118.707 96.3129 118.707 95.687 119.082 95.2756L120.906 93.4156H118.009C117.455 93.4156 117.008 92.9687 117.008 92.3961C117.008 91.8417 117.455 91.3948 118.009 91.3948H123.285C123.857 91.3948 124.304 91.8417 124.304 92.3961C124.304 92.5746 124.25 92.7359 124.179 92.8794C124.126 92.9687 124.072 93.058 124 93.1295L121.747 95.4546C122.212 95.6687 122.641 95.9553 122.999 96.3306Z" fill="#C7C7C7"/>
<path d="M146.642 99.6753C146.642 102.018 144.728 103.931 142.386 103.931C140.025 103.931 138.094 102.018 138.094 99.6753C138.094 98.1911 138.845 96.8855 140.008 96.1166C139.632 95.6332 139.417 95.0073 139.417 94.3459C139.417 92.7364 140.74 91.4131 142.386 91.4131C143.995 91.4131 145.319 92.7364 145.319 94.3459C145.319 95.0073 145.104 95.6332 144.729 96.1166C145.873 96.8851 146.642 98.1907 146.642 99.6753ZM144.693 99.6753C144.693 98.4057 143.656 97.3502 142.386 97.3502C141.098 97.3502 140.061 98.4052 140.043 99.6753C140.061 100.945 141.098 101.982 142.386 101.982C143.656 101.982 144.693 100.945 144.693 99.6753ZM141.367 94.3459C141.367 94.9003 141.814 95.3654 142.386 95.3654C142.923 95.3654 143.37 94.9003 143.37 94.3459C143.37 93.8092 142.923 93.3623 142.386 93.3623C141.814 93.3623 141.367 93.8092 141.367 94.3459Z" fill="#C7C7C7"/>
<path d="M133.356 117.944H107.376V126.082H133.356V117.944Z" fill="#BA68C8"/>
<path d="M112.913 122.644C112.986 122.555 113.118 122.543 113.207 122.616C113.384 122.76 113.689 122.929 113.975 122.926C114.176 122.926 114.357 122.866 114.478 122.777C114.598 122.688 114.651 122.588 114.651 122.487C114.651 122.435 114.638 122.399 114.614 122.359C114.59 122.318 114.554 122.278 114.494 122.238C114.377 122.162 114.18 122.093 113.943 122.049H113.935C113.746 122.013 113.568 121.965 113.416 121.892C113.263 121.82 113.131 121.719 113.042 121.579C112.982 121.482 112.95 121.369 112.95 121.249C112.95 121.007 113.086 120.799 113.271 120.661C113.46 120.525 113.706 120.448 113.967 120.448C114.353 120.448 114.638 120.637 114.844 120.77C114.936 120.834 114.964 120.963 114.9 121.055C114.839 121.152 114.711 121.18 114.614 121.116C114.409 120.979 114.213 120.859 113.967 120.859C113.786 120.859 113.625 120.915 113.516 120.995C113.408 121.075 113.363 121.164 113.363 121.248C113.363 121.296 113.372 121.329 113.391 121.361C113.411 121.393 113.448 121.429 113.5 121.465C113.605 121.538 113.785 121.602 114.003 121.642H114.011C114.216 121.682 114.405 121.735 114.566 121.811C114.73 121.891 114.875 121.996 114.968 122.145C115.028 122.242 115.065 122.362 115.065 122.486C115.065 122.744 114.92 122.965 114.719 123.11C114.522 123.255 114.261 123.339 113.974 123.339C113.54 123.335 113.175 123.118 112.945 122.937C112.857 122.865 112.845 122.733 112.913 122.644Z" fill="white"/>
<path d="M116.85 123.344C116.202 123.344 115.688 122.821 115.688 122.182V120.75C115.688 120.625 115.784 120.528 115.909 120.528C116.03 120.528 116.134 120.625 116.134 120.75V122.182C116.134 122.576 116.455 122.898 116.85 122.898C117.248 122.898 117.566 122.576 117.566 122.182V120.75C117.566 120.625 117.667 120.528 117.791 120.528C117.916 120.528 118.012 120.625 118.012 120.75V122.182C118.012 122.821 117.493 123.344 116.85 123.344Z" fill="white"/>
<path d="M118.954 123.122V120.75C118.954 120.625 119.055 120.528 119.176 120.528C119.18 120.528 119.18 120.528 119.187 120.528C119.187 120.528 119.187 120.528 119.192 120.528H119.747C120.169 120.528 120.511 120.87 120.511 121.292C120.511 121.465 120.455 121.622 120.358 121.75C120.599 121.904 120.764 122.173 120.764 122.478C120.764 122.957 120.378 123.343 119.903 123.343H119.191C119.187 123.343 119.187 123.339 119.187 123.339C119.179 123.339 119.179 123.343 119.175 123.343C119.055 123.344 118.954 123.243 118.954 123.122ZM119.401 121.618H119.747C119.924 121.618 120.064 121.47 120.064 121.293C120.064 121.116 119.924 120.975 119.747 120.975H119.401V121.618ZM119.401 122.897H119.904C120.133 122.893 120.318 122.712 120.318 122.479C120.318 122.25 120.133 122.069 119.904 122.064H119.401V122.897Z" fill="white"/>
<path d="M123.764 120.75V123.123C123.764 123.243 123.66 123.344 123.539 123.344C123.414 123.344 123.318 123.243 123.318 123.123V121.43L122.739 122.234C122.694 122.294 122.631 122.326 122.558 122.326H122.554H122.55C122.477 122.326 122.409 122.294 122.365 122.234L121.79 121.43V123.123C121.79 123.243 121.689 123.344 121.565 123.344C121.444 123.344 121.344 123.243 121.344 123.123V120.75C121.344 120.629 121.445 120.528 121.565 120.528C121.569 120.528 121.569 120.528 121.577 120.528C121.641 120.528 121.713 120.561 121.754 120.621L122.554 121.731L123.355 120.621C123.399 120.561 123.463 120.528 123.536 120.528C123.536 120.528 123.536 120.528 123.54 120.528C123.659 120.533 123.764 120.629 123.764 120.75Z" fill="white"/>
<path d="M124.764 120.75C124.764 120.625 124.86 120.528 124.984 120.528C125.105 120.528 125.21 120.625 125.21 120.75V123.123C125.21 123.248 125.105 123.344 124.984 123.344C124.86 123.344 124.764 123.247 124.764 123.123V120.75Z" fill="white"/>
<path d="M127.682 120.975H127.043V123.123C127.043 123.248 126.946 123.344 126.822 123.344C126.701 123.344 126.6 123.247 126.6 123.123V120.975H125.965C125.84 120.975 125.744 120.87 125.744 120.75C125.744 120.625 125.841 120.528 125.965 120.528H127.682C127.803 120.528 127.903 120.625 127.903 120.75C127.903 120.87 127.803 120.975 127.682 120.975Z" fill="white"/>
<path d="M128.832 51.0154V59.7198H126.373V51.0154C126.373 47.7054 123.858 45.0139 120.766 45.0139C117.673 45.0139 115.159 47.7054 115.159 51.0154V59.7198H112.699V51.0154C112.699 46.2751 116.318 42.4196 120.766 42.4196C125.213 42.4196 128.832 46.2751 128.832 51.0154Z" fill="#EBEBEB"/>
<path d="M112.699 53.2793L115.159 53.3776V59.7198H112.699V53.2793Z" fill="#C7C7C7"/>
<path d="M128.831 53.9356V59.7199H126.372V53.835L128.831 53.9356Z" fill="#C7C7C7"/>
<path d="M131.983 56.499H109.545V75.1209H131.983V56.499Z" fill="#BA68C8"/>
<path d="M121.713 65.6882L122.653 70.1439H118.666L119.606 65.6882C119.044 65.3326 118.666 64.7141 118.666 64.004C118.666 62.8927 119.559 62.0112 120.659 62.0112C121.759 62.0112 122.652 62.8927 122.652 64.004C122.653 64.7141 122.274 65.3326 121.713 65.6882Z" fill="#263238"/>
<path d="M230.396 37.0814C230.396 37.0814 227.243 62.3303 222.06 68.0116C215.837 74.8271 211.322 73.8307 208.81 77.3447C208.804 77.3447 208.804 77.35 208.804 77.35C206.292 73.8307 201.777 74.8324 195.549 68.0116C190.366 62.3303 187.218 37.0814 187.218 37.0814C200.876 30.4512 208.804 23.0208 208.804 23.0208C208.804 23.0208 208.804 23.0208 208.81 23.026C209.053 23.254 216.95 30.5572 230.396 37.0814Z" fill="#BA68C8"/>
<path opacity="0.1" d="M208.81 23.0265V77.3452C208.804 77.3452 208.804 77.3505 208.804 77.3505C206.292 73.8312 201.777 74.8329 195.549 68.0121C190.366 62.3308 187.218 37.0819 187.218 37.0819C200.876 30.4512 208.804 23.0208 208.804 23.0208C208.804 23.0208 208.804 23.0208 208.81 23.0265Z" fill="black"/>
<path d="M190.567 39.1156C190.567 39.1156 193.231 60.4444 197.609 65.2459C202.87 71.0116 206.686 70.1649 208.809 73.1347C210.932 70.1649 214.749 71.0121 220.01 65.2459C224.388 60.4444 227.046 39.1156 227.046 39.1156C215.509 33.5131 208.809 27.2366 208.809 27.2366C208.809 27.2366 202.104 33.5131 190.567 39.1156Z" fill="#BA68C8"/>
<path opacity="0.2" d="M227.04 39.1166C227.04 39.1166 224.377 60.443 219.998 65.2468C214.742 71.0083 210.929 70.1668 208.804 73.128V27.2428C209.009 27.4353 215.682 33.6004 227.04 39.1166Z" fill="white"/>
<path d="M208.806 58.643C213.477 58.643 217.264 54.8564 217.264 50.1854C217.264 45.5144 213.477 41.7278 208.806 41.7278C204.135 41.7278 200.349 45.5144 200.349 50.1854C200.349 54.8564 204.135 58.643 208.806 58.643Z" fill="#455A64"/>
<path d="M207.843 55.6804L204.076 51.7631L205.474 50.4196L207.55 52.5792L212.026 45.7118L213.651 46.7707L207.843 55.6804Z" fill="white"/>
<path d="M227.04 73.6391L225.844 73.86L225.576 75.1209L225.309 73.86L224.113 73.6382L225.304 73.3473L225.576 72.1564L225.849 73.3473L227.04 73.6391Z" fill="#BA68C8"/>
<path d="M191.611 64.0516L190.415 64.2724L190.148 65.5334L189.881 64.2724L188.685 64.0507L189.875 63.7598L190.148 62.5689L190.42 63.7598L191.611 64.0516Z" fill="#BA68C8"/>
<path d="M197.071 30.814L195.874 31.0353L195.607 32.2963L195.34 31.0353L194.144 30.8135L195.334 30.5227L195.607 29.3318L195.88 30.5227L197.071 30.814Z" fill="#BA68C8"/>
<path d="M224.9 67.968L224.232 68.0918L224.082 68.7964L223.933 68.0918L223.265 67.968L223.93 67.8052L224.082 67.1395L224.235 67.8052L224.9 67.968Z" fill="#BA68C8"/>
<path d="M229.524 53.9395L228.855 54.0633L228.706 54.768L228.556 54.0633L227.888 53.9395L228.553 53.7768L228.706 53.111L228.858 53.7768L229.524 53.9395Z" fill="#BA68C8"/>
<path d="M223.848 29.3318L223.18 29.4556L223.031 30.1603L222.881 29.4556L222.213 29.3313L222.878 29.1686L223.031 28.5033L223.183 29.1686L223.848 29.3318Z" fill="#BA68C8"/>
<path d="M206.774 80.3803L206.105 80.5036L205.956 81.2083L205.806 80.5036L205.138 80.3798L205.803 80.2171L205.956 79.5513L206.108 80.2171L206.774 80.3803Z" fill="#BA68C8"/>
<path d="M187.896 65.6923L187.227 65.8161L187.078 66.5208L186.928 65.8161L186.26 65.6923L186.926 65.5295L187.078 64.8638L187.23 65.5295L187.896 65.6923Z" fill="#BA68C8"/>
<path d="M188.935 46.1572L188.267 46.2806L188.117 46.9852L187.968 46.2806L187.3 46.1567L187.965 45.994L188.117 45.3283L188.27 45.994L188.935 46.1572Z" fill="#BA68C8"/>
<path d="M216.977 71.1302C216.728 71.1302 216.728 71.5175 216.977 71.5175C217.227 71.5175 217.227 71.1302 216.977 71.1302Z" fill="#BA68C8"/>
<path d="M186.164 36.0057C185.914 36.0057 185.914 36.3931 186.164 36.3931C186.413 36.3935 186.413 36.0057 186.164 36.0057Z" fill="#BA68C8"/>
<path d="M223.031 72.2222C222.781 72.2222 222.781 72.6095 223.031 72.6095C223.28 72.6095 223.281 72.2222 223.031 72.2222Z" fill="#BA68C8"/>
<path d="M203.402 41.9553C203.153 41.9553 203.152 42.3427 203.402 42.3427C203.651 42.3431 203.651 41.9553 203.402 41.9553Z" fill="#BA68C8"/>
<path d="M185.463 49.7606C185.213 49.7606 185.213 50.1479 185.463 50.1479C185.712 50.1479 185.712 49.7606 185.463 49.7606Z" fill="#BA68C8"/>
<path d="M180.944 47.6476C180.768 47.6476 180.767 47.9217 180.944 47.9217C181.12 47.9217 181.12 47.6476 180.944 47.6476Z" fill="#BA68C8"/>
<path d="M217.922 26.8022C217.746 26.8022 217.746 27.0763 217.922 27.0763C218.098 27.0763 218.099 26.8022 217.922 26.8022Z" fill="#BA68C8"/>
<path d="M198.788 73.7327C198.611 73.7327 198.611 74.0068 198.788 74.0068C198.964 74.0068 198.964 73.7327 198.788 73.7327Z" fill="#BA68C8"/>
<path d="M194.502 71.2127C194.024 71.2127 194.023 71.9558 194.502 71.9558C194.981 71.9558 194.982 71.2127 194.502 71.2127Z" fill="#BA68C8"/>
<path d="M102.225 103.684V111.758H104.354V115.438L108.034 111.758H133.026V103.684H102.225Z" fill="white"/>
<path d="M102.224 103.684C102.244 106.406 102.325 109.097 102.325 111.758L102.224 111.658L104.354 111.652L104.46 111.651L104.461 111.758L104.471 115.438L104.272 115.355L107.941 111.666C107.983 111.621 107.977 111.627 108.034 111.627C114.26 111.61 126.801 111.59 133.026 111.585L132.853 111.758L132.877 103.684L133.026 103.834C125.348 103.82 109.901 103.739 102.224 103.684ZM102.224 103.684L117.585 103.588L133.026 103.535L133.175 103.534L133.175 103.684L133.199 111.758L133.199 111.932L133.025 111.931L120.529 111.917C120.596 111.872 107.666 111.965 108.125 111.851L104.436 115.52L104.236 115.719L104.236 115.437L104.247 111.757L104.353 111.864L102.224 111.858L102.123 111.858V111.757C102.124 109.037 102.205 106.345 102.224 103.684Z" fill="#263238"/>
<path d="M107.61 106.606V107.688H107.304V106.606C107.304 106.194 106.992 105.859 106.607 105.859C106.222 105.859 105.909 106.194 105.909 106.606V107.688H105.604V106.606C105.604 106.016 106.054 105.537 106.607 105.537C107.16 105.536 107.61 106.016 107.61 106.606Z" fill="#263238"/>
<path d="M105.604 106.887L105.909 106.899V107.688H105.604V106.887Z" fill="#263238"/>
<path d="M107.609 106.968V107.688H107.304V106.956L107.609 106.968Z" fill="#263238"/>
<path d="M108.002 107.288H105.211V109.604H108.002V107.288Z" fill="#263238"/>
<path d="M112.453 106.764C112.052 107.514 111.47 108.098 110.72 108.498C111.12 107.747 111.703 107.166 112.453 106.764Z" fill="#263238"/>
<path d="M110.72 106.764C111.469 107.166 112.053 107.747 112.453 108.498C111.702 108.098 111.121 107.514 110.72 106.764Z" fill="#263238"/>
<path d="M112.812 107.631C111.998 107.877 111.174 107.879 110.36 107.631C111.174 107.383 111.998 107.385 112.812 107.631Z" fill="#263238"/>
<path d="M111.586 106.405C111.832 107.219 111.834 108.043 111.586 108.857C111.338 108.043 111.34 107.219 111.586 106.405Z" fill="#263238"/>
<path d="M116.681 106.764C116.279 107.514 115.698 108.098 114.947 108.498C115.347 107.747 115.931 107.166 116.681 106.764Z" fill="#263238"/>
<path d="M114.947 106.764C115.697 107.166 116.281 107.747 116.681 108.498C115.93 108.098 115.349 107.514 114.947 106.764Z" fill="#263238"/>
<path d="M117.039 107.631C116.225 107.877 115.402 107.879 114.588 107.631C115.402 107.383 116.226 107.385 117.039 107.631Z" fill="#263238"/>
<path d="M115.813 106.405C116.06 107.219 116.061 108.043 115.813 108.857C115.565 108.043 115.567 107.219 115.813 106.405Z" fill="#263238"/>
<path d="M120.909 106.764C120.508 107.514 119.927 108.098 119.176 108.498C119.576 107.747 120.159 107.166 120.909 106.764Z" fill="#263238"/>
<path d="M119.176 106.764C119.926 107.166 120.509 107.747 120.909 108.498C120.158 108.098 119.577 107.514 119.176 106.764Z" fill="#263238"/>
<path d="M121.268 107.631C120.454 107.877 119.63 107.879 118.816 107.631C119.63 107.383 120.454 107.385 121.268 107.631Z" fill="#263238"/>
<path d="M120.042 106.405C120.288 107.219 120.29 108.043 120.042 108.857C119.794 108.043 119.795 107.219 120.042 106.405Z" fill="#263238"/>
<path d="M125.138 106.764C124.736 107.514 124.155 108.098 123.404 108.498C123.804 107.747 124.388 107.166 125.138 106.764Z" fill="#263238"/>
<path d="M123.404 106.764C124.154 107.166 124.738 107.747 125.138 108.498C124.386 108.098 123.806 107.514 123.404 106.764Z" fill="#263238"/>
<path d="M125.496 107.631C124.682 107.877 123.859 107.879 123.045 107.631C123.859 107.383 124.682 107.385 125.496 107.631Z" fill="#263238"/>
<path d="M124.27 106.405C124.517 107.219 124.519 108.043 124.27 108.857C124.022 108.043 124.024 107.219 124.27 106.405Z" fill="#263238"/>
<path d="M129.365 106.764C128.964 107.514 128.383 108.098 127.632 108.498C128.032 107.747 128.616 107.166 129.365 106.764Z" fill="#263238"/>
<path d="M127.632 106.764C128.382 107.166 128.965 107.747 129.365 108.498C128.614 108.098 128.033 107.514 127.632 106.764Z" fill="#263238"/>
<path d="M129.724 107.631C128.91 107.877 128.087 107.879 127.272 107.631C128.087 107.383 128.91 107.385 129.724 107.631Z" fill="#263238"/>
<path d="M128.498 106.405C128.744 107.219 128.746 108.043 128.498 108.857C128.249 108.043 128.252 107.219 128.498 106.405Z" fill="#263238"/>
<path d="M68.4808 201.198L40.7637 223.547H42.3256L74.3363 201.198H68.4808Z" fill="#C7C7C7"/>
<path d="M71.0845 201.198L57.3887 223.547H58.9501L75.7367 201.198H71.0845Z" fill="#C7C7C7"/>
<path d="M77.7991 201.198L91.495 223.547H89.9335L73.1475 201.198H77.7991Z" fill="#C7C7C7"/>
<path d="M80.1919 201.198L107.909 223.547H106.347L74.3359 201.198H80.1919Z" fill="#C7C7C7"/>
<path d="M126.452 193V186.461L88.3901 184.9L68.2853 131.222H22.2207L38.5191 193L77.4596 203.93H79.8994L126.452 193Z" fill="#455A64"/>
<path opacity="0.1" d="M22.2207 131.222H27.4911L44.4725 187.535L78.9231 197.294L126.452 186.461V193L79.8994 203.93H77.4596L38.5191 193L22.2207 131.222Z" fill="black"/>
<path d="M105.73 233.71C104.567 233.267 78.441 211.861 77.9606 210.416C77.7753 209.868 80.6711 205.881 84.3066 201.163C85.0914 200.144 85.9084 199.097 86.7441 198.038C92.1604 191.156 98.0682 183.98 98.0682 183.98L115.587 198.249L103.781 211.914L101.192 214.916C101.192 214.916 107.529 227.585 107.886 229.228C108.236 230.866 106.893 234.153 105.73 233.71Z" fill="#AD6359"/>
<path d="M105.73 233.71C104.567 233.267 78.4408 211.861 77.9604 210.416C77.7381 209.748 82.0581 204.001 86.7439 198.038L103.78 211.914L101.191 214.916C101.191 214.916 107.528 227.585 107.885 229.228C108.236 230.866 106.893 234.153 105.73 233.71Z" fill="#EBEBEB"/>
<path d="M105.73 233.71C104.567 233.267 78.441 211.861 77.9606 210.416C77.7753 209.868 80.6711 205.881 84.3066 201.163L101.191 214.915C101.191 214.915 107.529 227.585 107.885 229.227C108.236 230.866 106.893 234.153 105.73 233.71Z" fill="#BA68C8"/>
<path d="M106.212 232.358C101.921 228.662 84.2629 214.161 79.7404 210.833C79.7034 210.806 79.6837 210.83 79.7178 210.861C83.8914 214.617 101.666 228.974 106.154 232.429C106.248 232.503 106.303 232.436 106.212 232.358Z" fill="#263238"/>
<path d="M106.975 226.911C105.971 226.018 104.552 225.679 103.479 225.834C102.448 225.983 101.297 226.437 100.584 227.37C100.564 227.397 100.611 227.437 100.637 227.413C102.291 225.904 105.084 225.676 106.93 226.966C106.967 226.992 107.009 226.942 106.975 226.911Z" fill="#263238"/>
<path d="M102.533 216.743C100.8 215.282 98.2609 214.235 95.9967 214.777C95.9089 214.798 95.9401 214.922 96.014 214.938C98.2681 215.42 100.273 216.045 102.386 216.983C102.535 217.049 102.657 216.847 102.533 216.743Z" fill="#263238"/>
<path d="M103.455 218.379C101.722 216.919 99.1827 215.872 96.9186 216.413C96.8307 216.434 96.8619 216.559 96.9359 216.575C99.1899 217.056 101.195 217.681 103.308 218.62C103.457 218.686 103.579 218.483 103.455 218.379Z" fill="#263238"/>
<path d="M104.376 220.015C102.643 218.555 100.103 217.508 97.8395 218.049C97.7516 218.07 97.7828 218.195 97.8568 218.21C100.111 218.692 102.116 219.317 104.229 220.256C104.378 220.322 104.499 220.12 104.376 220.015Z" fill="#263238"/>
<path d="M105.296 221.651C103.563 220.191 101.024 219.144 98.7594 219.685C98.6716 219.707 98.7028 219.831 98.7767 219.847C101.03 220.328 103.036 220.954 105.149 221.892C105.298 221.958 105.42 221.756 105.296 221.651Z" fill="#263238"/>
<path d="M84.2644 207.587C82.293 205.982 79.7941 209.043 81.7688 210.651C83.7402 212.257 86.2391 209.196 84.2644 207.587Z" fill="white"/>
<path d="M108.26 213.617C107.976 212.155 106.269 211.958 105.096 212.273C103.196 212.784 101.166 214.02 99.8306 215.451C99.7979 215.486 99.8138 215.524 99.8445 215.546C99.7787 215.702 99.8411 215.929 100.044 215.946C101.999 216.105 104.069 216.518 106.015 216.072C107.152 215.812 108.53 215.001 108.26 213.617ZM103.057 215.581C102.094 215.526 101.139 215.424 100.173 215.405C101.202 214.788 102.199 214.129 103.289 213.617C103.809 213.372 104.348 213.131 104.898 212.959C105.753 212.692 108.674 212.637 107.286 214.687C106.521 215.817 104.206 215.646 103.057 215.581Z" fill="#263238"/>
<path d="M94.9427 212.532C96.2771 214.018 98.2071 214.873 99.8972 215.869C100.072 215.972 100.254 215.822 100.29 215.657C100.328 215.657 100.363 215.635 100.356 215.587C100.088 213.648 99.1403 211.469 97.8817 209.957C97.1046 209.023 95.5959 208.201 94.5207 209.232C93.5046 210.209 94.1636 211.666 94.9427 212.532ZM94.7022 210.668C94.7483 208.192 97.1041 209.92 97.6494 210.631C97.9998 211.088 98.3017 211.595 98.5859 212.095C99.182 213.143 99.6174 214.255 100.103 215.351C99.303 214.811 98.4635 214.344 97.6441 213.834C96.6673 213.227 94.6763 212.032 94.7022 210.668Z" fill="#263238"/>
<path d="M133.782 171.442C132.458 180.618 109.487 206.873 106.832 209.884C106.44 210.327 106.228 210.569 106.228 210.569L87.6681 195.944L87.887 195.669L104.648 174.267L55.4414 173.379L74.302 159.079C74.302 159.079 75.8073 159.971 78.9638 159.55C89.8435 158.092 114.372 154.87 120.143 155.173C127.587 155.57 134.997 163.023 133.782 171.442Z" fill="#263238"/>
<path d="M110.67 166.309C110.023 166.95 109.502 167.754 108.942 168.47C108.35 169.227 107.748 169.978 107.156 170.735C107.151 170.743 107.145 170.75 107.139 170.758C107.245 170.535 107.349 170.311 107.459 170.09C107.836 169.333 108.139 168.551 108.583 167.828C108.61 167.784 108.543 167.742 108.515 167.785C108.059 168.503 107.533 169.183 107.141 169.939C106.957 170.295 106.782 170.655 106.619 171.021C106.53 171.222 106.438 171.422 106.357 171.626C106.32 171.719 106.274 171.819 106.246 171.92C105.981 172.271 105.719 172.625 105.464 172.985C104.899 173.783 104.398 174.627 103.826 175.419C103.795 175.462 103.863 175.502 103.894 175.462C104.473 174.718 105.12 174.026 105.707 173.288C106.305 172.537 106.873 171.764 107.434 170.986C107.982 170.226 108.519 169.458 109.065 168.697C109.615 167.932 110.267 167.178 110.717 166.347C110.732 166.319 110.696 166.284 110.67 166.309Z" fill="#37474F"/>
<path d="M108.79 206.259C107.732 205.337 106.599 204.489 105.487 203.634C104.371 202.775 103.25 201.923 102.124 201.076C99.8716 199.382 97.629 197.673 95.3534 196.01C94.103 195.097 92.8444 194.196 91.5469 193.351C91.4889 193.313 91.4279 193.405 91.4793 193.449C93.6191 195.28 95.8933 196.943 98.1436 198.634C100.398 200.327 102.658 202.014 104.938 203.673C106.186 204.581 107.428 205.518 108.729 206.348C108.781 206.381 108.835 206.299 108.79 206.259Z" fill="#37474F"/>
<path d="M68.8433 134.841C73.9477 144.561 80.0048 154.876 85.7461 156.37C91.207 157.792 104.2 144.185 106.403 139.667C107.163 138.11 96.8768 131.288 95.4209 132.434C92.6768 134.594 86.6691 141.442 85.8137 141.271C84.9233 141.089 77.6681 134.605 71.0926 129.148C67.1067 125.841 65.3077 128.107 68.8433 134.841Z" fill="#AD6359"/>
<path d="M97.2773 116.644L93.3456 130.406C93.1848 130.809 93.3787 131.146 93.7786 131.159L100.937 131.384C101.337 131.396 101.792 131.079 101.953 130.677L105.885 116.915C106.046 116.512 105.852 116.175 105.452 116.163L98.2939 115.938C97.8941 115.925 97.4386 116.241 97.2773 116.644Z" fill="#A6A6A6"/>
<path d="M98.1274 116.663L94.1962 130.426C94.0354 130.828 94.2293 131.165 94.6291 131.178L101.787 131.403C102.187 131.415 102.643 131.099 102.804 130.696L106.735 116.934C106.897 116.531 106.702 116.195 106.302 116.182L99.144 115.957C98.7442 115.944 98.2887 116.26 98.1274 116.663Z" fill="#DBDBDB"/>
<path d="M100.07 117.359C100.052 117.695 99.765 117.952 99.4295 117.934C99.0939 117.916 98.8362 117.629 98.8544 117.294C98.8722 116.958 99.1587 116.7 99.4947 116.719C99.8303 116.737 100.088 117.023 100.07 117.359Z" fill="#455A64"/>
<path d="M109.716 131.876C110.32 127.876 109.861 126.756 112.164 123.651C113.675 121.613 113.022 119.774 110.645 120.919C106.757 122.793 104.894 127.789 104.747 129.708L109.716 131.876Z" fill="#AD6359"/>
<path d="M104.555 142.36C104.555 142.36 108.288 138.001 109.353 133.802C110.09 130.898 110.988 124.402 104.641 118.104C103.135 116.61 99.9298 115.549 101.503 118.882C102.62 121.249 104.044 122.413 104.443 123.909C104.443 123.909 100.207 123.043 98.7687 124.61C98.1264 125.31 96.4171 127.262 95.3035 128.972C95.3035 128.972 95.6107 129.314 96.0619 129.693C96.0619 129.693 94.8571 131.283 95.1101 134.306L104.555 142.36Z" fill="#AD6359"/>
<path d="M109.614 130.918C108.904 129.517 107.349 126.575 105.24 124.609C102.898 122.426 97.7963 118.853 96.2032 120.599C95.0349 121.879 96.8622 123.415 96.8622 123.415C96.8622 123.415 94.4425 122.382 93.64 123.769C92.9085 125.034 94.3936 126.137 94.3936 126.137C94.3936 126.137 92.8182 125.763 92.3483 127.116C91.7829 128.744 95.1779 129.261 96.0299 131.404C96.2209 131.886 109.614 130.918 109.614 130.918Z" fill="#AD6359"/>
<path d="M103.346 127.469C102.463 126.262 99.7522 124.034 96.9255 123.394C96.8617 123.379 96.8161 123.42 96.8717 123.445C99.8348 124.811 102.319 126.648 103.326 127.491C103.34 127.503 103.357 127.483 103.346 127.469Z" fill="#263238"/>
<path d="M101.074 129.77C100.205 128.806 97.3083 126.635 94.4215 126.084C94.3572 126.072 94.3145 126.116 94.3711 126.139C97.5252 127.439 99.9991 129.011 101.055 129.793C101.07 129.804 101.086 129.782 101.074 129.77Z" fill="#263238"/>
<path d="M91.8772 134.204L102.593 145.566C102.593 145.566 91.2762 158.254 85.9631 156.927C80.65 155.6 70.6036 141.218 67.3828 132.087C65.1541 125.769 68.6701 126.783 72.3608 129.881C76.0516 132.979 85.7053 140.667 86.1272 140.553C86.5492 140.437 91.8772 134.204 91.8772 134.204Z" fill="#BA68C8"/>
<path opacity="0.1" d="M88.2478 156.809C87.4122 157.035 86.6379 157.097 85.9626 156.927C80.6509 155.6 70.6035 141.218 67.3837 132.087C65.9154 127.923 66.9402 126.946 68.8707 127.654C74.6595 136.242 82.365 147.753 88.2478 156.809Z" fill="black"/>
<path d="M99.1164 147.455C97.5646 145.889 91.448 139.246 90.224 137.721C90.139 137.615 90.1851 137.535 90.2878 137.634C95.0513 142.217 97.7326 145.778 99.176 147.392C99.2125 147.432 99.1558 147.495 99.1164 147.455Z" fill="#263238"/>
<path d="M80.7584 165.6C80.7584 165.6 45.5797 172.033 45.3992 171.818C45.2374 171.631 49.2704 133.574 61.2109 127.143C63.104 126.123 67.6731 125.523 69.6233 127.513C75.1841 133.188 81.2197 165.084 80.7584 165.6Z" fill="#BA68C8"/>
<path d="M80.392 162.445L45.7471 168.389C45.8786 167.343 46.0519 166.094 46.2688 164.69L79.7532 158.945C80.0095 160.271 80.2231 161.456 80.392 162.445Z" fill="#EBEBEB"/>
<path d="M79.3794 157.088L46.5781 162.716C46.6794 162.094 46.7893 161.451 46.9088 160.79L79.0031 155.284C79.137 155.899 79.2608 156.505 79.3794 157.088Z" fill="#EBEBEB"/>
<path d="M68.0695 133.308C66.1063 133.299 63.6041 129.69 62.9009 127.085C62.8538 126.907 63.497 125.303 64.1868 123.317C64.6005 122.111 65.033 120.757 65.3383 119.494L72.797 123.335C72.797 123.335 71.3781 125.795 70.8588 128.001C70.8175 128.185 70.7945 128.361 70.7877 128.532C70.7844 128.556 70.7844 128.587 70.7781 128.621C70.7018 129.644 69.9674 133.317 68.0695 133.308Z" fill="#AD6359"/>
<path d="M72.7998 123.334C72.7998 123.334 71.379 125.793 70.8596 128.003C70.8198 128.185 70.7919 128.361 70.7895 128.533C70.7881 128.557 70.7867 128.588 70.779 128.618C70.5227 128.599 70.2491 128.548 69.9534 128.465C65.3694 127.247 65.4481 121.224 65.5566 119.605L72.7998 123.334Z" fill="#263238"/>
<path d="M65.0179 110.797C63.8241 113.573 64.426 122.04 66.2654 124.116C68.9318 127.126 73.7539 127.918 76.426 124.608C79.0166 121.4 78.0369 110.379 75.9398 108.445C72.851 105.598 66.7814 106.696 65.0179 110.797Z" fill="#AD6359"/>
<path d="M72.7457 116.889C72.7395 116.868 72.704 116.92 72.7068 116.943C72.7769 117.506 72.762 118.164 72.2681 118.399C72.2528 118.406 72.2571 118.434 72.2758 118.43C72.8916 118.284 72.9022 117.412 72.7457 116.889Z" fill="#263238"/>
<path d="M72.1868 116.345C71.2709 116.36 71.3679 118.19 72.216 118.176C73.0508 118.163 72.9543 116.333 72.1868 116.345Z" fill="#263238"/>
<path d="M76.0762 116.707C76.0796 116.685 76.1218 116.731 76.1223 116.755C76.1343 117.323 76.2437 117.971 76.7665 118.132C76.7828 118.138 76.7828 118.166 76.7636 118.164C76.1329 118.109 75.9965 117.247 76.0762 116.707Z" fill="#263238"/>
<path d="M76.5518 116.088C77.4599 115.97 77.6279 117.796 76.7865 117.904C75.958 118.012 75.7905 116.186 76.5518 116.088Z" fill="#263238"/>
<path d="M71.4199 115.546C71.6661 115.47 71.8802 115.359 72.1158 115.259C72.3818 115.146 72.6045 115.083 72.7696 114.831C72.8579 114.695 72.8061 114.464 72.6827 114.366C72.3952 114.137 72.0352 114.195 71.7098 114.318C71.3565 114.452 71.1189 114.645 70.9298 114.971C70.7459 115.287 71.0954 115.646 71.4199 115.546Z" fill="#263238"/>
<path d="M77.21 115.129C76.9541 115.101 76.7228 115.032 76.4727 114.979C76.19 114.918 75.9591 114.899 75.7498 114.682C75.6375 114.566 75.6447 114.329 75.7474 114.209C75.986 113.93 76.3503 113.918 76.6935 113.978C77.0655 114.042 77.3357 114.187 77.5834 114.471C77.8225 114.747 77.5474 115.166 77.21 115.129Z" fill="#263238"/>
<path d="M72.4104 121.93C72.5261 122.081 72.6346 122.281 72.8362 122.327C73.0296 122.372 73.2716 122.316 73.4607 122.273C73.4794 122.268 73.4948 122.29 73.4808 122.305C73.3042 122.5 72.9778 122.591 72.7239 122.508C72.4757 122.427 72.3812 122.189 72.3528 121.948C72.3485 121.914 72.3931 121.908 72.4104 121.93Z" fill="#263238"/>
<path d="M73.0382 120.262C73.3814 120.737 73.8623 120.982 74.3721 121.053C74.5996 121.087 74.8372 121.082 75.0681 121.048C75.1137 121.045 75.2779 121.012 75.323 121C75.3887 120.987 75.4219 120.931 75.43 120.867L75.4295 120.863C75.4281 120.842 75.3287 119.653 75.3287 119.653C75.4924 119.724 76.3252 120.047 76.3003 119.82C76.0876 117.938 75.8515 115.845 75.2428 114.017C75.226 113.955 75.1315 113.975 75.1401 114.037C75.2726 115.854 75.7238 117.635 75.886 119.458C75.6215 119.373 75.1886 119.213 74.9601 119.23C74.9275 119.239 75.1223 120.711 75.119 120.723C74.3903 120.856 73.8259 120.663 73.0881 120.209C73.0444 120.178 73.0017 120.219 73.0382 120.262Z" fill="#263238"/>
<path d="M74.8838 120.964C74.8838 120.964 74.4787 121.515 73.9219 121.715C73.7169 121.789 73.4957 121.819 73.2633 121.758C72.7867 121.635 72.7733 121.198 72.8592 120.823C72.9288 120.515 73.0709 120.25 73.0709 120.25C73.0709 120.25 73.7683 120.899 74.8838 120.964Z" fill="#263238"/>
<path d="M73.9219 121.715C73.7169 121.789 73.4957 121.819 73.2633 121.758C72.7867 121.635 72.7733 121.198 72.8592 120.823C73.3699 120.874 73.8768 121.219 73.9219 121.715Z" fill="#FF9CBD"/>
<path d="M64.2377 118.444C66.4447 118.616 67.6164 115.991 67.1153 113.869C67.1153 113.869 72.9799 114.692 73.2963 109.98C73.2963 109.98 74.6911 112.122 77.3532 112.211L77.7406 113.867C78.3439 113.697 78.9977 111.99 77.5342 110.637C77.5342 110.637 77.4497 108.287 75.7284 106.864C74.0071 105.441 72.2791 106.355 72.2791 106.355C72.2791 106.355 70.9107 105.196 68.7459 105.457C66.5811 105.718 65.6763 107.684 65.6763 107.684C65.6763 107.684 62.7636 108.218 62.2534 110.28C61.7431 112.342 62.8006 113.735 62.8006 113.735C62.8006 113.735 62.0647 114.541 62.4223 116.307C62.6523 117.442 63.5753 118.393 64.2377 118.444Z" fill="#263238"/>
<path d="M73.17 109.561C73.206 109.946 73.2185 110.332 73.1748 110.712C73.1503 111.093 73.0677 111.466 72.9535 111.824C72.7116 112.535 72.2369 113.154 71.5817 113.505C70.9447 113.907 70.1618 113.965 69.4135 114.033C69.0333 114.018 68.6489 114.031 68.2668 113.995C67.8852 113.954 67.5036 113.903 67.1162 113.869C67.4906 113.963 67.8708 114.041 68.2509 114.128C68.634 114.191 69.0257 114.203 69.4154 114.242C70.1906 114.216 71.0095 114.156 71.7161 113.742C72.4178 113.343 72.9425 112.653 73.1527 111.886C73.3601 111.119 73.3524 110.313 73.17 109.561Z" fill="#263238"/>
<path d="M76.1758 112.307C75.524 112.065 74.9163 111.759 74.4022 111.335C74.1392 111.131 73.9193 110.88 73.7201 110.614C73.5123 110.348 73.3822 110.036 73.2334 109.718C73.2723 110.063 73.3592 110.416 73.543 110.725C73.7134 111.039 73.9505 111.321 74.2294 111.545C74.5088 111.769 74.8184 111.954 75.15 112.079C75.4798 112.206 75.8244 112.296 76.1758 112.307Z" fill="#263238"/>
<path d="M71.6302 119.749C70.5301 119.696 69.5605 118.904 69.331 117.776C69.0598 116.442 69.9243 115.136 71.2577 114.865C72.5917 114.593 73.8973 115.458 74.1689 116.792C74.4401 118.125 73.5757 119.431 72.2422 119.703C72.0358 119.745 71.8309 119.759 71.6302 119.749ZM71.8534 115.148C71.6797 115.139 71.5016 115.152 71.3235 115.188C70.1681 115.424 69.4193 116.555 69.6541 117.71C69.8897 118.865 71.0216 119.615 72.176 119.379C73.3318 119.144 74.0801 118.013 73.8454 116.857C73.6462 115.88 72.8067 115.194 71.8534 115.148Z" fill="#BA68C8"/>
<path d="M77.2795 119.333C76.3363 119.287 75.527 118.279 75.4387 116.994C75.394 116.346 75.5371 115.721 75.8414 115.237C76.1553 114.735 76.6036 114.44 77.1038 114.406C77.6054 114.371 78.0883 114.603 78.4679 115.057C78.8351 115.496 79.0617 116.095 79.1059 116.743C79.1985 118.101 78.4521 119.262 77.4412 119.331C77.387 119.335 77.3332 119.335 77.2795 119.333ZM77.2516 114.734C77.2099 114.732 77.1681 114.732 77.1263 114.735C76.7347 114.762 76.3775 115.003 76.1207 115.412C75.8539 115.838 75.7286 116.392 75.7679 116.972C75.8491 118.148 76.5864 119.06 77.4187 119.002C78.2481 118.945 78.8568 117.942 78.7766 116.766C78.7368 116.186 78.5371 115.655 78.2145 115.269C77.9375 114.937 77.5996 114.751 77.2516 114.734Z" fill="#BA68C8"/>
<path d="M74.1049 117.082L73.876 116.844C74.2278 116.505 75.063 116.024 75.7081 116.626L75.483 116.867C74.9056 116.327 74.1376 117.051 74.1049 117.082Z" fill="#BA68C8"/>
<path d="M63.6681 118.524L63.3652 118.393C63.4267 118.252 63.984 117.009 64.7112 116.839C65.3908 116.682 69.3403 116.736 69.5289 116.741L69.5203 117.071C68.2468 117.038 65.3112 117.037 64.7865 117.16C64.306 117.272 63.8164 118.183 63.6681 118.524Z" fill="#BA68C8"/>
<path d="M66.3213 118.295C66.3213 118.295 64.6825 115.436 63.4019 115.997C62.1213 116.557 63.1844 120.583 64.5692 121.246C65.9536 121.908 66.592 120.638 66.592 120.638L66.3213 118.295Z" fill="#AD6359"/>
<path d="M63.7358 117.143C63.7133 117.139 63.7056 117.171 63.7248 117.181C64.6929 117.678 65.1379 118.657 65.4211 119.657C65.1557 119.258 64.7673 119.018 64.2374 119.328C64.2096 119.345 64.2307 119.388 64.2595 119.385C64.679 119.334 64.9694 119.432 65.2176 119.786C65.3937 120.037 65.5013 120.345 65.6184 120.627C65.6573 120.721 65.8238 120.687 65.7989 120.581C65.7969 120.573 65.7945 120.565 65.7931 120.557C65.9337 119.278 65.0995 117.396 63.7358 117.143Z" fill="#263238"/>
<path d="M70.8966 129.52C70.8957 129.503 70.8702 129.503 70.8693 129.52C70.7901 131.12 70.4977 134.819 67.9206 134.311C66.8824 134.107 65.9982 133.376 65.2705 132.675C64.5232 131.955 62.8993 129.942 61.8275 127.734C61.8064 127.691 61.7449 127.723 61.7589 127.771C61.9341 128.373 62.4025 129.453 63.0126 130.445C63.5997 131.401 64.2894 132.306 65.1241 133.079C65.9061 133.802 66.8526 134.539 67.9576 134.704C69.0088 134.862 69.8493 134.321 70.2659 133.421C70.8131 132.239 70.9566 130.8 70.8966 129.52Z" fill="#263238"/>
<path d="M57.2657 130.184C51.7726 134.999 37.6951 153.944 41.1516 158.003C44.633 162.092 66.3348 159.245 72.583 157.003C74.4415 156.335 68.8102 144.599 66.7514 144.132C65.0373 143.743 55.7556 146.912 55.5502 146.375C55.3178 145.77 57.1548 141.652 60.0636 134.156C63.4169 125.514 59.6921 128.057 57.2657 130.184Z" fill="#AD6359"/>
<path d="M75.9229 141.447C80.2947 141.279 81.4428 141.907 85.0568 139.806C87.4284 138.427 89.3264 139.35 87.8101 141.766C85.3294 145.719 79.7345 147.12 77.6552 147.047L75.9229 141.447Z" fill="#AD6359"/>
<path d="M64.0547 144.448C64.0547 144.448 69.1686 142.244 73.8097 141.604C77.019 141.162 84.1086 140.978 90.1139 148.557C91.538 150.355 92.2931 153.926 88.9 151.835C86.4899 150.35 85.4104 148.68 83.8513 148.071C83.8513 148.071 84.2718 152.728 82.4152 154.085C81.5857 154.691 79.2822 156.293 77.3108 157.284C77.3108 157.284 76.9796 156.913 76.6268 156.382C76.6268 156.382 74.7726 157.486 71.5547 156.85L64.0547 144.448Z" fill="#AD6359"/>
<path d="M76.9402 141.671C78.36 142.603 81.336 144.627 83.1941 147.13C85.2581 149.91 88.4851 155.822 86.4173 157.325C84.901 158.426 83.4706 156.278 83.4706 156.278C83.4706 156.278 84.2895 159.002 82.7016 159.698C81.2549 160.332 80.2479 158.603 80.2479 158.603C80.2479 158.603 80.4605 160.342 78.9495 160.684C77.1322 161.096 76.9848 157.385 74.784 156.212C74.2901 155.948 76.9402 141.671 76.9402 141.671Z" fill="#AD6359"/>
<path d="M79.8923 148.821C81.0837 149.916 83.152 153.097 83.5 156.212C83.5077 156.283 83.4587 156.326 83.4376 156.263C82.3264 152.915 80.6507 150.024 79.8659 148.84C79.8554 148.825 79.8789 148.809 79.8923 148.821Z" fill="#263238"/>
<path d="M77.1467 150.986C78.0774 152.037 80.0627 155.411 80.307 158.579C80.3123 158.65 80.26 158.691 80.2422 158.627C79.2251 155.081 77.8321 152.233 77.1193 151.004C77.1097 150.988 77.1347 150.973 77.1467 150.986Z" fill="#263238"/>
<path d="M83.8561 148.042C85.2193 148.597 86.0641 149.378 87.1671 150.321C87.7129 150.787 88.2673 151.246 88.862 151.649C89.4034 152.016 90.2002 152.568 90.8588 152.145C91.225 151.909 91.2692 151.417 91.2327 151.023C91.1914 150.579 90.8425 149.734 90.6207 149.347C90.6097 149.327 90.6433 149.307 90.6548 149.326C90.8607 149.672 91.2558 150.445 91.3566 150.835C91.4473 151.187 91.5058 151.593 91.3734 151.944C91.0892 152.698 90.1652 152.708 89.5398 152.43C89.1654 152.264 88.8198 152.021 88.4876 151.784C88.1665 151.555 87.8569 151.31 87.553 151.057C86.9305 150.539 86.3382 149.986 85.7218 149.46C85.0446 148.883 84.5665 148.586 83.8292 148.088C83.8052 148.07 83.8292 148.031 83.8561 148.042Z" fill="#263238"/>
<path d="M86.3013 153.281C86.0181 152.444 84.3842 148.909 83.8231 148.073C83.8087 148.052 83.8379 148.029 83.8547 148.049C84.8459 149.197 86.3291 152.131 86.6507 153.055C86.9685 153.969 87.3237 155.132 87.2258 156.105C87.0789 157.573 86.0771 157.753 85.7099 157.789C85.2717 157.832 84.8469 157.698 84.4811 157.459C84.0741 157.194 83.705 156.69 83.4554 156.281C83.4424 156.26 83.4717 156.235 83.4871 156.257C83.9378 156.886 84.7255 157.542 85.5338 157.517C85.8847 157.506 86.2509 157.384 86.4909 157.118C86.7731 156.806 86.8375 156.364 86.8442 155.959C86.8591 155.041 86.5922 154.141 86.3013 153.281Z" fill="#263238"/>
<path d="M64.0539 144.448L69.4146 159.425C69.4146 159.425 42.236 162.728 40.4067 157.871C38.5774 153.015 50.7171 135.942 55.8978 131.135C61.9016 125.565 62.3816 127.712 60.6502 133.01C58.8378 138.556 55.6141 146.518 55.6141 146.518L64.0539 144.448Z" fill="#BA68C8"/>
<path d="M47.1532 149.513C48.4665 148.775 49.8522 148.164 51.2577 147.625C52.6497 147.091 54.0926 146.709 55.5465 146.385C56.3769 146.2 57.2135 146.055 58.0507 145.905C58.0761 145.9 58.0823 145.94 58.0569 145.945C56.5929 146.247 55.1486 146.679 53.7302 147.148C52.317 147.615 50.915 148.106 49.5206 148.625C48.7314 148.918 47.9567 149.249 47.1782 149.568C47.1412 149.583 47.1201 149.531 47.1532 149.513Z" fill="#263238"/>
<path d="M63.9865 144.399C63.8492 144.421 56.3396 146.091 56.09 146.179C56.1313 146.072 57.8233 142.338 58.0753 141.791C58.1002 141.737 58.1228 141.682 58.1473 141.627C58.3052 141.388 58.4645 141.15 58.6129 140.905C58.8029 140.591 58.9906 140.274 59.1793 139.959C59.185 139.949 59.1711 139.939 59.1649 139.949C58.9628 140.255 58.7602 140.561 58.5596 140.868C58.4669 141.01 58.3786 141.155 58.2917 141.3C58.4597 140.914 58.6229 140.525 58.7861 140.135C59.0463 139.512 59.2858 138.884 59.5239 138.252C59.5316 138.232 59.5013 138.222 59.4922 138.241C58.9935 139.33 58.4607 140.402 57.9586 141.489C57.4575 142.574 55.5447 146.575 55.5567 146.572C55.5687 146.584 63.8463 144.551 64.0066 144.502C64.0695 144.482 64.0541 144.389 63.9865 144.399Z" fill="#263238"/>
<path d="M63.542 153.774C62.954 152.103 62.379 150.428 61.7291 148.778C61.3599 147.841 60.9956 146.903 60.6174 145.969C60.603 145.934 60.5411 145.953 60.5521 145.99C61.0758 147.69 61.6052 149.394 62.2067 151.07C62.8047 152.737 63.3894 154.41 64.0095 156.07C64.3623 157.013 64.742 157.943 65.1515 158.865C65.1596 158.883 65.1913 158.873 65.1855 158.854C64.7185 157.135 64.1339 155.456 63.542 153.774Z" fill="#263238"/>
<path d="M69.7351 159.683C69.5128 159.216 69.2407 158.548 68.9992 158.091C68.9354 157.97 68.8456 157.985 68.8941 158.111C69.0564 158.53 69.1792 158.997 69.3386 159.427C68.9579 159.464 68.5768 159.492 68.1962 159.533C67.756 159.58 67.3163 159.629 66.8767 159.675C66.0151 159.764 65.152 159.845 64.2885 159.916C62.5399 160.061 60.7883 160.169 59.0349 160.24C55.5208 160.381 51.9919 160.395 48.4811 160.172C47.4991 160.11 46.5175 160.028 45.5397 159.916C44.5466 159.803 43.4743 159.674 42.6626 159.488C42.6367 159.482 42.6271 159.526 42.653 159.534C43.4882 159.794 44.2711 159.983 45.1351 160.112C46.0168 160.245 46.9029 160.353 47.7909 160.432C49.5597 160.589 51.3367 160.652 53.1117 160.667C56.632 160.696 60.1552 160.573 63.666 160.31C64.6495 160.236 65.6325 160.151 66.6141 160.054C67.1095 160.005 67.6048 159.956 68.0992 159.898C68.5936 159.839 69.7725 159.763 69.7351 159.683Z" fill="#263238"/>
<path d="M104.75 159.35H70.5322V160.883H104.75V159.35Z" fill="#C7C7C7"/>
<path d="M104.75 159.35V160.883H81.4902L82.6629 159.35H104.75Z" fill="#A6A6A6"/>
<path d="M86.1953 160.883H116.143L120.476 139.754H90.5283L86.1953 160.883Z" fill="#A6A6A6"/>
<path d="M87.5947 160.883H117.543L121.876 139.754H91.9282L87.5947 160.883Z" fill="#C7C7C7"/>
<path d="M107.435 149.532C107.467 150.53 106.798 151.484 105.943 151.663C105.088 151.841 104.369 151.177 104.338 150.179C104.307 149.18 104.975 148.226 105.83 148.048C106.686 147.869 107.404 148.534 107.435 149.532Z" fill="white"/>
<path d="M174.488 204.743C174.041 205.905 152.551 231.962 151.104 232.438C150.556 232.621 146.579 229.713 141.872 226.062C140.856 225.274 139.811 224.454 138.755 223.615C131.89 218.176 124.733 212.245 124.733 212.245L139.059 194.773L152.686 206.623L155.679 209.222C155.679 209.222 168.369 202.925 170.013 202.574C171.651 202.228 174.934 203.582 174.488 204.743Z" fill="#AD6359"/>
<path d="M174.488 204.743C174.042 205.905 152.552 231.962 151.104 232.438C150.436 232.658 144.703 228.319 138.755 223.615L152.685 206.623L155.679 209.222C155.679 209.222 168.369 202.925 170.012 202.574C171.652 202.228 174.934 203.582 174.488 204.743Z" fill="#EBEBEB"/>
<path d="M174.488 204.743C174.041 205.905 152.551 231.962 151.104 232.438C150.556 232.621 146.578 229.713 141.872 226.062L155.679 209.222C155.679 209.222 168.369 202.926 170.013 202.574C171.651 202.228 174.933 203.582 174.488 204.743Z" fill="#BA68C8"/>
<path d="M173.137 204.257C169.428 208.537 154.869 226.148 151.528 230.66C151.5 230.697 151.524 230.716 151.555 230.683C155.324 226.522 169.74 208.793 173.209 204.316C173.282 204.222 173.215 204.167 173.137 204.257Z" fill="#263238"/>
<path d="M167.693 203.477C166.796 204.479 166.454 205.896 166.605 206.97C166.75 208.002 167.2 209.153 168.132 209.87C168.159 209.891 168.199 209.843 168.175 209.817C166.672 208.158 166.453 205.365 167.748 203.523C167.774 203.485 167.724 203.443 167.693 203.477Z" fill="#263238"/>
<path d="M157.51 207.886C156.044 209.615 154.99 212.15 155.524 214.416C155.544 214.504 155.669 214.473 155.685 214.399C156.173 212.147 156.806 210.143 157.75 208.033C157.817 207.885 157.615 207.762 157.51 207.886Z" fill="#263238"/>
<path d="M159.15 206.97C157.684 208.699 156.629 211.234 157.163 213.5C157.184 213.588 157.308 213.557 157.325 213.483C157.813 211.231 158.445 209.228 159.39 207.117C159.456 206.969 159.255 206.846 159.15 206.97Z" fill="#263238"/>
<path d="M160.789 206.054C159.322 207.783 158.268 210.319 158.802 212.584C158.823 212.672 158.947 212.641 158.963 212.567C159.452 210.315 160.084 208.312 161.029 206.202C161.095 206.053 160.893 205.93 160.789 206.054Z" fill="#263238"/>
<path d="M162.428 205.139C160.962 206.867 159.908 209.403 160.442 211.669C160.462 211.757 160.587 211.726 160.603 211.652C161.091 209.4 161.724 207.397 162.669 205.286C162.734 205.138 162.533 205.015 162.428 205.139Z" fill="#263238"/>
<path d="M148.296 226.126C146.684 228.092 149.737 230.601 151.352 228.631C152.964 226.665 149.911 224.156 148.296 226.126Z" fill="white"/>
<path d="M154.403 202.149C152.939 202.429 152.737 204.135 153.049 205.309C153.554 207.21 154.783 209.244 156.209 210.585C156.245 210.618 156.283 210.601 156.304 210.571C156.46 210.637 156.687 210.576 156.704 210.373C156.87 208.418 157.29 206.349 156.85 204.401C156.594 203.265 155.787 201.885 154.403 202.149ZM156.35 207.359C156.292 208.322 156.187 209.277 156.164 210.242C155.55 209.211 154.895 208.212 154.386 207.12C154.143 206.599 153.903 206.06 153.733 205.509C153.469 204.653 153.423 201.732 155.468 203.127C156.597 203.896 156.419 206.21 156.35 207.359Z" fill="#263238"/>
<path d="M153.276 215.463C154.765 214.134 155.626 212.206 156.628 210.519C156.732 210.345 156.583 210.163 156.417 210.126C156.417 210.088 156.396 210.053 156.348 210.059C154.407 210.321 152.225 211.262 150.709 212.516C149.773 213.29 148.946 214.796 149.975 215.874C150.947 216.894 152.406 216.239 153.276 215.463ZM151.41 215.698C148.934 215.644 150.67 213.294 151.382 212.751C151.84 212.402 152.349 212.102 152.85 211.819C153.899 211.227 155.013 210.794 156.111 210.312C155.568 211.111 155.099 211.949 154.586 212.767C153.975 213.741 152.774 215.728 151.41 215.698Z" fill="#263238"/>
<path d="M151.981 203.952L136.032 222.856L87.9239 188.6L83.1863 185.224C83.1863 185.224 81.8227 186.118 79.7721 187.22C76.9243 188.749 72.7545 190.678 69.081 191.174C62.9183 192.01 53.6433 191.799 48.5433 184.803C44.2478 178.912 45.7171 171.312 45.7171 171.312L52.5062 168.494C52.5062 168.494 68.6519 155.372 79.0103 155.096C83.41 154.975 89.7729 158.386 95.6606 161.939C101.543 165.489 151.981 203.952 151.981 203.952Z" fill="#263238"/>
<path d="M83.186 185.224C83.186 185.224 81.8224 186.118 79.7718 187.219C76.2241 182.866 68.6967 174.945 68.4688 174.664L83.186 185.224Z" fill="#37474F"/>
<path d="M58.4171 164.108C57.4538 164.759 56.5206 165.453 55.5698 166.123C54.6347 166.781 53.6694 167.399 52.7795 168.119C51.8742 168.852 51.015 169.636 50.1606 170.428C49.7483 170.809 49.3394 171.194 48.941 171.59C48.5459 171.982 48.1043 172.375 47.775 172.825C47.7443 172.867 47.8043 172.918 47.8446 172.893C48.3045 172.606 48.7192 172.209 49.1378 171.866C49.5899 171.495 50.0363 171.118 50.4866 170.746C51.3544 170.026 52.239 169.327 53.105 168.604C53.9651 167.887 54.7638 167.1 55.6158 166.374C56.5283 165.596 57.4888 164.873 58.4354 164.138C58.4536 164.124 58.4368 164.094 58.4171 164.108Z" fill="#37474F"/>
<path d="M147.056 202.132C146.089 203.149 145.194 204.245 144.292 205.32C143.387 206.399 142.487 207.483 141.594 208.571C139.806 210.75 138.003 212.918 136.246 215.121C135.28 216.331 134.326 217.551 133.427 218.811C133.387 218.867 133.476 218.932 133.522 218.883C135.442 216.823 137.201 214.622 138.985 212.445C140.773 210.264 142.554 208.078 144.309 205.871C145.269 204.662 146.257 203.461 147.142 202.197C147.177 202.145 147.097 202.088 147.056 202.132Z" fill="#37474F"/>
<path d="M110.899 204.903C108.457 202.931 102.898 199.069 100.364 197.215C97.8432 195.371 95.3237 193.522 92.7638 191.732C92.029 191.218 91.2874 190.715 90.5467 190.209C89.8075 189.705 89.0371 189.238 88.3133 188.714C88.271 188.684 88.2322 188.754 88.2734 188.784C88.9382 189.273 89.5646 189.82 90.2179 190.327C90.8414 190.811 91.4597 191.301 92.0885 191.778C93.3154 192.71 94.5547 193.624 95.7922 194.542C98.3016 196.403 100.83 198.241 103.385 200.039C104.835 201.06 109.304 204.082 110.787 205.054C110.875 205.111 110.983 204.971 110.899 204.903Z" fill="#37474F"/>
<path d="M126.697 184.622C124.442 182.706 119.292 179.014 116.926 177.239C114.532 175.444 112.151 173.633 109.747 171.851C107.363 170.082 104.979 168.314 102.594 166.546C100.282 164.832 97.9827 163.091 95.538 161.568C94.2003 160.735 92.827 159.961 91.4143 159.262C90.042 158.582 88.6159 157.891 87.1452 157.457C87.1011 157.444 87.0761 157.508 87.115 157.531C88.3207 158.223 89.5889 158.809 90.8095 159.479C92.0163 160.14 93.2043 160.835 94.3721 161.563C96.799 163.075 99.0871 164.786 101.386 166.483C106.161 170.005 110.925 173.543 115.735 177.017C118.426 178.962 123.789 182.977 126.587 184.768C126.675 184.825 126.777 184.691 126.697 184.622Z" fill="#37474F"/>
</svg>
