<svg width="16" height="14" viewBox="0 0 16 14" fill="none" xmlns="http://www.w3.org/2000/svg">
<path d="M14.9799 1.25165L14.98 1.25157C14.7152 0.961146 14.2958 0.772921 13.667 0.762264L13.6603 0.762149L13.6603 0.762103C12.7479 0.734285 11.9951 0.96121 11.384 1.41819C10.8289 1.83329 10.3593 2.46205 10.001 3.33573C10.1534 3.30977 10.311 3.29489 10.4753 3.29489C10.7848 3.29489 11.4004 3.3316 11.7695 3.80919L11.7739 3.81488L11.7738 3.81491C12.0596 4.19596 12.0442 4.69533 11.9167 5.14881L11.9148 5.1555L11.9148 5.15548C11.8487 5.3786 11.679 5.72644 11.4767 6.10052C11.2662 6.48991 10.996 6.95156 10.702 7.42063L10.6993 7.42506L10.6992 7.42504C10.3347 7.99341 10.0495 8.41568 9.83621 8.69902C9.73082 8.839 9.63297 8.95859 9.54476 9.04759C9.50132 9.09141 9.44774 9.14065 9.3864 9.18221C9.33933 9.2141 9.21625 9.29216 9.04751 9.29216H9.03969L9.03189 9.29192C8.86024 9.28655 8.74138 9.20288 8.68565 9.15592C8.62506 9.10486 8.58139 9.04856 8.55261 9.00722C8.49422 8.92335 8.44439 8.82359 8.40245 8.72934C8.31617 8.5355 8.22417 8.27484 8.13119 7.98249C7.94369 7.393 7.73346 6.61448 7.53672 5.84142C7.33946 5.06626 7.15363 4.28817 7.01499 3.6962C6.94564 3.40006 6.88802 3.15019 6.84663 2.97037L6.79742 2.75665C6.78998 2.72446 6.7853 2.7045 6.78273 2.69357C6.78085 2.68557 6.78011 2.68241 6.78026 2.68285C6.57968 1.95823 6.4571 1.54402 6.26635 1.28514C6.18505 1.17481 6.0959 1.10218 5.9786 1.05184C5.85381 0.998295 5.67159 0.959272 5.39186 0.959272C5.26627 0.959272 5.03076 1.0232 4.67253 1.206C4.32974 1.38093 3.92898 1.63585 3.49123 1.94799C2.6167 2.57158 1.63791 3.39214 0.748646 4.17102L0.746028 4.17331L0.74602 4.1733L0.529348 4.36043L0.770345 4.6639C1.04584 4.45958 1.33341 4.25452 1.60844 4.09759C1.8837 3.94053 2.21683 3.7892 2.55433 3.78725C3.08046 3.77664 3.42074 4.18183 3.64468 4.58689C3.88424 5.02023 4.10594 5.65616 4.33533 6.49304C4.78297 8.11185 5.33179 9.86026 5.93252 11.1966C6.23406 11.8673 6.53701 12.4074 6.83047 12.772C7.13988 13.1564 7.35241 13.2402 7.4597 13.2402C8.04015 13.2402 8.72417 12.9975 9.55755 12.3699C10.3917 11.7418 11.3418 10.753 12.4423 9.32413L14.9799 1.25165ZM14.9799 1.25165L14.9874 1.25952M14.9799 1.25165L14.9874 1.25952M14.9874 1.25952C15.338 1.62763 15.549 2.31697 15.4903 3.3985L15.4902 3.3985M14.9874 1.25952L15.4902 3.3985M15.4902 3.3985L15.4899 3.40533M15.4902 3.3985L15.4899 3.40533M15.4899 3.40533C15.4633 4.06042 15.2114 4.88481 14.6981 5.88902M15.4899 3.40533L14.6981 5.88902M14.6981 5.88902C14.1875 6.88796 13.4345 8.03371 12.4424 9.32404L14.6981 5.88902Z" fill="white" stroke="currentColor"/>
</svg>
