<svg width="16" height="16" viewBox="0 0 16 16" fill="none" xmlns="http://www.w3.org/2000/svg">
<path d="M11.416 5.19324L11.4161 5.19319C11.3071 5.07359 11.1267 4.98615 10.8318 4.98115L10.8271 4.98107L10.8271 4.98104C10.3903 4.96772 10.0369 5.0761 9.7519 5.28921C9.52522 5.45873 9.325 5.70724 9.16213 6.04942C9.18698 6.04814 9.21215 6.04748 9.23765 6.04748C9.39278 6.04748 9.74738 6.06333 9.96386 6.34348L9.96694 6.34746L9.96691 6.34749C10.1374 6.57483 10.1217 6.86285 10.0546 7.10151L10.0533 7.10619L10.0533 7.10618C10.0168 7.22913 9.92697 7.41169 9.82632 7.59785C9.71988 7.79473 9.58367 8.02741 9.43576 8.26345L9.43382 8.26655L9.4338 8.26653C9.25127 8.55116 9.10701 8.76489 8.998 8.90969C8.94438 8.9809 8.89227 9.04492 8.8434 9.09422C8.81944 9.1184 8.7875 9.14803 8.74929 9.17392C8.72107 9.19304 8.63879 9.24611 8.52375 9.24611H8.51281L8.51282 9.24594C8.39513 9.24226 8.31457 9.18495 8.27839 9.15446C8.2388 9.1211 8.21123 9.08518 8.19424 9.06078C8.15967 9.01113 8.13175 8.95453 8.10986 8.90536C8.06443 8.80328 8.0171 8.66873 7.9703 8.52159C7.87563 8.22395 7.76993 7.83238 7.67145 7.4454C7.5726 7.05696 7.47952 6.66723 7.41013 6.37093C7.37541 6.22268 7.34657 6.0976 7.32586 6.00764C7.31434 5.95755 7.30615 5.92202 7.30092 5.89933C7.29616 5.87866 7.29386 5.86866 7.29372 5.86801C7.29372 5.86801 7.29372 5.86801 7.29372 5.86801C7.19143 5.49849 7.13455 5.31304 7.05267 5.20192C7.02161 5.15977 6.99075 5.13539 6.94987 5.11785C6.90375 5.09806 6.82712 5.07967 6.69593 5.07967C6.65787 5.07967 6.55779 5.10226 6.38172 5.1921C6.21646 5.27643 6.02055 5.4008 5.80367 5.55545C5.37059 5.86426 4.88422 6.27187 4.44021 6.66076L4.43838 6.66237L4.43837 6.66236L4.40266 6.6932L4.40358 6.69436C4.51861 6.61073 4.63826 6.52838 4.75466 6.46197C4.89517 6.38179 5.08033 6.29501 5.27583 6.29366C5.59847 6.28747 5.79483 6.53704 5.90986 6.74509C6.03571 6.97274 6.14905 7.30037 6.26409 7.72006C6.48758 8.52826 6.76036 9.3964 7.05747 10.0573C7.20685 10.3896 7.35422 10.6508 7.49313 10.8233C7.64322 11.0098 7.72367 11.0201 7.72985 11.0201C7.99093 11.0201 8.31219 10.9112 8.71862 10.6051C9.12554 10.2987 9.59425 9.81215 10.1418 9.10127L11.416 5.19324ZM11.416 5.19324L11.4213 5.19875M11.416 5.19324L11.4213 5.19875M11.4213 5.19875C11.5682 5.35304 11.6741 5.66326 11.6453 6.19385L11.6452 6.19385M11.4213 5.19875L11.6452 6.19385M11.6452 6.19385L11.6451 6.19863M11.6452 6.19385L11.6451 6.19863M11.6451 6.19863C11.6326 6.5058 11.5135 6.90317 11.26 7.39903M11.6451 6.19863L11.26 7.39903M11.26 7.39903C11.0084 7.89123 10.6357 8.45884 10.1419 9.1012L11.26 7.39903ZM4.30276 6.77949L4.30298 6.77929L4.30276 6.77949Z" fill="currentColor" stroke="currentColor" stroke-width="0.7"/>
<path d="M0 7.54963C0.862722 7.38893 1.29408 6.94488 1.29408 6.21749C1.29408 5.89609 1.25179 5.34631 1.16721 4.56817C1.08263 3.73928 1.04034 3.13876 1.04034 2.7666C1.04034 2.15762 1.2095 1.69243 1.54782 1.37103C1.8946 1.04962 2.35557 0.888916 2.93072 0.888916H3.66657V1.8912H3.1464C2.81653 1.8912 2.57125 1.96732 2.41055 2.11956C2.24984 2.26335 2.16949 2.5044 2.16949 2.84273C2.16949 3.08801 2.18641 3.3925 2.22024 3.7562C2.25407 4.11144 2.27522 4.35249 2.28368 4.47936C2.36826 5.29133 2.41055 5.8834 2.41055 6.25555C2.41055 6.70383 2.29636 7.08021 2.06799 7.3847C1.84809 7.68073 1.50553 7.8795 1.04034 7.981V8.00637C1.50553 8.10787 1.84809 8.31086 2.06799 8.61535C2.29636 8.91984 2.41055 9.29622 2.41055 9.7445C2.41055 10.1167 2.36826 10.7087 2.28368 11.5207C2.27522 11.6476 2.25407 11.8928 2.22024 12.2565C2.18641 12.6118 2.16949 12.912 2.16949 13.1573C2.16949 13.4956 2.24984 13.7367 2.41055 13.8805C2.57125 14.0327 2.81653 14.1089 3.1464 14.1089H3.66657V15.1111H2.93072C2.35557 15.1111 1.8946 14.9504 1.54782 14.629C1.2095 14.3076 1.04034 13.8424 1.04034 13.2334C1.04034 12.8613 1.08263 12.2608 1.16721 11.4319C1.25179 10.6537 1.29408 10.104 1.29408 9.78256C1.29408 9.05517 0.862722 8.61112 0 8.45042V7.54963Z" fill="currentColor"/>
<path d="M16 7.54963C15.1373 7.38893 14.7059 6.94488 14.7059 6.21749C14.7059 5.89609 14.7482 5.34631 14.8328 4.56817C14.9174 3.73928 14.9597 3.13876 14.9597 2.7666C14.9597 2.15762 14.7905 1.69243 14.4522 1.37103C14.1054 1.04962 13.6444 0.888916 13.0693 0.888916H12.3334V1.8912H12.8536C13.1835 1.8912 13.4288 1.96732 13.5895 2.11956C13.7502 2.26335 13.8305 2.5044 13.8305 2.84273C13.8305 3.08801 13.8136 3.3925 13.7798 3.7562C13.7459 4.11144 13.7248 4.35249 13.7163 4.47936C13.6317 5.29133 13.5895 5.8834 13.5895 6.25555C13.5895 6.70383 13.7036 7.08021 13.932 7.3847C14.1519 7.68073 14.4945 7.8795 14.9597 7.981V8.00637C14.4945 8.10787 14.1519 8.31086 13.932 8.61535C13.7036 8.91984 13.5895 9.29622 13.5895 9.7445C13.5895 10.1167 13.6317 10.7087 13.7163 11.5207C13.7248 11.6476 13.7459 11.8928 13.7798 12.2565C13.8136 12.6118 13.8305 12.912 13.8305 13.1573C13.8305 13.4956 13.7502 13.7367 13.5895 13.8805C13.4288 14.0327 13.1835 14.1089 12.8536 14.1089H12.3334V15.1111H13.0693C13.6444 15.1111 14.1054 14.9504 14.4522 14.629C14.7905 14.3076 14.9597 13.8424 14.9597 13.2334C14.9597 12.8613 14.9174 12.2608 14.8328 11.4319C14.7482 10.6537 14.7059 10.104 14.7059 9.78256C14.7059 9.05517 15.1373 8.61112 16 8.45042V7.54963Z" fill="currentColor"/>
</svg>
