<svg width="15" height="15" viewBox="0 0 15 15" fill="none" xmlns="http://www.w3.org/2000/svg">
<path d="M10.5 4.5L8.40169 10.5H6.59831L4.5 4.5H6.03371L7.5 9.02991L8.97472 4.5H10.5Z" fill="currentColor"/>
<path fill-rule="evenodd" clip-rule="evenodd" d="M1.28395 1.28395C2.21109 0.356801 3.60069 0 5.4 0H9.6C11.3993 0 12.7889 0.356801 13.7161 1.28395C14.6432 2.21109 15 3.60069 15 5.4V9.6C15 11.3993 14.6432 12.7889 13.7161 13.7161C12.7889 14.6432 11.3993 15 9.6 15H5.4C3.60069 15 2.21109 14.6432 1.28395 13.7161C0.356801 12.7889 0 11.3993 0 9.6V5.4C0 3.60069 0.356801 2.21109 1.28395 1.28395ZM1.99105 1.99105C1.3432 2.63891 1 3.69931 1 5.4V9.6C1 11.3007 1.3432 12.3611 1.99105 13.0089C2.63891 13.6568 3.69931 14 5.4 14H9.6C11.3007 14 12.3611 13.6568 13.0089 13.0089C13.6568 12.3611 14 11.3007 14 9.6V5.4C14 3.69931 13.6568 2.63891 13.0089 1.99105C12.3611 1.3432 11.3007 1 9.6 1H5.4C3.69931 1 2.63891 1.3432 1.99105 1.99105Z" fill="currentColor"/>
</svg>
