<svg width="22" height="17" viewBox="0 0 22 17" fill="none" xmlns="http://www.w3.org/2000/svg">
<path d="M20.8991 2.71094C20.6447 2.58712 20.3603 2.53839 20.0792 2.57045C19.7981 2.6025 19.532 2.71402 19.3121 2.89194L16.7491 4.94194V4.50294C16.8078 3.99628 16.7512 3.4829 16.5835 3.0012C16.4158 2.5195 16.1414 2.08196 15.7807 1.7213C15.42 1.36064 14.9825 1.08619 14.5008 0.918503C14.0191 0.750812 13.5057 0.694212 12.9991 0.752936H3.99906C3.4924 0.694212 2.97902 0.750812 2.49732 0.918503C2.01563 1.08619 1.57808 1.36064 1.21742 1.7213C0.85676 2.08196 0.582319 2.5195 0.414628 3.0012C0.246936 3.4829 0.190336 3.99628 0.24906 4.50294V12.5029C0.190336 13.0096 0.246936 13.523 0.414628 14.0047C0.582319 14.4864 0.85676 14.9239 1.21742 15.2846C1.57808 15.6452 2.01563 15.9197 2.49732 16.0874C2.97902 16.2551 3.4924 16.3117 3.99906 16.2529H12.9991C13.5057 16.3117 14.0191 16.2551 14.5008 16.0874C14.9825 15.9197 15.42 15.6452 15.7807 15.2846C16.1414 14.9239 16.4158 14.4864 16.5835 14.0047C16.7512 13.523 16.8078 13.0096 16.7491 12.5029V12.0639L19.3121 14.1139C19.5765 14.3275 19.9061 14.444 20.2461 14.4439C20.4721 14.4436 20.6952 14.3927 20.8991 14.2949C21.1545 14.1733 21.3701 13.9815 21.5206 13.7419C21.6711 13.5023 21.7504 13.2249 21.7491 12.9419V4.06394C21.7504 3.781 21.6711 3.50354 21.5206 3.26396C21.3701 3.02438 21.1545 2.83257 20.8991 2.71094ZM15.2491 12.5029C15.2491 14.0799 14.5761 14.7529 12.9991 14.7529H3.99906C2.42206 14.7529 1.74906 14.0799 1.74906 12.5029V4.50294C1.74906 2.92594 2.42206 2.25294 3.99906 2.25294H12.9991C14.5761 2.25294 15.2491 2.92594 15.2491 4.50294V12.5029ZM20.2491 12.9429L16.7491 10.1429V6.86294L20.2491 4.06294V12.9429Z" fill="currentColor"/>
</svg>
