<svg width="18" height="16" viewBox="0 0 18 16" fill="none" xmlns="http://www.w3.org/2000/svg">
<path d="M18 2.97752V13.0224C18 13.2011 17.9047 13.3661 17.75 13.4554C17.6727 13.5001 17.5863 13.5224 17.5 13.5224C17.4137 13.5224 17.3273 13.5001 17.25 13.4554L14.196 11.6922V12.1226C14.196 13.2832 13.2518 14.2273 12.0913 14.2273H4.10469C2.94416 14.2273 2 13.2832 2 12.1226V3.87727C2 2.71674 2.94416 1.77258 4.10469 1.77258H12.0913C13.2518 1.77258 14.196 2.71674 14.196 3.87727V4.30774L17.25 2.54449C17.4047 2.45518 17.5953 2.45518 17.75 2.54449C17.9047 2.6338 18 2.79886 18 2.97752ZM13.196 3.87727C13.196 3.26815 12.7004 2.77258 12.0913 2.77258H4.10469C3.49556 2.77258 3 3.26815 3 3.87727V12.1227C3 12.7318 3.49556 13.2274 4.10469 13.2274H12.0913C12.7004 13.2274 13.196 12.7318 13.196 12.1227V3.87727ZM17 3.84355L14.196 5.46243V10.5375L17 12.1564V3.84355Z" fill="#71347B"/>
<rect x="0.630859" y="0.720825" width="6.08496" height="6.08496" rx="3.04248" fill="#C60202" stroke="white" stroke-width="0.5"/>
</svg>
