<svg width="101" height="100" viewBox="0 0 101 100" fill="none" xmlns="http://www.w3.org/2000/svg">
<path d="M50.3335 100C77.9477 100 100.333 77.6142 100.333 50C100.333 22.3858 77.9477 0 50.3335 0C22.7193 0 0.333496 22.3858 0.333496 50C0.333496 77.6142 22.7193 100 50.3335 100Z" fill="#BC79C9" fill-opacity="0.24"/>
<path d="M65.0517 41.4882C66.6511 42.326 67.9851 43.558 68.9142 45.0553C69.8433 46.5526 70.3335 48.2603 70.3335 50C70.3335 51.7397 69.8433 53.4474 68.9142 54.9447C67.9851 56.442 66.6511 57.674 65.0517 58.5118L45.4371 68.7952C43.8846 69.6102 42.1359 70.0251 40.3637 69.9988C38.5916 69.9726 36.8573 69.5061 35.3321 68.6455C33.8069 67.7848 32.5436 66.5598 31.667 65.0914C30.7904 63.6231 30.3307 61.9621 30.3335 60.2726V39.7145C30.3331 38.026 30.7945 36.3667 31.6721 34.9001C32.5497 33.4335 33.8132 32.2103 35.338 31.3512C36.8628 30.4921 38.5961 30.0268 40.3671 30.0011C42.1382 29.9755 43.8856 30.3903 45.4371 31.2048L65.0517 41.4882Z" fill="white"/>
</svg>
