<svg width="17" height="16" viewBox="0 0 17 16" fill="none" xmlns="http://www.w3.org/2000/svg">
<path d="M6.28942 11.6123C6.38426 11.666 6.49166 11.6936 6.60065 11.6922C6.70964 11.6908 6.8163 11.6605 6.90972 11.6043L11.8666 8.63016C11.9576 8.57545 12.0329 8.49813 12.0852 8.40572C12.1374 8.31331 12.1649 8.20894 12.1649 8.10278C12.1649 7.99661 12.1374 7.89225 12.0852 7.79983C12.0329 7.70742 11.9576 7.6301 11.8666 7.57539L6.90972 4.60062C6.81636 4.54453 6.70978 4.51422 6.60086 4.51279C6.49195 4.51137 6.38461 4.53887 6.28981 4.5925C6.19501 4.64613 6.11613 4.72396 6.06125 4.81804C6.00637 4.91212 5.97744 5.01909 5.97742 5.12801V11.0769C5.97742 11.1858 6.0063 11.2927 6.06111 11.3868C6.11592 11.4808 6.1947 11.5586 6.28942 11.6123ZM7.20819 6.21539L10.354 8.10278L7.20819 9.98954V6.21539Z" fill="currentColor"/>
<path d="M15.8236 7.37047C15.6589 7.37354 15.502 7.4413 15.3868 7.5591C15.2717 7.6769 15.2075 7.83528 15.2082 8.00001C15.2094 8.78953 15.0719 9.57313 14.802 10.3151C14.7472 10.4682 14.7552 10.6367 14.8243 10.7839C14.8934 10.9311 15.0179 11.045 15.1706 11.1007C15.3234 11.1564 15.492 11.1493 15.6396 11.0811C15.7872 11.0129 15.9018 10.8891 15.9583 10.7366C16.2774 9.85956 16.4401 8.93331 16.439 8.00001V7.97108C16.4387 7.89102 16.4225 7.81181 16.3914 7.73808C16.3602 7.66434 16.3146 7.59756 16.2573 7.54165C16.2 7.48573 16.1321 7.44179 16.0577 7.4124C15.9832 7.383 15.9036 7.36875 15.8236 7.37047Z" fill="currentColor"/>
<path d="M3.2082 3.40554C3.37016 3.40445 3.52507 3.33916 3.63897 3.224C4.19489 2.66393 4.84473 2.20571 5.55897 1.87016C5.70675 1.80071 5.8209 1.6754 5.87629 1.5218C5.93169 1.36819 5.9238 1.19887 5.85435 1.05108C5.78491 0.903296 5.6596 0.78915 5.50599 0.733754C5.35238 0.678359 5.18306 0.686253 5.03527 0.755698C4.1915 1.15272 3.42363 1.6942 2.76635 2.3557C2.68011 2.4422 2.62156 2.55241 2.59816 2.67229C2.57476 2.79218 2.58757 2.91632 2.63495 3.0289C2.68233 3.14149 2.76215 3.23742 2.86423 3.3045C2.96632 3.37157 3.08606 3.40674 3.2082 3.40554Z" fill="currentColor"/>
<path d="M15.3842 5.4117C15.5318 5.3422 15.6457 5.21695 15.701 5.06348C15.7563 4.91001 15.7483 4.74087 15.679 4.59324C15.282 3.7494 14.7405 2.98152 14.079 2.32432C14.0216 2.26734 13.9535 2.22223 13.8787 2.19155C13.8039 2.16087 13.7238 2.14523 13.6429 2.14551C13.4796 2.14609 13.3233 2.21151 13.2082 2.32739C13.0931 2.44327 13.0288 2.60011 13.0294 2.76341C13.03 2.92671 13.0954 3.0831 13.2113 3.19816C13.7711 3.75379 14.2293 4.40319 14.5651 5.11693C14.6346 5.2645 14.7599 5.37845 14.9133 5.43372C15.0668 5.489 15.2366 5.48107 15.3842 5.4117Z" fill="currentColor"/>
<path d="M8.43897 1.23077C9.22179 1.2301 9.99881 1.36502 10.7356 1.62954C10.8024 1.65394 10.873 1.66644 10.9442 1.66647C11.0888 1.66615 11.2287 1.61492 11.3393 1.52176C11.4499 1.4286 11.5242 1.29947 11.5491 1.15701C11.574 1.01456 11.5479 0.86789 11.4754 0.742741C11.403 0.617592 11.2887 0.521958 11.1528 0.472621C10.2825 0.158769 9.36416 -0.00115724 8.43897 6.30355e-06H8.41743C8.33715 0.000159998 8.2577 0.0162594 8.18369 0.0473698C8.10969 0.0784803 8.0426 0.123982 7.98632 0.181233C7.93004 0.238485 7.8857 0.306345 7.85586 0.380875C7.82602 0.455405 7.81129 0.535119 7.81251 0.61539C7.81494 0.779764 7.88207 0.936553 7.99934 1.05175C8.11662 1.16695 8.27458 1.23128 8.43897 1.23077Z" fill="currentColor"/>
<path d="M1.66974 8C1.66889 7.21515 1.80466 6.43614 2.07097 5.69785C2.12646 5.54435 2.1187 5.37509 2.0494 5.22732C1.9801 5.07954 1.85493 4.96534 1.70143 4.90985C1.54793 4.85436 1.37868 4.86212 1.2309 4.93142C1.08312 5.00072 0.968923 5.12589 0.913431 5.27939C0.598468 6.15182 0.437913 7.07246 0.43897 8V8.01416C0.439047 8.09463 0.455067 8.17429 0.486104 8.24854C0.517141 8.32279 0.562581 8.39015 0.619798 8.44674C0.677016 8.50333 0.744877 8.54802 0.819464 8.57823C0.894051 8.60845 0.973884 8.62358 1.05435 8.62277C1.21839 8.62131 1.37519 8.55499 1.49049 8.4383C1.60579 8.32162 1.67023 8.16405 1.66974 8Z" fill="currentColor"/>
<path d="M8.43897 14.7692C7.6517 14.7701 6.87032 14.6335 6.13005 14.3655C5.97655 14.3099 5.80723 14.3175 5.65933 14.3867C5.51144 14.4559 5.39709 14.581 5.34143 14.7345C5.28578 14.888 5.29338 15.0573 5.36257 15.2052C5.43175 15.3531 5.55686 15.4674 5.71036 15.5231C6.58522 15.8396 7.50861 16.001 8.43897 16H8.44635C8.52717 15.9995 8.60709 15.9831 8.68157 15.9517C8.75605 15.9204 8.82361 15.8746 8.88042 15.8171C8.93722 15.7597 8.98214 15.6915 9.01262 15.6167C9.04309 15.5418 9.05853 15.4617 9.05805 15.3809C9.05756 15.3001 9.04116 15.2202 9.00979 15.1457C8.97842 15.0712 8.93268 15.0037 8.87519 14.9469C8.81771 14.8901 8.7496 14.8451 8.67475 14.8147C8.5999 14.7842 8.51978 14.7687 8.43897 14.7692Z" fill="currentColor"/>
<path d="M13.2273 12.7846C12.6702 13.3438 12.0193 13.8008 11.3042 14.1348C11.231 14.169 11.1652 14.2174 11.1107 14.2771C11.0562 14.3367 11.0139 14.4066 10.9864 14.4826C10.9308 14.6361 10.9384 14.8054 11.0076 14.9532C11.0768 15.1011 11.2019 15.2154 11.3554 15.271C11.5089 15.3267 11.6782 15.319 11.8261 15.2498C12.6718 14.8555 13.4416 14.3156 14.1005 13.6548C14.2126 13.5387 14.2746 13.3833 14.2732 13.2219C14.2718 13.0605 14.2071 12.9062 14.093 12.7921C13.9789 12.678 13.8246 12.6133 13.6632 12.6119C13.5019 12.6105 13.3464 12.6725 13.2304 12.7846H13.2273Z" fill="currentColor"/>
<path d="M2.30728 10.8714C2.23464 10.7294 2.10969 10.6211 1.95877 10.5694C1.80786 10.5177 1.64277 10.5267 1.49832 10.5943C1.35386 10.662 1.24134 10.7831 1.18446 10.9322C1.12758 11.0812 1.1308 11.2465 1.19343 11.3932C1.58882 12.2368 2.12911 13.0046 2.78974 13.6615C2.90596 13.7735 3.0615 13.8353 3.22285 13.8337C3.38421 13.832 3.53847 13.7671 3.65241 13.6528C3.76635 13.5386 3.83085 13.3841 3.83202 13.2228C3.83319 13.0614 3.77094 12.9061 3.65866 12.7902C3.09979 12.2342 2.64244 11.5849 2.30728 10.8714Z" fill="currentColor"/>
</svg>
