<svg width="16" height="14" viewBox="0 0 16 14" fill="none" xmlns="http://www.w3.org/2000/svg">
<path fill-rule="evenodd" clip-rule="evenodd" d="M8.00006 0.157043C5.08225 0.157043 2.41798 1.87715 0.595366 4.7422C0.186966 5.38221 -0.000366211 6.2063 -0.000366211 7.00002C-0.000366211 7.79361 0.186903 8.61755 0.595158 9.25751C2.41778 12.1228 5.08214 13.843 8.00006 13.843C10.9179 13.843 13.5821 12.1229 15.4048 9.25784C15.8132 8.61783 16.0005 7.79375 16.0005 7.00002C16.0005 6.20616 15.8131 5.38193 15.4045 4.74188C15.256 4.50911 14.9468 4.44086 14.7141 4.58943C14.4813 4.73801 14.4131 5.04715 14.5616 5.27991C14.843 5.72066 15.0005 6.34515 15.0005 7.00002C15.0005 7.65489 14.843 8.27939 14.5616 8.72013L14.5612 8.72079C12.8732 11.3745 10.4938 12.843 8.00006 12.843C5.50633 12.843 3.12697 11.3745 1.43892 8.72079L1.4385 8.72013C1.15717 8.27939 0.999634 7.65489 0.999634 7.00002C0.999634 6.34515 1.15717 5.72066 1.4385 5.27991L1.43892 5.27926C3.12697 2.62555 5.50633 1.15704 8.00006 1.15704C9.39637 1.15704 10.7531 1.61695 11.9725 2.48279C12.1976 2.64266 12.5097 2.58974 12.6696 2.36459C12.8295 2.13943 12.7766 1.8273 12.5514 1.66743C11.1799 0.693612 9.62385 0.157043 8.00006 0.157043ZM5.75606 6.99626C5.75606 5.75469 6.75864 4.75211 8.00021 4.75211C9.24179 4.75211 10.2444 5.75469 10.2444 6.99626C10.2444 8.23784 9.24179 9.24042 8.00021 9.24042C7.72407 9.24042 7.50021 9.46427 7.50021 9.74042C7.50021 10.0166 7.72407 10.2404 8.00021 10.2404C9.79407 10.2404 11.2444 8.79012 11.2444 6.99626C11.2444 5.20241 9.79407 3.75211 8.00021 3.75211C6.20636 3.75211 4.75606 5.20241 4.75606 6.99626C4.75606 7.66374 4.95485 8.29114 5.31099 8.81165C5.46692 9.03955 5.77808 9.0979 6.00598 8.94196C6.23388 8.78603 6.29223 8.47487 6.13629 8.24697C5.89454 7.89364 5.75606 7.46324 5.75606 6.99626Z" fill="currentColor"/>
</svg>
