<svg width="16" height="16" viewBox="0 0 16 16" fill="none" xmlns="http://www.w3.org/2000/svg">
<path d="M14.911 7.18924C14.786 7.01815 11.806 3 7.99994 3C4.19392 3 1.21377 7.01815 1.08884 7.18907C0.970387 7.35139 0.970387 7.57153 1.08884 7.73385C1.21377 7.90494 4.19392 11.9231 7.99994 11.9231C11.806 11.9231 14.786 7.90491 14.911 7.73398C15.0297 7.5717 15.0297 7.35139 14.911 7.18924ZM7.99994 11C5.1964 11 2.76824 8.33309 2.04946 7.46123C2.76731 6.5886 5.19039 3.92307 7.99994 3.92307C10.8033 3.92307 13.2313 6.58953 13.9504 7.46186C13.2326 8.33445 10.8095 11 7.99994 11Z" fill="currentColor"/>
<path d="M7.99996 4.69238C6.47302 4.69238 5.23071 5.9347 5.23071 7.46163C5.23071 8.98856 6.47302 10.2309 7.99996 10.2309C9.52689 10.2309 10.7692 8.98856 10.7692 7.46163C10.7692 5.9347 9.52689 4.69238 7.99996 4.69238ZM7.99996 9.30778C6.98195 9.30778 6.15381 8.47961 6.15381 7.46163C6.15381 6.44365 6.98198 5.61548 7.99996 5.61548C9.01794 5.61548 9.84611 6.44365 9.84611 7.46163C9.84611 8.47961 9.01797 9.30778 7.99996 9.30778Z" fill="currentColor"/>
</svg>
