<svg width="16" height="17" viewBox="0 0 16 17" fill="none" xmlns="http://www.w3.org/2000/svg">
<path d="M15.4269 4.752L10.7931 0.117627C10.7462 0.070752 10.6828 0.0441895 10.6165 0.0441895H5.36779C4.14623 0.0441895 3.15248 1.03825 3.15248 2.25981V6.6445H1.20811C0.83248 6.6445 0.526855 6.95013 0.526855 7.32575V11.242C0.526855 11.6176 0.83248 11.9233 1.20811 11.9233H3.15248V13.8286C3.15248 15.0501 4.14623 16.0442 5.36779 16.0442H13.2847C14.5062 16.0442 15.5 15.0501 15.5 13.8286V4.92888C15.5 4.86263 15.4737 4.79888 15.4269 4.752ZM15.0003 13.8286C15.0003 14.7748 14.2306 15.5445 13.2847 15.5445H5.36779C4.42186 15.5445 3.65217 14.7748 3.65217 13.8286V11.9233H11.8831C12.2587 11.9233 12.5644 11.6176 12.5644 11.242V7.32575C12.5644 6.95013 12.2587 6.6445 11.8831 6.6445H3.65217V2.25981C3.65217 1.31356 4.42186 0.543877 5.36779 0.543877H10.3665V4.42825C10.3665 4.842 10.7028 5.17856 11.1159 5.17856H15.0003V13.8286Z" fill="currentColor"/>
<path fill-rule="evenodd" clip-rule="evenodd" d="M7.73766 10.5659L8.51766 7.77393H7.91366L7.41766 9.92993L6.88166 7.77393H6.25766L5.68966 9.94193L5.19766 7.77393H4.59766L5.34966 10.5699L6.00566 10.5659L6.55366 8.57793L7.07766 10.5659H7.73766Z" fill="white"/>
</svg>
