<svg width="20" height="20" viewBox="0 0 20 20" fill="none" xmlns="http://www.w3.org/2000/svg">
<g clip-path="url(#clip0_5540_15040)">
<path d="M16.6261 16.6281C20.2867 12.9675 20.2867 7.03249 16.6261 3.37187C12.9655 -0.288738 7.03044 -0.288737 3.36982 3.37187C-0.290788 7.03249 -0.290788 12.9675 3.36982 16.6281C7.03044 20.2887 12.9655 20.2887 16.6261 16.6281Z" fill="#FDA24C"/>
<path fill-rule="evenodd" clip-rule="evenodd" d="M19.2399 11.5904C18.5728 15.4935 15.4933 18.5729 11.5903 19.24L6.54334 14.1931C5.33564 13.1964 4.56592 11.6881 4.56592 9.99999C4.56592 6.99885 6.99873 4.56604 9.99986 4.56604C11.688 4.56604 13.1963 5.33581 14.193 6.54346L19.2399 11.5904Z" fill="#E2750F"/>
<path fill-rule="evenodd" clip-rule="evenodd" d="M9.8914 4.56592C12.8326 4.56592 15.2169 6.99873 15.2169 9.99986C15.2169 13.001 12.8326 15.4338 9.8914 15.4338C6.95017 15.4338 4.56592 13.001 4.56592 9.99986C4.56592 6.99873 6.95017 4.56592 9.8914 4.56592ZM9.89132 11.2679C9.55057 11.2679 9.27336 11.5451 9.27336 11.8858C9.30442 12.7045 10.4784 12.7043 10.5093 11.8858C10.5093 11.5451 10.2321 11.2679 9.89132 11.2679ZM9.27371 7.78514C9.58049 7.40454 10.2023 7.40472 10.509 7.78513C10.6626 7.96803 10.7271 8.20782 10.6859 8.44299L10.312 10.5793C10.225 11.0472 9.55772 11.0473 9.47059 10.5793L9.09677 8.44299C9.05559 8.20781 9.12009 7.96803 9.27371 7.78514Z" fill="white"/>
</g>
<defs>
<clipPath id="clip0_5540_15040">
<rect width="20" height="20" fill="white"/>
</clipPath>
</defs>
</svg>
