<svg width="65" height="65" viewBox="0 0 65 65" fill="none" xmlns="http://www.w3.org/2000/svg">
<rect opacity="0.1" x="0.102356" y="0.550781" width="64" height="64" rx="32" fill="#F79009"/>
<rect opacity="0.3" x="12.1024" y="12.5508" width="40" height="40" rx="20" fill="#F79009"/>
<path fill-rule="evenodd" clip-rule="evenodd" d="M32.1024 42.5508C33.187 42.5508 34.098 41.6397 34.098 40.5551C34.098 39.4705 33.187 38.5595 32.1024 38.5595C31.0178 38.5595 30.1067 39.4705 30.1067 40.5551C30.1067 41.6397 31.0178 42.5508 32.1024 42.5508ZM32.1024 22.5508C33.6208 22.5508 34.8355 23.7655 34.8355 25.284C34.8355 26.8024 33.6208 37.2146 32.1024 37.2146C30.5839 37.2146 29.3692 26.8024 29.3692 25.284C29.3692 23.7655 30.5839 22.5508 32.1024 22.5508Z" fill="#D77B01"/>
</svg>
