<svg width="16" height="17" viewBox="0 0 16 17" fill="none" xmlns="http://www.w3.org/2000/svg">
<path d="M15.4269 4.752L10.7931 0.117627C10.7462 0.070752 10.6828 0.0441895 10.6165 0.0441895H5.36779C4.14623 0.0441895 3.15248 1.03825 3.15248 2.25981V6.6445H1.20811C0.83248 6.6445 0.526855 6.95013 0.526855 7.32575V11.242C0.526855 11.6176 0.83248 11.9233 1.20811 11.9233H3.15248V13.8286C3.15248 15.0501 4.14623 16.0442 5.36779 16.0442H13.2847C14.5062 16.0442 15.5 15.0501 15.5 13.8286V4.92888C15.5 4.86263 15.4737 4.79888 15.4269 4.752ZM15.0003 13.8286C15.0003 14.7748 14.2306 15.5445 13.2847 15.5445H5.36779C4.42186 15.5445 3.65217 14.7748 3.65217 13.8286V11.9233H11.8831C12.2587 11.9233 12.5644 11.6176 12.5644 11.242V7.32575C12.5644 6.95013 12.2587 6.6445 11.8831 6.6445H3.65217V2.25981C3.65217 1.31356 4.42186 0.543877 5.36779 0.543877H10.3665V4.42825C10.3665 4.842 10.7028 5.17856 11.1159 5.17856H15.0003V13.8286Z" fill="currentColor"/>
<path fill-rule="evenodd" clip-rule="evenodd" d="M4.89489 10.6866L5.67489 7.8946H5.07089L4.57489 10.0506L4.03889 7.8946H3.41489L2.84689 10.0626L2.35489 7.8946H1.75489L2.50689 10.6906L3.16289 10.6866L3.71089 8.6986L4.23489 10.6866H4.89489ZM6.45654 10.6866L6.64054 10.1546H7.75254L7.93654 10.6866H8.52854L7.52454 7.8906H6.87254L5.86854 10.6866H6.45654ZM7.19654 8.5386L7.60054 9.7066H6.79254L7.19654 8.5386ZM10.3878 10.6866L11.4118 7.8946H10.8158L10.0518 10.1146L9.28383 7.8946H8.68383L9.70783 10.6866H10.3878Z" fill="white"/>
</svg>
