<svg width="16" height="14" viewBox="0 0 16 14" fill="none" xmlns="http://www.w3.org/2000/svg">
<path fill-rule="evenodd" clip-rule="evenodd" d="M0.688042 9.91308C0.247712 9.03675 0 8.04677 0 6.99996C0 5.95314 0.247712 4.96316 0.688042 4.08684C1.75742 1.9559 3.96297 0.492615 6.50734 0.492615C9.05171 0.492615 11.2573 1.9559 12.3266 4.08684C12.5242 4.48003 12.683 4.8961 12.798 5.32992H11.8954C11.844 5.16406 11.7852 5.00147 11.7193 4.84256C11.0109 5.11717 10.1757 5.33755 9.25387 5.48592C9.3016 5.97093 9.32719 6.47807 9.32719 6.99996C9.32719 7.52185 9.3016 8.02898 9.25387 8.514C9.85897 8.61138 10.4267 8.73979 10.9457 8.8942V9.80207C10.4034 9.62503 9.79648 9.47993 9.14238 9.37384C8.96451 10.471 8.66865 11.415 8.2986 12.106C8.2422 12.211 8.18363 12.3104 8.12333 12.4041C9.25325 12.0662 10.2349 11.3835 10.9457 10.4779V11.7571C9.78285 12.8427 8.22203 13.5073 6.50734 13.5073C3.96297 13.5073 1.75742 12.044 0.688042 9.91308ZM1.29539 4.84256C1.01992 5.50717 0.867646 6.23599 0.867646 6.99996C0.867646 7.76392 1.01992 8.49274 1.29539 9.15736C2.00383 8.88275 2.83894 8.66236 3.76081 8.514C3.71309 8.02898 3.68749 7.52185 3.68749 6.99996C3.68749 6.47807 3.71309 5.97093 3.76081 5.48592C2.83894 5.33755 2.00383 5.11717 1.29539 4.84256ZM11.3232 4.06558C10.6052 2.89035 9.46948 1.99841 8.12333 1.59583C8.18363 1.68953 8.2422 1.78888 8.2986 1.89386C8.66865 2.58494 8.96451 3.52894 9.14238 4.62608C9.95276 4.49463 10.6907 4.30331 11.3232 4.06558ZM4.89135 1.59583C3.5452 1.99841 2.40945 2.89035 1.69148 4.06558C2.32399 4.30375 3.06192 4.49463 3.8723 4.62608C4.05017 3.52894 4.34604 2.58494 4.71609 1.89386C4.77249 1.78888 4.83105 1.68953 4.89135 1.59583ZM1.69148 9.93433C2.40945 11.1096 3.5452 12.0015 4.89135 12.4041C4.83105 12.3104 4.77249 12.211 4.71609 12.106C4.34604 11.415 4.05017 10.471 3.8723 9.37384C3.06192 9.50528 2.32399 9.6966 1.69148 9.93433ZM6.50734 1.36026C6.34032 1.36026 6.18414 1.43965 6.03404 1.56719C5.83275 1.73812 5.64881 1.99017 5.48092 2.30383C5.14948 2.92246 4.88918 3.76364 4.7304 4.74017C5.29871 4.79961 5.89392 4.83084 6.50734 4.83084C7.12077 4.83084 7.71597 4.79917 8.28428 4.74017C8.1255 3.76364 7.86521 2.92246 7.53377 2.30383C7.36588 1.99017 7.18194 1.73812 6.98064 1.56719C6.83054 1.43965 6.67436 1.36026 6.50734 1.36026ZM6.50734 12.6397C6.67436 12.6397 6.83054 12.5603 6.98064 12.4327C7.18194 12.2618 7.36588 12.0097 7.53377 11.6961C7.86521 11.0775 8.1255 10.2363 8.28428 9.25974C7.71597 9.20074 7.12077 9.16907 6.50734 9.16907C5.89392 9.16907 5.29871 9.20074 4.7304 9.25974C4.88918 10.2363 5.14948 11.0775 5.48092 11.6961C5.64881 12.0097 5.83275 12.2618 6.03404 12.4327C6.18414 12.5603 6.34032 12.6397 6.50734 12.6397ZM8.39447 8.3999C8.43699 7.95133 8.45955 7.48237 8.45955 6.99996C8.45955 6.51755 8.43699 6.04858 8.39447 5.60001C7.79102 5.66422 7.15851 5.69849 6.50734 5.69849C5.85617 5.69849 5.22366 5.66422 4.62021 5.60001C4.5777 6.04858 4.55514 6.51755 4.55514 6.99996C4.55514 7.48237 4.5777 7.95133 4.62021 8.3999C5.22366 8.3357 5.85617 8.30143 6.50734 8.30143C7.15851 8.30143 7.79102 8.3357 8.39447 8.3999ZM15.0982 5.5073H11.999C11.5718 5.5073 11.0966 5.98851 11.0966 6.41567V12.6141C11.0966 13.0412 11.5718 13.5073 11.999 13.5073H15.0982C15.5253 13.5073 16 13.0412 16 12.6141V6.41567C16 5.98851 15.5253 5.5073 15.0982 5.5073ZM15.4856 12.6141C15.4856 12.828 15.3121 13.0015 15.0982 13.0015H11.999C11.785 13.0015 11.6116 12.828 11.6116 12.6141V6.41567C11.6116 6.2017 11.785 6.02827 11.999 6.02827H15.0982C15.3121 6.02827 15.4856 6.2017 15.4856 6.41567V12.6141ZM14.2588 6.28654H13.484C13.3769 6.28654 13.2903 6.37319 13.2903 6.48023C13.2903 6.58728 13.3769 6.67393 13.484 6.67393H14.2588C14.3658 6.67393 14.4525 6.58728 14.4525 6.48023C14.4525 6.37319 14.3658 6.28654 14.2588 6.28654ZM13.936 12.3558C13.936 12.5697 13.7625 12.7432 13.5486 12.7432C13.3346 12.7432 13.1612 12.5697 13.1612 12.3558C13.1612 12.1418 13.3346 11.9684 13.5486 11.9684C13.7625 11.9684 13.936 12.1418 13.936 12.3558ZM12.8384 6.67393C12.9453 6.67393 13.0321 6.58721 13.0321 6.48023C13.0321 6.37326 12.9453 6.28654 12.8384 6.28654C12.7314 6.28654 12.6447 6.37326 12.6447 6.48023C12.6447 6.58721 12.7314 6.67393 12.8384 6.67393Z" fill="currentColor"/>
</svg>
