<svg width="16" height="16" viewBox="0 0 16 16" fill="none" xmlns="http://www.w3.org/2000/svg">
<path fill-rule="evenodd" clip-rule="evenodd" d="M0.845866 11.5813C0.304533 10.504 0 9.28693 0 8C0 6.71307 0.304533 5.496 0.845866 4.41867C2.16053 1.79894 4.872 0 8 0C11.128 0 13.8395 1.79894 15.1541 4.41867C15.6955 5.496 16 6.71307 16 8C16 9.28693 15.6955 10.504 15.1541 11.5813C13.8395 14.2011 11.128 16 8 16C4.872 16 2.16053 14.2011 0.845866 11.5813ZM1.59253 5.34773C1.25387 6.1648 1.06667 7.0608 1.06667 8C1.06667 8.9392 1.25387 9.8352 1.59253 10.6523C2.46347 10.3147 3.49013 10.0437 4.62347 9.86133C4.5648 9.26507 4.53333 8.6416 4.53333 8C4.53333 7.3584 4.5648 6.73493 4.62347 6.13867C3.49013 5.95627 2.46347 5.68533 1.59253 5.34773ZM13.9205 4.39253C13.0379 2.94773 11.6416 1.8512 9.98667 1.35627C10.0608 1.47147 10.1328 1.5936 10.2021 1.72267C10.6571 2.57227 11.0208 3.7328 11.2395 5.0816C12.2357 4.92 13.1429 4.6848 13.9205 4.39253ZM6.01333 1.35627C4.3584 1.8512 2.96213 2.94773 2.07947 4.39253C2.85707 4.68533 3.76427 4.92 4.76053 5.0816C4.9792 3.7328 5.34293 2.57227 5.79787 1.72267C5.8672 1.5936 5.9392 1.47147 6.01333 1.35627ZM14.4075 10.6523C14.7461 9.8352 14.9333 8.9392 14.9333 8C14.9333 7.0608 14.7461 6.1648 14.4075 5.34773C13.5365 5.68533 12.5099 5.95627 11.3765 6.13867C11.4352 6.73493 11.4667 7.3584 11.4667 8C11.4667 8.6416 11.4352 9.26507 11.3765 9.86133C12.5099 10.0437 13.5365 10.3147 14.4075 10.6523ZM2.07947 11.6075C2.96213 13.0523 4.3584 14.1488 6.01333 14.6437C5.9392 14.5285 5.8672 14.4064 5.79787 14.2773C5.34293 13.4277 4.9792 12.2672 4.76053 10.9184C3.76427 11.08 2.85707 11.3152 2.07947 11.6075ZM9.98667 14.6437C11.6416 14.1488 13.0379 13.0523 13.9205 11.6075C13.1429 11.3152 12.2357 11.08 11.2395 10.9184C11.0208 12.2672 10.6571 13.4277 10.2021 14.2773C10.1328 14.4064 10.0608 14.5285 9.98667 14.6437ZM8 1.06667C7.79467 1.06667 7.60267 1.16427 7.41813 1.32107C7.17067 1.5312 6.94454 1.84107 6.73814 2.22667C6.33067 2.9872 6.01067 4.02133 5.81547 5.22187C6.51413 5.29493 7.24587 5.33333 8 5.33333C8.75413 5.33333 9.48587 5.2944 10.1845 5.22187C9.98933 4.02133 9.66933 2.9872 9.26187 2.22667C9.05547 1.84107 8.82934 1.5312 8.58187 1.32107C8.39734 1.16427 8.20533 1.06667 8 1.06667ZM8 14.9333C8.20533 14.9333 8.39734 14.8357 8.58187 14.6789C8.82934 14.4688 9.05547 14.1589 9.26187 13.7733C9.66933 13.0128 9.98933 11.9787 10.1845 10.7781C9.48587 10.7056 8.75413 10.6667 8 10.6667C7.24587 10.6667 6.51413 10.7056 5.81547 10.7781C6.01067 11.9787 6.33067 13.0128 6.73814 13.7733C6.94454 14.1589 7.17067 14.4688 7.41813 14.6789C7.60267 14.8357 7.79467 14.9333 8 14.9333ZM10.32 9.72107C10.3723 9.1696 10.4 8.59307 10.4 8C10.4 7.40693 10.3723 6.8304 10.32 6.27893C9.57813 6.35787 8.80053 6.4 8 6.4C7.19947 6.4 6.42187 6.35787 5.68 6.27893C5.62773 6.8304 5.6 7.40693 5.6 8C5.6 8.59307 5.62773 9.1696 5.68 9.72107C6.42187 9.64213 7.19947 9.6 8 9.6C8.80053 9.6 9.57813 9.64213 10.32 9.72107Z" fill="currentColor"/>
</svg>
