<svg width="17" height="17" viewBox="0 0 17 17" fill="none" xmlns="http://www.w3.org/2000/svg">
<g clip-path="url(#clip0_290_14979)">
<path d="M1.99677 12.8743C1.99677 9.80012 0.404327 7.68901 0.404327 6.20768C0.404327 4.72635 1.25588 1.61523 8.07055 1.61523C14.8852 1.61523 15.8852 5.80057 15.8852 7.4299C15.8857 15.0597 1.99677 18.3188 1.99677 12.8743Z" fill="#EFEFEF"/>
<path d="M1.2559 7.70833C0.888344 7.70833 0.589233 7.40922 0.589233 7.04167C0.589233 6.67411 0.888344 6.375 1.2559 6.375C1.62346 6.375 1.92257 6.67411 1.92257 7.04167C1.92257 7.40922 1.62346 7.70833 1.2559 7.70833ZM1.2559 6.81944C1.13368 6.81944 1.03368 6.91944 1.03368 7.04167C1.03368 7.16389 1.13368 7.26389 1.2559 7.26389C1.37812 7.26389 1.47812 7.16389 1.47812 7.04167C1.47812 6.91944 1.37812 6.81944 1.2559 6.81944Z" fill="#A4AFC1"/>
<path d="M8.14478 13.5977C10.9062 13.5977 13.1448 11.3591 13.1448 8.59766C13.1448 5.83623 10.9062 3.59766 8.14478 3.59766C5.38335 3.59766 3.14478 5.83623 3.14478 8.59766C3.14478 11.3591 5.38335 13.5977 8.14478 13.5977Z" fill="#F3F3F1"/>
<path d="M12.9314 7.13981C12.4648 5.61981 11.2959 4.40204 9.80256 3.88204C9.767 3.8687 9.73145 3.86426 9.69589 3.86426C9.49145 4.73092 9.61589 5.86426 10.0514 6.59315C10.3448 7.07759 10.8648 7.37092 11.4248 7.37092C11.4914 7.37092 11.5581 7.36648 11.6248 7.35759L12.9403 7.21092C12.9403 7.1887 12.9403 7.16204 12.9314 7.13981Z" fill="#2FDF84"/>
<path d="M6.82922 3.77539C4.67811 4.35761 3.14478 6.35317 3.14478 8.59761C3.14478 9.30428 3.287 9.97539 3.567 10.5976H4.19811C4.55366 10.5976 4.87366 10.4554 5.10922 10.2243C5.34033 9.99317 5.487 9.67317 5.49144 9.31761C5.49589 8.99761 5.607 8.70428 5.79811 8.46872C5.99366 8.23761 6.26033 8.06428 6.57144 8.00206C7.37589 7.82872 7.94922 7.12206 7.94922 6.29983V5.83317C7.94922 5.05539 7.46922 4.22872 6.82922 3.77539Z" fill="#2FDF84"/>
<path d="M12.5448 8.74827C12.4203 8.67716 12.287 8.6416 12.1537 8.6416C11.9048 8.6416 11.6648 8.7616 11.5226 8.97938C11.2381 9.4016 10.6914 9.57049 10.2159 9.38382L9.96256 9.2816C9.73589 9.19271 9.50034 9.14827 9.26478 9.14827C8.77589 9.14827 8.29145 9.33938 7.93589 9.69493C7.18034 10.4594 7.11811 11.6683 7.79367 12.5038L8.66034 13.5749C11.0114 13.3305 12.8826 11.4594 13.1181 9.09494L12.5448 8.74827Z" fill="#2FDF84"/>
<path d="M12.7003 13.598H10.2559C10.0105 13.598 9.81143 13.3989 9.81143 13.1535V12.2646H13.1448V13.1535C13.1448 13.3989 12.9457 13.598 12.7003 13.598Z" fill="#2FDF84"/>
<path d="M13.1448 12.2639H9.81143V8.81944C9.81143 8.57411 10.0105 8.375 10.2559 8.375H12.7003C12.9457 8.375 13.1448 8.57411 13.1448 8.81944V12.2639Z" fill="#F3F3F1"/>
<path d="M4.14478 8.59766C4.14478 6.00521 6.11811 3.87366 8.64478 3.62299C8.48033 3.60655 8.31366 3.59766 8.14478 3.59766C5.38344 3.59766 3.14478 5.83632 3.14478 8.59766C3.14478 11.359 5.38344 13.5977 8.14478 13.5977C8.31366 13.5977 8.48033 13.5888 8.64478 13.5723C6.11811 13.3217 4.14478 11.1901 4.14478 8.59766Z" fill="#D5DBE1"/>
<path d="M11.0514 6.59315C10.6808 5.9727 10.5377 5.0607 10.6288 4.26826C10.3657 4.11759 10.0928 3.98292 9.80256 3.88204C9.767 3.8687 9.73145 3.86426 9.69589 3.86426C9.49145 4.73092 9.61589 5.86426 10.0514 6.59315C10.3448 7.07759 10.8648 7.37092 11.4248 7.37092C11.4914 7.37092 11.5581 7.36648 11.6248 7.35759L12.0074 7.31492C11.6146 7.20826 11.2701 6.95404 11.0514 6.59315Z" fill="#00B871"/>
<path d="M4.14478 8.59761C4.14478 6.60695 5.35233 4.8145 7.12566 4.02784C7.03144 3.93584 6.93322 3.84917 6.82922 3.77539C4.67811 4.35761 3.14478 6.35317 3.14478 8.59761C3.14478 9.30428 3.287 9.97539 3.567 10.5976H4.19811C4.31989 10.5976 4.435 10.5754 4.54655 10.5443C4.28166 9.93672 4.14478 9.28472 4.14478 8.59761Z" fill="#00B871"/>
<path d="M8.79367 12.504C8.11811 11.6684 8.18034 10.4595 8.93589 9.6951C9.16789 9.4631 9.45723 9.30888 9.76478 9.22444C9.59989 9.1791 9.43278 9.14844 9.26478 9.14844C8.77589 9.14844 8.29145 9.33955 7.93589 9.6951C7.18034 10.4595 7.11811 11.6684 7.79367 12.504L8.66034 13.5751C8.95678 13.5444 9.24567 13.4871 9.52434 13.4071L8.79367 12.504Z" fill="#00B871"/>
<path d="M10.8114 13.1535V12.2646H9.81143V13.1535C9.81143 13.3989 10.0105 13.598 10.2559 13.598H11.2559C11.0105 13.598 10.8114 13.3989 10.8114 13.1535Z" fill="#00B871"/>
<path d="M11.2559 8.375H10.2559C10.0105 8.375 9.81143 8.57411 9.81143 8.81944V12.2639H10.8114V8.81944C10.8114 8.57411 11.0105 8.375 11.2559 8.375Z" fill="#D5DBE1"/>
<path d="M8.14211 13.9313C5.19811 13.9313 2.80255 11.5389 2.80255 8.59798C2.80255 5.65709 5.19811 3.26465 8.14211 3.26465C10.4857 3.26465 12.531 4.76154 13.2319 6.98954L13.3319 7.30731L12.6959 7.50732L12.5954 7.18909C11.9826 5.24065 10.1932 3.93132 8.14166 3.93132C5.56566 3.93132 3.46922 6.02465 3.46922 8.59798C3.46922 11.1713 5.56566 13.2646 8.14211 13.2646L8.74966 13.2602V13.9269L8.14211 13.9313Z" fill="black"/>
<path d="M4.19811 10.9312H3.55367C3.36967 10.9312 3.22034 10.7819 3.22034 10.5979C3.22034 10.4139 3.36967 10.2646 3.55367 10.2646H4.19811C4.45189 10.2646 4.69278 10.1655 4.87589 9.98635C5.05323 9.80902 5.15456 9.56902 5.15811 9.31346C5.16345 8.92458 5.29545 8.56013 5.53856 8.2588C5.79723 7.95346 6.13945 7.74858 6.50611 7.67524C7.15723 7.5348 7.61545 6.96858 7.61545 6.29969V5.83302C7.61545 5.11658 7.23323 4.44058 6.61723 4.06946C6.45945 3.97435 6.40834 3.76946 6.50345 3.61213C6.59811 3.45391 6.80256 3.4028 6.96078 3.49835C7.77589 3.98902 8.28211 4.88369 8.28211 5.83302V6.29969C8.28211 7.28546 7.60745 8.11924 6.64167 8.32769C6.35456 8.38502 6.16345 8.55302 6.05234 8.68413C5.90834 8.86146 5.82789 9.08413 5.82478 9.32191C5.819 9.75213 5.64878 10.1561 5.34478 10.4601C5.03411 10.765 4.62789 10.9312 4.19811 10.9312Z" fill="black"/>
<path d="M8.10832 13.4212L7.53499 12.7146C6.75188 11.7461 6.82254 10.3479 7.69899 9.46123C7.84699 9.31323 8.01766 9.18656 8.20788 9.08301L8.52654 9.6679C8.39277 9.74079 8.27366 9.82923 8.17188 9.93101C7.53588 10.5746 7.48432 11.591 8.05277 12.2946L8.62566 13.0008L8.10832 13.4212Z" fill="black"/>
<path d="M10.2643 7.31176C10.0639 7.16598 9.89633 6.98198 9.76611 6.76554C9.22211 5.85043 9.11722 4.75709 9.47633 3.76465L10.103 3.99132C9.81233 4.7962 9.89811 5.68243 10.3381 6.42376C10.4217 6.56243 10.5292 6.6802 10.6568 6.77309L10.2643 7.31176Z" fill="black"/>
<path d="M12.7003 13.9311H10.2559C9.82701 13.9311 9.47812 13.5822 9.47812 13.1533V8.9311C9.47812 8.50221 9.82701 8.15332 10.2559 8.15332H12.7003C13.1292 8.15332 13.4781 8.50221 13.4781 8.9311V13.1533C13.4781 13.5822 13.1292 13.9311 12.7003 13.9311ZM10.2559 8.81999C10.1946 8.81999 10.1448 8.86976 10.1448 8.9311V13.1533C10.1448 13.2147 10.1946 13.2644 10.2559 13.2644H12.7003C12.7617 13.2644 12.8115 13.2147 12.8115 13.1533V8.9311C12.8115 8.86976 12.7617 8.81999 12.7003 8.81999H10.2559Z" fill="black"/>
<path d="M13.1448 12.5973H9.81145C9.62745 12.5973 9.47812 12.448 9.47812 12.264C9.47812 12.08 9.62745 11.9307 9.81145 11.9307H13.1448C13.3288 11.9307 13.4781 12.08 13.4781 12.264C13.4781 12.448 13.3288 12.5973 13.1448 12.5973Z" fill="black"/>
</g>
<defs>
<clipPath id="clip0_290_14979">
<rect width="16" height="16" fill="white" transform="translate(0.144775 0.597656)"/>
</clipPath>
</defs>
</svg>
