<svg width="17" height="17" viewBox="0 0 17 17" fill="none" xmlns="http://www.w3.org/2000/svg">
<g clip-path="url(#clip0_290_15011)">
<path d="M15.3947 2.07266V15.1227C15.3947 15.6477 14.9697 16.0977 14.4197 16.0977H1.36971C0.844714 16.0977 0.394714 15.6477 0.394714 15.1227V2.07266C0.394714 1.54766 0.844714 1.09766 1.36971 1.09766H14.4447C14.9697 1.09766 15.3947 1.54766 15.3947 2.07266Z" fill="#E3ECFF"/>
<path d="M15.3947 2.07305V15.123C15.3947 15.648 14.9697 16.098 14.4197 16.098H1.36974C0.919739 16.098 0.544739 15.773 0.419739 15.373C0.494739 15.398 0.594739 15.398 0.669739 15.398H1.61974C8.84474 15.398 14.7447 9.52305 14.7447 2.29805V1.37305C14.7447 1.29805 14.7447 1.19805 14.7197 1.12305C15.1197 1.24805 15.3947 1.62305 15.3947 2.07305Z" fill="#C7D9F9"/>
<path d="M15.3947 2.07266V4.69766H0.394714V2.07266C0.394714 1.54766 0.844714 1.09766 1.36971 1.09766H14.4447C14.9697 1.09766 15.3947 1.54766 15.3947 2.07266Z" fill="#27D1FF"/>
<path d="M12.9447 16.3479H1.36971C0.694714 16.3479 0.144714 15.7979 0.144714 15.1229V5.67285C0.144714 5.52285 0.244714 5.42285 0.394714 5.42285C0.544714 5.42285 0.644714 5.52285 0.644714 5.67285V15.1229C0.644714 15.4979 0.994714 15.8479 1.36971 15.8479H12.9447C13.0947 15.8479 13.1947 15.9479 13.1947 16.0979C13.1947 16.2479 13.0947 16.3479 12.9447 16.3479Z" fill="#2A3C65"/>
<path d="M15.3947 12.9229C15.2447 12.9229 15.1447 12.8229 15.1447 12.6729V5.67285C15.1447 5.52285 15.2447 5.42285 15.3947 5.42285C15.5447 5.42285 15.6447 5.52285 15.6447 5.67285V12.6729C15.6447 12.8229 15.5447 12.9229 15.3947 12.9229Z" fill="#2A3C65"/>
<path d="M13.8197 2.54785H7.76969C7.54469 2.54785 7.36969 2.74785 7.36969 2.94785C7.36969 3.17285 7.56969 3.34785 7.76969 3.34785H13.8197C14.0447 3.34785 14.2197 3.14785 14.2197 2.94785C14.2447 2.74785 14.0447 2.54785 13.8197 2.54785Z" fill="#E3ECFF"/>
<path d="M13.8197 3.59785H7.76969C7.41969 3.59785 7.11969 3.29785 7.11969 2.94785C7.11969 2.59785 7.41969 2.29785 7.76969 2.29785H13.8197C13.9947 2.29785 14.1947 2.37285 14.3197 2.52285C14.4197 2.64785 14.4947 2.79785 14.4697 2.94785C14.4697 3.29785 14.1697 3.59785 13.8197 3.59785ZM7.76969 2.79785C7.69469 2.79785 7.61969 2.87285 7.61969 2.94785C7.61969 3.02285 7.69469 3.09785 7.76969 3.09785H13.8197C13.8947 3.09785 13.9697 3.02285 13.9697 2.94785V2.92285C13.9697 2.92285 13.9697 2.89785 13.9447 2.87285C13.9197 2.84785 13.8697 2.82285 13.8197 2.82285H7.76969V2.79785Z" fill="#2A3C65"/>
<path d="M2.0197 3.37266C2.26823 3.37266 2.4697 3.17118 2.4697 2.92266C2.4697 2.67413 2.26823 2.47266 2.0197 2.47266C1.77117 2.47266 1.5697 2.67413 1.5697 2.92266C1.5697 3.17118 1.77117 3.37266 2.0197 3.37266Z" fill="#E3ECFF"/>
<path d="M2.0197 3.62266C1.6447 3.62266 1.3197 3.29766 1.3197 2.92266C1.3197 2.54766 1.6447 2.22266 2.0197 2.22266C2.3947 2.22266 2.7197 2.54766 2.7197 2.92266C2.7197 3.29766 2.3947 3.62266 2.0197 3.62266ZM2.0197 2.72266C1.9197 2.72266 1.8197 2.82266 1.8197 2.92266C1.8197 3.02266 1.9197 3.12266 2.0197 3.12266C2.1197 3.12266 2.2197 3.02266 2.2197 2.92266C2.2197 2.82266 2.1197 2.72266 2.0197 2.72266Z" fill="#2A3C65"/>
<path d="M3.6447 3.37266C3.89323 3.37266 4.0947 3.17118 4.0947 2.92266C4.0947 2.67413 3.89323 2.47266 3.6447 2.47266C3.39617 2.47266 3.1947 2.67413 3.1947 2.92266C3.1947 3.17118 3.39617 3.37266 3.6447 3.37266Z" fill="#E3ECFF"/>
<path d="M3.6447 3.62266C3.2697 3.62266 2.9447 3.29766 2.9447 2.92266C2.9447 2.54766 3.2697 2.22266 3.6447 2.22266C4.0197 2.22266 4.3447 2.54766 4.3447 2.92266C4.3447 3.29766 4.0197 3.62266 3.6447 3.62266ZM3.6447 2.72266C3.5447 2.72266 3.4447 2.82266 3.4447 2.92266C3.4447 3.02266 3.5447 3.12266 3.6447 3.12266C3.7447 3.12266 3.8447 3.02266 3.8447 2.92266C3.8447 2.82266 3.7447 2.72266 3.6447 2.72266Z" fill="#2A3C65"/>
<path d="M5.24474 3.37266C5.49327 3.37266 5.69474 3.17118 5.69474 2.92266C5.69474 2.67413 5.49327 2.47266 5.24474 2.47266C4.99621 2.47266 4.79474 2.67413 4.79474 2.92266C4.79474 3.17118 4.99621 3.37266 5.24474 3.37266Z" fill="#E3ECFF"/>
<path d="M5.24474 3.62266C4.86974 3.62266 4.54474 3.29766 4.54474 2.92266C4.54474 2.54766 4.86974 2.22266 5.24474 2.22266C5.61974 2.22266 5.94474 2.54766 5.94474 2.92266C5.94474 3.29766 5.61974 3.62266 5.24474 3.62266ZM5.24474 2.72266C5.14474 2.72266 5.04474 2.82266 5.04474 2.92266C5.04474 3.02266 5.14474 3.12266 5.24474 3.12266C5.34474 3.12266 5.44474 3.02266 5.44474 2.92266C5.44474 2.82266 5.34474 2.72266 5.24474 2.72266Z" fill="#2A3C65"/>
<path d="M15.3947 4.94766H0.394714C0.244714 4.94766 0.144714 4.84766 0.144714 4.69766V2.07266C0.144714 1.39766 0.694714 0.847656 1.36971 0.847656H14.4447C15.0947 0.847656 15.6447 1.39766 15.6447 2.07266V4.69766C15.6447 4.84766 15.5447 4.94766 15.3947 4.94766ZM0.644714 4.44766H15.1447V2.07266C15.1447 1.67266 14.8197 1.34766 14.4447 1.34766H1.36971C0.994714 1.34766 0.644714 1.69766 0.644714 2.07266V4.44766Z" fill="#2A3C65"/>
<path d="M12.0947 8.99687C12.6197 9.52187 12.8447 10.2469 12.7447 10.9469C12.7197 11.1719 12.7947 11.3969 12.9697 11.5719L15.5947 14.1719C16.0197 14.5969 16.0197 15.2969 15.5947 15.7469C15.1697 16.1719 14.4697 16.1719 14.0197 15.7469L11.3697 13.1719C11.1947 12.9969 10.9947 12.9219 10.7447 12.9469C10.0447 13.0469 9.31969 12.8219 8.79469 12.2969C8.36969 11.8719 8.14469 11.2969 8.11969 10.7219C8.11969 10.3719 8.51969 10.1969 8.76969 10.4219L9.66969 11.3219C9.81969 11.4719 10.0447 11.4719 10.1947 11.3219L11.1447 10.3719C11.2947 10.2219 11.2947 9.99688 11.1447 9.84688L10.2447 8.94688C9.99469 8.69688 10.1947 8.29688 10.5447 8.29688C11.0697 8.32188 11.6197 8.57187 12.0947 8.99687Z" fill="#FFD880"/>
<path d="M15.8197 15.3719C15.7697 15.5219 15.6697 15.6719 15.5697 15.7469C15.1447 16.1719 14.4447 16.1719 13.9947 15.7469L11.3697 13.1719C11.1947 12.9969 10.9947 12.9219 10.7447 12.9469C10.0447 13.0469 9.31969 12.8219 8.79469 12.2969C8.36969 11.8719 8.14469 11.2969 8.11969 10.7219C8.11969 10.3719 8.51969 10.1969 8.76969 10.4219L8.81969 10.4719C8.91969 10.8969 9.11969 11.2969 9.44469 11.6219C9.96969 12.1469 10.6947 12.3719 11.3947 12.2719C11.6197 12.2469 11.8447 12.3219 12.0197 12.4969L14.6447 15.0969C14.9447 15.4469 15.3947 15.5219 15.8197 15.3719Z" fill="#FECB4D"/>
<path d="M14.8197 16.3223C14.4697 16.3223 14.1197 16.1973 13.8447 15.9473L11.1947 13.3473C11.0697 13.2223 10.9447 13.1723 10.7697 13.1973C10.6697 13.2223 10.5447 13.2223 10.4197 13.2223C9.74469 13.2223 9.09469 12.9473 8.61969 12.4723C8.16969 12.0223 7.89469 11.3973 7.86969 10.7223C7.86969 10.3473 8.14469 10.0723 8.51969 10.0723C8.66969 10.0723 8.81969 10.1223 8.94469 10.2473L9.84469 11.1473C9.89469 11.1973 9.96969 11.1973 10.0197 11.1473L10.9697 10.1973C10.9947 10.1723 11.0197 10.1473 11.0197 10.1223C11.0197 10.0973 10.9947 10.0723 10.9697 10.0473L10.0697 9.14727C9.89469 8.97227 9.84469 8.69727 9.94469 8.47227C10.0447 8.22227 10.2947 8.07227 10.5697 8.07227C11.1697 8.09727 11.7697 8.37227 12.2947 8.84727C12.8697 9.42227 13.1447 10.2223 13.0197 11.0223C12.9947 11.1723 13.0697 11.3223 13.1697 11.4473L15.7947 14.0473C16.3197 14.5723 16.3197 15.4223 15.7947 15.9723C15.5197 16.1723 15.1697 16.3223 14.8197 16.3223ZM10.8447 12.6973C11.1197 12.6973 11.3447 12.7973 11.5447 12.9973L14.1947 15.5723C14.5197 15.8973 15.0947 15.8973 15.4197 15.5723C15.7447 15.2223 15.7447 14.6723 15.4197 14.3473L12.7947 11.7473C12.5697 11.5223 12.4697 11.2223 12.4947 10.9223C12.5947 10.2723 12.3697 9.64727 11.9197 9.17227C11.4947 8.79727 10.9947 8.57227 10.5447 8.54727C10.4697 8.54727 10.4197 8.59727 10.3947 8.64727C10.3697 8.69727 10.3947 8.74727 10.4197 8.77227L11.3197 9.67227C11.4447 9.79727 11.4947 9.94727 11.4947 10.1223C11.4947 10.2973 11.4197 10.4473 11.3197 10.5723L10.3697 11.5223C10.1197 11.7723 9.71969 11.7723 9.49469 11.5223L8.59469 10.5973C8.56969 10.5723 8.54469 10.5723 8.51969 10.5723C8.46969 10.5723 8.36969 10.6223 8.36969 10.7223C8.39469 11.2473 8.59469 11.7473 8.96969 12.1223C9.41969 12.5723 10.0697 12.7973 10.7197 12.6973H10.8447Z" fill="#2A3C65"/>
<path d="M7.31973 9.29746C7.26973 9.42246 7.24473 9.52246 7.19473 9.62246C7.16973 9.69746 7.16973 9.77246 7.19473 9.82246L7.44473 10.3225C7.49473 10.4225 7.46973 10.5225 7.39473 10.5725L7.14473 10.8225C7.06973 10.8975 6.96973 10.8975 6.89473 10.8725L6.39473 10.6225C6.31973 10.5975 6.24473 10.5975 6.19473 10.6225C6.09473 10.6725 5.96973 10.7225 5.86973 10.7475C5.79473 10.7725 5.74473 10.8225 5.71973 10.8975L5.51973 11.4225C5.49473 11.5225 5.39473 11.5725 5.29473 11.5725H4.94473C4.84473 11.5725 4.76973 11.5225 4.71973 11.4225L4.51973 10.8975C4.49473 10.8225 4.44473 10.7725 4.36973 10.7475C4.24473 10.7225 4.14473 10.6725 4.04473 10.6225C3.96973 10.5975 3.89473 10.5975 3.84473 10.6225L3.34473 10.8725C3.24473 10.9225 3.14473 10.8975 3.09473 10.8225L2.84473 10.5725C2.76973 10.4975 2.76973 10.3975 2.79473 10.3225L3.04473 9.82246C3.06973 9.74746 3.06973 9.67246 3.04473 9.62246C2.99473 9.52246 2.94473 9.39746 2.91973 9.29746C2.89473 9.22246 2.84473 9.17246 2.76973 9.14746L2.24473 8.94746C2.14473 8.92246 2.09473 8.82246 2.09473 8.72246V8.37246C2.09473 8.27246 2.14473 8.19746 2.24473 8.14746L2.76973 7.94746C2.84473 7.92246 2.89473 7.87246 2.91973 7.79746C2.96973 7.67246 2.99473 7.57246 3.04473 7.47246C3.06973 7.39746 3.06973 7.32246 3.04473 7.27246L2.79473 6.77246C2.74473 6.67246 2.76973 6.57246 2.84473 6.52246L3.09473 6.27246C3.16973 6.19746 3.26973 6.19746 3.34473 6.22246L3.84473 6.47246C3.91973 6.49746 3.99473 6.49746 4.04473 6.47246C4.14473 6.42246 4.26973 6.37246 4.36973 6.34746C4.44473 6.32246 4.49473 6.27246 4.51973 6.19746L4.71973 5.67246C4.74473 5.57246 4.84473 5.52246 4.94473 5.52246H5.29473C5.39473 5.52246 5.46973 5.57246 5.51973 5.67246L5.71973 6.19746C5.74473 6.27246 5.79473 6.32246 5.86973 6.34746C5.99473 6.37246 6.09473 6.42246 6.19473 6.47246C6.26973 6.49746 6.34473 6.49746 6.39473 6.47246L6.89473 6.22246C6.99473 6.17246 7.09473 6.19746 7.14473 6.27246L7.39473 6.52246C7.46973 6.59746 7.46973 6.69746 7.44473 6.77246L7.19473 7.27246C7.16973 7.34746 7.16973 7.42246 7.19473 7.47246C7.24473 7.57246 7.29473 7.69746 7.31973 7.79746C7.34473 7.87246 7.39473 7.92246 7.46973 7.94746L7.99473 8.14746C8.09473 8.17246 8.14473 8.27246 8.14473 8.37246V8.72246C8.14473 8.82246 8.09473 8.89746 7.99473 8.94746L7.46973 9.14746C7.39473 9.17246 7.34473 9.22246 7.31973 9.29746Z" fill="#38FCC4"/>
<path d="M5.29471 11.8227H4.94471C4.74471 11.8227 4.59471 11.7227 4.49471 11.5227L4.29471 10.9727C4.16971 10.9477 4.04471 10.8977 3.96971 10.8477H3.94471L3.46971 11.0977C3.26971 11.1977 3.04471 11.1477 2.91971 10.9977L2.69471 10.7727C2.56971 10.6477 2.51971 10.4477 2.59471 10.2727C2.59471 10.2727 2.59471 10.2477 2.61971 10.2477L2.86971 9.77266V9.74766C2.81971 9.64766 2.76971 9.52266 2.74471 9.42266L2.21971 9.22266C2.01971 9.17266 1.89471 8.97266 1.89471 8.74766V8.39766C1.89471 8.19766 1.99471 8.04766 2.19471 7.94766L2.74471 7.74766C2.76971 7.69766 2.79471 7.64766 2.79471 7.62266C2.81971 7.54766 2.84471 7.49766 2.86971 7.42266V7.39766L2.61971 6.92266C2.51971 6.72266 2.56971 6.49766 2.71971 6.37266L2.94471 6.14766C3.06971 6.02266 3.26971 5.97266 3.44471 6.04766C3.44471 6.04766 3.46971 6.04766 3.46971 6.07266L3.94471 6.32266H3.96971C4.06971 6.27266 4.19471 6.22266 4.29471 6.19766L4.49471 5.67266C4.54471 5.47266 4.74471 5.34766 4.96971 5.34766H5.31971C5.51971 5.34766 5.66971 5.44766 5.76971 5.64766V5.67266L5.96971 6.19766C6.09471 6.22266 6.21971 6.27266 6.29471 6.32266H6.31971L6.79471 6.07266C6.99471 5.97266 7.21971 6.02266 7.34471 6.17266L7.56971 6.39766C7.69471 6.52266 7.74471 6.72266 7.66971 6.89766C7.66971 6.89766 7.66971 6.92266 7.64471 6.92266L7.39471 7.39766V7.42266C7.44471 7.52266 7.49471 7.64766 7.51971 7.74766L8.04471 7.94766C8.24471 7.99766 8.36971 8.19766 8.36971 8.42266V8.77266C8.36971 8.97266 8.26971 9.12266 8.06971 9.22266H8.04471L7.51971 9.42266C7.49471 9.47266 7.46971 9.52266 7.46971 9.54766C7.44471 9.62266 7.41971 9.67266 7.39471 9.74766V9.77266L7.64471 10.2477C7.74471 10.4477 7.69471 10.6727 7.54471 10.7977L7.31971 11.0227C7.19471 11.1477 6.99471 11.1977 6.81971 11.1227C6.81971 11.1227 6.79471 11.1227 6.79471 11.0977L6.31971 10.8477H6.29471C6.19471 10.8977 6.06971 10.9477 5.96971 10.9727L5.76971 11.4977C5.69471 11.6977 5.51971 11.8227 5.29471 11.8227ZM3.94471 10.3477C3.99471 10.3477 4.06971 10.3477 4.14471 10.3727C4.14471 10.3727 4.16971 10.3727 4.16971 10.3977C4.26971 10.4477 4.34471 10.4727 4.41971 10.4977H4.44471C4.59471 10.5477 4.69471 10.6477 4.74471 10.7977L4.94471 11.3227H5.26971L5.46971 10.7977C5.51971 10.6477 5.61971 10.5477 5.76971 10.4977C5.86971 10.4727 5.96971 10.4227 6.06971 10.3977C6.16971 10.3477 6.31971 10.3477 6.46971 10.3727C6.46971 10.3727 6.49471 10.3727 6.49471 10.3977L6.96971 10.6227L7.19471 10.3977L6.96971 9.92266C6.91971 9.82266 6.91971 9.67266 6.94471 9.52266C6.94471 9.52266 6.94471 9.49766 6.96971 9.49766C6.99471 9.44766 7.01971 9.39766 7.01971 9.34766C7.04471 9.29766 7.04471 9.24766 7.06971 9.19766C7.11971 9.07266 7.21971 8.94766 7.36971 8.89766L7.86971 8.69766V8.34766L7.34471 8.14766C7.19471 8.09766 7.09471 7.99766 7.04471 7.84766C7.01971 7.74766 6.96971 7.64766 6.94471 7.54766C6.89471 7.44766 6.89471 7.29766 6.91971 7.14766C6.91971 7.14766 6.91971 7.12266 6.94471 7.12266L7.16971 6.64766L6.94471 6.42266L6.46971 6.67266C6.36971 6.72266 6.21971 6.72266 6.06971 6.69766C6.06971 6.69766 6.04471 6.69766 6.04471 6.67266C5.94471 6.62266 5.86971 6.59766 5.79471 6.57266H5.76971C5.61971 6.52266 5.51971 6.42266 5.46971 6.27266L5.26971 5.77266H4.91971L4.71971 6.29766C4.66971 6.44766 4.56971 6.54766 4.41971 6.59766C4.31971 6.62266 4.21971 6.67266 4.11971 6.69766C4.01971 6.74766 3.86971 6.74766 3.71971 6.72266C3.71971 6.72266 3.69471 6.72266 3.69471 6.69766L3.21971 6.47266L2.99471 6.69766L3.21971 7.17266C3.26971 7.27266 3.26971 7.42266 3.24471 7.57266C3.24471 7.57266 3.24471 7.59766 3.21971 7.59766C3.19471 7.64766 3.16971 7.69766 3.16971 7.74766C3.14471 7.79766 3.14471 7.84766 3.11971 7.89766C3.06971 8.02266 2.96971 8.14766 2.81971 8.19766L2.29471 8.39766V8.72266L2.81971 8.92266C2.96971 8.97266 3.06971 9.07266 3.11971 9.22266C3.14471 9.32266 3.19471 9.42266 3.21971 9.52266C3.26971 9.62266 3.26971 9.77266 3.24471 9.92266C3.24471 9.92266 3.24471 9.94766 3.21971 9.94766L2.99471 10.4227L3.21971 10.6477L3.69471 10.3977C3.79471 10.3727 3.86971 10.3477 3.94471 10.3477Z" fill="#2A3C65"/>
<path d="M6.34469 8.59785C6.34469 9.24785 5.81969 9.77285 5.16969 9.77285C4.51969 9.77285 3.99469 9.24785 3.99469 8.59785C3.99469 7.94785 4.51969 7.42285 5.16969 7.42285C5.81969 7.42285 6.34469 7.94785 6.34469 8.59785Z" fill="#E3ECFF"/>
<path d="M5.16969 10.0229C4.39469 10.0229 3.74469 9.37285 3.74469 8.59785C3.74469 7.82285 4.39469 7.17285 5.16969 7.17285C5.94469 7.17285 6.59469 7.82285 6.59469 8.59785C6.59469 9.37285 5.94469 10.0229 5.16969 10.0229ZM5.16969 7.67285C4.66969 7.67285 4.24469 8.09785 4.24469 8.59785C4.24469 9.09785 4.66969 9.52285 5.16969 9.52285C5.66969 9.52285 6.09469 9.09785 6.09469 8.59785C6.09469 8.09785 5.66969 7.67285 5.16969 7.67285Z" fill="#2A3C65"/>
</g>
<defs>
<clipPath id="clip0_290_15011">
<rect width="16" height="16" fill="white" transform="translate(0.144714 0.597656)"/>
</clipPath>
</defs>
</svg>
