<svg width="16" height="16" viewBox="0 0 16 16" fill="none" xmlns="http://www.w3.org/2000/svg">
<path d="M2.13379 0H13.8662C14.4317 0.00137864 14.9737 0.229908 15.3735 0.635605C15.7734 1.0413 15.9986 1.59115 16 2.16489V13.8351C15.9986 14.4089 15.7734 14.9587 15.3735 15.3644C14.9737 15.7701 14.4317 15.9986 13.8662 16H2.13379C1.56829 15.9986 1.02634 15.7701 0.626474 15.3644C0.226604 14.9587 0.00135883 14.4089 0 13.8351V2.16489C0.00135883 1.59115 0.226604 1.0413 0.626474 0.635605C1.02634 0.229908 1.56829 0.00137864 2.13379 0ZM2.13379 13.8334H13.8662V2.16489H2.13379V13.8334Z" fill="currentColor"/>
</svg>
