<svg width="12" height="14" viewBox="0 0 12 14" fill="none" xmlns="http://www.w3.org/2000/svg">
    <path d="M4.80888 12.0185L0.114433 11.3751L0.00422248 11.36L0.00421445 11.2489L0.00396729 7.39195V7.26428H0.131141H4.82583H4.95351V7.39195V11.8924V12.0384L4.80888 12.0185Z"
          fill="currentColor"/>
    <path d="M12.0003 7.39195L11.9987 12.8732V13.0197L11.8541 12.9993L5.59136 12.1182L5.48114 12.1028V11.9921V7.39195V7.26428H5.60882H11.8731H12.0003V7.39195Z"
          fill="currentColor"/>
    <path d="M5.59086 1.91281L11.8536 1.00154L11.9993 0.980347V1.12771V6.60891V6.73658H11.8715H5.60882H5.48114V6.60891V2.03899V1.92879L5.59086 1.91281Z"
          fill="currentColor"/>
    <path d="M0.00418431 6.60893L-0.000124334 2.79077L-0.000244141 2.67959L0.110094 2.6646L4.80836 2.02659L4.95299 2.00696V2.15276V6.60893V6.7366H4.82531H0.131358H0.00433601L0.00418431 6.60893Z"
          fill="currentColor"/>
</svg>
