<svg width="16" height="16" viewBox="0 0 16 16" fill="none" xmlns="http://www.w3.org/2000/svg">
<path d="M4.58189 0H14.2429C14.7086 0.00113232 15.1548 0.188831 15.4841 0.522043C15.8134 0.855255 15.9989 1.30686 16 1.7781V11.3632C15.9989 11.8345 15.8134 12.2861 15.4841 12.6193C15.1548 12.9525 14.7086 13.1402 14.2429 13.1413H4.58189C4.11623 13.1402 3.66997 12.9525 3.3407 12.6193C3.01143 12.2861 2.82595 11.8345 2.82483 11.3632V1.7781C2.82595 1.30686 3.01143 0.855255 3.3407 0.522043C3.66997 0.188831 4.11623 0.00113232 4.58189 0ZM4.58189 11.3618H14.2429V1.7781H4.58189V11.3618Z" fill="currentColor"/>
<path d="M1.75706 2.85889H11.4181C11.8837 2.86002 12.33 3.04772 12.6593 3.38093C12.9885 3.71414 13.174 4.16575 13.1751 4.63698V14.2221C13.174 14.6933 12.9885 15.145 12.6593 15.4782C12.33 15.8114 11.8837 15.9991 11.4181 16.0002H1.75706C1.2914 15.9991 0.845138 15.8114 0.515867 15.4782C0.186597 15.145 0.00111893 14.6933 0 14.2221V4.63698C0.00111893 4.16575 0.186597 3.71414 0.515867 3.38093C0.845138 3.04772 1.2914 2.86002 1.75706 2.85889ZM1.75706 14.2207H11.4181V4.63698H1.75706V14.2207Z" fill="currentColor"/>
</svg>
