<svg width="17" height="17" viewBox="0 0 17 17" fill="none" xmlns="http://www.w3.org/2000/svg">
<g clip-path="url(#clip0_369_16149)">
<path d="M15.1667 1.16699H1.83334C1.09797 1.16699 0.5 1.76499 0.5 2.50034V11.8337C0.5 12.569 1.09797 13.167 1.83334 13.167H6.50091C6.48653 13.6999 6.38441 14.5516 6.00425 14.9515C5.86459 15.0986 5.70413 15.167 5.50003 15.167C5.31578 15.167 5.16669 15.3161 5.16669 15.5004C5.16669 15.6846 5.31578 15.8337 5.50003 15.8337H11.5C11.6843 15.8337 11.8334 15.6846 11.8334 15.5004C11.8334 15.3161 11.6843 15.167 11.5 15.167C11.2959 15.167 11.1354 15.0986 10.9958 14.9515C10.6157 14.5516 10.5135 13.6999 10.4992 13.167H15.1667C15.9021 13.167 16.5001 12.5691 16.5001 11.8337V2.50034C16.5 1.76499 15.902 1.16699 15.1667 1.16699Z" fill="#303C42"/>
<path d="M1.83368 1.83301H15.167C15.5345 1.83301 15.8337 2.13216 15.8337 2.49966V9.83301H1.16699V2.49966C1.16699 2.13216 1.46615 1.83301 1.83368 1.83301Z" fill="#8D949C"/>
<path d="M1.83368 1.83301H15.167C15.5345 1.83301 15.8337 2.13216 15.8337 2.49966V9.83301H1.16699V2.49966C1.16699 2.13216 1.46615 1.83301 1.83368 1.83301Z" fill="url(#paint0_linear_369_16149)"/>
<path d="M15.167 12.5H1.83365C1.46615 12.5 1.16699 12.2008 1.16699 11.8333V10.5H15.8336V11.8333C15.8336 12.2008 15.5345 12.5 15.167 12.5Z" fill="#F2F2F2"/>
<path d="M10.3216 15.167H6.67969C7.08225 14.5498 7.16012 13.6611 7.17016 13.167H9.83113C9.84119 13.6611 9.91906 14.5499 10.3216 15.167Z" fill="#F2F2F2"/>
<path d="M8.49966 12.1663C8.86785 12.1663 9.16632 11.8678 9.16632 11.4997C9.16632 11.1315 8.86785 10.833 8.49966 10.833C8.13148 10.833 7.83301 11.1315 7.83301 11.4997C7.83301 11.8678 8.13148 12.1663 8.49966 12.1663Z" fill="#303C42"/>
<path d="M10.3214 15.167C9.9188 14.5498 9.84092 13.6611 9.83089 13.167H7.16992L9.16992 15.167H10.3214Z" fill="url(#paint1_linear_369_16149)"/>
<path d="M1.83368 1.83301H15.167C15.5345 1.83301 15.8337 2.13216 15.8337 2.49966V9.83301H1.16699V2.49966C1.16699 2.13216 1.46615 1.83301 1.83368 1.83301Z" fill="url(#paint2_linear_369_16149)"/>
<path d="M15.1667 1.16699H1.83334C1.09797 1.16699 0.5 1.76499 0.5 2.50034V11.8337C0.5 12.569 1.09797 13.167 1.83334 13.167H6.50091C6.48653 13.6999 6.38441 14.5516 6.00425 14.9515C5.86459 15.0986 5.70412 15.167 5.50003 15.167C5.31578 15.167 5.16669 15.3161 5.16669 15.5004C5.16669 15.6846 5.31578 15.8337 5.50003 15.8337H11.5C11.6843 15.8337 11.8334 15.6846 11.8334 15.5004C11.8334 15.3161 11.6843 15.167 11.5 15.167C11.2959 15.167 11.1354 15.0986 10.9958 14.9515C10.6157 14.5516 10.5135 13.6999 10.4992 13.167H15.1667C15.9021 13.167 16.5001 12.5691 16.5001 11.8337V2.50034C16.5 1.76499 15.902 1.16699 15.1667 1.16699Z" fill="url(#paint3_linear_369_16149)"/>
</g>
<defs>
<linearGradient id="paint0_linear_369_16149" x1="1.09754" y1="2.50166" x2="16.0093" y2="9.45725" gradientUnits="userSpaceOnUse">
<stop stop-opacity="0"/>
<stop offset="1" stop-opacity="0.49"/>
</linearGradient>
<linearGradient id="paint1_linear_369_16149" x1="7.83518" y1="12.5025" x2="10.4109" y2="15.0781" gradientUnits="userSpaceOnUse">
<stop stop-opacity="0.1"/>
<stop offset="1" stop-opacity="0"/>
</linearGradient>
<linearGradient id="paint2_linear_369_16149" x1="2.93167" y1="0.460198" x2="14.069" y2="11.5982" gradientUnits="userSpaceOnUse">
<stop stop-opacity="0"/>
<stop offset="1" stop-opacity="0.1"/>
</linearGradient>
<linearGradient id="paint3_linear_369_16149" x1="-0.135131" y1="3.56753" x2="16.8083" y2="11.4689" gradientUnits="userSpaceOnUse">
<stop stop-color="white" stop-opacity="0.2"/>
<stop offset="1" stop-color="white" stop-opacity="0"/>
</linearGradient>
<clipPath id="clip0_369_16149">
<rect width="16" height="16" fill="white" transform="translate(0.5 0.5)"/>
</clipPath>
</defs>
</svg>
