<svg width="24" height="24" viewBox="0 0 24 24" fill="none" xmlns="http://www.w3.org/2000/svg">
<g opacity="0.4">
<path fill-rule="evenodd" clip-rule="evenodd" d="M12.25 5.25C12.6796 5.25 13.0278 5.59822 13.0278 6.02778V11.4722H18.4722C18.9018 11.4722 19.25 11.8204 19.25 12.25C19.25 12.6796 18.9018 13.0278 18.4722 13.0278H13.0278V18.4722C13.0278 18.9018 12.6796 19.25 12.25 19.25C11.8204 19.25 11.4722 18.9018 11.4722 18.4722V13.0278H6.02778C5.59822 13.0278 5.25 12.6796 5.25 12.25C5.25 11.8204 5.59822 11.4722 6.02778 11.4722H11.4722V6.02778C11.4722 5.59822 11.8204 5.25 12.25 5.25Z" fill="currentColor"/>
</g>
</svg>