<svg width="16" height="17" viewBox="0 0 16 17" fill="none" xmlns="http://www.w3.org/2000/svg">
<path d="M15.4273 4.75176L10.7936 0.117383C10.7467 0.0705078 10.6833 0.0439453 10.617 0.0439453H5.36828C4.14672 0.0439453 3.15297 1.03801 3.15297 2.25957V6.64426H1.20859C0.832969 6.64426 0.527344 6.94988 0.527344 7.32551V11.2418C0.527344 11.6174 0.832969 11.923 1.20859 11.923H3.15297V13.8283C3.15297 15.0499 4.14672 16.0439 5.36828 16.0439H13.2852C14.5067 16.0439 15.5005 15.0499 15.5005 13.8283V4.92863C15.5005 4.86238 15.4742 4.79863 15.4273 4.75176ZM15.0008 13.8283C15.0008 14.7746 14.2311 15.5443 13.2852 15.5443H5.36828C4.42234 15.5443 3.65266 14.7746 3.65266 13.8283V11.923H11.8836C12.2592 11.923 12.5648 11.6174 12.5648 11.2418V7.32551C12.5648 6.94988 12.2592 6.64426 11.8836 6.64426H3.65266V2.25957C3.65266 1.31332 4.42234 0.543633 5.36828 0.543633H10.367V4.42801C10.367 4.84176 10.7033 5.17832 11.1164 5.17832H15.0008V13.8283Z" fill="currentColor"/>
<path fill-rule="evenodd" clip-rule="evenodd" d="M4.1648 9.96852L4.9198 11.1435H5.7248L4.6098 9.40852L5.7048 7.65352H4.9148L4.2348 8.82352L3.4798 7.65352H2.6748L3.7898 9.38352L2.6898 11.1435H3.4798L4.1648 9.96852ZM8.10754 10.5885H6.95754V7.65352H6.25754V11.1435H8.10754V10.5885ZM9.09746 11.0535C9.29413 11.1368 9.51413 11.1785 9.75746 11.1785C10.0141 11.1785 10.2358 11.1318 10.4225 11.0385C10.6091 10.9418 10.7508 10.8135 10.8475 10.6535C10.9441 10.4935 10.9925 10.3202 10.9925 10.1335C10.9925 9.91685 10.9408 9.74185 10.8375 9.60852C10.7341 9.47518 10.6108 9.37518 10.4675 9.30852C10.3241 9.24185 10.1391 9.17518 9.91246 9.10852C9.74579 9.05852 9.61579 9.01518 9.52246 8.97852C9.43246 8.93852 9.35579 8.88852 9.29246 8.82852C9.23246 8.76518 9.20246 8.68685 9.20246 8.59352C9.20246 8.46018 9.24246 8.35852 9.32246 8.28852C9.40579 8.21852 9.51579 8.18352 9.65246 8.18352C9.80913 8.18352 9.93413 8.22352 10.0275 8.30352C10.1241 8.38018 10.1758 8.47852 10.1825 8.59852H10.9525C10.9291 8.28518 10.8041 8.04185 10.5775 7.86852C10.3541 7.69185 10.0625 7.60352 9.70246 7.60352C9.46246 7.60352 9.24913 7.64518 9.06246 7.72852C8.87579 7.80852 8.73079 7.92518 8.62746 8.07852C8.52413 8.23185 8.47246 8.41185 8.47246 8.61852C8.47246 8.83852 8.52246 9.01518 8.62246 9.14852C8.72579 9.27852 8.84746 9.37685 8.98746 9.44352C9.13079 9.50685 9.31579 9.57185 9.54246 9.63852C9.70913 9.68518 9.83913 9.72852 9.93246 9.76852C10.0291 9.80518 10.1091 9.85685 10.1725 9.92352C10.2358 9.99018 10.2675 10.0752 10.2675 10.1785C10.2675 10.3052 10.2208 10.4085 10.1275 10.4885C10.0341 10.5652 9.90579 10.6035 9.74246 10.6035C9.58246 10.6035 9.45579 10.5618 9.36246 10.4785C9.27246 10.3952 9.22246 10.2818 9.21246 10.1385H8.46246C8.46579 10.3518 8.52413 10.5368 8.63746 10.6935C8.75079 10.8502 8.90413 10.9702 9.09746 11.0535Z" fill="white"/>
</svg>
