<svg width="16" height="17" viewBox="0 0 16 17" fill="none" xmlns="http://www.w3.org/2000/svg">
<path d="M15.4273 4.75176L10.7936 0.117383C10.7467 0.0705078 10.6833 0.0439453 10.617 0.0439453H5.36828C4.14672 0.0439453 3.15297 1.03801 3.15297 2.25957V6.64426H1.20859C0.832969 6.64426 0.527344 6.94988 0.527344 7.32551V11.2418C0.527344 11.6174 0.832969 11.923 1.20859 11.923H3.15297V13.8283C3.15297 15.0499 4.14672 16.0439 5.36828 16.0439H13.2852C14.5067 16.0439 15.5005 15.0499 15.5005 13.8283V4.92863C15.5005 4.86238 15.4742 4.79863 15.4273 4.75176ZM15.0008 13.8283C15.0008 14.7746 14.2311 15.5443 13.2852 15.5443H5.36828C4.42234 15.5443 3.65266 14.7746 3.65266 13.8283V11.923H11.8836C12.2592 11.923 12.5648 11.6174 12.5648 11.2418V7.32551C12.5648 6.94988 12.2592 6.64426 11.8836 6.64426H3.65266V2.25957C3.65266 1.31332 4.42234 0.543633 5.36828 0.543633H10.367V4.42801C10.367 4.84176 10.7033 5.17832 11.1164 5.17832H15.0008V13.8283Z" fill="currentColor"/>
<path fill-rule="evenodd" clip-rule="evenodd" d="M2.88829 9.74649L3.49229 10.6865H4.13629L3.24429 9.29849L4.12029 7.89449H3.48829L2.94429 8.83049L2.34029 7.89449H1.69629L2.58829 9.27849L1.70829 10.6865H2.34029L2.88829 9.74649ZM6.04248 10.2425H5.12248V7.89449H4.56248V10.6865H6.04248V10.2425ZM6.83441 10.6145C6.99175 10.6812 7.16775 10.7145 7.36241 10.7145C7.56775 10.7145 7.74508 10.6772 7.89441 10.6025C8.04375 10.5252 8.15708 10.4225 8.23441 10.2945C8.31175 10.1665 8.35041 10.0278 8.35041 9.87849C8.35041 9.70516 8.30908 9.56516 8.22641 9.45849C8.14375 9.35183 8.04508 9.27183 7.93041 9.21849C7.81575 9.16516 7.66775 9.11183 7.48641 9.05849C7.35308 9.01849 7.24908 8.98383 7.17441 8.95449C7.10241 8.92249 7.04108 8.88249 6.99041 8.83449C6.94241 8.78383 6.91841 8.72116 6.91841 8.64649C6.91841 8.53983 6.95041 8.45849 7.01441 8.40249C7.08108 8.34649 7.16908 8.31849 7.27841 8.31849C7.40375 8.31849 7.50375 8.35049 7.57841 8.41449C7.65575 8.47583 7.69708 8.55449 7.70241 8.65049H8.31841C8.29975 8.39983 8.19975 8.20516 8.01841 8.06649C7.83975 7.92516 7.60641 7.85449 7.31841 7.85449C7.12641 7.85449 6.95575 7.88783 6.80641 7.95449C6.65708 8.01849 6.54108 8.11183 6.45841 8.23449C6.37575 8.35716 6.33441 8.50116 6.33441 8.66649C6.33441 8.84249 6.37441 8.98383 6.45441 9.09049C6.53708 9.19449 6.63441 9.27316 6.74641 9.32649C6.86108 9.37716 7.00908 9.42916 7.19041 9.48249C7.32375 9.51983 7.42775 9.55449 7.50241 9.58649C7.57975 9.61583 7.64375 9.65716 7.69441 9.71049C7.74508 9.76383 7.77041 9.83183 7.77041 9.91449C7.77041 10.0158 7.73308 10.0985 7.65841 10.1625C7.58375 10.2238 7.48108 10.2545 7.35041 10.2545C7.22241 10.2545 7.12108 10.2212 7.04641 10.1545C6.97441 10.0878 6.93441 9.99716 6.92641 9.88249H6.32641C6.32908 10.0532 6.37575 10.2012 6.46641 10.3265C6.55708 10.4518 6.67975 10.5478 6.83441 10.6145ZM9.90391 9.74649L10.5079 10.6865H11.1519L10.2599 9.29849L11.1359 7.89449H10.5039L9.95991 8.83049L9.35591 7.89449H8.71191L9.60391 9.27849L8.72391 10.6865H9.35591L9.90391 9.74649Z" fill="white"/>
</svg>
